<svg version="1.1" viewBox="0.0 0.0 764.0839895013123 281.62204724409446" fill="none" stroke="none" stroke-linecap="square" stroke-miterlimit="10" xmlns:xlink="http://www.w3.org/1999/xlink" xmlns="http://www.w3.org/2000/svg"><clipPath id="p.0"><path d="m0 0l764.084 0l0 281.62204l-764.084 0l0 -281.62204z" clip-rule="nonzero"/></clipPath><g clip-path="url(#p.0)"><path fill="#000000" fill-opacity="0.0" d="m0 0l764.084 0l0 281.62204l-764.084 0z" fill-rule="evenodd"/><g filter="url(#shadowFilter-p.1)"><use xlink:href="#p.1" transform="matrix(1.0 0.0 0.0 1.0 0.0 2.0)"/></g><defs><filter id="shadowFilter-p.1" filterUnits="userSpaceOnUse"><feGaussianBlur in="SourceAlpha" stdDeviation="2.0" result="blur"/><feComponentTransfer in="blur" color-interpolation-filters="sRGB"><feFuncR type="linear" slope="0" intercept="0.0"/><feFuncG type="linear" slope="0" intercept="0.0"/><feFuncB type="linear" slope="0" intercept="0.0"/><feFuncA type="linear" slope="0.5" intercept="0"/></feComponentTransfer></filter></defs><g id="p.1"><path fill="#999999" d="m191.27296 10.948819l560.315 0l0 257.6378l-560.315 0z" fill-rule="evenodd"/><path stroke="#595959" stroke-width="1.0" stroke-linejoin="round" stroke-linecap="butt" d="m191.27296 10.948819l560.315 0l0 257.6378l-560.315 0z" fill-rule="evenodd"/></g><path fill="#000000" fill-opacity="0.0" d="m348.61154 222.93832l231.8425 0l0 42.015747l-231.8425 0z" fill-rule="evenodd"/><path fill="#000000" d="m384.7693 235.8427l-5.5 0q-0.28125 0 -0.4375 0.140625q-0.125 0.140625 -0.125 0.328125q0 0.1875 0.125 0.328125q0.171875 0.15625 0.453125 0.15625l5.375 0q0.515625 0 0.75 0.21875q0.21875 0.21875 0.21875 0.65625l0 1.046875q0 2.15625 -1.703125 3.734375q-1.84375 1.703125 -5.03125 2.03125q-0.265625 0.015625 -0.390625 0.171875q-0.109375 0.15625 -0.09375 0.359375q0.015625 0.203125 0.171875 0.328125q0.15625 0.15625 0.4375 0.140625q3.421875 -0.3125 5.5625 -2.25q2.109375 -1.890625 2.109375 -4.46875l0 -1.296875q0 -0.765625 -0.46875 -1.171875q-0.484375 -0.453125 -1.453125 -0.453125zm-0.09375 3.359375q-1.34375 0.234375 -2.859375 0.375q-1.734375 0.1875 -3.078125 0.1875q-0.515625 0 -0.515625 0.46875q0 0.484375 0.515625 0.484375q1.390625 0 3.21875 -0.1875q1.59375 -0.171875 2.96875 -0.40625q0.234375 -0.0625 0.34375 -0.25q0.109375 -0.140625 0.078125 -0.328125q-0.0625 -0.1875 -0.21875 -0.28125q-0.1875 -0.109375 -0.453125 -0.0625zm7.234375 6.8125l0 -10.171875q0 -0.265625 -0.171875 -0.421875q-0.15625 -0.125 -0.375 -0.125q-0.25 0 -0.390625 0.125q-0.171875 0.15625 -0.171875 0.421875l0 4.234375l-3.4375 0q-0.25 0 -0.40625 0.125q-0.140625 0.15625 -0.125 0.34375q0 0.1875 0.171875 0.328125q0.15625 0.15625 0.453125 0.15625l3.34375 0l0 4.984375q0 0.28125 0.171875 0.453125q0.140625 0.140625 0.390625 0.140625q0.21875 0 0.375 -0.140625q0.171875 -0.171875 0.171875 -0.453125zm-10.8125 0.21875q0 -0.296875 -0.1875 -0.453125q-0.140625 -0.15625 -0.375 -0.15625q-0.234375 0 -0.375 0.15625q-0.171875 0.15625 -0.171875 0.453125l0 2.46875q0 0.828125 0.515625 1.25q0.484375 0.40625 1.3125 0.40625l10.1875 0q0.46875 0 0.46875 -0.484375q0 -0.46875 -0.46875 -0.46875l-10.0 0q-0.53125 0 -0.71875 -0.15625q-0.1875 -0.1875 -0.1875 -0.6875l0 -2.328125zm23.3125 -10.390625q0 2.359375 -1.9375 3.921875q-1.71875 1.390625 -4.0625 1.578125q-0.296875 0.015625 -0.421875 0.1875q-0.140625 0.15625 -0.109375 0.375q0.03125 0.203125 0.203125 0.328125q0.1875 0.140625 0.453125 0.109375q2.3125 -0.3125 4.125 -1.546875q1.71875 -1.15625 2.28125 -2.640625q0.578125 1.453125 2.296875 2.640625q1.796875 1.234375 4.0 1.546875q0.3125 0.03125 0.53125 -0.109375q0.1875 -0.125 0.21875 -0.328125q0.0625 -0.234375 -0.0625 -0.390625q-0.15625 -0.1875 -0.4375 -0.203125q-2.375 -0.25 -4.0625 -1.578125q-1.953125 -1.546875 -1.953125 -3.859375q0 -0.296875 -0.171875 -0.46875q-0.15625 -0.15625 -0.359375 -0.15625q-0.21875 0 -0.375 0.15625q-0.15625 0.171875 -0.15625 0.4375zm7.78125 8.65625l-14.453125 0q-0.53125 0 -0.546875 0.453125q-0.046875 0.484375 0.453125 0.484375l3.5 0l0 1.453125q0 0.8125 -0.296875 1.546875q-0.28125 0.65625 -0.828125 1.203125q-0.1875 0.15625 -0.140625 0.40625q0.015625 0.203125 0.203125 0.375q0.171875 0.140625 0.390625 0.15625q0.21875 0.03125 0.40625 -0.140625q0.609375 -0.640625 0.984375 -1.5625q0.390625 -0.96875 0.390625 -1.96875l0 -1.46875l5.921875 0l0 4.8125q0 0.265625 0.15625 0.421875q0.15625 0.140625 0.375 0.140625q0.21875 0 0.375 -0.15625q0.1875 -0.171875 0.1875 -0.421875l0 -4.796875l2.96875 0q0.453125 0 0.453125 -0.484375q-0.015625 -0.453125 -0.5 -0.453125zm11.546875 -6.9375l0 9.984375q0 0.421875 -0.203125 0.59375q-0.1875 0.140625 -0.65625 0.140625l-3.953125 0q-0.453125 0 -0.625 -0.171875q-0.1875 -0.15625 -0.1875 -0.59375l0 -9.84375q0 -0.4375 0.171875 -0.65625q0.1875 -0.21875 0.609375 -0.21875l3.953125 0q0.484375 0 0.6875 0.1875q0.203125 0.1875 0.203125 0.578125zm-0.8125 -1.71875l-4.171875 0q-0.828125 0 -1.28125 0.5q-0.453125 0.484375 -0.453125 1.25l0 10.015625q0 0.796875 0.40625 1.1875q0.4375 0.4375 1.375 0.4375l4.25 0q0.875 0 1.3125 -0.421875q0.453125 -0.40625 0.453125 -1.21875l0 -10.125q0 -0.765625 -0.546875 -1.203125q-0.5 -0.421875 -1.34375 -0.421875zm6.984375 14.3125l0 -14.3125q0 -0.265625 -0.171875 -0.421875q-0.15625 -0.125 -0.375 -0.125q-0.25 0 -0.390625 0.125q-0.171875 0.15625 -0.171875 0.421875l0 6.078125l-3.171875 0q-0.265625 0 -0.390625 0.125q-0.125 0.15625 -0.125 0.328125q0.015625 0.1875 0.171875 0.34375q0.15625 0.140625 0.4375 0.140625l3.078125 0l0 7.296875q0 0.3125 0.171875 0.5q0.140625 0.171875 0.390625 0.171875q0.21875 0 0.375 -0.171875q0.171875 -0.203125 0.171875 -0.5z" fill-rule="nonzero"/><path fill="#000000" d="m444.39008 235.74895q-1.703125 0 -2.609375 2.0625q-0.796875 1.84375 -0.796875 4.75q0 2.875 0.796875 4.703125q0.90625 2.078125 2.609375 2.078125q1.71875 0 2.625 -2.078125q0.8125 -1.828125 0.8125 -4.703125q0 -2.90625 -0.8125 -4.75q-0.90625 -2.0625 -2.625 -2.0625zm0 0.953125q1.171875 0 1.78125 1.765625q0.546875 1.53125 0.546875 4.09375q0 2.515625 -0.546875 4.0625q-0.609375 1.78125 -1.78125 1.78125q-1.1875 0 -1.78125 -1.78125q-0.515625 -1.546875 -0.515625 -4.0625q0 -2.53125 0.515625 -4.09375q0.59375 -1.765625 1.78125 -1.765625zm9.140625 -0.953125l0 6.90625l-2.640625 0l0 -6.90625q0 -0.46875 -0.5625 -0.46875q-0.53125 0 -0.53125 0.46875l0 14.5q0 0.265625 0.171875 0.421875q0.140625 0.140625 0.359375 0.140625q0.234375 0 0.375 -0.140625q0.1875 -0.15625 0.1875 -0.421875l0 -6.6875l2.640625 0l0 6.71875q0 0.25 0.15625 0.390625q0.15625 0.140625 0.375 0.140625q0.203125 0 0.359375 -0.15625q0.171875 -0.140625 0.171875 -0.390625l0 -14.515625q0 -0.46875 -0.53125 -0.46875q-0.53125 0 -0.53125 0.46875zm19.53125 -0.25l-11.90625 0q-0.53125 0 -0.5 0.46875q0 0.46875 0.5 0.46875l11.96875 0q0.21875 0 0.359375 -0.140625q0.109375 -0.15625 0.109375 -0.328125q0 -0.1875 -0.140625 -0.34375q-0.15625 -0.125 -0.390625 -0.125zm0.0625 4.484375l-2.28125 0l0.5625 -2.6875q0.0625 -0.234375 -0.09375 -0.40625q-0.125 -0.15625 -0.359375 -0.171875q-0.234375 -0.015625 -0.40625 0.09375q-0.21875 0.109375 -0.234375 0.375l-0.578125 2.796875l-5.21875 0l-0.578125 -2.859375q-0.046875 -0.25 -0.21875 -0.390625q-0.1875 -0.109375 -0.421875 -0.09375q-0.21875 0.03125 -0.34375 0.171875q-0.15625 0.171875 -0.09375 0.421875l0.5625 2.75l-2.296875 0q-0.46875 0 -0.46875 0.46875q-0.03125 0.484375 0.421875 0.484375l12.140625 0q0.421875 0 0.375 -0.484375q-0.015625 -0.46875 -0.46875 -0.46875zm1.203125 2.515625l-14.40625 0q-0.53125 0 -0.546875 0.4375q0 0.46875 0.515625 0.46875l14.515625 0q0.21875 0 0.359375 -0.15625q0.109375 -0.125 0.109375 -0.3125q0 -0.1875 -0.140625 -0.3125q-0.15625 -0.125 -0.40625 -0.125zm-2.640625 2.21875l-10.296875 0q-0.5625 0 -0.578125 0.46875q0 0.484375 0.5625 0.484375l10.1875 0q0.390625 0 0.546875 0.125q0.171875 0.140625 0.171875 0.46875l0 0.453125q0 0.25 -0.1875 0.359375q-0.15625 0.109375 -0.5 0.109375l-9.3125 0q-0.6875 0 -1.0625 0.359375q-0.359375 0.359375 -0.359375 0.96875l0 0.828125q0 0.578125 0.34375 0.90625q0.359375 0.359375 0.984375 0.359375l10.90625 0q0.25 0 0.375 -0.15625q0.125 -0.140625 0.125 -0.328125q-0.015625 -0.1875 -0.140625 -0.34375q-0.171875 -0.125 -0.421875 -0.125l-10.4375 0q-0.328125 0 -0.484375 -0.109375q-0.140625 -0.109375 -0.140625 -0.390625l0 -0.453125q0 -0.265625 0.125 -0.421875q0.15625 -0.140625 0.515625 -0.140625l9.421875 0q0.59375 0 0.96875 -0.390625q0.390625 -0.359375 0.390625 -0.890625l0 -0.890625q0 -0.578125 -0.515625 -0.9375q-0.484375 -0.3125 -1.1875 -0.3125zm13.328125 -8.890625l-5.3125 0q-0.59375 0 -0.59375 0.46875q-0.015625 0.46875 0.5625 0.46875l4.984375 0q0.5625 0 0.8125 0.15625q0.265625 0.1875 0.265625 0.5625l0 3.171875q0 0.40625 -0.1875 0.53125q-0.15625 0.15625 -0.625 0.15625l-3.984375 0q-0.828125 0 -1.28125 0.484375q-0.453125 0.453125 -0.453125 1.21875l0 4.375q0 0.84375 0.421875 1.328125q0.46875 0.515625 1.390625 0.515625q2.234375 0 4.28125 -0.328125q2.296875 -0.359375 3.828125 -1.046875q0.46875 -0.234375 0.265625 -0.703125q-0.1875 -0.46875 -0.671875 -0.203125q-1.34375 0.609375 -3.28125 0.96875q-2.0 0.359375 -4.140625 0.359375q-0.546875 0 -0.78125 -0.234375q-0.21875 -0.203125 -0.21875 -0.71875l0 -4.15625q0 -0.484375 0.171875 -0.6875q0.1875 -0.203125 0.640625 -0.203125l3.953125 0q0.875 0 1.296875 -0.390625q0.4375 -0.375 0.4375 -1.078125l0 -3.609375q0 -0.671875 -0.484375 -1.046875q-0.484375 -0.359375 -1.296875 -0.359375zm7.078125 14.40625l0 -14.4375q0 -0.25 -0.171875 -0.390625q-0.15625 -0.109375 -0.375 -0.109375q-0.25 0 -0.390625 0.109375q-0.171875 0.140625 -0.171875 0.390625l0 14.4375q0 0.25 0.171875 0.421875q0.140625 0.15625 0.390625 0.15625q0.21875 0 0.375 -0.15625q0.171875 -0.171875 0.171875 -0.421875zm10.34375 -9.0q-0.9375 0.125 -1.96875 0.234375q-1.359375 0.15625 -2.265625 0.15625q-0.28125 0 -0.4375 0.140625q-0.140625 0.140625 -0.140625 0.34375q0 0.171875 0.140625 0.3125q0.15625 0.15625 0.4375 0.15625q1.078125 0 2.4375 -0.15625q1.046875 -0.109375 1.90625 -0.265625q0.5 -0.109375 0.4375 -0.578125q-0.046875 -0.453125 -0.546875 -0.34375zm0.09375 -5.390625l-4.078125 0q-0.28125 0 -0.4375 0.140625q-0.125 0.140625 -0.125 0.328125q0 0.1875 0.125 0.328125q0.171875 0.15625 0.453125 0.15625l3.875 0q0.515625 0 0.765625 0.21875q0.21875 0.21875 0.21875 0.65625l0 3.3125q0 3.046875 -1.4375 5.046875q-1.4375 2.078125 -3.96875 2.421875q-0.59375 0.0625 -0.53125 0.546875q0.046875 0.46875 0.609375 0.40625q2.90625 -0.359375 4.640625 -2.609375q1.78125 -2.3125 1.78125 -6.015625l0 -3.390625q0 -0.671875 -0.546875 -1.109375q-0.53125 -0.4375 -1.34375 -0.4375zm4.546875 -0.0625l0 6.0625l-3.40625 0l0 0.921875l3.40625 0l0 7.484375q0 0.265625 0.15625 0.421875q0.15625 0.140625 0.375 0.140625q0.21875 0 0.375 -0.140625q0.1875 -0.15625 0.1875 -0.421875l0 -14.46875q0 -0.5 -0.5625 -0.5q-0.53125 0 -0.53125 0.5zm4.515625 14.453125l0 -14.453125q0 -0.25 -0.171875 -0.375q-0.15625 -0.125 -0.359375 -0.125q-0.21875 0 -0.375 0.125q-0.15625 0.140625 -0.15625 0.390625l0 14.4375q0 0.25 0.15625 0.421875q0.15625 0.15625 0.375 0.15625q0.203125 0 0.359375 -0.15625q0.171875 -0.171875 0.171875 -0.421875zm9.65625 -14.484375q-2.046875 0 -3.203125 2.0625q-1.0625 1.890625 -1.0625 4.75q0 2.828125 1.0625 4.703125q1.15625 2.078125 3.203125 2.078125q2.0 0 3.15625 -2.078125q1.0625 -1.875 1.0625 -4.703125q0 -2.859375 -1.0625 -4.75q-1.15625 -2.0625 -3.15625 -2.0625zm0 0.953125q1.484375 0 2.34375 1.765625q0.765625 1.609375 0.765625 4.09375q0 2.4375 -0.765625 4.0625q-0.859375 1.78125 -2.34375 1.78125q-1.515625 0 -2.375 -1.78125q-0.78125 -1.625 -0.78125 -4.0625q0 -2.484375 0.78125 -4.09375q0.859375 -1.765625 2.375 -1.765625zm8.84375 13.53125l0 -14.4375q0 -0.25 -0.171875 -0.390625q-0.15625 -0.109375 -0.375 -0.109375q-0.25 0 -0.390625 0.109375q-0.171875 0.140625 -0.171875 0.390625l0 14.4375q0 0.25 0.171875 0.421875q0.140625 0.15625 0.390625 0.15625q0.21875 0 0.375 -0.15625q0.171875 -0.171875 0.171875 -0.421875zm9.796875 -14.015625q0 2.359375 -1.15625 4.609375q-1.140625 2.171875 -3.015625 3.625q-0.234375 0.171875 -0.28125 0.421875q-0.015625 0.203125 0.125 0.359375q0.140625 0.15625 0.328125 0.1875q0.21875 0.015625 0.40625 -0.125q1.34375 -1.09375 2.359375 -2.4375q0.796875 -1.078125 1.359375 -2.21875q1.125 0.828125 2.140625 1.8125q1.140625 1.078125 2.125 2.328125q0.15625 0.203125 0.421875 0.21875q0.203125 0 0.390625 -0.15625q0.171875 -0.15625 0.1875 -0.390625q0.015625 -0.25 -0.171875 -0.5q-1.171875 -1.3125 -2.296875 -2.3125q-1.15625 -1.046875 -2.4375 -1.90625q0.3125 -0.859375 0.46875 -1.765625q0.171875 -0.875 0.171875 -1.75q0 -0.25 -0.1875 -0.40625q-0.15625 -0.125 -0.375 -0.125q-0.234375 0 -0.390625 0.125q-0.171875 0.15625 -0.171875 0.40625zm9.203125 9.796875l0 -10.234375q0 -0.25 -0.171875 -0.375q-0.15625 -0.125 -0.375 -0.125q-0.25 0 -0.390625 0.125q-0.171875 0.140625 -0.171875 0.390625l0 1.765625l-4.328125 0q-0.234375 0 -0.375 0.125q-0.125 0.140625 -0.125 0.328125q0.03125 0.1875 0.171875 0.34375q0.171875 0.140625 0.453125 0.140625l4.203125 0l0 2.125l-4.359375 0q-0.59375 0 -0.59375 0.453125q0 0.484375 0.578125 0.484375l4.375 0l0 4.453125q0 0.28125 0.171875 0.453125q0.140625 0.140625 0.390625 0.140625q0.21875 0 0.375 -0.140625q0.171875 -0.171875 0.171875 -0.453125zm-10.8125 0.21875q0 -0.296875 -0.1875 -0.453125q-0.140625 -0.15625 -0.375 -0.15625q-0.234375 0 -0.375 0.15625q-0.171875 0.15625 -0.171875 0.453125l0 2.46875q0 0.828125 0.515625 1.25q0.484375 0.40625 1.3125 0.40625l10.1875 0q0.46875 0 0.46875 -0.484375q0 -0.46875 -0.46875 -0.46875l-10.0 0q-0.53125 0 -0.71875 -0.15625q-0.1875 -0.1875 -0.1875 -0.6875l0 -2.328125z" fill-rule="nonzero"/><g filter="url(#shadowFilter-p.2)"><use xlink:href="#p.2" transform="matrix(1.0 0.0 0.0 1.0 0.0 2.0)"/></g><defs><filter id="shadowFilter-p.2" filterUnits="userSpaceOnUse"><feGaussianBlur in="SourceAlpha" stdDeviation="2.0" result="blur"/><feComponentTransfer in="blur" color-interpolation-filters="sRGB"><feFuncR type="linear" slope="0" intercept="0.0"/><feFuncG type="linear" slope="0" intercept="0.0"/><feFuncB type="linear" slope="0" intercept="0.0"/><feFuncA type="linear" slope="0.5" intercept="0"/></feComponentTransfer></filter></defs><g id="p.2"><path fill="#999999" d="m9.656168 84.63386l134.70865 0l0 79.11811l-134.70865 0z" fill-rule="evenodd"/><path stroke="#595959" stroke-width="1.0" stroke-linejoin="round" stroke-linecap="butt" d="m9.656168 84.63386l134.70865 0l0 79.11811l-134.70865 0z" fill-rule="evenodd"/><path fill="#000000" d="m50.885498 106.675415l0 1.03125l6.953125 0q-0.09375 0.8125 -0.234375 1.5q-0.15625 0.703125 -0.40625 1.5q-1.578125 0.21875 -3.78125 0.375q-1.921875 0.125 -3.234375 0.125l0.4375 1.078125q0.140625 0.25 0.234375 0.28125q0.0625 0.015625 0.25 -0.09375q0.15625 -0.09375 0.265625 -0.140625q0.1875 -0.09375 0.390625 -0.109375l5.0 -0.484375q-0.828125 1.84375 -2.71875 3.453125q-1.90625 1.65625 -4.171875 2.390625l1.015625 1.03125q3.53125 -1.578125 5.5625 -4.265625q2.328125 -3.078125 2.75 -7.671875l-8.3125 0zm12.484375 -1.6875l-0.78125 0l0 16.625l1.25 0l0 -8.453125l2.9375 0l0 -1.046875l-2.9375 0l0 -6.421875q0 -0.09375 0.015625 -0.1875q0.015625 -0.0625 0.078125 -0.15625q0.109375 -0.203125 0.03125 -0.265625q-0.09375 -0.09375 -0.59375 -0.09375zm7.703125 1.34375l0 0.953125l11.875 0l0 -0.953125l-11.875 0zm3.1875 1.8125l-0.875 0l0.5625 4.421875l-2.609375 0l0 0.9375l11.34375 0l0 -0.9375l-2.671875 0l0.5 -3.703125q0.03125 -0.109375 0.09375 -0.21875q0.046875 -0.046875 0.140625 -0.140625q0.125 -0.140625 0.09375 -0.1875q-0.046875 -0.078125 -0.40625 -0.140625l-0.984375 -0.15625l-0.59375 4.546875l-3.703125 0l-0.453125 -3.8125q-0.03125 -0.09375 0.015625 -0.203125q0.015625 -0.046875 0.046875 -0.140625q0.09375 -0.15625 0.046875 -0.203125q-0.09375 -0.0625 -0.546875 -0.0625zm-5.078125 10.078125l0 1.015625l15.65625 0l0 -1.015625l-15.65625 0zm19.703125 -11.546875l0 1.03125l6.953125 0q-0.09375 0.8125 -0.234375 1.5q-0.15625 0.703125 -0.40625 1.5q-1.578125 0.21875 -3.78125 0.375q-1.921875 0.125 -3.234375 0.125l0.4375 1.078125q0.140625 0.25 0.234375 0.28125q0.0625 0.015625 0.25 -0.09375q0.15625 -0.09375 0.265625 -0.140625q0.1875 -0.09375 0.390625 -0.109375l5.0 -0.484375q-0.828125 1.84375 -2.71875 3.453125q-1.90625 1.65625 -4.171875 2.390625l1.015625 1.03125q3.53125 -1.578125 5.5625 -4.265625q2.328125 -3.078125 2.75 -7.671875l-8.3125 0zm12.484375 -1.6875l-0.78125 0l0 16.625l1.25 0l0 -8.453125l2.9375 0l0 -1.046875l-2.9375 0l0 -6.421875q0 -0.09375 0.015625 -0.1875q0.015625 -0.0625 0.078125 -0.15625q0.109375 -0.203125 0.03125 -0.265625q-0.09375 -0.09375 -0.59375 -0.09375z" fill-rule="nonzero"/><path fill="#000000" d="m52.354248 127.394165l0 1.078125l10.046875 0l-0.015625 1.796875q-2.953125 0.234375 -5.9375 0.390625q-3.03125 0.1875 -4.515625 0.1875l0.328125 1.0625q0.09375 0.28125 0.203125 0.3125q0.0625 0.015625 0.265625 -0.09375q0.15625 -0.078125 0.265625 -0.125q0.1875 -0.0625 0.390625 -0.078125l8.984375 -0.6875q-0.078125 0.75 -0.171875 1.375q-0.125 0.8125 -0.328125 1.78125l1.1875 0.125q0.3125 -1.546875 0.453125 -3.0625q0.15625 -1.6875 0.15625 -4.0625l-11.3125 0zm-2.171875 6.375l0 1.015625l15.65625 0l0 -1.015625l-15.65625 0zm2.15625 2.90625l0 1.015625l10.15625 0l0 1.75l-10.15625 0l0 3.953125l11.609375 0l0 -1.015625l-10.453125 0l0 -1.921875l10.1875 0l0 -3.78125l-11.34375 0zm25.03125 -8.234375l-1.0625 -0.109375q0 2.796875 -2.0 4.5625q-1.84375 1.59375 -5.09375 2.125l1.0625 1.0625q2.453125 -0.5 4.296875 -1.8125q1.90625 -1.375 2.375 -3.0625q0.53125 1.796875 2.75 3.203125q1.953125 1.25 3.921875 1.546875l0.921875 -1.15625q-1.328125 0 -2.59375 -0.515625q-1.1875 -0.484375 -2.140625 -1.3125q-0.9375 -0.8125 -1.515625 -1.8125q-0.578125 -1.015625 -0.6875 -1.984375q0 -0.109375 0.0625 -0.21875q0.015625 -0.09375 0.09375 -0.1875q0.078125 -0.125 0.046875 -0.1875q-0.046875 -0.09375 -0.4375 -0.140625zm-8.515625 11.65625l0 1.1875l16.140625 0l0 -1.1875l-16.140625 0zm32.765625 -13.203125l-0.890625 0l0 7.046875l-3.640625 0l0 1.046875l3.640625 0l0 8.140625l1.25 0l0 -15.5q0 -0.125 0.0625 -0.234375q0.015625 -0.046875 0.109375 -0.140625q0.109375 -0.15625 0.0625 -0.203125q-0.09375 -0.09375 -0.59375 -0.15625zm-13.0 2.234375l0 9.921875q2.515625 0 4.984375 -0.140625q2.484375 -0.171875 4.546875 -0.484375l-0.140625 -1.03125q-2.1875 0.328125 -4.578125 0.484375q-1.9375 0.09375 -3.578125 0.078125l0 -3.578125l5.96875 0l0 -1.03125l-5.96875 0l0 -3.203125l6.6875 0l0 -1.015625l-7.921875 0z" fill-rule="nonzero"/></g><g filter="url(#shadowFilter-p.3)"><use xlink:href="#p.3" transform="matrix(1.0 0.0 0.0 1.0 0.0 2.0)"/></g><defs><filter id="shadowFilter-p.3" filterUnits="userSpaceOnUse"><feGaussianBlur in="SourceAlpha" stdDeviation="2.0" result="blur"/><feComponentTransfer in="blur" color-interpolation-filters="sRGB"><feFuncR type="linear" slope="0" intercept="0.0"/><feFuncG type="linear" slope="0" intercept="0.0"/><feFuncB type="linear" slope="0" intercept="0.0"/><feFuncA type="linear" slope="0.5" intercept="0"/></feComponentTransfer></filter></defs><g id="p.3"><path fill="#efefef" d="m544.8425 106.6811l190.01575 0l0 36.28347l-190.01575 0z" fill-rule="evenodd"/><path stroke="#595959" stroke-width="1.0" stroke-linejoin="round" stroke-linecap="butt" d="m544.8425 106.6811l190.01575 0l0 36.28347l-190.01575 0z" fill-rule="evenodd"/><path fill="#000000" d="m569.8177 127.2897q-0.15625 1.75 -1.25 2.734375q-1.09375 1.0 -2.90625 1.0q-2.1875 0 -3.453125 -1.59375q-1.265625 -1.640625 -1.265625 -4.546875q0 -2.90625 1.25 -4.484375q1.234375 -1.53125 3.453125 -1.53125q1.703125 0 2.78125 0.84375q1.078125 0.859375 1.265625 2.359375l1.234375 0q-0.125 -1.96875 -1.53125 -3.15625q-1.4375 -1.1875 -3.75 -1.1875q-2.765625 0 -4.359375 1.875q-1.640625 1.921875 -1.640625 5.296875q0 3.390625 1.609375 5.328125q1.578125 1.921875 4.34375 1.921875q2.421875 0 3.84375 -1.296875q1.4375 -1.296875 1.59375 -3.5625l-1.21875 0zm7.9589844 -5.640625q-2.140625 0 -3.390625 1.609375q-1.125 1.46875 -1.125 3.578125q0 2.109375 1.125 3.546875q1.25 1.640625 3.390625 1.640625q2.140625 0 3.390625 -1.640625q1.140625 -1.4375 1.140625 -3.546875q0 -2.109375 -1.140625 -3.578125q-1.25 -1.609375 -3.390625 -1.609375zm0 1.0q1.578125 0 2.5 1.296875q0.859375 1.1875 0.859375 2.875q0 1.6875 -0.859375 2.859375q-0.921875 1.3125 -2.5 1.3125q-1.59375 0 -2.5 -1.3125q-0.84375 -1.171875 -0.84375 -2.859375q0 -1.703125 0.84375 -2.875q0.921875 -1.296875 2.5 -1.296875zm7.205078 9.109375l1.125 0l0 -5.8125q0 -1.53125 0.8125 -2.421875q0.828125 -0.875 2.1875 -0.875q1.453125 0 1.96875 0.71875q0.484375 0.640625 0.484375 2.234375l0 6.15625l1.140625 0l0 -6.28125q0 -0.953125 -0.0625 -1.390625q-0.09375 -0.640625 -0.328125 -1.046875q-0.40625 -0.671875 -1.171875 -1.03125q-0.78125 -0.359375 -1.796875 -0.359375q-1.078125 0 -1.890625 0.4375q-0.828125 0.46875 -1.359375 1.375l0 -1.578125l-1.109375 0l0 9.875zm10.376953 -3.078125q0.046875 1.515625 1.0625 2.4375q1.046875 0.921875 2.765625 0.921875q1.703125 0 2.75 -0.8125q1.015625 -0.796875 1.015625 -2.03125q0 -1.1875 -0.71875 -1.8125q-0.671875 -0.578125 -2.28125 -0.96875l-0.453125 -0.109375q-1.578125 -0.375 -2.03125 -0.625q-0.703125 -0.4375 -0.703125 -1.34375q0 -0.765625 0.546875 -1.203125q0.609375 -0.484375 1.640625 -0.484375q1.140625 0 1.828125 0.5625q0.671875 0.578125 0.75 1.578125l1.171875 0q-0.125 -1.484375 -1.109375 -2.3125q-0.96875 -0.828125 -2.625 -0.828125q-1.53125 0 -2.46875 0.796875q-0.921875 0.796875 -0.921875 2.0625q0 1.1875 0.890625 1.8125q0.71875 0.515625 2.671875 1.0l0.046875 0q1.5 0.375 1.9375 0.640625q0.65625 0.390625 0.65625 1.21875q0 0.8125 -0.6875 1.3125q-0.71875 0.53125 -1.9375 0.53125q-1.15625 0 -1.875 -0.671875q-0.75 -0.65625 -0.75 -1.671875l-1.171875 0zm17.640625 -6.796875l-1.140625 0l0 5.84375q0 1.515625 -0.8125 2.40625q-0.796875 0.890625 -2.09375 0.890625q-1.234375 0 -1.75 -0.6875q-0.5 -0.65625 -0.5 -2.078125l0 -6.375l-1.125 0l0 6.65625q0 1.703125 0.796875 2.609375q0.8125 0.890625 2.375 0.890625q1.0 0 1.78125 -0.46875q0.796875 -0.453125 1.375 -1.40625l0 1.59375l1.09375 0l0 -9.875zm3.1171875 9.875l1.125 0l0 -6.109375q0 -1.34375 0.796875 -2.15625q0.8125 -0.84375 2.1875 -0.84375q0.875 0 1.359375 0.609375q0.484375 0.609375 0.484375 1.84375l0 6.65625l1.125 0l0 -6.171875q0 -1.328125 0.78125 -2.125q0.8125 -0.8125 2.1875 -0.8125q0.96875 0 1.40625 0.5625q0.453125 0.546875 0.453125 1.78125l0 6.765625l1.125 0l0 -6.875q0 -1.625 -0.75 -2.4375q-0.765625 -0.796875 -2.1875 -0.796875q-1.125 0 -1.9375 0.484375q-0.8125 0.484375 -1.3125 1.4375q-0.265625 -0.921875 -0.953125 -1.421875q-0.6875 -0.5 -1.625 -0.5q-1.078125 0 -1.890625 0.484375q-0.828125 0.46875 -1.328125 1.390625l0 -1.640625l-1.046875 0l0 9.875zm18.188477 -5.640625q-0.015625 -1.515625 0.9375 -2.5625q0.828125 -0.90625 2.125 -0.90625q1.28125 0 2.078125 0.90625q0.890625 1.046875 0.890625 2.5625l-6.03125 0zm0 0.90625l7.21875 0l0 -0.359375q0 -2.375 -1.109375 -3.71875q-1.109375 -1.296875 -3.0 -1.296875q-2.0 0 -3.140625 1.359375q-1.15625 1.390625 -1.15625 3.875q0 2.421875 1.140625 3.796875q1.125 1.359375 3.09375 1.359375q1.640625 0 2.734375 -0.921875q1.109375 -0.921875 1.296875 -2.40625l-1.140625 0q-0.15625 1.0625 -0.9375 1.6875q-0.765625 0.625 -1.859375 0.625q-1.40625 0 -2.265625 -1.0625q-0.875 -1.078125 -0.875 -2.9375zm9.847656 4.734375l1.125 0l0 -5.46875q0 -1.703125 0.75 -2.59375q0.71875 -0.875 2.078125 -0.875l0.15625 0l0 -1.171875l-0.125 0q-0.984375 0 -1.703125 0.46875q-0.765625 0.5 -1.171875 1.5l0 -1.734375l-1.109375 0l0 9.875zm6.3203125 0l1.25 0l0 -6.109375l3.984375 0q1.65625 0 2.171875 0.5625q0.5 0.546875 0.625 2.34375l0.15625 1.796875q0.03125 0.5 0.109375 0.828125q0.078125 0.359375 0.1875 0.578125l1.390625 0l0 -0.1875q-0.1875 -0.15625 -0.28125 -0.453125q-0.125 -0.328125 -0.171875 -0.796875l-0.140625 -2.0625q-0.15625 -1.53125 -0.390625 -2.0625q-0.359375 -0.78125 -1.34375 -1.09375q1.0625 -0.390625 1.640625 -1.25q0.578125 -0.875 0.578125 -2.125q0 -1.046875 -0.453125 -1.84375q-0.421875 -0.796875 -1.21875 -1.234375q-0.671875 -0.375 -1.59375 -0.484375q-0.640625 -0.078125 -1.953125 -0.078125l-4.546875 0l0 13.671875zm1.25 -7.234375l0 -5.3125l3.5625 0q1.0 0 1.484375 0.0625q0.6875 0.109375 1.140625 0.421875q0.484375 0.3125 0.75 0.859375q0.28125 0.53125 0.28125 1.203125q0 1.484375 -0.875 2.140625q-0.859375 0.625 -2.734375 0.625l-3.609375 0zm11.972656 1.59375q-0.015625 -1.515625 0.9375 -2.5625q0.828125 -0.90625 2.125 -0.90625q1.28125 0 2.078125 0.90625q0.890625 1.046875 0.890625 2.5625l-6.03125 0zm0 0.90625l7.21875 0l0 -0.359375q0 -2.375 -1.109375 -3.71875q-1.109375 -1.296875 -3.0 -1.296875q-2.0 0 -3.140625 1.359375q-1.15625 1.390625 -1.15625 3.875q0 2.421875 1.140625 3.796875q1.125 1.359375 3.09375 1.359375q1.640625 0 2.734375 -0.921875q1.109375 -0.921875 1.296875 -2.40625l-1.140625 0q-0.15625 1.0625 -0.9375 1.6875q-0.765625 0.625 -1.859375 0.625q-1.40625 0 -2.265625 -1.0625q-0.875 -1.078125 -0.875 -2.9375zm16.722656 1.328125q-0.203125 1.234375 -0.96875 1.9375q-0.765625 0.703125 -1.90625 0.703125q-1.484375 0 -2.359375 -1.09375q-0.890625 -1.125 -0.890625 -3.09375q0 -1.96875 0.890625 -3.078125q0.875 -1.078125 2.34375 -1.078125q1.109375 0 1.875 0.625q0.78125 0.65625 0.921875 1.75l1.09375 0q-0.09375 -1.515625 -1.171875 -2.453125q-1.0625 -0.921875 -2.71875 -0.921875q-2.046875 0 -3.21875 1.375q-1.1875 1.40625 -1.1875 3.875q0 2.375 1.171875 3.75q1.171875 1.375 3.15625 1.375q1.75 0 2.84375 -1.0q1.078125 -0.984375 1.265625 -2.671875l-1.140625 0zm7.9257812 -6.703125q-2.140625 0 -3.390625 1.609375q-1.125 1.46875 -1.125 3.578125q0 2.109375 1.125 3.546875q1.25 1.640625 3.390625 1.640625q2.140625 0 3.390625 -1.640625q1.140625 -1.4375 1.140625 -3.546875q0 -2.109375 -1.140625 -3.578125q-1.25 -1.609375 -3.390625 -1.609375zm0 1.0q1.578125 0 2.5 1.296875q0.859375 1.1875 0.859375 2.875q0 1.6875 -0.859375 2.859375q-0.921875 1.3125 -2.5 1.3125q-1.59375 0 -2.5 -1.3125q-0.84375 -1.171875 -0.84375 -2.859375q0 -1.703125 0.84375 -2.875q0.921875 -1.296875 2.5 -1.296875zm7.205078 9.109375l1.125 0l0 -5.46875q0 -1.703125 0.75 -2.59375q0.71875 -0.875 2.078125 -0.875l0.15625 0l0 -1.171875l-0.125 0q-0.984375 0 -1.703125 0.46875q-0.765625 0.5 -1.171875 1.5l0 -1.734375l-1.109375 0l0 9.875zm14.4609375 -13.671875l-1.125 0l0 5.40625q-0.578125 -0.84375 -1.453125 -1.375q-0.84375 -0.46875 -1.9375 -0.46875q-2.03125 0 -3.21875 1.609375q-1.0625 1.46875 -1.0625 3.578125q0 2.109375 1.0625 3.5625q1.1875 1.640625 3.21875 1.640625q1.0625 0 2.0 -0.5625q0.890625 -0.515625 1.390625 -1.40625l0 1.6875l1.125 0l0 -13.671875zm-4.34375 4.5625q1.5625 0 2.5 1.296875q0.828125 1.171875 0.828125 2.875q0 1.6875 -0.828125 2.875q-0.9375 1.328125 -2.5 1.328125q-1.546875 0 -2.453125 -1.328125q-0.828125 -1.1875 -0.828125 -2.875q0 -1.703125 0.828125 -2.875q0.90625 -1.296875 2.453125 -1.296875zm7.013672 6.03125q0.046875 1.515625 1.0625 2.4375q1.046875 0.921875 2.765625 0.921875q1.703125 0 2.75 -0.8125q1.015625 -0.796875 1.015625 -2.03125q0 -1.1875 -0.71875 -1.8125q-0.671875 -0.578125 -2.28125 -0.96875l-0.453125 -0.109375q-1.578125 -0.375 -2.03125 -0.625q-0.703125 -0.4375 -0.703125 -1.34375q0 -0.765625 0.546875 -1.203125q0.609375 -0.484375 1.640625 -0.484375q1.140625 0 1.828125 0.5625q0.671875 0.578125 0.75 1.578125l1.171875 0q-0.125 -1.484375 -1.109375 -2.3125q-0.96875 -0.828125 -2.625 -0.828125q-1.53125 0 -2.46875 0.796875q-0.921875 0.796875 -0.921875 2.0625q0 1.1875 0.890625 1.8125q0.71875 0.515625 2.671875 1.0l0.046875 0q1.5 0.375 1.9375 0.640625q0.65625 0.390625 0.65625 1.21875q0 0.8125 -0.6875 1.3125q-0.71875 0.53125 -1.9375 0.53125q-1.15625 0 -1.875 -0.671875q-0.75 -0.65625 -0.75 -1.671875l-1.171875 0z" fill-rule="nonzero"/></g><path fill="#000000" fill-opacity="0.0" d="m144.36482 124.19292l69.25984 0" fill-rule="evenodd"/><path stroke="#595959" stroke-width="3.0" stroke-linejoin="round" stroke-linecap="butt" d="m144.36482 124.19292l51.259842 0" fill-rule="evenodd"/><path fill="#595959" stroke="#595959" stroke-width="3.0" stroke-linecap="butt" d="m195.62468 129.14812l13.614288 -4.9552l-13.614288 -4.9552z" fill-rule="evenodd"/><path fill="#000000" fill-opacity="0.0" d="m472.5092 124.19292l72.346466 0.62992096" fill-rule="evenodd"/><path stroke="#595959" stroke-width="3.0" stroke-linejoin="round" stroke-linecap="butt" d="m472.5092 124.19292l54.347137 0.47319794" fill-rule="evenodd"/><path fill="#595959" stroke="#595959" stroke-width="3.0" stroke-linecap="butt" d="m526.8132 129.62112l13.656921 -4.8364716l-13.570618 -5.0735474z" fill-rule="evenodd"/><g filter="url(#shadowFilter-p.4)"><use xlink:href="#p.4" transform="matrix(1.0 0.0 0.0 1.0 0.0 2.0)"/></g><defs><filter id="shadowFilter-p.4" filterUnits="userSpaceOnUse"><feGaussianBlur in="SourceAlpha" stdDeviation="2.0" result="blur"/><feComponentTransfer in="blur" color-interpolation-filters="sRGB"><feFuncR type="linear" slope="0" intercept="0.0"/><feFuncG type="linear" slope="0" intercept="0.0"/><feFuncB type="linear" slope="0" intercept="0.0"/><feFuncA type="linear" slope="0.5" intercept="0"/></feComponentTransfer></filter></defs><g id="p.4"><path fill="#efefef" d="m213.61154 40.192913l258.89764 0l0 168.0l-258.89764 0z" fill-rule="evenodd"/><path stroke="#595959" stroke-width="1.0" stroke-linejoin="round" stroke-linecap="butt" d="m213.61154 40.192913l258.89764 0l0 168.0l-258.89764 0z" fill-rule="evenodd"/></g><path fill="#000000" fill-opacity="0.0" d="m213.61154 36.615486l221.07086 0l0 42.015747l-221.07086 0z" fill-rule="evenodd"/><path fill="#000000" d="m294.0546 63.535484l0 -13.359375l9.015625 0l0 1.578125l-7.25 0l0 4.140625l6.265625 0l0 1.578125l-6.265625 0l0 6.0625l-1.765625 0zm17.724121 -3.109375l1.6875 0.203125q-0.40625 1.484375 -1.484375 2.3125q-1.078125 0.8125 -2.765625 0.8125q-2.125 0 -3.375 -1.296875q-1.234375 -1.3125 -1.234375 -3.671875q0 -2.453125 1.25 -3.796875q1.265625 -1.34375 3.265625 -1.34375q1.9375 0 3.15625 1.328125q1.234375 1.3125 1.234375 3.703125q0 0.15625 0 0.4375l-7.21875 0q0.09375 1.59375 0.90625 2.453125q0.8125 0.84375 2.015625 0.84375q0.90625 0 1.546875 -0.46875q0.640625 -0.484375 1.015625 -1.515625zm-5.390625 -2.65625l5.40625 0q-0.109375 -1.21875 -0.625 -1.828125q-0.78125 -0.953125 -2.03125 -0.953125q-1.125 0 -1.90625 0.765625q-0.765625 0.75 -0.84375 2.015625zm12.719452 4.296875l0.234375 1.453125q-0.6875 0.140625 -1.234375 0.140625q-0.890625 0 -1.390625 -0.28125q-0.484375 -0.28125 -0.6875 -0.734375q-0.203125 -0.46875 -0.203125 -1.9375l0 -5.578125l-1.203125 0l0 -1.265625l1.203125 0l0 -2.390625l1.625 -0.984375l0 3.375l1.65625 0l0 1.265625l-1.65625 0l0 5.671875q0 0.6875 0.078125 0.890625q0.09375 0.203125 0.28125 0.328125q0.203125 0.109375 0.578125 0.109375q0.265625 0 0.71875 -0.0625zm7.917694 -2.078125l1.609375 0.21875q-0.265625 1.65625 -1.359375 2.609375q-1.078125 0.9375 -2.671875 0.9375q-1.984375 0 -3.1875 -1.296875q-1.203125 -1.296875 -1.203125 -3.71875q0 -1.578125 0.515625 -2.75q0.515625 -1.171875 1.578125 -1.75q1.0625 -0.59375 2.3125 -0.59375q1.578125 0 2.578125 0.796875q1.0 0.796875 1.28125 2.265625l-1.59375 0.234375q-0.234375 -0.96875 -0.8125 -1.453125q-0.578125 -0.5 -1.390625 -0.5q-1.234375 0 -2.015625 0.890625q-0.78125 0.890625 -0.78125 2.8125q0 1.953125 0.75 2.84375q0.75 0.875 1.953125 0.875q0.96875 0 1.609375 -0.59375q0.65625 -0.59375 0.828125 -1.828125zm3.015625 3.546875l0 -13.359375l1.640625 0l0 4.796875q1.140625 -1.328125 2.890625 -1.328125q1.078125 0 1.859375 0.421875q0.796875 0.421875 1.140625 1.171875q0.34375 0.75 0.34375 2.171875l0 6.125l-1.640625 0l0 -6.125q0 -1.234375 -0.53125 -1.796875q-0.53125 -0.5625 -1.515625 -0.5625q-0.71875 0 -1.359375 0.390625q-0.640625 0.375 -0.921875 1.015625q-0.265625 0.640625 -0.265625 1.78125l0 5.296875l-1.640625 0zm17.000702 -3.109375l1.6875 0.203125q-0.40625 1.484375 -1.484375 2.3125q-1.078125 0.8125 -2.765625 0.8125q-2.125 0 -3.375 -1.296875q-1.234375 -1.3125 -1.234375 -3.671875q0 -2.453125 1.25 -3.796875q1.265625 -1.34375 3.265625 -1.34375q1.9375 0 3.15625 1.328125q1.234375 1.3125 1.234375 3.703125q0 0.15625 0 0.4375l-7.21875 0q0.09375 1.59375 0.90625 2.453125q0.8125 0.84375 2.015625 0.84375q0.90625 0 1.546875 -0.46875q0.640625 -0.484375 1.015625 -1.515625zm-5.390625 -2.65625l5.40625 0q-0.109375 -1.21875 -0.625 -1.828125q-0.78125 -0.953125 -2.03125 -0.953125q-1.125 0 -1.90625 0.765625q-0.765625 0.75 -0.84375 2.015625zm9.125732 5.765625l0 -9.671875l1.46875 0l0 1.46875q0.5625 -1.03125 1.03125 -1.359375q0.484375 -0.328125 1.0625 -0.328125q0.828125 0 1.6875 0.53125l-0.5625 1.515625q-0.609375 -0.359375 -1.203125 -0.359375q-0.546875 0 -0.96875 0.328125q-0.421875 0.328125 -0.609375 0.890625q-0.28125 0.875 -0.28125 1.921875l0 5.0625l-1.625 0z" fill-rule="nonzero"/><g filter="url(#shadowFilter-p.5)"><use xlink:href="#p.5" transform="matrix(1.0 0.0 0.0 1.0 0.0 2.0)"/></g><defs><filter id="shadowFilter-p.5" filterUnits="userSpaceOnUse"><feGaussianBlur in="SourceAlpha" stdDeviation="2.0" result="blur"/><feComponentTransfer in="blur" color-interpolation-filters="sRGB"><feFuncR type="linear" slope="0" intercept="0.0"/><feFuncG type="linear" slope="0" intercept="0.0"/><feFuncB type="linear" slope="0" intercept="0.0"/><feFuncA type="linear" slope="0.5" intercept="0"/></feComponentTransfer></filter></defs><g id="p.5"><path fill="#cccccc" d="m227.67453 78.63123l192.94489 0l0 89.25985l-192.94489 0z" fill-rule="evenodd"/><path stroke="#595959" stroke-width="1.0" stroke-linejoin="round" stroke-linecap="butt" d="m227.67453 78.63123l192.94489 0l0 89.25985l-192.94489 0z" fill-rule="evenodd"/></g><g filter="url(#shadowFilter-p.6)"><use xlink:href="#p.6" transform="matrix(1.0 0.0 0.0 1.0 0.0 2.0)"/></g><defs><filter id="shadowFilter-p.6" filterUnits="userSpaceOnUse"><feGaussianBlur in="SourceAlpha" stdDeviation="2.0" result="blur"/><feComponentTransfer in="blur" color-interpolation-filters="sRGB"><feFuncR type="linear" slope="0" intercept="0.0"/><feFuncG type="linear" slope="0" intercept="0.0"/><feFuncB type="linear" slope="0" intercept="0.0"/><feFuncA type="linear" slope="0.5" intercept="0"/></feComponentTransfer></filter></defs><g id="p.6"><path fill="#cccccc" d="m237.12073 95.56439l192.94489 0l0 99.52756l-192.94489 0z" fill-rule="evenodd"/><path stroke="#595959" stroke-width="1.0" stroke-linejoin="round" stroke-linecap="butt" d="m237.12073 95.56439l192.94489 0l0 99.52756l-192.94489 0z" fill-rule="evenodd"/><path fill="#000000" d="m260.27237 148.85754q-0.203125 1.234375 -0.96875 1.9375q-0.765625 0.703125 -1.90625 0.703125q-1.484375 0 -2.359375 -1.09375q-0.890625 -1.125 -0.890625 -3.09375q0 -1.96875 0.890625 -3.078125q0.875 -1.078125 2.34375 -1.078125q1.109375 0 1.875 0.625q0.78125 0.65625 0.921875 1.75l1.09375 0q-0.09375 -1.515625 -1.171875 -2.453125q-1.0625 -0.921875 -2.71875 -0.921875q-2.046875 0 -3.21875 1.375q-1.1875 1.40625 -1.1875 3.875q0 2.375 1.171875 3.75q1.171875 1.375 3.15625 1.375q1.75 0 2.84375 -1.0q1.078125 -0.984375 1.265625 -2.671875l-1.140625 0zm7.9257812 -6.703125q-2.140625 0 -3.390625 1.609375q-1.125 1.46875 -1.125 3.578125q0 2.109375 1.125 3.546875q1.25 1.640625 3.390625 1.640625q2.140625 0 3.390625 -1.640625q1.140625 -1.4375 1.140625 -3.546875q0 -2.109375 -1.140625 -3.578125q-1.25 -1.609375 -3.390625 -1.609375zm0 1.0q1.578125 0 2.5 1.296875q0.859375 1.1875 0.859375 2.875q0 1.6875 -0.859375 2.859375q-0.921875 1.3125 -2.5 1.3125q-1.59375 0 -2.5 -1.3125q-0.84375 -1.171875 -0.84375 -2.859375q0 -1.703125 0.84375 -2.875q0.921875 -1.296875 2.5 -1.296875zm7.205078 9.109375l1.125 0l0 -6.109375q0 -1.34375 0.796875 -2.15625q0.8125 -0.84375 2.1875 -0.84375q0.875 0 1.359375 0.609375q0.484375 0.609375 0.484375 1.84375l0 6.65625l1.125 0l0 -6.171875q0 -1.328125 0.78125 -2.125q0.8125 -0.8125 2.1875 -0.8125q0.96875 0 1.40625 0.5625q0.453125 0.546875 0.453125 1.78125l0 6.765625l1.125 0l0 -6.875q0 -1.625 -0.75 -2.4375q-0.765625 -0.796875 -2.1875 -0.796875q-1.125 0 -1.9375 0.484375q-0.8125 0.484375 -1.3125 1.4375q-0.265625 -0.921875 -0.953125 -1.421875q-0.6875 -0.5 -1.625 -0.5q-1.078125 0 -1.890625 0.484375q-0.828125 0.46875 -1.328125 1.390625l0 -1.640625l-1.046875 0l0 9.875zm17.422852 2.671875l1.125 0l0 -4.34375q0.578125 0.953125 1.453125 1.453125q0.859375 0.5 1.96875 0.5q1.984375 0 3.171875 -1.640625q1.0625 -1.453125 1.0625 -3.5625q0 -2.109375 -1.0625 -3.578125q-1.1875 -1.609375 -3.171875 -1.609375q-1.109375 0 -2.0 0.5q-0.828125 0.484375 -1.421875 1.390625l0 -1.65625l-1.125 0l0 12.546875zm4.328125 -11.78125q1.546875 0 2.453125 1.296875q0.84375 1.171875 0.84375 2.875q0 1.6875 -0.84375 2.875q-0.90625 1.328125 -2.453125 1.328125q-1.5625 0 -2.484375 -1.328125q-0.8125 -1.1875 -0.8125 -2.875q0 -1.703125 0.8125 -2.875q0.921875 -1.296875 2.484375 -1.296875zm7.1484375 9.109375l1.140625 0l0 -13.671875l-1.140625 0l0 13.671875zm5.0976562 -5.640625q-0.015625 -1.515625 0.9375 -2.5625q0.828125 -0.90625 2.125 -0.90625q1.28125 0 2.078125 0.90625q0.890625 1.046875 0.890625 2.5625l-6.03125 0zm0 0.90625l7.21875 0l0 -0.359375q0 -2.375 -1.109375 -3.71875q-1.109375 -1.296875 -3.0 -1.296875q-2.0 0 -3.140625 1.359375q-1.15625 1.390625 -1.15625 3.875q0 2.421875 1.140625 3.796875q1.125 1.359375 3.09375 1.359375q1.640625 0 2.734375 -0.921875q1.109375 -0.921875 1.296875 -2.40625l-1.140625 0q-0.15625 1.0625 -0.9375 1.6875q-0.765625 0.625 -1.859375 0.625q-1.40625 0 -2.265625 -1.0625q-0.875 -1.078125 -0.875 -2.9375zm11.566406 -7.96875l-1.125 0l0 2.828125l-1.34375 0l0 0.9375l1.34375 0l0 7.203125q0 1.046875 0.296875 1.484375q0.34375 0.5 1.28125 0.5q0.3125 0 0.640625 -0.0625q0.328125 -0.046875 0.75 -0.171875l0 -0.890625l-0.1875 0.046875q-0.34375 0.0625 -0.5 0.09375q-0.25 0.046875 -0.40625 0.046875q-0.46875 0 -0.625 -0.28125q-0.125 -0.21875 -0.125 -0.765625l0 -7.203125l1.84375 0l0 -0.9375l-1.84375 0l0 -2.828125zm4.984375 7.0625q-0.015625 -1.515625 0.9375 -2.5625q0.828125 -0.90625 2.125 -0.90625q1.28125 0 2.078125 0.90625q0.890625 1.046875 0.890625 2.5625l-6.03125 0zm0 0.90625l7.21875 0l0 -0.359375q0 -2.375 -1.109375 -3.71875q-1.109375 -1.296875 -3.0 -1.296875q-2.0 0 -3.140625 1.359375q-1.15625 1.390625 -1.15625 3.875q0 2.421875 1.140625 3.796875q1.125 1.359375 3.09375 1.359375q1.640625 0 2.734375 -0.921875q1.109375 -0.921875 1.296875 -2.40625l-1.140625 0q-0.15625 1.0625 -0.9375 1.6875q-0.765625 0.625 -1.859375 0.625q-1.40625 0 -2.265625 -1.0625q-0.875 -1.078125 -0.875 -2.9375zm18.222656 -8.9375l-1.125 0l0 5.40625q-0.578125 -0.84375 -1.453125 -1.375q-0.84375 -0.46875 -1.9375 -0.46875q-2.03125 0 -3.21875 1.609375q-1.0625 1.46875 -1.0625 3.578125q0 2.109375 1.0625 3.5625q1.1875 1.640625 3.21875 1.640625q1.0625 0 2.0 -0.5625q0.890625 -0.515625 1.390625 -1.40625l0 1.6875l1.125 0l0 -13.671875zm-4.34375 4.5625q1.5625 0 2.5 1.296875q0.828125 1.171875 0.828125 2.875q0 1.6875 -0.828125 2.875q-0.9375 1.328125 -2.5 1.328125q-1.546875 0 -2.453125 -1.328125q-0.828125 -1.1875 -0.828125 -2.875q0 -1.703125 0.828125 -2.875q0.90625 -1.296875 2.453125 -1.296875zm7.669922 9.109375l1.25 0l0 -6.46875l6.734375 0l0 -1.140625l-6.734375 0l0 -4.9375l7.390625 0l0 -1.125l-8.640625 0l0 13.671875zm11.923828 -5.640625q-0.015625 -1.515625 0.9375 -2.5625q0.828125 -0.90625 2.125 -0.90625q1.28125 0 2.078125 0.90625q0.890625 1.046875 0.890625 2.5625l-6.03125 0zm0 0.90625l7.21875 0l0 -0.359375q0 -2.375 -1.109375 -3.71875q-1.109375 -1.296875 -3.0 -1.296875q-2.0 0 -3.140625 1.359375q-1.15625 1.390625 -1.15625 3.875q0 2.421875 1.140625 3.796875q1.125 1.359375 3.09375 1.359375q1.640625 0 2.734375 -0.921875q1.109375 -0.921875 1.296875 -2.40625l-1.140625 0q-0.15625 1.0625 -0.9375 1.6875q-0.765625 0.625 -1.859375 0.625q-1.40625 0 -2.265625 -1.0625q-0.875 -1.078125 -0.875 -2.9375zm11.566406 -7.96875l-1.125 0l0 2.828125l-1.34375 0l0 0.9375l1.34375 0l0 7.203125q0 1.046875 0.296875 1.484375q0.34375 0.5 1.28125 0.5q0.3125 0 0.640625 -0.0625q0.328125 -0.046875 0.75 -0.171875l0 -0.890625l-0.1875 0.046875q-0.34375 0.0625 -0.5 0.09375q-0.25 0.046875 -0.40625 0.046875q-0.46875 0 -0.625 -0.28125q-0.125 -0.21875 -0.125 -0.765625l0 -7.203125l1.84375 0l0 -0.9375l-1.84375 0l0 -2.828125zm11.09375 9.296875q-0.203125 1.234375 -0.96875 1.9375q-0.765625 0.703125 -1.90625 0.703125q-1.484375 0 -2.359375 -1.09375q-0.890625 -1.125 -0.890625 -3.09375q0 -1.96875 0.890625 -3.078125q0.875 -1.078125 2.34375 -1.078125q1.109375 0 1.875 0.625q0.78125 0.65625 0.921875 1.75l1.09375 0q-0.09375 -1.515625 -1.171875 -2.453125q-1.0625 -0.921875 -2.71875 -0.921875q-2.046875 0 -3.21875 1.375q-1.1875 1.40625 -1.1875 3.875q0 2.375 1.171875 3.75q1.171875 1.375 3.15625 1.375q1.75 0 2.84375 -1.0q1.078125 -0.984375 1.265625 -2.671875l-1.140625 0zm3.7382812 3.40625l1.125 0l0 -5.8125q0 -1.515625 0.828125 -2.421875q0.828125 -0.875 2.140625 -0.875q1.40625 0 1.90625 0.765625q0.453125 0.671875 0.453125 2.359375l0 5.984375l1.125 0l0 -6.015625q0 -1.109375 -0.046875 -1.546875q-0.09375 -0.734375 -0.359375 -1.15625q-0.40625 -0.65625 -1.171875 -1.015625q-0.75 -0.375 -1.6875 -0.375q-1.015625 0 -1.828125 0.4375q-0.796875 0.453125 -1.359375 1.34375l0 -5.34375l-1.125 0l0 13.671875zm11.416016 -5.640625q-0.015625 -1.515625 0.9375 -2.5625q0.828125 -0.90625 2.125 -0.90625q1.28125 0 2.078125 0.90625q0.890625 1.046875 0.890625 2.5625l-6.03125 0zm0 0.90625l7.21875 0l0 -0.359375q0 -2.375 -1.109375 -3.71875q-1.109375 -1.296875 -3.0 -1.296875q-2.0 0 -3.140625 1.359375q-1.15625 1.390625 -1.15625 3.875q0 2.421875 1.140625 3.796875q1.125 1.359375 3.09375 1.359375q1.640625 0 2.734375 -0.921875q1.109375 -0.921875 1.296875 -2.40625l-1.140625 0q-0.15625 1.0625 -0.9375 1.6875q-0.765625 0.625 -1.859375 0.625q-1.40625 0 -2.265625 -1.0625q-0.875 -1.078125 -0.875 -2.9375zm9.425781 1.65625q0.046875 1.515625 1.0625 2.4375q1.046875 0.921875 2.765625 0.921875q1.703125 0 2.75 -0.8125q1.015625 -0.796875 1.015625 -2.03125q0 -1.1875 -0.71875 -1.8125q-0.671875 -0.578125 -2.28125 -0.96875l-0.453125 -0.109375q-1.578125 -0.375 -2.03125 -0.625q-0.703125 -0.4375 -0.703125 -1.34375q0 -0.765625 0.546875 -1.203125q0.609375 -0.484375 1.640625 -0.484375q1.140625 0 1.828125 0.5625q0.671875 0.578125 0.75 1.578125l1.171875 0q-0.125 -1.484375 -1.109375 -2.3125q-0.96875 -0.828125 -2.625 -0.828125q-1.53125 0 -2.46875 0.796875q-0.921875 0.796875 -0.921875 2.0625q0 1.1875 0.890625 1.8125q0.71875 0.515625 2.671875 1.0l0.046875 0q1.5 0.375 1.9375 0.640625q0.65625 0.390625 0.65625 1.21875q0 0.8125 -0.6875 1.3125q-0.71875 0.53125 -1.9375 0.53125q-1.15625 0 -1.875 -0.671875q-0.75 -0.65625 -0.75 -1.671875l-1.171875 0z" fill-rule="nonzero"/></g><path fill="#000000" fill-opacity="0.0" d="m459.4209 90.41677l86.39368 0l0 38.77166l-86.39368 0z" fill-rule="evenodd"/><path fill="#000000" d="m485.899 117.96427l0 -11.484375l1.28125 0l0 1.078125q0.453125 -0.640625 1.015625 -0.953125q0.578125 -0.3125 1.390625 -0.3125q1.0625 0 1.875 0.546875q0.8125 0.546875 1.21875 1.546875q0.421875 0.984375 0.421875 2.171875q0 1.28125 -0.46875 2.296875q-0.453125 1.015625 -1.328125 1.5625q-0.859375 0.546875 -1.828125 0.546875q-0.703125 0 -1.265625 -0.296875q-0.546875 -0.296875 -0.90625 -0.75l0 4.046875l-1.40625 0zm1.265625 -7.296875q0 1.609375 0.640625 2.375q0.65625 0.765625 1.578125 0.765625q0.9375 0 1.609375 -0.796875q0.671875 -0.796875 0.671875 -2.453125q0 -1.59375 -0.65625 -2.375q-0.65625 -0.796875 -1.5625 -0.796875q-0.890625 0 -1.59375 0.84375q-0.6875 0.84375 -0.6875 2.4375zm7.1015625 -0.046875q0 -2.296875 1.28125 -3.40625q1.078125 -0.921875 2.609375 -0.921875q1.71875 0 2.796875 1.125q1.09375 1.109375 1.09375 3.09375q0 1.59375 -0.484375 2.515625q-0.484375 0.921875 -1.40625 1.4375q-0.90625 0.5 -2.0 0.5q-1.734375 0 -2.8125 -1.109375q-1.078125 -1.125 -1.078125 -3.234375zm1.453125 0q0 1.59375 0.6875 2.390625q0.703125 0.796875 1.75 0.796875q1.046875 0 1.734375 -0.796875q0.703125 -0.796875 0.703125 -2.4375q0 -1.53125 -0.703125 -2.328125q-0.6875 -0.796875 -1.734375 -0.796875q-1.046875 0 -1.75 0.796875q-0.6875 0.78125 -0.6875 2.375zm7.9453125 4.15625l0 -11.453125l1.40625 0l0 11.453125l-1.40625 0zm3.5546875 0l0 -11.453125l1.40625 0l0 11.453125l-1.40625 0zm6.2734375 3.375q-1.171875 -1.46875 -1.984375 -3.4375q-0.796875 -1.984375 -0.796875 -4.09375q0 -1.859375 0.609375 -3.5625q0.703125 -1.96875 2.171875 -3.9375l1.0 0q-0.9375 1.625 -1.25 2.328125q-0.46875 1.078125 -0.75 2.25q-0.328125 1.453125 -0.328125 2.9375q0 3.75 2.328125 7.515625l-1.0 0zm3.5625 0l-1.015625 0q2.34375 -3.765625 2.34375 -7.515625q0 -1.46875 -0.34375 -2.921875q-0.265625 -1.171875 -0.734375 -2.25q-0.3125 -0.703125 -1.265625 -2.34375l1.015625 0q1.46875 1.96875 2.171875 3.9375q0.59375 1.703125 0.59375 3.5625q0 2.109375 -0.8125 4.09375q-0.796875 1.96875 -1.953125 3.4375z" fill-rule="nonzero"/></g></svg>