<svg version="1.1" viewBox="0.0 0.0 782.8031496062993 268.59842519685037" fill="none" stroke="none" stroke-linecap="square" stroke-miterlimit="10" xmlns:xlink="http://www.w3.org/1999/xlink" xmlns="http://www.w3.org/2000/svg"><clipPath id="p.0"><path d="m0 0l782.80316 0l0 268.59842l-782.80316 0l0 -268.59842z" clip-rule="nonzero"/></clipPath><g clip-path="url(#p.0)"><path fill="#000000" fill-opacity="0.0" d="m0 0l782.80316 0l0 268.59842l-782.80316 0z" fill-rule="evenodd"/><g filter="url(#shadowFilter-p.1)"><use xlink:href="#p.1" transform="matrix(1.0 0.0 0.0 1.0 0.0 2.0)"/></g><defs><filter id="shadowFilter-p.1" filterUnits="userSpaceOnUse"><feGaussianBlur in="SourceAlpha" stdDeviation="2.0" result="blur"/><feComponentTransfer in="blur" color-interpolation-filters="sRGB"><feFuncR type="linear" slope="0" intercept="0.0"/><feFuncG type="linear" slope="0" intercept="0.0"/><feFuncB type="linear" slope="0" intercept="0.0"/><feFuncA type="linear" slope="0.5" intercept="0"/></feComponentTransfer></filter></defs><g id="p.1"><path fill="#b7b7b7" d="m219.87927 15.863517l158.96063 0l0 224.59843l-158.96063 0z" fill-rule="evenodd"/><path stroke="#595959" stroke-width="1.0" stroke-linejoin="round" stroke-linecap="butt" d="m219.87927 15.863517l158.96063 0l0 224.59843l-158.96063 0z" fill-rule="evenodd"/></g><path fill="#000000" fill-opacity="0.0" d="m219.87927 15.863517l158.96063 0l0 42.015747l-158.96063 0z" fill-rule="evenodd"/><path fill="#000000" d="m257.59607 28.76789l-5.5000153 0q-0.28125 0 -0.4375 0.140625q-0.125 0.140625 -0.125 0.328125q0 0.1875 0.125 0.328125q0.171875 0.15625 0.453125 0.15625l5.3750153 0q0.515625 0 0.75 0.21875q0.21875 0.21875 0.21875 0.65625l0 1.046875q0 2.15625 -1.703125 3.734375q-1.8437653 1.703125 -5.0312653 2.03125q-0.265625 0.015625 -0.390625 0.171875q-0.109375 0.15625 -0.09375 0.359375q0.015625 0.203125 0.171875 0.328125q0.15625 0.15625 0.4375 0.140625q3.421875 -0.3125 5.5625153 -2.25q2.109375 -1.890625 2.109375 -4.46875l0 -1.296875q0 -0.765625 -0.46875 -1.171875q-0.484375 -0.453125 -1.453125 -0.453125zm-0.09375 3.359375q-1.34375 0.234375 -2.8593903 0.375q-1.734375 0.1875 -3.078125 0.1875q-0.515625 0 -0.515625 0.46875q0 0.484375 0.515625 0.484375q1.390625 0 3.21875 -0.1875q1.5937653 -0.171875 2.9687653 -0.40625q0.234375 -0.0625 0.34375 -0.25q0.109375 -0.140625 0.078125 -0.328125q-0.0625 -0.1875 -0.21875 -0.28125q-0.1875 -0.109375 -0.453125 -0.0625zm7.234375 6.8125l0 -10.171875q0 -0.265625 -0.171875 -0.421875q-0.15625 -0.125 -0.375 -0.125q-0.25 0 -0.390625 0.125q-0.171875 0.15625 -0.171875 0.421875l0 4.234375l-3.4375 0q-0.25 0 -0.40625 0.125q-0.140625 0.15625 -0.125 0.34375q0 0.1875 0.171875 0.328125q0.15625 0.15625 0.453125 0.15625l3.34375 0l0 4.984375q0 0.28125 0.171875 0.453125q0.140625 0.140625 0.390625 0.140625q0.21875 0 0.375 -0.140625q0.171875 -0.171875 0.171875 -0.453125zm-10.812515 0.21875q0 -0.296875 -0.1875 -0.453125q-0.140625 -0.15625 -0.375 -0.15625q-0.234375 0 -0.375 0.15625q-0.171875 0.15625 -0.171875 0.453125l0 2.46875q0 0.828125 0.515625 1.25q0.484375 0.40625 1.3125 0.40625l10.187515 0q0.46875 0 0.46875 -0.484375q0 -0.46875 -0.46875 -0.46875l-10.000015 0q-0.53125 0 -0.71875 -0.15625q-0.1875 -0.1875 -0.1875 -0.6875l0 -2.328125zm23.312515 -10.390625q0 2.359375 -1.9375 3.921875q-1.71875 1.390625 -4.0625 1.578125q-0.296875 0.015625 -0.421875 0.1875q-0.140625 0.15625 -0.109375 0.375q0.03125 0.203125 0.203125 0.328125q0.1875 0.140625 0.453125 0.109375q2.3125 -0.3125 4.125 -1.546875q1.71875 -1.15625 2.28125 -2.640625q0.578125 1.453125 2.296875 2.640625q1.796875 1.234375 4.0 1.546875q0.3125 0.03125 0.53125 -0.109375q0.1875 -0.125 0.21875 -0.328125q0.0625 -0.234375 -0.0625 -0.390625q-0.15625 -0.1875 -0.4375 -0.203125q-2.375 -0.25 -4.0625 -1.578125q-1.953125 -1.546875 -1.953125 -3.859375q0 -0.296875 -0.171875 -0.46875q-0.15625 -0.15625 -0.359375 -0.15625q-0.21875 0 -0.375 0.15625q-0.15625 0.171875 -0.15625 0.4375zm7.78125 8.65625l-14.453125 0q-0.53125 0 -0.546875 0.453125q-0.046875 0.484375 0.453125 0.484375l3.5 0l0 1.453125q0 0.8125 -0.296875 1.546875q-0.28125 0.65625 -0.828125 1.203125q-0.1875 0.15625 -0.140625 0.40625q0.015625 0.203125 0.203125 0.375q0.171875 0.140625 0.390625 0.15625q0.21875 0.03125 0.40625 -0.140625q0.609375 -0.640625 0.984375 -1.5625q0.390625 -0.96875 0.390625 -1.96875l0 -1.46875l5.921875 0l0 4.8125q0 0.265625 0.15625 0.421875q0.15625 0.140625 0.375 0.140625q0.21875 0 0.375 -0.15625q0.1875 -0.171875 0.1875 -0.421875l0 -4.796875l2.96875 0q0.453125 0 0.453125 -0.484375q-0.015625 -0.453125 -0.5 -0.453125zm11.546875 -6.9375l0 9.984375q0 0.421875 -0.203125 0.59375q-0.1875 0.140625 -0.65625 0.140625l-3.953125 0q-0.453125 0 -0.625 -0.171875q-0.1875 -0.15625 -0.1875 -0.59375l0 -9.84375q0 -0.4375 0.171875 -0.65625q0.1875 -0.21875 0.609375 -0.21875l3.953125 0q0.484375 0 0.6875 0.1875q0.203125 0.1875 0.203125 0.578125zm-0.8125 -1.71875l-4.171875 0q-0.828125 0 -1.28125 0.5q-0.453125 0.484375 -0.453125 1.25l0 10.015625q0 0.796875 0.40625 1.1875q0.4375 0.4375 1.375 0.4375l4.25 0q0.875 0 1.3125 -0.421875q0.453125 -0.40625 0.453125 -1.21875l0 -10.125q0 -0.765625 -0.546875 -1.203125q-0.5 -0.421875 -1.34375 -0.421875zm6.984375 14.3125l0 -14.3125q0 -0.265625 -0.171875 -0.421875q-0.15625 -0.125 -0.375 -0.125q-0.25 0 -0.390625 0.125q-0.171875 0.15625 -0.171875 0.421875l0 6.078125l-3.171875 0q-0.265625 0 -0.390625 0.125q-0.125 0.15625 -0.125 0.328125q0.015625 0.1875 0.171875 0.34375q0.15625 0.140625 0.4375 0.140625l3.078125 0l0 7.296875q0 0.3125 0.171875 0.5q0.140625 0.171875 0.390625 0.171875q0.21875 0 0.375 -0.171875q0.171875 -0.203125 0.171875 -0.5z" fill-rule="nonzero"/><path fill="#000000" d="m325.1231 28.70539l-10.171875 0q-0.5 0 -0.5 0.484375q0 0.46875 0.5 0.46875l10.03125 0q0.515625 0 0.8125 0.234375q0.3125 0.234375 0.3125 0.703125l0 5.203125q0 1.515625 -0.40625 3.203125q-0.421875 1.78125 -1.125 3.015625l1.1875 0q0.625 -1.21875 1.03125 -2.984375q0.421875 -1.765625 0.421875 -3.203125l0 -5.296875q0 -0.875 -0.5625 -1.375q-0.578125 -0.453125 -1.53125 -0.453125zm3.03125 12.796875l-14.40625 0q-0.53125 0 -0.546875 0.46875q-0.046875 0.484375 0.453125 0.484375l14.515625 0q0.234375 0 0.390625 -0.15625q0.140625 -0.140625 0.140625 -0.328125q0 -0.1875 -0.140625 -0.34375q-0.15625 -0.125 -0.40625 -0.125zm16.46875 -13.078125l-10.375 0q-0.546875 0 -0.5625 0.46875q0 0.46875 0.546875 0.46875l10.078125 0q0.40625 0 0.59375 0.125q0.203125 0.125 0.203125 0.40625l0 0.4375q0 0.21875 -0.21875 0.359375q-0.21875 0.140625 -0.609375 0.140625l-9.09375 0q-0.703125 0 -1.109375 0.3125q-0.390625 0.34375 -0.390625 0.9375l0 0.84375q0 0.625 0.359375 0.9375q0.375 0.3125 1.140625 0.3125l10.71875 0q0.25 0 0.375 -0.15625q0.125 -0.140625 0.125 -0.328125q0 -0.1875 -0.140625 -0.328125q-0.15625 -0.140625 -0.40625 -0.140625l-10.390625 0q-0.390625 0 -0.546875 -0.140625q-0.125 -0.109375 -0.125 -0.328125l0 -0.515625q0 -0.21875 0.125 -0.328125q0.171875 -0.125 0.59375 -0.125l9.25 0q0.703125 0 1.046875 -0.28125q0.40625 -0.296875 0.40625 -0.921875l0 -1.03125q0 -0.53125 -0.4375 -0.84375q-0.40625 -0.28125 -1.15625 -0.28125zm2.578125 7.0l-14.453125 0q-0.546875 0 -0.546875 0.4375q0 0.46875 0.53125 0.46875l6.6875 0l0 1.53125q0 0.265625 0.15625 0.4375q0.15625 0.125 0.375 0.125q0.203125 0 0.359375 -0.15625q0.171875 -0.15625 0.171875 -0.4375l0 -1.5l6.765625 0q0.453125 0 0.453125 -0.46875q-0.015625 -0.4375 -0.5 -0.4375zm-2.09375 2.6875l0 1.484375l-10.3125 0l0 -1.484375q0 -0.265625 -0.1875 -0.40625q-0.140625 -0.140625 -0.375 -0.140625q-0.234375 0 -0.390625 0.140625q-0.15625 0.140625 -0.15625 0.40625l0 4.0625q0 0.59375 0.34375 0.96875q0.390625 0.390625 1.03125 0.390625l9.703125 0q0.6875 0 1.09375 -0.390625q0.359375 -0.375 0.359375 -0.953125l0 -4.078125q0 -0.265625 -0.171875 -0.40625q-0.15625 -0.140625 -0.375 -0.140625q-0.25 0 -0.390625 0.140625q-0.171875 0.140625 -0.171875 0.40625zm0 2.4375l0 1.421875q0 0.34375 -0.140625 0.484375q-0.140625 0.125 -0.546875 0.125l-8.9375 0q-0.390625 0 -0.546875 -0.171875q-0.140625 -0.125 -0.140625 -0.4375l0 -1.421875l10.3125 0z" fill-rule="nonzero"/><g filter="url(#shadowFilter-p.2)"><use xlink:href="#p.2" transform="matrix(1.0 0.0 0.0 1.0 0.0 2.0)"/></g><defs><filter id="shadowFilter-p.2" filterUnits="userSpaceOnUse"><feGaussianBlur in="SourceAlpha" stdDeviation="2.0" result="blur"/><feComponentTransfer in="blur" color-interpolation-filters="sRGB"><feFuncR type="linear" slope="0" intercept="0.0"/><feFuncG type="linear" slope="0" intercept="0.0"/><feFuncB type="linear" slope="0" intercept="0.0"/><feFuncA type="linear" slope="0.5" intercept="0"/></feComponentTransfer></filter></defs><g id="p.2"><path fill="#eeeeee" d="m242.33595 70.19685l114.04726 0l0 35.212593l-114.04726 0z" fill-rule="evenodd"/><path stroke="#595959" stroke-width="1.0" stroke-linejoin="round" stroke-linecap="butt" d="m242.33595 70.19685l114.04726 0l0 35.212593l-114.04726 0z" fill-rule="evenodd"/><path fill="#000000" d="m263.96066 80.67628l0 1.046875l6.796875 0q-0.0625 0.609375 -0.203125 1.109375q-0.15625 0.484375 -0.5 1.140625q-1.765625 0.234375 -3.78125 0.375q-1.859375 0.15625 -3.109375 0.15625l0.453125 1.09375q0.125 0.25 0.21875 0.296875q0.078125 0.015625 0.28125 -0.09375q0.140625 -0.09375 0.234375 -0.140625q0.1875 -0.078125 0.390625 -0.109375l4.75 -0.546875q-0.734375 1.4375 -2.484375 2.8125q-1.78125 1.40625 -4.046875 2.28125l1.0 0.90625q3.296875 -1.453125 5.328125 -3.78125q2.359375 -2.703125 2.984375 -6.546875l-8.3125 0zm13.140625 -1.078125l-0.875 0l0 5.109375l-4.1875 0l0 1.03125l4.1875 0l0 6.109375l1.25 0l0 -11.5625q0 -0.109375 0.03125 -0.21875q0.046875 -0.0625 0.09375 -0.171875q0.109375 -0.1875 0.0625 -0.21875q-0.078125 -0.078125 -0.5625 -0.078125zm-10.140625 10.96875l-0.921875 0l0 5.234375l11.828125 0l0 -1.015625l-10.59375 0l0 -3.65625q0 -0.078125 0.015625 -0.15625q0.015625 -0.046875 0.0625 -0.125q0.078125 -0.171875 0.046875 -0.203125q-0.078125 -0.078125 -0.4375 -0.078125zm17.515625 -3.859375q2.140625 -0.78125 3.90625 -2.25q1.671875 -1.375 2.234375 -2.671875q0.75 1.359375 2.21875 2.515625q1.671875 1.28125 3.984375 2.078125l0.578125 -1.125q-1.328125 -0.234375 -2.5625 -0.890625q-1.03125 -0.546875 -1.90625 -1.375q-0.765625 -0.671875 -1.203125 -1.359375q-0.40625 -0.640625 -0.375 -0.9375q0 -0.15625 0.078125 -0.328125q0.03125 -0.109375 0.140625 -0.296875q0.15625 -0.265625 0.140625 -0.359375q-0.015625 -0.109375 -0.390625 -0.109375l-1.15625 0q-0.09375 1.828125 -1.796875 3.515625q-1.765625 1.734375 -4.46875 2.53125l0.578125 1.0625zm14.0 1.765625l-15.65625 0l0 1.015625l3.6875 0l0 6.140625l1.203125 0l0 -6.140625l5.875 0l0 6.734375l1.203125 0l0 -6.734375l3.6875 0l0 -1.015625zm9.921875 -6.140625l0 8.109375l-5.21875 0l0 -8.109375l5.21875 0zm-6.46875 -1.046875l0 11.0l1.25 0l0 -0.8125l5.21875 0l0 0.5l1.25 0l0 -10.6875l-7.71875 0zm7.71875 4.921875l0 1.03125l4.578125 0l0 8.984375l1.25 0l0 -15.96875q0 -0.078125 0.015625 -0.171875q0.015625 -0.0625 0.078125 -0.140625q0.09375 -0.1875 0.046875 -0.25q-0.03125 -0.09375 -0.359375 -0.09375l-1.03125 0l0 6.609375l-4.578125 0zm17.033203 1.6875q0 3.34375 1.109375 5.109375q1.140625 1.734375 3.25 1.734375q2.09375 0 3.21875 -1.734375q1.140625 -1.765625 1.140625 -5.09375q0 -3.34375 -1.140625 -5.09375q-1.125 -1.75 -3.21875 -1.75q-2.109375 0 -3.25 1.71875q-1.109375 1.765625 -1.109375 5.109375zm1.296875 0q0 -2.90625 0.75 -4.3125q0.734375 -1.390625 2.3125 -1.390625q1.546875 0 2.296875 1.390625q0.765625 1.40625 0.765625 4.3125q0 2.890625 -0.765625 4.296875q-0.75 1.421875 -2.296875 1.421875q-1.578125 0 -2.3125 -1.421875q-0.75 -1.40625 -0.75 -4.296875z" fill-rule="nonzero"/></g><g filter="url(#shadowFilter-p.3)"><use xlink:href="#p.3" transform="matrix(1.0 0.0 0.0 1.0 0.0 2.0)"/></g><defs><filter id="shadowFilter-p.3" filterUnits="userSpaceOnUse"><feGaussianBlur in="SourceAlpha" stdDeviation="2.0" result="blur"/><feComponentTransfer in="blur" color-interpolation-filters="sRGB"><feFuncR type="linear" slope="0" intercept="0.0"/><feFuncG type="linear" slope="0" intercept="0.0"/><feFuncB type="linear" slope="0" intercept="0.0"/><feFuncA type="linear" slope="0.5" intercept="0"/></feComponentTransfer></filter></defs><g id="p.3"><path fill="#b7b7b7" d="m17.76903 15.863517l158.96063 0l0 224.59843l-158.96063 0z" fill-rule="evenodd"/><path stroke="#595959" stroke-width="1.0" stroke-linejoin="round" stroke-linecap="butt" d="m17.76903 15.863517l158.96063 0l0 224.59843l-158.96063 0z" fill-rule="evenodd"/></g><path fill="#000000" fill-opacity="0.0" d="m65.69029 15.863517l63.118103 0l0 42.015747l-63.118103 0z" fill-rule="evenodd"/><path fill="#000000" d="m93.67122 28.70539l-10.375 0q-0.890625 0 -1.375 0.484375q-0.4375 0.453125 -0.4375 1.1875l0 5.640625q0 0.734375 0.453125 1.15625q0.46875 0.4375 1.296875 0.4375l10.515625 0q0.21875 0 0.34375 -0.15625q0.125 -0.140625 0.109375 -0.328125q0 -0.1875 -0.125 -0.34375q-0.15625 -0.125 -0.390625 -0.125l-10.28125 0q-0.4375 0 -0.625 -0.1875q-0.1875 -0.15625 -0.1875 -0.546875l0 -2.421875l10.890625 0q0.53125 0 0.53125 -0.484375q0 -0.453125 -0.53125 -0.453125l-10.890625 0l0 -2.0625q0 -0.453125 0.203125 -0.65625q0.21875 -0.1875 0.703125 -0.1875l10.25 0q0.21875 0 0.34375 -0.15625q0.125 -0.140625 0.109375 -0.3125q0 -0.21875 -0.125 -0.34375q-0.171875 -0.140625 -0.40625 -0.140625zm-6.4375 9.171875l0 3.625l-6.6875 0q-0.25 0 -0.40625 0.125q-0.125 0.15625 -0.140625 0.34375q-0.03125 0.1875 0.09375 0.328125q0.109375 0.15625 0.3125 0.15625l14.5625 0q0.234375 0 0.390625 -0.15625q0.140625 -0.140625 0.140625 -0.328125q0 -0.1875 -0.140625 -0.34375q-0.15625 -0.125 -0.40625 -0.125l-6.640625 0l0 -3.546875q0 -0.25 -0.1875 -0.40625q-0.15625 -0.140625 -0.359375 -0.140625q-0.21875 -0.03125 -0.375 0.109375q-0.15625 0.125 -0.15625 0.359375zm21.1875 -9.234375l-8.40625 0q-0.515625 0 -0.515625 0.46875q0 0.484375 0.515625 0.484375l8.40625 0q0.53125 0 0.53125 -0.484375q0 -0.46875 -0.53125 -0.46875zm-7.328125 2.25q0 0.90625 0.140625 2.265625q0.15625 1.21875 0.390625 2.484375l-2.109375 0.015625q-0.546875 0 -0.546875 0.4375q0 0.46875 0.546875 0.46875q3.0 0 5.546875 -0.234375q2.78125 -0.25 4.359375 -0.703125q0.234375 -0.0625 0.359375 -0.25q0.109375 -0.171875 0.0625 -0.34375q-0.03125 -0.203125 -0.203125 -0.296875q-0.1875 -0.125 -0.4375 -0.03125q-0.40625 0.125 -0.953125 0.234375q-0.328125 0.0625 -1.078125 0.203125l-0.296875 0.0625q0.203125 -1.015625 0.34375 -2.140625q0.15625 -1.265625 0.15625 -2.21875q0 -0.5 -0.53125 -0.5q-0.515625 0 -0.515625 0.5q0 0.953125 -0.140625 2.21875q-0.140625 1.296875 -0.34375 2.3125q-0.765625 0.078125 -1.640625 0.125q-0.859375 0.078125 -1.5 0.09375q-0.234375 -1.140625 -0.390625 -2.609375q-0.109375 -1.265625 -0.109375 -2.09375q0 -0.5 -0.5625 -0.5q-0.546875 0 -0.546875 0.5zm11.625 5.203125l0 -7.390625q0 -0.25 -0.171875 -0.375q-0.15625 -0.125 -0.375 -0.125q-0.25 0 -0.390625 0.125q-0.171875 0.140625 -0.171875 0.390625l0 7.375q0 0.265625 0.171875 0.4375q0.140625 0.140625 0.390625 0.140625q0.21875 0 0.375 -0.140625q0.171875 -0.171875 0.171875 -0.4375zm-1.78125 2.4375l-10.15625 0q-0.53125 0 -0.5 0.484375q0 0.484375 0.5 0.484375l10.0625 0q0.421875 0 0.59375 0.15625q0.171875 0.15625 0.171875 0.515625l0 3.0q0 0.265625 0.171875 0.421875q0.140625 0.140625 0.390625 0.140625q0.21875 0 0.375 -0.140625q0.171875 -0.15625 0.171875 -0.421875l0 -3.046875q0 -0.734375 -0.453125 -1.171875q-0.46875 -0.421875 -1.328125 -0.421875z" fill-rule="nonzero"/><g filter="url(#shadowFilter-p.4)"><use xlink:href="#p.4" transform="matrix(1.0 0.0 0.0 1.0 0.0 2.0)"/></g><defs><filter id="shadowFilter-p.4" filterUnits="userSpaceOnUse"><feGaussianBlur in="SourceAlpha" stdDeviation="2.0" result="blur"/><feComponentTransfer in="blur" color-interpolation-filters="sRGB"><feFuncR type="linear" slope="0" intercept="0.0"/><feFuncG type="linear" slope="0" intercept="0.0"/><feFuncB type="linear" slope="0" intercept="0.0"/><feFuncA type="linear" slope="0.5" intercept="0"/></feComponentTransfer></filter></defs><g id="p.4"><path fill="#eeeeee" d="m40.225723 70.19685l114.04724 0l0 35.212593l-114.04724 0z" fill-rule="evenodd"/><path stroke="#595959" stroke-width="1.0" stroke-linejoin="round" stroke-linecap="butt" d="m40.225723 70.19685l114.04724 0l0 35.212593l-114.04724 0z" fill-rule="evenodd"/><path fill="#000000" d="m78.27327 79.16065l-0.828125 0l0 16.453125l1.296875 0l0 -7.15625l3.0625 0l0 -1.046875l-3.0625 0l0 -7.53125q0 -0.109375 0.03125 -0.203125q0.03125 -0.078125 0.078125 -0.1875q0.09375 -0.140625 0.03125 -0.203125q-0.109375 -0.09375 -0.609375 -0.125zm-12.328125 2.21875l0 1.09375l9.4375 0l0 -1.09375l-9.4375 0zm2.40625 2.796875l-0.953125 0l0.625 6.0625q-0.75 0 -1.71875 0q-0.953125 0 -1.484375 0l0.34375 1.09375q0.0625 0.25 0.140625 0.296875q0.046875 0.015625 0.1875 -0.078125q0.15625 -0.078125 0.28125 -0.109375q0.203125 -0.078125 0.421875 -0.078125l1.0 -0.0625q2.84375 -0.125 4.484375 -0.203125q2.8125 -0.15625 4.578125 -0.25l-0.09375 -1.0l-3.0 0.15625l0.640625 -4.984375q0.015625 -0.109375 0.078125 -0.203125q0.03125 -0.0625 0.125 -0.171875q0.15625 -0.171875 0.09375 -0.234375q-0.046875 -0.09375 -0.515625 -0.171875l-0.984375 -0.09375l-0.671875 5.921875l-2.671875 0.125l-0.46875 -5.328125q-0.015625 -0.109375 0.03125 -0.21875q0.015625 -0.046875 0.0625 -0.171875q0.078125 -0.140625 0.03125 -0.203125q-0.09375 -0.0625 -0.5625 -0.09375zm16.234375 -3.234375l0 11.625q2.9375 0 5.796875 -0.28125q2.828125 -0.265625 4.828125 -0.71875l-0.109375 -1.09375q-2.171875 0.53125 -4.96875 0.796875q-2.421875 0.25 -4.34375 0.203125l0 -4.859375l6.734375 0l0 -1.0l-6.734375 0l0 -3.6875l7.109375 0l0 -0.984375l-8.3125 0zm12.578125 -1.34375l-0.875 0l0 16.625l1.25 0l0 -15.9375q0 -0.109375 0.03125 -0.21875q0.046875 -0.0625 0.09375 -0.171875q0.109375 -0.1875 0.0625 -0.21875q-0.078125 -0.078125 -0.5625 -0.078125zm9.8125 0.71875q0.046875 2.59375 -1.421875 4.9375q-1.453125 2.328125 -3.75 3.421875l0.796875 1.015625q1.90625 -1.3125 2.9375 -2.46875q1.203125 -1.375 1.8125 -3.1875q0.453125 1.625 1.609375 3.140625q1.03125 1.296875 2.375 2.265625l0.890625 -0.984375q-1.828125 -0.921875 -3.078125 -2.921875q-1.296875 -2.109375 -1.03125 -4.078125q0.015625 -0.1875 0.078125 -0.375q0.03125 -0.09375 0.109375 -0.28125q0.125 -0.265625 0.109375 -0.359375q-0.046875 -0.125 -0.359375 -0.125l-1.078125 0zm4.25 2.21875l0 1.015625l4.0625 0l0 2.140625l-4.0625 0l0 1.03125l4.0625 0l0 5.234375l1.25 0l0 -11.796875q0 -0.078125 0.015625 -0.15625q0.015625 -0.046875 0.0625 -0.125q0.09375 -0.171875 0.046875 -0.203125q-0.046875 -0.078125 -0.390625 -0.078125l-0.984375 0l0 2.9375l-4.0625 0zm-5.203125 8.03125l-0.921875 0l0 5.234375l11.828125 0l0 -1.015625l-10.59375 0l0 -3.65625q0 -0.078125 0.015625 -0.15625q0.015625 -0.046875 0.0625 -0.125q0.078125 -0.171875 0.046875 -0.203125q-0.078125 -0.078125 -0.4375 -0.078125zm15.375 -2.671875q0 3.34375 1.109375 5.109375q1.140625 1.734375 3.25 1.734375q2.09375 0 3.21875 -1.734375q1.140625 -1.765625 1.140625 -5.09375q0 -3.34375 -1.140625 -5.09375q-1.125 -1.75 -3.21875 -1.75q-2.109375 0 -3.25 1.71875q-1.109375 1.765625 -1.109375 5.109375zm1.296875 0q0 -2.90625 0.75 -4.3125q0.734375 -1.390625 2.3125 -1.390625q1.546875 0 2.296875 1.390625q0.765625 1.40625 0.765625 4.3125q0 2.890625 -0.765625 4.296875q-0.75 1.421875 -2.296875 1.421875q-1.578125 0 -2.3125 -1.421875q-0.75 -1.40625 -0.75 -4.296875z" fill-rule="nonzero"/></g><g filter="url(#shadowFilter-p.5)"><use xlink:href="#p.5" transform="matrix(1.0 0.0 0.0 1.0 0.0 2.0)"/></g><defs><filter id="shadowFilter-p.5" filterUnits="userSpaceOnUse"><feGaussianBlur in="SourceAlpha" stdDeviation="2.0" result="blur"/><feComponentTransfer in="blur" color-interpolation-filters="sRGB"><feFuncR type="linear" slope="0" intercept="0.0"/><feFuncG type="linear" slope="0" intercept="0.0"/><feFuncB type="linear" slope="0" intercept="0.0"/><feFuncA type="linear" slope="0.5" intercept="0"/></feComponentTransfer></filter></defs><g id="p.5"><path fill="#eeeeee" d="m40.225723 124.362206l114.04724 0l0 35.212593l-114.04724 0z" fill-rule="evenodd"/><path stroke="#595959" stroke-width="1.0" stroke-linejoin="round" stroke-linecap="butt" d="m40.225723 124.362206l114.04724 0l0 35.212593l-114.04724 0z" fill-rule="evenodd"/><path fill="#000000" d="m78.27327 133.326l-0.828125 0l0 16.453125l1.296875 0l0 -7.15625l3.0625 0l0 -1.046875l-3.0625 0l0 -7.53125q0 -0.109375 0.03125 -0.203125q0.03125 -0.078125 0.078125 -0.1875q0.09375 -0.140625 0.03125 -0.203125q-0.109375 -0.09375 -0.609375 -0.125zm-12.328125 2.21875l0 1.09375l9.4375 0l0 -1.09375l-9.4375 0zm2.40625 2.796875l-0.953125 0l0.625 6.0625q-0.75 0 -1.71875 0q-0.953125 0 -1.484375 0l0.34375 1.09375q0.0625 0.25 0.140625 0.296875q0.046875 0.015625 0.1875 -0.078125q0.15625 -0.078125 0.28125 -0.109375q0.203125 -0.078125 0.421875 -0.078125l1.0 -0.0625q2.84375 -0.125 4.484375 -0.203125q2.8125 -0.15625 4.578125 -0.25l-0.09375 -1.0l-3.0 0.15625l0.640625 -4.984375q0.015625 -0.109375 0.078125 -0.203125q0.03125 -0.0625 0.125 -0.171875q0.15625 -0.171875 0.09375 -0.234375q-0.046875 -0.09375 -0.515625 -0.171875l-0.984375 -0.09375l-0.671875 5.921875l-2.671875 0.125l-0.46875 -5.328125q-0.015625 -0.109375 0.03125 -0.21875q0.015625 -0.046875 0.0625 -0.171875q0.078125 -0.140625 0.03125 -0.203125q-0.09375 -0.0625 -0.5625 -0.09375zm16.234375 -3.234375l0 11.625q2.9375 0 5.796875 -0.28125q2.828125 -0.265625 4.828125 -0.71875l-0.109375 -1.09375q-2.171875 0.53125 -4.96875 0.796875q-2.421875 0.25 -4.34375 0.203125l0 -4.859375l6.734375 0l0 -1.0l-6.734375 0l0 -3.6875l7.109375 0l0 -0.984375l-8.3125 0zm12.578125 -1.34375l-0.875 0l0 16.625l1.25 0l0 -15.9375q0 -0.109375 0.03125 -0.21875q0.046875 -0.0625 0.09375 -0.171875q0.109375 -0.1875 0.0625 -0.21875q-0.078125 -0.078125 -0.5625 -0.078125zm9.8125 0.71875q0.046875 2.59375 -1.421875 4.9375q-1.453125 2.328125 -3.75 3.421875l0.796875 1.015625q1.90625 -1.3125 2.9375 -2.46875q1.203125 -1.375 1.8125 -3.1875q0.453125 1.625 1.609375 3.140625q1.03125 1.296875 2.375 2.265625l0.890625 -0.984375q-1.828125 -0.921875 -3.078125 -2.921875q-1.296875 -2.109375 -1.03125 -4.078125q0.015625 -0.1875 0.078125 -0.375q0.03125 -0.09375 0.109375 -0.28125q0.125 -0.265625 0.109375 -0.359375q-0.046875 -0.125 -0.359375 -0.125l-1.078125 0zm4.25 2.21875l0 1.015625l4.0625 0l0 2.140625l-4.0625 0l0 1.03125l4.0625 0l0 5.234375l1.25 0l0 -11.796875q0 -0.078125 0.015625 -0.15625q0.015625 -0.046875 0.0625 -0.125q0.09375 -0.171875 0.046875 -0.203125q-0.046875 -0.078125 -0.390625 -0.078125l-0.984375 0l0 2.9375l-4.0625 0zm-5.203125 8.03125l-0.921875 0l0 5.234375l11.828125 0l0 -1.015625l-10.59375 0l0 -3.65625q0 -0.078125 0.015625 -0.15625q0.015625 -0.046875 0.0625 -0.125q0.078125 -0.171875 0.046875 -0.203125q-0.078125 -0.078125 -0.4375 -0.078125zm19.265625 3.78125l1.25 0l0 -13.28125l-1.09375 0q-0.09375 1.375 -0.90625 2.0q-0.828125 0.640625 -2.453125 0.640625l-0.09375 0l0 0.8125l0.203125 0q1.109375 0 1.875 -0.1875q0.765625 -0.1875 1.21875 -0.5625l0 10.578125z" fill-rule="nonzero"/></g><g filter="url(#shadowFilter-p.6)"><use xlink:href="#p.6" transform="matrix(1.0 0.0 0.0 1.0 0.0 2.0)"/></g><defs><filter id="shadowFilter-p.6" filterUnits="userSpaceOnUse"><feGaussianBlur in="SourceAlpha" stdDeviation="2.0" result="blur"/><feComponentTransfer in="blur" color-interpolation-filters="sRGB"><feFuncR type="linear" slope="0" intercept="0.0"/><feFuncG type="linear" slope="0" intercept="0.0"/><feFuncB type="linear" slope="0" intercept="0.0"/><feFuncA type="linear" slope="0.5" intercept="0"/></feComponentTransfer></filter></defs><g id="p.6"><path fill="#eeeeee" d="m40.225723 178.52756l114.04724 0l0 35.2126l-114.04724 0z" fill-rule="evenodd"/><path stroke="#595959" stroke-width="1.0" stroke-linejoin="round" stroke-linecap="butt" d="m40.225723 178.52756l114.04724 0l0 35.2126l-114.04724 0z" fill-rule="evenodd"/><path fill="#000000" d="m78.27327 187.49136l-0.828125 0l0 16.453125l1.296875 0l0 -7.15625l3.0625 0l0 -1.046875l-3.0625 0l0 -7.53125q0 -0.109375 0.03125 -0.203125q0.03125 -0.078125 0.078125 -0.1875q0.09375 -0.140625 0.03125 -0.203125q-0.109375 -0.09375 -0.609375 -0.125zm-12.328125 2.21875l0 1.09375l9.4375 0l0 -1.09375l-9.4375 0zm2.40625 2.796875l-0.953125 0l0.625 6.0625q-0.75 0 -1.71875 0q-0.953125 0 -1.484375 0l0.34375 1.09375q0.0625 0.25 0.140625 0.296875q0.046875 0.015625 0.1875 -0.078125q0.15625 -0.078125 0.28125 -0.109375q0.203125 -0.078125 0.421875 -0.078125l1.0 -0.0625q2.84375 -0.125 4.484375 -0.203125q2.8125 -0.15625 4.578125 -0.25l-0.09375 -1.0l-3.0 0.15625l0.640625 -4.984375q0.015625 -0.109375 0.078125 -0.203125q0.03125 -0.0625 0.125 -0.171875q0.15625 -0.171875 0.09375 -0.234375q-0.046875 -0.09375 -0.515625 -0.171875l-0.984375 -0.09375l-0.671875 5.921875l-2.671875 0.125l-0.46875 -5.328125q-0.015625 -0.109375 0.03125 -0.21875q0.015625 -0.046875 0.0625 -0.171875q0.078125 -0.140625 0.03125 -0.203125q-0.09375 -0.0625 -0.5625 -0.09375zm16.234375 -3.234375l0 11.625q2.9375 0 5.796875 -0.28125q2.828125 -0.265625 4.828125 -0.71875l-0.109375 -1.09375q-2.171875 0.53125 -4.96875 0.796875q-2.421875 0.25 -4.34375 0.203125l0 -4.859375l6.734375 0l0 -1.0l-6.734375 0l0 -3.6875l7.109375 0l0 -0.984375l-8.3125 0zm12.578125 -1.34375l-0.875 0l0 16.625l1.25 0l0 -15.9375q0 -0.109375 0.03125 -0.21875q0.046875 -0.0625 0.09375 -0.171875q0.109375 -0.1875 0.0625 -0.21875q-0.078125 -0.078125 -0.5625 -0.078125zm9.8125 0.71875q0.046875 2.59375 -1.421875 4.9375q-1.453125 2.328125 -3.75 3.421875l0.796875 1.015625q1.90625 -1.3125 2.9375 -2.46875q1.203125 -1.375 1.8125 -3.1875q0.453125 1.625 1.609375 3.140625q1.03125 1.296875 2.375 2.265625l0.890625 -0.984375q-1.828125 -0.921875 -3.078125 -2.921875q-1.296875 -2.109375 -1.03125 -4.078125q0.015625 -0.1875 0.078125 -0.375q0.03125 -0.09375 0.109375 -0.28125q0.125 -0.265625 0.109375 -0.359375q-0.046875 -0.125 -0.359375 -0.125l-1.078125 0zm4.25 2.21875l0 1.015625l4.0625 0l0 2.140625l-4.0625 0l0 1.03125l4.0625 0l0 5.234375l1.25 0l0 -11.796875q0 -0.078125 0.015625 -0.15625q0.015625 -0.046875 0.0625 -0.125q0.09375 -0.171875 0.046875 -0.203125q-0.046875 -0.078125 -0.390625 -0.078125l-0.984375 0l0 2.9375l-4.0625 0zm-5.203125 8.03125l-0.921875 0l0 5.234375l11.828125 0l0 -1.015625l-10.59375 0l0 -3.65625q0 -0.078125 0.015625 -0.15625q0.015625 -0.046875 0.0625 -0.125q0.078125 -0.171875 0.046875 -0.203125q-0.078125 -0.078125 -0.4375 -0.078125zm15.3125 3.78125l8.578125 0l0 -1.046875l-7.328125 0q0.078125 -0.984375 0.78125 -1.78125q0.671875 -0.765625 2.078125 -1.5625l0.921875 -0.546875q1.03125 -0.5625 1.4375 -0.84375q0.71875 -0.484375 1.125 -0.9375q0.546875 -0.59375 0.796875 -1.234375q0.265625 -0.65625 0.265625 -1.46875q0 -1.78125 -1.09375 -2.828125q-1.078125 -1.03125 -2.921875 -1.03125q-2.015625 0 -3.15625 1.15625q-1.109375 1.125 -1.15625 3.265625l1.25 0q0 -1.625 0.78125 -2.453125q0.765625 -0.84375 2.234375 -0.84375q1.3125 0 2.0625 0.71875q0.75 0.71875 0.75 2.03125q0 0.640625 -0.203125 1.109375q-0.1875 0.46875 -0.609375 0.96875q-0.3125 0.3125 -0.875 0.6875q-0.328125 0.21875 -1.140625 0.703125l-1.328125 0.796875q-1.6875 1.046875 -2.4375 2.125q-0.8125 1.140625 -0.8125 2.625l0 0.390625z" fill-rule="nonzero"/></g><path fill="#000000" fill-opacity="0.0" d="m154.27296 87.80315l88.06299 0" fill-rule="evenodd"/><path stroke="#595959" stroke-width="3.0" stroke-linejoin="round" stroke-linecap="butt" d="m154.27296 87.80315l70.06299 0" fill-rule="evenodd"/><path fill="#595959" stroke="#595959" stroke-width="3.0" stroke-linecap="butt" d="m224.33595 92.75835l13.614304 -4.9552l-13.614304 -4.9551926z" fill-rule="evenodd"/><path fill="#000000" fill-opacity="0.0" d="m154.27296 141.9685l88.06299 0" fill-rule="evenodd"/><path stroke="#595959" stroke-width="3.0" stroke-linejoin="round" stroke-linecap="butt" d="m154.27296 141.9685l70.06299 0" fill-rule="evenodd"/><path fill="#595959" stroke="#595959" stroke-width="3.0" stroke-linecap="butt" d="m224.33595 146.9237l13.614304 -4.9552l-13.614304 -4.9552z" fill-rule="evenodd"/><path fill="#000000" fill-opacity="0.0" d="m154.27296 196.13387l88.06299 -54.173233" fill-rule="evenodd"/><path stroke="#595959" stroke-width="3.0" stroke-linejoin="round" stroke-linecap="butt" d="m154.27296 196.13387l72.73163 -44.74193" fill-rule="evenodd"/><path fill="#595959" stroke="#595959" stroke-width="3.0" stroke-linecap="butt" d="m229.60094 155.61249l8.999527 -11.353912l-14.1922 2.9128113z" fill-rule="evenodd"/><g filter="url(#shadowFilter-p.7)"><use xlink:href="#p.7" transform="matrix(1.0 0.0 0.0 1.0 0.0 2.0)"/></g><defs><filter id="shadowFilter-p.7" filterUnits="userSpaceOnUse"><feGaussianBlur in="SourceAlpha" stdDeviation="2.0" result="blur"/><feComponentTransfer in="blur" color-interpolation-filters="sRGB"><feFuncR type="linear" slope="0" intercept="0.0"/><feFuncG type="linear" slope="0" intercept="0.0"/><feFuncB type="linear" slope="0" intercept="0.0"/><feFuncA type="linear" slope="0.5" intercept="0"/></feComponentTransfer></filter></defs><g id="p.7"><path fill="#b7b7b7" d="m598.44617 15.863517l158.96063 0l0 224.59843l-158.96063 0z" fill-rule="evenodd"/><path stroke="#595959" stroke-width="1.0" stroke-linejoin="round" stroke-linecap="butt" d="m598.44617 15.863517l158.96063 0l0 224.59843l-158.96063 0z" fill-rule="evenodd"/></g><path fill="#000000" fill-opacity="0.0" d="m598.44617 15.863517l158.96063 0l0 42.015747l-158.96063 0z" fill-rule="evenodd"/><path fill="#000000" d="m636.16296 28.76789l-5.5 0q-0.28125 0 -0.4375 0.140625q-0.125 0.140625 -0.125 0.328125q0 0.1875 0.125 0.328125q0.171875 0.15625 0.453125 0.15625l5.375 0q0.515625 0 0.75 0.21875q0.21875 0.21875 0.21875 0.65625l0 1.046875q0 2.15625 -1.703125 3.734375q-1.84375 1.703125 -5.03125 2.03125q-0.265625 0.015625 -0.390625 0.171875q-0.109375 0.15625 -0.09375 0.359375q0.015625 0.203125 0.171875 0.328125q0.15625 0.15625 0.4375 0.140625q3.421875 -0.3125 5.5625 -2.25q2.109375 -1.890625 2.109375 -4.46875l0 -1.296875q0 -0.765625 -0.46875 -1.171875q-0.484375 -0.453125 -1.453125 -0.453125zm-0.09375 3.359375q-1.34375 0.234375 -2.859375 0.375q-1.734375 0.1875 -3.078125 0.1875q-0.515625 0 -0.515625 0.46875q0 0.484375 0.515625 0.484375q1.390625 0 3.21875 -0.1875q1.59375 -0.171875 2.96875 -0.40625q0.234375 -0.0625 0.34375 -0.25q0.109375 -0.140625 0.078125 -0.328125q-0.0625 -0.1875 -0.21875 -0.28125q-0.1875 -0.109375 -0.453125 -0.0625zm7.234375 6.8125l0 -10.171875q0 -0.265625 -0.171875 -0.421875q-0.15625 -0.125 -0.375 -0.125q-0.25 0 -0.390625 0.125q-0.171875 0.15625 -0.171875 0.421875l0 4.234375l-3.4375 0q-0.25 0 -0.40625 0.125q-0.140625 0.15625 -0.125 0.34375q0 0.1875 0.171875 0.328125q0.15625 0.15625 0.453125 0.15625l3.34375 0l0 4.984375q0 0.28125 0.171875 0.453125q0.140625 0.140625 0.390625 0.140625q0.21875 0 0.375 -0.140625q0.171875 -0.171875 0.171875 -0.453125zm-10.8125 0.21875q0 -0.296875 -0.1875 -0.453125q-0.140625 -0.15625 -0.375 -0.15625q-0.234375 0 -0.375 0.15625q-0.171875 0.15625 -0.171875 0.453125l0 2.46875q0 0.828125 0.515625 1.25q0.484375 0.40625 1.3125 0.40625l10.1875 0q0.46875 0 0.46875 -0.484375q0 -0.46875 -0.46875 -0.46875l-10.0 0q-0.53125 0 -0.71875 -0.15625q-0.1875 -0.1875 -0.1875 -0.6875l0 -2.328125zm23.3125 -10.390625q0 2.359375 -1.9375 3.921875q-1.71875 1.390625 -4.0625 1.578125q-0.296875 0.015625 -0.421875 0.1875q-0.140625 0.15625 -0.109375 0.375q0.03125 0.203125 0.203125 0.328125q0.1875 0.140625 0.453125 0.109375q2.3125 -0.3125 4.125 -1.546875q1.71875 -1.15625 2.28125 -2.640625q0.578125 1.453125 2.296875 2.640625q1.796875 1.234375 4.0 1.546875q0.3125 0.03125 0.53125 -0.109375q0.1875 -0.125 0.21875 -0.328125q0.0625 -0.234375 -0.0625 -0.390625q-0.15625 -0.1875 -0.4375 -0.203125q-2.375 -0.25 -4.0625 -1.578125q-1.953125 -1.546875 -1.953125 -3.859375q0 -0.296875 -0.171875 -0.46875q-0.15625 -0.15625 -0.359375 -0.15625q-0.21875 0 -0.375 0.15625q-0.15625 0.171875 -0.15625 0.4375zm7.78125 8.65625l-14.453125 0q-0.53125 0 -0.546875 0.453125q-0.046875 0.484375 0.453125 0.484375l3.5 0l0 1.453125q0 0.8125 -0.296875 1.546875q-0.28125 0.65625 -0.828125 1.203125q-0.1875 0.15625 -0.140625 0.40625q0.015625 0.203125 0.203125 0.375q0.171875 0.140625 0.390625 0.15625q0.21875 0.03125 0.40625 -0.140625q0.609375 -0.640625 0.984375 -1.5625q0.390625 -0.96875 0.390625 -1.96875l0 -1.46875l5.921875 0l0 4.8125q0 0.265625 0.15625 0.421875q0.15625 0.140625 0.375 0.140625q0.21875 0 0.375 -0.15625q0.1875 -0.171875 0.1875 -0.421875l0 -4.796875l2.96875 0q0.453125 0 0.453125 -0.484375q-0.015625 -0.453125 -0.5 -0.453125zm11.546875 -6.9375l0 9.984375q0 0.421875 -0.203125 0.59375q-0.1875 0.140625 -0.65625 0.140625l-3.953125 0q-0.453125 0 -0.625 -0.171875q-0.1875 -0.15625 -0.1875 -0.59375l0 -9.84375q0 -0.4375 0.171875 -0.65625q0.1875 -0.21875 0.609375 -0.21875l3.953125 0q0.484375 0 0.6875 0.1875q0.203125 0.1875 0.203125 0.578125zm-0.8125 -1.71875l-4.171875 0q-0.828125 0 -1.28125 0.5q-0.453125 0.484375 -0.453125 1.25l0 10.015625q0 0.796875 0.40625 1.1875q0.4375 0.4375 1.375 0.4375l4.25 0q0.875 0 1.3125 -0.421875q0.453125 -0.40625 0.453125 -1.21875l0 -10.125q0 -0.765625 -0.546875 -1.203125q-0.5 -0.421875 -1.34375 -0.421875zm6.984375 14.3125l0 -14.3125q0 -0.265625 -0.171875 -0.421875q-0.15625 -0.125 -0.375 -0.125q-0.25 0 -0.390625 0.125q-0.171875 0.15625 -0.171875 0.421875l0 6.078125l-3.171875 0q-0.265625 0 -0.390625 0.125q-0.125 0.15625 -0.125 0.328125q0.015625 0.1875 0.171875 0.34375q0.15625 0.140625 0.4375 0.140625l3.078125 0l0 7.296875q0 0.3125 0.171875 0.5q0.140625 0.171875 0.390625 0.171875q0.21875 0 0.375 -0.171875q0.171875 -0.203125 0.171875 -0.5z" fill-rule="nonzero"/><path fill="#000000" d="m703.69006 28.70539l-10.171875 0q-0.5 0 -0.5 0.484375q0 0.46875 0.5 0.46875l10.03125 0q0.515625 0 0.8125 0.234375q0.3125 0.234375 0.3125 0.703125l0 5.203125q0 1.515625 -0.40625 3.203125q-0.421875 1.78125 -1.125 3.015625l1.1875 0q0.625 -1.21875 1.03125 -2.984375q0.421875 -1.765625 0.421875 -3.203125l0 -5.296875q0 -0.875 -0.5625 -1.375q-0.578125 -0.453125 -1.53125 -0.453125zm3.03125 12.796875l-14.40625 0q-0.53125 0 -0.546875 0.46875q-0.046875 0.484375 0.453125 0.484375l14.515625 0q0.234375 0 0.390625 -0.15625q0.140625 -0.140625 0.140625 -0.328125q0 -0.1875 -0.140625 -0.34375q-0.15625 -0.125 -0.40625 -0.125zm16.46875 -13.078125l-10.375 0q-0.546875 0 -0.5625 0.46875q0 0.46875 0.546875 0.46875l10.078125 0q0.40625 0 0.59375 0.125q0.203125 0.125 0.203125 0.40625l0 0.4375q0 0.21875 -0.21875 0.359375q-0.21875 0.140625 -0.609375 0.140625l-9.09375 0q-0.703125 0 -1.109375 0.3125q-0.390625 0.34375 -0.390625 0.9375l0 0.84375q0 0.625 0.359375 0.9375q0.375 0.3125 1.140625 0.3125l10.71875 0q0.25 0 0.375 -0.15625q0.125 -0.140625 0.125 -0.328125q0 -0.1875 -0.140625 -0.328125q-0.15625 -0.140625 -0.40625 -0.140625l-10.390625 0q-0.390625 0 -0.546875 -0.140625q-0.125 -0.109375 -0.125 -0.328125l0 -0.515625q0 -0.21875 0.125 -0.328125q0.171875 -0.125 0.59375 -0.125l9.25 0q0.703125 0 1.046875 -0.28125q0.40625 -0.296875 0.40625 -0.921875l0 -1.03125q0 -0.53125 -0.4375 -0.84375q-0.40625 -0.28125 -1.15625 -0.28125zm2.578125 7.0l-14.453125 0q-0.546875 0 -0.546875 0.4375q0 0.46875 0.53125 0.46875l6.6875 0l0 1.53125q0 0.265625 0.15625 0.4375q0.15625 0.125 0.375 0.125q0.203125 0 0.359375 -0.15625q0.171875 -0.15625 0.171875 -0.4375l0 -1.5l6.765625 0q0.453125 0 0.453125 -0.46875q-0.015625 -0.4375 -0.5 -0.4375zm-2.09375 2.6875l0 1.484375l-10.3125 0l0 -1.484375q0 -0.265625 -0.1875 -0.40625q-0.140625 -0.140625 -0.375 -0.140625q-0.234375 0 -0.390625 0.140625q-0.15625 0.140625 -0.15625 0.40625l0 4.0625q0 0.59375 0.34375 0.96875q0.390625 0.390625 1.03125 0.390625l9.703125 0q0.6875 0 1.09375 -0.390625q0.359375 -0.375 0.359375 -0.953125l0 -4.078125q0 -0.265625 -0.171875 -0.40625q-0.15625 -0.140625 -0.375 -0.140625q-0.25 0 -0.390625 0.140625q-0.171875 0.140625 -0.171875 0.40625zm0 2.4375l0 1.421875q0 0.34375 -0.140625 0.484375q-0.140625 0.125 -0.546875 0.125l-8.9375 0q-0.390625 0 -0.546875 -0.171875q-0.140625 -0.125 -0.140625 -0.4375l0 -1.421875l10.3125 0z" fill-rule="nonzero"/><g filter="url(#shadowFilter-p.8)"><use xlink:href="#p.8" transform="matrix(1.0 0.0 0.0 1.0 0.0 2.0)"/></g><defs><filter id="shadowFilter-p.8" filterUnits="userSpaceOnUse"><feGaussianBlur in="SourceAlpha" stdDeviation="2.0" result="blur"/><feComponentTransfer in="blur" color-interpolation-filters="sRGB"><feFuncR type="linear" slope="0" intercept="0.0"/><feFuncG type="linear" slope="0" intercept="0.0"/><feFuncB type="linear" slope="0" intercept="0.0"/><feFuncA type="linear" slope="0.5" intercept="0"/></feComponentTransfer></filter></defs><g id="p.8"><path fill="#eeeeee" d="m620.9029 70.19685l114.04724 0l0 35.212593l-114.04724 0z" fill-rule="evenodd"/><path stroke="#595959" stroke-width="1.0" stroke-linejoin="round" stroke-linecap="butt" d="m620.9029 70.19685l114.04724 0l0 35.212593l-114.04724 0z" fill-rule="evenodd"/><path fill="#000000" d="m642.5276 80.67628l0 1.046875l6.796875 0q-0.0625 0.609375 -0.203125 1.109375q-0.15625 0.484375 -0.5 1.140625q-1.765625 0.234375 -3.78125 0.375q-1.859375 0.15625 -3.109375 0.15625l0.453125 1.09375q0.125 0.25 0.21875 0.296875q0.078125 0.015625 0.28125 -0.09375q0.140625 -0.09375 0.234375 -0.140625q0.1875 -0.078125 0.390625 -0.109375l4.75 -0.546875q-0.734375 1.4375 -2.484375 2.8125q-1.78125 1.40625 -4.046875 2.28125l1.0 0.90625q3.296875 -1.453125 5.328125 -3.78125q2.359375 -2.703125 2.984375 -6.546875l-8.3125 0zm13.140625 -1.078125l-0.875 0l0 5.109375l-4.1875 0l0 1.03125l4.1875 0l0 6.109375l1.25 0l0 -11.5625q0 -0.109375 0.03125 -0.21875q0.046875 -0.0625 0.09375 -0.171875q0.109375 -0.1875 0.0625 -0.21875q-0.078125 -0.078125 -0.5625 -0.078125zm-10.140625 10.96875l-0.921875 0l0 5.234375l11.828125 0l0 -1.015625l-10.59375 0l0 -3.65625q0 -0.078125 0.015625 -0.15625q0.015625 -0.046875 0.0625 -0.125q0.078125 -0.171875 0.046875 -0.203125q-0.078125 -0.078125 -0.4375 -0.078125zm17.515625 -3.859375q2.140625 -0.78125 3.90625 -2.25q1.671875 -1.375 2.234375 -2.671875q0.75 1.359375 2.21875 2.515625q1.671875 1.28125 3.984375 2.078125l0.578125 -1.125q-1.328125 -0.234375 -2.5625 -0.890625q-1.03125 -0.546875 -1.90625 -1.375q-0.765625 -0.671875 -1.203125 -1.359375q-0.40625 -0.640625 -0.375 -0.9375q0 -0.15625 0.078125 -0.328125q0.03125 -0.109375 0.140625 -0.296875q0.15625 -0.265625 0.140625 -0.359375q-0.015625 -0.109375 -0.390625 -0.109375l-1.15625 0q-0.09375 1.828125 -1.796875 3.515625q-1.765625 1.734375 -4.46875 2.53125l0.578125 1.0625zm14.0 1.765625l-15.65625 0l0 1.015625l3.6875 0l0 6.140625l1.203125 0l0 -6.140625l5.875 0l0 6.734375l1.203125 0l0 -6.734375l3.6875 0l0 -1.015625zm9.921875 -6.140625l0 8.109375l-5.21875 0l0 -8.109375l5.21875 0zm-6.46875 -1.046875l0 11.0l1.25 0l0 -0.8125l5.21875 0l0 0.5l1.25 0l0 -10.6875l-7.71875 0zm7.71875 4.921875l0 1.03125l4.578125 0l0 8.984375l1.25 0l0 -15.96875q0 -0.078125 0.015625 -0.171875q0.015625 -0.0625 0.078125 -0.140625q0.09375 -0.1875 0.046875 -0.25q-0.03125 -0.09375 -0.359375 -0.09375l-1.03125 0l0 6.609375l-4.578125 0zm17.033203 1.6875q0 3.34375 1.109375 5.109375q1.140625 1.734375 3.25 1.734375q2.09375 0 3.21875 -1.734375q1.140625 -1.765625 1.140625 -5.09375q0 -3.34375 -1.140625 -5.09375q-1.125 -1.75 -3.21875 -1.75q-2.109375 0 -3.25 1.71875q-1.109375 1.765625 -1.109375 5.109375zm1.296875 0q0 -2.90625 0.75 -4.3125q0.734375 -1.390625 2.3125 -1.390625q1.546875 0 2.296875 1.390625q0.765625 1.40625 0.765625 4.3125q0 2.890625 -0.765625 4.296875q-0.75 1.421875 -2.296875 1.421875q-1.578125 0 -2.3125 -1.421875q-0.75 -1.40625 -0.75 -4.296875z" fill-rule="nonzero"/></g><g filter="url(#shadowFilter-p.9)"><use xlink:href="#p.9" transform="matrix(1.0 0.0 0.0 1.0 0.0 2.0)"/></g><defs><filter id="shadowFilter-p.9" filterUnits="userSpaceOnUse"><feGaussianBlur in="SourceAlpha" stdDeviation="2.0" result="blur"/><feComponentTransfer in="blur" color-interpolation-filters="sRGB"><feFuncR type="linear" slope="0" intercept="0.0"/><feFuncG type="linear" slope="0" intercept="0.0"/><feFuncB type="linear" slope="0" intercept="0.0"/><feFuncA type="linear" slope="0.5" intercept="0"/></feComponentTransfer></filter></defs><g id="p.9"><path fill="#b7b7b7" d="m396.33597 15.863517l158.9606 0l0 224.59843l-158.9606 0z" fill-rule="evenodd"/><path stroke="#595959" stroke-width="1.0" stroke-linejoin="round" stroke-linecap="butt" d="m396.33597 15.863517l158.9606 0l0 224.59843l-158.9606 0z" fill-rule="evenodd"/></g><path fill="#000000" fill-opacity="0.0" d="m444.25723 15.863517l63.118103 0l0 42.015747l-63.118103 0z" fill-rule="evenodd"/><path fill="#000000" d="m472.23816 28.70539l-10.375 0q-0.890625 0 -1.375 0.484375q-0.4375 0.453125 -0.4375 1.1875l0 5.640625q0 0.734375 0.453125 1.15625q0.46875 0.4375 1.296875 0.4375l10.515625 0q0.21875 0 0.34375 -0.15625q0.125 -0.140625 0.109375 -0.328125q0 -0.1875 -0.125 -0.34375q-0.15625 -0.125 -0.390625 -0.125l-10.28125 0q-0.4375 0 -0.625 -0.1875q-0.1875 -0.15625 -0.1875 -0.546875l0 -2.421875l10.890625 0q0.53125 0 0.53125 -0.484375q0 -0.453125 -0.53125 -0.453125l-10.890625 0l0 -2.0625q0 -0.453125 0.203125 -0.65625q0.21875 -0.1875 0.703125 -0.1875l10.25 0q0.21875 0 0.34375 -0.15625q0.125 -0.140625 0.109375 -0.3125q0 -0.21875 -0.125 -0.34375q-0.171875 -0.140625 -0.40625 -0.140625zm-6.4375 9.171875l0 3.625l-6.6875 0q-0.25 0 -0.40625 0.125q-0.125 0.15625 -0.140625 0.34375q-0.03125 0.1875 0.09375 0.328125q0.109375 0.15625 0.3125 0.15625l14.5625 0q0.234375 0 0.390625 -0.15625q0.140625 -0.140625 0.140625 -0.328125q0 -0.1875 -0.140625 -0.34375q-0.15625 -0.125 -0.40625 -0.125l-6.640625 0l0 -3.546875q0 -0.25 -0.1875 -0.40625q-0.15625 -0.140625 -0.359375 -0.140625q-0.21875 -0.03125 -0.375 0.109375q-0.15625 0.125 -0.15625 0.359375zm21.1875 -9.234375l-8.40625 0q-0.515625 0 -0.515625 0.46875q0 0.484375 0.515625 0.484375l8.40625 0q0.53125 0 0.53125 -0.484375q0 -0.46875 -0.53125 -0.46875zm-7.328125 2.25q0 0.90625 0.140625 2.265625q0.15625 1.21875 0.390625 2.484375l-2.109375 0.015625q-0.546875 0 -0.546875 0.4375q0 0.46875 0.546875 0.46875q3.0 0 5.546875 -0.234375q2.78125 -0.25 4.359375 -0.703125q0.234375 -0.0625 0.359375 -0.25q0.109375 -0.171875 0.0625 -0.34375q-0.03125 -0.203125 -0.203125 -0.296875q-0.1875 -0.125 -0.4375 -0.03125q-0.40625 0.125 -0.953125 0.234375q-0.328125 0.0625 -1.078125 0.203125l-0.296875 0.0625q0.203125 -1.015625 0.34375 -2.140625q0.15625 -1.265625 0.15625 -2.21875q0 -0.5 -0.53125 -0.5q-0.515625 0 -0.515625 0.5q0 0.953125 -0.140625 2.21875q-0.140625 1.296875 -0.34375 2.3125q-0.765625 0.078125 -1.640625 0.125q-0.859375 0.078125 -1.5 0.09375q-0.234375 -1.140625 -0.390625 -2.609375q-0.109375 -1.265625 -0.109375 -2.09375q0 -0.5 -0.5625 -0.5q-0.546875 0 -0.546875 0.5zm11.625 5.203125l0 -7.390625q0 -0.25 -0.171875 -0.375q-0.15625 -0.125 -0.375 -0.125q-0.25 0 -0.390625 0.125q-0.171875 0.140625 -0.171875 0.390625l0 7.375q0 0.265625 0.171875 0.4375q0.140625 0.140625 0.390625 0.140625q0.21875 0 0.375 -0.140625q0.171875 -0.171875 0.171875 -0.4375zm-1.78125 2.4375l-10.15625 0q-0.53125 0 -0.5 0.484375q0 0.484375 0.5 0.484375l10.0625 0q0.421875 0 0.59375 0.15625q0.171875 0.15625 0.171875 0.515625l0 3.0q0 0.265625 0.171875 0.421875q0.140625 0.140625 0.390625 0.140625q0.21875 0 0.375 -0.140625q0.171875 -0.15625 0.171875 -0.421875l0 -3.046875q0 -0.734375 -0.453125 -1.171875q-0.46875 -0.421875 -1.328125 -0.421875z" fill-rule="nonzero"/><g filter="url(#shadowFilter-p.10)"><use xlink:href="#p.10" transform="matrix(1.0 0.0 0.0 1.0 0.0 2.0)"/></g><defs><filter id="shadowFilter-p.10" filterUnits="userSpaceOnUse"><feGaussianBlur in="SourceAlpha" stdDeviation="2.0" result="blur"/><feComponentTransfer in="blur" color-interpolation-filters="sRGB"><feFuncR type="linear" slope="0" intercept="0.0"/><feFuncG type="linear" slope="0" intercept="0.0"/><feFuncB type="linear" slope="0" intercept="0.0"/><feFuncA type="linear" slope="0.5" intercept="0"/></feComponentTransfer></filter></defs><g id="p.10"><path fill="#eeeeee" d="m418.79266 70.19685l114.04724 0l0 35.212593l-114.04724 0z" fill-rule="evenodd"/><path stroke="#595959" stroke-width="1.0" stroke-linejoin="round" stroke-linecap="butt" d="m418.79266 70.19685l114.04724 0l0 35.212593l-114.04724 0z" fill-rule="evenodd"/><path fill="#000000" d="m456.8402 79.16065l-0.828125 0l0 16.453125l1.296875 0l0 -7.15625l3.0625 0l0 -1.046875l-3.0625 0l0 -7.53125q0 -0.109375 0.03125 -0.203125q0.03125 -0.078125 0.078125 -0.1875q0.09375 -0.140625 0.03125 -0.203125q-0.109375 -0.09375 -0.609375 -0.125zm-12.328125 2.21875l0 1.09375l9.4375 0l0 -1.09375l-9.4375 0zm2.40625 2.796875l-0.953125 0l0.625 6.0625q-0.75 0 -1.71875 0q-0.953125 0 -1.484375 0l0.34375 1.09375q0.0625 0.25 0.140625 0.296875q0.046875 0.015625 0.1875 -0.078125q0.15625 -0.078125 0.28125 -0.109375q0.203125 -0.078125 0.421875 -0.078125l1.0 -0.0625q2.84375 -0.125 4.484375 -0.203125q2.8125 -0.15625 4.578125 -0.25l-0.09375 -1.0l-3.0 0.15625l0.640625 -4.984375q0.015625 -0.109375 0.078125 -0.203125q0.03125 -0.0625 0.125 -0.171875q0.15625 -0.171875 0.09375 -0.234375q-0.046875 -0.09375 -0.515625 -0.171875l-0.984375 -0.09375l-0.671875 5.921875l-2.671875 0.125l-0.46875 -5.328125q-0.015625 -0.109375 0.03125 -0.21875q0.015625 -0.046875 0.0625 -0.171875q0.078125 -0.140625 0.03125 -0.203125q-0.09375 -0.0625 -0.5625 -0.09375zm16.234375 -3.234375l0 11.625q2.9375 0 5.796875 -0.28125q2.828125 -0.265625 4.828125 -0.71875l-0.109375 -1.09375q-2.171875 0.53125 -4.96875 0.796875q-2.421875 0.25 -4.34375 0.203125l0 -4.859375l6.734375 0l0 -1.0l-6.734375 0l0 -3.6875l7.109375 0l0 -0.984375l-8.3125 0zm12.578125 -1.34375l-0.875 0l0 16.625l1.25 0l0 -15.9375q0 -0.109375 0.03125 -0.21875q0.046875 -0.0625 0.09375 -0.171875q0.109375 -0.1875 0.0625 -0.21875q-0.078125 -0.078125 -0.5625 -0.078125zm9.8125 0.71875q0.046875 2.59375 -1.421875 4.9375q-1.453125 2.328125 -3.75 3.421875l0.796875 1.015625q1.90625 -1.3125 2.9375 -2.46875q1.203125 -1.375 1.8125 -3.1875q0.453125 1.625 1.609375 3.140625q1.03125 1.296875 2.375 2.265625l0.890625 -0.984375q-1.828125 -0.921875 -3.078125 -2.921875q-1.296875 -2.109375 -1.03125 -4.078125q0.015625 -0.1875 0.078125 -0.375q0.03125 -0.09375 0.109375 -0.28125q0.125 -0.265625 0.109375 -0.359375q-0.046875 -0.125 -0.359375 -0.125l-1.078125 0zm4.25 2.21875l0 1.015625l4.0625 0l0 2.140625l-4.0625 0l0 1.03125l4.0625 0l0 5.234375l1.25 0l0 -11.796875q0 -0.078125 0.015625 -0.15625q0.015625 -0.046875 0.0625 -0.125q0.09375 -0.171875 0.046875 -0.203125q-0.046875 -0.078125 -0.390625 -0.078125l-0.984375 0l0 2.9375l-4.0625 0zm-5.203125 8.03125l-0.921875 0l0 5.234375l11.828125 0l0 -1.015625l-10.59375 0l0 -3.65625q0 -0.078125 0.015625 -0.15625q0.015625 -0.046875 0.0625 -0.125q0.078125 -0.171875 0.046875 -0.203125q-0.078125 -0.078125 -0.4375 -0.078125zm15.375 -2.671875q0 3.34375 1.109375 5.109375q1.140625 1.734375 3.25 1.734375q2.09375 0 3.21875 -1.734375q1.140625 -1.765625 1.140625 -5.09375q0 -3.34375 -1.140625 -5.09375q-1.125 -1.75 -3.21875 -1.75q-2.109375 0 -3.25 1.71875q-1.109375 1.765625 -1.109375 5.109375zm1.296875 0q0 -2.90625 0.75 -4.3125q0.734375 -1.390625 2.3125 -1.390625q1.546875 0 2.296875 1.390625q0.765625 1.40625 0.765625 4.3125q0 2.890625 -0.765625 4.296875q-0.75 1.421875 -2.296875 1.421875q-1.578125 0 -2.3125 -1.421875q-0.75 -1.40625 -0.75 -4.296875z" fill-rule="nonzero"/></g><g filter="url(#shadowFilter-p.11)"><use xlink:href="#p.11" transform="matrix(1.0 0.0 0.0 1.0 0.0 2.0)"/></g><defs><filter id="shadowFilter-p.11" filterUnits="userSpaceOnUse"><feGaussianBlur in="SourceAlpha" stdDeviation="2.0" result="blur"/><feComponentTransfer in="blur" color-interpolation-filters="sRGB"><feFuncR type="linear" slope="0" intercept="0.0"/><feFuncG type="linear" slope="0" intercept="0.0"/><feFuncB type="linear" slope="0" intercept="0.0"/><feFuncA type="linear" slope="0.5" intercept="0"/></feComponentTransfer></filter></defs><g id="p.11"><path fill="#eeeeee" d="m418.79266 124.362206l114.04724 0l0 35.212593l-114.04724 0z" fill-rule="evenodd"/><path stroke="#595959" stroke-width="1.0" stroke-linejoin="round" stroke-linecap="butt" d="m418.79266 124.362206l114.04724 0l0 35.212593l-114.04724 0z" fill-rule="evenodd"/><path fill="#000000" d="m456.8402 133.326l-0.828125 0l0 16.453125l1.296875 0l0 -7.15625l3.0625 0l0 -1.046875l-3.0625 0l0 -7.53125q0 -0.109375 0.03125 -0.203125q0.03125 -0.078125 0.078125 -0.1875q0.09375 -0.140625 0.03125 -0.203125q-0.109375 -0.09375 -0.609375 -0.125zm-12.328125 2.21875l0 1.09375l9.4375 0l0 -1.09375l-9.4375 0zm2.40625 2.796875l-0.953125 0l0.625 6.0625q-0.75 0 -1.71875 0q-0.953125 0 -1.484375 0l0.34375 1.09375q0.0625 0.25 0.140625 0.296875q0.046875 0.015625 0.1875 -0.078125q0.15625 -0.078125 0.28125 -0.109375q0.203125 -0.078125 0.421875 -0.078125l1.0 -0.0625q2.84375 -0.125 4.484375 -0.203125q2.8125 -0.15625 4.578125 -0.25l-0.09375 -1.0l-3.0 0.15625l0.640625 -4.984375q0.015625 -0.109375 0.078125 -0.203125q0.03125 -0.0625 0.125 -0.171875q0.15625 -0.171875 0.09375 -0.234375q-0.046875 -0.09375 -0.515625 -0.171875l-0.984375 -0.09375l-0.671875 5.921875l-2.671875 0.125l-0.46875 -5.328125q-0.015625 -0.109375 0.03125 -0.21875q0.015625 -0.046875 0.0625 -0.171875q0.078125 -0.140625 0.03125 -0.203125q-0.09375 -0.0625 -0.5625 -0.09375zm16.234375 -3.234375l0 11.625q2.9375 0 5.796875 -0.28125q2.828125 -0.265625 4.828125 -0.71875l-0.109375 -1.09375q-2.171875 0.53125 -4.96875 0.796875q-2.421875 0.25 -4.34375 0.203125l0 -4.859375l6.734375 0l0 -1.0l-6.734375 0l0 -3.6875l7.109375 0l0 -0.984375l-8.3125 0zm12.578125 -1.34375l-0.875 0l0 16.625l1.25 0l0 -15.9375q0 -0.109375 0.03125 -0.21875q0.046875 -0.0625 0.09375 -0.171875q0.109375 -0.1875 0.0625 -0.21875q-0.078125 -0.078125 -0.5625 -0.078125zm9.8125 0.71875q0.046875 2.59375 -1.421875 4.9375q-1.453125 2.328125 -3.75 3.421875l0.796875 1.015625q1.90625 -1.3125 2.9375 -2.46875q1.203125 -1.375 1.8125 -3.1875q0.453125 1.625 1.609375 3.140625q1.03125 1.296875 2.375 2.265625l0.890625 -0.984375q-1.828125 -0.921875 -3.078125 -2.921875q-1.296875 -2.109375 -1.03125 -4.078125q0.015625 -0.1875 0.078125 -0.375q0.03125 -0.09375 0.109375 -0.28125q0.125 -0.265625 0.109375 -0.359375q-0.046875 -0.125 -0.359375 -0.125l-1.078125 0zm4.25 2.21875l0 1.015625l4.0625 0l0 2.140625l-4.0625 0l0 1.03125l4.0625 0l0 5.234375l1.25 0l0 -11.796875q0 -0.078125 0.015625 -0.15625q0.015625 -0.046875 0.0625 -0.125q0.09375 -0.171875 0.046875 -0.203125q-0.046875 -0.078125 -0.390625 -0.078125l-0.984375 0l0 2.9375l-4.0625 0zm-5.203125 8.03125l-0.921875 0l0 5.234375l11.828125 0l0 -1.015625l-10.59375 0l0 -3.65625q0 -0.078125 0.015625 -0.15625q0.015625 -0.046875 0.0625 -0.125q0.078125 -0.171875 0.046875 -0.203125q-0.078125 -0.078125 -0.4375 -0.078125zm15.375 -2.671875q0 3.34375 1.109375 5.109375q1.140625 1.734375 3.25 1.734375q2.09375 0 3.21875 -1.734375q1.140625 -1.765625 1.140625 -5.09375q0 -3.34375 -1.140625 -5.09375q-1.125 -1.75 -3.21875 -1.75q-2.109375 0 -3.25 1.71875q-1.109375 1.765625 -1.109375 5.109375zm1.296875 0q0 -2.90625 0.75 -4.3125q0.734375 -1.390625 2.3125 -1.390625q1.546875 0 2.296875 1.390625q0.765625 1.40625 0.765625 4.3125q0 2.890625 -0.765625 4.296875q-0.75 1.421875 -2.296875 1.421875q-1.578125 0 -2.3125 -1.421875q-0.75 -1.40625 -0.75 -4.296875z" fill-rule="nonzero"/></g><g filter="url(#shadowFilter-p.12)"><use xlink:href="#p.12" transform="matrix(1.0 0.0 0.0 1.0 0.0 2.0)"/></g><defs><filter id="shadowFilter-p.12" filterUnits="userSpaceOnUse"><feGaussianBlur in="SourceAlpha" stdDeviation="2.0" result="blur"/><feComponentTransfer in="blur" color-interpolation-filters="sRGB"><feFuncR type="linear" slope="0" intercept="0.0"/><feFuncG type="linear" slope="0" intercept="0.0"/><feFuncB type="linear" slope="0" intercept="0.0"/><feFuncA type="linear" slope="0.5" intercept="0"/></feComponentTransfer></filter></defs><g id="p.12"><path fill="#eeeeee" d="m418.79266 178.52756l114.04724 0l0 35.2126l-114.04724 0z" fill-rule="evenodd"/><path stroke="#595959" stroke-width="1.0" stroke-linejoin="round" stroke-linecap="butt" d="m418.79266 178.52756l114.04724 0l0 35.2126l-114.04724 0z" fill-rule="evenodd"/><path fill="#000000" d="m456.8402 187.49136l-0.828125 0l0 16.453125l1.296875 0l0 -7.15625l3.0625 0l0 -1.046875l-3.0625 0l0 -7.53125q0 -0.109375 0.03125 -0.203125q0.03125 -0.078125 0.078125 -0.1875q0.09375 -0.140625 0.03125 -0.203125q-0.109375 -0.09375 -0.609375 -0.125zm-12.328125 2.21875l0 1.09375l9.4375 0l0 -1.09375l-9.4375 0zm2.40625 2.796875l-0.953125 0l0.625 6.0625q-0.75 0 -1.71875 0q-0.953125 0 -1.484375 0l0.34375 1.09375q0.0625 0.25 0.140625 0.296875q0.046875 0.015625 0.1875 -0.078125q0.15625 -0.078125 0.28125 -0.109375q0.203125 -0.078125 0.421875 -0.078125l1.0 -0.0625q2.84375 -0.125 4.484375 -0.203125q2.8125 -0.15625 4.578125 -0.25l-0.09375 -1.0l-3.0 0.15625l0.640625 -4.984375q0.015625 -0.109375 0.078125 -0.203125q0.03125 -0.0625 0.125 -0.171875q0.15625 -0.171875 0.09375 -0.234375q-0.046875 -0.09375 -0.515625 -0.171875l-0.984375 -0.09375l-0.671875 5.921875l-2.671875 0.125l-0.46875 -5.328125q-0.015625 -0.109375 0.03125 -0.21875q0.015625 -0.046875 0.0625 -0.171875q0.078125 -0.140625 0.03125 -0.203125q-0.09375 -0.0625 -0.5625 -0.09375zm16.234375 -3.234375l0 11.625q2.9375 0 5.796875 -0.28125q2.828125 -0.265625 4.828125 -0.71875l-0.109375 -1.09375q-2.171875 0.53125 -4.96875 0.796875q-2.421875 0.25 -4.34375 0.203125l0 -4.859375l6.734375 0l0 -1.0l-6.734375 0l0 -3.6875l7.109375 0l0 -0.984375l-8.3125 0zm12.578125 -1.34375l-0.875 0l0 16.625l1.25 0l0 -15.9375q0 -0.109375 0.03125 -0.21875q0.046875 -0.0625 0.09375 -0.171875q0.109375 -0.1875 0.0625 -0.21875q-0.078125 -0.078125 -0.5625 -0.078125zm9.8125 0.71875q0.046875 2.59375 -1.421875 4.9375q-1.453125 2.328125 -3.75 3.421875l0.796875 1.015625q1.90625 -1.3125 2.9375 -2.46875q1.203125 -1.375 1.8125 -3.1875q0.453125 1.625 1.609375 3.140625q1.03125 1.296875 2.375 2.265625l0.890625 -0.984375q-1.828125 -0.921875 -3.078125 -2.921875q-1.296875 -2.109375 -1.03125 -4.078125q0.015625 -0.1875 0.078125 -0.375q0.03125 -0.09375 0.109375 -0.28125q0.125 -0.265625 0.109375 -0.359375q-0.046875 -0.125 -0.359375 -0.125l-1.078125 0zm4.25 2.21875l0 1.015625l4.0625 0l0 2.140625l-4.0625 0l0 1.03125l4.0625 0l0 5.234375l1.25 0l0 -11.796875q0 -0.078125 0.015625 -0.15625q0.015625 -0.046875 0.0625 -0.125q0.09375 -0.171875 0.046875 -0.203125q-0.046875 -0.078125 -0.390625 -0.078125l-0.984375 0l0 2.9375l-4.0625 0zm-5.203125 8.03125l-0.921875 0l0 5.234375l11.828125 0l0 -1.015625l-10.59375 0l0 -3.65625q0 -0.078125 0.015625 -0.15625q0.015625 -0.046875 0.0625 -0.125q0.078125 -0.171875 0.046875 -0.203125q-0.078125 -0.078125 -0.4375 -0.078125zm15.3125 3.78125l8.578125 0l0 -1.046875l-7.328125 0q0.078125 -0.984375 0.78125 -1.78125q0.671875 -0.765625 2.078125 -1.5625l0.921875 -0.546875q1.03125 -0.5625 1.4375 -0.84375q0.71875 -0.484375 1.125 -0.9375q0.546875 -0.59375 0.796875 -1.234375q0.265625 -0.65625 0.265625 -1.46875q0 -1.78125 -1.09375 -2.828125q-1.078125 -1.03125 -2.921875 -1.03125q-2.015625 0 -3.15625 1.15625q-1.109375 1.125 -1.15625 3.265625l1.25 0q0 -1.625 0.78125 -2.453125q0.765625 -0.84375 2.234375 -0.84375q1.3125 0 2.0625 0.71875q0.75 0.71875 0.75 2.03125q0 0.640625 -0.203125 1.109375q-0.1875 0.46875 -0.609375 0.96875q-0.3125 0.3125 -0.875 0.6875q-0.328125 0.21875 -1.140625 0.703125l-1.328125 0.796875q-1.6875 1.046875 -2.4375 2.125q-0.8125 1.140625 -0.8125 2.625l0 0.390625z" fill-rule="nonzero"/></g><path fill="#000000" fill-opacity="0.0" d="m532.8399 87.80315l88.06299 0" fill-rule="evenodd"/><path stroke="#595959" stroke-width="3.0" stroke-linejoin="round" stroke-linecap="butt" d="m532.8399 87.80315l70.06299 0" fill-rule="evenodd"/><path fill="#595959" stroke="#595959" stroke-width="3.0" stroke-linecap="butt" d="m602.9029 92.75835l13.614258 -4.9552l-13.614258 -4.9551926z" fill-rule="evenodd"/><path fill="#000000" fill-opacity="0.0" d="m532.8399 141.9685l88.06299 0" fill-rule="evenodd"/><path stroke="#595959" stroke-width="3.0" stroke-linejoin="round" stroke-linecap="butt" d="m532.8399 141.9685l70.06299 0" fill-rule="evenodd"/><path fill="#595959" stroke="#595959" stroke-width="3.0" stroke-linecap="butt" d="m602.9029 146.9237l13.614258 -4.9552l-13.614258 -4.9552z" fill-rule="evenodd"/><path fill="#000000" fill-opacity="0.0" d="m532.8399 196.13387l91.590515 0" fill-rule="evenodd"/><path stroke="#595959" stroke-width="3.0" stroke-linejoin="round" stroke-linecap="butt" d="m532.8399 196.13387l73.590515 0" fill-rule="evenodd"/><path fill="#595959" stroke="#595959" stroke-width="3.0" stroke-linecap="butt" d="m606.4304 201.08905l13.614319 -4.955185l-13.614319 -4.9552z" fill-rule="evenodd"/><g filter="url(#shadowFilter-p.13)"><use xlink:href="#p.13" transform="matrix(1.0 0.0 0.0 1.0 0.0 2.0)"/></g><defs><filter id="shadowFilter-p.13" filterUnits="userSpaceOnUse"><feGaussianBlur in="SourceAlpha" stdDeviation="2.0" result="blur"/><feComponentTransfer in="blur" color-interpolation-filters="sRGB"><feFuncR type="linear" slope="0" intercept="0.0"/><feFuncG type="linear" slope="0" intercept="0.0"/><feFuncB type="linear" slope="0" intercept="0.0"/><feFuncA type="linear" slope="0.5" intercept="0"/></feComponentTransfer></filter></defs><g id="p.13"><path fill="#eeeeee" d="m242.33595 124.35433l114.04726 0l0 35.212593l-114.04726 0z" fill-rule="evenodd"/><path stroke="#595959" stroke-width="1.0" stroke-linejoin="round" stroke-linecap="butt" d="m242.33595 124.35433l114.04726 0l0 35.212593l-114.04726 0z" fill-rule="evenodd"/><path fill="#000000" d="m263.96066 134.83376l0 1.046875l6.796875 0q-0.0625 0.609375 -0.203125 1.109375q-0.15625 0.484375 -0.5 1.140625q-1.765625 0.234375 -3.78125 0.375q-1.859375 0.15625 -3.109375 0.15625l0.453125 1.09375q0.125 0.25 0.21875 0.296875q0.078125 0.015625 0.28125 -0.09375q0.140625 -0.09375 0.234375 -0.140625q0.1875 -0.078125 0.390625 -0.109375l4.75 -0.546875q-0.734375 1.4375 -2.484375 2.8125q-1.78125 1.40625 -4.046875 2.28125l1.0 0.90625q3.296875 -1.453125 5.328125 -3.78125q2.359375 -2.703125 2.984375 -6.546875l-8.3125 0zm13.140625 -1.078125l-0.875 0l0 5.109375l-4.1875 0l0 1.03125l4.1875 0l0 6.109375l1.25 0l0 -11.5625q0 -0.109375 0.03125 -0.21875q0.046875 -0.0625 0.09375 -0.171875q0.109375 -0.1875 0.0625 -0.21875q-0.078125 -0.078125 -0.5625 -0.078125zm-10.140625 10.96875l-0.921875 0l0 5.234375l11.828125 0l0 -1.015625l-10.59375 0l0 -3.65625q0 -0.078125 0.015625 -0.15625q0.015625 -0.046875 0.0625 -0.125q0.078125 -0.171875 0.046875 -0.203125q-0.078125 -0.078125 -0.4375 -0.078125zm17.515625 -3.859375q2.140625 -0.78125 3.90625 -2.25q1.671875 -1.375 2.234375 -2.671875q0.75 1.359375 2.21875 2.515625q1.671875 1.28125 3.984375 2.078125l0.578125 -1.125q-1.328125 -0.234375 -2.5625 -0.890625q-1.03125 -0.546875 -1.90625 -1.375q-0.765625 -0.671875 -1.203125 -1.359375q-0.40625 -0.640625 -0.375 -0.9375q0 -0.15625 0.078125 -0.328125q0.03125 -0.109375 0.140625 -0.296875q0.15625 -0.265625 0.140625 -0.359375q-0.015625 -0.109375 -0.390625 -0.109375l-1.15625 0q-0.09375 1.828125 -1.796875 3.515625q-1.765625 1.734375 -4.46875 2.53125l0.578125 1.0625zm14.0 1.765625l-15.65625 0l0 1.015625l3.6875 0l0 6.140625l1.203125 0l0 -6.140625l5.875 0l0 6.734375l1.203125 0l0 -6.734375l3.6875 0l0 -1.015625zm9.921875 -6.140625l0 8.109375l-5.21875 0l0 -8.109375l5.21875 0zm-6.46875 -1.046875l0 11.0l1.25 0l0 -0.8125l5.21875 0l0 0.5l1.25 0l0 -10.6875l-7.71875 0zm7.71875 4.921875l0 1.03125l4.578125 0l0 8.984375l1.25 0l0 -15.96875q0 -0.078125 0.015625 -0.171875q0.015625 -0.0625 0.078125 -0.140625q0.09375 -0.1875 0.046875 -0.25q-0.03125 -0.09375 -0.359375 -0.09375l-1.03125 0l0 6.609375l-4.578125 0zm20.923828 8.140625l1.25 0l0 -13.28125l-1.09375 0q-0.09375 1.375 -0.90625 2.0q-0.828125 0.640625 -2.453125 0.640625l-0.09375 0l0 0.8125l0.203125 0q1.109375 0 1.875 -0.1875q0.765625 -0.1875 1.21875 -0.5625l0 10.578125z" fill-rule="nonzero"/></g><g filter="url(#shadowFilter-p.14)"><use xlink:href="#p.14" transform="matrix(1.0 0.0 0.0 1.0 0.0 2.0)"/></g><defs><filter id="shadowFilter-p.14" filterUnits="userSpaceOnUse"><feGaussianBlur in="SourceAlpha" stdDeviation="2.0" result="blur"/><feComponentTransfer in="blur" color-interpolation-filters="sRGB"><feFuncR type="linear" slope="0" intercept="0.0"/><feFuncG type="linear" slope="0" intercept="0.0"/><feFuncB type="linear" slope="0" intercept="0.0"/><feFuncA type="linear" slope="0.5" intercept="0"/></feComponentTransfer></filter></defs><g id="p.14"><path fill="#eeeeee" d="m620.9029 124.35433l114.04724 0l0 35.212593l-114.04724 0z" fill-rule="evenodd"/><path stroke="#595959" stroke-width="1.0" stroke-linejoin="round" stroke-linecap="butt" d="m620.9029 124.35433l114.04724 0l0 35.212593l-114.04724 0z" fill-rule="evenodd"/><path fill="#000000" d="m642.5276 134.83376l0 1.046875l6.796875 0q-0.0625 0.609375 -0.203125 1.109375q-0.15625 0.484375 -0.5 1.140625q-1.765625 0.234375 -3.78125 0.375q-1.859375 0.15625 -3.109375 0.15625l0.453125 1.09375q0.125 0.25 0.21875 0.296875q0.078125 0.015625 0.28125 -0.09375q0.140625 -0.09375 0.234375 -0.140625q0.1875 -0.078125 0.390625 -0.109375l4.75 -0.546875q-0.734375 1.4375 -2.484375 2.8125q-1.78125 1.40625 -4.046875 2.28125l1.0 0.90625q3.296875 -1.453125 5.328125 -3.78125q2.359375 -2.703125 2.984375 -6.546875l-8.3125 0zm13.140625 -1.078125l-0.875 0l0 5.109375l-4.1875 0l0 1.03125l4.1875 0l0 6.109375l1.25 0l0 -11.5625q0 -0.109375 0.03125 -0.21875q0.046875 -0.0625 0.09375 -0.171875q0.109375 -0.1875 0.0625 -0.21875q-0.078125 -0.078125 -0.5625 -0.078125zm-10.140625 10.96875l-0.921875 0l0 5.234375l11.828125 0l0 -1.015625l-10.59375 0l0 -3.65625q0 -0.078125 0.015625 -0.15625q0.015625 -0.046875 0.0625 -0.125q0.078125 -0.171875 0.046875 -0.203125q-0.078125 -0.078125 -0.4375 -0.078125zm17.515625 -3.859375q2.140625 -0.78125 3.90625 -2.25q1.671875 -1.375 2.234375 -2.671875q0.75 1.359375 2.21875 2.515625q1.671875 1.28125 3.984375 2.078125l0.578125 -1.125q-1.328125 -0.234375 -2.5625 -0.890625q-1.03125 -0.546875 -1.90625 -1.375q-0.765625 -0.671875 -1.203125 -1.359375q-0.40625 -0.640625 -0.375 -0.9375q0 -0.15625 0.078125 -0.328125q0.03125 -0.109375 0.140625 -0.296875q0.15625 -0.265625 0.140625 -0.359375q-0.015625 -0.109375 -0.390625 -0.109375l-1.15625 0q-0.09375 1.828125 -1.796875 3.515625q-1.765625 1.734375 -4.46875 2.53125l0.578125 1.0625zm14.0 1.765625l-15.65625 0l0 1.015625l3.6875 0l0 6.140625l1.203125 0l0 -6.140625l5.875 0l0 6.734375l1.203125 0l0 -6.734375l3.6875 0l0 -1.015625zm9.921875 -6.140625l0 8.109375l-5.21875 0l0 -8.109375l5.21875 0zm-6.46875 -1.046875l0 11.0l1.25 0l0 -0.8125l5.21875 0l0 0.5l1.25 0l0 -10.6875l-7.71875 0zm7.71875 4.921875l0 1.03125l4.578125 0l0 8.984375l1.25 0l0 -15.96875q0 -0.078125 0.015625 -0.171875q0.015625 -0.0625 0.078125 -0.140625q0.09375 -0.1875 0.046875 -0.25q-0.03125 -0.09375 -0.359375 -0.09375l-1.03125 0l0 6.609375l-4.578125 0zm20.923828 8.140625l1.25 0l0 -13.28125l-1.09375 0q-0.09375 1.375 -0.90625 2.0q-0.828125 0.640625 -2.453125 0.640625l-0.09375 0l0 0.8125l0.203125 0q1.109375 0 1.875 -0.1875q0.765625 -0.1875 1.21875 -0.5625l0 10.578125z" fill-rule="nonzero"/></g><g filter="url(#shadowFilter-p.15)"><use xlink:href="#p.15" transform="matrix(1.0 0.0 0.0 1.0 0.0 2.0)"/></g><defs><filter id="shadowFilter-p.15" filterUnits="userSpaceOnUse"><feGaussianBlur in="SourceAlpha" stdDeviation="2.0" result="blur"/><feComponentTransfer in="blur" color-interpolation-filters="sRGB"><feFuncR type="linear" slope="0" intercept="0.0"/><feFuncG type="linear" slope="0" intercept="0.0"/><feFuncB type="linear" slope="0" intercept="0.0"/><feFuncA type="linear" slope="0.5" intercept="0"/></feComponentTransfer></filter></defs><g id="p.15"><path fill="#eeeeee" d="m624.4252 178.51181l114.04724 0l0 35.2126l-114.04724 0z" fill-rule="evenodd"/><path stroke="#595959" stroke-width="1.0" stroke-linejoin="round" stroke-linecap="butt" d="m624.4252 178.51181l114.04724 0l0 35.2126l-114.04724 0z" fill-rule="evenodd"/><path fill="#000000" d="m646.04987 188.99124l0 1.046875l6.796875 0q-0.0625 0.609375 -0.203125 1.109375q-0.15625 0.484375 -0.5 1.140625q-1.765625 0.234375 -3.78125 0.375q-1.859375 0.15625 -3.109375 0.15625l0.453125 1.09375q0.125 0.25 0.21875 0.296875q0.078125 0.015625 0.28125 -0.09375q0.140625 -0.09375 0.234375 -0.140625q0.1875 -0.078125 0.390625 -0.109375l4.75 -0.546875q-0.734375 1.4375 -2.484375 2.8125q-1.78125 1.40625 -4.046875 2.28125l1.0 0.90625q3.296875 -1.453125 5.328125 -3.78125q2.359375 -2.703125 2.984375 -6.546875l-8.3125 0zm13.140625 -1.078125l-0.875 0l0 5.109375l-4.1875 0l0 1.03125l4.1875 0l0 6.109375l1.25 0l0 -11.5625q0 -0.109375 0.03125 -0.21875q0.046875 -0.0625 0.09375 -0.171875q0.109375 -0.1875 0.0625 -0.21875q-0.078125 -0.078125 -0.5625 -0.078125zm-10.140625 10.96875l-0.921875 0l0 5.234375l11.828125 0l0 -1.015625l-10.59375 0l0 -3.65625q0 -0.078125 0.015625 -0.15625q0.015625 -0.046875 0.0625 -0.125q0.078125 -0.171875 0.046875 -0.203125q-0.078125 -0.078125 -0.4375 -0.078125zm17.515625 -3.859375q2.140625 -0.78125 3.90625 -2.25q1.671875 -1.375 2.234375 -2.671875q0.75 1.359375 2.21875 2.515625q1.671875 1.28125 3.984375 2.078125l0.578125 -1.125q-1.328125 -0.234375 -2.5625 -0.890625q-1.03125 -0.546875 -1.90625 -1.375q-0.765625 -0.671875 -1.203125 -1.359375q-0.40625 -0.640625 -0.375 -0.9375q0 -0.15625 0.078125 -0.328125q0.03125 -0.109375 0.140625 -0.296875q0.15625 -0.265625 0.140625 -0.359375q-0.015625 -0.109375 -0.390625 -0.109375l-1.15625 0q-0.09375 1.828125 -1.796875 3.515625q-1.765625 1.734375 -4.46875 2.53125l0.578125 1.0625zm14.0 1.765625l-15.65625 0l0 1.015625l3.6875 0l0 6.140625l1.203125 0l0 -6.140625l5.875 0l0 6.734375l1.203125 0l0 -6.734375l3.6875 0l0 -1.015625zm9.921875 -6.140625l0 8.109375l-5.21875 0l0 -8.109375l5.21875 0zm-6.46875 -1.046875l0 11.0l1.25 0l0 -0.8125l5.21875 0l0 0.5l1.25 0l0 -10.6875l-7.71875 0zm7.71875 4.921875l0 1.03125l4.578125 0l0 8.984375l1.25 0l0 -15.96875q0 -0.078125 0.015625 -0.171875q0.015625 -0.0625 0.078125 -0.140625q0.09375 -0.1875 0.046875 -0.25q-0.03125 -0.09375 -0.359375 -0.09375l-1.03125 0l0 6.609375l-4.578125 0zm16.970703 8.140625l8.578125 0l0 -1.046875l-7.328125 0q0.078125 -0.984375 0.78125 -1.78125q0.671875 -0.765625 2.078125 -1.5625l0.921875 -0.546875q1.03125 -0.5625 1.4375 -0.84375q0.71875 -0.484375 1.125 -0.9375q0.546875 -0.59375 0.796875 -1.234375q0.265625 -0.65625 0.265625 -1.46875q0 -1.78125 -1.09375 -2.828125q-1.078125 -1.03125 -2.921875 -1.03125q-2.015625 0 -3.15625 1.15625q-1.109375 1.125 -1.15625 3.265625l1.25 0q0 -1.625 0.78125 -2.453125q0.765625 -0.84375 2.234375 -0.84375q1.3125 0 2.0625 0.71875q0.75 0.71875 0.75 2.03125q0 0.640625 -0.203125 1.109375q-0.1875 0.46875 -0.609375 0.96875q-0.3125 0.3125 -0.875 0.6875q-0.328125 0.21875 -1.140625 0.703125l-1.328125 0.796875q-1.6875 1.046875 -2.4375 2.125q-0.8125 1.140625 -0.8125 2.625l0 0.390625z" fill-rule="nonzero"/></g></g></svg>