<svg version="1.1" viewBox="0.0 0.0 895.514435695538 364.48556430446195" fill="none" stroke="none" stroke-linecap="square" stroke-miterlimit="10" xmlns:xlink="http://www.w3.org/1999/xlink" xmlns="http://www.w3.org/2000/svg"><clipPath id="p.0"><path d="m0 0l895.51447 0l0 364.48557l-895.51447 0l0 -364.48557z" clip-rule="nonzero"/></clipPath><g clip-path="url(#p.0)"><path fill="#000000" fill-opacity="0.0" d="m0 0l895.51447 0l0 364.48557l-895.51447 0z" fill-rule="evenodd"/><g filter="url(#shadowFilter-p.1)"><use xlink:href="#p.1" transform="matrix(1.0 0.0 0.0 1.0 0.0 2.0)"/></g><defs><filter id="shadowFilter-p.1" filterUnits="userSpaceOnUse"><feGaussianBlur in="SourceAlpha" stdDeviation="2.0" result="blur"/><feComponentTransfer in="blur" color-interpolation-filters="sRGB"><feFuncR type="linear" slope="0" intercept="0.0"/><feFuncG type="linear" slope="0" intercept="0.0"/><feFuncB type="linear" slope="0" intercept="0.0"/><feFuncA type="linear" slope="0.5" intercept="0"/></feComponentTransfer></filter></defs><g id="p.1"><path fill="#b7b7b7" d="m434.52493 8.745407l261.76376 0l0 113.19685l-261.76376 0z" fill-rule="evenodd"/><path stroke="#595959" stroke-width="1.0" stroke-linejoin="round" stroke-linecap="butt" d="m434.52493 8.745407l261.76376 0l0 113.19685l-261.76376 0z" fill-rule="evenodd"/></g><path fill="#000000" fill-opacity="0.0" d="m434.52493 8.745407l261.76376 0l0 42.015747l-261.76376 0z" fill-rule="evenodd"/><path fill="#000000" d="m461.48914 21.415405q-1.609375 0 -2.5625 1.125q-0.84375 1.046875 -0.84375 2.546875q0 1.46875 0.84375 2.484375q0.953125 1.15625 2.5625 1.15625q1.625 0 2.5625 -1.15625q0.875 -1.015625 0.875 -2.484375q0 -1.5 -0.875 -2.546875q-0.9375 -1.125 -2.5625 -1.125zm0 0.96875q1.09375 0 1.75 0.828125q0.578125 0.765625 0.578125 1.875q0 1.078125 -0.578125 1.84375q-0.65625 0.84375 -1.75 0.84375q-1.09375 0 -1.734375 -0.84375q-0.5625 -0.765625 -0.5625 -1.84375q0 -1.109375 0.5625 -1.875q0.640625 -0.828125 1.734375 -0.828125zm5.59375 -0.765625l0 2.9375l-2.234375 0q-0.515625 0 -0.515625 0.484375q-0.015625 0.46875 0.5 0.46875l2.25 0l0 3.109375q0 0.25 0.15625 0.421875q0.15625 0.125 0.390625 0.125q0.234375 0 0.375 -0.125q0.1875 -0.171875 0.1875 -0.421875l0 -7.03125q0 -0.25 -0.1875 -0.375q-0.140625 -0.125 -0.375 -0.109375q-0.234375 0 -0.390625 0.125q-0.15625 0.125 -0.15625 0.390625zm4.609375 7.0l0 -7.03125q0 -0.25 -0.171875 -0.375q-0.15625 -0.125 -0.359375 -0.125q-0.21875 0 -0.375 0.125q-0.15625 0.140625 -0.15625 0.390625l0 7.015625q0 0.25 0.15625 0.421875q0.15625 0.125 0.375 0.125q0.203125 0 0.359375 -0.125q0.171875 -0.171875 0.171875 -0.421875zm-1.640625 1.546875l-10.359375 0q-0.546875 0 -0.578125 0.46875q0 0.484375 0.5625 0.484375l10.203125 0q0.390625 0 0.5625 0.125q0.1875 0.140625 0.1875 0.46875l0 0.5q0 0.265625 -0.203125 0.375q-0.1875 0.109375 -0.53125 0.109375l-9.21875 0q-0.71875 0 -1.109375 0.359375q-0.375 0.328125 -0.375 0.890625l0 1.109375q0 0.640625 0.359375 1.0q0.34375 0.359375 0.984375 0.359375l11.15625 0q0.25 0 0.390625 -0.15625q0.140625 -0.140625 0.140625 -0.328125q-0.015625 -0.1875 -0.15625 -0.34375q-0.15625 -0.125 -0.421875 -0.125l-10.71875 0q-0.328125 0 -0.46875 -0.109375q-0.171875 -0.140625 -0.171875 -0.390625l0 -0.703125q0 -0.296875 0.125 -0.453125q0.171875 -0.15625 0.53125 -0.15625l9.3125 0q0.640625 0 1.03125 -0.34375q0.40625 -0.34375 0.40625 -0.9375l0 -0.84375q0 -0.671875 -0.4375 -1.015625q-0.421875 -0.34375 -1.203125 -0.34375zm13.0625 -8.53125l-5.3125 0q-0.59375 0 -0.59375 0.46875q-0.015625 0.46875 0.5625 0.46875l4.984375 0q0.5625 0 0.8125 0.15625q0.265625 0.1875 0.265625 0.5625l0 3.171875q0 0.40625 -0.1875 0.53125q-0.15625 0.15625 -0.625 0.15625l-3.984375 0q-0.828125 0 -1.28125 0.484375q-0.453125 0.453125 -0.453125 1.21875l0 4.375q0 0.84375 0.421875 1.328125q0.46875 0.515625 1.390625 0.515625q2.234375 0 4.28125 -0.328125q2.296875 -0.359375 3.828125 -1.046875q0.46875 -0.234375 0.265625 -0.703125q-0.1875 -0.46875 -0.671875 -0.203125q-1.34375 0.609375 -3.28125 0.96875q-2.0 0.359375 -4.140625 0.359375q-0.546875 0 -0.78125 -0.234375q-0.21875 -0.203125 -0.21875 -0.71875l0 -4.15625q0 -0.484375 0.171875 -0.6875q0.1875 -0.203125 0.640625 -0.203125l3.953125 0q0.875 0 1.296875 -0.390625q0.4375 -0.375 0.4375 -1.078125l0 -3.609375q0 -0.671875 -0.484375 -1.046875q-0.484375 -0.359375 -1.296875 -0.359375zm6.546875 6.75l0 -6.78125q0 -0.25 -0.1875 -0.390625q-0.140625 -0.109375 -0.375 -0.109375q-0.21875 0 -0.359375 0.109375q-0.171875 0.140625 -0.171875 0.390625l0 14.46875q0 0.25 0.171875 0.390625q0.140625 0.15625 0.359375 0.15625q0.234375 0 0.375 -0.15625q0.1875 -0.140625 0.1875 -0.390625l0 -6.765625l2.0625 0q0.4375 0 0.4375 -0.46875q0 -0.453125 -0.4375 -0.453125l-2.0625 0zm13.03125 -6.5q0 2.875 -1.984375 4.90625q-1.71875 1.765625 -4.015625 2.234375q-0.296875 0.046875 -0.421875 0.234375q-0.140625 0.15625 -0.109375 0.359375q0.03125 0.1875 0.203125 0.296875q0.1875 0.109375 0.453125 0.078125q2.25 -0.453125 4.09375 -2.140625q1.75 -1.578125 2.3125 -3.453125q0.59375 1.859375 2.3125 3.453125q1.828125 1.671875 3.984375 2.109375q0.3125 0.0625 0.53125 -0.046875q0.1875 -0.109375 0.21875 -0.3125q0.0625 -0.203125 -0.0625 -0.375q-0.15625 -0.1875 -0.4375 -0.25q-2.421875 -0.5 -4.09375 -2.21875q-1.921875 -1.984375 -1.921875 -4.84375q0 -0.296875 -0.171875 -0.484375q-0.15625 -0.140625 -0.359375 -0.140625q-0.21875 0 -0.375 0.140625q-0.15625 0.171875 -0.15625 0.453125zm7.734375 12.5l-14.40625 0q-0.546875 0 -0.546875 0.46875q0 0.484375 0.546875 0.484375l14.421875 0q0.234375 0 0.390625 -0.15625q0.140625 -0.140625 0.140625 -0.328125q0 -0.1875 -0.140625 -0.34375q-0.15625 -0.125 -0.40625 -0.125zm12.8125 -12.875l-6.1875 0q-0.828125 0 -1.296875 0.46875q-0.453125 0.4375 -0.453125 1.109375l0 4.484375q0 0.9375 0.46875 1.375q0.5 0.46875 1.53125 0.46875q2.25 0 4.3125 -0.21875q2.171875 -0.234375 3.671875 -0.625q0.21875 -0.09375 0.3125 -0.265625q0.09375 -0.1875 0.015625 -0.375q-0.046875 -0.1875 -0.234375 -0.265625q-0.203125 -0.09375 -0.46875 0q-1.34375 0.40625 -3.453125 0.640625q-1.921875 0.203125 -4.265625 0.203125q-0.453125 0 -0.640625 -0.203125q-0.15625 -0.1875 -0.15625 -0.640625l0 -1.96875l6.53125 0q0.5625 0 0.5625 -0.484375q0 -0.453125 -0.5625 -0.453125l-6.53125 0l0 -1.453125q0 -0.40625 0.171875 -0.625q0.203125 -0.234375 0.609375 -0.234375l6.109375 0q0.25 0 0.421875 -0.140625q0.15625 -0.15625 0.15625 -0.328125q0 -0.1875 -0.171875 -0.34375q-0.171875 -0.125 -0.453125 -0.125zm4.953125 7.46875l0 -7.390625q0 -0.25 -0.171875 -0.375q-0.15625 -0.125 -0.375 -0.125q-0.25 0 -0.390625 0.125q-0.171875 0.140625 -0.171875 0.390625l0 7.375q0 0.265625 0.171875 0.4375q0.140625 0.140625 0.390625 0.140625q0.21875 0 0.375 -0.140625q0.171875 -0.171875 0.171875 -0.4375zm-1.78125 2.4375l-10.15625 0q-0.53125 0 -0.5 0.484375q0 0.484375 0.5 0.484375l10.0625 0q0.421875 0 0.59375 0.15625q0.171875 0.15625 0.171875 0.515625l0 3.0q0 0.265625 0.171875 0.421875q0.140625 0.140625 0.390625 0.140625q0.21875 0 0.375 -0.140625q0.171875 -0.15625 0.171875 -0.421875l0 -3.046875q0 -0.734375 -0.453125 -1.171875q-0.46875 -0.421875 -1.328125 -0.421875zm11.734375 -9.375q0 2.921875 -1.15625 6.28125q-1.203125 3.5 -3.125 5.921875q-0.203125 0.21875 -0.203125 0.453125q0.015625 0.203125 0.15625 0.34375q0.15625 0.125 0.359375 0.125q0.21875 -0.015625 0.390625 -0.203125q1.296875 -1.734375 2.265625 -3.609375q0.734375 -1.5 1.25 -3.03125q1.125 1.390625 2.3125 3.21875q1.125 1.765625 1.84375 3.21875q0.109375 0.234375 0.359375 0.3125q0.21875 0.0625 0.421875 -0.03125q0.21875 -0.125 0.28125 -0.34375q0.09375 -0.234375 -0.0625 -0.5q-0.890625 -1.625 -2.140625 -3.453125q-1.1875 -1.734375 -2.65625 -3.546875q0.375 -1.421875 0.578125 -2.734375q0.21875 -1.359375 0.21875 -2.421875q0 -0.25 -0.1875 -0.40625q-0.140625 -0.140625 -0.375 -0.140625q-0.21875 0 -0.359375 0.140625q-0.171875 0.15625 -0.171875 0.40625zm9.046875 13.984375l0 -14.375q0 -0.265625 -0.171875 -0.421875q-0.15625 -0.125 -0.375 -0.125q-0.25 0 -0.390625 0.125q-0.171875 0.15625 -0.171875 0.421875l0 5.984375l-4.96875 0q-0.28125 0 -0.453125 0.125q-0.140625 0.125 -0.140625 0.328125q0 0.1875 0.171875 0.328125q0.15625 0.140625 0.453125 0.140625l4.9375 0l0 7.46875q0 0.265625 0.171875 0.4375q0.140625 0.171875 0.390625 0.171875q0.21875 0 0.375 -0.171875q0.171875 -0.171875 0.171875 -0.4375zm13.203125 -14.484375l-4.75 0q-0.546875 0 -0.546875 0.46875q0 0.484375 0.546875 0.484375l4.8125 0q0.453125 0 0.4375 -0.484375q-0.015625 -0.46875 -0.5 -0.46875zm1.84375 2.640625l-8.421875 0q-0.515625 0 -0.515625 0.46875q-0.015625 0.46875 0.5 0.46875l3.671875 0l0 1.953125q0 2.5 -1.3125 4.5q-1.171875 1.75 -3.046875 2.703125q-0.234375 0.109375 -0.296875 0.3125q-0.046875 0.203125 0.0625 0.390625q0.109375 0.1875 0.296875 0.265625q0.21875 0.0625 0.4375 -0.046875q1.5625 -0.78125 2.78125 -2.1875q1.171875 -1.390625 1.625 -2.890625q0.40625 1.53125 1.46875 2.8125q1.125 1.375 2.84375 2.265625q0.28125 0.140625 0.53125 0.0625q0.21875 -0.078125 0.3125 -0.28125q0.109375 -0.203125 0.046875 -0.40625q-0.0625 -0.21875 -0.3125 -0.3125q-1.859375 -0.796875 -3.046875 -2.640625q-1.296875 -2.015625 -1.296875 -4.546875l0 -1.953125l3.671875 0q0.46875 0 0.46875 -0.46875q0 -0.46875 -0.46875 -0.46875zm3.953125 11.859375l0 -14.4375q0 -0.25 -0.171875 -0.390625q-0.15625 -0.109375 -0.375 -0.109375q-0.25 0 -0.390625 0.109375q-0.171875 0.140625 -0.171875 0.390625l0 14.4375q0 0.25 0.171875 0.421875q0.140625 0.15625 0.390625 0.15625q0.21875 0 0.375 -0.15625q0.171875 -0.171875 0.171875 -0.421875z" fill-rule="nonzero"/><path fill="#000000" d="m583.235 21.64978l-5.5 0q-0.28125 0 -0.4375 0.140625q-0.125 0.140625 -0.125 0.328125q0 0.1875 0.125 0.328125q0.171875 0.15625 0.453125 0.15625l5.375 0q0.515625 0 0.75 0.21875q0.21875 0.21875 0.21875 0.65625l0 1.046875q0 2.15625 -1.703125 3.734375q-1.84375 1.703125 -5.03125 2.03125q-0.265625 0.015625 -0.390625 0.171875q-0.109375 0.15625 -0.09375 0.359375q0.015625 0.203125 0.171875 0.328125q0.15625 0.15625 0.4375 0.140625q3.421875 -0.3125 5.5625 -2.25q2.109375 -1.890625 2.109375 -4.46875l0 -1.296875q0 -0.765625 -0.46875 -1.171875q-0.484375 -0.453125 -1.453125 -0.453125zm-0.09375 3.359375q-1.34375 0.234375 -2.859375 0.375q-1.734375 0.1875 -3.078125 0.1875q-0.515625 0 -0.515625 0.46875q0 0.484375 0.515625 0.484375q1.390625 0 3.21875 -0.1875q1.59375 -0.171875 2.96875 -0.40625q0.234375 -0.0625 0.34375 -0.25q0.109375 -0.140625 0.078125 -0.328125q-0.0625 -0.1875 -0.21875 -0.28125q-0.1875 -0.109375 -0.453125 -0.0625zm7.234375 6.8125l0 -10.171875q0 -0.265625 -0.171875 -0.421875q-0.15625 -0.125 -0.375 -0.125q-0.25 0 -0.390625 0.125q-0.171875 0.15625 -0.171875 0.421875l0 4.234375l-3.4375 0q-0.25 0 -0.40625 0.125q-0.140625 0.15625 -0.125 0.34375q0 0.1875 0.171875 0.328125q0.15625 0.15625 0.453125 0.15625l3.34375 0l0 4.984375q0 0.28125 0.171875 0.453125q0.140625 0.140625 0.390625 0.140625q0.21875 0 0.375 -0.140625q0.171875 -0.171875 0.171875 -0.453125zm-10.8125 0.21875q0 -0.296875 -0.1875 -0.453125q-0.140625 -0.15625 -0.375 -0.15625q-0.234375 0 -0.375 0.15625q-0.171875 0.15625 -0.171875 0.453125l0 2.46875q0 0.828125 0.515625 1.25q0.484375 0.40625 1.3125 0.40625l10.1875 0q0.46875 0 0.46875 -0.484375q0 -0.46875 -0.46875 -0.46875l-10.0 0q-0.53125 0 -0.71875 -0.15625q-0.1875 -0.1875 -0.1875 -0.6875l0 -2.328125zm23.3125 -10.390625q0 2.359375 -1.9375 3.921875q-1.71875 1.390625 -4.0625 1.578125q-0.296875 0.015625 -0.421875 0.1875q-0.140625 0.15625 -0.109375 0.375q0.03125 0.203125 0.203125 0.328125q0.1875 0.140625 0.453125 0.109375q2.3125 -0.3125 4.125 -1.546875q1.71875 -1.15625 2.28125 -2.640625q0.578125 1.453125 2.296875 2.640625q1.796875 1.234375 4.0 1.546875q0.3125 0.03125 0.53125 -0.109375q0.1875 -0.125 0.21875 -0.328125q0.0625 -0.234375 -0.0625 -0.390625q-0.15625 -0.1875 -0.4375 -0.203125q-2.375 -0.25 -4.0625 -1.578125q-1.953125 -1.546875 -1.953125 -3.859375q0 -0.296875 -0.171875 -0.46875q-0.15625 -0.15625 -0.359375 -0.15625q-0.21875 0 -0.375 0.15625q-0.15625 0.171875 -0.15625 0.4375zm7.78125 8.65625l-14.453125 0q-0.53125 0 -0.546875 0.453125q-0.046875 0.484375 0.453125 0.484375l3.5 0l0 1.453125q0 0.8125 -0.296875 1.546875q-0.28125 0.65625 -0.828125 1.203125q-0.1875 0.15625 -0.140625 0.40625q0.015625 0.203125 0.203125 0.375q0.171875 0.140625 0.390625 0.15625q0.21875 0.03125 0.40625 -0.140625q0.609375 -0.640625 0.984375 -1.5625q0.390625 -0.96875 0.390625 -1.96875l0 -1.46875l5.921875 0l0 4.8125q0 0.265625 0.15625 0.421875q0.15625 0.140625 0.375 0.140625q0.21875 0 0.375 -0.15625q0.1875 -0.171875 0.1875 -0.421875l0 -4.796875l2.96875 0q0.453125 0 0.453125 -0.484375q-0.015625 -0.453125 -0.5 -0.453125zm11.546875 -6.9375l0 9.984375q0 0.421875 -0.203125 0.59375q-0.1875 0.140625 -0.65625 0.140625l-3.953125 0q-0.453125 0 -0.625 -0.171875q-0.1875 -0.15625 -0.1875 -0.59375l0 -9.84375q0 -0.4375 0.171875 -0.65625q0.1875 -0.21875 0.609375 -0.21875l3.953125 0q0.484375 0 0.6875 0.1875q0.203125 0.1875 0.203125 0.578125zm-0.8125 -1.71875l-4.171875 0q-0.828125 0 -1.28125 0.5q-0.453125 0.484375 -0.453125 1.25l0 10.015625q0 0.796875 0.40625 1.1875q0.4375 0.4375 1.375 0.4375l4.25 0q0.875 0 1.3125 -0.421875q0.453125 -0.40625 0.453125 -1.21875l0 -10.125q0 -0.765625 -0.546875 -1.203125q-0.5 -0.421875 -1.34375 -0.421875zm6.984375 14.3125l0 -14.3125q0 -0.265625 -0.171875 -0.421875q-0.15625 -0.125 -0.375 -0.125q-0.25 0 -0.390625 0.125q-0.171875 0.15625 -0.171875 0.421875l0 6.078125l-3.171875 0q-0.265625 0 -0.390625 0.125q-0.125 0.15625 -0.125 0.328125q0.015625 0.1875 0.171875 0.34375q0.15625 0.140625 0.4375 0.140625l3.078125 0l0 7.296875q0 0.3125 0.171875 0.5q0.140625 0.171875 0.390625 0.171875q0.21875 0 0.375 -0.171875q0.171875 -0.203125 0.171875 -0.5z" fill-rule="nonzero"/><path fill="#000000" d="m650.762 21.58728l-10.171875 0q-0.5 0 -0.5 0.484375q0 0.46875 0.5 0.46875l10.03125 0q0.515625 0 0.8125 0.234375q0.3125 0.234375 0.3125 0.703125l0 5.203125q0 1.515625 -0.40625 3.203125q-0.421875 1.78125 -1.125 3.015625l1.1875 0q0.625 -1.21875 1.03125 -2.984375q0.421875 -1.765625 0.421875 -3.203125l0 -5.296875q0 -0.875 -0.5625 -1.375q-0.578125 -0.453125 -1.53125 -0.453125zm3.03125 12.796875l-14.40625 0q-0.53125 0 -0.546875 0.46875q-0.046875 0.484375 0.453125 0.484375l14.515625 0q0.234375 0 0.390625 -0.15625q0.140625 -0.140625 0.140625 -0.328125q0 -0.1875 -0.140625 -0.34375q-0.15625 -0.125 -0.40625 -0.125zm16.46875 -13.078125l-10.375 0q-0.546875 0 -0.5625 0.46875q0 0.46875 0.546875 0.46875l10.078125 0q0.40625 0 0.59375 0.125q0.203125 0.125 0.203125 0.40625l0 0.4375q0 0.21875 -0.21875 0.359375q-0.21875 0.140625 -0.609375 0.140625l-9.09375 0q-0.703125 0 -1.109375 0.3125q-0.390625 0.34375 -0.390625 0.9375l0 0.84375q0 0.625 0.359375 0.9375q0.375 0.3125 1.140625 0.3125l10.71875 0q0.25 0 0.375 -0.15625q0.125 -0.140625 0.125 -0.328125q0 -0.1875 -0.140625 -0.328125q-0.15625 -0.140625 -0.40625 -0.140625l-10.390625 0q-0.390625 0 -0.546875 -0.140625q-0.125 -0.109375 -0.125 -0.328125l0 -0.515625q0 -0.21875 0.125 -0.328125q0.171875 -0.125 0.59375 -0.125l9.25 0q0.703125 0 1.046875 -0.28125q0.40625 -0.296875 0.40625 -0.921875l0 -1.03125q0 -0.53125 -0.4375 -0.84375q-0.40625 -0.28125 -1.15625 -0.28125zm2.578125 7.0l-14.453125 0q-0.546875 0 -0.546875 0.4375q0 0.46875 0.53125 0.46875l6.6875 0l0 1.53125q0 0.265625 0.15625 0.4375q0.15625 0.125 0.375 0.125q0.203125 0 0.359375 -0.15625q0.171875 -0.15625 0.171875 -0.4375l0 -1.5l6.765625 0q0.453125 0 0.453125 -0.46875q-0.015625 -0.4375 -0.5 -0.4375zm-2.09375 2.6875l0 1.484375l-10.3125 0l0 -1.484375q0 -0.265625 -0.1875 -0.40625q-0.140625 -0.140625 -0.375 -0.140625q-0.234375 0 -0.390625 0.140625q-0.15625 0.140625 -0.15625 0.40625l0 4.0625q0 0.59375 0.34375 0.96875q0.390625 0.390625 1.03125 0.390625l9.703125 0q0.6875 0 1.09375 -0.390625q0.359375 -0.375 0.359375 -0.953125l0 -4.078125q0 -0.265625 -0.171875 -0.40625q-0.15625 -0.140625 -0.375 -0.140625q-0.25 0 -0.390625 0.140625q-0.171875 0.140625 -0.171875 0.40625zm0 2.4375l0 1.421875q0 0.34375 -0.140625 0.484375q-0.140625 0.125 -0.546875 0.125l-8.9375 0q-0.390625 0 -0.546875 -0.171875q-0.140625 -0.125 -0.140625 -0.4375l0 -1.421875l10.3125 0z" fill-rule="nonzero"/><g filter="url(#shadowFilter-p.2)"><use xlink:href="#p.2" transform="matrix(1.0 0.0 0.0 1.0 0.0 2.0)"/></g><defs><filter id="shadowFilter-p.2" filterUnits="userSpaceOnUse"><feGaussianBlur in="SourceAlpha" stdDeviation="2.0" result="blur"/><feComponentTransfer in="blur" color-interpolation-filters="sRGB"><feFuncR type="linear" slope="0" intercept="0.0"/><feFuncG type="linear" slope="0" intercept="0.0"/><feFuncB type="linear" slope="0" intercept="0.0"/><feFuncA type="linear" slope="0.5" intercept="0"/></feComponentTransfer></filter></defs><g id="p.2"><path fill="#eeeeee" d="m508.39108 57.990814l114.04721 0l0 35.2126l-114.04721 0z" fill-rule="evenodd"/><path stroke="#595959" stroke-width="1.0" stroke-linejoin="round" stroke-linecap="butt" d="m508.39108 57.990814l114.04721 0l0 35.2126l-114.04721 0z" fill-rule="evenodd"/><path fill="#000000" d="m530.01575 68.47024l0 1.046875l6.796875 0q-0.0625 0.609375 -0.203125 1.109375q-0.15625 0.484375 -0.5 1.140625q-1.765625 0.234375 -3.78125 0.375q-1.859375 0.15625 -3.109375 0.15625l0.453125 1.09375q0.125 0.25 0.21875 0.296875q0.078125 0.015625 0.28125 -0.09375q0.140625 -0.09375 0.234375 -0.140625q0.1875 -0.078125 0.390625 -0.109375l4.75 -0.546875q-0.734375 1.4375 -2.484375 2.8125q-1.78125 1.40625 -4.046875 2.28125l1.0 0.90625q3.296875 -1.453125 5.328125 -3.78125q2.359375 -2.703125 2.984375 -6.546875l-8.3125 0zm13.140625 -1.078125l-0.875 0l0 5.109375l-4.1875 0l0 1.03125l4.1875 0l0 6.109375l1.25 0l0 -11.5625q0 -0.109375 0.03125 -0.21875q0.046875 -0.0625 0.09375 -0.171875q0.109375 -0.1875 0.0625 -0.21875q-0.078125 -0.078125 -0.5625 -0.078125zm-10.140625 10.96875l-0.921875 0l0 5.234375l11.828125 0l0 -1.015625l-10.59375 0l0 -3.65625q0 -0.078125 0.015625 -0.15625q0.015625 -0.046875 0.0625 -0.125q0.078125 -0.171875 0.046875 -0.203125q-0.078125 -0.078125 -0.4375 -0.078125zm17.515625 -3.859375q2.140625 -0.78125 3.90625 -2.25q1.671875 -1.375 2.234375 -2.671875q0.75 1.359375 2.21875 2.515625q1.671875 1.28125 3.984375 2.078125l0.578125 -1.125q-1.328125 -0.234375 -2.5625 -0.890625q-1.03125 -0.546875 -1.90625 -1.375q-0.765625 -0.671875 -1.203125 -1.359375q-0.40625 -0.640625 -0.375 -0.9375q0 -0.15625 0.078125 -0.328125q0.03125 -0.109375 0.140625 -0.296875q0.15625 -0.265625 0.140625 -0.359375q-0.015625 -0.109375 -0.390625 -0.109375l-1.15625 0q-0.09375 1.828125 -1.796875 3.515625q-1.765625 1.734375 -4.46875 2.53125l0.578125 1.0625zm14.0 1.765625l-15.65625 0l0 1.015625l3.6875 0l0 6.140625l1.203125 0l0 -6.140625l5.875 0l0 6.734375l1.203125 0l0 -6.734375l3.6875 0l0 -1.015625zm9.921875 -6.140625l0 8.109375l-5.21875 0l0 -8.109375l5.21875 0zm-6.46875 -1.046875l0 11.0l1.25 0l0 -0.8125l5.21875 0l0 0.5l1.25 0l0 -10.6875l-7.71875 0zm7.71875 4.921875l0 1.03125l4.578125 0l0 8.984375l1.25 0l0 -15.96875q0 -0.078125 0.015625 -0.171875q0.015625 -0.0625 0.078125 -0.140625q0.09375 -0.1875 0.046875 -0.25q-0.03125 -0.09375 -0.359375 -0.09375l-1.03125 0l0 6.609375l-4.578125 0zm17.033203 1.6875q0 3.34375 1.109375 5.109375q1.140625 1.734375 3.25 1.734375q2.09375 0 3.21875 -1.734375q1.140625 -1.765625 1.140625 -5.09375q0 -3.34375 -1.140625 -5.09375q-1.125 -1.75 -3.21875 -1.75q-2.109375 0 -3.25 1.71875q-1.109375 1.765625 -1.109375 5.109375zm1.296875 0q0 -2.90625 0.75 -4.3125q0.734375 -1.390625 2.3125 -1.390625q1.546875 0 2.296875 1.390625q0.765625 1.40625 0.765625 4.3125q0 2.890625 -0.765625 4.296875q-0.75 1.421875 -2.296875 1.421875q-1.578125 0 -2.3125 -1.421875q-0.75 -1.40625 -0.75 -4.296875z" fill-rule="nonzero"/></g><g filter="url(#shadowFilter-p.3)"><use xlink:href="#p.3" transform="matrix(1.0 0.0 0.0 1.0 0.0 2.0)"/></g><defs><filter id="shadowFilter-p.3" filterUnits="userSpaceOnUse"><feGaussianBlur in="SourceAlpha" stdDeviation="2.0" result="blur"/><feComponentTransfer in="blur" color-interpolation-filters="sRGB"><feFuncR type="linear" slope="0" intercept="0.0"/><feFuncG type="linear" slope="0" intercept="0.0"/><feFuncB type="linear" slope="0" intercept="0.0"/><feFuncA type="linear" slope="0.5" intercept="0"/></feComponentTransfer></filter></defs><g id="p.3"><path fill="#b7b7b7" d="m228.04462 8.744095l158.96063 0l0 224.59842l-158.96063 0z" fill-rule="evenodd"/><path stroke="#595959" stroke-width="1.0" stroke-linejoin="round" stroke-linecap="butt" d="m228.04462 8.744095l158.96063 0l0 224.59842l-158.96063 0z" fill-rule="evenodd"/></g><path fill="#000000" fill-opacity="0.0" d="m275.96588 8.744095l63.118103 0l0 42.015747l-63.118103 0z" fill-rule="evenodd"/><path fill="#000000" d="m303.9468 21.585968l-10.375 0q-0.890625 0 -1.375 0.484375q-0.4375 0.453125 -0.4375 1.1875l0 5.640625q0 0.734375 0.453125 1.15625q0.46875 0.4375 1.296875 0.4375l10.515625 0q0.21875 0 0.34375 -0.15625q0.125 -0.140625 0.109375 -0.328125q0 -0.1875 -0.125 -0.34375q-0.15625 -0.125 -0.390625 -0.125l-10.28125 0q-0.4375 0 -0.625 -0.1875q-0.1875 -0.15625 -0.1875 -0.546875l0 -2.421875l10.890625 0q0.53125 0 0.53125 -0.484375q0 -0.453125 -0.53125 -0.453125l-10.890625 0l0 -2.0625q0 -0.453125 0.203125 -0.65625q0.21875 -0.1875 0.703125 -0.1875l10.25 0q0.21875 0 0.34375 -0.15625q0.125 -0.140625 0.109375 -0.3125q0 -0.21875 -0.125 -0.34375q-0.171875 -0.140625 -0.40625 -0.140625zm-6.4375 9.171875l0 3.625l-6.6875 0q-0.25 0 -0.40625 0.125q-0.125 0.15625 -0.140625 0.34375q-0.03125 0.1875 0.09375 0.328125q0.109375 0.15625 0.3125 0.15625l14.5625 0q0.234375 0 0.390625 -0.15625q0.140625 -0.140625 0.140625 -0.328125q0 -0.1875 -0.140625 -0.34375q-0.15625 -0.125 -0.40625 -0.125l-6.640625 0l0 -3.546875q0 -0.25 -0.1875 -0.40625q-0.15625 -0.140625 -0.359375 -0.140625q-0.21875 -0.03125 -0.375 0.109375q-0.15625 0.125 -0.15625 0.359375zm21.1875 -9.234375l-8.40625 0q-0.515625 0 -0.515625 0.46875q0 0.484375 0.515625 0.484375l8.40625 0q0.53125 0 0.53125 -0.484375q0 -0.46875 -0.53125 -0.46875zm-7.328125 2.25q0 0.90625 0.140625 2.265625q0.15625 1.21875 0.390625 2.484375l-2.109375 0.015625q-0.546875 0 -0.546875 0.4375q0 0.46875 0.546875 0.46875q3.0 0 5.546875 -0.234375q2.78125 -0.25 4.359375 -0.703125q0.234375 -0.0625 0.359375 -0.25q0.109375 -0.171875 0.0625 -0.34375q-0.03125 -0.203125 -0.203125 -0.296875q-0.1875 -0.125 -0.4375 -0.03125q-0.40625 0.125 -0.953125 0.234375q-0.328125 0.0625 -1.078125 0.203125l-0.296875 0.0625q0.203125 -1.015625 0.34375 -2.140625q0.15625 -1.265625 0.15625 -2.21875q0 -0.5 -0.53125 -0.5q-0.515625 0 -0.515625 0.5q0 0.953125 -0.140625 2.21875q-0.140625 1.296875 -0.34375 2.3125q-0.765625 0.078125 -1.640625 0.125q-0.859375 0.078125 -1.5 0.09375q-0.234375 -1.140625 -0.390625 -2.609375q-0.109375 -1.265625 -0.109375 -2.09375q0 -0.5 -0.5625 -0.5q-0.546875 0 -0.546875 0.5zm11.625 5.203125l0 -7.390625q0 -0.25 -0.171875 -0.375q-0.15625 -0.125 -0.375 -0.125q-0.25 0 -0.390625 0.125q-0.171875 0.140625 -0.171875 0.390625l0 7.375q0 0.265625 0.171875 0.4375q0.140625 0.140625 0.390625 0.140625q0.21875 0 0.375 -0.140625q0.171875 -0.171875 0.171875 -0.4375zm-1.78125 2.4375l-10.15625 0q-0.53125 0 -0.5 0.484375q0 0.484375 0.5 0.484375l10.0625 0q0.421875 0 0.59375 0.15625q0.171875 0.15625 0.171875 0.515625l0 3.0q0 0.265625 0.171875 0.421875q0.140625 0.140625 0.390625 0.140625q0.21875 0 0.375 -0.140625q0.171875 -0.15625 0.171875 -0.421875l0 -3.046875q0 -0.734375 -0.453125 -1.171875q-0.46875 -0.421875 -1.328125 -0.421875z" fill-rule="nonzero"/><g filter="url(#shadowFilter-p.4)"><use xlink:href="#p.4" transform="matrix(1.0 0.0 0.0 1.0 0.0 2.0)"/></g><defs><filter id="shadowFilter-p.4" filterUnits="userSpaceOnUse"><feGaussianBlur in="SourceAlpha" stdDeviation="2.0" result="blur"/><feComponentTransfer in="blur" color-interpolation-filters="sRGB"><feFuncR type="linear" slope="0" intercept="0.0"/><feFuncG type="linear" slope="0" intercept="0.0"/><feFuncB type="linear" slope="0" intercept="0.0"/><feFuncA type="linear" slope="0.5" intercept="0"/></feComponentTransfer></filter></defs><g id="p.4"><path fill="#eeeeee" d="m250.50131 57.984318l114.04724 0l0 35.212597l-114.04724 0z" fill-rule="evenodd"/><path stroke="#595959" stroke-width="1.0" stroke-linejoin="round" stroke-linecap="butt" d="m250.50131 57.984318l114.04724 0l0 35.212597l-114.04724 0z" fill-rule="evenodd"/><path fill="#000000" d="m288.54886 66.94811l-0.828125 0l0 16.453125l1.296875 0l0 -7.15625l3.0625 0l0 -1.046875l-3.0625 0l0 -7.53125q0 -0.109375 0.03125 -0.203125q0.03125 -0.078125 0.078125 -0.1875q0.09375 -0.140625 0.03125 -0.203125q-0.109375 -0.09375 -0.609375 -0.125zm-12.328125 2.21875l0 1.09375l9.4375 0l0 -1.09375l-9.4375 0zm2.40625 2.796875l-0.953125 0l0.625 6.0625q-0.75 0 -1.71875 0q-0.953125 0 -1.484375 0l0.34375 1.09375q0.0625 0.25 0.140625 0.296875q0.046875 0.015625 0.1875 -0.078125q0.15625 -0.078125 0.28125 -0.109375q0.203125 -0.078125 0.421875 -0.078125l1.0 -0.0625q2.84375 -0.125 4.484375 -0.203125q2.8125 -0.15625 4.578125 -0.25l-0.09375 -1.0l-3.0 0.15625l0.640625 -4.984375q0.015625 -0.109375 0.078125 -0.203125q0.03125 -0.0625 0.125 -0.171875q0.15625 -0.171875 0.09375 -0.234375q-0.046875 -0.09375 -0.515625 -0.171875l-0.984375 -0.09375l-0.671875 5.921875l-2.671875 0.125l-0.46875 -5.328125q-0.015625 -0.109375 0.03125 -0.21875q0.015625 -0.046875 0.0625 -0.171875q0.078125 -0.140625 0.03125 -0.203125q-0.09375 -0.0625 -0.5625 -0.09375zm16.234375 -3.234375l0 11.625q2.9375 0 5.796875 -0.28125q2.828125 -0.265625 4.828125 -0.71875l-0.109375 -1.09375q-2.171875 0.53125 -4.96875 0.796875q-2.421875 0.25 -4.34375 0.203125l0 -4.859375l6.734375 0l0 -1.0l-6.734375 0l0 -3.6875l7.109375 0l0 -0.984375l-8.3125 0zm12.578125 -1.34375l-0.875 0l0 16.625l1.25 0l0 -15.9375q0 -0.109375 0.03125 -0.21875q0.046875 -0.0625 0.09375 -0.171875q0.109375 -0.1875 0.0625 -0.21875q-0.078125 -0.078125 -0.5625 -0.078125zm9.8125 0.71875q0.046875 2.59375 -1.421875 4.9375q-1.453125 2.328125 -3.75 3.421875l0.796875 1.015625q1.90625 -1.3125 2.9375 -2.46875q1.203125 -1.375 1.8125 -3.1875q0.453125 1.625 1.609375 3.140625q1.03125 1.296875 2.375 2.265625l0.890625 -0.984375q-1.828125 -0.921875 -3.078125 -2.921875q-1.296875 -2.109375 -1.03125 -4.078125q0.015625 -0.1875 0.078125 -0.375q0.03125 -0.09375 0.109375 -0.28125q0.125 -0.265625 0.109375 -0.359375q-0.046875 -0.125 -0.359375 -0.125l-1.078125 0zm4.25 2.21875l0 1.015625l4.0625 0l0 2.140625l-4.0625 0l0 1.03125l4.0625 0l0 5.234375l1.25 0l0 -11.796875q0 -0.078125 0.015625 -0.15625q0.015625 -0.046875 0.0625 -0.125q0.09375 -0.171875 0.046875 -0.203125q-0.046875 -0.078125 -0.390625 -0.078125l-0.984375 0l0 2.9375l-4.0625 0zm-5.203125 8.03125l-0.921875 0l0 5.234375l11.828125 0l0 -1.015625l-10.59375 0l0 -3.65625q0 -0.078125 0.015625 -0.15625q0.015625 -0.046875 0.0625 -0.125q0.078125 -0.171875 0.046875 -0.203125q-0.078125 -0.078125 -0.4375 -0.078125zm15.375 -2.671875q0 3.34375 1.109375 5.109375q1.140625 1.734375 3.25 1.734375q2.09375 0 3.21875 -1.734375q1.140625 -1.765625 1.140625 -5.09375q0 -3.34375 -1.140625 -5.09375q-1.125 -1.75 -3.21875 -1.75q-2.109375 0 -3.25 1.71875q-1.109375 1.765625 -1.109375 5.109375zm1.296875 0q0 -2.90625 0.75 -4.3125q0.734375 -1.390625 2.3125 -1.390625q1.546875 0 2.296875 1.390625q0.765625 1.40625 0.765625 4.3125q0 2.890625 -0.765625 4.296875q-0.75 1.421875 -2.296875 1.421875q-1.578125 0 -2.3125 -1.421875q-0.75 -1.40625 -0.75 -4.296875z" fill-rule="nonzero"/></g><g filter="url(#shadowFilter-p.5)"><use xlink:href="#p.5" transform="matrix(1.0 0.0 0.0 1.0 0.0 2.0)"/></g><defs><filter id="shadowFilter-p.5" filterUnits="userSpaceOnUse"><feGaussianBlur in="SourceAlpha" stdDeviation="2.0" result="blur"/><feComponentTransfer in="blur" color-interpolation-filters="sRGB"><feFuncR type="linear" slope="0" intercept="0.0"/><feFuncG type="linear" slope="0" intercept="0.0"/><feFuncB type="linear" slope="0" intercept="0.0"/><feFuncA type="linear" slope="0.5" intercept="0"/></feComponentTransfer></filter></defs><g id="p.5"><path fill="#eeeeee" d="m250.50131 114.69623l114.04724 0l0 35.2126l-114.04724 0z" fill-rule="evenodd"/><path stroke="#595959" stroke-width="1.0" stroke-linejoin="round" stroke-linecap="butt" d="m250.50131 114.69623l114.04724 0l0 35.2126l-114.04724 0z" fill-rule="evenodd"/><path fill="#000000" d="m288.54886 123.66003l-0.828125 0l0 16.453117l1.296875 0l0 -7.15625l3.0625 0l0 -1.046875l-3.0625 0l0 -7.5312424q0 -0.109375 0.03125 -0.203125q0.03125 -0.078125 0.078125 -0.1875q0.09375 -0.140625 0.03125 -0.203125q-0.109375 -0.09375 -0.609375 -0.125zm-12.328125 2.21875l0 1.09375l9.4375 0l0 -1.09375l-9.4375 0zm2.40625 2.7968674l-0.953125 0l0.625 6.0625q-0.75 0 -1.71875 0q-0.953125 0 -1.484375 0l0.34375 1.09375q0.0625 0.25 0.140625 0.296875q0.046875 0.015625 0.1875 -0.078125q0.15625 -0.078125 0.28125 -0.109375q0.203125 -0.078125 0.421875 -0.078125l1.0 -0.0625q2.84375 -0.125 4.484375 -0.203125q2.8125 -0.15625 4.578125 -0.25l-0.09375 -1.0l-3.0 0.15625l0.640625 -4.984375q0.015625 -0.109375 0.078125 -0.203125q0.03125 -0.0625 0.125 -0.171875q0.15625 -0.171875 0.09375 -0.234375q-0.046875 -0.09375 -0.515625 -0.171875l-0.984375 -0.09375l-0.671875 5.921875l-2.671875 0.125l-0.46875 -5.328125q-0.015625 -0.109375 0.03125 -0.21875q0.015625 -0.046875 0.0625 -0.171875q0.078125 -0.140625 0.03125 -0.203125q-0.09375 -0.0625 -0.5625 -0.09375zm16.234375 -3.2343674l0 11.624992q2.9375 0 5.796875 -0.28125q2.828125 -0.265625 4.828125 -0.71875l-0.109375 -1.09375q-2.171875 0.53125 -4.96875 0.796875q-2.421875 0.25 -4.34375 0.203125l0 -4.859375l6.734375 0l0 -1.0l-6.734375 0l0 -3.6874924l7.109375 0l0 -0.984375l-8.3125 0zm12.578125 -1.34375l-0.875 0l0 16.624992l1.25 0l0 -15.937492q0 -0.109375 0.03125 -0.21875q0.046875 -0.0625 0.09375 -0.171875q0.109375 -0.1875 0.0625 -0.21875q-0.078125 -0.078125 -0.5625 -0.078125zm9.8125 0.71875q0.046875 2.59375 -1.421875 4.9374924q-1.453125 2.328125 -3.75 3.421875l0.796875 1.015625q1.90625 -1.3125 2.9375 -2.46875q1.203125 -1.375 1.8125 -3.1875q0.453125 1.625 1.609375 3.140625q1.03125 1.296875 2.375 2.265625l0.890625 -0.984375q-1.828125 -0.921875 -3.078125 -2.921875q-1.296875 -2.1093674 -1.03125 -4.0781174q0.015625 -0.1875 0.078125 -0.375q0.03125 -0.09375 0.109375 -0.28125q0.125 -0.265625 0.109375 -0.359375q-0.046875 -0.125 -0.359375 -0.125l-1.078125 0zm4.25 2.21875l0 1.0156174l4.0625 0l0 2.140625l-4.0625 0l0 1.03125l4.0625 0l0 5.234375l1.25 0l0 -11.796867q0 -0.078125 0.015625 -0.15625q0.015625 -0.046875 0.0625 -0.125q0.09375 -0.171875 0.046875 -0.203125q-0.046875 -0.078125 -0.390625 -0.078125l-0.984375 0l0 2.9375l-4.0625 0zm-5.203125 8.031242l-0.921875 0l0 5.234375l11.828125 0l0 -1.015625l-10.59375 0l0 -3.65625q0 -0.078125 0.015625 -0.15625q0.015625 -0.046875 0.0625 -0.125q0.078125 -0.171875 0.046875 -0.203125q-0.078125 -0.078125 -0.4375 -0.078125zm19.265625 3.78125l1.25 0l0 -13.281242l-1.09375 0q-0.09375 1.375 -0.90625 2.0q-0.828125 0.6406174 -2.453125 0.6406174l-0.09375 0l0 0.8125l0.203125 0q1.109375 0 1.875 -0.1875q0.765625 -0.1875 1.21875 -0.5625l0 10.578125z" fill-rule="nonzero"/></g><g filter="url(#shadowFilter-p.6)"><use xlink:href="#p.6" transform="matrix(1.0 0.0 0.0 1.0 0.0 2.0)"/></g><defs><filter id="shadowFilter-p.6" filterUnits="userSpaceOnUse"><feGaussianBlur in="SourceAlpha" stdDeviation="2.0" result="blur"/><feComponentTransfer in="blur" color-interpolation-filters="sRGB"><feFuncR type="linear" slope="0" intercept="0.0"/><feFuncG type="linear" slope="0" intercept="0.0"/><feFuncB type="linear" slope="0" intercept="0.0"/><feFuncA type="linear" slope="0.5" intercept="0"/></feComponentTransfer></filter></defs><g id="p.6"><path fill="#eeeeee" d="m250.50131 171.40814l114.04724 0l0 35.212585l-114.04724 0z" fill-rule="evenodd"/><path stroke="#595959" stroke-width="1.0" stroke-linejoin="round" stroke-linecap="butt" d="m250.50131 171.40814l114.04724 0l0 35.212585l-114.04724 0z" fill-rule="evenodd"/><path fill="#000000" d="m288.54886 180.37193l-0.828125 0l0 16.453125l1.296875 0l0 -7.15625l3.0625 0l0 -1.046875l-3.0625 0l0 -7.53125q0 -0.109375 0.03125 -0.203125q0.03125 -0.078125 0.078125 -0.1875q0.09375 -0.140625 0.03125 -0.203125q-0.109375 -0.09375 -0.609375 -0.125zm-12.328125 2.21875l0 1.09375l9.4375 0l0 -1.09375l-9.4375 0zm2.40625 2.796875l-0.953125 0l0.625 6.0625q-0.75 0 -1.71875 0q-0.953125 0 -1.484375 0l0.34375 1.09375q0.0625 0.25 0.140625 0.296875q0.046875 0.015625 0.1875 -0.078125q0.15625 -0.078125 0.28125 -0.109375q0.203125 -0.078125 0.421875 -0.078125l1.0 -0.0625q2.84375 -0.125 4.484375 -0.203125q2.8125 -0.15625 4.578125 -0.25l-0.09375 -1.0l-3.0 0.15625l0.640625 -4.984375q0.015625 -0.109375 0.078125 -0.203125q0.03125 -0.0625 0.125 -0.171875q0.15625 -0.171875 0.09375 -0.234375q-0.046875 -0.09375 -0.515625 -0.171875l-0.984375 -0.09375l-0.671875 5.921875l-2.671875 0.125l-0.46875 -5.328125q-0.015625 -0.109375 0.03125 -0.21875q0.015625 -0.046875 0.0625 -0.171875q0.078125 -0.140625 0.03125 -0.203125q-0.09375 -0.0625 -0.5625 -0.09375zm16.234375 -3.234375l0 11.625q2.9375 0 5.796875 -0.28125q2.828125 -0.265625 4.828125 -0.71875l-0.109375 -1.09375q-2.171875 0.53125 -4.96875 0.796875q-2.421875 0.25 -4.34375 0.203125l0 -4.859375l6.734375 0l0 -1.0l-6.734375 0l0 -3.6875l7.109375 0l0 -0.984375l-8.3125 0zm12.578125 -1.34375l-0.875 0l0 16.625l1.25 0l0 -15.9375q0 -0.109375 0.03125 -0.21875q0.046875 -0.0625 0.09375 -0.171875q0.109375 -0.1875 0.0625 -0.21875q-0.078125 -0.078125 -0.5625 -0.078125zm9.8125 0.71875q0.046875 2.59375 -1.421875 4.9375q-1.453125 2.328125 -3.75 3.421875l0.796875 1.015625q1.90625 -1.3125 2.9375 -2.46875q1.203125 -1.375 1.8125 -3.1875q0.453125 1.625 1.609375 3.140625q1.03125 1.296875 2.375 2.265625l0.890625 -0.984375q-1.828125 -0.921875 -3.078125 -2.921875q-1.296875 -2.109375 -1.03125 -4.078125q0.015625 -0.1875 0.078125 -0.375q0.03125 -0.09375 0.109375 -0.28125q0.125 -0.265625 0.109375 -0.359375q-0.046875 -0.125 -0.359375 -0.125l-1.078125 0zm4.25 2.21875l0 1.015625l4.0625 0l0 2.140625l-4.0625 0l0 1.03125l4.0625 0l0 5.234375l1.25 0l0 -11.796875q0 -0.078125 0.015625 -0.15625q0.015625 -0.046875 0.0625 -0.125q0.09375 -0.171875 0.046875 -0.203125q-0.046875 -0.078125 -0.390625 -0.078125l-0.984375 0l0 2.9375l-4.0625 0zm-5.203125 8.03125l-0.921875 0l0 5.234375l11.828125 0l0 -1.015625l-10.59375 0l0 -3.65625q0 -0.078125 0.015625 -0.15625q0.015625 -0.046875 0.0625 -0.125q0.078125 -0.171875 0.046875 -0.203125q-0.078125 -0.078125 -0.4375 -0.078125zm15.3125 3.78125l8.578125 0l0 -1.046875l-7.328125 0q0.078125 -0.984375 0.78125 -1.78125q0.671875 -0.765625 2.078125 -1.5625l0.921875 -0.546875q1.03125 -0.5625 1.4375 -0.84375q0.71875 -0.484375 1.125 -0.9375q0.546875 -0.59375 0.796875 -1.234375q0.265625 -0.65625 0.265625 -1.46875q0 -1.78125 -1.09375 -2.828125q-1.078125 -1.03125 -2.921875 -1.03125q-2.015625 0 -3.15625 1.15625q-1.109375 1.125 -1.15625 3.265625l1.25 0q0 -1.625 0.78125 -2.453125q0.765625 -0.84375 2.234375 -0.84375q1.3125 0 2.0625 0.71875q0.75 0.71875 0.75 2.03125q0 0.640625 -0.203125 1.109375q-0.1875 0.46875 -0.609375 0.96875q-0.3125 0.3125 -0.875 0.6875q-0.328125 0.21875 -1.140625 0.703125l-1.328125 0.796875q-1.6875 1.046875 -2.4375 2.125q-0.8125 1.140625 -0.8125 2.625l0 0.390625z" fill-rule="nonzero"/></g><path fill="#000000" fill-opacity="0.0" d="m364.54855 75.590614l143.84253 0" fill-rule="evenodd"/><path stroke="#595959" stroke-width="3.0" stroke-linejoin="round" stroke-linecap="butt" d="m364.54855 75.590614l125.84253 0" fill-rule="evenodd"/><path fill="#595959" stroke="#595959" stroke-width="3.0" stroke-linecap="butt" d="m490.39108 80.545815l13.614288 -4.9552l-13.614288 -4.9551926z" fill-rule="evenodd"/><path fill="#000000" fill-opacity="0.0" d="m364.54855 132.30252l143.84253 -56.69291" fill-rule="evenodd"/><path stroke="#595959" stroke-width="3.0" stroke-linejoin="round" stroke-linecap="butt" d="m364.54855 132.30252l127.09625 -50.09268" fill-rule="evenodd"/><path fill="#595959" stroke="#595959" stroke-width="3.0" stroke-linecap="butt" d="m493.4618 86.81989l10.84906 -9.602135l-14.483002 0.38202667z" fill-rule="evenodd"/><path fill="#000000" fill-opacity="0.0" d="m364.54855 189.01443l143.84253 -113.41732" fill-rule="evenodd"/><path stroke="#595959" stroke-width="3.0" stroke-linejoin="round" stroke-linecap="butt" d="m364.54855 189.01443l129.7078 -102.27236" fill-rule="evenodd"/><path fill="#595959" stroke="#595959" stroke-width="3.0" stroke-linecap="butt" d="m497.32446 90.6332l7.6226807 -12.32061l-13.75885 4.5383606z" fill-rule="evenodd"/><g filter="url(#shadowFilter-p.7)"><use xlink:href="#p.7" transform="matrix(1.0 0.0 0.0 1.0 0.0 2.0)"/></g><defs><filter id="shadowFilter-p.7" filterUnits="userSpaceOnUse"><feGaussianBlur in="SourceAlpha" stdDeviation="2.0" result="blur"/><feComponentTransfer in="blur" color-interpolation-filters="sRGB"><feFuncR type="linear" slope="0" intercept="0.0"/><feFuncG type="linear" slope="0" intercept="0.0"/><feFuncB type="linear" slope="0" intercept="0.0"/><feFuncA type="linear" slope="0.5" intercept="0"/></feComponentTransfer></filter></defs><g id="p.7"><path fill="#b7b7b7" d="m434.52493 145.37796l261.76376 0l0 201.95276l-261.76376 0z" fill-rule="evenodd"/><path stroke="#595959" stroke-width="1.0" stroke-linejoin="round" stroke-linecap="butt" d="m434.52493 145.37796l261.76376 0l0 201.95276l-261.76376 0z" fill-rule="evenodd"/></g><path fill="#000000" fill-opacity="0.0" d="m434.52493 145.37796l261.76376 0l0 42.015747l-261.76376 0z" fill-rule="evenodd"/><path fill="#000000" d="m481.46 158.06358l-4.859375 0q-0.515625 0 -0.515625 0.46875q0 0.484375 0.515625 0.484375l4.90625 0q0.5 0 0.484375 -0.484375q0 -0.46875 -0.53125 -0.46875zm1.96875 2.625l-8.828125 0q-0.515625 0 -0.515625 0.453125q0 0.46875 0.515625 0.46875l8.875 0q0.234375 0 0.390625 -0.15625q0.125 -0.125 0.125 -0.3125q0 -0.203125 -0.15625 -0.328125q-0.140625 -0.125 -0.40625 -0.125zm-4.34375 2.375q-2.078125 0 -3.28125 1.359375q-1.09375 1.25 -1.09375 3.046875q0 1.78125 1.09375 3.046875q1.203125 1.390625 3.28125 1.390625q2.03125 0 3.25 -1.390625q1.09375 -1.265625 1.09375 -3.046875q0 -1.78125 -1.09375 -3.046875q-1.21875 -1.359375 -3.25 -1.359375zm0 0.9375q1.53125 0 2.4375 1.078125q0.8125 0.96875 0.8125 2.390625q0 1.40625 -0.8125 2.375q-0.90625 1.09375 -2.4375 1.09375q-1.546875 0 -2.46875 -1.09375q-0.8125 -0.96875 -0.8125 -2.375q0 -1.421875 0.8125 -2.390625q0.921875 -1.078125 2.46875 -1.078125zm7.984375 1.015625l0 -6.78125q0 -0.25 -0.1875 -0.390625q-0.140625 -0.109375 -0.375 -0.109375q-0.21875 0 -0.359375 0.109375q-0.171875 0.140625 -0.171875 0.390625l0 14.46875q0 0.25 0.171875 0.390625q0.140625 0.15625 0.359375 0.15625q0.234375 0 0.375 -0.15625q0.1875 -0.140625 0.1875 -0.390625l0 -6.765625l2.0625 0q0.4375 0 0.4375 -0.46875q0 -0.453125 -0.4375 -0.453125l-2.0625 0zm9.09375 -2.1875l10.5 0q0.46875 0 0.4375 -0.484375q0 -0.453125 -0.46875 -0.453125l-10.421875 0q-0.40625 0 -0.5625 -0.171875q-0.171875 -0.171875 -0.171875 -0.5l0 -1.625q0 -0.328125 0.1875 -0.46875q0.1875 -0.15625 0.578125 -0.15625l10.234375 0q0.203125 0 0.3125 -0.15625q0.109375 -0.140625 0.109375 -0.328125q-0.015625 -0.203125 -0.140625 -0.328125q-0.125 -0.140625 -0.375 -0.140625l-10.328125 0q-0.78125 0 -1.25 0.40625q-0.4375 0.421875 -0.4375 1.09375l0 1.78125q0 0.703125 0.453125 1.109375q0.484375 0.421875 1.34375 0.421875zm11.71875 1.828125l-14.453125 0q-0.53125 0 -0.546875 0.4375q-0.046875 0.46875 0.453125 0.46875l6.765625 0l0 1.6875q0 0.265625 0.15625 0.40625q0.15625 0.125 0.375 0.125q0.203125 0 0.359375 -0.140625q0.171875 -0.171875 0.171875 -0.453125l0 -1.625l6.765625 0q0.453125 0 0.453125 -0.46875q-0.015625 -0.4375 -0.5 -0.4375zm-2.09375 2.96875l0 1.484375l-10.3125 0l0 -1.484375q0 -0.265625 -0.1875 -0.40625q-0.140625 -0.140625 -0.375 -0.140625q-0.234375 0 -0.390625 0.140625q-0.15625 0.140625 -0.15625 0.40625l0 4.0625q0 0.59375 0.34375 0.96875q0.390625 0.390625 1.03125 0.390625l9.703125 0q0.6875 0 1.09375 -0.390625q0.359375 -0.375 0.359375 -0.953125l0 -4.078125q0 -0.265625 -0.171875 -0.40625q-0.15625 -0.140625 -0.375 -0.140625q-0.25 0 -0.390625 0.140625q-0.171875 0.140625 -0.171875 0.40625zm0 2.4375l0 1.421875q0 0.34375 -0.140625 0.484375q-0.140625 0.125 -0.546875 0.125l-8.9375 0q-0.390625 0 -0.546875 -0.171875q-0.140625 -0.125 -0.140625 -0.4375l0 -1.421875l10.3125 0z" fill-rule="nonzero"/><path fill="#000000" d="m526.8308 158.15733l-8.421875 0q-0.515625 0 -0.515625 0.46875q-0.015625 0.484375 0.5 0.484375l3.671875 0l0 0.609375q0 1.953125 -1.28125 3.34375q-1.046875 1.140625 -3.03125 1.953125q-0.25 0.09375 -0.328125 0.296875q-0.046875 0.1875 0.046875 0.375q0.109375 0.203125 0.296875 0.28125q0.203125 0.09375 0.4375 0.015625q1.671875 -0.640625 2.84375 -1.71875q1.125 -1.078125 1.5625 -2.328125q0.3125 1.09375 1.59375 2.21875q1.1875 1.015625 2.703125 1.671875q0.265625 0.109375 0.5 0.03125q0.234375 -0.078125 0.34375 -0.28125q0.09375 -0.203125 0.03125 -0.40625q-0.078125 -0.203125 -0.3125 -0.296875q-1.859375 -0.75 -2.9375 -1.859375q-1.375 -1.40625 -1.375 -3.34375l0 -0.5625l3.671875 0q0.46875 0 0.46875 -0.484375q0 -0.46875 -0.46875 -0.46875zm3.953125 7.453125l0 -7.359375q0 -0.265625 -0.171875 -0.40625q-0.15625 -0.125 -0.375 -0.125q-0.25 0 -0.390625 0.140625q-0.171875 0.15625 -0.171875 0.40625l0 3.234375l-3.171875 0q-0.265625 0 -0.390625 0.125q-0.125 0.15625 -0.125 0.34375q0.015625 0.171875 0.171875 0.328125q0.15625 0.140625 0.4375 0.140625l3.078125 0l0 3.171875q0 0.265625 0.171875 0.4375q0.140625 0.140625 0.390625 0.140625q0.21875 0 0.375 -0.140625q0.171875 -0.171875 0.171875 -0.4375zm-1.78125 2.4375l-10.15625 0q-0.53125 0 -0.5 0.484375q0 0.484375 0.5 0.484375l10.0625 0q0.421875 0 0.59375 0.15625q0.171875 0.15625 0.171875 0.515625l0 3.0q0 0.265625 0.171875 0.421875q0.140625 0.140625 0.390625 0.140625q0.21875 0 0.375 -0.140625q0.171875 -0.15625 0.171875 -0.421875l0 -3.046875q0 -0.734375 -0.453125 -1.171875q-0.46875 -0.421875 -1.328125 -0.421875zm14.578125 -9.765625l-6.171875 0q-0.515625 0 -0.515625 0.46875q-0.015625 0.484375 0.5 0.484375l2.53125 0l0 3.265625q0 2.953125 -1.140625 5.359375q-0.875 1.890625 -2.21875 3.125q-0.25 0.203125 -0.265625 0.421875q-0.015625 0.21875 0.125 0.375q0.140625 0.140625 0.34375 0.15625q0.21875 0 0.421875 -0.140625q1.15625 -0.984375 2.046875 -2.578125q0.921875 -1.65625 1.234375 -3.359375q0.28125 1.671875 1.203125 3.359375q0.859375 1.5625 1.9375 2.578125q0.171875 0.140625 0.40625 0.125q0.203125 -0.015625 0.390625 -0.1875q0.171875 -0.140625 0.1875 -0.34375q0.015625 -0.25 -0.1875 -0.40625q-1.40625 -1.265625 -2.28125 -3.140625q-1.109375 -2.40625 -1.109375 -5.359375l0 -3.25l2.5625 0q0.421875 0 0.4375 -0.484375q0 -0.46875 -0.4375 -0.46875zm5.640625 -0.09375l0 6.90625l-2.640625 0l0 -6.90625q0 -0.46875 -0.5625 -0.46875q-0.53125 0 -0.53125 0.46875l0 14.5q0 0.265625 0.171875 0.421875q0.140625 0.140625 0.359375 0.140625q0.234375 0 0.375 -0.140625q0.1875 -0.15625 0.1875 -0.421875l0 -6.6875l2.640625 0l0 6.71875q0 0.25 0.15625 0.390625q0.15625 0.140625 0.375 0.140625q0.203125 0 0.359375 -0.15625q0.171875 -0.140625 0.171875 -0.390625l0 -14.515625q0 -0.46875 -0.53125 -0.46875q-0.53125 0 -0.53125 0.46875z" fill-rule="nonzero"/><path fill="#000000" d="m566.8266 158.28233l-5.5 0q-0.28125 0 -0.4375 0.140625q-0.125 0.140625 -0.125 0.328125q0 0.1875 0.125 0.328125q0.171875 0.15625 0.453125 0.15625l5.375 0q0.515625 0 0.75 0.21875q0.21875 0.21875 0.21875 0.65625l0 1.046875q0 2.15625 -1.703125 3.734375q-1.84375 1.703125 -5.03125 2.03125q-0.265625 0.015625 -0.390625 0.171875q-0.109375 0.15625 -0.09375 0.359375q0.015625 0.203125 0.171875 0.328125q0.15625 0.15625 0.4375 0.140625q3.421875 -0.3125 5.5625 -2.25q2.109375 -1.890625 2.109375 -4.46875l0 -1.296875q0 -0.765625 -0.46875 -1.171875q-0.484375 -0.453125 -1.453125 -0.453125zm-0.09375 3.359375q-1.34375 0.234375 -2.859375 0.375q-1.734375 0.1875 -3.078125 0.1875q-0.515625 0 -0.515625 0.46875q0 0.484375 0.515625 0.484375q1.390625 0 3.21875 -0.1875q1.59375 -0.171875 2.96875 -0.40625q0.234375 -0.0625 0.34375 -0.25q0.109375 -0.140625 0.078125 -0.328125q-0.0625 -0.1875 -0.21875 -0.28125q-0.1875 -0.109375 -0.453125 -0.0625zm7.234375 6.8125l0 -10.171875q0 -0.265625 -0.171875 -0.421875q-0.15625 -0.125 -0.375 -0.125q-0.25 0 -0.390625 0.125q-0.171875 0.15625 -0.171875 0.421875l0 4.234375l-3.4375 0q-0.25 0 -0.40625 0.125q-0.140625 0.15625 -0.125 0.34375q0 0.1875 0.171875 0.328125q0.15625 0.15625 0.453125 0.15625l3.34375 0l0 4.984375q0 0.28125 0.171875 0.453125q0.140625 0.140625 0.390625 0.140625q0.21875 0 0.375 -0.140625q0.171875 -0.171875 0.171875 -0.453125zm-10.8125 0.21875q0 -0.296875 -0.1875 -0.453125q-0.140625 -0.15625 -0.375 -0.15625q-0.234375 0 -0.375 0.15625q-0.171875 0.15625 -0.171875 0.453125l0 2.46875q0 0.828125 0.515625 1.25q0.484375 0.40625 1.3125 0.40625l10.1875 0q0.46875 0 0.46875 -0.484375q0 -0.46875 -0.46875 -0.46875l-10.0 0q-0.53125 0 -0.71875 -0.15625q-0.1875 -0.1875 -0.1875 -0.6875l0 -2.328125zm23.3125 -10.390625q0 2.359375 -1.9375 3.921875q-1.71875 1.390625 -4.0625 1.578125q-0.296875 0.015625 -0.421875 0.1875q-0.140625 0.15625 -0.109375 0.375q0.03125 0.203125 0.203125 0.328125q0.1875 0.140625 0.453125 0.109375q2.3125 -0.3125 4.125 -1.546875q1.71875 -1.15625 2.28125 -2.640625q0.578125 1.453125 2.296875 2.640625q1.796875 1.234375 4.0 1.546875q0.3125 0.03125 0.53125 -0.109375q0.1875 -0.125 0.21875 -0.328125q0.0625 -0.234375 -0.0625 -0.390625q-0.15625 -0.1875 -0.4375 -0.203125q-2.375 -0.25 -4.0625 -1.578125q-1.953125 -1.546875 -1.953125 -3.859375q0 -0.296875 -0.171875 -0.46875q-0.15625 -0.15625 -0.359375 -0.15625q-0.21875 0 -0.375 0.15625q-0.15625 0.171875 -0.15625 0.4375zm7.78125 8.65625l-14.453125 0q-0.53125 0 -0.546875 0.453125q-0.046875 0.484375 0.453125 0.484375l3.5 0l0 1.453125q0 0.8125 -0.296875 1.546875q-0.28125 0.65625 -0.828125 1.203125q-0.1875 0.15625 -0.140625 0.40625q0.015625 0.203125 0.203125 0.375q0.171875 0.140625 0.390625 0.15625q0.21875 0.03125 0.40625 -0.140625q0.609375 -0.640625 0.984375 -1.5625q0.390625 -0.96875 0.390625 -1.96875l0 -1.46875l5.921875 0l0 4.8125q0 0.265625 0.15625 0.421875q0.15625 0.140625 0.375 0.140625q0.21875 0 0.375 -0.15625q0.1875 -0.171875 0.1875 -0.421875l0 -4.796875l2.96875 0q0.453125 0 0.453125 -0.484375q-0.015625 -0.453125 -0.5 -0.453125zm11.546875 -6.9375l0 9.984375q0 0.421875 -0.203125 0.59375q-0.1875 0.140625 -0.65625 0.140625l-3.953125 0q-0.453125 0 -0.625 -0.171875q-0.1875 -0.15625 -0.1875 -0.59375l0 -9.84375q0 -0.4375 0.171875 -0.65625q0.1875 -0.21875 0.609375 -0.21875l3.953125 0q0.484375 0 0.6875 0.1875q0.203125 0.1875 0.203125 0.578125zm-0.8125 -1.71875l-4.171875 0q-0.828125 0 -1.28125 0.5q-0.453125 0.484375 -0.453125 1.25l0 10.015625q0 0.796875 0.40625 1.1875q0.4375 0.4375 1.375 0.4375l4.25 0q0.875 0 1.3125 -0.421875q0.453125 -0.40625 0.453125 -1.21875l0 -10.125q0 -0.765625 -0.546875 -1.203125q-0.5 -0.421875 -1.34375 -0.421875zm6.984375 14.3125l0 -14.3125q0 -0.265625 -0.171875 -0.421875q-0.15625 -0.125 -0.375 -0.125q-0.25 0 -0.390625 0.125q-0.171875 0.15625 -0.171875 0.421875l0 6.078125l-3.171875 0q-0.265625 0 -0.390625 0.125q-0.125 0.15625 -0.125 0.328125q0.015625 0.1875 0.171875 0.34375q0.15625 0.140625 0.4375 0.140625l3.078125 0l0 7.296875q0 0.3125 0.171875 0.5q0.140625 0.171875 0.390625 0.171875q0.21875 0 0.375 -0.171875q0.171875 -0.203125 0.171875 -0.5z" fill-rule="nonzero"/><path fill="#000000" d="m634.35364 158.21983l-10.171875 0q-0.5 0 -0.5 0.484375q0 0.46875 0.5 0.46875l10.03125 0q0.515625 0 0.8125 0.234375q0.3125 0.234375 0.3125 0.703125l0 5.203125q0 1.515625 -0.40625 3.203125q-0.421875 1.78125 -1.125 3.015625l1.1875 0q0.625 -1.21875 1.03125 -2.984375q0.421875 -1.765625 0.421875 -3.203125l0 -5.296875q0 -0.875 -0.5625 -1.375q-0.578125 -0.453125 -1.53125 -0.453125zm3.03125 12.796875l-14.40625 0q-0.53125 0 -0.546875 0.46875q-0.046875 0.484375 0.453125 0.484375l14.515625 0q0.234375 0 0.390625 -0.15625q0.140625 -0.140625 0.140625 -0.328125q0 -0.1875 -0.140625 -0.34375q-0.15625 -0.125 -0.40625 -0.125zm16.46875 -13.078125l-10.375 0q-0.546875 0 -0.5625 0.46875q0 0.46875 0.546875 0.46875l10.078125 0q0.40625 0 0.59375 0.125q0.203125 0.125 0.203125 0.40625l0 0.4375q0 0.21875 -0.21875 0.359375q-0.21875 0.140625 -0.609375 0.140625l-9.09375 0q-0.703125 0 -1.109375 0.3125q-0.390625 0.34375 -0.390625 0.9375l0 0.84375q0 0.625 0.359375 0.9375q0.375 0.3125 1.140625 0.3125l10.71875 0q0.25 0 0.375 -0.15625q0.125 -0.140625 0.125 -0.328125q0 -0.1875 -0.140625 -0.328125q-0.15625 -0.140625 -0.40625 -0.140625l-10.390625 0q-0.390625 0 -0.546875 -0.140625q-0.125 -0.109375 -0.125 -0.328125l0 -0.515625q0 -0.21875 0.125 -0.328125q0.171875 -0.125 0.59375 -0.125l9.25 0q0.703125 0 1.046875 -0.28125q0.40625 -0.296875 0.40625 -0.921875l0 -1.03125q0 -0.53125 -0.4375 -0.84375q-0.40625 -0.28125 -1.15625 -0.28125zm2.578125 7.0l-14.453125 0q-0.546875 0 -0.546875 0.4375q0 0.46875 0.53125 0.46875l6.6875 0l0 1.53125q0 0.265625 0.15625 0.4375q0.15625 0.125 0.375 0.125q0.203125 0 0.359375 -0.15625q0.171875 -0.15625 0.171875 -0.4375l0 -1.5l6.765625 0q0.453125 0 0.453125 -0.46875q-0.015625 -0.4375 -0.5 -0.4375zm-2.09375 2.6875l0 1.484375l-10.3125 0l0 -1.484375q0 -0.265625 -0.1875 -0.40625q-0.140625 -0.140625 -0.375 -0.140625q-0.234375 0 -0.390625 0.140625q-0.15625 0.140625 -0.15625 0.40625l0 4.0625q0 0.59375 0.34375 0.96875q0.390625 0.390625 1.03125 0.390625l9.703125 0q0.6875 0 1.09375 -0.390625q0.359375 -0.375 0.359375 -0.953125l0 -4.078125q0 -0.265625 -0.171875 -0.40625q-0.15625 -0.140625 -0.375 -0.140625q-0.25 0 -0.390625 0.140625q-0.171875 0.140625 -0.171875 0.40625zm0 2.4375l0 1.421875q0 0.34375 -0.140625 0.484375q-0.140625 0.125 -0.546875 0.125l-8.9375 0q-0.390625 0 -0.546875 -0.171875q-0.140625 -0.125 -0.140625 -0.4375l0 -1.421875l10.3125 0z" fill-rule="nonzero"/><g filter="url(#shadowFilter-p.8)"><use xlink:href="#p.8" transform="matrix(1.0 0.0 0.0 1.0 0.0 2.0)"/></g><defs><filter id="shadowFilter-p.8" filterUnits="userSpaceOnUse"><feGaussianBlur in="SourceAlpha" stdDeviation="2.0" result="blur"/><feComponentTransfer in="blur" color-interpolation-filters="sRGB"><feFuncR type="linear" slope="0" intercept="0.0"/><feFuncG type="linear" slope="0" intercept="0.0"/><feFuncB type="linear" slope="0" intercept="0.0"/><feFuncA type="linear" slope="0.5" intercept="0"/></feComponentTransfer></filter></defs><g id="p.8"><path fill="#eeeeee" d="m508.39108 188.63124l114.04721 0l0 35.212585l-114.04721 0z" fill-rule="evenodd"/><path stroke="#595959" stroke-width="1.0" stroke-linejoin="round" stroke-linecap="butt" d="m508.39108 188.63124l114.04721 0l0 35.212585l-114.04721 0z" fill-rule="evenodd"/><path fill="#000000" d="m530.01575 199.11066l0 1.046875l6.796875 0q-0.0625 0.609375 -0.203125 1.109375q-0.15625 0.484375 -0.5 1.140625q-1.765625 0.234375 -3.78125 0.375q-1.859375 0.15625 -3.109375 0.15625l0.453125 1.09375q0.125 0.25 0.21875 0.296875q0.078125 0.015625 0.28125 -0.09375q0.140625 -0.09375 0.234375 -0.140625q0.1875 -0.078125 0.390625 -0.109375l4.75 -0.546875q-0.734375 1.4375 -2.484375 2.8125q-1.78125 1.40625 -4.046875 2.28125l1.0 0.90625q3.296875 -1.453125 5.328125 -3.78125q2.359375 -2.703125 2.984375 -6.546875l-8.3125 0zm13.140625 -1.078125l-0.875 0l0 5.109375l-4.1875 0l0 1.03125l4.1875 0l0 6.109375l1.25 0l0 -11.5625q0 -0.109375 0.03125 -0.21875q0.046875 -0.0625 0.09375 -0.171875q0.109375 -0.1875 0.0625 -0.21875q-0.078125 -0.078125 -0.5625 -0.078125zm-10.140625 10.96875l-0.921875 0l0 5.234375l11.828125 0l0 -1.015625l-10.59375 0l0 -3.65625q0 -0.078125 0.015625 -0.15625q0.015625 -0.046875 0.0625 -0.125q0.078125 -0.171875 0.046875 -0.203125q-0.078125 -0.078125 -0.4375 -0.078125zm17.515625 -3.859375q2.140625 -0.78125 3.90625 -2.25q1.671875 -1.375 2.234375 -2.671875q0.75 1.359375 2.21875 2.515625q1.671875 1.28125 3.984375 2.078125l0.578125 -1.125q-1.328125 -0.234375 -2.5625 -0.890625q-1.03125 -0.546875 -1.90625 -1.375q-0.765625 -0.671875 -1.203125 -1.359375q-0.40625 -0.640625 -0.375 -0.9375q0 -0.15625 0.078125 -0.328125q0.03125 -0.109375 0.140625 -0.296875q0.15625 -0.265625 0.140625 -0.359375q-0.015625 -0.109375 -0.390625 -0.109375l-1.15625 0q-0.09375 1.828125 -1.796875 3.515625q-1.765625 1.734375 -4.46875 2.53125l0.578125 1.0625zm14.0 1.765625l-15.65625 0l0 1.015625l3.6875 0l0 6.140625l1.203125 0l0 -6.140625l5.875 0l0 6.734375l1.203125 0l0 -6.734375l3.6875 0l0 -1.015625zm9.921875 -6.140625l0 8.109375l-5.21875 0l0 -8.109375l5.21875 0zm-6.46875 -1.046875l0 11.0l1.25 0l0 -0.8125l5.21875 0l0 0.5l1.25 0l0 -10.6875l-7.71875 0zm7.71875 4.921875l0 1.03125l4.578125 0l0 8.984375l1.25 0l0 -15.96875q0 -0.078125 0.015625 -0.171875q0.015625 -0.0625 0.078125 -0.140625q0.09375 -0.1875 0.046875 -0.25q-0.03125 -0.09375 -0.359375 -0.09375l-1.03125 0l0 6.609375l-4.578125 0zm17.033203 1.6875q0 3.34375 1.109375 5.109375q1.140625 1.734375 3.25 1.734375q2.09375 0 3.21875 -1.734375q1.140625 -1.765625 1.140625 -5.09375q0 -3.34375 -1.140625 -5.09375q-1.125 -1.75 -3.21875 -1.75q-2.109375 0 -3.25 1.71875q-1.109375 1.765625 -1.109375 5.109375zm1.296875 0q0 -2.90625 0.75 -4.3125q0.734375 -1.390625 2.3125 -1.390625q1.546875 0 2.296875 1.390625q0.765625 1.40625 0.765625 4.3125q0 2.890625 -0.765625 4.296875q-0.75 1.421875 -2.296875 1.421875q-1.578125 0 -2.3125 -1.421875q-0.75 -1.40625 -0.75 -4.296875z" fill-rule="nonzero"/></g><g filter="url(#shadowFilter-p.9)"><use xlink:href="#p.9" transform="matrix(1.0 0.0 0.0 1.0 0.0 2.0)"/></g><defs><filter id="shadowFilter-p.9" filterUnits="userSpaceOnUse"><feGaussianBlur in="SourceAlpha" stdDeviation="2.0" result="blur"/><feComponentTransfer in="blur" color-interpolation-filters="sRGB"><feFuncR type="linear" slope="0" intercept="0.0"/><feFuncG type="linear" slope="0" intercept="0.0"/><feFuncB type="linear" slope="0" intercept="0.0"/><feFuncA type="linear" slope="0.5" intercept="0"/></feComponentTransfer></filter></defs><g id="p.9"><path fill="#eeeeee" d="m508.39108 242.78871l114.04721 0l0 35.2126l-114.04721 0z" fill-rule="evenodd"/><path stroke="#595959" stroke-width="1.0" stroke-linejoin="round" stroke-linecap="butt" d="m508.39108 242.78871l114.04721 0l0 35.2126l-114.04721 0z" fill-rule="evenodd"/><path fill="#000000" d="m530.01575 253.26814l0 1.046875l6.796875 0q-0.0625 0.609375 -0.203125 1.109375q-0.15625 0.484375 -0.5 1.1406097q-1.765625 0.234375 -3.78125 0.375q-1.859375 0.15625 -3.109375 0.15625l0.453125 1.09375q0.125 0.25 0.21875 0.296875q0.078125 0.015625 0.28125 -0.09375q0.140625 -0.09375 0.234375 -0.140625q0.1875 -0.078125 0.390625 -0.109375l4.75 -0.546875q-0.734375 1.4375 -2.484375 2.8125q-1.78125 1.40625 -4.046875 2.28125l1.0 0.90625q3.296875 -1.453125 5.328125 -3.78125q2.359375 -2.703125 2.984375 -6.5468597l-8.3125 0zm13.140625 -1.078125l-0.875 0l0 5.1093597l-4.1875 0l0 1.03125l4.1875 0l0 6.109375l1.25 0l0 -11.562485q0 -0.109375 0.03125 -0.21875q0.046875 -0.0625 0.09375 -0.171875q0.109375 -0.1875 0.0625 -0.21875q-0.078125 -0.078125 -0.5625 -0.078125zm-10.140625 10.968735l-0.921875 0l0 5.234375l11.828125 0l0 -1.015625l-10.59375 0l0 -3.65625q0 -0.078125 0.015625 -0.15625q0.015625 -0.046875 0.0625 -0.125q0.078125 -0.171875 0.046875 -0.203125q-0.078125 -0.078125 -0.4375 -0.078125zm17.515625 -3.859375q2.140625 -0.78125 3.90625 -2.25q1.671875 -1.3749847 2.234375 -2.6718597q0.75 1.359375 2.21875 2.5156097q1.671875 1.28125 3.984375 2.078125l0.578125 -1.125q-1.328125 -0.234375 -2.5625 -0.890625q-1.03125 -0.546875 -1.90625 -1.3749847q-0.765625 -0.671875 -1.203125 -1.359375q-0.40625 -0.640625 -0.375 -0.9375q0 -0.15625 0.078125 -0.328125q0.03125 -0.109375 0.140625 -0.296875q0.15625 -0.265625 0.140625 -0.359375q-0.015625 -0.109375 -0.390625 -0.109375l-1.15625 0q-0.09375 1.828125 -1.796875 3.515625q-1.765625 1.7343597 -4.46875 2.5312347l0.578125 1.0625zm14.0 1.765625l-15.65625 0l0 1.015625l3.6875 0l0 6.140625l1.203125 0l0 -6.140625l5.875 0l0 6.734375l1.203125 0l0 -6.734375l3.6875 0l0 -1.015625zm9.921875 -6.1406097l0 8.10936l-5.21875 0l0 -8.10936l5.21875 0zm-6.46875 -1.046875l0 10.999985l1.25 0l0 -0.8125l5.21875 0l0 0.5l1.25 0l0 -10.687485l-7.71875 0zm7.71875 4.9218597l0 1.03125l4.578125 0l0 8.984375l1.25 0l0 -15.968735q0 -0.078125 0.015625 -0.171875q0.015625 -0.0625 0.078125 -0.140625q0.09375 -0.1875 0.046875 -0.25q-0.03125 -0.09375 -0.359375 -0.09375l-1.03125 0l0 6.6093597l-4.578125 0zm20.923828 8.140625l1.25 0l0 -13.281235l-1.09375 0q-0.09375 1.375 -0.90625 2.0q-0.828125 0.64060974 -2.453125 0.64060974l-0.09375 0l0 0.8125l0.203125 0q1.109375 0 1.875 -0.1875q0.765625 -0.1875 1.21875 -0.5625l0 10.578125z" fill-rule="nonzero"/></g><g filter="url(#shadowFilter-p.10)"><use xlink:href="#p.10" transform="matrix(1.0 0.0 0.0 1.0 0.0 2.0)"/></g><defs><filter id="shadowFilter-p.10" filterUnits="userSpaceOnUse"><feGaussianBlur in="SourceAlpha" stdDeviation="2.0" result="blur"/><feComponentTransfer in="blur" color-interpolation-filters="sRGB"><feFuncR type="linear" slope="0" intercept="0.0"/><feFuncG type="linear" slope="0" intercept="0.0"/><feFuncB type="linear" slope="0" intercept="0.0"/><feFuncA type="linear" slope="0.5" intercept="0"/></feComponentTransfer></filter></defs><g id="p.10"><path fill="#eeeeee" d="m508.39108 296.9462l114.04721 0l0 35.212585l-114.04721 0z" fill-rule="evenodd"/><path stroke="#595959" stroke-width="1.0" stroke-linejoin="round" stroke-linecap="butt" d="m508.39108 296.9462l114.04721 0l0 35.212585l-114.04721 0z" fill-rule="evenodd"/><path fill="#000000" d="m530.01575 307.42563l0 1.046875l6.796875 0q-0.0625 0.609375 -0.203125 1.109375q-0.15625 0.484375 -0.5 1.140625q-1.765625 0.234375 -3.78125 0.375q-1.859375 0.15625 -3.109375 0.15625l0.453125 1.09375q0.125 0.25 0.21875 0.296875q0.078125 0.015625 0.28125 -0.09375q0.140625 -0.09375 0.234375 -0.140625q0.1875 -0.078125 0.390625 -0.109375l4.75 -0.546875q-0.734375 1.4375 -2.484375 2.8125q-1.78125 1.40625 -4.046875 2.28125l1.0 0.90625q3.296875 -1.453125 5.328125 -3.78125q2.359375 -2.703125 2.984375 -6.546875l-8.3125 0zm13.140625 -1.078125l-0.875 0l0 5.109375l-4.1875 0l0 1.03125l4.1875 0l0 6.109375l1.25 0l0 -11.5625q0 -0.109375 0.03125 -0.21875q0.046875 -0.0625 0.09375 -0.171875q0.109375 -0.1875 0.0625 -0.21875q-0.078125 -0.078125 -0.5625 -0.078125zm-10.140625 10.96875l-0.921875 0l0 5.234375l11.828125 0l0 -1.015625l-10.59375 0l0 -3.65625q0 -0.078125 0.015625 -0.15625q0.015625 -0.046875 0.0625 -0.125q0.078125 -0.171875 0.046875 -0.203125q-0.078125 -0.078125 -0.4375 -0.078125zm17.515625 -3.859375q2.140625 -0.78125 3.90625 -2.25q1.671875 -1.375 2.234375 -2.671875q0.75 1.359375 2.21875 2.515625q1.671875 1.28125 3.984375 2.078125l0.578125 -1.125q-1.328125 -0.234375 -2.5625 -0.890625q-1.03125 -0.546875 -1.90625 -1.375q-0.765625 -0.671875 -1.203125 -1.359375q-0.40625 -0.640625 -0.375 -0.9375q0 -0.15625 0.078125 -0.328125q0.03125 -0.109375 0.140625 -0.296875q0.15625 -0.265625 0.140625 -0.359375q-0.015625 -0.109375 -0.390625 -0.109375l-1.15625 0q-0.09375 1.828125 -1.796875 3.515625q-1.765625 1.734375 -4.46875 2.53125l0.578125 1.0625zm14.0 1.765625l-15.65625 0l0 1.015625l3.6875 0l0 6.140625l1.203125 0l0 -6.140625l5.875 0l0 6.734375l1.203125 0l0 -6.734375l3.6875 0l0 -1.015625zm9.921875 -6.140625l0 8.109375l-5.21875 0l0 -8.109375l5.21875 0zm-6.46875 -1.046875l0 11.0l1.25 0l0 -0.8125l5.21875 0l0 0.5l1.25 0l0 -10.6875l-7.71875 0zm7.71875 4.921875l0 1.03125l4.578125 0l0 8.984375l1.25 0l0 -15.96875q0 -0.078125 0.015625 -0.171875q0.015625 -0.0625 0.078125 -0.140625q0.09375 -0.1875 0.046875 -0.25q-0.03125 -0.09375 -0.359375 -0.09375l-1.03125 0l0 6.609375l-4.578125 0zm16.970703 8.140625l8.578125 0l0 -1.046875l-7.328125 0q0.078125 -0.984375 0.78125 -1.78125q0.671875 -0.765625 2.078125 -1.5625l0.921875 -0.546875q1.03125 -0.5625 1.4375 -0.84375q0.71875 -0.484375 1.125 -0.9375q0.546875 -0.59375 0.796875 -1.234375q0.265625 -0.65625 0.265625 -1.46875q0 -1.78125 -1.09375 -2.828125q-1.078125 -1.03125 -2.921875 -1.03125q-2.015625 0 -3.15625 1.15625q-1.109375 1.125 -1.15625 3.265625l1.25 0q0 -1.625 0.78125 -2.453125q0.765625 -0.84375 2.234375 -0.84375q1.3125 0 2.0625 0.71875q0.75 0.71875 0.75 2.03125q0 0.640625 -0.203125 1.109375q-0.1875 0.46875 -0.609375 0.96875q-0.3125 0.3125 -0.875 0.6875q-0.328125 0.21875 -1.140625 0.703125l-1.328125 0.796875q-1.6875 1.046875 -2.4375 2.125q-0.8125 1.140625 -0.8125 2.625l0 0.390625z" fill-rule="nonzero"/></g><path fill="#b7b7b7" d="m734.2808 47.481674l0 0c0 -7.9643593 34.436462 -14.42075 76.916016 -14.42075c42.479553 0 76.916016 6.4563904 76.916016 14.42075l0 57.68299c0 7.9643555 -34.436462 14.420746 -76.916016 14.420746c-42.479553 0 -76.916016 -6.4563904 -76.916016 -14.420746z" fill-rule="evenodd"/><path fill="#000000" fill-opacity="0.0" d="m888.11285 47.481674l0 0c0 7.9643593 -34.436462 14.420746 -76.916016 14.420746c-42.479553 0 -76.916016 -6.4563866 -76.916016 -14.420746" fill-rule="evenodd"/><path fill="#000000" fill-opacity="0.0" d="m734.2808 47.481674l0 0c0 -7.9643593 34.436462 -14.42075 76.916016 -14.42075c42.479553 0 76.916016 6.4563904 76.916016 14.42075l0 57.68299c0 7.9643555 -34.436462 14.420746 -76.916016 14.420746c-42.479553 0 -76.916016 -6.4563904 -76.916016 -14.420746z" fill-rule="evenodd"/><path stroke="#595959" stroke-width="1.0" stroke-linejoin="round" stroke-linecap="butt" d="m888.11285 47.481674l0 0c0 7.9643593 -34.436462 14.420746 -76.916016 14.420746c-42.479553 0 -76.916016 -6.4563866 -76.916016 -14.420746" fill-rule="evenodd"/><path stroke="#595959" stroke-width="1.0" stroke-linejoin="round" stroke-linecap="butt" d="m734.2808 47.481674l0 0c0 -7.9643593 34.436462 -14.42075 76.916016 -14.42075c42.479553 0 76.916016 6.4563904 76.916016 14.42075l0 57.68299c0 7.9643555 -34.436462 14.420746 -76.916016 14.420746c-42.479553 0 -76.916016 -6.4563904 -76.916016 -14.420746z" fill-rule="evenodd"/><path fill="#000000" d="m759.96246 76.203545q-1.609375 0 -2.5625 1.125q-0.84375 1.046875 -0.84375 2.546875q0 1.46875 0.84375 2.484375q0.953125 1.15625 2.5625 1.15625q1.625 0 2.5625 -1.15625q0.875 -1.015625 0.875 -2.484375q0 -1.5 -0.875 -2.546875q-0.9375 -1.125 -2.5625 -1.125zm0 0.96875q1.09375 0 1.75 0.828125q0.578125 0.765625 0.578125 1.875q0 1.078125 -0.578125 1.84375q-0.65625 0.84375 -1.75 0.84375q-1.09375 0 -1.734375 -0.84375q-0.5625 -0.765625 -0.5625 -1.84375q0 -1.109375 0.5625 -1.875q0.640625 -0.828125 1.734375 -0.828125zm5.59375 -0.765625l0 2.9375l-2.234375 0q-0.515625 0 -0.515625 0.484375q-0.015625 0.46875 0.5 0.46875l2.25 0l0 3.109375q0 0.25 0.15625 0.421875q0.15625 0.125 0.390625 0.125q0.234375 0 0.375 -0.125q0.1875 -0.171875 0.1875 -0.421875l0 -7.03125q0 -0.25 -0.1875 -0.375q-0.140625 -0.125 -0.375 -0.109375q-0.234375 0 -0.390625 0.125q-0.15625 0.125 -0.15625 0.390625zm4.609375 7.0l0 -7.03125q0 -0.25 -0.171875 -0.375q-0.15625 -0.125 -0.359375 -0.125q-0.21875 0 -0.375 0.125q-0.15625 0.140625 -0.15625 0.390625l0 7.015625q0 0.25 0.15625 0.421875q0.15625 0.125 0.375 0.125q0.203125 0 0.359375 -0.125q0.171875 -0.171875 0.171875 -0.421875zm-1.640625 1.546875l-10.359375 0q-0.546875 0 -0.578125 0.46875q0 0.484375 0.5625 0.484375l10.203125 0q0.390625 0 0.5625 0.125q0.1875 0.140625 0.1875 0.46875l0 0.5q0 0.265625 -0.203125 0.375q-0.1875 0.109375 -0.53125 0.109375l-9.21875 0q-0.71875 0 -1.109375 0.359375q-0.375 0.328125 -0.375 0.890625l0 1.109375q0 0.640625 0.359375 1.0q0.34375 0.359375 0.984375 0.359375l11.15625 0q0.25 0 0.390625 -0.15625q0.140625 -0.140625 0.140625 -0.328125q-0.015625 -0.1875 -0.15625 -0.34375q-0.15625 -0.125 -0.421875 -0.125l-10.71875 0q-0.328125 0 -0.46875 -0.109375q-0.171875 -0.140625 -0.171875 -0.390625l0 -0.703125q0 -0.296875 0.125 -0.453125q0.171875 -0.15625 0.53125 -0.15625l9.3125 0q0.640625 0 1.03125 -0.34375q0.40625 -0.34375 0.40625 -0.9375l0 -0.84375q0 -0.671875 -0.4375 -1.015625q-0.421875 -0.34375 -1.203125 -0.34375zm13.0625 -8.53125l-5.3125 0q-0.59375 0 -0.59375 0.46875q-0.015625 0.46875 0.5625 0.46875l4.984375 0q0.5625 0 0.8125 0.15625q0.265625 0.1875 0.265625 0.5625l0 3.171875q0 0.40625 -0.1875 0.53125q-0.15625 0.15625 -0.625 0.15625l-3.984375 0q-0.828125 0 -1.28125 0.484375q-0.453125 0.453125 -0.453125 1.21875l0 4.375q0 0.84375 0.421875 1.328125q0.46875 0.515625 1.390625 0.515625q2.234375 0 4.28125 -0.328125q2.296875 -0.359375 3.828125 -1.046875q0.46875 -0.234375 0.265625 -0.703125q-0.1875 -0.46875 -0.671875 -0.203125q-1.34375 0.609375 -3.28125 0.96875q-2.0 0.359375 -4.140625 0.359375q-0.546875 0 -0.78125 -0.234375q-0.21875 -0.203125 -0.21875 -0.71875l0 -4.15625q0 -0.484375 0.171875 -0.6875q0.1875 -0.203125 0.640625 -0.203125l3.953125 0q0.875 0 1.296875 -0.390625q0.4375 -0.375 0.4375 -1.078125l0 -3.609375q0 -0.671875 -0.484375 -1.046875q-0.484375 -0.359375 -1.296875 -0.359375zm6.546875 6.75l0 -6.78125q0 -0.25 -0.1875 -0.390625q-0.140625 -0.109375 -0.375 -0.109375q-0.21875 0 -0.359375 0.109375q-0.171875 0.140625 -0.171875 0.390625l0 14.46875q0 0.25 0.171875 0.390625q0.140625 0.15625 0.359375 0.15625q0.234375 0 0.375 -0.15625q0.1875 -0.140625 0.1875 -0.390625l0 -6.765625l2.0625 0q0.4375 0 0.4375 -0.46875q0 -0.453125 -0.4375 -0.453125l-2.0625 0zm13.03125 -6.5q0 2.875 -1.984375 4.90625q-1.71875 1.765625 -4.015625 2.234375q-0.296875 0.046875 -0.421875 0.234375q-0.140625 0.15625 -0.109375 0.359375q0.03125 0.1875 0.203125 0.296875q0.1875 0.109375 0.453125 0.078125q2.25 -0.453125 4.09375 -2.140625q1.75 -1.578125 2.3125 -3.453125q0.59375 1.859375 2.3125 3.453125q1.828125 1.671875 3.984375 2.109375q0.3125 0.0625 0.53125 -0.046875q0.1875 -0.109375 0.21875 -0.3125q0.0625 -0.203125 -0.0625 -0.375q-0.15625 -0.1875 -0.4375 -0.25q-2.421875 -0.5 -4.09375 -2.21875q-1.921875 -1.984375 -1.921875 -4.84375q0 -0.296875 -0.171875 -0.484375q-0.15625 -0.140625 -0.359375 -0.140625q-0.21875 0 -0.375 0.140625q-0.15625 0.171875 -0.15625 0.453125zm7.734375 12.5l-14.40625 0q-0.546875 0 -0.546875 0.46875q0 0.484375 0.546875 0.484375l14.421875 0q0.234375 0 0.390625 -0.15625q0.140625 -0.140625 0.140625 -0.328125q0 -0.1875 -0.140625 -0.34375q-0.15625 -0.125 -0.40625 -0.125zm12.8125 -12.875l-6.1875 0q-0.828125 0 -1.296875 0.46875q-0.453125 0.4375 -0.453125 1.109375l0 4.484375q0 0.9375 0.46875 1.375q0.5 0.46875 1.53125 0.46875q2.25 0 4.3125 -0.21875q2.171875 -0.234375 3.671875 -0.625q0.21875 -0.09375 0.3125 -0.265625q0.09375 -0.1875 0.015625 -0.375q-0.046875 -0.1875 -0.234375 -0.265625q-0.203125 -0.09375 -0.46875 0q-1.34375 0.40625 -3.453125 0.640625q-1.921875 0.203125 -4.265625 0.203125q-0.453125 0 -0.640625 -0.203125q-0.15625 -0.1875 -0.15625 -0.640625l0 -1.96875l6.53125 0q0.5625 0 0.5625 -0.484375q0 -0.453125 -0.5625 -0.453125l-6.53125 0l0 -1.453125q0 -0.40625 0.171875 -0.625q0.203125 -0.234375 0.609375 -0.234375l6.109375 0q0.25 0 0.421875 -0.140625q0.15625 -0.15625 0.15625 -0.328125q0 -0.1875 -0.171875 -0.34375q-0.171875 -0.125 -0.453125 -0.125zm4.953125 7.46875l0 -7.390625q0 -0.25 -0.171875 -0.375q-0.15625 -0.125 -0.375 -0.125q-0.25 0 -0.390625 0.125q-0.171875 0.140625 -0.171875 0.390625l0 7.375q0 0.265625 0.171875 0.4375q0.140625 0.140625 0.390625 0.140625q0.21875 0 0.375 -0.140625q0.171875 -0.171875 0.171875 -0.4375zm-1.78125 2.4375l-10.15625 0q-0.53125 0 -0.5 0.484375q0 0.484375 0.5 0.484375l10.0625 0q0.421875 0 0.59375 0.15625q0.171875 0.15625 0.171875 0.515625l0 3.0q0 0.265625 0.171875 0.421875q0.140625 0.140625 0.390625 0.140625q0.21875 0 0.375 -0.140625q0.171875 -0.15625 0.171875 -0.421875l0 -3.046875q0 -0.734375 -0.453125 -1.171875q-0.46875 -0.421875 -1.328125 -0.421875zm11.734375 -9.375q0 2.921875 -1.15625 6.28125q-1.203125 3.5 -3.125 5.921875q-0.203125 0.21875 -0.203125 0.453125q0.015625 0.203125 0.15625 0.34375q0.15625 0.125 0.359375 0.125q0.21875 -0.015625 0.390625 -0.203125q1.296875 -1.734375 2.265625 -3.609375q0.734375 -1.5 1.25 -3.03125q1.125 1.390625 2.3125 3.21875q1.125 1.765625 1.84375 3.21875q0.109375 0.234375 0.359375 0.3125q0.21875 0.0625 0.421875 -0.03125q0.21875 -0.125 0.28125 -0.34375q0.09375 -0.234375 -0.0625 -0.5q-0.890625 -1.625 -2.140625 -3.453125q-1.1875 -1.734375 -2.65625 -3.546875q0.375 -1.421875 0.578125 -2.734375q0.21875 -1.359375 0.21875 -2.421875q0 -0.25 -0.1875 -0.40625q-0.140625 -0.140625 -0.375 -0.140625q-0.21875 0 -0.359375 0.140625q-0.171875 0.15625 -0.171875 0.40625zm9.046875 13.984375l0 -14.375q0 -0.265625 -0.171875 -0.421875q-0.15625 -0.125 -0.375 -0.125q-0.25 0 -0.390625 0.125q-0.171875 0.15625 -0.171875 0.421875l0 5.984375l-4.96875 0q-0.28125 0 -0.453125 0.125q-0.140625 0.125 -0.140625 0.328125q0 0.1875 0.171875 0.328125q0.15625 0.140625 0.453125 0.140625l4.9375 0l0 7.46875q0 0.265625 0.171875 0.4375q0.140625 0.171875 0.390625 0.171875q0.21875 0 0.375 -0.171875q0.171875 -0.171875 0.171875 -0.4375zm13.203125 -14.484375l-4.75 0q-0.546875 0 -0.546875 0.46875q0 0.484375 0.546875 0.484375l4.8125 0q0.453125 0 0.4375 -0.484375q-0.015625 -0.46875 -0.5 -0.46875zm1.84375 2.640625l-8.421875 0q-0.515625 0 -0.515625 0.46875q-0.015625 0.46875 0.5 0.46875l3.671875 0l0 1.953125q0 2.5 -1.3125 4.5q-1.171875 1.75 -3.046875 2.703125q-0.234375 0.109375 -0.296875 0.3125q-0.046875 0.203125 0.0625 0.390625q0.109375 0.1875 0.296875 0.265625q0.21875 0.0625 0.4375 -0.046875q1.5625 -0.78125 2.78125 -2.1875q1.171875 -1.390625 1.625 -2.890625q0.40625 1.53125 1.46875 2.8125q1.125 1.375 2.84375 2.265625q0.28125 0.140625 0.53125 0.0625q0.21875 -0.078125 0.3125 -0.28125q0.109375 -0.203125 0.046875 -0.40625q-0.0625 -0.21875 -0.3125 -0.3125q-1.859375 -0.796875 -3.046875 -2.640625q-1.296875 -2.015625 -1.296875 -4.546875l0 -1.953125l3.671875 0q0.46875 0 0.46875 -0.46875q0 -0.46875 -0.46875 -0.46875zm3.953125 11.859375l0 -14.4375q0 -0.25 -0.171875 -0.390625q-0.15625 -0.109375 -0.375 -0.109375q-0.25 0 -0.390625 0.109375q-0.171875 0.140625 -0.171875 0.390625l0 14.4375q0 0.25 0.171875 0.421875q0.140625 0.15625 0.390625 0.15625q0.21875 0 0.375 -0.15625q0.171875 -0.171875 0.171875 -0.421875z" fill-rule="nonzero"/><path fill="#b7b7b7" d="m734.2808 231.55278l0 0c0 -7.9643555 34.436462 -14.420746 76.916016 -14.420746c42.479553 0 76.916016 6.4563904 76.916016 14.420746l0 57.683c0 7.9643555 -34.436462 14.420746 -76.916016 14.420746c-42.479553 0 -76.916016 -6.4563904 -76.916016 -14.420746z" fill-rule="evenodd"/><path fill="#000000" fill-opacity="0.0" d="m888.11285 231.55278l0 0c0 7.9643707 -34.436462 14.420761 -76.916016 14.420761c-42.479553 0 -76.916016 -6.4563904 -76.916016 -14.420761" fill-rule="evenodd"/><path fill="#000000" fill-opacity="0.0" d="m734.2808 231.55278l0 0c0 -7.9643555 34.436462 -14.420746 76.916016 -14.420746c42.479553 0 76.916016 6.4563904 76.916016 14.420746l0 57.683c0 7.9643555 -34.436462 14.420746 -76.916016 14.420746c-42.479553 0 -76.916016 -6.4563904 -76.916016 -14.420746z" fill-rule="evenodd"/><path stroke="#595959" stroke-width="1.0" stroke-linejoin="round" stroke-linecap="butt" d="m888.11285 231.55278l0 0c0 7.9643707 -34.436462 14.420761 -76.916016 14.420761c-42.479553 0 -76.916016 -6.4563904 -76.916016 -14.420761" fill-rule="evenodd"/><path stroke="#595959" stroke-width="1.0" stroke-linejoin="round" stroke-linecap="butt" d="m734.2808 231.55278l0 0c0 -7.9643555 34.436462 -14.420746 76.916016 -14.420746c42.479553 0 76.916016 6.4563904 76.916016 14.420746l0 57.683c0 7.9643555 -34.436462 14.420746 -76.916016 14.420746c-42.479553 0 -76.916016 -6.4563904 -76.916016 -14.420746z" fill-rule="evenodd"/><path fill="#000000" d="m801.52496 260.29028l-4.859375 0q-0.515625 0 -0.515625 0.46875q0 0.484375 0.515625 0.484375l4.90625 0q0.5 0 0.484375 -0.484375q0 -0.46875 -0.53125 -0.46875zm1.96875 2.625l-8.828125 0q-0.515625 0 -0.515625 0.453125q0 0.46875 0.515625 0.46875l8.875 0q0.234375 0 0.390625 -0.15625q0.125 -0.125 0.125 -0.3125q0 -0.203125 -0.15625 -0.328125q-0.140625 -0.125 -0.40625 -0.125zm-4.34375 2.375q-2.078125 0 -3.28125 1.359375q-1.09375 1.25 -1.09375 3.046875q0 1.78125 1.09375 3.046875q1.203125 1.390625 3.28125 1.390625q2.03125 0 3.25 -1.390625q1.09375 -1.265625 1.09375 -3.046875q0 -1.78125 -1.09375 -3.046875q-1.21875 -1.359375 -3.25 -1.359375zm0 0.9375q1.53125 0 2.4375 1.078125q0.8125 0.96875 0.8125 2.390625q0 1.40625 -0.8125 2.375q-0.90625 1.09375 -2.4375 1.09375q-1.546875 0 -2.46875 -1.09375q-0.8125 -0.96875 -0.8125 -2.375q0 -1.421875 0.8125 -2.390625q0.921875 -1.078125 2.46875 -1.078125zm7.984375 1.015625l0 -6.78125q0 -0.25 -0.1875 -0.390625q-0.140625 -0.109375 -0.375 -0.109375q-0.21875 0 -0.359375 0.109375q-0.171875 0.140625 -0.171875 0.390625l0 14.46875q0 0.25 0.171875 0.390625q0.140625 0.15625 0.359375 0.15625q0.234375 0 0.375 -0.15625q0.1875 -0.140625 0.1875 -0.390625l0 -6.765625l2.0625 0q0.4375 0 0.4375 -0.46875q0 -0.453125 -0.4375 -0.453125l-2.0625 0zm9.09375 -2.1875l10.5 0q0.46875 0 0.4375 -0.484375q0 -0.453125 -0.46875 -0.453125l-10.421875 0q-0.40625 0 -0.5625 -0.171875q-0.171875 -0.171875 -0.171875 -0.5l0 -1.625q0 -0.328125 0.1875 -0.46875q0.1875 -0.15625 0.578125 -0.15625l10.234375 0q0.203125 0 0.3125 -0.15625q0.109375 -0.140625 0.109375 -0.328125q-0.015625 -0.203125 -0.140625 -0.328125q-0.125 -0.140625 -0.375 -0.140625l-10.328125 0q-0.78125 0 -1.25 0.40625q-0.4375 0.421875 -0.4375 1.09375l0 1.78125q0 0.703125 0.453125 1.109375q0.484375 0.421875 1.34375 0.421875zm11.71875 1.828125l-14.453125 0q-0.53125 0 -0.546875 0.4375q-0.046875 0.46875 0.453125 0.46875l6.765625 0l0 1.6875q0 0.265625 0.15625 0.40625q0.15625 0.125 0.375 0.125q0.203125 0 0.359375 -0.140625q0.171875 -0.171875 0.171875 -0.453125l0 -1.625l6.765625 0q0.453125 0 0.453125 -0.46875q-0.015625 -0.4375 -0.5 -0.4375zm-2.09375 2.96875l0 1.484375l-10.3125 0l0 -1.484375q0 -0.265625 -0.1875 -0.40625q-0.140625 -0.140625 -0.375 -0.140625q-0.234375 0 -0.390625 0.140625q-0.15625 0.140625 -0.15625 0.40625l0 4.0625q0 0.59375 0.34375 0.96875q0.390625 0.390625 1.03125 0.390625l9.703125 0q0.6875 0 1.09375 -0.390625q0.359375 -0.375 0.359375 -0.953125l0 -4.078125q0 -0.265625 -0.171875 -0.40625q-0.15625 -0.140625 -0.375 -0.140625q-0.25 0 -0.390625 0.140625q-0.171875 0.140625 -0.171875 0.40625zm0 2.4375l0 1.421875q0 0.34375 -0.140625 0.484375q-0.140625 0.125 -0.546875 0.125l-8.9375 0q-0.390625 0 -0.546875 -0.171875q-0.140625 -0.125 -0.140625 -0.4375l0 -1.421875l10.3125 0z" fill-rule="nonzero"/><path fill="#000000" fill-opacity="0.0" d="m622.4383 75.597115l111.84253 0.724411" fill-rule="evenodd"/><path stroke="#595959" stroke-width="3.0" stroke-linejoin="round" stroke-linecap="butt" d="m622.4383 75.597115l93.84296 0.60782623" fill-rule="evenodd"/><path fill="#595959" stroke="#595959" stroke-width="3.0" stroke-linecap="butt" d="m716.24915 81.160034l13.646057 -4.8669205l-13.581909 -5.0432663z" fill-rule="evenodd"/><path fill="#000000" fill-opacity="0.0" d="m622.4383 260.39502l111.84253 0" fill-rule="evenodd"/><path stroke="#595959" stroke-width="3.0" stroke-linejoin="round" stroke-linecap="butt" d="m622.4383 260.39502l93.84253 0" fill-rule="evenodd"/><path fill="#595959" stroke="#595959" stroke-width="3.0" stroke-linecap="butt" d="m716.2808 265.35022l13.614319 -4.9552l-13.614319 -4.9552z" fill-rule="evenodd"/><path fill="#000000" fill-opacity="0.0" d="m622.4383 314.5525l111.84253 -54.173218" fill-rule="evenodd"/><path stroke="#595959" stroke-width="3.0" stroke-linejoin="round" stroke-linecap="butt" d="m622.4383 314.5525l95.64282 -46.32657" fill-rule="evenodd"/><path fill="#595959" stroke="#595959" stroke-width="3.0" stroke-linecap="butt" d="m720.2413 272.68552l10.092529 -10.394409l-14.41272 1.4752197z" fill-rule="evenodd"/><path fill="#000000" fill-opacity="0.0" d="m622.4383 206.23753l111.84253 54.14174" fill-rule="evenodd"/><path stroke="#595959" stroke-width="3.0" stroke-linejoin="round" stroke-linecap="butt" d="m622.4383 206.23753l95.64111 46.298782" fill-rule="evenodd"/><path fill="#595959" stroke="#595959" stroke-width="3.0" stroke-linecap="butt" d="m715.9203 256.9964l14.413025 1.4719238l-10.094849 -10.392105z" fill-rule="evenodd"/><g filter="url(#shadowFilter-p.11)"><use xlink:href="#p.11" transform="matrix(1.0 0.0 0.0 1.0 0.0 2.0)"/></g><defs><filter id="shadowFilter-p.11" filterUnits="userSpaceOnUse"><feGaussianBlur in="SourceAlpha" stdDeviation="2.0" result="blur"/><feComponentTransfer in="blur" color-interpolation-filters="sRGB"><feFuncR type="linear" slope="0" intercept="0.0"/><feFuncG type="linear" slope="0" intercept="0.0"/><feFuncB type="linear" slope="0" intercept="0.0"/><feFuncA type="linear" slope="0.5" intercept="0"/></feComponentTransfer></filter></defs><g id="p.11"><path fill="#b7b7b7" d="m10.249344 8.745407l182.64568 0l0 224.59842l-182.64568 0z" fill-rule="evenodd"/><path stroke="#595959" stroke-width="1.0" stroke-linejoin="round" stroke-linecap="butt" d="m10.249344 8.745407l182.64568 0l0 224.59842l-182.64568 0z" fill-rule="evenodd"/></g><path fill="#000000" fill-opacity="0.0" d="m10.249344 8.745407l182.64568 0l0 64.62992l-182.64568 0z" fill-rule="evenodd"/><path fill="#000000" d="m59.871155 21.634155l-5.3125 0q-0.59375 0 -0.59375 0.46875q-0.015625 0.46875 0.5625 0.46875l4.984375 0q0.5625 0 0.8125 0.15625q0.265625 0.1875 0.265625 0.5625l0 3.171875q0 0.40625 -0.1875 0.53125q-0.15625 0.15625 -0.625 0.15625l-3.984375 0q-0.828125 0 -1.28125 0.484375q-0.453125 0.453125 -0.453125 1.21875l0 4.375q0 0.84375 0.421875 1.328125q0.46875 0.515625 1.390625 0.515625q2.234375 0 4.28125 -0.328125q2.296875 -0.359375 3.828125 -1.046875q0.46875 -0.234375 0.265625 -0.703125q-0.1875 -0.46875 -0.671875 -0.203125q-1.34375 0.609375 -3.28125 0.96875q-2.0 0.359375 -4.140625 0.359375q-0.546875 0 -0.78125 -0.234375q-0.21875 -0.203125 -0.21875 -0.71875l0 -4.15625q0 -0.484375 0.171875 -0.6875q0.1875 -0.203125 0.640625 -0.203125l3.953125 0q0.875 0 1.296875 -0.390625q0.4375 -0.375 0.4375 -1.078125l0 -3.609375q0 -0.671875 -0.484375 -1.046875q-0.484375 -0.359375 -1.296875 -0.359375zm7.078125 14.40625l0 -14.4375q0 -0.25 -0.171875 -0.390625q-0.15625 -0.109375 -0.375 -0.109375q-0.25 0 -0.390625 0.109375q-0.171875 0.140625 -0.171875 0.390625l0 14.4375q0 0.25 0.171875 0.421875q0.140625 0.15625 0.390625 0.15625q0.21875 0 0.375 -0.15625q0.171875 -0.171875 0.171875 -0.421875zm12.5 -14.15625q0 2.875 -1.984375 4.90625q-1.71875 1.765625 -4.015625 2.234375q-0.296875 0.046875 -0.421875 0.234375q-0.140625 0.15625 -0.109375 0.359375q0.03125 0.1875 0.203125 0.296875q0.1875 0.109375 0.453125 0.078125q2.25 -0.453125 4.09375 -2.140625q1.75 -1.578125 2.3125 -3.453125q0.59375 1.859375 2.3125 3.453125q1.828125 1.671875 3.984375 2.109375q0.3125 0.0625 0.53125 -0.046875q0.1875 -0.109375 0.21875 -0.3125q0.0625 -0.203125 -0.0625 -0.375q-0.15625 -0.1875 -0.4375 -0.25q-2.421875 -0.5 -4.09375 -2.21875q-1.921875 -1.984375 -1.921875 -4.84375q0 -0.296875 -0.171875 -0.484375q-0.15625 -0.140625 -0.359375 -0.140625q-0.21875 0 -0.375 0.140625q-0.15625 0.171875 -0.15625 0.453125zm0 8.65625l0 3.84375l-6.671875 0q-0.25 0 -0.40625 0.125q-0.125 0.15625 -0.140625 0.34375q-0.03125 0.1875 0.09375 0.328125q0.109375 0.15625 0.3125 0.15625l14.5625 0q0.234375 0 0.390625 -0.15625q0.140625 -0.140625 0.140625 -0.328125q0 -0.1875 -0.140625 -0.34375q-0.15625 -0.125 -0.40625 -0.125l-6.671875 0l0 -3.765625q0 -0.265625 -0.171875 -0.40625q-0.15625 -0.15625 -0.359375 -0.15625q-0.21875 -0.015625 -0.375 0.109375q-0.15625 0.140625 -0.15625 0.375zm19.0 -8.65625q0 2.875 -1.984375 4.90625q-1.71875 1.765625 -4.015625 2.234375q-0.296875 0.046875 -0.421875 0.234375q-0.140625 0.15625 -0.109375 0.359375q0.03125 0.1875 0.203125 0.296875q0.1875 0.109375 0.453125 0.078125q2.25 -0.453125 4.09375 -2.140625q1.75 -1.578125 2.3125 -3.453125q0.59375 1.859375 2.3125 3.453125q1.828125 1.671875 3.984375 2.109375q0.3125 0.0625 0.53125 -0.046875q0.1875 -0.109375 0.21875 -0.3125q0.0625 -0.203125 -0.0625 -0.375q-0.15625 -0.1875 -0.4375 -0.25q-2.421875 -0.5 -4.09375 -2.21875q-1.921875 -1.984375 -1.921875 -4.84375q0 -0.296875 -0.171875 -0.484375q-0.15625 -0.140625 -0.359375 -0.140625q-0.21875 0 -0.375 0.140625q-0.15625 0.171875 -0.15625 0.453125zm7.734375 12.5l-14.40625 0q-0.546875 0 -0.546875 0.46875q0 0.484375 0.546875 0.484375l14.421875 0q0.234375 0 0.390625 -0.15625q0.140625 -0.140625 0.140625 -0.328125q0 -0.1875 -0.140625 -0.34375q-0.15625 -0.125 -0.40625 -0.125z" fill-rule="nonzero"/><path fill="#000000" d="m122.63258 21.64978q0 2.359375 -1.9375 3.921875q-1.71875 1.390625 -4.0625 1.578125q-0.296875 0.015625 -0.421875 0.1875q-0.140625 0.15625 -0.109375 0.375q0.03125 0.203125 0.203125 0.328125q0.1875 0.140625 0.453125 0.109375q2.3125 -0.3125 4.125 -1.546875q1.71875 -1.15625 2.28125 -2.640625q0.578125 1.453125 2.296875 2.640625q1.796875 1.234375 4.0 1.546875q0.3125 0.03125 0.53125 -0.109375q0.1875 -0.125 0.21875 -0.328125q0.0625 -0.234375 -0.0625 -0.390625q-0.15625 -0.1875 -0.4375 -0.203125q-2.375 -0.25 -4.0625 -1.578125q-1.953125 -1.546875 -1.953125 -3.859375q0 -0.296875 -0.171875 -0.46875q-0.15625 -0.15625 -0.359375 -0.15625q-0.21875 0 -0.375 0.15625q-0.15625 0.171875 -0.15625 0.4375zm7.765625 8.484375l-14.4375 0q-0.515625 0 -0.53125 0.46875q-0.015625 0.484375 0.46875 0.484375l6.734375 0l0 4.96875q0 0.265625 0.15625 0.421875q0.15625 0.140625 0.375 0.140625q0.203125 0 0.359375 -0.15625q0.171875 -0.171875 0.171875 -0.421875l0 -4.953125l6.75 0q0.46875 0 0.46875 -0.484375q-0.015625 -0.46875 -0.515625 -0.46875zm13.78125 -8.609375l-8.421875 0q-0.515625 0 -0.515625 0.46875q-0.015625 0.484375 0.5 0.484375l3.671875 0l0 0.609375q0 1.953125 -1.28125 3.34375q-1.046875 1.140625 -3.03125 1.953125q-0.25 0.09375 -0.328125 0.296875q-0.046875 0.1875 0.046875 0.375q0.109375 0.203125 0.296875 0.28125q0.203125 0.09375 0.4375 0.015625q1.671875 -0.640625 2.84375 -1.71875q1.125 -1.078125 1.5625 -2.328125q0.3125 1.09375 1.59375 2.21875q1.1875 1.015625 2.703125 1.671875q0.265625 0.109375 0.5 0.03125q0.234375 -0.078125 0.34375 -0.28125q0.09375 -0.203125 0.03125 -0.40625q-0.078125 -0.203125 -0.3125 -0.296875q-1.859375 -0.75 -2.9375 -1.859375q-1.375 -1.40625 -1.375 -3.34375l0 -0.5625l3.671875 0q0.46875 0 0.46875 -0.484375q0 -0.46875 -0.46875 -0.46875zm3.953125 7.453125l0 -7.390625q0 -0.25 -0.171875 -0.375q-0.15625 -0.125 -0.375 -0.125q-0.25 0 -0.390625 0.125q-0.171875 0.140625 -0.171875 0.390625l0 7.375q0 0.265625 0.171875 0.4375q0.140625 0.140625 0.390625 0.140625q0.21875 0 0.375 -0.140625q0.171875 -0.171875 0.171875 -0.4375zm-1.109375 2.015625l0 1.140625l-9.609375 0l0 -1.140625q0 -0.265625 -0.1875 -0.40625q-0.140625 -0.140625 -0.375 -0.140625q-0.21875 0 -0.359375 0.140625q-0.171875 0.140625 -0.171875 0.40625l0 3.8125q0 0.59375 0.359375 0.96875q0.359375 0.390625 1.015625 0.390625l8.953125 0q0.6875 0 1.09375 -0.390625q0.390625 -0.34375 0.390625 -0.921875l0 -3.859375q0 -0.265625 -0.171875 -0.40625q-0.15625 -0.140625 -0.375 -0.140625q-0.25 0 -0.390625 0.140625q-0.171875 0.140625 -0.171875 0.40625zm0 2.09375l0 1.515625q0 0.34375 -0.140625 0.46875q-0.15625 0.140625 -0.546875 0.140625l-8.21875 0q-0.390625 0 -0.546875 -0.15625q-0.15625 -0.15625 -0.15625 -0.46875l0 -1.5l9.609375 0z" fill-rule="nonzero"/><path fill="#000000" d="m69.33781 43.956028q-1.703125 0 -2.609375 2.0625q-0.796875 1.84375 -0.796875 4.75q0 2.875 0.796875 4.703125q0.90625 2.078125 2.609375 2.078125q1.71875 0 2.625 -2.078125q0.8125 -1.828125 0.8125 -4.703125q0 -2.90625 -0.8125 -4.75q-0.90625 -2.0625 -2.625 -2.0625zm0 0.953125q1.171875 0 1.78125 1.765625q0.546875 1.53125 0.546875 4.09375q0 2.515625 -0.546875 4.0625q-0.609375 1.78125 -1.78125 1.78125q-1.1875 0 -1.78125 -1.78125q-0.515625 -1.546875 -0.515625 -4.0625q0 -2.53125 0.515625 -4.09375q0.59375 -1.765625 1.78125 -1.765625zm5.59375 -0.890625l0 5.90625l-2.53125 0q-0.25 0 -0.40625 0.140625q-0.140625 0.125 -0.140625 0.34375q0 0.171875 0.140625 0.3125q0.15625 0.15625 0.421875 0.15625l2.515625 0l0 7.5625q0 0.25 0.15625 0.421875q0.15625 0.15625 0.390625 0.15625q0.234375 0 0.375 -0.15625q0.1875 -0.171875 0.1875 -0.421875l0 -14.453125q0 -0.25 -0.1875 -0.375q-0.140625 -0.125 -0.375 -0.109375q-0.234375 0 -0.390625 0.125q-0.15625 0.125 -0.15625 0.390625zm4.609375 14.421875l0 -14.453125q0 -0.25 -0.171875 -0.375q-0.15625 -0.125 -0.359375 -0.125q-0.21875 0 -0.375 0.125q-0.15625 0.140625 -0.15625 0.390625l0 14.4375q0 0.25 0.15625 0.421875q0.15625 0.15625 0.375 0.15625q0.203125 0 0.359375 -0.15625q0.171875 -0.171875 0.171875 -0.421875zm9.65625 -14.484375q-2.046875 0 -3.203125 2.0625q-1.0625 1.890625 -1.0625 4.75q0 2.828125 1.0625 4.703125q1.15625 2.078125 3.203125 2.078125q2.0 0 3.15625 -2.078125q1.0625 -1.875 1.0625 -4.703125q0 -2.859375 -1.0625 -4.75q-1.15625 -2.0625 -3.15625 -2.0625zm0 0.953125q1.484375 0 2.34375 1.765625q0.765625 1.609375 0.765625 4.09375q0 2.4375 -0.765625 4.0625q-0.859375 1.78125 -2.34375 1.78125q-1.515625 0 -2.375 -1.78125q-0.78125 -1.625 -0.78125 -4.0625q0 -2.484375 0.78125 -4.09375q0.859375 -1.765625 2.375 -1.765625zm8.84375 13.53125l0 -14.4375q0 -0.25 -0.171875 -0.390625q-0.15625 -0.109375 -0.375 -0.109375q-0.25 0 -0.390625 0.109375q-0.171875 0.140625 -0.171875 0.390625l0 14.4375q0 0.25 0.171875 0.421875q0.140625 0.15625 0.390625 0.15625q0.21875 0 0.375 -0.15625q0.171875 -0.171875 0.171875 -0.421875zm15.046875 -14.390625l-8.421875 0q-0.515625 0 -0.515625 0.46875q-0.015625 0.484375 0.5 0.484375l3.671875 0l0 1.0q0 2.171875 -1.34375 3.890625q-1.125 1.4375 -3.015625 2.421875q-0.234375 0.125 -0.296875 0.328125q-0.046875 0.1875 0.0625 0.375q0.109375 0.1875 0.296875 0.234375q0.21875 0.078125 0.4375 -0.03125q1.578125 -0.796875 2.78125 -2.140625q1.21875 -1.296875 1.625 -2.671875q0.328125 1.25 1.578125 2.546875q1.1875 1.25 2.71875 2.078125q0.265625 0.15625 0.515625 0.078125q0.21875 -0.0625 0.34375 -0.265625q0.109375 -0.1875 0.046875 -0.40625q-0.046875 -0.21875 -0.296875 -0.34375q-1.90625 -1.03125 -2.96875 -2.3125q-1.390625 -1.671875 -1.390625 -3.8125l0 -0.96875l3.671875 0q0.46875 0 0.46875 -0.484375q0 -0.46875 -0.46875 -0.46875zm3.953125 10.171875l0 -10.234375q0 -0.25 -0.171875 -0.375q-0.15625 -0.125 -0.375 -0.125q-0.25 0 -0.390625 0.125q-0.171875 0.140625 -0.171875 0.390625l0 3.953125l-3.171875 0q-0.265625 0 -0.390625 0.125q-0.125 0.125 -0.125 0.328125q0.015625 0.1875 0.171875 0.328125q0.15625 0.140625 0.4375 0.140625l3.078125 0l0 5.34375q0 0.28125 0.171875 0.453125q0.140625 0.140625 0.390625 0.140625q0.21875 0 0.375 -0.140625q0.171875 -0.171875 0.171875 -0.453125zm-10.8125 0.21875q0 -0.296875 -0.1875 -0.453125q-0.140625 -0.15625 -0.375 -0.15625q-0.234375 0 -0.375 0.15625q-0.171875 0.15625 -0.171875 0.453125l0 2.46875q0 0.828125 0.515625 1.25q0.484375 0.40625 1.3125 0.40625l10.1875 0q0.46875 0 0.46875 -0.484375q0 -0.46875 -0.46875 -0.46875l-10.0 0q-0.53125 0 -0.71875 -0.15625q-0.1875 -0.1875 -0.1875 -0.6875l0 -2.328125zm29.765617 -10.453125l-10.374992 0q-0.890625 0 -1.375 0.484375q-0.4375 0.453125 -0.4375 1.1875l0 5.640625q0 0.734375 0.453125 1.15625q0.46875 0.4375 1.296875 0.4375l10.515617 0q0.21875 0 0.34375 -0.15625q0.125 -0.140625 0.109375 -0.328125q0 -0.1875 -0.125 -0.34375q-0.15625 -0.125 -0.390625 -0.125l-10.281242 0q-0.4375 0 -0.625 -0.1875q-0.1875 -0.15625 -0.1875 -0.546875l0 -2.421875l10.890617 0q0.53125 0 0.53125 -0.484375q0 -0.453125 -0.53125 -0.453125l-10.890617 0l0 -2.0625q0 -0.453125 0.203125 -0.65625q0.21875 -0.1875 0.703125 -0.1875l10.249992 0q0.21875 0 0.34375 -0.15625q0.125 -0.140625 0.109375 -0.3125q0 -0.21875 -0.125 -0.34375q-0.171875 -0.140625 -0.40625 -0.140625zm1.265625 12.796875l-14.390617 0q-0.25 0 -0.40625 0.125q-0.125 0.15625 -0.140625 0.34375q-0.03125 0.1875 0.09375 0.328125q0.109375 0.15625 0.3125 0.15625l14.671867 0q0.203125 0 0.3125 -0.15625q0.109375 -0.140625 0.109375 -0.328125q-0.015625 -0.1875 -0.15625 -0.34375q-0.15625 -0.125 -0.40625 -0.125z" fill-rule="nonzero"/><g filter="url(#shadowFilter-p.12)"><use xlink:href="#p.12" transform="matrix(1.0 0.0 0.0 1.0 0.0 2.0)"/></g><defs><filter id="shadowFilter-p.12" filterUnits="userSpaceOnUse"><feGaussianBlur in="SourceAlpha" stdDeviation="2.0" result="blur"/><feComponentTransfer in="blur" color-interpolation-filters="sRGB"><feFuncR type="linear" slope="0" intercept="0.0"/><feFuncG type="linear" slope="0" intercept="0.0"/><feFuncB type="linear" slope="0" intercept="0.0"/><feFuncA type="linear" slope="0.5" intercept="0"/></feComponentTransfer></filter></defs><g id="p.12"><path fill="#eeeeee" d="m52.310154 73.985565l132.37796 0l0 35.2126l-132.37796 0z" fill-rule="evenodd"/><path stroke="#595959" stroke-width="1.0" stroke-linejoin="round" stroke-linecap="butt" d="m52.310154 73.985565l132.37796 0l0 35.2126l-132.37796 0z" fill-rule="evenodd"/><path fill="#000000" d="m69.62315 85.02749l0 1.03125l6.734375 0l0 3.734375l-6.59375 0l0 6.53125q2.921875 -0.0625 5.765625 -0.265625q2.546875 -0.1875 5.09375 -0.484375l-0.21875 -1.109375q-1.984375 0.28125 -4.5625 0.484375q-2.1875 0.140625 -4.8125 0.234375l0 -4.359375l6.65625 0l0 -5.796875l-8.0625 0zm12.421875 -1.921875l0 16.328125l1.25 0l0 -15.75q0 -0.078125 0.03125 -0.140625q0.03125 -0.046875 0.0625 -0.109375q0.109375 -0.1875 0.078125 -0.25q-0.046875 -0.078125 -0.4375 -0.078125l-0.984375 0zm6.6875 7.234375l1.0625 1.078125q2.109375 -0.625 3.765625 -1.78125q1.859375 -1.296875 2.828125 -3.0q0.828125 1.453125 2.609375 2.671875q1.859375 1.296875 4.125 1.890625l1.0 -1.09375q-1.46875 -0.234375 -2.828125 -0.828125q-1.234375 -0.5625 -2.203125 -1.34375q-0.953125 -0.78125 -1.484375 -1.578125q-0.515625 -0.8125 -0.515625 -1.5q0 -0.0625 0.03125 -0.125q0.03125 -0.0625 0.09375 -0.140625q0.109375 -0.15625 0.09375 -0.234375q-0.015625 -0.109375 -0.328125 -0.171875l-1.15625 -0.21875q-0.03125 1.265625 -0.75 2.46875q-0.640625 1.0625 -1.75 1.921875q-1.03125 0.828125 -2.3125 1.34375q-1.203125 0.5 -2.28125 0.640625zm-0.53125 5.875l0 1.046875l16.234375 0l0 -1.046875l-7.4375 0l0 -3.671875q0 -0.09375 0.03125 -0.1875q0.015625 -0.078125 0.078125 -0.171875q0.09375 -0.203125 0.046875 -0.265625q-0.0625 -0.09375 -0.515625 -0.09375l-1.015625 0l0 4.390625l-7.421875 0zm27.484375 -11.375l-1.0625 -0.109375q0 2.796875 -2.0 4.5625q-1.84375 1.59375 -5.09375 2.125l1.0625 1.0625q2.453125 -0.5 4.296875 -1.8125q1.90625 -1.375 2.375 -3.0625q0.53125 1.796875 2.75 3.203125q1.953125 1.25 3.921875 1.546875l0.921875 -1.15625q-1.328125 0 -2.59375 -0.515625q-1.1875 -0.484375 -2.140625 -1.3125q-0.9375 -0.8125 -1.515625 -1.8125q-0.578125 -1.015625 -0.6875 -1.984375q0 -0.109375 0.0625 -0.21875q0.015625 -0.09375 0.09375 -0.1875q0.078125 -0.125 0.046875 -0.1875q-0.046875 -0.09375 -0.4375 -0.140625zm-8.515625 11.65625l0 1.1875l16.140625 0l0 -1.1875l-16.140625 0zm25.783203 -8.0625l1.078125 1.15625q2.421875 -0.5 4.203125 -1.703125q1.671875 -1.15625 2.4375 -2.625q0.578125 1.28125 2.265625 2.390625q1.859375 1.265625 4.390625 1.828125l0.953125 -1.125q-2.921875 -0.25 -4.921875 -1.71875q-1.6875 -1.1875 -1.921875 -2.453125q-0.015625 -0.09375 0.015625 -0.15625q0.015625 -0.0625 0.09375 -0.171875q0.078125 -0.109375 0.046875 -0.15625q-0.046875 -0.09375 -0.390625 -0.140625l-1.140625 -0.1875q-0.0625 1.703125 -2.15625 3.328125q-2.109375 1.5625 -4.953125 1.734375zm-0.421875 3.171875l0 1.046875l7.546875 0l0 7.3125l1.34375 0l0 -7.3125l7.4375 0l0 -1.046875l-16.328125 0zm19.640625 -7.40625l0 1.03125l4.140625 0q0 1.84375 -1.59375 3.6875q-1.609375 1.8125 -3.671875 2.40625l1.234375 0.96875q1.4375 -0.640625 2.8125 -1.96875q1.484375 -1.390625 1.9375 -2.65625q0.46875 1.3125 1.71875 2.53125q1.09375 1.0625 2.625 1.859375l1.0625 -1.0625q-2.046875 -0.65625 -3.484375 -2.546875q-1.25 -1.6875 -1.25 -3.21875l4.015625 0l0 -1.03125l-9.546875 0zm13.078125 -1.0625l-0.859375 0l0 8.953125l1.25 0l0 -8.28125q0 -0.109375 0.046875 -0.21875q0.03125 -0.046875 0.109375 -0.15625q0.09375 -0.15625 0.03125 -0.1875q-0.09375 -0.078125 -0.578125 -0.109375zm-0.078125 10.0625l-0.8125 0l0 1.953125l-8.75 0l0 -1.328125q-0.015625 -0.078125 0.015625 -0.15625q0 -0.03125 0.046875 -0.109375q0.078125 -0.15625 0.03125 -0.203125q-0.09375 -0.078125 -0.515625 -0.125l-0.796875 0l0 6.5l1.21875 0l0 -0.625l8.75 0l0 0.59375l1.21875 0l0 -5.796875q0 -0.109375 0.015625 -0.203125q0.015625 -0.046875 0.078125 -0.15625q0.0625 -0.171875 0.015625 -0.234375q-0.09375 -0.078125 -0.515625 -0.109375zm-9.5625 2.859375l8.75 0l0 2.171875l-8.75 0l0 -2.171875z" fill-rule="nonzero"/></g><g filter="url(#shadowFilter-p.13)"><use xlink:href="#p.13" transform="matrix(1.0 0.0 0.0 1.0 0.0 2.0)"/></g><defs><filter id="shadowFilter-p.13" filterUnits="userSpaceOnUse"><feGaussianBlur in="SourceAlpha" stdDeviation="2.0" result="blur"/><feComponentTransfer in="blur" color-interpolation-filters="sRGB"><feFuncR type="linear" slope="0" intercept="0.0"/><feFuncG type="linear" slope="0" intercept="0.0"/><feFuncB type="linear" slope="0" intercept="0.0"/><feFuncA type="linear" slope="0.5" intercept="0"/></feComponentTransfer></filter></defs><g id="p.13"><path fill="#eeeeee" d="m52.310154 146.69702l132.37796 0l0 35.2126l-132.37796 0z" fill-rule="evenodd"/><path stroke="#595959" stroke-width="1.0" stroke-linejoin="round" stroke-linecap="butt" d="m52.310154 146.69702l132.37796 0l0 35.2126l-132.37796 0z" fill-rule="evenodd"/><path fill="#000000" d="m84.06163 157.44208l0 0.953125l11.875 0l0 -0.953125l-11.875 0zm3.1875 1.8125l-0.875 0l0.5625 4.421875l-2.609375 0l0 0.9375l11.34375 0l0 -0.9375l-2.671875 0l0.5 -3.703125q0.03125 -0.109375 0.09375 -0.21875q0.046875 -0.046875 0.140625 -0.140625q0.125 -0.140625 0.09375 -0.1875q-0.046875 -0.078125 -0.40625 -0.140625l-0.984375 -0.15625l-0.59375 4.546875l-3.703125 0l-0.453125 -3.8125q-0.03125 -0.09375 0.015625 -0.203125q0.015625 -0.046875 0.046875 -0.140625q0.09375 -0.15625 0.046875 -0.203125q-0.09375 -0.0625 -0.546875 -0.0625zm-5.078125 10.078125l0 1.015625l15.65625 0l0 -1.015625l-15.65625 0zm21.09375 -11.59375l0 1.03125l10.25 0l0 2.640625l-10.15625 0l0 4.75l5.140625 0l0 3.265625l-7.421875 0l0 1.03125l16.15625 0l0 -1.03125l-7.453125 0l0 -3.265625l5.34375 0l0 -0.984375l-10.546875 0l0 -2.828125l10.140625 0l0 -4.609375l-11.453125 0zm19.0625 -1.234375l0 6.09375l11.609375 0l0 -1.046875l-10.375 0l0 -4.0l10.109375 0l0 -1.046875l-11.34375 0zm13.5 8.46875l-15.65625 0l0 1.015625l3.6875 0l0 6.140625l1.203125 0l0 -6.140625l5.875 0l0 6.734375l1.203125 0l0 -6.734375l3.6875 0l0 -1.015625zm8.359375 -7.5625l-1.078125 -0.140625q-0.15625 3.578125 -1.5625 6.375q-1.296875 2.640625 -3.234375 3.71875l1.1875 0.8125q1.34375 -1.046875 2.4375 -2.796875q0.96875 -1.546875 1.5 -3.1875q0.515625 1.6875 1.375 3.0625q0.9375 1.484375 2.515625 2.921875l1.21875 -0.875q-1.9375 -1.28125 -3.140625 -3.4375q-1.3125 -2.375 -1.15625 -4.828125q0.015625 -0.3125 0.109375 -0.65625q0.0625 -0.1875 0.1875 -0.453125q0.140625 -0.28125 0.09375 -0.359375q-0.046875 -0.109375 -0.453125 -0.15625zm3.078125 4.625l0 1.015625l4.453125 0l0 9.078125l1.25 0l0 -15.6875q0 -0.09375 0.046875 -0.171875q0.015625 -0.0625 0.078125 -0.1875q0.078125 -0.171875 0.046875 -0.21875q-0.046875 -0.09375 -0.390625 -0.09375l-1.03125 0l0 6.265625l-4.453125 0z" fill-rule="nonzero"/></g><path fill="#000000" fill-opacity="0.0" d="m118.49913 109.198166l0 37.51181" fill-rule="evenodd"/><path stroke="#595959" stroke-width="3.0" stroke-linejoin="round" stroke-linecap="butt" d="m118.49913 109.198166l0 19.51181" fill-rule="evenodd"/><path fill="#595959" stroke="#595959" stroke-width="3.0" stroke-linecap="butt" d="m113.54393 128.70998l4.9552 13.614288l4.9551926 -13.614288z" fill-rule="evenodd"/><path fill="#000000" fill-opacity="0.0" d="m52.310154 164.30333l-25.0 0l0 -72.72441l25.062992 0" fill-rule="evenodd"/><path stroke="#595959" stroke-width="3.0" stroke-linejoin="round" stroke-linecap="butt" d="m52.310154 164.30333l-25.000002 0l0 -72.72442l7.062994 0" fill-rule="evenodd"/><path fill="#595959" stroke="#595959" stroke-width="3.0" stroke-linecap="butt" d="m34.373146 96.53411l13.614292 -4.9552l-13.614292 -4.9551926z" fill-rule="evenodd"/><path fill="#000000" fill-opacity="0.0" d="m184.68811 164.30333l39.936996 0" fill-rule="evenodd"/><path stroke="#595959" stroke-width="3.0" stroke-linejoin="round" stroke-linecap="butt" d="m184.68811 164.30333l21.937012 0" fill-rule="evenodd"/><path fill="#595959" stroke="#595959" stroke-width="3.0" stroke-linecap="butt" d="m206.62512 169.25851l13.614288 -4.955185l-13.614288 -4.9552z" fill-rule="evenodd"/><path fill="#000000" fill-opacity="0.0" d="m364.54855 75.590614l143.84253 130.64566" fill-rule="evenodd"/><path stroke="#595959" stroke-width="3.0" stroke-linejoin="round" stroke-linecap="butt" d="m364.54855 75.590614l130.51804 118.54365" fill-rule="evenodd"/><path fill="#595959" stroke="#595959" stroke-width="3.0" stroke-linecap="butt" d="m491.73508 197.80235l13.409485 5.4852753l-6.746399 -12.821426z" fill-rule="evenodd"/><path fill="#000000" fill-opacity="0.0" d="m364.54855 132.30252l143.84253 128.09448" fill-rule="evenodd"/><path stroke="#595959" stroke-width="3.0" stroke-linejoin="round" stroke-linecap="butt" d="m364.54855 132.30252l130.40005 116.12372" fill-rule="evenodd"/><path fill="#595959" stroke="#595959" stroke-width="3.0" stroke-linecap="butt" d="m491.65317 252.1268l13.4626465 5.353546l-6.8717957 -12.754669z" fill-rule="evenodd"/><path fill="#000000" fill-opacity="0.0" d="m364.54855 189.01443l143.84253 125.543304" fill-rule="evenodd"/><path stroke="#595959" stroke-width="3.0" stroke-linejoin="round" stroke-linecap="butt" d="m364.54855 189.01443l130.28125 113.707275" fill-rule="evenodd"/><path fill="#595959" stroke="#595959" stroke-width="3.0" stroke-linecap="butt" d="m491.57147 306.45496l13.515381 5.218933l-6.9987183 -12.685455z" fill-rule="evenodd"/></g></svg>