<svg version="1.1" viewBox="0.0 0.0 658.3175853018373 204.11286089238845" fill="none" stroke="none" stroke-linecap="square" stroke-miterlimit="10" xmlns:xlink="http://www.w3.org/1999/xlink" xmlns="http://www.w3.org/2000/svg"><clipPath id="p.0"><path d="m0 0l658.31757 0l0 204.11285l-658.31757 0l0 -204.11285z" clip-rule="nonzero"/></clipPath><g clip-path="url(#p.0)"><path fill="#000000" fill-opacity="0.0" d="m0 0l658.31757 0l0 204.11285l-658.31757 0z" fill-rule="evenodd"/><g filter="url(#shadowFilter-p.1)"><use xlink:href="#p.1" transform="matrix(1.0 0.0 0.0 1.0 0.0 2.0)"/></g><defs><filter id="shadowFilter-p.1" filterUnits="userSpaceOnUse"><feGaussianBlur in="SourceAlpha" stdDeviation="2.0" result="blur"/><feComponentTransfer in="blur" color-interpolation-filters="sRGB"><feFuncR type="linear" slope="0" intercept="0.0"/><feFuncG type="linear" slope="0" intercept="0.0"/><feFuncB type="linear" slope="0" intercept="0.0"/><feFuncA type="linear" slope="0.5" intercept="0"/></feComponentTransfer></filter></defs><g id="p.1"><path fill="#d9d9d9" d="m11.270341 12.37946l370.51968 0l0 170.14174l-370.51968 0z" fill-rule="evenodd"/><path stroke="#595959" stroke-width="1.0" stroke-linejoin="round" stroke-linecap="butt" d="m11.270341 12.37946l370.51968 0l0 170.14174l-370.51968 0z" fill-rule="evenodd"/></g><path fill="#000000" fill-opacity="0.0" d="m139.50656 12.37946l114.04724 0l0 42.01575l-114.04724 0z" fill-rule="evenodd"/><path fill="#000000" d="m182.68643 28.752584l0 2.640625q0 0.484375 -0.203125 0.6718731q-0.203125 0.171875 -0.6875 0.171875l-8.53125 0q-0.5 0 -0.703125 -0.1875q-0.1875 -0.1874981 -0.1875 -0.6406231l0 -2.65625l10.3125 0zm0 -3.234375l0 2.28125l-10.3125 0l0 -2.28125q0 -0.28125 -0.1875 -0.4375q-0.140625 -0.125 -0.375 -0.125q-0.234375 0 -0.390625 0.125q-0.15625 0.171875 -0.15625 0.453125l0 6.109375q0 0.7187481 0.484375 1.1249981q0.453125 0.390625 1.21875 0.390625l9.03125 0q0.859375 0 1.328125 -0.40625q0.46875 -0.40625 0.46875 -1.1874981l0 -6.09375q0 -0.25 -0.171875 -0.40625q-0.15625 -0.125 -0.375 -0.125q-0.25 0 -0.390625 0.140625q-0.171875 0.15625 -0.171875 0.4375zm2.046875 12.499998l-14.40625 0q-0.546875 0 -0.546875 0.46875q0 0.484375 0.546875 0.484375l14.421875 0q0.234375 0 0.390625 -0.15625q0.140625 -0.140625 0.140625 -0.328125q0 -0.1875 -0.140625 -0.34375q-0.15625 -0.125 -0.40625 -0.125zm15.890625 -12.796873l-9.671875 0q-0.5625 0 -0.5625 0.484375q0 0.46875 0.53125 0.46875l9.53125 0q0.453125 0 0.65625 0.140625q0.234375 0.140625 0.234375 0.515625l0 1.515625q0 0.28125 -0.25 0.4375q-0.203125 0.125 -0.609375 0.125l-8.421875 0q-0.84375 0 -1.296875 0.46875q-0.40625 0.421875 -0.40625 1.109375l0 1.9999981q0 0.765625 0.40625 1.203125q0.40625 0.4375 1.109375 0.4375l10.46875 0q0.234375 0 0.359375 -0.15625q0.140625 -0.140625 0.140625 -0.328125q0 -0.1875 -0.15625 -0.34375q-0.140625 -0.125 -0.390625 -0.125l-9.984375 0q-0.46875 0 -0.671875 -0.171875q-0.1875 -0.15625 -0.1875 -0.53125l0 -1.8749981q0 -0.390625 0.1875 -0.5625q0.171875 -0.15625 0.625 -0.15625l8.390625 0q0.921875 0 1.328125 -0.3125q0.46875 -0.34375 0.46875 -1.125l0 -1.71875q0 -0.75 -0.46875 -1.140625q-0.46875 -0.359375 -1.359375 -0.359375zm-4.609375 9.171873l0 3.625l-6.6875 0q-0.25 0 -0.40625 0.125q-0.125 0.15625 -0.140625 0.34375q-0.03125 0.1875 0.09375 0.328125q0.109375 0.15625 0.3125 0.15625l14.5625 0q0.234375 0 0.390625 -0.15625q0.140625 -0.140625 0.140625 -0.328125q0 -0.1875 -0.140625 -0.34375q-0.15625 -0.125 -0.40625 -0.125l-6.640625 0l0 -3.546875q0 -0.25 -0.1875 -0.40625q-0.15625 -0.140625 -0.359375 -0.140625q-0.21875 -0.03125 -0.375 0.109375q-0.15625 0.125 -0.15625 0.359375zm18.265625 -9.109373l-5.421875 0q-0.28125 0 -0.4375 0.140625q-0.125 0.140625 -0.125 0.328125q0 0.1875 0.125 0.328125q0.171875 0.15625 0.453125 0.15625l5.375 0q0.515625 0 0.75 0.21875q0.21875 0.21875 0.21875 0.65625l0 2.75q0 3.562498 -1.734375 5.593748q-1.734375 2.0625 -5.109375 2.453125q-0.53125 0.046875 -0.453125 0.53125q0.0625 0.484375 0.578125 0.453125q3.640625 -0.359375 5.703125 -2.6875q2.078125 -2.375 2.078125 -6.296873l0 -2.875q0 -0.8125 -0.546875 -1.28125q-0.515625 -0.46875 -1.453125 -0.46875zm-0.140625 4.71875q-1.0625 0.265625 -2.859375 0.5q-1.796875 0.21875 -2.96875 0.21875q-0.53125 0 -0.53125 0.484375q0 0.484375 0.546875 0.484375q1.234375 0 3.140625 -0.265625q1.84375 -0.234375 2.96875 -0.53125q0.234375 -0.078125 0.359375 -0.265625q0.109375 -0.15625 0.046875 -0.328125q-0.046875 -0.1875 -0.234375 -0.28125q-0.1875 -0.09375 -0.46875 -0.015625zm7.359375 9.671873l0 -14.421873q0 -0.265625 -0.171875 -0.40625q-0.15625 -0.125 -0.375 -0.125q-0.25 0 -0.390625 0.140625q-0.171875 0.15625 -0.171875 0.40625l0 5.6875l-3.078125 0q-0.265625 0 -0.40625 0.125q-0.15625 0.140625 -0.125 0.328125q0 0.1875 0.15625 0.34375q0.171875 0.140625 0.46875 0.140625l2.984375 0l0 7.781248q0 0.25 0.171875 0.421875q0.140625 0.15625 0.390625 0.15625q0.21875 0 0.375 -0.15625q0.171875 -0.171875 0.171875 -0.421875z" fill-rule="nonzero"/><g filter="url(#shadowFilter-p.2)"><use xlink:href="#p.2" transform="matrix(1.0 0.0 0.0 1.0 0.0 2.0)"/></g><defs><filter id="shadowFilter-p.2" filterUnits="userSpaceOnUse"><feGaussianBlur in="SourceAlpha" stdDeviation="2.0" result="blur"/><feComponentTransfer in="blur" color-interpolation-filters="sRGB"><feFuncR type="linear" slope="0" intercept="0.0"/><feFuncG type="linear" slope="0" intercept="0.0"/><feFuncB type="linear" slope="0" intercept="0.0"/><feFuncA type="linear" slope="0.5" intercept="0"/></feComponentTransfer></filter></defs><g id="p.2"><path fill="#b7b7b7" d="m494.80316 57.015747l142.2362 0l0 90.61418l-142.2362 0z" fill-rule="evenodd"/><path stroke="#595959" stroke-width="1.0" stroke-linejoin="round" stroke-linecap="butt" d="m494.80316 57.015747l142.2362 0l0 90.61418l-142.2362 0z" fill-rule="evenodd"/></g><path fill="#000000" fill-opacity="0.0" d="m494.80316 57.015747l142.2362 0l0 42.015747l-142.2362 0z" fill-rule="evenodd"/><path fill="#000000" d="m524.1577 69.92012l-5.5 0q-0.28125 0 -0.4375 0.140625q-0.125 0.140625 -0.125 0.328125q0 0.1875 0.125 0.328125q0.171875 0.15625 0.453125 0.15625l5.375 0q0.515625 0 0.75 0.21875q0.21875 0.21875 0.21875 0.65625l0 1.046875q0 2.15625 -1.703125 3.734375q-1.84375 1.703125 -5.03125 2.03125q-0.265625 0.015625 -0.390625 0.171875q-0.109375 0.15625 -0.09375 0.359375q0.015625 0.203125 0.171875 0.328125q0.15625 0.15625 0.4375 0.140625q3.421875 -0.3125 5.5625 -2.25q2.109375 -1.890625 2.109375 -4.46875l0 -1.296875q0 -0.765625 -0.46875 -1.171875q-0.484375 -0.453125 -1.453125 -0.453125zm-0.09375 3.359375q-1.34375 0.234375 -2.859375 0.375q-1.734375 0.1875 -3.078125 0.1875q-0.515625 0 -0.515625 0.46875q0 0.484375 0.515625 0.484375q1.390625 0 3.21875 -0.1875q1.59375 -0.171875 2.96875 -0.40625q0.234375 -0.0625 0.34375 -0.25q0.109375 -0.140625 0.078125 -0.328125q-0.0625 -0.1875 -0.21875 -0.28125q-0.1875 -0.109375 -0.453125 -0.0625zm7.234375 6.8125l0 -10.171875q0 -0.265625 -0.171875 -0.421875q-0.15625 -0.125 -0.375 -0.125q-0.25 0 -0.390625 0.125q-0.171875 0.15625 -0.171875 0.421875l0 4.234375l-3.4375 0q-0.25 0 -0.40625 0.125q-0.140625 0.15625 -0.125 0.34375q0 0.1875 0.171875 0.328125q0.15625 0.15625 0.453125 0.15625l3.34375 0l0 4.984375q0 0.28125 0.171875 0.453125q0.140625 0.140625 0.390625 0.140625q0.21875 0 0.375 -0.140625q0.171875 -0.171875 0.171875 -0.453125zm-10.8125 0.21875q0 -0.296875 -0.1875 -0.453125q-0.140625 -0.15625 -0.375 -0.15625q-0.234375 0 -0.375 0.15625q-0.171875 0.15625 -0.171875 0.453125l0 2.46875q0 0.828125 0.515625 1.25q0.484375 0.40625 1.3125 0.40625l10.1875 0q0.46875 0 0.46875 -0.484375q0 -0.46875 -0.46875 -0.46875l-10.0 0q-0.53125 0 -0.71875 -0.15625q-0.1875 -0.1875 -0.1875 -0.6875l0 -2.328125zm23.3125 -10.390625q0 2.359375 -1.9375 3.921875q-1.71875 1.390625 -4.0625 1.578125q-0.296875 0.015625 -0.421875 0.1875q-0.140625 0.15625 -0.109375 0.375q0.03125 0.203125 0.203125 0.328125q0.1875 0.140625 0.453125 0.109375q2.3125 -0.3125 4.125 -1.546875q1.71875 -1.15625 2.28125 -2.640625q0.578125 1.453125 2.296875 2.640625q1.796875 1.234375 4.0 1.546875q0.3125 0.03125 0.53125 -0.109375q0.1875 -0.125 0.21875 -0.328125q0.0625 -0.234375 -0.0625 -0.390625q-0.15625 -0.1875 -0.4375 -0.203125q-2.375 -0.25 -4.0625 -1.578125q-1.953125 -1.546875 -1.953125 -3.859375q0 -0.296875 -0.171875 -0.46875q-0.15625 -0.15625 -0.359375 -0.15625q-0.21875 0 -0.375 0.15625q-0.15625 0.171875 -0.15625 0.4375zm7.78125 8.65625l-14.453125 0q-0.53125 0 -0.546875 0.453125q-0.046875 0.484375 0.453125 0.484375l3.5 0l0 1.453125q0 0.8125 -0.296875 1.546875q-0.28125 0.65625 -0.828125 1.203125q-0.1875 0.15625 -0.140625 0.40625q0.015625 0.203125 0.203125 0.375q0.171875 0.140625 0.390625 0.15625q0.21875 0.03125 0.40625 -0.140625q0.609375 -0.640625 0.984375 -1.5625q0.390625 -0.96875 0.390625 -1.96875l0 -1.46875l5.921875 0l0 4.8125q0 0.265625 0.15625 0.421875q0.15625 0.140625 0.375 0.140625q0.21875 0 0.375 -0.15625q0.1875 -0.171875 0.1875 -0.421875l0 -4.796875l2.96875 0q0.453125 0 0.453125 -0.484375q-0.015625 -0.453125 -0.5 -0.453125zm11.546875 -6.9375l0 9.984375q0 0.421875 -0.203125 0.59375q-0.1875 0.140625 -0.65625 0.140625l-3.953125 0q-0.453125 0 -0.625 -0.171875q-0.1875 -0.15625 -0.1875 -0.59375l0 -9.84375q0 -0.4375 0.171875 -0.65625q0.1875 -0.21875 0.609375 -0.21875l3.953125 0q0.484375 0 0.6875 0.1875q0.203125 0.1875 0.203125 0.578125zm-0.8125 -1.71875l-4.171875 0q-0.828125 0 -1.28125 0.5q-0.453125 0.484375 -0.453125 1.25l0 10.015625q0 0.796875 0.40625 1.1875q0.4375 0.4375 1.375 0.4375l4.25 0q0.875 0 1.3125 -0.421875q0.453125 -0.40625 0.453125 -1.21875l0 -10.125q0 -0.765625 -0.546875 -1.203125q-0.5 -0.421875 -1.34375 -0.421875zm6.984375 14.3125l0 -14.3125q0 -0.265625 -0.171875 -0.421875q-0.15625 -0.125 -0.375 -0.125q-0.25 0 -0.390625 0.125q-0.171875 0.15625 -0.171875 0.421875l0 6.078125l-3.171875 0q-0.265625 0 -0.390625 0.125q-0.125 0.15625 -0.125 0.328125q0.015625 0.1875 0.171875 0.34375q0.15625 0.140625 0.4375 0.140625l3.078125 0l0 7.296875q0 0.3125 0.171875 0.5q0.140625 0.171875 0.390625 0.171875q0.21875 0 0.375 -0.171875q0.171875 -0.203125 0.171875 -0.5z" fill-rule="nonzero"/><path fill="#000000" d="m591.6848 69.85762l-10.171875 0q-0.5 0 -0.5 0.484375q0 0.46875 0.5 0.46875l10.03125 0q0.515625 0 0.8125 0.234375q0.3125 0.234375 0.3125 0.703125l0 5.203125q0 1.515625 -0.40625 3.203125q-0.421875 1.78125 -1.125 3.015625l1.1875 0q0.625 -1.21875 1.03125 -2.984375q0.421875 -1.765625 0.421875 -3.203125l0 -5.296875q0 -0.875 -0.5625 -1.375q-0.578125 -0.453125 -1.53125 -0.453125zm3.03125 12.796875l-14.40625 0q-0.53125 0 -0.546875 0.46875q-0.046875 0.484375 0.453125 0.484375l14.515625 0q0.234375 0 0.390625 -0.15625q0.140625 -0.140625 0.140625 -0.328125q0 -0.1875 -0.140625 -0.34375q-0.15625 -0.125 -0.40625 -0.125zm16.46875 -13.078125l-10.375 0q-0.546875 0 -0.5625 0.46875q0 0.46875 0.546875 0.46875l10.078125 0q0.40625 0 0.59375 0.125q0.203125 0.125 0.203125 0.40625l0 0.4375q0 0.21875 -0.21875 0.359375q-0.21875 0.140625 -0.609375 0.140625l-9.09375 0q-0.703125 0 -1.109375 0.3125q-0.390625 0.34375 -0.390625 0.9375l0 0.84375q0 0.625 0.359375 0.9375q0.375 0.3125 1.140625 0.3125l10.71875 0q0.25 0 0.375 -0.15625q0.125 -0.140625 0.125 -0.328125q0 -0.1875 -0.140625 -0.328125q-0.15625 -0.140625 -0.40625 -0.140625l-10.390625 0q-0.390625 0 -0.546875 -0.140625q-0.125 -0.109375 -0.125 -0.328125l0 -0.515625q0 -0.21875 0.125 -0.328125q0.171875 -0.125 0.59375 -0.125l9.25 0q0.703125 0 1.046875 -0.28125q0.40625 -0.296875 0.40625 -0.921875l0 -1.03125q0 -0.53125 -0.4375 -0.84375q-0.40625 -0.28125 -1.15625 -0.28125zm2.578125 7.0l-14.453125 0q-0.546875 0 -0.546875 0.4375q0 0.46875 0.53125 0.46875l6.6875 0l0 1.53125q0 0.265625 0.15625 0.4375q0.15625 0.125 0.375 0.125q0.203125 0 0.359375 -0.15625q0.171875 -0.15625 0.171875 -0.4375l0 -1.5l6.765625 0q0.453125 0 0.453125 -0.46875q-0.015625 -0.4375 -0.5 -0.4375zm-2.09375 2.6875l0 1.484375l-10.3125 0l0 -1.484375q0 -0.265625 -0.1875 -0.40625q-0.140625 -0.140625 -0.375 -0.140625q-0.234375 0 -0.390625 0.140625q-0.15625 0.140625 -0.15625 0.40625l0 4.0625q0 0.59375 0.34375 0.96875q0.390625 0.390625 1.03125 0.390625l9.703125 0q0.6875 0 1.09375 -0.390625q0.359375 -0.375 0.359375 -0.953125l0 -4.078125q0 -0.265625 -0.171875 -0.40625q-0.15625 -0.140625 -0.375 -0.140625q-0.25 0 -0.390625 0.140625q-0.171875 0.140625 -0.171875 0.40625zm0 2.4375l0 1.421875q0 0.34375 -0.140625 0.484375q-0.140625 0.125 -0.546875 0.125l-8.9375 0q-0.390625 0 -0.546875 -0.171875q-0.140625 -0.125 -0.140625 -0.4375l0 -1.421875l10.3125 0z" fill-rule="nonzero"/><g filter="url(#shadowFilter-p.3)"><use xlink:href="#p.3" transform="matrix(1.0 0.0 0.0 1.0 0.0 2.0)"/></g><defs><filter id="shadowFilter-p.3" filterUnits="userSpaceOnUse"><feGaussianBlur in="SourceAlpha" stdDeviation="2.0" result="blur"/><feComponentTransfer in="blur" color-interpolation-filters="sRGB"><feFuncR type="linear" slope="0" intercept="0.0"/><feFuncG type="linear" slope="0" intercept="0.0"/><feFuncB type="linear" slope="0" intercept="0.0"/><feFuncA type="linear" slope="0.5" intercept="0"/></feComponentTransfer></filter></defs><g id="p.3"><path fill="#b7b7b7" d="m17.412073 57.015747l358.2362 0l0 90.61418l-358.2362 0z" fill-rule="evenodd"/><path stroke="#595959" stroke-width="1.0" stroke-linejoin="round" stroke-linecap="butt" d="m17.412073 57.015747l358.2362 0l0 90.61418l-358.2362 0z" fill-rule="evenodd"/></g><path fill="#000000" fill-opacity="0.0" d="m125.41207 57.015747l142.2362 0l0 42.015747l-142.2362 0z" fill-rule="evenodd"/><path fill="#000000" d="m192.95206 69.85762l-10.375 0q-0.890625 0 -1.375 0.484375q-0.4375 0.453125 -0.4375 1.1875l0 5.640625q0 0.734375 0.453125 1.15625q0.46875 0.4375 1.296875 0.4375l10.515625 0q0.21875 0 0.34375 -0.15625q0.125 -0.140625 0.109375 -0.328125q0 -0.1875 -0.125 -0.34375q-0.15625 -0.125 -0.390625 -0.125l-10.28125 0q-0.4375 0 -0.625 -0.1875q-0.1875 -0.15625 -0.1875 -0.546875l0 -2.421875l10.890625 0q0.53125 0 0.53125 -0.484375q0 -0.453125 -0.53125 -0.453125l-10.890625 0l0 -2.0625q0 -0.453125 0.203125 -0.65625q0.21875 -0.1875 0.703125 -0.1875l10.25 0q0.21875 0 0.34375 -0.15625q0.125 -0.140625 0.109375 -0.3125q0 -0.21875 -0.125 -0.34375q-0.171875 -0.140625 -0.40625 -0.140625zm-6.4375 9.171875l0 3.625l-6.6875 0q-0.25 0 -0.40625 0.125q-0.125 0.15625 -0.140625 0.34375q-0.03125 0.1875 0.09375 0.328125q0.109375 0.15625 0.3125 0.15625l14.5625 0q0.234375 0 0.390625 -0.15625q0.140625 -0.140625 0.140625 -0.328125q0 -0.1875 -0.140625 -0.34375q-0.15625 -0.125 -0.40625 -0.125l-6.640625 0l0 -3.546875q0 -0.25 -0.1875 -0.40625q-0.15625 -0.140625 -0.359375 -0.140625q-0.21875 -0.03125 -0.375 0.109375q-0.15625 0.125 -0.15625 0.359375zm21.1875 -9.234375l-8.40625 0q-0.515625 0 -0.515625 0.46875q0 0.484375 0.515625 0.484375l8.40625 0q0.53125 0 0.53125 -0.484375q0 -0.46875 -0.53125 -0.46875zm-7.328125 2.25q0 0.90625 0.140625 2.265625q0.15625 1.21875 0.390625 2.484375l-2.109375 0.015625q-0.546875 0 -0.546875 0.4375q0 0.46875 0.546875 0.46875q3.0 0 5.546875 -0.234375q2.78125 -0.25 4.359375 -0.703125q0.234375 -0.0625 0.359375 -0.25q0.109375 -0.171875 0.0625 -0.34375q-0.03125 -0.203125 -0.203125 -0.296875q-0.1875 -0.125 -0.4375 -0.03125q-0.40625 0.125 -0.953125 0.234375q-0.328125 0.0625 -1.078125 0.203125l-0.296875 0.0625q0.203125 -1.015625 0.34375 -2.140625q0.15625 -1.265625 0.15625 -2.21875q0 -0.5 -0.53125 -0.5q-0.515625 0 -0.515625 0.5q0 0.953125 -0.140625 2.21875q-0.140625 1.296875 -0.34375 2.3125q-0.765625 0.078125 -1.640625 0.125q-0.859375 0.078125 -1.5 0.09375q-0.234375 -1.140625 -0.390625 -2.609375q-0.109375 -1.265625 -0.109375 -2.09375q0 -0.5 -0.5625 -0.5q-0.546875 0 -0.546875 0.5zm11.625 5.203125l0 -7.390625q0 -0.25 -0.171875 -0.375q-0.15625 -0.125 -0.375 -0.125q-0.25 0 -0.390625 0.125q-0.171875 0.140625 -0.171875 0.390625l0 7.375q0 0.265625 0.171875 0.4375q0.140625 0.140625 0.390625 0.140625q0.21875 0 0.375 -0.140625q0.171875 -0.171875 0.171875 -0.4375zm-1.78125 2.4375l-10.15625 0q-0.53125 0 -0.5 0.484375q0 0.484375 0.5 0.484375l10.0625 0q0.421875 0 0.59375 0.15625q0.171875 0.15625 0.171875 0.515625l0 3.0q0 0.265625 0.171875 0.421875q0.140625 0.140625 0.390625 0.140625q0.21875 0 0.375 -0.140625q0.171875 -0.15625 0.171875 -0.421875l0 -3.046875q0 -0.734375 -0.453125 -1.171875q-0.46875 -0.421875 -1.328125 -0.421875z" fill-rule="nonzero"/><g filter="url(#shadowFilter-p.4)"><use xlink:href="#p.4" transform="matrix(1.0 0.0 0.0 1.0 0.0 2.0)"/></g><defs><filter id="shadowFilter-p.4" filterUnits="userSpaceOnUse"><feGaussianBlur in="SourceAlpha" stdDeviation="2.0" result="blur"/><feComponentTransfer in="blur" color-interpolation-filters="sRGB"><feFuncR type="linear" slope="0" intercept="0.0"/><feFuncG type="linear" slope="0" intercept="0.0"/><feFuncB type="linear" slope="0" intercept="0.0"/><feFuncA type="linear" slope="0.5" intercept="0"/></feComponentTransfer></filter></defs><g id="p.4"><path fill="#eeeeee" d="m41.50656 98.355576l310.04724 0l0 35.2126l-310.04724 0z" fill-rule="evenodd"/><path stroke="#595959" stroke-width="1.0" stroke-linejoin="round" stroke-linecap="butt" d="m41.50656 98.355576l310.04724 0l0 35.2126l-310.04724 0z" fill-rule="evenodd"/></g><path fill="#ffffff" d="m124.34121 98.355576l35.212593 0l0 35.2126l-35.212593 0z" fill-rule="evenodd"/><path stroke="#595959" stroke-width="1.0" stroke-linejoin="round" stroke-linecap="butt" d="m124.34121 98.355576l35.212593 0l0 35.2126l-35.212593 0z" fill-rule="evenodd"/><path fill="#000000" d="m137.5409 116.288124q0 -2.359375 0.484375 -3.796875q0.484375 -1.453125 1.4375 -2.234375q0.96875 -0.78125 2.421875 -0.78125q1.078125 0 1.890625 0.4375q0.8125 0.421875 1.328125 1.25q0.53125 0.8125 0.828125 1.984375q0.3125 1.15625 0.3125 3.140625q0 2.359375 -0.484375 3.8125q-0.484375 1.4375 -1.453125 2.234375q-0.953125 0.78125 -2.421875 0.78125q-1.921875 0 -3.03125 -1.390625q-1.3125 -1.671875 -1.3125 -5.4375zm1.671875 0q0 3.296875 0.765625 4.390625q0.78125 1.078125 1.90625 1.078125q1.140625 0 1.90625 -1.09375q0.765625 -1.09375 0.765625 -4.375q0 -3.296875 -0.765625 -4.375q-0.765625 -1.078125 -1.921875 -1.078125q-1.125 0 -1.796875 0.953125q-0.859375 1.21875 -0.859375 4.5z" fill-rule="nonzero"/><path fill="#ffffff" d="m159.5538 98.355576l35.2126 0l0 35.2126l-35.2126 0z" fill-rule="evenodd"/><path stroke="#595959" stroke-width="1.0" stroke-linejoin="round" stroke-linecap="butt" d="m159.5538 98.355576l35.2126 0l0 35.2126l-35.2126 0z" fill-rule="evenodd"/><path fill="#000000" d="m178.92537 122.881874l-1.640625 0l0 -10.453125q-0.59375 0.5625 -1.5625 1.140625q-0.953125 0.5625 -1.71875 0.84375l0 -1.59375q1.375 -0.640625 2.40625 -1.5625q1.03125 -0.921875 1.453125 -1.78125l1.0625 0l0 13.40625z" fill-rule="nonzero"/><path fill="#ffffff" d="m194.7664 98.355576l35.2126 0l0 35.2126l-35.2126 0z" fill-rule="evenodd"/><path stroke="#595959" stroke-width="1.0" stroke-linejoin="round" stroke-linecap="butt" d="m194.7664 98.355576l35.2126 0l0 35.2126l-35.2126 0z" fill-rule="evenodd"/><path fill="#000000" d="m216.57547 121.30375l0 1.578125l-8.828125 0q-0.015625 -0.59375 0.1875 -1.140625q0.34375 -0.90625 1.078125 -1.78125q0.75 -0.875 2.15625 -2.015625q2.171875 -1.78125 2.9375 -2.828125q0.765625 -1.046875 0.765625 -1.96875q0 -0.984375 -0.703125 -1.640625q-0.6875 -0.671875 -1.8125 -0.671875q-1.1875 0 -1.90625 0.71875q-0.703125 0.703125 -0.703125 1.953125l-1.6875 -0.171875q0.171875 -1.890625 1.296875 -2.875q1.140625 -0.984375 3.03125 -0.984375q1.921875 0 3.046875 1.0625q1.125 1.0625 1.125 2.640625q0 0.796875 -0.328125 1.578125q-0.328125 0.78125 -1.09375 1.640625q-0.75 0.84375 -2.53125 2.34375q-1.46875 1.234375 -1.890625 1.6875q-0.421875 0.4375 -0.6875 0.875l6.546875 0z" fill-rule="nonzero"/><path fill="#ffffff" d="m229.979 98.355576l35.212585 0l0 35.2126l-35.212585 0z" fill-rule="evenodd"/><path stroke="#595959" stroke-width="1.0" stroke-linejoin="round" stroke-linecap="butt" d="m229.979 98.355576l35.212585 0l0 35.2126l-35.212585 0z" fill-rule="evenodd"/><path fill="#000000" d="m243.1787 119.350624l1.640625 -0.21875q0.28125 1.40625 0.953125 2.015625q0.6875 0.609375 1.65625 0.609375q1.15625 0 1.953125 -0.796875q0.796875 -0.796875 0.796875 -1.984375q0 -1.125 -0.734375 -1.859375q-0.734375 -0.734375 -1.875 -0.734375q-0.46875 0 -1.15625 0.171875l0.1875 -1.4375q0.15625 0.015625 0.265625 0.015625q1.046875 0 1.875 -0.546875q0.84375 -0.546875 0.84375 -1.671875q0 -0.90625 -0.609375 -1.5q-0.609375 -0.59375 -1.578125 -0.59375q-0.953125 0 -1.59375 0.609375q-0.640625 0.59375 -0.8125 1.796875l-1.640625 -0.296875q0.296875 -1.640625 1.359375 -2.546875q1.0625 -0.90625 2.65625 -0.90625q1.09375 0 2.0 0.46875q0.921875 0.46875 1.40625 1.28125q0.5 0.8125 0.5 1.71875q0 0.859375 -0.46875 1.578125q-0.46875 0.703125 -1.375 1.125q1.1875 0.28125 1.84375 1.140625q0.65625 0.859375 0.65625 2.15625q0 1.734375 -1.28125 2.953125q-1.265625 1.21875 -3.21875 1.21875q-1.765625 0 -2.921875 -1.046875q-1.15625 -1.046875 -1.328125 -2.71875z" fill-rule="nonzero"/><path fill="#ffffff" d="m265.1916 98.355576l35.212616 0l0 35.2126l-35.212616 0z" fill-rule="evenodd"/><path stroke="#595959" stroke-width="1.0" stroke-linejoin="round" stroke-linecap="butt" d="m265.1916 98.355576l35.212616 0l0 35.2126l-35.212616 0z" fill-rule="evenodd"/><path fill="#000000" d="m283.6413 122.881874l0 -3.203125l-5.796875 0l0 -1.5l6.09375 -8.65625l1.34375 0l0 8.65625l1.796875 0l0 1.5l-1.796875 0l0 3.203125l-1.640625 0zm0 -4.703125l0 -6.015625l-4.1875 6.015625l4.1875 0z" fill-rule="nonzero"/><path fill="#ffffff" d="m300.4042 98.34739l35.212585 0l0 35.21261l-35.212585 0z" fill-rule="evenodd"/><path stroke="#595959" stroke-width="1.0" stroke-linejoin="round" stroke-linecap="butt" d="m300.4042 98.34739l35.212585 0l0 35.21261l-35.212585 0z" fill-rule="evenodd"/><path fill="#000000" d="m313.60388 119.37369l1.71875 -0.140625q0.1875 1.25 0.875 1.890625q0.703125 0.625 1.6875 0.625q1.1875 0 2.0 -0.890625q0.828125 -0.890625 0.828125 -2.359375q0 -1.40625 -0.796875 -2.21875q-0.78125 -0.8125 -2.0625 -0.8125q-0.78125 0 -1.421875 0.359375q-0.640625 0.359375 -1.0 0.9375l-1.546875 -0.203125l1.296875 -6.859375l6.640625 0l0 1.5625l-5.328125 0l-0.71875 3.59375q1.203125 -0.84375 2.515625 -0.84375q1.75 0 2.953125 1.21875q1.203125 1.203125 1.203125 3.109375q0 1.8125 -1.046875 3.140625q-1.296875 1.625 -3.515625 1.625q-1.8125 0 -2.96875 -1.015625q-1.15625 -1.03125 -1.3125 -2.71875z" fill-rule="nonzero"/><path fill="#eeeeee" d="m41.50656 98.3477l82.83465 0l0 35.2126l-82.83465 0z" fill-rule="evenodd"/><path stroke="#595959" stroke-width="1.0" stroke-linejoin="round" stroke-linecap="butt" d="m41.50656 98.3477l82.83465 0l0 35.2126l-82.83465 0z" fill-rule="evenodd"/><path fill="#000000" d="m65.595764 108.858376l-8.406254 0q-0.515625 0 -0.515625 0.46875q0 0.484375 0.515625 0.484375l8.406254 0q0.53125 0 0.53125 -0.484375q0 -0.46875 -0.53125 -0.46875zm-7.250004 2.46875q0 2.078125 0.140625 4.984375q0.171875 2.984375 0.40625 4.96875l-2.203125 0.015625q-0.546875 0 -0.546875 0.46875q0 0.484375 0.546875 0.484375q3.015625 0 5.5625 -0.25q2.7656288 -0.25 4.343754 -0.734375q0.234375 -0.0625 0.359375 -0.25q0.109375 -0.15625 0.0625 -0.34375q-0.03125 -0.203125 -0.203125 -0.296875q-0.1875 -0.109375 -0.4375 -0.03125q-0.359375 0.09375 -0.8125 0.21875q-0.296875 0.046875 -0.921875 0.171875l-0.625 0.140625q0.265625 -1.75 0.40625 -4.59375q0.15625 -2.578125 0.15625 -5.015625q0 -0.484375 -0.53125 -0.484375q-0.5156288 0 -0.5156288 0.484375q0 2.4375 -0.140625 5.078125q-0.15625 2.84375 -0.390625 4.6875q-0.875 0.078125 -1.5625 0.125q-0.875 0.0625 -1.453125 0.0625q-0.25 -1.9375 -0.421875 -4.984375q-0.125 -2.765625 -0.125 -4.90625q0 -0.234375 -0.1875 -0.390625q-0.15625 -0.109375 -0.375 -0.109375q-0.21875 0 -0.375 0.109375q-0.15625 0.15625 -0.15625 0.390625zm11.015629 4.265625l0 -6.78125q0 -0.25 -0.1875 -0.390625q-0.140625 -0.109375 -0.375 -0.109375q-0.21875 0 -0.359375 0.109375q-0.171875 0.140625 -0.171875 0.390625l0 14.46875q0 0.25 0.171875 0.390625q0.140625 0.15625 0.359375 0.15625q0.234375 0 0.375 -0.15625q0.1875 -0.140625 0.1875 -0.390625l0 -6.765625l2.0625 0q0.4375 0 0.4375 -0.46875q0 -0.453125 -0.4375 -0.453125l-2.0625 0zm14.578125 -6.734375l-6.078125 0q-0.90625 0 -1.40625 0.53125q-0.453125 0.484375 -0.453125 1.28125l0 9.84375q0 0.8125 0.46875 1.34375q0.5 0.546875 1.40625 0.546875q2.15625 0 4.4375 -0.328125q2.328125 -0.328125 3.890625 -0.875q0.25 -0.09375 0.3125 -0.28125q0.09375 -0.1875 0 -0.359375q-0.0625 -0.1875 -0.25 -0.265625q-0.21875 -0.078125 -0.484375 0.03125q-1.5 0.546875 -3.640625 0.84375q-2.03125 0.296875 -4.234375 0.296875q-0.46875 0 -0.65625 -0.296875q-0.15625 -0.25 -0.15625 -0.859375l0 -4.890625l6.53125 0q0.5625 0 0.5625 -0.484375q0 -0.46875 -0.5625 -0.46875l-6.53125 0l0 -3.796875q0 -0.421875 0.171875 -0.640625q0.203125 -0.21875 0.609375 -0.21875l6.09375 0q0.25 0 0.421875 -0.15625q0.140625 -0.140625 0.140625 -0.328125q0 -0.1875 -0.140625 -0.328125q-0.171875 -0.140625 -0.453125 -0.140625zm4.953125 14.390625l0 -14.4375q0 -0.25 -0.171875 -0.390625q-0.15625 -0.109375 -0.375 -0.109375q-0.25 0 -0.390625 0.109375q-0.171875 0.140625 -0.171875 0.390625l0 14.4375q0 0.25 0.171875 0.421875q0.140625 0.15625 0.390625 0.15625q0.21875 0 0.375 -0.15625q0.171875 -0.171875 0.171875 -0.421875zm9.796875 -14.015625q0 2.359375 -1.15625 4.609375q-1.140625 2.171875 -3.015625 3.625q-0.234375 0.171875 -0.28125 0.421875q-0.015625 0.203125 0.125 0.359375q0.140625 0.15625 0.328125 0.1875q0.21875 0.015625 0.40625 -0.125q1.34375 -1.09375 2.359375 -2.4375q0.796875 -1.078125 1.359375 -2.21875q1.125 0.828125 2.140625 1.8125q1.140625 1.078125 2.125 2.328125q0.15625 0.203125 0.421875 0.21875q0.203125 0 0.390625 -0.15625q0.171875 -0.15625 0.1875 -0.390625q0.015625 -0.25 -0.171875 -0.5q-1.171875 -1.3125 -2.296875 -2.3125q-1.15625 -1.046875 -2.4375 -1.90625q0.3125 -0.859375 0.46875 -1.765625q0.171875 -0.875 0.171875 -1.75q0 -0.25 -0.1875 -0.40625q-0.15625 -0.125 -0.375 -0.125q-0.234375 0 -0.390625 0.125q-0.171875 0.15625 -0.171875 0.40625zm9.203125 9.796875l0 -10.234375q0 -0.25 -0.171875 -0.375q-0.15625 -0.125 -0.375 -0.125q-0.25 0 -0.390625 0.125q-0.171875 0.140625 -0.171875 0.390625l0 1.765625l-4.328125 0q-0.234375 0 -0.375 0.125q-0.125 0.140625 -0.125 0.328125q0.03125 0.1875 0.171875 0.34375q0.171875 0.140625 0.453125 0.140625l4.203125 0l0 2.125l-4.359375 0q-0.59375 0 -0.59375 0.453125q0 0.484375 0.578125 0.484375l4.375 0l0 4.453125q0 0.28125 0.171875 0.453125q0.140625 0.140625 0.390625 0.140625q0.21875 0 0.375 -0.140625q0.171875 -0.171875 0.171875 -0.453125zm-10.8125 0.21875q0 -0.296875 -0.1875 -0.453125q-0.140625 -0.15625 -0.375 -0.15625q-0.234375 0 -0.375 0.15625q-0.171875 0.15625 -0.171875 0.453125l0 2.46875q0 0.828125 0.515625 1.25q0.484375 0.40625 1.3125 0.40625l10.1875 0q0.46875 0 0.46875 -0.484375q0 -0.46875 -0.46875 -0.46875l-10.0 0q-0.53125 0 -0.71875 -0.15625q-0.1875 -0.1875 -0.1875 -0.6875l0 -2.328125z" fill-rule="nonzero"/><g filter="url(#shadowFilter-p.5)"><use xlink:href="#p.5" transform="matrix(1.0 0.0 0.0 1.0 0.0 2.0)"/></g><defs><filter id="shadowFilter-p.5" filterUnits="userSpaceOnUse"><feGaussianBlur in="SourceAlpha" stdDeviation="2.0" result="blur"/><feComponentTransfer in="blur" color-interpolation-filters="sRGB"><feFuncR type="linear" slope="0" intercept="0.0"/><feFuncG type="linear" slope="0" intercept="0.0"/><feFuncB type="linear" slope="0" intercept="0.0"/><feFuncA type="linear" slope="0.5" intercept="0"/></feComponentTransfer></filter></defs><g id="p.5"><path fill="#eeeeee" d="m508.89764 98.350395l114.04724 0l0 35.212593l-114.04724 0z" fill-rule="evenodd"/><path stroke="#595959" stroke-width="1.0" stroke-linejoin="round" stroke-linecap="butt" d="m508.89764 98.350395l114.04724 0l0 35.212593l-114.04724 0z" fill-rule="evenodd"/><path fill="#000000" d="m530.52234 108.82982l0 1.046875l6.796875 0q-0.0625 0.609375 -0.203125 1.109375q-0.15625 0.484375 -0.5 1.140625q-1.765625 0.234375 -3.78125 0.375q-1.859375 0.15625 -3.109375 0.15625l0.453125 1.09375q0.125 0.25 0.21875 0.296875q0.078125 0.015625 0.28125 -0.09375q0.140625 -0.09375 0.234375 -0.140625q0.1875 -0.078125 0.390625 -0.109375l4.75 -0.546875q-0.734375 1.4375 -2.484375 2.8125q-1.78125 1.40625 -4.046875 2.28125l1.0 0.90625q3.296875 -1.453125 5.328125 -3.78125q2.359375 -2.703125 2.984375 -6.546875l-8.3125 0zm13.140625 -1.078125l-0.875 0l0 5.109375l-4.1875 0l0 1.03125l4.1875 0l0 6.109375l1.25 0l0 -11.5625q0 -0.109375 0.03125 -0.21875q0.046875 -0.0625 0.09375 -0.171875q0.109375 -0.1875 0.0625 -0.21875q-0.078125 -0.078125 -0.5625 -0.078125zm-10.140625 10.96875l-0.921875 0l0 5.234375l11.828125 0l0 -1.015625l-10.59375 0l0 -3.65625q0 -0.078125 0.015625 -0.15625q0.015625 -0.046875 0.0625 -0.125q0.078125 -0.171875 0.046875 -0.203125q-0.078125 -0.078125 -0.4375 -0.078125zm17.515625 -3.859375q2.140625 -0.78125 3.90625 -2.25q1.671875 -1.375 2.234375 -2.671875q0.75 1.359375 2.21875 2.515625q1.671875 1.28125 3.984375 2.078125l0.578125 -1.125q-1.328125 -0.234375 -2.5625 -0.890625q-1.03125 -0.546875 -1.90625 -1.375q-0.765625 -0.671875 -1.203125 -1.359375q-0.40625 -0.640625 -0.375 -0.9375q0 -0.15625 0.078125 -0.328125q0.03125 -0.109375 0.140625 -0.296875q0.15625 -0.265625 0.140625 -0.359375q-0.015625 -0.109375 -0.390625 -0.109375l-1.15625 0q-0.09375 1.828125 -1.796875 3.515625q-1.765625 1.734375 -4.46875 2.53125l0.578125 1.0625zm14.0 1.765625l-15.65625 0l0 1.015625l3.6875 0l0 6.140625l1.203125 0l0 -6.140625l5.875 0l0 6.734375l1.203125 0l0 -6.734375l3.6875 0l0 -1.015625zm9.921875 -6.140625l0 8.109375l-5.21875 0l0 -8.109375l5.21875 0zm-6.46875 -1.046875l0 11.0l1.25 0l0 -0.8125l5.21875 0l0 0.5l1.25 0l0 -10.6875l-7.71875 0zm7.71875 4.921875l0 1.03125l4.578125 0l0 8.984375l1.25 0l0 -15.96875q0 -0.078125 0.015625 -0.171875q0.015625 -0.0625 0.078125 -0.140625q0.09375 -0.1875 0.046875 -0.25q-0.03125 -0.09375 -0.359375 -0.09375l-1.03125 0l0 6.609375l-4.578125 0zm17.033203 1.6875q0 3.34375 1.109375 5.109375q1.140625 1.734375 3.25 1.734375q2.09375 0 3.21875 -1.734375q1.140625 -1.765625 1.140625 -5.09375q0 -3.34375 -1.140625 -5.09375q-1.125 -1.75 -3.21875 -1.75q-2.109375 0 -3.25 1.71875q-1.109375 1.765625 -1.109375 5.109375zm1.296875 0q0 -2.90625 0.75 -4.3125q0.734375 -1.390625 2.3125 -1.390625q1.546875 0 2.296875 1.390625q0.765625 1.40625 0.765625 4.3125q0 2.890625 -0.765625 4.296875q-0.75 1.421875 -2.296875 1.421875q-1.578125 0 -2.3125 -1.421875q-0.75 -1.40625 -0.75 -4.296875z" fill-rule="nonzero"/></g><path fill="#000000" fill-opacity="0.0" d="m335.6168 115.95369l173.29135 0" fill-rule="evenodd"/><path stroke="#595959" stroke-width="3.0" stroke-linejoin="round" stroke-linecap="butt" d="m335.6168 115.95369l155.29135 0" fill-rule="evenodd"/><path fill="#595959" stroke="#595959" stroke-width="3.0" stroke-linecap="butt" d="m490.90814 120.90889l13.614288 -4.9552l-13.614288 -4.9552z" fill-rule="evenodd"/><path fill="#000000" fill-opacity="0.0" d="m565.92126 133.56299l0 30.771652l-181.10236 0" fill-rule="evenodd"/><path stroke="#595959" stroke-width="3.0" stroke-linejoin="round" stroke-linecap="butt" d="m565.92126 133.56299l0 30.771652l-163.10236 0" fill-rule="evenodd"/><path fill="#595959" stroke="#595959" stroke-width="3.0" stroke-linecap="butt" d="m402.8189 159.37946l-13.614319 4.955185l13.614319 4.9552z" fill-rule="evenodd"/><path fill="#000000" fill-opacity="0.0" d="m378.2021 79.34934l114.04724 0l0 42.015747l-114.04724 0z" fill-rule="evenodd"/><path fill="#000000" d="m415.72687 109.972466l0 -13.375l1.484375 0l0 1.25q0.53125 -0.734375 1.1875 -1.09375q0.671875 -0.375 1.625 -0.375q1.234375 0 2.171875 0.640625q0.953125 0.625 1.4375 1.796875q0.484375 1.15625 0.484375 2.546875q0 1.484375 -0.53125 2.671875q-0.53125 1.1875 -1.546875 1.828125q-1.015625 0.625 -2.140625 0.625q-0.8125 0 -1.46875 -0.34375q-0.65625 -0.34375 -1.0625 -0.875l0 4.703125l-1.640625 0zm1.484375 -8.484375q0 1.859375 0.75 2.765625q0.765625 0.890625 1.828125 0.890625q1.09375 0 1.875 -0.921875q0.78125 -0.9375 0.78125 -2.875q0 -1.84375 -0.765625 -2.765625q-0.75 -0.921875 -1.8125 -0.921875q-1.046875 0 -1.859375 0.984375q-0.796875 0.96875 -0.796875 2.84375zm8.281982 -0.0625q0 -2.6875 1.484375 -3.96875q1.25 -1.078125 3.046875 -1.078125q2.0 0 3.265625 1.3125q1.265625 1.296875 1.265625 3.609375q0 1.859375 -0.5625 2.9375q-0.5625 1.0625 -1.640625 1.65625q-1.0625 0.59375 -2.328125 0.59375q-2.03125 0 -3.28125 -1.296875q-1.25 -1.3125 -1.25 -3.765625zm1.6875 0q0 1.859375 0.796875 2.796875q0.8125 0.921875 2.046875 0.921875q1.21875 0 2.03125 -0.921875q0.8125 -0.9375 0.8125 -2.84375q0 -1.796875 -0.8125 -2.71875q-0.8125 -0.921875 -2.03125 -0.921875q-1.234375 0 -2.046875 0.921875q-0.796875 0.90625 -0.796875 2.765625zm9.250702 4.84375l0 -13.359375l1.640625 0l0 13.359375l-1.640625 0zm4.1448364 0l0 -13.359375l1.640625 0l0 13.359375l-1.640625 0zm7.316681 3.921875q-1.359375 -1.703125 -2.296875 -4.0q-0.9375 -2.296875 -0.9375 -4.765625q0 -2.15625 0.703125 -4.140625q0.828125 -2.3125 2.53125 -4.59375l1.171875 0q-1.09375 1.890625 -1.453125 2.703125q-0.546875 1.25 -0.875 2.625q-0.390625 1.703125 -0.390625 3.421875q0 4.375 2.71875 8.75l-1.171875 0zm4.165802 0l-1.1875 0q2.734375 -4.375 2.734375 -8.75q0 -1.71875 -0.390625 -3.390625q-0.3125 -1.375 -0.875 -2.625q-0.359375 -0.828125 -1.46875 -2.734375l1.1875 0q1.703125 2.28125 2.53125 4.59375q0.6875 1.984375 0.6875 4.140625q0 2.46875 -0.9375 4.765625q-0.9375 2.296875 -2.28125 4.0z" fill-rule="nonzero"/><path fill="#000000" fill-opacity="0.0" d="m426.2021 159.34933l114.04724 0l0 42.015762l-114.04724 0z" fill-rule="evenodd"/><path fill="#000000" d="m454.50314 182.72246l1.609375 0.21875q-0.265625 1.65625 -1.359375 2.609375q-1.078125 0.9375 -2.671875 0.9375q-1.984375 0 -3.1875 -1.296875q-1.203125 -1.296875 -1.203125 -3.71875q0 -1.578125 0.515625 -2.75q0.515625 -1.171875 1.578125 -1.75q1.0625 -0.59375 2.3125 -0.59375q1.578125 0 2.578125 0.796875q1.0 0.796875 1.28125 2.265625l-1.59375 0.234375q-0.234375 -0.96875 -0.8125 -1.453125q-0.578125 -0.5 -1.390625 -0.5q-1.234375 0 -2.015625 0.890625q-0.78125 0.890625 -0.78125 2.8125q0 1.953125 0.75 2.84375q0.75 0.875 1.953125 0.875q0.96875 0 1.609375 -0.59375q0.65625 -0.59375 0.828125 -1.828125zm2.40625 -1.296875q0 -2.6875 1.484375 -3.96875q1.25 -1.078125 3.046875 -1.078125q2.0 0 3.265625 1.3125q1.265625 1.296875 1.265625 3.609375q0 1.859375 -0.5625 2.9375q-0.5625 1.0625 -1.640625 1.65625q-1.0625 0.59375 -2.328125 0.59375q-2.03125 0 -3.28125 -1.296875q-1.25 -1.3125 -1.25 -3.765625zm1.6875 0q0 1.859375 0.796875 2.796875q0.8125 0.921875 2.046875 0.921875q1.21875 0 2.03125 -0.921875q0.8125 -0.9375 0.8125 -2.84375q0 -1.796875 -0.8125 -2.71875q-0.8125 -0.921875 -2.03125 -0.921875q-1.234375 0 -2.046875 0.921875q-0.796875 0.90625 -0.796875 2.765625zm9.297577 4.84375l0 -9.671875l1.46875 0l0 1.359375q0.453125 -0.71875 1.203125 -1.140625q0.765625 -0.4375 1.71875 -0.4375q1.078125 0 1.765625 0.453125q0.6875 0.4375 0.96875 1.234375q1.15625 -1.6875 2.984375 -1.6875q1.453125 0 2.21875 0.796875q0.78125 0.796875 0.78125 2.453125l0 6.640625l-1.640625 0l0 -6.09375q0 -0.984375 -0.15625 -1.40625q-0.15625 -0.4375 -0.578125 -0.703125q-0.421875 -0.265625 -0.984375 -0.265625q-1.015625 0 -1.6875 0.6875q-0.671875 0.671875 -0.671875 2.15625l0 5.625l-1.640625 0l0 -6.28125q0 -1.09375 -0.40625 -1.640625q-0.40625 -0.546875 -1.3125 -0.546875q-0.6875 0 -1.28125 0.359375q-0.59375 0.359375 -0.859375 1.0625q-0.25 0.703125 -0.25 2.03125l0 5.015625l-1.640625 0zm15.540802 0l0 -9.671875l1.46875 0l0 1.359375q0.453125 -0.71875 1.203125 -1.140625q0.765625 -0.4375 1.71875 -0.4375q1.078125 0 1.765625 0.453125q0.6875 0.4375 0.96875 1.234375q1.15625 -1.6875 2.984375 -1.6875q1.453125 0 2.21875 0.796875q0.78125 0.796875 0.78125 2.453125l0 6.640625l-1.640625 0l0 -6.09375q0 -0.984375 -0.15625 -1.40625q-0.15625 -0.4375 -0.578125 -0.703125q-0.421875 -0.265625 -0.984375 -0.265625q-1.015625 0 -1.6875 0.6875q-0.671875 0.671875 -0.671875 2.15625l0 5.625l-1.640625 0l0 -6.28125q0 -1.09375 -0.40625 -1.640625q-0.40625 -0.546875 -1.3125 -0.546875q-0.6875 0 -1.28125 0.359375q-0.59375 0.359375 -0.859375 1.0625q-0.25 0.703125 -0.25 2.03125l0 5.015625l-1.640625 0zm15.540802 -11.46875l0 -1.890625l1.640625 0l0 1.890625l-1.640625 0zm0 11.46875l0 -9.671875l1.640625 0l0 9.671875l-1.640625 0zm7.7229614 -1.46875l0.234375 1.453125q-0.6875 0.140625 -1.234375 0.140625q-0.890625 0 -1.390625 -0.28125q-0.484375 -0.28125 -0.6875 -0.734375q-0.203125 -0.46875 -0.203125 -1.9375l0 -5.578125l-1.203125 0l0 -1.265625l1.203125 0l0 -2.390625l1.625 -0.984375l0 3.375l1.65625 0l0 1.265625l-1.65625 0l0 5.671875q0 0.6875 0.078125 0.890625q0.09375 0.203125 0.28125 0.328125q0.203125 0.109375 0.578125 0.109375q0.265625 0 0.71875 -0.0625zm4.7301636 5.390625q-1.359375 -1.703125 -2.296875 -4.0q-0.9375 -2.296875 -0.9375 -4.765625q0 -2.15625 0.703125 -4.140625q0.828125 -2.3125 2.53125 -4.59375l1.171875 0q-1.09375 1.890625 -1.453125 2.703125q-0.546875 1.25 -0.875 2.625q-0.390625 1.703125 -0.390625 3.421875q0 4.375 2.71875 8.75l-1.171875 0zm4.1658325 0l-1.1875 0q2.734375 -4.375 2.734375 -8.75q0 -1.71875 -0.390625 -3.390625q-0.3125 -1.375 -0.875 -2.625q-0.359375 -0.828125 -1.46875 -2.734375l1.1875 0q1.703125 2.28125 2.53125 4.59375q0.6875 1.984375 0.6875 4.140625q0 2.46875 -0.9375 4.765625q-0.9375 2.296875 -2.28125 4.0z" fill-rule="nonzero"/></g></svg>