<svg version="1.1" viewBox="0.0 0.0 960.0 540.0" fill="none" stroke="none" stroke-linecap="square" stroke-miterlimit="10" xmlns:xlink="http://www.w3.org/1999/xlink" xmlns="http://www.w3.org/2000/svg"><clipPath id="g11ddf0a0acf_1_50.0"><path d="m0 0l960.0 0l0 540.0l-960.0 0l0 -540.0z" clip-rule="nonzero"/></clipPath><g clip-path="url(#g11ddf0a0acf_1_50.0)"><path fill="#ffffff" d="m0 0l960.0 0l0 540.0l-960.0 0z" fill-rule="evenodd"/><g filter="url(#shadowFilter-g11ddf0a0acf_1_50.1)"><use xlink:href="#g11ddf0a0acf_1_50.1" transform="matrix(1.0 0.0 0.0 1.0 0.0 2.0)"/></g><defs><filter id="shadowFilter-g11ddf0a0acf_1_50.1" filterUnits="userSpaceOnUse"><feGaussianBlur in="SourceAlpha" stdDeviation="2.0" result="blur"/><feComponentTransfer in="blur" color-interpolation-filters="sRGB"><feFuncR type="linear" slope="0" intercept="0.0"/><feFuncG type="linear" slope="0" intercept="0.0"/><feFuncB type="linear" slope="0" intercept="0.0"/><feFuncA type="linear" slope="0.5" intercept="0"/></feComponentTransfer></filter></defs><g id="g11ddf0a0acf_1_50.1"><path fill="#eeeeee" d="m21.28662 97.05774l152.66142 0l0 57.228348l-152.66142 0z" fill-rule="evenodd"/><path stroke="#595959" stroke-width="1.0" stroke-linejoin="round" stroke-linecap="butt" d="m21.28662 97.05774l152.66142 0l0 57.228348l-152.66142 0z" fill-rule="evenodd"/><path fill="#000000" d="m63.179832 118.81066l0 0.953125l11.875 0l0 -0.953125l-11.875 0zm3.1875 1.8125l-0.875 0l0.5625 4.421875l-2.609375 0l0 0.9375l11.34375 0l0 -0.9375l-2.671875 0l0.5 -3.703125q0.03125 -0.109375 0.09375 -0.21875q0.046875 -0.046875 0.140625 -0.140625q0.125 -0.140625 0.09375 -0.1875q-0.046875 -0.078125 -0.40625 -0.140625l-0.984375 -0.15625l-0.59375 4.546875l-3.703125 0l-0.453125 -3.8125q-0.03125 -0.09375 0.015625 -0.203125q0.015625 -0.046875 0.046875 -0.140625q0.09375 -0.15625 0.046875 -0.203125q-0.09375 -0.0625 -0.546875 -0.0625zm-5.078125 10.078133l0 1.015625l15.65625 0l0 -1.015625l-15.65625 0zm21.09375 -11.593758l0 1.03125l10.25 0l0 2.640625l-10.15625 0l0 4.75l5.140625 0l0 3.2656326l-7.421875 0l0 1.03125l16.15625 0l0 -1.03125l-7.453125 0l0 -3.2656326l5.34375 0l0 -0.984375l-10.546875 0l0 -2.828125l10.140625 0l0 -4.609375l-11.453125 0zm19.0625 -1.234375l0 6.09375l11.609375 0l0 -1.046875l-10.375 0l0 -4.0l10.109375 0l0 -1.046875l-11.34375 0zm13.5 8.46875l-15.65625 0l0 1.015625l3.6875 0l0 6.1406326l1.203125 0l0 -6.1406326l5.875 0l0 6.7343826l1.203125 0l0 -6.7343826l3.6875 0l0 -1.015625zm8.359375 -7.5625l-1.078125 -0.140625q-0.15625 3.578125 -1.5625 6.375q-1.296875 2.640625 -3.234375 3.7187576l1.1875 0.8125q1.34375 -1.046875 2.4375 -2.7968826q0.96875 -1.546875 1.5 -3.1875q0.515625 1.6875 1.375 3.0625q0.9375 1.4843826 2.515625 2.9218826l1.21875 -0.875q-1.9375 -1.2812576 -3.140625 -3.4375076q-1.3125 -2.375 -1.15625 -4.828125q0.015625 -0.3125 0.109375 -0.65625q0.0625 -0.1875 0.1875 -0.453125q0.140625 -0.28125 0.09375 -0.359375q-0.046875 -0.109375 -0.453125 -0.15625zm3.078125 4.625l0 1.015625l4.4531174 0l0 9.078133l1.25 0l0 -15.687508q0 -0.09375 0.046875 -0.171875q0.015625 -0.0625 0.078125 -0.1875q0.078125 -0.171875 0.046875 -0.21875q-0.046875 -0.09375 -0.390625 -0.09375l-1.03125 0l0 6.265625l-4.4531174 0z" fill-rule="nonzero"/></g><g filter="url(#shadowFilter-g11ddf0a0acf_1_50.2)"><use xlink:href="#g11ddf0a0acf_1_50.2" transform="matrix(1.0 0.0 0.0 1.0 0.0 2.0)"/></g><defs><filter id="shadowFilter-g11ddf0a0acf_1_50.2" filterUnits="userSpaceOnUse"><feGaussianBlur in="SourceAlpha" stdDeviation="2.0" result="blur"/><feComponentTransfer in="blur" color-interpolation-filters="sRGB"><feFuncR type="linear" slope="0" intercept="0.0"/><feFuncG type="linear" slope="0" intercept="0.0"/><feFuncB type="linear" slope="0" intercept="0.0"/><feFuncA type="linear" slope="0.5" intercept="0"/></feComponentTransfer></filter></defs><g id="g11ddf0a0acf_1_50.2"><path fill="#b7b7b7" d="m336.1554 0l279.6535 0l0 534.2992l-279.6535 0z" fill-rule="evenodd"/><path stroke="#595959" stroke-width="1.0" stroke-linejoin="round" stroke-linecap="butt" d="m336.1554 0l279.6535 0l0 534.2992l-279.6535 0z" fill-rule="evenodd"/></g><path fill="#000000" fill-opacity="0.0" d="m420.4636 -2.6246718E-7l111.055145 0l0 64.62992l-111.055145 0z" fill-rule="evenodd"/><path fill="#000000" d="m455.74115 12.904373l-5.421875 0q-0.28125 0 -0.4375 0.140625q-0.125 0.140625 -0.125 0.328125q0 0.1875 0.125 0.328125q0.171875 0.15625 0.453125 0.15625l5.375 0q0.515625 0 0.75 0.21875q0.21875 0.21875 0.21875 0.65625l0 2.75q0 3.5625 -1.734375 5.59375q-1.734375 2.0625 -5.109375 2.453125q-0.53125 0.046875 -0.453125 0.53125q0.0625 0.484375 0.578125 0.453125q3.640625 -0.359375 5.703125 -2.6875q2.078125 -2.375 2.078125 -6.296875l0 -2.875q0 -0.8125 -0.546875 -1.28125q-0.515625 -0.46875 -1.453125 -0.46875zm-0.140625 4.71875q-1.0625 0.265625 -2.859375 0.5q-1.796875 0.21875 -2.96875 0.21875q-0.53125 0 -0.53125 0.484375q0 0.484375 0.546875 0.484375q1.234375 0 3.140625 -0.265625q1.84375 -0.234375 2.96875 -0.53125q0.234375 -0.078125 0.359375 -0.265625q0.109375 -0.15625 0.046875 -0.328125q-0.046875 -0.1875 -0.234375 -0.28125q-0.1875 -0.09375 -0.46875 -0.015625zm6.828125 2.015625l0 -6.78125q0 -0.25 -0.1875 -0.390625q-0.140625 -0.109375 -0.375 -0.109375q-0.21875 0 -0.359375 0.109375q-0.171875 0.140625 -0.171875 0.390625l0 14.46875q0 0.25 0.171875 0.390625q0.140625 0.15625 0.359375 0.15625q0.234375 0 0.375 -0.15625q0.1875 -0.140625 0.1875 -0.390625l0 -6.765625l2.0625 0q0.4375 0 0.4375 -0.46875q0 -0.453125 -0.4375 -0.453125l-2.0625 0zm19.5625 0.578125l-2.3125 0l0.578125 -5.03125q0.015625 -0.265625 -0.140625 -0.4375q-0.140625 -0.125 -0.359375 -0.15625q-0.21875 -0.015625 -0.390625 0.09375q-0.171875 0.140625 -0.1875 0.390625l-0.59375 5.140625l-5.1875 0l-0.578125 -5.15625q-0.03125 -0.25 -0.21875 -0.390625q-0.171875 -0.109375 -0.390625 -0.09375q-0.21875 0.015625 -0.359375 0.15625q-0.15625 0.15625 -0.125 0.421875l0.578125 5.0625l-2.3125 0q-0.46875 0 -0.46875 0.46875q-0.03125 0.484375 0.421875 0.484375l12.078125 0q0.46875 0 0.4375 -0.484375q0 -0.46875 -0.46875 -0.46875zm-0.078125 -7.375l-11.890625 0q-0.53125 0 -0.5 0.484375q0 0.46875 0.5 0.46875l11.96875 0q0.21875 0 0.34375 -0.15625q0.125 -0.140625 0.109375 -0.3125q0 -0.21875 -0.125 -0.34375q-0.171875 -0.140625 -0.40625 -0.140625zm1.265625 12.796875l-14.390625 0q-0.25 0 -0.40625 0.125q-0.125 0.15625 -0.140625 0.34375q-0.03125 0.1875 0.09375 0.328125q0.109375 0.15625 0.3125 0.15625l14.671875 0q0.203125 0 0.3125 -0.15625q0.109375 -0.140625 0.109375 -0.328125q-0.015625 -0.1875 -0.15625 -0.34375q-0.15625 -0.125 -0.40625 -0.125zm10.5625 -12.734375l-5.421875 0q-0.28125 0 -0.4375 0.140625q-0.125 0.140625 -0.125 0.328125q0 0.1875 0.125 0.328125q0.171875 0.15625 0.453125 0.15625l5.375 0q0.515625 0 0.75 0.21875q0.21875 0.21875 0.21875 0.65625l0 2.75q0 3.5625 -1.734375 5.59375q-1.734375 2.0625 -5.109375 2.453125q-0.53125 0.046875 -0.453125 0.53125q0.0625 0.484375 0.578125 0.453125q3.640625 -0.359375 5.703125 -2.6875q2.078125 -2.375 2.078125 -6.296875l0 -2.875q0 -0.8125 -0.546875 -1.28125q-0.515625 -0.46875 -1.453125 -0.46875zm-0.140625 4.71875q-1.0625 0.265625 -2.859375 0.5q-1.796875 0.21875 -2.96875 0.21875q-0.53125 0 -0.53125 0.484375q0 0.484375 0.546875 0.484375q1.234375 0 3.140625 -0.265625q1.84375 -0.234375 2.96875 -0.53125q0.234375 -0.078125 0.359375 -0.265625q0.109375 -0.15625 0.046875 -0.328125q-0.046875 -0.1875 -0.234375 -0.28125q-0.1875 -0.09375 -0.46875 -0.015625zm6.828125 2.015625l0 -6.78125q0 -0.25 -0.1875 -0.390625q-0.140625 -0.109375 -0.375 -0.109375q-0.21875 0 -0.359375 0.109375q-0.171875 0.140625 -0.171875 0.390625l0 14.46875q0 0.25 0.171875 0.390625q0.140625 0.15625 0.359375 0.15625q0.234375 0 0.375 -0.15625q0.1875 -0.140625 0.1875 -0.390625l0 -6.765625l2.0625 0q0.4375 0 0.4375 -0.46875q0 -0.453125 -0.4375 -0.453125l-2.0625 0z" fill-rule="nonzero"/><path fill="#000000" d="m451.53802 38.11687q-1.75 0.234375 -4.765625 0.359375q-2.609375 0.125 -5.390625 0.125q-0.5625 0 -0.5625 0.453125q0 0.484375 0.5625 0.484375q2.78125 0 5.578125 -0.125q3.03125 -0.125 4.796875 -0.359375q0.21875 -0.03125 0.359375 -0.203125q0.09375 -0.140625 0.046875 -0.34375q-0.03125 -0.1875 -0.1875 -0.296875q-0.171875 -0.140625 -0.4375 -0.09375zm0.375 -3.109375l-10.25 0q-0.5 0 -0.515625 0.484375q0 0.484375 0.5 0.484375l10.203125 0q0.46875 0 0.65625 0.171875q0.140625 0.171875 0.140625 0.515625l0 1.671875q0 1.078125 -0.1875 1.859375q-0.25 1.046875 -0.890625 1.9375l1.15625 0q0.5625 -0.765625 0.8125 -1.828125q0.21875 -0.890625 0.21875 -1.953125l0 -1.828125q0 -0.671875 -0.5 -1.078125q-0.5 -0.4375 -1.34375 -0.4375zm2.78125 6.578125l-14.421875 0q-0.5 0 -0.53125 0.453125q-0.046875 0.46875 0.40625 0.46875l14.671875 0q0.203125 0 0.3125 -0.140625q0.109375 -0.140625 0.109375 -0.328125q-0.015625 -0.203125 -0.140625 -0.328125q-0.171875 -0.125 -0.40625 -0.125zm-2.640625 2.59375l-10.296875 0q-0.5625 0 -0.578125 0.46875q0 0.484375 0.5625 0.484375l10.1875 0q0.390625 0 0.546875 0.125q0.171875 0.140625 0.171875 0.46875l0 0.453125q0 0.25 -0.1875 0.359375q-0.15625 0.109375 -0.5 0.109375l-9.3125 0q-0.6875 0 -1.0625 0.359375q-0.359375 0.359375 -0.359375 0.96875l0 0.828125q0 0.578125 0.34375 0.90625q0.359375 0.359375 0.984375 0.359375l10.90625 0q0.25 0 0.375 -0.15625q0.125 -0.140625 0.125 -0.328125q-0.015625 -0.1875 -0.140625 -0.34375q-0.171875 -0.125 -0.421875 -0.125l-10.4375 0q-0.328125 0 -0.484375 -0.109375q-0.140625 -0.109375 -0.140625 -0.390625l0 -0.453125q0 -0.265625 0.125 -0.421875q0.15625 -0.140625 0.515625 -0.140625l9.421875 0q0.59375 0 0.96875 -0.390625q0.390625 -0.359375 0.390625 -0.890625l0 -0.890625q0 -0.578125 -0.515625 -0.9375q-0.484375 -0.3125 -1.1875 -0.3125zm12.875 -8.90625l-4.859375 0q-0.59375 0 -0.59375 0.46875q-0.015625 0.453125 0.5625 0.453125l4.53125 0q0.546875 0 0.8125 0.171875q0.234375 0.1875 0.234375 0.578125l0 3.359375q0 0.375 -0.234375 0.53125q-0.21875 0.15625 -0.703125 0.15625l-3.5 0q-0.734375 0 -1.203125 0.515625q-0.40625 0.484375 -0.40625 1.171875l0 4.078125q0 0.875 0.453125 1.390625q0.46875 0.578125 1.359375 0.578125q2.0625 0 3.984375 -0.3125q1.9375 -0.3125 3.40625 -0.890625q0.21875 -0.109375 0.28125 -0.3125q0.046875 -0.1875 -0.015625 -0.375q-0.09375 -0.1875 -0.28125 -0.265625q-0.203125 -0.09375 -0.453125 0.015625q-1.25 0.53125 -2.875 0.84375q-1.84375 0.375 -3.765625 0.375q-0.546875 0 -0.78125 -0.265625q-0.21875 -0.234375 -0.21875 -0.71875l0 -4.0q0 -0.484375 0.171875 -0.6875q0.1875 -0.21875 0.640625 -0.21875l3.390625 0q0.9375 0 1.40625 -0.40625q0.421875 -0.375 0.421875 -1.0625l0 -3.765625q0 -0.6875 -0.484375 -1.046875q-0.453125 -0.359375 -1.28125 -0.359375zm7.53125 14.34375l0 -14.3125q0 -0.265625 -0.171875 -0.421875q-0.15625 -0.125 -0.375 -0.125q-0.25 0 -0.390625 0.125q-0.171875 0.15625 -0.171875 0.421875l0 6.078125l-3.171875 0q-0.265625 0 -0.390625 0.125q-0.125 0.15625 -0.125 0.328125q0.015625 0.1875 0.171875 0.34375q0.15625 0.140625 0.4375 0.140625l3.078125 0l0 7.296875q0 0.3125 0.171875 0.5q0.140625 0.171875 0.390625 0.171875q0.21875 0 0.375 -0.171875q0.171875 -0.203125 0.171875 -0.5zm12.5 -14.078125q0 2.875 -1.984375 4.90625q-1.71875 1.765625 -4.015625 2.234375q-0.296875 0.046875 -0.421875 0.234375q-0.140625 0.15625 -0.109375 0.359375q0.03125 0.1875 0.203125 0.296875q0.1875 0.109375 0.453125 0.078125q2.25 -0.453125 4.09375 -2.140625q1.75 -1.578125 2.3125 -3.453125q0.59375 1.859375 2.3125 3.453125q1.828125 1.671875 3.984375 2.109375q0.3125 0.0625 0.53125 -0.046875q0.1875 -0.109375 0.21875 -0.3125q0.0625 -0.203125 -0.0625 -0.375q-0.15625 -0.1875 -0.4375 -0.25q-2.421875 -0.5 -4.09375 -2.21875q-1.921875 -1.984375 -1.921875 -4.84375q0 -0.296875 -0.171875 -0.484375q-0.15625 -0.140625 -0.359375 -0.140625q-0.21875 0 -0.375 0.140625q-0.15625 0.171875 -0.15625 0.453125zm7.734375 12.5l-14.40625 0q-0.546875 0 -0.546875 0.46875q0 0.484375 0.546875 0.484375l14.421875 0q0.234375 0 0.390625 -0.15625q0.140625 -0.140625 0.140625 -0.328125q0 -0.1875 -0.140625 -0.34375q-0.15625 -0.125 -0.40625 -0.125zm12.296875 -12.734375l-5.53125 0q-0.9375 0 -1.4375 0.5625q-0.453125 0.484375 -0.453125 1.25l0 9.859375q0 0.875 0.390625 1.34375q0.453125 0.53125 1.375 0.53125q2.34375 0 4.25 -0.25q1.96875 -0.265625 3.21875 -0.75q0.546875 -0.234375 0.359375 -0.6875q-0.171875 -0.4375 -0.703125 -0.234375q-1.34375 0.5 -3.078125 0.734375q-1.734375 0.25 -4.03125 0.25q-0.375 0 -0.53125 -0.265625q-0.15625 -0.203125 -0.15625 -0.625l0 -5.03125l5.71875 0q0.53125 0 0.53125 -0.484375q0 -0.46875 -0.53125 -0.46875l-5.71875 0l0 -3.921875q0 -0.421875 0.171875 -0.640625q0.203125 -0.21875 0.609375 -0.21875l5.578125 0q0.28125 0 0.453125 -0.15625q0.140625 -0.140625 0.140625 -0.328125q-0.015625 -0.1875 -0.15625 -0.328125q-0.1875 -0.140625 -0.46875 -0.140625zm5.46875 14.3125l0 -14.3125q0 -0.265625 -0.171875 -0.421875q-0.15625 -0.125 -0.375 -0.125q-0.25 0 -0.390625 0.125q-0.171875 0.15625 -0.171875 0.421875l0 6.078125l-3.171875 0q-0.265625 0 -0.390625 0.125q-0.125 0.15625 -0.125 0.328125q0.015625 0.1875 0.171875 0.34375q0.15625 0.140625 0.4375 0.140625l3.078125 0l0 7.296875q0 0.3125 0.171875 0.5q0.140625 0.171875 0.390625 0.171875q0.21875 0 0.375 -0.171875q0.171875 -0.203125 0.171875 -0.5z" fill-rule="nonzero"/><g filter="url(#shadowFilter-g11ddf0a0acf_1_50.3)"><use xlink:href="#g11ddf0a0acf_1_50.3" transform="matrix(1.0 0.0 0.0 1.0 0.0 2.0)"/></g><defs><filter id="shadowFilter-g11ddf0a0acf_1_50.3" filterUnits="userSpaceOnUse"><feGaussianBlur in="SourceAlpha" stdDeviation="2.0" result="blur"/><feComponentTransfer in="blur" color-interpolation-filters="sRGB"><feFuncR type="linear" slope="0" intercept="0.0"/><feFuncG type="linear" slope="0" intercept="0.0"/><feFuncB type="linear" slope="0" intercept="0.0"/><feFuncA type="linear" slope="0.5" intercept="0"/></feComponentTransfer></filter></defs><g id="g11ddf0a0acf_1_50.3"><path fill="#eeeeee" d="m423.80106 97.05774l103.590546 0l0 57.228348l-103.590546 0z" fill-rule="evenodd"/><path stroke="#595959" stroke-width="1.0" stroke-linejoin="round" stroke-linecap="butt" d="m423.80106 97.05774l103.590546 0l0 57.228348l-103.590546 0z" fill-rule="evenodd"/><path fill="#000000" d="m452.13492 119.35754l0 7.78125l4.859375 0l0 3.5937576l-7.40625 0l0 1.078125l16.125 0l0 -1.078125l-7.421875 0l0 -3.5937576l5.015625 0l0 -1.015625l-9.90625 0l0 -2.421875l9.25 0l0 -1.015625l-9.25 0l0 -2.296875l9.65625 0l0 -1.03125l-10.921875 0zm17.125 -1.171875l0 1.046875l9.71875 0l0 -1.046875l-9.71875 0zm2.3125 1.71875l-0.890625 0l0.578125 4.78125q-0.65625 0.015625 -1.625 0.015625q-0.875 0 -1.4375 0l0.296875 1.03125q0.09375 0.25 0.171875 0.296875q0.0625 0.015625 0.203125 -0.0625q0.125 -0.078125 0.25 -0.109375q0.171875 -0.078125 0.421875 -0.078125l1.203125 -0.046875q2.90625 -0.15625 4.5625 -0.25q2.890625 -0.171875 4.578125 -0.375l-0.078125 -1.015625l-2.53125 0.265625l-0.609375 0.0625l0.609375 -3.71875q0.015625 -0.109375 0.078125 -0.203125q0.03125 -0.0625 0.109375 -0.15625q0.125 -0.15625 0.09375 -0.234375q-0.0625 -0.09375 -0.5 -0.171875l-0.953125 -0.109375l-0.625 4.671875l-0.875 0.046875q-0.796875 0.046875 -1.171875 0.0625q-0.640625 0.046875 -0.96875 0.046875l-0.453125 -4.109375q-0.015625 -0.109375 0.015625 -0.203125q0.015625 -0.046875 0.0625 -0.140625q0.078125 -0.171875 0.03125 -0.203125q-0.09375 -0.078125 -0.546875 -0.09375zm9.390625 -2.4375l0 9.265625l1.25 0l0 -8.6875q0 -0.078125 0.015625 -0.15625q0.015625 -0.03125 0.078125 -0.109375q0.09375 -0.1875 0.046875 -0.234375q-0.046875 -0.078125 -0.40625 -0.078125l-0.984375 0zm-10.515625 10.687508l0 1.015625l10.578125 0l0 4.921875l1.1875 0l0 -5.9375l-11.765625 0zm22.970673 -2.3906326q0 3.3437576 1.109375 5.1093826q1.140625 1.734375 3.25 1.734375q2.09375 0 3.21875 -1.734375q1.140625 -1.765625 1.140625 -5.0937576q0 -3.34375 -1.140625 -5.09375q-1.125 -1.75 -3.21875 -1.75q-2.109375 0 -3.25 1.71875q-1.109375 1.765625 -1.109375 5.109375zm1.296875 0q0 -2.90625 0.75 -4.3125q0.734375 -1.390625 2.3125 -1.390625q1.546875 0 2.296875 1.390625q0.765625 1.40625 0.765625 4.3125q0 2.8906326 -0.765625 4.2968826q-0.75 1.421875 -2.296875 1.421875q-1.578125 0 -2.3125 -1.421875q-0.75 -1.40625 -0.75 -4.2968826z" fill-rule="nonzero"/></g><g filter="url(#shadowFilter-g11ddf0a0acf_1_50.4)"><use xlink:href="#g11ddf0a0acf_1_50.4" transform="matrix(1.0 0.0 0.0 1.0 0.0 2.0)"/></g><defs><filter id="shadowFilter-g11ddf0a0acf_1_50.4" filterUnits="userSpaceOnUse"><feGaussianBlur in="SourceAlpha" stdDeviation="2.0" result="blur"/><feComponentTransfer in="blur" color-interpolation-filters="sRGB"><feFuncR type="linear" slope="0" intercept="0.0"/><feFuncG type="linear" slope="0" intercept="0.0"/><feFuncB type="linear" slope="0" intercept="0.0"/><feFuncA type="linear" slope="0.5" intercept="0"/></feComponentTransfer></filter></defs><g id="g11ddf0a0acf_1_50.4"><path fill="#eeeeee" d="m423.80106 184.34694l103.590546 0l0 57.228348l-103.590546 0z" fill-rule="evenodd"/><path stroke="#595959" stroke-width="1.0" stroke-linejoin="round" stroke-linecap="butt" d="m423.80106 184.34694l103.590546 0l0 57.228348l-103.590546 0z" fill-rule="evenodd"/><path fill="#000000" d="m452.13492 206.64674l0 7.78125l4.859375 0l0 3.59375l-7.40625 0l0 1.078125l16.125 0l0 -1.078125l-7.421875 0l0 -3.59375l5.015625 0l0 -1.015625l-9.90625 0l0 -2.421875l9.25 0l0 -1.015625l-9.25 0l0 -2.296875l9.65625 0l0 -1.03125l-10.921875 0zm17.125 -1.171875l0 1.046875l9.71875 0l0 -1.046875l-9.71875 0zm2.3125 1.71875l-0.890625 0l0.578125 4.78125q-0.65625 0.015625 -1.625 0.015625q-0.875 0 -1.4375 0l0.296875 1.03125q0.09375 0.25 0.171875 0.296875q0.0625 0.015625 0.203125 -0.0625q0.125 -0.078125 0.25 -0.109375q0.171875 -0.078125 0.421875 -0.078125l1.203125 -0.046875q2.90625 -0.15625 4.5625 -0.25q2.890625 -0.171875 4.578125 -0.375l-0.078125 -1.015625l-2.53125 0.265625l-0.609375 0.0625l0.609375 -3.71875q0.015625 -0.109375 0.078125 -0.203125q0.03125 -0.0625 0.109375 -0.15625q0.125 -0.15625 0.09375 -0.234375q-0.0625 -0.09375 -0.5 -0.171875l-0.953125 -0.109375l-0.625 4.671875l-0.875 0.046875q-0.796875 0.046875 -1.171875 0.0625q-0.640625 0.046875 -0.96875 0.046875l-0.453125 -4.109375q-0.015625 -0.109375 0.015625 -0.203125q0.015625 -0.046875 0.0625 -0.140625q0.078125 -0.171875 0.03125 -0.203125q-0.09375 -0.078125 -0.546875 -0.09375zm9.390625 -2.4375l0 9.265625l1.25 0l0 -8.6875q0 -0.078125 0.015625 -0.15625q0.015625 -0.03125 0.078125 -0.109375q0.09375 -0.1875 0.046875 -0.234375q-0.046875 -0.078125 -0.40625 -0.078125l-0.984375 0zm-10.515625 10.6875l0 1.015625l10.578125 0l0 4.921875l1.1875 0l0 -5.9375l-11.765625 0zm26.861298 4.0625l1.25 0l0 -13.28125l-1.09375 0q-0.09375 1.375 -0.90625 2.0q-0.828125 0.640625 -2.453125 0.640625l-0.09375 0l0 0.8125l0.203125 0q1.109375 0 1.875 -0.1875q0.765625 -0.1875 1.21875 -0.5625l0 10.578125z" fill-rule="nonzero"/></g><g filter="url(#shadowFilter-g11ddf0a0acf_1_50.5)"><use xlink:href="#g11ddf0a0acf_1_50.5" transform="matrix(1.0 0.0 0.0 1.0 0.0 2.0)"/></g><defs><filter id="shadowFilter-g11ddf0a0acf_1_50.5" filterUnits="userSpaceOnUse"><feGaussianBlur in="SourceAlpha" stdDeviation="2.0" result="blur"/><feComponentTransfer in="blur" color-interpolation-filters="sRGB"><feFuncR type="linear" slope="0" intercept="0.0"/><feFuncG type="linear" slope="0" intercept="0.0"/><feFuncB type="linear" slope="0" intercept="0.0"/><feFuncA type="linear" slope="0.5" intercept="0"/></feComponentTransfer></filter></defs><g id="g11ddf0a0acf_1_50.5"><path fill="#eeeeee" d="m423.80106 271.63614l103.590546 0l0 57.228363l-103.590546 0z" fill-rule="evenodd"/><path stroke="#595959" stroke-width="1.0" stroke-linejoin="round" stroke-linecap="butt" d="m423.80106 271.63614l103.590546 0l0 57.228363l-103.590546 0z" fill-rule="evenodd"/><path fill="#000000" d="m452.13492 293.93594l0 7.78125l4.859375 0l0 3.59375l-7.40625 0l0 1.078125l16.125 0l0 -1.078125l-7.421875 0l0 -3.59375l5.015625 0l0 -1.015625l-9.90625 0l0 -2.421875l9.25 0l0 -1.015625l-9.25 0l0 -2.296875l9.65625 0l0 -1.03125l-10.921875 0zm17.125 -1.171875l0 1.046875l9.71875 0l0 -1.046875l-9.71875 0zm2.3125 1.71875l-0.890625 0l0.578125 4.78125q-0.65625 0.015625 -1.625 0.015625q-0.875 0 -1.4375 0l0.296875 1.03125q0.09375 0.25 0.171875 0.296875q0.0625 0.015625 0.203125 -0.0625q0.125 -0.078125 0.25 -0.109375q0.171875 -0.078125 0.421875 -0.078125l1.203125 -0.046875q2.90625 -0.15625 4.5625 -0.25q2.890625 -0.171875 4.578125 -0.375l-0.078125 -1.015625l-2.53125 0.265625l-0.609375 0.0625l0.609375 -3.71875q0.015625 -0.109375 0.078125 -0.203125q0.03125 -0.0625 0.109375 -0.15625q0.125 -0.15625 0.09375 -0.234375q-0.0625 -0.09375 -0.5 -0.171875l-0.953125 -0.109375l-0.625 4.671875l-0.875 0.046875q-0.796875 0.046875 -1.171875 0.0625q-0.640625 0.046875 -0.96875 0.046875l-0.453125 -4.109375q-0.015625 -0.109375 0.015625 -0.203125q0.015625 -0.046875 0.0625 -0.140625q0.078125 -0.171875 0.03125 -0.203125q-0.09375 -0.078125 -0.546875 -0.09375zm9.390625 -2.4375l0 9.265625l1.25 0l0 -8.6875q0 -0.078125 0.015625 -0.15625q0.015625 -0.03125 0.078125 -0.109375q0.09375 -0.1875 0.046875 -0.234375q-0.046875 -0.078125 -0.40625 -0.078125l-0.984375 0zm-10.515625 10.6875l0 1.015625l10.578125 0l0 4.921875l1.1875 0l0 -5.9375l-11.765625 0zm22.908173 4.0625l8.578125 0l0 -1.046875l-7.328125 0q0.078125 -0.984375 0.78125 -1.78125q0.671875 -0.765625 2.078125 -1.5625l0.921875 -0.546875q1.03125 -0.5625 1.4375 -0.84375q0.71875 -0.484375 1.125 -0.9375q0.546875 -0.59375 0.796875 -1.234375q0.265625 -0.65625 0.265625 -1.46875q0 -1.78125 -1.09375 -2.828125q-1.078125 -1.03125 -2.921875 -1.03125q-2.015625 0 -3.15625 1.15625q-1.109375 1.125 -1.15625 3.265625l1.25 0q0 -1.625 0.78125 -2.453125q0.765625 -0.84375 2.234375 -0.84375q1.3125 0 2.0625 0.71875q0.75 0.71875 0.75 2.03125q0 0.640625 -0.203125 1.109375q-0.1875 0.46875 -0.609375 0.96875q-0.3125 0.3125 -0.875 0.6875q-0.328125 0.21875 -1.140625 0.703125l-1.328125 0.796875q-1.6875 1.046875 -2.4375 2.125q-0.8125 1.140625 -0.8125 2.625l0 0.390625z" fill-rule="nonzero"/></g><path fill="#000000" fill-opacity="0.0" d="m173.94804 125.67191l249.85826 0" fill-rule="evenodd"/><path stroke="#595959" stroke-width="3.0" stroke-linejoin="round" stroke-linecap="butt" d="m173.94804 125.67191l231.85826 0" fill-rule="evenodd"/><path fill="#595959" stroke="#595959" stroke-width="3.0" stroke-linecap="butt" d="m405.8063 130.6271l13.614288 -4.9551926l-13.614288 -4.9551926z" fill-rule="evenodd"/><path fill="#000000" fill-opacity="0.0" d="m173.94804 213.73271l249.85826 -0.75590515" fill-rule="evenodd"/><path stroke="#595959" stroke-width="3.0" stroke-linejoin="round" stroke-linecap="butt" d="m173.94804 213.73271l231.85835 -0.70144653" fill-rule="evenodd"/><path fill="#595959" stroke="#595959" stroke-width="3.0" stroke-linecap="butt" d="m405.82138 217.98643l13.599243 -4.996353l-13.629211 -4.913986z" fill-rule="evenodd"/><path fill="#000000" fill-opacity="0.0" d="m173.94804 300.24933l249.85826 0" fill-rule="evenodd"/><path stroke="#595959" stroke-width="3.0" stroke-linejoin="round" stroke-linecap="butt" d="m173.94804 300.24933l231.85826 0" fill-rule="evenodd"/><path fill="#595959" stroke="#595959" stroke-width="3.0" stroke-linecap="butt" d="m405.8063 305.20453l13.614288 -4.9552l-13.614288 -4.9551697z" fill-rule="evenodd"/><path fill="#000000" fill-opacity="0.0" d="m527.3916 125.67191l257.03937 0" fill-rule="evenodd"/><path stroke="#595959" stroke-width="3.0" stroke-linejoin="round" stroke-linecap="butt" d="m527.3916 125.67191l239.0393 0" fill-rule="evenodd"/><path fill="#595959" stroke="#595959" stroke-width="3.0" stroke-linecap="butt" d="m766.43097 130.6271l13.614258 -4.9551926l-13.614258 -4.9551926z" fill-rule="evenodd"/><path fill="#000000" fill-opacity="0.0" d="m527.3916 212.96112l257.03937 0.75590515" fill-rule="evenodd"/><path stroke="#595959" stroke-width="3.0" stroke-linejoin="round" stroke-linecap="butt" d="m527.3916 212.96112l239.03943 0.70295715" fill-rule="evenodd"/><path fill="#595959" stroke="#595959" stroke-width="3.0" stroke-linecap="butt" d="m766.41644 218.61926l13.628784 -4.9151306l-13.599609 -4.9952087z" fill-rule="evenodd"/><path fill="#000000" fill-opacity="0.0" d="m527.3916 300.25034l257.03937 0" fill-rule="evenodd"/><path stroke="#595959" stroke-width="3.0" stroke-linejoin="round" stroke-linecap="butt" d="m527.3916 300.25034l239.0393 0" fill-rule="evenodd"/><path fill="#595959" stroke="#595959" stroke-width="3.0" stroke-linecap="butt" d="m766.43097 305.20554l13.614258 -4.9552l-13.614258 -4.9552z" fill-rule="evenodd"/><g filter="url(#shadowFilter-g11ddf0a0acf_1_50.6)"><use xlink:href="#g11ddf0a0acf_1_50.6" transform="matrix(1.0 0.0 0.0 1.0 0.0 2.0)"/></g><defs><filter id="shadowFilter-g11ddf0a0acf_1_50.6" filterUnits="userSpaceOnUse"><feGaussianBlur in="SourceAlpha" stdDeviation="2.0" result="blur"/><feComponentTransfer in="blur" color-interpolation-filters="sRGB"><feFuncR type="linear" slope="0" intercept="0.0"/><feFuncG type="linear" slope="0" intercept="0.0"/><feFuncB type="linear" slope="0" intercept="0.0"/><feFuncA type="linear" slope="0.5" intercept="0"/></feComponentTransfer></filter></defs><g id="g11ddf0a0acf_1_50.6"><path fill="#eeeeee" d="m423.80106 358.92535l103.590546 0l0 57.228333l-103.590546 0z" fill-rule="evenodd"/><path stroke="#595959" stroke-width="1.0" stroke-linejoin="round" stroke-linecap="butt" d="m423.80106 358.92535l103.590546 0l0 57.228333l-103.590546 0z" fill-rule="evenodd"/><path fill="#000000" d="m452.13492 381.22516l0 7.78125l4.859375 0l0 3.59375l-7.40625 0l0 1.078125l16.125 0l0 -1.078125l-7.421875 0l0 -3.59375l5.015625 0l0 -1.015625l-9.90625 0l0 -2.421875l9.25 0l0 -1.015625l-9.25 0l0 -2.296875l9.65625 0l0 -1.03125l-10.921875 0zm17.125 -1.171875l0 1.046875l9.71875 0l0 -1.046875l-9.71875 0zm2.3125 1.71875l-0.890625 0l0.578125 4.78125q-0.65625 0.015625 -1.625 0.015625q-0.875 0 -1.4375 0l0.296875 1.03125q0.09375 0.25 0.171875 0.296875q0.0625 0.015625 0.203125 -0.0625q0.125 -0.078125 0.25 -0.109375q0.171875 -0.078125 0.421875 -0.078125l1.203125 -0.046875q2.90625 -0.15625 4.5625 -0.25q2.890625 -0.171875 4.578125 -0.375l-0.078125 -1.015625l-2.53125 0.265625l-0.609375 0.0625l0.609375 -3.71875q0.015625 -0.109375 0.078125 -0.203125q0.03125 -0.0625 0.109375 -0.15625q0.125 -0.15625 0.09375 -0.234375q-0.0625 -0.09375 -0.5 -0.171875l-0.953125 -0.109375l-0.625 4.671875l-0.875 0.046875q-0.796875 0.046875 -1.171875 0.0625q-0.640625 0.046875 -0.96875 0.046875l-0.453125 -4.109375q-0.015625 -0.109375 0.015625 -0.203125q0.015625 -0.046875 0.0625 -0.140625q0.078125 -0.171875 0.03125 -0.203125q-0.09375 -0.078125 -0.546875 -0.09375zm9.390625 -2.4375l0 9.265625l1.25 0l0 -8.6875q0 -0.078125 0.015625 -0.15625q0.015625 -0.03125 0.078125 -0.109375q0.09375 -0.1875 0.046875 -0.234375q-0.046875 -0.078125 -0.40625 -0.078125l-0.984375 0zm-10.515625 10.6875l0 1.015625l10.578125 0l0 4.921875l1.1875 0l0 -5.9375l-11.765625 0zm22.939423 0.28125l0 0.015625q0 1.9375 1.140625 3.046875q1.140625 1.109375 3.15625 1.109375q1.96875 0 3.140625 -1.078125q1.140625 -1.078125 1.140625 -2.890625q0 -1.296875 -0.59375 -2.171875q-0.5625 -0.859375 -1.640625 -1.171875q0.890625 -0.453125 1.34375 -1.1875q0.484375 -0.75 0.484375 -1.71875q0 -1.578125 -1.015625 -2.5q-1.015625 -0.953125 -2.75 -0.953125q-1.8125 0 -2.875 1.03125q-1.046875 1.0625 -1.125 2.9375l1.1875 0q0.03125 -1.421875 0.75 -2.1875q0.734375 -0.765625 2.046875 -0.765625q1.15625 0 1.875 0.671875q0.703125 0.671875 0.703125 1.765625q0 1.234375 -0.796875 1.890625q-0.796875 0.65625 -2.296875 0.65625l-0.484375 -0.03125l0 0.96875l0.578125 -0.015625q1.6875 0 2.5 0.671875q0.84375 0.65625 0.84375 2.078125q0 1.40625 -0.8125 2.1875q-0.796875 0.796875 -2.25 0.796875q-1.390625 0 -2.171875 -0.84375q-0.78125 -0.828125 -0.78125 -2.3125l-1.296875 0z" fill-rule="nonzero"/></g><g filter="url(#shadowFilter-g11ddf0a0acf_1_50.7)"><use xlink:href="#g11ddf0a0acf_1_50.7" transform="matrix(1.0 0.0 0.0 1.0 0.0 2.0)"/></g><defs><filter id="shadowFilter-g11ddf0a0acf_1_50.7" filterUnits="userSpaceOnUse"><feGaussianBlur in="SourceAlpha" stdDeviation="2.0" result="blur"/><feComponentTransfer in="blur" color-interpolation-filters="sRGB"><feFuncR type="linear" slope="0" intercept="0.0"/><feFuncG type="linear" slope="0" intercept="0.0"/><feFuncB type="linear" slope="0" intercept="0.0"/><feFuncA type="linear" slope="0.5" intercept="0"/></feComponentTransfer></filter></defs><g id="g11ddf0a0acf_1_50.7"><path fill="#eeeeee" d="m21.28662 185.11855l152.66142 0l0 57.228348l-152.66142 0z" fill-rule="evenodd"/><path stroke="#595959" stroke-width="1.0" stroke-linejoin="round" stroke-linecap="butt" d="m21.28662 185.11855l152.66142 0l0 57.228348l-152.66142 0z" fill-rule="evenodd"/><path fill="#000000" d="m71.99331 220.66833l1.21875 0l0 -11.78125l4.140625 11.78125l1.078125 0l4.15625 -11.78125l0 11.78125l1.21875 0l0 -13.671875l-1.75 0l-4.140625 11.71875l-4.15625 -11.71875l-1.765625 0l0 13.671875zm18.128906 0.75l4.25 -10.625l-1.21875 0l-3.03125 7.671875l-3.03125 -7.671875l-1.21875 0l3.640625 9.140625l-0.359375 0.90625q-0.328125 0.78125 -0.640625 1.078125q-0.390625 0.40625 -1.0625 0.40625l-0.375 -0.0625l-0.421875 -0.046875l0 1.03125q0.21875 0.046875 0.40625 0.0625q0.203125 0.03125 0.40625 0.03125q0.984375 0 1.609375 -0.484375q0.59375 -0.4375 1.046875 -1.4375zm5.7851562 -4.90625l0 0.09375q0 2.140625 1.328125 3.28125q1.3125 1.171875 3.78125 1.171875q2.171875 0 3.421875 -1.078125q1.265625 -1.078125 1.265625 -2.890625q0 -1.65625 -1.03125 -2.578125q-0.984375 -0.875 -3.25 -1.4375l-1.59375 -0.375q-1.234375 -0.328125 -1.765625 -0.859375q-0.53125 -0.5625 -0.53125 -1.5q0 -1.234375 0.796875 -1.890625q0.8125 -0.671875 2.328125 -0.671875q1.578125 0 2.453125 0.78125q0.890625 0.78125 0.90625 2.234375l1.296875 0q-0.03125 -1.953125 -1.234375 -3.0625q-1.203125 -1.09375 -3.359375 -1.09375q-2.078125 0 -3.3125 1.03125q-1.1875 1.0 -1.1875 2.65625q0 1.5625 0.921875 2.421875q0.8125 0.75 2.8125 1.265625l1.28125 0.3125q1.78125 0.453125 2.4375 1.0q0.75 0.640625 0.75 1.90625q0 1.234375 -0.90625 1.953125q-0.90625 0.75 -2.5 0.75q-1.828125 0 -2.828125 -0.921875q-0.984375 -0.890625 -0.984375 -2.5l-1.296875 0zm20.103516 2.828125q-0.484375 0.265625 -1.03125 0.4375q-0.5 0.171875 -0.9375 0.171875q-2.171875 0 -3.453125 -1.609375q-1.34375 -1.65625 -1.34375 -4.5q0 -2.8125 1.34375 -4.484375q1.28125 -1.59375 3.34375 -1.59375q2.09375 0 3.390625 1.59375q1.328125 1.640625 1.328125 4.484375q0 1.59375 -0.453125 2.84375q-0.4375 1.1875 -1.25 1.96875l-1.875 -1.5l-0.6875 0.859375l1.625 1.328125zm2.890625 2.328125l0.703125 -0.859375l-1.75 -1.40625q1.03125 -0.953125 1.53125 -2.328125q0.515625 -1.375 0.515625 -3.234375q0 -3.3125 -1.6875 -5.28125q-1.640625 -1.921875 -4.28125 -1.921875q-2.640625 0 -4.265625 1.921875q-1.65625 1.96875 -1.65625 5.28125q0 3.3125 1.65625 5.265625q1.625 1.953125 4.265625 1.953125q0.828125 0 1.609375 -0.234375q0.796875 -0.25 1.40625 -0.703125l1.953125 1.546875zm3.96875 -1.0l8.249992 0l0 -1.125l-6.9999924 0l0 -12.546875l-1.25 0l0 13.671875z" fill-rule="nonzero"/></g><g filter="url(#shadowFilter-g11ddf0a0acf_1_50.8)"><use xlink:href="#g11ddf0a0acf_1_50.8" transform="matrix(1.0 0.0 0.0 1.0 0.0 2.0)"/></g><defs><filter id="shadowFilter-g11ddf0a0acf_1_50.8" filterUnits="userSpaceOnUse"><feGaussianBlur in="SourceAlpha" stdDeviation="2.0" result="blur"/><feComponentTransfer in="blur" color-interpolation-filters="sRGB"><feFuncR type="linear" slope="0" intercept="0.0"/><feFuncG type="linear" slope="0" intercept="0.0"/><feFuncB type="linear" slope="0" intercept="0.0"/><feFuncA type="linear" slope="0.5" intercept="0"/></feComponentTransfer></filter></defs><g id="g11ddf0a0acf_1_50.8"><path fill="#eeeeee" d="m21.28662 271.63516l152.66142 0l0 57.228363l-152.66142 0z" fill-rule="evenodd"/><path stroke="#595959" stroke-width="1.0" stroke-linejoin="round" stroke-linecap="butt" d="m21.28662 271.63516l152.66142 0l0 57.228363l-152.66142 0z" fill-rule="evenodd"/><path fill="#000000" d="m65.315575 307.18497l1.3125 0l1.5625 -4.171875l6.15625 0l1.53125 4.171875l1.3125 0l-5.203125 -13.671875l-1.484375 0l-5.1875 13.671875zm3.296875 -5.296875l2.625 -7.046875l2.671875 7.046875l-5.296875 0zm13.235352 5.296875l1.296875 0l3.15625 -11.703125l3.09375 11.703125l1.375 0l3.578125 -13.671875l-1.1875 0l-3.09375 11.65625l-2.96875 -11.65625l-1.546875 0l-3.015625 11.65625l-3.046875 -11.65625l-1.21875 0l3.578125 13.671875zm14.115234 -4.15625l0 0.09375q0 2.140625 1.328125 3.28125q1.3125 1.171875 3.78125 1.171875q2.171875 0 3.421875 -1.078125q1.265625 -1.078125 1.265625 -2.890625q0 -1.65625 -1.03125 -2.578125q-0.984375 -0.875 -3.25 -1.4375l-1.59375 -0.375q-1.234375 -0.328125 -1.765625 -0.859375q-0.53125 -0.5625 -0.53125 -1.5q0 -1.234375 0.796875 -1.890625q0.8125 -0.671875 2.328125 -0.671875q1.578125 0 2.453125 0.78125q0.890625 0.78125 0.90625 2.234375l1.296875 0q-0.03125 -1.953125 -1.234375 -3.0625q-1.203125 -1.09375 -3.359375 -1.09375q-2.078125 0 -3.3125 1.03125q-1.1875 1.0 -1.1875 2.65625q0 1.5625 0.921875 2.421875q0.8125 0.75 2.8125 1.265625l1.28125 0.3125q1.78125 0.453125 2.4375 1.0q0.75 0.640625 0.75 1.90625q0 1.234375 -0.90625 1.953125q-0.90625 0.75 -2.5 0.75q-1.828125 0 -2.828125 -0.921875q-0.984375 -0.890625 -0.984375 -2.5l-1.296875 0zm18.480469 0l0 0.09375q0 2.140625 1.328125 3.28125q1.3125 1.171875 3.78125 1.171875q2.171875 0 3.421875 -1.078125q1.265625 -1.078125 1.265625 -2.890625q0 -1.65625 -1.03125 -2.578125q-0.984375 -0.875 -3.25 -1.4375l-1.59375 -0.375q-1.234375 -0.328125 -1.765625 -0.859375q-0.53125 -0.5625 -0.53125 -1.5q0 -1.234375 0.796875 -1.890625q0.8125 -0.671875 2.328125 -0.671875q1.578125 0 2.453125 0.78125q0.890625 0.78125 0.90625 2.234375l1.296875 0q-0.03125 -1.953125 -1.234375 -3.0625q-1.203125 -1.09375 -3.359375 -1.09375q-2.078125 0 -3.3125 1.03125q-1.1875 1.0 -1.1875 2.65625q0 1.5625 0.921875 2.421875q0.8125 0.75 2.8125 1.265625l1.28125 0.3125q1.78125 0.453125 2.4375 1.0q0.75 0.640625 0.75 1.90625q0 1.234375 -0.90625 1.953125q-0.90625 0.75 -2.5 0.75q-1.828125 0 -2.828125 -0.921875q-0.984375 -0.890625 -0.984375 -2.5l-1.296875 0zm12.087891 -0.015625l0 0.015625q0 1.9375 1.140625 3.046875q1.1406174 1.109375 3.1562424 1.109375q1.96875 0 3.140625 -1.078125q1.140625 -1.078125 1.140625 -2.890625q0 -1.296875 -0.59375 -2.171875q-0.5625 -0.859375 -1.640625 -1.171875q0.890625 -0.453125 1.34375 -1.1875q0.484375 -0.75 0.484375 -1.71875q0 -1.578125 -1.015625 -2.5q-1.015625 -0.953125 -2.75 -0.953125q-1.8125 0 -2.875 1.03125q-1.0468674 1.0625 -1.1249924 2.9375l1.1874924 0q0.03125 -1.421875 0.75 -2.1875q0.734375 -0.765625 2.046875 -0.765625q1.15625 0 1.875 0.671875q0.703125 0.671875 0.703125 1.765625q0 1.234375 -0.796875 1.890625q-0.796875 0.65625 -2.296875 0.65625l-0.484375 -0.03125l0 0.96875l0.578125 -0.015625q1.6875 0 2.5 0.671875q0.84375 0.65625 0.84375 2.078125q0 1.40625 -0.8125 2.1875q-0.796875 0.796875 -2.25 0.796875q-1.390625 0 -2.171875 -0.84375q-0.7812424 -0.828125 -0.7812424 -2.3125l-1.296875 0z" fill-rule="nonzero"/></g><g filter="url(#shadowFilter-g11ddf0a0acf_1_50.9)"><use xlink:href="#g11ddf0a0acf_1_50.9" transform="matrix(1.0 0.0 0.0 1.0 0.0 2.0)"/></g><defs><filter id="shadowFilter-g11ddf0a0acf_1_50.9" filterUnits="userSpaceOnUse"><feGaussianBlur in="SourceAlpha" stdDeviation="2.0" result="blur"/><feComponentTransfer in="blur" color-interpolation-filters="sRGB"><feFuncR type="linear" slope="0" intercept="0.0"/><feFuncG type="linear" slope="0" intercept="0.0"/><feFuncB type="linear" slope="0" intercept="0.0"/><feFuncA type="linear" slope="0.5" intercept="0"/></feComponentTransfer></filter></defs><g id="g11ddf0a0acf_1_50.9"><path fill="#eeeeee" d="m199.52547 184.34645l111.05513 0l0 144.50395l-111.05513 0z" fill-rule="evenodd"/><path stroke="#595959" stroke-width="1.0" stroke-linejoin="round" stroke-linecap="butt" d="m199.52547 184.34645l111.05513 0l0 144.50395l-111.05513 0z" fill-rule="evenodd"/><path fill="#000000" d="m228.36552 239.08092l0 1.03125l6.96875 0q-0.078125 0.90625 -0.25 1.65625q-0.125 0.671875 -0.40625 1.53125q-1.59375 0.21875 -3.78125 0.375q-1.953125 0.140625 -3.234375 0.140625l0.453125 1.0625q0.125 0.25 0.21875 0.28125q0.078125 0.015625 0.265625 -0.09375q0.140625 -0.09375 0.25 -0.140625q0.1875 -0.09375 0.390625 -0.109375l5.015625 -0.484375q-0.84375 1.796875 -2.734375 3.359375q-1.875 1.546875 -4.15625 2.296875l1.0 1.03125q3.5625 -1.59375 5.578125 -4.21875q2.3125 -3.046875 2.734375 -7.71875l-8.3125 0zm8.078125 5.0l0 1.03125l4.1875 0l0 8.90625l1.25 0l0 -15.96875q0 -0.078125 0.015625 -0.171875q0.015625 -0.0625 0.078125 -0.140625q0.09375 -0.1875 0.046875 -0.25q-0.03125 -0.09375 -0.359375 -0.09375l-1.03125 0l0 6.6875l-4.1875 0zm11.671875 -6.28125l-0.78125 0l0 7.90625q2.265625 0 4.21875 -0.203125q1.515625 -0.140625 3.46875 -0.46875l-0.15625 -1.03125q-1.71875 0.34375 -3.265625 0.515625q-1.4375 0.15625 -3.015625 0.15625l0 -6.046875q0 -0.125 0.015625 -0.234375q0.015625 -0.0625 0.078125 -0.203125q0.078125 -0.21875 0.03125 -0.296875q-0.09375 -0.09375 -0.59375 -0.09375zm4.421875 2.8125l0 0.9375l4.0312347 0l0 5.109375l1.25 0l0 -8.40625q0 -0.078125 0.015625 -0.171875q0.015625 -0.046875 0.078125 -0.140625q0.09375 -0.1875 0.046875 -0.25q-0.03125 -0.09375 -0.359375 -0.09375l-1.03125 0l0 3.015625l-4.0312347 0zm7.0937347 -3.21875l0 9.5l1.25 0l0 -8.921875q0 -0.078125 0.015625 -0.15625q0.015625 -0.03125 0.078125 -0.125q0.09375 -0.171875 0.046875 -0.21875q-0.046875 -0.078125 -0.40625 -0.078125l-0.984375 0zm-10.51561 10.6875l0 1.015625l10.57811 0l0 4.921875l1.1875 0l0 -5.9375l-11.76561 0zm19.26561 -9.5l0 7.984375l11.703125 0l0 -1.03125l-10.546875 0l0 -2.53125l10.1875 0l0 -1.03125l-10.1875 0l0 -2.375l10.1875 0l0 -1.015625l-11.34375 0zm-2.15625 12.03125l0 1.03125l15.65625 0l0 -1.03125l-15.65625 0z" fill-rule="nonzero"/><path fill="#000000" d="m234.83427 258.92468l-0.890625 0q-1.53125 1.84375 -2.265625 4.03125q-0.765625 2.203125 -0.765625 4.734375q0 2.515625 0.765625 4.734375q0.734375 2.1875 2.265625 4.046875l0.890625 0q-1.4375 -1.984375 -2.109375 -4.140625q-0.640625 -2.140625 -0.640625 -4.640625q0 -2.609375 0.734375 -4.859375q0.671875 -2.046875 2.015625 -3.90625zm3.125 7.421875l1.0625 1.078125q2.109375 -0.625 3.765625 -1.78125q1.859375 -1.296875 2.828125 -3.0q0.828125 1.453125 2.609375 2.671875q1.859375 1.296875 4.125 1.890625l1.0 -1.09375q-1.46875 -0.234375 -2.828125 -0.828125q-1.234375 -0.5625 -2.203125 -1.34375q-0.953125 -0.78125 -1.484375 -1.578125q-0.515625 -0.8125 -0.515625 -1.5q0 -0.0625 0.03125 -0.125q0.03125 -0.0625 0.09375 -0.140625q0.109375 -0.15625 0.09375 -0.234375q-0.015625 -0.109375 -0.328125 -0.171875l-1.15625 -0.21875q-0.03125 1.265625 -0.75 2.46875q-0.640625 1.0625 -1.75 1.921875q-1.03125 0.828125 -2.3125 1.34375q-1.203125 0.5 -2.28125 0.640625zm-0.53125 5.875l0 1.046875l16.234375 0l0 -1.046875l-7.4375 0l0 -3.671875q0 -0.09375 0.03125 -0.1875q0.015625 -0.078125 0.078125 -0.171875q0.09375 -0.203125 0.046875 -0.265625q-0.0625 -0.09375 -0.515625 -0.09375l-1.015625 0l0 4.390625l-7.421875 0zm27.48436 -11.375l-1.0625 -0.109375q0 2.796875 -2.0 4.5625q-1.84375 1.59375 -5.09375 2.125l1.0625 1.0625q2.453125 -0.5 4.296875 -1.8125q1.90625 -1.375 2.375 -3.0625q0.53125 1.796875 2.75 3.203125q1.953125 1.25 3.921875 1.546875l0.921875 -1.15625q-1.328125 0 -2.59375 -0.515625q-1.1875 -0.484375 -2.140625 -1.3125q-0.9375 -0.8125 -1.515625 -1.8125q-0.578125 -1.015625 -0.6875 -1.984375q0 -0.109375 0.0625 -0.21875q0.015625 -0.09375 0.09375 -0.1875q0.078125 -0.125 0.046875 -0.1875q-0.046875 -0.09375 -0.4375 -0.140625zm-8.515625 11.65625l0 1.1875l16.140625 0l0 -1.1875l-16.140625 0zm18.84375 -13.578125q1.40625 1.953125 2.09375 4.109375q0.671875 2.125 0.671875 4.65625q0 2.5 -0.671875 4.640625q-0.6875 2.15625 -2.09375 4.140625l0.921875 0q1.484375 -1.859375 2.25 -4.046875q0.765625 -2.21875 0.765625 -4.734375q0 -2.53125 -0.765625 -4.734375q-0.765625 -2.1875 -2.25 -4.03125l-0.921875 0z" fill-rule="nonzero"/></g><g filter="url(#shadowFilter-g11ddf0a0acf_1_50.10)"><use xlink:href="#g11ddf0a0acf_1_50.10" transform="matrix(1.0 0.0 0.0 1.0 0.0 2.0)"/></g><defs><filter id="shadowFilter-g11ddf0a0acf_1_50.10" filterUnits="userSpaceOnUse"><feGaussianBlur in="SourceAlpha" stdDeviation="2.0" result="blur"/><feComponentTransfer in="blur" color-interpolation-filters="sRGB"><feFuncR type="linear" slope="0" intercept="0.0"/><feFuncG type="linear" slope="0" intercept="0.0"/><feFuncB type="linear" slope="0" intercept="0.0"/><feFuncA type="linear" slope="0.5" intercept="0"/></feComponentTransfer></filter></defs><g id="g11ddf0a0acf_1_50.10"><path fill="#eeeeee" d="m784.44147 97.05774l152.66144 0l0 57.228348l-152.66144 0z" fill-rule="evenodd"/><path stroke="#595959" stroke-width="1.0" stroke-linejoin="round" stroke-linecap="butt" d="m784.44147 97.05774l152.66144 0l0 57.228348l-152.66144 0z" fill-rule="evenodd"/><path fill="#000000" d="m836.155 128.42004l0 0.984375q0 1.78125 0.875 2.6875q0.890625 0.90625 2.625 0.90625q1.796875 0 2.78125 -0.96875q0.984375 -0.953125 0.984375 -2.734375l0 -10.359383l-1.265625 0l0 10.062508q0 1.53125 -0.546875 2.1875q-0.5625 0.6875 -1.90625 0.6875q-1.171875 0 -1.75 -0.65625q-0.5625 -0.640625 -0.5625 -1.921875l0 -0.875l-1.234375 0zm14.078125 -9.484383l-3.265625 0l0 13.671883l3.828125 0q1.484375 0 2.3125 -0.109375q1.0625 -0.125 1.765625 -0.484375q1.390625 -0.765625 2.125 -2.328125q0.75 -1.609375 0.75 -3.9375076q0 -2.1875 -0.6875 -3.75q-0.671875 -1.515625 -1.890625 -2.328125q-0.75 -0.453125 -1.796875 -0.625q-0.78125 -0.109375 -2.1875 -0.109375l-0.953125 0zm-2.015625 12.546883l0 -11.421883l2.578125 0q1.4375 0 2.078125 0.078125q0.984375 0.109375 1.59375 0.515625q0.984375 0.640625 1.484375 1.921875q0.5 1.296875 0.5 3.203125q0 1.984375 -0.515625 3.2656326q-0.53125 1.296875 -1.5625 1.9375q-0.578125 0.3125 -1.484375 0.40625q-0.65625 0.09375 -1.96875 0.09375l-2.703125 0zm12.517578 1.125l3.890625 0q1.640625 0 2.4375 -0.046875q1.015625 -0.078125 1.5 -0.25q1.0 -0.40625 1.578125 -1.3125q0.578125 -0.890625 0.578125 -2.078125q0 -1.3906326 -0.71875 -2.3281326q-0.71875 -0.9375 -1.9375 -1.203125q0.953125 -0.390625 1.484375 -1.171875q0.546875 -0.765625 0.546875 -1.78125q0 -0.9375 -0.453125 -1.71875q-0.4375 -0.796875 -1.203125 -1.21875q-0.5625 -0.34375 -1.34375 -0.46875q-0.65625 -0.09375 -1.71875 -0.09375l-4.640625 0l0 13.671883zm4.421875 -12.546883q1.921875 0 2.734375 0.484375q0.921875 0.546875 0.921875 1.96875q0 1.40625 -0.953125 1.96875q-0.8125 0.484375 -2.8125 0.484375l-3.0625 0l0 -4.90625l3.171875 0zm-3.171875 11.421883l0 -5.4062576l3.90625 0q1.75 0 2.640625 0.6875q0.890625 0.703125 0.890625 2.0937576q0 1.484375 -0.890625 2.078125q-0.796875 0.546875 -2.734375 0.546875l-3.8125 0zm21.351562 -3.34375q-0.15625 1.75 -1.25 2.734375q-1.09375 1.0 -2.90625 1.0q-2.1875 0 -3.453125 -1.59375q-1.265625 -1.640625 -1.265625 -4.5468826q0 -2.90625 1.25 -4.484375q1.234375 -1.53125 3.453125 -1.53125q1.703125 0 2.78125 0.84375q1.078125 0.859375 1.265625 2.359375l1.234375 0q-0.125 -1.96875 -1.53125 -3.15625q-1.4375 -1.1875 -3.75 -1.1875q-2.765625 0 -4.359375 1.875q-1.640625 1.921875 -1.640625 5.296875q0 3.3906326 1.609375 5.3281326q1.578125 1.921875 4.34375 1.921875q2.421875 0 3.84375 -1.296875q1.4375 -1.296875 1.59375 -3.5625l-1.21875 0z" fill-rule="nonzero"/></g><g filter="url(#shadowFilter-g11ddf0a0acf_1_50.11)"><use xlink:href="#g11ddf0a0acf_1_50.11" transform="matrix(1.0 0.0 0.0 1.0 0.0 2.0)"/></g><defs><filter id="shadowFilter-g11ddf0a0acf_1_50.11" filterUnits="userSpaceOnUse"><feGaussianBlur in="SourceAlpha" stdDeviation="2.0" result="blur"/><feComponentTransfer in="blur" color-interpolation-filters="sRGB"><feFuncR type="linear" slope="0" intercept="0.0"/><feFuncG type="linear" slope="0" intercept="0.0"/><feFuncB type="linear" slope="0" intercept="0.0"/><feFuncA type="linear" slope="0.5" intercept="0"/></feComponentTransfer></filter></defs><g id="g11ddf0a0acf_1_50.11"><path fill="#eeeeee" d="m784.44147 185.1181l152.66144 0l0 57.228348l-152.66144 0z" fill-rule="evenodd"/><path stroke="#595959" stroke-width="1.0" stroke-linejoin="round" stroke-linecap="butt" d="m784.44147 185.1181l152.66144 0l0 57.228348l-152.66144 0z" fill-rule="evenodd"/><path fill="#000000" d="m804.08765 220.66791l9.1875 0l0 -1.125l-7.9375 0l0 -5.328125l7.046875 0l0 -1.140625l-7.046875 0l0 -4.953125l7.71875 0l0 -1.125l-8.96875 0l0 13.671875zm11.761719 0l1.140625 0l0 -13.671875l-1.140625 0l0 13.671875zm10.832031 -1.40625l0 0.140625q0 0.671875 0.359375 1.03125q0.359375 0.34375 1.0625 0.34375q0.140625 0 0.3125 -0.015625q0.234375 -0.03125 0.5 -0.078125l0 -0.84375l-0.40625 0q-0.484375 0 -0.640625 -0.234375q-0.09375 -0.140625 -0.09375 -0.65625l0 -5.390625q0 -1.484375 -0.921875 -2.234375q-0.90625 -0.75 -2.671875 -0.75q-1.796875 0 -2.859375 0.875q-1.03125 0.859375 -1.046875 2.3125l1.125 0q0.03125 -1.09375 0.734375 -1.640625q0.71875 -0.546875 2.046875 -0.546875q1.3125 0 1.890625 0.53125q0.5625 0.46875 0.5625 1.625q0 0.6875 -0.5 0.96875q-0.375 0.21875 -1.234375 0.296875l-0.515625 0.03125q-1.078125 0.078125 -1.59375 0.171875q-0.828125 0.125 -1.421875 0.421875q-0.796875 0.34375 -1.1875 0.96875q-0.421875 0.625 -0.421875 1.5q0 1.28125 0.875 2.0625q0.890625 0.796875 2.390625 0.796875q1.046875 0 1.953125 -0.421875q0.90625 -0.4375 1.703125 -1.265625zm-0.046875 -3.765625l0 1.390625q0 1.390625 -0.96875 2.21875q-0.9375 0.828125 -2.484375 0.828125q-1.046875 0 -1.65625 -0.53125q-0.59375 -0.515625 -0.59375 -1.34375q0 -0.796875 0.5625 -1.328125q0.609375 -0.5625 1.71875 -0.703125l1.15625 -0.140625q0.875 -0.078125 1.25 -0.15625q0.609375 -0.09375 1.015625 -0.234375zm4.2021484 2.09375q0.046875 1.515625 1.0625 2.4375q1.046875 0.921875 2.765625 0.921875q1.703125 0 2.75 -0.8125q1.015625 -0.796875 1.015625 -2.03125q0 -1.1875 -0.71875 -1.8125q-0.671875 -0.578125 -2.28125 -0.96875l-0.453125 -0.109375q-1.578125 -0.375 -2.03125 -0.625q-0.703125 -0.4375 -0.703125 -1.34375q0 -0.765625 0.546875 -1.203125q0.609375 -0.484375 1.640625 -0.484375q1.140625 0 1.828125 0.5625q0.671875 0.578125 0.75 1.578125l1.171875 0q-0.125 -1.484375 -1.109375 -2.3125q-0.96875 -0.828125 -2.625 -0.828125q-1.53125 0 -2.46875 0.796875q-0.921875 0.796875 -0.921875 2.0625q0 1.1875 0.890625 1.8125q0.71875 0.515625 2.671875 1.0l0.046875 0q1.5 0.375 1.9375 0.640625q0.65625 0.390625 0.65625 1.21875q0 0.8125 -0.6875 1.3125q-0.71875 0.53125 -1.9375 0.53125q-1.15625 0 -1.875 -0.671875q-0.75 -0.65625 -0.75 -1.671875l-1.171875 0zm11.9375 -9.625l-1.125 0l0 2.828125l-1.34375 0l0 0.9375l1.34375 0l0 7.203125q0 1.046875 0.296875 1.484375q0.34375 0.5 1.28125 0.5q0.3125 0 0.640625 -0.0625q0.328125 -0.046875 0.75 -0.171875l0 -0.890625l-0.1875 0.046875q-0.34375 0.0625 -0.5 0.09375q-0.25 0.046875 -0.40625 0.046875q-0.46875 0 -0.625 -0.28125q-0.125 -0.21875 -0.125 -0.765625l0 -7.203125l1.84375 0l0 -0.9375l-1.84375 0l0 -2.828125zm4.265625 12.703125l1.140625 0l0 -9.875l-1.140625 0l0 9.875zm0 -11.953125l1.140625 0l0 -1.71875l-1.140625 0l0 1.71875zm11.169922 8.546875q-0.203125 1.234375 -0.96875 1.9375q-0.765625 0.703125 -1.90625 0.703125q-1.484375 0 -2.359375 -1.09375q-0.890625 -1.125 -0.890625 -3.09375q0 -1.96875 0.890625 -3.078125q0.875 -1.078125 2.34375 -1.078125q1.109375 0 1.875 0.625q0.78125 0.65625 0.921875 1.75l1.09375 0q-0.09375 -1.515625 -1.171875 -2.453125q-1.0625 -0.921875 -2.71875 -0.921875q-2.046875 0 -3.21875 1.375q-1.1875 1.40625 -1.1875 3.875q0 2.375 1.171875 3.75q1.171875 1.375 3.15625 1.375q1.75 0 2.84375 -1.0q1.078125 -0.984375 1.265625 -2.671875l-1.140625 0zm3.3164062 0.328125q0.046875 1.515625 1.0625 2.4375q1.046875 0.921875 2.765625 0.921875q1.703125 0 2.75 -0.8125q1.015625 -0.796875 1.015625 -2.03125q0 -1.1875 -0.71875 -1.8125q-0.671875 -0.578125 -2.28125 -0.96875l-0.453125 -0.109375q-1.578125 -0.375 -2.03125 -0.625q-0.703125 -0.4375 -0.703125 -1.34375q0 -0.765625 0.546875 -1.203125q0.609375 -0.484375 1.640625 -0.484375q1.140625 0 1.828125 0.5625q0.671875 0.578125 0.75 1.578125l1.171875 0q-0.125 -1.484375 -1.109375 -2.3125q-0.96875 -0.828125 -2.625 -0.828125q-1.53125 0 -2.46875 0.796875q-0.921875 0.796875 -0.921875 2.0625q0 1.1875 0.890625 1.8125q0.71875 0.515625 2.671875 1.0l0.046875 0q1.5 0.375 1.9375 0.640625q0.65625 0.390625 0.65625 1.21875q0 0.8125 -0.6875 1.3125q-0.71875 0.53125 -1.9375 0.53125q-1.15625 0 -1.875 -0.671875q-0.75 -0.65625 -0.75 -1.671875l-1.171875 0zm10.984375 -2.5625q-0.015625 -1.515625 0.9375 -2.5625q0.828125 -0.90625 2.125 -0.90625q1.28125 0 2.078125 0.90625q0.890625 1.046875 0.890625 2.5625l-6.03125 0zm0 0.90625l7.21875 0l0 -0.359375q0 -2.375 -1.109375 -3.71875q-1.109375 -1.296875 -3.0 -1.296875q-2.0 0 -3.140625 1.359375q-1.15625 1.390625 -1.15625 3.875q0 2.421875 1.140625 3.796875q1.125 1.359375 3.09375 1.359375q1.640625 0 2.734375 -0.921875q1.109375 -0.921875 1.296875 -2.40625l-1.140625 0q-0.15625 1.0625 -0.9375 1.6875q-0.765625 0.625 -1.859375 0.625q-1.40625 0 -2.265625 -1.0625q-0.875 -1.078125 -0.875 -2.9375zm16.347656 3.328125l0 0.140625q0 0.671875 0.359375 1.03125q0.359375 0.34375 1.0625 0.34375q0.140625 0 0.3125 -0.015625q0.234375 -0.03125 0.5 -0.078125l0 -0.84375l-0.40625 0q-0.484375 0 -0.640625 -0.234375q-0.09375 -0.140625 -0.09375 -0.65625l0 -5.390625q0 -1.484375 -0.921875 -2.234375q-0.90625 -0.75 -2.671875 -0.75q-1.796875 0 -2.859375 0.875q-1.03125 0.859375 -1.046875 2.3125l1.125 0q0.03125 -1.09375 0.734375 -1.640625q0.71875 -0.546875 2.046875 -0.546875q1.3125 0 1.890625 0.53125q0.5625 0.46875 0.5625 1.625q0 0.6875 -0.5 0.96875q-0.375 0.21875 -1.234375 0.296875l-0.515625 0.03125q-1.078125 0.078125 -1.59375 0.171875q-0.828125 0.125 -1.421875 0.421875q-0.796875 0.34375 -1.1875 0.96875q-0.421875 0.625 -0.421875 1.5q0 1.28125 0.875 2.0625q0.890625 0.796875 2.390625 0.796875q1.046875 0 1.953125 -0.421875q0.90625 -0.4375 1.703125 -1.265625zm-0.046875 -3.765625l0 1.390625q0 1.390625 -0.96875 2.21875q-0.9375 0.828125 -2.484375 0.828125q-1.046875 0 -1.65625 -0.53125q-0.59375 -0.515625 -0.59375 -1.34375q0 -0.796875 0.5625 -1.328125q0.609375 -0.5625 1.71875 -0.703125l1.15625 -0.140625q0.875 -0.078125 1.25 -0.15625q0.609375 -0.09375 1.015625 -0.234375zm4.6240234 5.171875l1.125 0l0 -5.46875q0 -1.703125 0.75 -2.59375q0.71875 -0.875 2.078125 -0.875l0.15625 0l0 -1.171875l-0.125 0q-0.984375 0 -1.703125 0.46875q-0.765625 0.5 -1.171875 1.5l0 -1.734375l-1.109375 0l0 9.875zm12.9609375 -3.40625q-0.203125 1.234375 -0.96875 1.9375q-0.765625 0.703125 -1.90625 0.703125q-1.484375 0 -2.359375 -1.09375q-0.890625 -1.125 -0.890625 -3.09375q0 -1.96875 0.890625 -3.078125q0.875 -1.078125 2.34375 -1.078125q1.109375 0 1.875 0.625q0.78125 0.65625 0.921875 1.75l1.09375 0q-0.09375 -1.515625 -1.171875 -2.453125q-1.0625 -0.921875 -2.71875 -0.921875q-2.046875 0 -3.21875 1.375q-1.1875 1.40625 -1.1875 3.875q0 2.375 1.171875 3.75q1.171875 1.375 3.15625 1.375q1.75 0 2.84375 -1.0q1.078125 -0.984375 1.265625 -2.671875l-1.140625 0zm3.7382812 3.40625l1.125 0l0 -5.8125q0 -1.515625 0.828125 -2.421875q0.828125 -0.875 2.140625 -0.875q1.40625 0 1.90625 0.765625q0.453125 0.671875 0.453125 2.359375l0 5.984375l1.125 0l0 -6.015625q0 -1.109375 -0.046875 -1.546875q-0.09375 -0.734375 -0.359375 -1.15625q-0.40625 -0.65625 -1.171875 -1.015625q-0.75 -0.375 -1.6875 -0.375q-1.015625 0 -1.828125 0.4375q-0.796875 0.453125 -1.359375 1.34375l0 -5.34375l-1.125 0l0 13.671875z" fill-rule="nonzero"/></g><g filter="url(#shadowFilter-g11ddf0a0acf_1_50.12)"><use xlink:href="#g11ddf0a0acf_1_50.12" transform="matrix(1.0 0.0 0.0 1.0 0.0 2.0)"/></g><defs><filter id="shadowFilter-g11ddf0a0acf_1_50.12" filterUnits="userSpaceOnUse"><feGaussianBlur in="SourceAlpha" stdDeviation="2.0" result="blur"/><feComponentTransfer in="blur" color-interpolation-filters="sRGB"><feFuncR type="linear" slope="0" intercept="0.0"/><feFuncG type="linear" slope="0" intercept="0.0"/><feFuncB type="linear" slope="0" intercept="0.0"/><feFuncA type="linear" slope="0.5" intercept="0"/></feComponentTransfer></filter></defs><g id="g11ddf0a0acf_1_50.12"><path fill="#eeeeee" d="m784.44147 271.63516l152.66144 0l0 57.228363l-152.66144 0z" fill-rule="evenodd"/><path stroke="#595959" stroke-width="1.0" stroke-linejoin="round" stroke-linecap="butt" d="m784.44147 271.63516l152.66144 0l0 57.228363l-152.66144 0z" fill-rule="evenodd"/><path fill="#000000" d="m834.0847 293.12247l0 1.046875l6.796875 0q-0.0625 0.609375 -0.203125 1.109375q-0.15625 0.484375 -0.5 1.140625q-1.765625 0.234375 -3.78125 0.375q-1.859375 0.15625 -3.109375 0.15625l0.453125 1.09375q0.125 0.25 0.21875 0.296875q0.078125 0.015625 0.28125 -0.09375q0.140625 -0.09375 0.234375 -0.140625q0.1875 -0.078125 0.390625 -0.109375l4.75 -0.546875q-0.734375 1.4375 -2.484375 2.8125q-1.78125 1.40625 -4.046875 2.28125l1.0 0.90625q3.296875 -1.453125 5.328125 -3.78125q2.359375 -2.703125 2.984375 -6.546875l-8.3125 0zm13.140625 -1.078125l-0.875 0l0 5.109375l-4.1875 0l0 1.03125l4.1875 0l0 6.109375l1.25 0l0 -11.5625q0 -0.109375 0.03125 -0.21875q0.046875 -0.0625 0.09375 -0.171875q0.109375 -0.1875 0.0625 -0.21875q-0.078125 -0.078125 -0.5625 -0.078125zm-10.140625 10.96875l-0.921875 0l0 5.234375l11.828125 0l0 -1.015625l-10.59375 0l0 -3.65625q0 -0.078125 0.015625 -0.15625q0.015625 -0.046875 0.0625 -0.125q0.078125 -0.171875 0.046875 -0.203125q-0.078125 -0.078125 -0.4375 -0.078125zm17.515625 -3.859375q2.140625 -0.78125 3.90625 -2.25q1.671875 -1.375 2.234375 -2.671875q0.75 1.359375 2.21875 2.515625q1.671875 1.28125 3.984375 2.078125l0.578125 -1.125q-1.328125 -0.234375 -2.5625 -0.890625q-1.03125 -0.546875 -1.90625 -1.375q-0.765625 -0.671875 -1.203125 -1.359375q-0.40625 -0.640625 -0.375 -0.9375q0 -0.15625 0.078125 -0.328125q0.03125 -0.109375 0.140625 -0.296875q0.15625 -0.265625 0.140625 -0.359375q-0.015625 -0.109375 -0.390625 -0.109375l-1.15625 0q-0.09375 1.828125 -1.796875 3.515625q-1.765625 1.734375 -4.46875 2.53125l0.578125 1.0625zm14.0 1.765625l-15.65625 0l0 1.015625l3.6875 0l0 6.140625l1.203125 0l0 -6.140625l5.875 0l0 6.734375l1.203125 0l0 -6.734375l3.6875 0l0 -1.015625zm9.921875 -6.140625l0 8.109375l-5.21875 0l0 -8.109375l5.21875 0zm-6.46875 -1.046875l0 11.0l1.25 0l0 -0.8125l5.21875 0l0 0.5l1.25 0l0 -10.6875l-7.71875 0zm7.71875 4.921875l0 1.03125l4.578125 0l0 8.984375l1.25 0l0 -15.96875q0 -0.078125 0.015625 -0.171875q0.015625 -0.0625 0.078125 -0.140625q0.09375 -0.1875 0.046875 -0.25q-0.03125 -0.09375 -0.359375 -0.09375l-1.03125 0l0 6.609375l-4.578125 0z" fill-rule="nonzero"/></g><g filter="url(#shadowFilter-g11ddf0a0acf_1_50.13)"><use xlink:href="#g11ddf0a0acf_1_50.13" transform="matrix(1.0 0.0 0.0 1.0 0.0 2.0)"/></g><defs><filter id="shadowFilter-g11ddf0a0acf_1_50.13" filterUnits="userSpaceOnUse"><feGaussianBlur in="SourceAlpha" stdDeviation="2.0" result="blur"/><feComponentTransfer in="blur" color-interpolation-filters="sRGB"><feFuncR type="linear" slope="0" intercept="0.0"/><feFuncG type="linear" slope="0" intercept="0.0"/><feFuncB type="linear" slope="0" intercept="0.0"/><feFuncA type="linear" slope="0.5" intercept="0"/></feComponentTransfer></filter></defs><g id="g11ddf0a0acf_1_50.13"><path fill="#eeeeee" d="m636.8089 101.26509l111.055176 0l0 144.50394l-111.055176 0z" fill-rule="evenodd"/><path stroke="#595959" stroke-width="1.0" stroke-linejoin="round" stroke-linecap="butt" d="m636.8089 101.26509l111.055176 0l0 144.50394l-111.055176 0z" fill-rule="evenodd"/><path fill="#000000" d="m665.649 155.99956l0 1.03125l6.96875 0q-0.078125 0.90625 -0.25 1.65625q-0.125 0.671875 -0.40625 1.53125q-1.59375 0.21875 -3.78125 0.375q-1.953125 0.140625 -3.234375 0.140625l0.453125 1.0625q0.125 0.25 0.21875 0.28125q0.078125 0.015625 0.265625 -0.09375q0.140625 -0.09375 0.25 -0.140625q0.1875 -0.09375 0.390625 -0.109375l5.015625 -0.484375q-0.84375 1.796875 -2.734375 3.359375q-1.875 1.546875 -4.15625 2.296875l1.0 1.03125q3.5625 -1.59375 5.578125 -4.21875q2.3125 -3.046875 2.734375 -7.71875l-8.3125 0zm8.078125 5.0l0 1.03125l4.1875 0l0 8.90625l1.25 0l0 -15.96875q0 -0.078125 0.015625 -0.171875q0.015625 -0.0625 0.078125 -0.140625q0.09375 -0.1875 0.046875 -0.25q-0.03125 -0.09375 -0.359375 -0.09375l-1.03125 0l0 6.6875l-4.1875 0zm11.671875 -6.28125l-0.78125 0l0 7.90625q2.265625 0 4.21875 -0.203125q1.515625 -0.140625 3.46875 -0.46875l-0.15625 -1.03125q-1.71875 0.34375 -3.265625 0.515625q-1.4375 0.15625 -3.015625 0.15625l0 -6.046875q0 -0.125 0.015625 -0.234375q0.015625 -0.0625 0.078125 -0.203125q0.078125 -0.21875 0.03125 -0.296875q-0.09375 -0.09375 -0.59375 -0.09375zm4.421875 2.8125l0 0.9375l4.03125 0l0 5.109375l1.25 0l0 -8.40625q0 -0.078125 0.015625 -0.171875q0.015625 -0.046875 0.078125 -0.140625q0.09375 -0.1875 0.046875 -0.25q-0.03125 -0.09375 -0.359375 -0.09375l-1.03125 0l0 3.015625l-4.03125 0zm7.09375 -3.21875l0 9.5l1.25 0l0 -8.921875q0 -0.078125 0.015625 -0.15625q0.015625 -0.03125 0.078125 -0.125q0.09375 -0.171875 0.046875 -0.21875q-0.046875 -0.078125 -0.40625 -0.078125l-0.984375 0zm-10.515625 10.6875l0 1.015625l10.578125 0l0 4.921875l1.1875 0l0 -5.9375l-11.765625 0zm19.265625 -9.5l0 7.984375l11.703125 0l0 -1.03125l-10.546875 0l0 -2.53125l10.1875 0l0 -1.03125l-10.1875 0l0 -2.375l10.1875 0l0 -1.015625l-11.34375 0zm-2.15625 12.03125l0 1.03125l15.65625 0l0 -1.03125l-15.65625 0z" fill-rule="nonzero"/><path fill="#000000" d="m672.11774 175.8433l-0.890625 0q-1.53125 1.84375 -2.265625 4.03125q-0.765625 2.203125 -0.765625 4.734375q0 2.515625 0.765625 4.734375q0.734375 2.1875 2.265625 4.046875l0.890625 0q-1.4375 -1.984375 -2.109375 -4.140625q-0.640625 -2.140625 -0.640625 -4.640625q0 -2.609375 0.734375 -4.859375q0.671875 -2.046875 2.015625 -3.90625zm7.765625 0.875q0.0625 2.390625 -1.4375 4.5625q-1.515625 2.15625 -3.984375 3.234375l0.8125 1.015625q1.921875 -1.203125 3.140625 -2.515625q1.21875 -1.296875 1.859375 -2.859375q0.484375 1.359375 1.875 2.734375q1.390625 1.328125 3.09375 2.109375l0.75 -1.0625q-2.40625 -0.8125 -3.828125 -2.515625q-1.390625 -1.734375 -1.125 -3.5625q0.015625 -0.1875 0.078125 -0.375q0.03125 -0.09375 0.109375 -0.28125q0.125 -0.28125 0.109375 -0.375q-0.046875 -0.109375 -0.359375 -0.109375l-1.09375 0zm7.53125 9.90625l1.25 0l0 -9.65625q0 -0.078125 0.015625 -0.171875q0.015625 -0.0625 0.078125 -0.140625q0.09375 -0.1875 0.046875 -0.25q-0.046875 -0.09375 -0.390625 -0.09375l-1.0 0l0 10.3125zm-4.359375 0q-2.921875 0 -4.484375 0.9375q-1.453125 0.875 -1.453125 2.375q0 1.46875 1.453125 2.328125q1.5625 0.9375 4.484375 0.9375q2.921875 0 4.46875 -0.9375q1.46875 -0.859375 1.46875 -2.328125q0 -1.5 -1.46875 -2.375q-1.546875 -0.9375 -4.46875 -0.9375zm0 1.046875q2.359375 0 3.546875 0.578125q1.171875 0.578125 1.171875 1.6875q0 1.09375 -1.171875 1.65625q-1.1875 0.5625 -3.546875 0.5625q-2.390625 0 -3.5625 -0.5625q-1.140625 -0.5625 -1.140625 -1.65625q0 -1.140625 1.140625 -1.6875q1.171875 -0.578125 3.5625 -0.578125zm13.125 -10.015625l0 1.078125l10.046875 0l-0.015625 0.84375q0 0.609375 0 1.046875q0 0.75 -0.015625 1.703125q-2.765625 0.234375 -5.921875 0.40625q-2.921875 0.171875 -4.515625 0.171875l0.328125 1.046875q0.09375 0.28125 0.1875 0.328125q0.078125 0.015625 0.25 -0.09375q0.171875 -0.09375 0.28125 -0.140625q0.1875 -0.0625 0.40625 -0.0625l8.953125 -0.6875q-0.046875 1.40625 -0.234375 2.765625q-0.25 1.8125 -0.765625 3.625l1.1875 0.15625q0.640625 -2.546875 0.921875 -5.953125q0.21875 -2.734375 0.21875 -6.234375l-11.3125 0zm-2.171875 11.890625l0 1.015625l15.65625 0l0 -1.015625l-15.65625 0zm18.515625 -13.703125q1.40625 1.953125 2.09375 4.109375q0.671875 2.125 0.671875 4.65625q0 2.5 -0.671875 4.640625q-0.6875 2.15625 -2.09375 4.140625l0.921875 0q1.484375 -1.859375 2.25 -4.046875q0.765625 -2.21875 0.765625 -4.734375q0 -2.53125 -0.765625 -4.734375q-0.765625 -2.1875 -2.25 -4.03125l-0.921875 0z" fill-rule="nonzero"/></g><g filter="url(#shadowFilter-g11ddf0a0acf_1_50.14)"><use xlink:href="#g11ddf0a0acf_1_50.14" transform="matrix(1.0 0.0 0.0 1.0 0.0 2.0)"/></g><defs><filter id="shadowFilter-g11ddf0a0acf_1_50.14" filterUnits="userSpaceOnUse"><feGaussianBlur in="SourceAlpha" stdDeviation="2.0" result="blur"/><feComponentTransfer in="blur" color-interpolation-filters="sRGB"><feFuncR type="linear" slope="0" intercept="0.0"/><feFuncG type="linear" slope="0" intercept="0.0"/><feFuncB type="linear" slope="0" intercept="0.0"/><feFuncA type="linear" slope="0.5" intercept="0"/></feComponentTransfer></filter></defs><g id="g11ddf0a0acf_1_50.14"><path fill="#eeeeee" d="m636.8089 358.9265l152.66144 0l0 57.228333l-152.66144 0z" fill-rule="evenodd"/><path stroke="#595959" stroke-width="1.0" stroke-linejoin="round" stroke-linecap="butt" d="m636.8089 358.9265l152.66144 0l0 57.228333l-152.66144 0z" fill-rule="evenodd"/><path fill="#000000" d="m684.999 380.78882l-1.0625 -0.109375q0 2.796875 -2.0 4.5625q-1.84375 1.59375 -5.09375 2.125l1.0625 1.0625q2.453125 -0.5 4.296875 -1.8125q1.90625 -1.375 2.375 -3.0625q0.53125 1.796875 2.75 3.203125q1.953125 1.25 3.921875 1.546875l0.921875 -1.15625q-1.328125 0 -2.59375 -0.515625q-1.1875 -0.484375 -2.140625 -1.3125q-0.9375 -0.8125 -1.515625 -1.8125q-0.578125 -1.015625 -0.6875 -1.984375q0 -0.109375 0.0625 -0.21875q0.015625 -0.09375 0.09375 -0.1875q0.078125 -0.125 0.046875 -0.1875q-0.046875 -0.09375 -0.4375 -0.140625zm-8.515625 11.65625l0 1.1875l16.140625 0l0 -1.1875l-16.140625 0zm21.484375 -11.921875l0 7.984375l11.703125 0l0 -1.03125l-10.546875 0l0 -2.53125l10.1875 0l0 -1.03125l-10.1875 0l0 -2.375l10.1875 0l0 -1.015625l-11.34375 0zm-2.15625 12.03125l0 1.03125l15.65625 0l0 -1.03125l-15.65625 0zm19.703125 -12.5l0 1.03125l7.03125 0l0 2.203125l-7.03125 0l0 4.84375q3.53125 -0.03125 6.09375 -0.21875q2.671875 -0.21875 4.53125 -0.609375l-0.296875 -1.125q-1.53125 0.453125 -4.15625 0.671875q-2.234375 0.203125 -4.953125 0.203125l0 -2.75l7.09375 0l0 -4.25l-8.3125 0zm11.703125 -0.71875l0 9.265625l1.25 0l0 -8.6875q0 -0.078125 0.015625 -0.15625q0.015625 -0.03125 0.078125 -0.109375q0.09375 -0.1875 0.046875 -0.234375q-0.046875 -0.078125 -0.40625 -0.078125l-0.984375 0zm0 11.203125l0 3.65625l-9.0 0l0 -3.65625l9.0 0zm-10.234375 -1.03125l0 6.25l1.234375 0l0 -0.515625l9.0 0l0 0.515625l1.25 0l0 -6.25l-11.484375 0zm18.140625 -8.71875l0 1.015625l5.71875 0q0 1.75 -1.71875 3.21875q-1.90625 1.625 -4.75 1.78125l0.90625 1.0625q2.140625 -0.359375 3.890625 -1.390625q1.671875 -1.0 2.375 -2.234375q0.6875 1.25 2.546875 2.3125q1.859375 1.09375 3.859375 1.359375l0.640625 -1.171875q-2.8125 -0.203125 -4.671875 -1.796875q-1.703125 -1.4375 -1.703125 -3.140625l6.0625 0l0 -1.015625l-13.15625 0zm-1.671875 10.578125l0 1.09375l16.4375 0l0 -1.09375l-16.4375 0z" fill-rule="nonzero"/></g><path fill="#000000" fill-opacity="0.0" d="m636.8089 387.54068l-109.4173 0" fill-rule="evenodd"/><path stroke="#595959" stroke-width="3.0" stroke-linejoin="round" stroke-linecap="butt" d="m636.80896 387.54068l-91.41736 0" fill-rule="evenodd"/><path fill="#595959" stroke="#595959" stroke-width="3.0" stroke-linecap="butt" d="m545.3916 382.58548l-13.614258 4.9552l13.614258 4.9552z" fill-rule="evenodd"/><path fill="#000000" fill-opacity="0.0" d="m527.6908 317.06824l185.44885 0l0 41.858276" fill-rule="evenodd"/><path stroke="#595959" stroke-width="3.0" stroke-linejoin="round" stroke-linecap="butt" d="m527.6908 317.06824l185.44879 0l0 23.858276" fill-rule="evenodd"/><path fill="#595959" stroke="#595959" stroke-width="3.0" stroke-linecap="butt" d="m708.1844 340.9265l4.9552 13.614288l4.9552 -13.614288z" fill-rule="evenodd"/></g></svg>