<svg version="1.1" viewBox="0.0 0.0 960.0 540.0" fill="none" stroke="none" stroke-linecap="square" stroke-miterlimit="10" xmlns:xlink="http://www.w3.org/1999/xlink" xmlns="http://www.w3.org/2000/svg"><clipPath id="g11ddf0a0acf_1_25.0"><path d="m0 0l960.0 0l0 540.0l-960.0 0l0 -540.0z" clip-rule="nonzero"/></clipPath><g clip-path="url(#g11ddf0a0acf_1_25.0)"><path fill="#ffffff" d="m0 0l960.0 0l0 540.0l-960.0 0z" fill-rule="evenodd"/><g filter="url(#shadowFilter-g11ddf0a0acf_1_25.1)"><use xlink:href="#g11ddf0a0acf_1_25.1" transform="matrix(1.0 0.0 0.0 1.0 0.0 2.0)"/></g><defs><filter id="shadowFilter-g11ddf0a0acf_1_25.1" filterUnits="userSpaceOnUse"><feGaussianBlur in="SourceAlpha" stdDeviation="2.0" result="blur"/><feComponentTransfer in="blur" color-interpolation-filters="sRGB"><feFuncR type="linear" slope="0" intercept="0.0"/><feFuncG type="linear" slope="0" intercept="0.0"/><feFuncB type="linear" slope="0" intercept="0.0"/><feFuncA type="linear" slope="0.5" intercept="0"/></feComponentTransfer></filter></defs><g id="g11ddf0a0acf_1_25.1"><path fill="#eeeeee" d="m735.6646 192.17577l200.66144 0l0 61.952744l-200.66144 0z" fill-rule="evenodd"/><path stroke="#595959" stroke-width="1.0" stroke-linejoin="round" stroke-linecap="butt" d="m735.6646 192.17577l200.66144 0l0 61.952744l-200.66144 0z" fill-rule="evenodd"/><path fill="#000000" d="m809.30786 216.02527l0 1.046875l6.796875 0q-0.0625 0.609375 -0.203125 1.109375q-0.15625 0.484375 -0.5 1.140625q-1.765625 0.234375 -3.78125 0.375q-1.859375 0.15625 -3.109375 0.15625l0.453125 1.09375q0.125 0.25 0.21875 0.296875q0.078125 0.015625 0.28125 -0.09375q0.140625 -0.09375 0.234375 -0.140625q0.1875 -0.078125 0.390625 -0.109375l4.75 -0.546875q-0.734375 1.4375 -2.484375 2.8125q-1.78125 1.40625 -4.046875 2.28125l1.0 0.90625q3.296875 -1.453125 5.328125 -3.78125q2.359375 -2.703125 2.984375 -6.546875l-8.3125 0zm13.140625 -1.078125l-0.875 0l0 5.109375l-4.1875 0l0 1.03125l4.1875 0l0 6.109375l1.25 0l0 -11.5625q0 -0.109375 0.03125 -0.21875q0.046875 -0.0625 0.09375 -0.171875q0.109375 -0.1875 0.0625 -0.21875q-0.078125 -0.078125 -0.5625 -0.078125zm-10.140625 10.96875l-0.921875 0l0 5.234375l11.828125 0l0 -1.015625l-10.59375 0l0 -3.65625q0 -0.078125 0.015625 -0.15625q0.015625 -0.046875 0.0625 -0.125q0.078125 -0.171875 0.046875 -0.203125q-0.078125 -0.078125 -0.4375 -0.078125zm17.515625 -3.859375q2.140625 -0.78125 3.90625 -2.25q1.671875 -1.375 2.234375 -2.671875q0.75 1.359375 2.21875 2.515625q1.671875 1.28125 3.984375 2.078125l0.578125 -1.125q-1.328125 -0.234375 -2.5625 -0.890625q-1.03125 -0.546875 -1.90625 -1.375q-0.765625 -0.671875 -1.203125 -1.359375q-0.40625 -0.640625 -0.375 -0.9375q0 -0.15625 0.078125 -0.328125q0.03125 -0.109375 0.140625 -0.296875q0.15625 -0.265625 0.140625 -0.359375q-0.015625 -0.109375 -0.390625 -0.109375l-1.15625 0q-0.09375 1.828125 -1.796875 3.515625q-1.765625 1.734375 -4.46875 2.53125l0.578125 1.0625zm14.0 1.765625l-15.65625 0l0 1.015625l3.6875 0l0 6.140625l1.203125 0l0 -6.140625l5.875 0l0 6.734375l1.203125 0l0 -6.734375l3.6875 0l0 -1.015625zm9.921875 -6.140625l0 8.109375l-5.21875 0l0 -8.109375l5.21875 0zm-6.46875 -1.046875l0 11.0l1.25 0l0 -0.8125l5.21875 0l0 0.5l1.25 0l0 -10.6875l-7.71875 0zm7.71875 4.921875l0 1.03125l4.578125 0l0 8.984375l1.25 0l0 -15.96875q0 -0.078125 0.015625 -0.171875q0.015625 -0.0625 0.078125 -0.140625q0.09375 -0.1875 0.046875 -0.25q-0.03125 -0.09375 -0.359375 -0.09375l-1.03125 0l0 6.609375l-4.578125 0z" fill-rule="nonzero"/></g><g filter="url(#shadowFilter-g11ddf0a0acf_1_25.2)"><use xlink:href="#g11ddf0a0acf_1_25.2" transform="matrix(1.0 0.0 0.0 1.0 0.0 2.0)"/></g><defs><filter id="shadowFilter-g11ddf0a0acf_1_25.2" filterUnits="userSpaceOnUse"><feGaussianBlur in="SourceAlpha" stdDeviation="2.0" result="blur"/><feComponentTransfer in="blur" color-interpolation-filters="sRGB"><feFuncR type="linear" slope="0" intercept="0.0"/><feFuncG type="linear" slope="0" intercept="0.0"/><feFuncB type="linear" slope="0" intercept="0.0"/><feFuncA type="linear" slope="0.5" intercept="0"/></feComponentTransfer></filter></defs><g id="g11ddf0a0acf_1_25.2"><path fill="#eeeeee" d="m24.46981 192.17577l200.6614 0l0 61.952744l-200.6614 0z" fill-rule="evenodd"/><path stroke="#595959" stroke-width="1.0" stroke-linejoin="round" stroke-linecap="butt" d="m24.46981 192.17577l200.6614 0l0 61.952744l-200.6614 0z" fill-rule="evenodd"/><path fill="#000000" d="m90.36302 216.2909l0 0.953125l11.875 0l0 -0.953125l-11.875 0zm3.1875 1.8125l-0.875 0l0.5625 4.421875l-2.609375 0l0 0.9375l11.34375 0l0 -0.9375l-2.671875 0l0.5 -3.703125q0.03125 -0.109375 0.09375 -0.21875q0.046875 -0.046875 0.140625 -0.140625q0.125 -0.140625 0.09375 -0.1875q-0.046875 -0.078125 -0.40625 -0.140625l-0.984375 -0.15625l-0.59375 4.546875l-3.703125 0l-0.453125 -3.8125q-0.03125 -0.09375 0.015625 -0.203125q0.015625 -0.046875 0.046875 -0.140625q0.09375 -0.15625 0.046875 -0.203125q-0.09375 -0.0625 -0.546875 -0.0625zm-5.078125 10.078125l0 1.015625l15.65625 0l0 -1.015625l-15.65625 0zm21.09375 -11.59375l0 1.03125l10.25 0l0 2.640625l-10.15625 0l0 4.75l5.140625 0l0 3.265625l-7.421875 0l0 1.03125l16.15625 0l0 -1.03125l-7.453125 0l0 -3.265625l5.34375 0l0 -0.984375l-10.546875 0l0 -2.828125l10.140625 0l0 -4.609375l-11.453125 0zm19.0625 -1.234375l0 6.09375l11.609375 0l0 -1.046875l-10.375 0l0 -4.0l10.109375 0l0 -1.046875l-11.34375 0zm13.5 8.46875l-15.65625 0l0 1.015625l3.6875 0l0 6.140625l1.203125 0l0 -6.140625l5.875 0l0 6.734375l1.203125 0l0 -6.734375l3.6875 0l0 -1.015625zm8.359375 -7.5625l-1.078125 -0.140625q-0.15625 3.578125 -1.5625 6.375q-1.296875 2.640625 -3.234375 3.71875l1.1875 0.8125q1.34375 -1.046875 2.4375 -2.796875q0.96875 -1.546875 1.5 -3.1875q0.515625 1.6875 1.375 3.0625q0.9375 1.484375 2.5156403 2.921875l1.21875 -0.875q-1.9375 -1.28125 -3.1406403 -3.4375q-1.3125 -2.375 -1.15625 -4.828125q0.015625 -0.3125 0.109375 -0.65625q0.0625 -0.1875 0.1875 -0.453125q0.140625 -0.28125 0.09375 -0.359375q-0.046875 -0.109375 -0.453125 -0.15625zm3.0781403 4.625l0 1.015625l4.453125 0l0 9.078125l1.25 0l0 -15.6875q0 -0.09375 0.046875 -0.171875q0.015625 -0.0625 0.078125 -0.1875q0.078125 -0.171875 0.046875 -0.21875q-0.046875 -0.09375 -0.390625 -0.09375l-1.03125 0l0 6.265625l-4.453125 0z" fill-rule="nonzero"/></g><g filter="url(#shadowFilter-g11ddf0a0acf_1_25.3)"><use xlink:href="#g11ddf0a0acf_1_25.3" transform="matrix(1.0 0.0 0.0 1.0 0.0 2.0)"/></g><defs><filter id="shadowFilter-g11ddf0a0acf_1_25.3" filterUnits="userSpaceOnUse"><feGaussianBlur in="SourceAlpha" stdDeviation="2.0" result="blur"/><feComponentTransfer in="blur" color-interpolation-filters="sRGB"><feFuncR type="linear" slope="0" intercept="0.0"/><feFuncG type="linear" slope="0" intercept="0.0"/><feFuncB type="linear" slope="0" intercept="0.0"/><feFuncA type="linear" slope="0.5" intercept="0"/></feComponentTransfer></filter></defs><g id="g11ddf0a0acf_1_25.3"><path fill="#b7b7b7" d="m340.55896 -2.6246718E-7l279.65356 0l0 395.1496l-279.65356 0z" fill-rule="evenodd"/><path stroke="#595959" stroke-width="1.0" stroke-linejoin="round" stroke-linecap="butt" d="m340.55896 -2.6246718E-7l279.65356 0l0 395.1496l-279.65356 0z" fill-rule="evenodd"/></g><path fill="#000000" fill-opacity="0.0" d="m424.86725 -2.6246718E-7l111.055115 0l0 42.015747l-111.055115 0z" fill-rule="evenodd"/><path fill="#000000" d="m476.81668 12.841873l-10.375 0q-0.890625 0 -1.375 0.484375q-0.4375 0.453125 -0.4375 1.1875l0 5.640625q0 0.734375 0.453125 1.15625q0.46875 0.4375 1.296875 0.4375l10.515625 0q0.21875 0 0.34375 -0.15625q0.125 -0.140625 0.109375 -0.328125q0 -0.1875 -0.125 -0.34375q-0.15625 -0.125 -0.390625 -0.125l-10.28125 0q-0.4375 0 -0.625 -0.1875q-0.1875 -0.15625 -0.1875 -0.546875l0 -2.421875l10.890625 0q0.53125 0 0.53125 -0.484375q0 -0.453125 -0.53125 -0.453125l-10.890625 0l0 -2.0625q0 -0.453125 0.203125 -0.65625q0.21875 -0.1875 0.703125 -0.1875l10.25 0q0.21875 0 0.34375 -0.15625q0.125 -0.140625 0.109375 -0.3125q0 -0.21875 -0.125 -0.34375q-0.171875 -0.140625 -0.40625 -0.140625zm-6.4375 9.171875l0 3.625l-6.6875 0q-0.25 0 -0.40625 0.125q-0.125 0.15625 -0.140625 0.34375q-0.03125 0.1875 0.09375 0.328125q0.109375 0.15625 0.3125 0.15625l14.5625 0q0.234375 0 0.390625 -0.15625q0.140625 -0.140625 0.140625 -0.328125q0 -0.1875 -0.140625 -0.34375q-0.15625 -0.125 -0.40625 -0.125l-6.640625 0l0 -3.546875q0 -0.25 -0.1875 -0.40625q-0.15625 -0.140625 -0.359375 -0.140625q-0.21875 -0.03125 -0.375 0.109375q-0.15625 0.125 -0.15625 0.359375zm21.1875 -9.234375l-8.40625 0q-0.515625 0 -0.515625 0.46875q0 0.484375 0.515625 0.484375l8.40625 0q0.53125 0 0.53125 -0.484375q0 -0.46875 -0.53125 -0.46875zm-7.328125 2.25q0 0.90625 0.140625 2.265625q0.15625 1.21875 0.390625 2.484375l-2.109375 0.015625q-0.546875 0 -0.546875 0.4375q0 0.46875 0.546875 0.46875q3.0 0 5.546875 -0.234375q2.78125 -0.25 4.359375 -0.703125q0.234375 -0.0625 0.359375 -0.25q0.109375 -0.171875 0.0625 -0.34375q-0.03125 -0.203125 -0.203125 -0.296875q-0.1875 -0.125 -0.4375 -0.03125q-0.40625 0.125 -0.953125 0.234375q-0.328125 0.0625 -1.078125 0.203125l-0.296875 0.0625q0.203125 -1.015625 0.34375 -2.140625q0.15625 -1.265625 0.15625 -2.21875q0 -0.5 -0.53125 -0.5q-0.515625 0 -0.515625 0.5q0 0.953125 -0.140625 2.21875q-0.140625 1.296875 -0.34375 2.3125q-0.765625 0.078125 -1.640625 0.125q-0.859375 0.078125 -1.5 0.09375q-0.234375 -1.140625 -0.390625 -2.609375q-0.109375 -1.265625 -0.109375 -2.09375q0 -0.5 -0.5625 -0.5q-0.546875 0 -0.546875 0.5zm11.625 5.203125l0 -7.390625q0 -0.25 -0.171875 -0.375q-0.15625 -0.125 -0.375 -0.125q-0.25 0 -0.390625 0.125q-0.171875 0.140625 -0.171875 0.390625l0 7.375q0 0.265625 0.171875 0.4375q0.140625 0.140625 0.390625 0.140625q0.21875 0 0.375 -0.140625q0.171875 -0.171875 0.171875 -0.4375zm-1.78125 2.4375l-10.15625 0q-0.53125 0 -0.5 0.484375q0 0.484375 0.5 0.484375l10.0625 0q0.421875 0 0.59375 0.15625q0.171875 0.15625 0.171875 0.515625l0 3.0q0 0.265625 0.171875 0.421875q0.140625 0.140625 0.390625 0.140625q0.21875 0 0.375 -0.140625q0.171875 -0.15625 0.171875 -0.421875l0 -3.046875q0 -0.734375 -0.453125 -1.171875q-0.46875 -0.421875 -1.328125 -0.421875z" fill-rule="nonzero"/><g filter="url(#shadowFilter-g11ddf0a0acf_1_25.4)"><use xlink:href="#g11ddf0a0acf_1_25.4" transform="matrix(1.0 0.0 0.0 1.0 0.0 2.0)"/></g><defs><filter id="shadowFilter-g11ddf0a0acf_1_25.4" filterUnits="userSpaceOnUse"><feGaussianBlur in="SourceAlpha" stdDeviation="2.0" result="blur"/><feComponentTransfer in="blur" color-interpolation-filters="sRGB"><feFuncR type="linear" slope="0" intercept="0.0"/><feFuncG type="linear" slope="0" intercept="0.0"/><feFuncB type="linear" slope="0" intercept="0.0"/><feFuncA type="linear" slope="0.5" intercept="0"/></feComponentTransfer></filter></defs><g id="g11ddf0a0acf_1_25.4"><path fill="#eeeeee" d="m380.06723 95.58918l200.6614 0l0 61.95275l-200.6614 0z" fill-rule="evenodd"/><path stroke="#595959" stroke-width="1.0" stroke-linejoin="round" stroke-linecap="butt" d="m380.06723 95.58918l200.6614 0l0 61.95275l-200.6614 0z" fill-rule="evenodd"/><path fill="#000000" d="m461.42188 117.92306l-0.828125 0l0 16.453117l1.296875 0l0 -7.1562424l3.0625 0l0 -1.046875l-3.0625 0l0 -7.53125q0 -0.109375 0.03125 -0.203125q0.03125 -0.078125 0.078125 -0.1875q0.09375 -0.140625 0.03125 -0.203125q-0.109375 -0.09375 -0.609375 -0.125zm-12.328125 2.21875l0 1.09375l9.4375 0l0 -1.09375l-9.4375 0zm2.40625 2.796875l-0.953125 0l0.625 6.0624924q-0.75 0 -1.71875 0q-0.953125 0 -1.484375 0l0.34375 1.09375q0.0625 0.25 0.140625 0.296875q0.046875 0.015625 0.1875 -0.078125q0.15625 -0.078125 0.28125 -0.109375q0.203125 -0.078125 0.421875 -0.078125l1.0 -0.0625q2.84375 -0.125 4.484375 -0.203125q2.8125 -0.15625 4.578125 -0.25l-0.09375 -1.0l-3.0 0.15625l0.640625 -4.9843674q0.015625 -0.109375 0.078125 -0.203125q0.03125 -0.0625 0.125 -0.171875q0.15625 -0.171875 0.09375 -0.234375q-0.046875 -0.09375 -0.515625 -0.171875l-0.984375 -0.09375l-0.671875 5.9218674l-2.671875 0.125l-0.46875 -5.3281174q-0.015625 -0.109375 0.03125 -0.21875q0.015625 -0.046875 0.0625 -0.171875q0.078125 -0.140625 0.03125 -0.203125q-0.09375 -0.0625 -0.5625 -0.09375zm16.234375 -3.234375l0 11.624992q2.9375 0 5.796875 -0.28125q2.828125 -0.265625 4.828125 -0.71875l-0.109375 -1.09375q-2.171875 0.53125 -4.96875 0.796875q-2.421875 0.25 -4.34375 0.203125l0 -4.8593674l6.734375 0l0 -1.0l-6.734375 0l0 -3.6875l7.109375 0l0 -0.984375l-8.3125 0zm12.578125 -1.34375l-0.875 0l0 16.624992l1.25 0l0 -15.937492q0 -0.109375 0.03125 -0.21875q0.046875 -0.0625 0.09375 -0.171875q0.109375 -0.1875 0.0625 -0.21875q-0.078125 -0.078125 -0.5625 -0.078125zm9.8125 0.71875q0.046875 2.59375 -1.421875 4.9375q-1.453125 2.328125 -3.75 3.421875l0.796875 1.0156174q1.90625 -1.3124924 2.9375 -2.4687424q1.203125 -1.375 1.8125 -3.1875q0.453125 1.625 1.609375 3.140625q1.03125 1.296875 2.375 2.2656174l0.890625 -0.9843674q-1.828125 -0.921875 -3.078125 -2.921875q-1.296875 -2.109375 -1.03125 -4.078125q0.015625 -0.1875 0.078125 -0.375q0.03125 -0.09375 0.109375 -0.28125q0.125 -0.265625 0.109375 -0.359375q-0.046875 -0.125 -0.359375 -0.125l-1.078125 0zm4.25 2.21875l0 1.015625l4.0625 0l0 2.140625l-4.0625 0l0 1.03125l4.0625 0l0 5.2343674l1.25 0l0 -11.796867q0 -0.078125 0.015625 -0.15625q0.015625 -0.046875 0.0625 -0.125q0.09375 -0.171875 0.046875 -0.203125q-0.046875 -0.078125 -0.390625 -0.078125l-0.984375 0l0 2.9375l-4.0625 0zm-5.203125 8.031242l-0.921875 0l0 5.234375l11.828125 0l0 -1.015625l-10.59375 0l0 -3.65625q0 -0.078125 0.015625 -0.15625q0.015625 -0.046875 0.0625 -0.125q0.078125 -0.171875 0.046875 -0.203125q-0.078125 -0.078125 -0.4375 -0.078125zm15.375 -2.6718674q0 3.3437424 1.109375 5.1093674q1.140625 1.734375 3.25 1.734375q2.09375 0 3.21875 -1.734375q1.140625 -1.765625 1.140625 -5.0937424q0 -3.34375 -1.140625 -5.09375q-1.125 -1.75 -3.21875 -1.75q-2.109375 0 -3.25 1.71875q-1.109375 1.765625 -1.109375 5.109375zm1.296875 0q0 -2.90625 0.75 -4.3125q0.734375 -1.390625 2.3125 -1.390625q1.546875 0 2.296875 1.390625q0.765625 1.40625 0.765625 4.3125q0 2.8906174 -0.765625 4.2968674q-0.75 1.421875 -2.296875 1.421875q-1.578125 0 -2.3125 -1.421875q-0.75 -1.40625 -0.75 -4.2968674z" fill-rule="nonzero"/></g><g filter="url(#shadowFilter-g11ddf0a0acf_1_25.5)"><use xlink:href="#g11ddf0a0acf_1_25.5" transform="matrix(1.0 0.0 0.0 1.0 0.0 2.0)"/></g><defs><filter id="shadowFilter-g11ddf0a0acf_1_25.5" filterUnits="userSpaceOnUse"><feGaussianBlur in="SourceAlpha" stdDeviation="2.0" result="blur"/><feComponentTransfer in="blur" color-interpolation-filters="sRGB"><feFuncR type="linear" slope="0" intercept="0.0"/><feFuncG type="linear" slope="0" intercept="0.0"/><feFuncB type="linear" slope="0" intercept="0.0"/><feFuncA type="linear" slope="0.5" intercept="0"/></feComponentTransfer></filter></defs><g id="g11ddf0a0acf_1_25.5"><path fill="#eeeeee" d="m380.06723 190.88283l200.6614 0l0 61.95276l-200.6614 0z" fill-rule="evenodd"/><path stroke="#595959" stroke-width="1.0" stroke-linejoin="round" stroke-linecap="butt" d="m380.06723 190.88283l200.6614 0l0 61.95276l-200.6614 0z" fill-rule="evenodd"/><path fill="#000000" d="m461.42188 213.2167l-0.828125 0l0 16.453125l1.296875 0l0 -7.15625l3.0625 0l0 -1.046875l-3.0625 0l0 -7.53125q0 -0.109375 0.03125 -0.203125q0.03125 -0.078125 0.078125 -0.1875q0.09375 -0.140625 0.03125 -0.203125q-0.109375 -0.09375 -0.609375 -0.125zm-12.328125 2.21875l0 1.09375l9.4375 0l0 -1.09375l-9.4375 0zm2.40625 2.796875l-0.953125 0l0.625 6.0625q-0.75 0 -1.71875 0q-0.953125 0 -1.484375 0l0.34375 1.09375q0.0625 0.25 0.140625 0.296875q0.046875 0.015625 0.1875 -0.078125q0.15625 -0.078125 0.28125 -0.109375q0.203125 -0.078125 0.421875 -0.078125l1.0 -0.0625q2.84375 -0.125 4.484375 -0.203125q2.8125 -0.15625 4.578125 -0.25l-0.09375 -1.0l-3.0 0.15625l0.640625 -4.984375q0.015625 -0.109375 0.078125 -0.203125q0.03125 -0.0625 0.125 -0.171875q0.15625 -0.171875 0.09375 -0.234375q-0.046875 -0.09375 -0.515625 -0.171875l-0.984375 -0.09375l-0.671875 5.921875l-2.671875 0.125l-0.46875 -5.328125q-0.015625 -0.109375 0.03125 -0.21875q0.015625 -0.046875 0.0625 -0.171875q0.078125 -0.140625 0.03125 -0.203125q-0.09375 -0.0625 -0.5625 -0.09375zm16.234375 -3.234375l0 11.625q2.9375 0 5.796875 -0.28125q2.828125 -0.265625 4.828125 -0.71875l-0.109375 -1.09375q-2.171875 0.53125 -4.96875 0.796875q-2.421875 0.25 -4.34375 0.203125l0 -4.859375l6.734375 0l0 -1.0l-6.734375 0l0 -3.6875l7.109375 0l0 -0.984375l-8.3125 0zm12.578125 -1.34375l-0.875 0l0 16.625l1.25 0l0 -15.9375q0 -0.109375 0.03125 -0.21875q0.046875 -0.0625 0.09375 -0.171875q0.109375 -0.1875 0.0625 -0.21875q-0.078125 -0.078125 -0.5625 -0.078125zm9.8125 0.71875q0.046875 2.59375 -1.421875 4.9375q-1.453125 2.328125 -3.75 3.421875l0.796875 1.015625q1.90625 -1.3125 2.9375 -2.46875q1.203125 -1.375 1.8125 -3.1875q0.453125 1.625 1.609375 3.140625q1.03125 1.296875 2.375 2.265625l0.890625 -0.984375q-1.828125 -0.921875 -3.078125 -2.921875q-1.296875 -2.109375 -1.03125 -4.078125q0.015625 -0.1875 0.078125 -0.375q0.03125 -0.09375 0.109375 -0.28125q0.125 -0.265625 0.109375 -0.359375q-0.046875 -0.125 -0.359375 -0.125l-1.078125 0zm4.25 2.21875l0 1.015625l4.0625 0l0 2.140625l-4.0625 0l0 1.03125l4.0625 0l0 5.234375l1.25 0l0 -11.796875q0 -0.078125 0.015625 -0.15625q0.015625 -0.046875 0.0625 -0.125q0.09375 -0.171875 0.046875 -0.203125q-0.046875 -0.078125 -0.390625 -0.078125l-0.984375 0l0 2.9375l-4.0625 0zm-5.203125 8.03125l-0.921875 0l0 5.234375l11.828125 0l0 -1.015625l-10.59375 0l0 -3.65625q0 -0.078125 0.015625 -0.15625q0.015625 -0.046875 0.0625 -0.125q0.078125 -0.171875 0.046875 -0.203125q-0.078125 -0.078125 -0.4375 -0.078125zm19.265625 3.78125l1.25 0l0 -13.28125l-1.09375 0q-0.09375 1.375 -0.90625 2.0q-0.828125 0.640625 -2.453125 0.640625l-0.09375 0l0 0.8125l0.203125 0q1.109375 0 1.875 -0.1875q0.765625 -0.1875 1.21875 -0.5625l0 10.578125z" fill-rule="nonzero"/></g><g filter="url(#shadowFilter-g11ddf0a0acf_1_25.6)"><use xlink:href="#g11ddf0a0acf_1_25.6" transform="matrix(1.0 0.0 0.0 1.0 0.0 2.0)"/></g><defs><filter id="shadowFilter-g11ddf0a0acf_1_25.6" filterUnits="userSpaceOnUse"><feGaussianBlur in="SourceAlpha" stdDeviation="2.0" result="blur"/><feComponentTransfer in="blur" color-interpolation-filters="sRGB"><feFuncR type="linear" slope="0" intercept="0.0"/><feFuncG type="linear" slope="0" intercept="0.0"/><feFuncB type="linear" slope="0" intercept="0.0"/><feFuncA type="linear" slope="0.5" intercept="0"/></feComponentTransfer></filter></defs><g id="g11ddf0a0acf_1_25.6"><path fill="#eeeeee" d="m380.06723 286.17648l200.6614 0l0 61.95276l-200.6614 0z" fill-rule="evenodd"/><path stroke="#595959" stroke-width="1.0" stroke-linejoin="round" stroke-linecap="butt" d="m380.06723 286.17648l200.6614 0l0 61.95276l-200.6614 0z" fill-rule="evenodd"/><path fill="#000000" d="m461.42188 308.51035l-0.828125 0l0 16.453125l1.296875 0l0 -7.15625l3.0625 0l0 -1.046875l-3.0625 0l0 -7.53125q0 -0.109375 0.03125 -0.203125q0.03125 -0.078125 0.078125 -0.1875q0.09375 -0.140625 0.03125 -0.203125q-0.109375 -0.09375 -0.609375 -0.125zm-12.328125 2.21875l0 1.09375l9.4375 0l0 -1.09375l-9.4375 0zm2.40625 2.796875l-0.953125 0l0.625 6.0625q-0.75 0 -1.71875 0q-0.953125 0 -1.484375 0l0.34375 1.09375q0.0625 0.25 0.140625 0.296875q0.046875 0.015625 0.1875 -0.078125q0.15625 -0.078125 0.28125 -0.109375q0.203125 -0.078125 0.421875 -0.078125l1.0 -0.0625q2.84375 -0.125 4.484375 -0.203125q2.8125 -0.15625 4.578125 -0.25l-0.09375 -1.0l-3.0 0.15625l0.640625 -4.984375q0.015625 -0.109375 0.078125 -0.203125q0.03125 -0.0625 0.125 -0.171875q0.15625 -0.171875 0.09375 -0.234375q-0.046875 -0.09375 -0.515625 -0.171875l-0.984375 -0.09375l-0.671875 5.921875l-2.671875 0.125l-0.46875 -5.328125q-0.015625 -0.109375 0.03125 -0.21875q0.015625 -0.046875 0.0625 -0.171875q0.078125 -0.140625 0.03125 -0.203125q-0.09375 -0.0625 -0.5625 -0.09375zm16.234375 -3.234375l0 11.625q2.9375 0 5.796875 -0.28125q2.828125 -0.265625 4.828125 -0.71875l-0.109375 -1.09375q-2.171875 0.53125 -4.96875 0.796875q-2.421875 0.25 -4.34375 0.203125l0 -4.859375l6.734375 0l0 -1.0l-6.734375 0l0 -3.6875l7.109375 0l0 -0.984375l-8.3125 0zm12.578125 -1.34375l-0.875 0l0 16.625l1.25 0l0 -15.9375q0 -0.109375 0.03125 -0.21875q0.046875 -0.0625 0.09375 -0.171875q0.109375 -0.1875 0.0625 -0.21875q-0.078125 -0.078125 -0.5625 -0.078125zm9.8125 0.71875q0.046875 2.59375 -1.421875 4.9375q-1.453125 2.328125 -3.75 3.421875l0.796875 1.015625q1.90625 -1.3125 2.9375 -2.46875q1.203125 -1.375 1.8125 -3.1875q0.453125 1.625 1.609375 3.140625q1.03125 1.296875 2.375 2.265625l0.890625 -0.984375q-1.828125 -0.921875 -3.078125 -2.921875q-1.296875 -2.109375 -1.03125 -4.078125q0.015625 -0.1875 0.078125 -0.375q0.03125 -0.09375 0.109375 -0.28125q0.125 -0.265625 0.109375 -0.359375q-0.046875 -0.125 -0.359375 -0.125l-1.078125 0zm4.25 2.21875l0 1.015625l4.0625 0l0 2.140625l-4.0625 0l0 1.03125l4.0625 0l0 5.234375l1.25 0l0 -11.796875q0 -0.078125 0.015625 -0.15625q0.015625 -0.046875 0.0625 -0.125q0.09375 -0.171875 0.046875 -0.203125q-0.046875 -0.078125 -0.390625 -0.078125l-0.984375 0l0 2.9375l-4.0625 0zm-5.203125 8.03125l-0.921875 0l0 5.234375l11.828125 0l0 -1.015625l-10.59375 0l0 -3.65625q0 -0.078125 0.015625 -0.15625q0.015625 -0.046875 0.0625 -0.125q0.078125 -0.171875 0.046875 -0.203125q-0.078125 -0.078125 -0.4375 -0.078125zm15.3125 3.78125l8.578125 0l0 -1.046875l-7.328125 0q0.078125 -0.984375 0.78125 -1.78125q0.671875 -0.765625 2.078125 -1.5625l0.921875 -0.546875q1.03125 -0.5625 1.4375 -0.84375q0.71875 -0.484375 1.125 -0.9375q0.546875 -0.59375 0.796875 -1.234375q0.265625 -0.65625 0.265625 -1.46875q0 -1.78125 -1.09375 -2.828125q-1.078125 -1.03125 -2.921875 -1.03125q-2.015625 0 -3.15625 1.15625q-1.109375 1.125 -1.15625 3.265625l1.25 0q0 -1.625 0.78125 -2.453125q0.765625 -0.84375 2.234375 -0.84375q1.3125 0 2.0625 0.71875q0.75 0.71875 0.75 2.03125q0 0.640625 -0.203125 1.109375q-0.1875 0.46875 -0.609375 0.96875q-0.3125 0.3125 -0.875 0.6875q-0.328125 0.21875 -1.140625 0.703125l-1.328125 0.796875q-1.6875 1.046875 -2.4375 2.125q-0.8125 1.140625 -0.8125 2.625l0 0.390625z" fill-rule="nonzero"/></g><g filter="url(#shadowFilter-g11ddf0a0acf_1_25.7)"><use xlink:href="#g11ddf0a0acf_1_25.7" transform="matrix(1.0 0.0 0.0 1.0 0.0 2.0)"/></g><defs><filter id="shadowFilter-g11ddf0a0acf_1_25.7" filterUnits="userSpaceOnUse"><feGaussianBlur in="SourceAlpha" stdDeviation="2.0" result="blur"/><feComponentTransfer in="blur" color-interpolation-filters="sRGB"><feFuncR type="linear" slope="0" intercept="0.0"/><feFuncG type="linear" slope="0" intercept="0.0"/><feFuncB type="linear" slope="0" intercept="0.0"/><feFuncA type="linear" slope="0.5" intercept="0"/></feComponentTransfer></filter></defs><g id="g11ddf0a0acf_1_25.7"><path fill="#eeeeee" d="m201.61513 478.0567l610.2362 0l0 61.95276l-610.2362 0z" fill-rule="evenodd"/><path stroke="#595959" stroke-width="1.0" stroke-linejoin="round" stroke-linecap="butt" d="m201.61513 478.0567l610.2362 0l0 61.95276l-610.2362 0z" fill-rule="evenodd"/></g><path fill="#ffffff" d="m201.61513 478.0567l61.952744 0l0 61.95276l-61.952744 0z" fill-rule="evenodd"/><path stroke="#595959" stroke-width="1.0" stroke-linejoin="round" stroke-linecap="butt" d="m201.61513 478.0567l61.952744 0l0 61.95276l-61.952744 0z" fill-rule="evenodd"/><path fill="#000000" d="m228.18489 509.35934q0 -2.359375 0.484375 -3.796875q0.484375 -1.453125 1.4375 -2.234375q0.96875 -0.78125 2.421875 -0.78125q1.078125 0 1.890625 0.4375q0.8125 0.421875 1.328125 1.25q0.53125 0.8125 0.828125 1.984375q0.3125 1.15625 0.3125 3.140625q0 2.359375 -0.484375 3.8124695q-0.484375 1.4375 -1.453125 2.234375q-0.953125 0.78125 -2.421875 0.78125q-1.921875 0 -3.03125 -1.390625q-1.3125 -1.671875 -1.3125 -5.4374695zm1.671875 0q0 3.2968445 0.765625 4.3905945q0.78125 1.078125 1.90625 1.078125q1.140625 0 1.90625 -1.09375q0.765625 -1.09375 0.765625 -4.3749695q0 -3.296875 -0.765625 -4.375q-0.765625 -1.078125 -1.921875 -1.078125q-1.125 0 -1.796875 0.953125q-0.859375 1.21875 -0.859375 4.5z" fill-rule="nonzero"/><path fill="#ffffff" d="m263.56497 478.0567l61.95276 0l0 61.95276l-61.95276 0z" fill-rule="evenodd"/><path stroke="#595959" stroke-width="1.0" stroke-linejoin="round" stroke-linecap="butt" d="m263.56497 478.0567l61.95276 0l0 61.95276l-61.95276 0z" fill-rule="evenodd"/><path fill="#000000" d="m296.3066 515.95306l-1.640625 0l0 -10.4530945q-0.59375 0.5625 -1.5625 1.140625q-0.953125 0.5625 -1.71875 0.84375l0 -1.59375q1.375 -0.640625 2.40625 -1.5625q1.03125 -0.921875 1.453125 -1.78125l1.0625 0l0 13.4062195z" fill-rule="nonzero"/><path fill="#ffffff" d="m325.5148 478.0567l61.95276 0l0 61.95276l-61.95276 0z" fill-rule="evenodd"/><path stroke="#595959" stroke-width="1.0" stroke-linejoin="round" stroke-linecap="butt" d="m325.5148 478.0567l61.95276 0l0 61.95276l-61.95276 0z" fill-rule="evenodd"/><path fill="#000000" d="m360.69394 514.37494l0 1.578125l-8.828125 0q-0.015625 -0.59375 0.1875 -1.140625q0.34375 -0.90625 1.078125 -1.78125q0.75 -0.875 2.15625 -2.0155945q2.171875 -1.78125 2.9375 -2.828125q0.765625 -1.046875 0.765625 -1.96875q0 -0.984375 -0.703125 -1.640625q-0.6875 -0.671875 -1.8125 -0.671875q-1.1875 0 -1.90625 0.71875q-0.703125 0.703125 -0.703125 1.953125l-1.6875 -0.171875q0.171875 -1.890625 1.296875 -2.875q1.140625 -0.984375 3.03125 -0.984375q1.921875 0 3.046875 1.0625q1.125 1.0625 1.125 2.640625q0 0.796875 -0.328125 1.578125q-0.328125 0.78125 -1.09375 1.640625q-0.75 0.84375 -2.53125 2.34375q-1.46875 1.2343445 -1.890625 1.6874695q-0.421875 0.4375 -0.6875 0.875l6.546875 0z" fill-rule="nonzero"/><path fill="#ffffff" d="m387.46463 478.0567l61.95276 0l0 61.95276l-61.95276 0z" fill-rule="evenodd"/><path stroke="#595959" stroke-width="1.0" stroke-linejoin="round" stroke-linecap="butt" d="m387.46463 478.0567l61.95276 0l0 61.95276l-61.95276 0z" fill-rule="evenodd"/><path fill="#000000" d="m414.0344 512.4218l1.640625 -0.21875q0.28125 1.40625 0.953125 2.015625q0.6875 0.609375 1.65625 0.609375q1.15625 0 1.953125 -0.796875q0.796875 -0.796875 0.796875 -1.984375q0 -1.1249695 -0.734375 -1.8593445q-0.734375 -0.734375 -1.875 -0.734375q-0.46875 0 -1.15625 0.171875l0.1875 -1.4375q0.15625 0.015625 0.265625 0.015625q1.046875 0 1.875 -0.546875q0.84375 -0.546875 0.84375 -1.671875q0 -0.90625 -0.609375 -1.5q-0.609375 -0.59375 -1.578125 -0.59375q-0.953125 0 -1.59375 0.609375q-0.640625 0.59375 -0.8125 1.796875l-1.640625 -0.296875q0.296875 -1.640625 1.359375 -2.546875q1.0625 -0.90625 2.65625 -0.90625q1.09375 0 2.0 0.46875q0.921875 0.46875 1.40625 1.28125q0.5 0.8125 0.5 1.71875q0 0.859375 -0.46875 1.578125q-0.46875 0.703125 -1.375 1.125q1.1875 0.28125 1.84375 1.140625q0.65625 0.859375 0.65625 2.1562195q0 1.734375 -1.28125 2.953125q-1.265625 1.21875 -3.21875 1.21875q-1.765625 0 -2.921875 -1.046875q-1.15625 -1.046875 -1.328125 -2.71875z" fill-rule="nonzero"/><path fill="#ffffff" d="m449.41446 478.0567l61.95276 0l0 61.95276l-61.95276 0z" fill-rule="evenodd"/><path stroke="#595959" stroke-width="1.0" stroke-linejoin="round" stroke-linecap="butt" d="m449.41446 478.0567l61.95276 0l0 61.95276l-61.95276 0z" fill-rule="evenodd"/><path fill="#000000" d="m481.23422 515.95306l0 -3.203125l-5.796875 0l0 -1.4999695l6.0937805 -8.65625l1.34375 0l0 8.65625l1.796875 0l0 1.4999695l-1.796875 0l0 3.203125l-1.6406555 0zm0 -4.7030945l0 -6.015625l-4.1875 6.015625l4.1875 0z" fill-rule="nonzero"/><path fill="#000000" fill-opacity="0.0" d="m56.359016 472.0723l136.8819 0l0 42.015717l-136.8819 0z" fill-rule="evenodd"/><path fill="#000000" d="m107.47183 484.97665l-8.40625 0q-0.515625 0 -0.515625 0.46875q0 0.484375 0.515625 0.484375l8.40625 0q0.53125 0 0.53125 -0.484375q0 -0.46875 -0.53125 -0.46875zm-7.25 2.46875q0 2.078125 0.140625 4.984375q0.171875 2.984375 0.40625 4.96875l-2.203125 0.015625q-0.546875 0 -0.546875 0.46875q0 0.484375 0.546875 0.484375q3.015625 0 5.5625 -0.25q2.765625 -0.25 4.34375 -0.734375q0.234375 -0.0625 0.359375 -0.25q0.109375 -0.15625 0.0625 -0.34375q-0.03125 -0.203125 -0.203125 -0.296875q-0.1875 -0.109375 -0.4375 -0.03125q-0.359375 0.09375 -0.8125 0.21875q-0.296875 0.046875 -0.921875 0.171875l-0.625 0.140625q0.265625 -1.75 0.40625 -4.59375q0.15625 -2.578125 0.15625 -5.015625q0 -0.484375 -0.53125 -0.484375q-0.515625 0 -0.515625 0.484375q0 2.4375 -0.140625 5.078125q-0.15625 2.84375 -0.390625 4.6875q-0.875 0.078125 -1.5625 0.125q-0.875 0.0625 -1.453125 0.0625q-0.25 -1.9375 -0.421875 -4.984375q-0.125 -2.765625 -0.125 -4.90625q0 -0.234375 -0.1875 -0.390625q-0.15625 -0.109375 -0.375 -0.109375q-0.21875 0 -0.375 0.109375q-0.15625 0.15625 -0.15625 0.390625zm11.015625 4.265625l0 -6.78125q0 -0.25 -0.1875 -0.390625q-0.140625 -0.109375 -0.375 -0.109375q-0.21875 0 -0.359375 0.109375q-0.171875 0.140625 -0.171875 0.390625l0 14.46875q0 0.25 0.171875 0.390625q0.140625 0.15625 0.359375 0.15625q0.234375 0 0.375 -0.15625q0.1875 -0.140625 0.1875 -0.390625l0 -6.765625l2.0625 0q0.4375 0 0.4375 -0.46875q0 -0.453125 -0.4375 -0.453125l-2.0625 0zm14.578133 -6.734375l-6.0781326 0q-0.90625 0 -1.40625 0.53125q-0.453125 0.484375 -0.453125 1.28125l0 9.84375q0 0.8125 0.46875 1.34375q0.5 0.546875 1.40625 0.546875q2.1562576 0 4.4375076 -0.328125q2.328125 -0.328125 3.8906174 -0.875q0.25 -0.09375 0.3125 -0.28125q0.09375 -0.1875 0 -0.359375q-0.0625 -0.1875 -0.25 -0.265625q-0.21874237 -0.078125 -0.48436737 0.03125q-1.5 0.546875 -3.640625 0.84375q-2.03125 0.296875 -4.2343826 0.296875q-0.46875 0 -0.65625 -0.296875q-0.15625 -0.25 -0.15625 -0.859375l0 -4.890625l6.5312576 0q0.5625 0 0.5625 -0.484375q0 -0.46875 -0.5625 -0.46875l-6.5312576 0l0 -3.796875q0 -0.421875 0.171875 -0.640625q0.203125 -0.21875 0.609375 -0.21875l6.0937576 0q0.25 0 0.421875 -0.15625q0.140625 -0.140625 0.140625 -0.328125q0 -0.1875 -0.140625 -0.328125q-0.171875 -0.140625 -0.453125 -0.140625zm4.9531174 14.390625l0 -14.4375q0 -0.25 -0.171875 -0.390625q-0.15625 -0.109375 -0.375 -0.109375q-0.25 0 -0.390625 0.109375q-0.171875 0.140625 -0.171875 0.390625l0 14.4375q0 0.25 0.171875 0.421875q0.140625 0.15625 0.390625 0.15625q0.21875 0 0.375 -0.15625q0.171875 -0.171875 0.171875 -0.421875zm9.796875 -14.015625q0 2.359375 -1.15625 4.609375q-1.140625 2.171875 -3.015625 3.625q-0.234375 0.171875 -0.28125 0.421875q-0.015625 0.203125 0.125 0.359375q0.140625 0.15625 0.328125 0.1875q0.21875 0.015625 0.40625 -0.125q1.34375 -1.09375 2.359375 -2.4375q0.796875 -1.078125 1.359375 -2.21875q1.125 0.828125 2.140625 1.8125q1.140625 1.078125 2.125 2.328125q0.15625 0.203125 0.421875 0.21875q0.203125 0 0.390625 -0.15625q0.171875 -0.15625 0.1875 -0.390625q0.015625 -0.25 -0.171875 -0.5q-1.171875 -1.3125 -2.296875 -2.3125q-1.15625 -1.046875 -2.4375 -1.90625q0.3125 -0.859375 0.46875 -1.765625q0.171875 -0.875 0.171875 -1.75q0 -0.25 -0.1875 -0.40625q-0.15625 -0.125 -0.375 -0.125q-0.234375 0 -0.390625 0.125q-0.171875 0.15625 -0.171875 0.40625zm9.203125 9.796875l0 -10.234375q0 -0.25 -0.171875 -0.375q-0.15625 -0.125 -0.375 -0.125q-0.25 0 -0.390625 0.125q-0.171875 0.140625 -0.171875 0.390625l0 1.765625l-4.328125 0q-0.234375 0 -0.375 0.125q-0.125 0.140625 -0.125 0.328125q0.03125 0.1875 0.171875 0.34375q0.171875 0.140625 0.453125 0.140625l4.203125 0l0 2.125l-4.359375 0q-0.59375 0 -0.59375 0.453125q0 0.484375 0.578125 0.484375l4.375 0l0 4.453125q0 0.28125 0.171875 0.453125q0.140625 0.140625 0.390625 0.140625q0.21875 0 0.375 -0.140625q0.171875 -0.171875 0.171875 -0.453125zm-10.8125 0.21875q0 -0.296875 -0.1875 -0.453125q-0.140625 -0.15625 -0.375 -0.15625q-0.234375 0 -0.375 0.15625q-0.171875 0.15625 -0.171875 0.453125l0 2.46875q0 0.828125 0.515625 1.25q0.484375 0.40625 1.3125 0.40625l10.1875 0q0.46875 0 0.46875 -0.484375q0 -0.46875 -0.46875 -0.46875l-10.0 0q-0.53125 0 -0.71875 -0.15625q-0.1875 -0.1875 -0.1875 -0.6875l0 -2.328125z" fill-rule="nonzero"/><path fill="#000000" fill-opacity="0.0" d="m225.13123 223.15213l154.92914 -96.59842" fill-rule="evenodd"/><path stroke="#595959" stroke-width="3.0" stroke-linejoin="round" stroke-linecap="butt" d="m225.13124 223.15213l139.65489 -87.074905" fill-rule="evenodd"/><path fill="#595959" stroke="#595959" stroke-width="3.0" stroke-linecap="butt" d="m367.40784 140.28204l8.930939 -11.407928l-14.174377 2.9982758z" fill-rule="evenodd"/><path fill="#000000" fill-opacity="0.0" d="m225.13123 223.15213l154.92914 -1.291336" fill-rule="evenodd"/><path stroke="#595959" stroke-width="3.0" stroke-linejoin="round" stroke-linecap="butt" d="m225.13124 223.15213l136.92973 -1.1413269" fill-rule="evenodd"/><path fill="#595959" stroke="#595959" stroke-width="3.0" stroke-linecap="butt" d="m362.1023 226.96584l13.57251 -5.0684967l-13.655121 -4.8415527z" fill-rule="evenodd"/><path fill="#000000" fill-opacity="0.0" d="m225.13123 223.15213l154.92914 94.01575" fill-rule="evenodd"/><path stroke="#595959" stroke-width="3.0" stroke-linejoin="round" stroke-linecap="butt" d="m225.13124 223.15213l139.54085 84.67764" fill-rule="evenodd"/><path fill="#595959" stroke="#595959" stroke-width="3.0" stroke-linecap="butt" d="m362.10138 312.066l14.209625 2.8266296l-9.068268 -11.299072z" fill-rule="evenodd"/><path fill="#000000" fill-opacity="0.0" d="m580.72864 126.56555l154.92914 96.598434" fill-rule="evenodd"/><path stroke="#595959" stroke-width="3.0" stroke-linejoin="round" stroke-linecap="butt" d="m580.72864 126.56555l139.6549 87.074936" fill-rule="evenodd"/><path fill="#595959" stroke="#595959" stroke-width="3.0" stroke-linecap="butt" d="m717.76184 217.8453l14.174377 2.9982758l-8.930969 -11.407944z" fill-rule="evenodd"/><path fill="#000000" fill-opacity="0.0" d="m580.72864 221.8592l154.92914 1.291336" fill-rule="evenodd"/><path stroke="#595959" stroke-width="3.0" stroke-linejoin="round" stroke-linecap="butt" d="m580.72864 221.8592l136.92981 1.1413269" fill-rule="evenodd"/><path fill="#595959" stroke="#595959" stroke-width="3.0" stroke-linecap="butt" d="m717.6171 227.95555l13.655151 -4.8415527l-13.572571 -5.0684967z" fill-rule="evenodd"/><path fill="#000000" fill-opacity="0.0" d="m580.72864 317.15286l154.92914 -94.01575" fill-rule="evenodd"/><path stroke="#595959" stroke-width="3.0" stroke-linejoin="round" stroke-linecap="butt" d="m580.72864 317.15283l139.5409 -84.67764" fill-rule="evenodd"/><path fill="#595959" stroke="#595959" stroke-width="3.0" stroke-linecap="butt" d="m722.84015 236.71143l9.068298 -11.299103l-14.209595 2.826645z" fill-rule="evenodd"/><path fill="#000000" fill-opacity="0.0" d="m384.4678 349.92722l-179.46457 127.87402" fill-rule="evenodd"/><path stroke="#595959" stroke-width="2.0" stroke-linejoin="round" stroke-linecap="butt" stroke-dasharray="8.0,6.0" d="m384.4678 349.92722l-179.46457 127.87402" fill-rule="evenodd"/><path fill="#000000" fill-opacity="0.0" d="m580.71155 349.92722l233.7323 129.10236" fill-rule="evenodd"/><path stroke="#595959" stroke-width="2.0" stroke-linejoin="round" stroke-linecap="butt" stroke-dasharray="8.0,6.0" d="m580.71155 349.92722l233.7323 129.10236" fill-rule="evenodd"/></g></svg>