<svg version="1.1" viewBox="0.0 0.0 960.0 540.0" fill="none" stroke="none" stroke-linecap="square" stroke-miterlimit="10" xmlns:xlink="http://www.w3.org/1999/xlink" xmlns="http://www.w3.org/2000/svg"><clipPath id="g11da9520085_0_64.0"><path d="m0 0l960.0 0l0 540.0l-960.0 0l0 -540.0z" clip-rule="nonzero"/></clipPath><g clip-path="url(#g11da9520085_0_64.0)"><path fill="#ffffff" d="m0 0l960.0 0l0 540.0l-960.0 0z" fill-rule="evenodd"/><g filter="url(#shadowFilter-g11da9520085_0_64.1)"><use xlink:href="#g11da9520085_0_64.1" transform="matrix(1.0 0.0 0.0 1.0 0.0 2.0)"/></g><defs><filter id="shadowFilter-g11da9520085_0_64.1" filterUnits="userSpaceOnUse"><feGaussianBlur in="SourceAlpha" stdDeviation="2.0" result="blur"/><feComponentTransfer in="blur" color-interpolation-filters="sRGB"><feFuncR type="linear" slope="0" intercept="0.0"/><feFuncG type="linear" slope="0" intercept="0.0"/><feFuncB type="linear" slope="0" intercept="0.0"/><feFuncA type="linear" slope="0.5" intercept="0"/></feComponentTransfer></filter></defs><g id="g11da9520085_0_64.1"><path fill="#b7b7b7" d="m340.17322 228.69817l279.65356 0l0 278.74017l-279.65356 0z" fill-rule="evenodd"/><path stroke="#595959" stroke-width="1.0" stroke-linejoin="round" stroke-linecap="butt" d="m340.17322 228.69817l279.65356 0l0 278.74017l-279.65356 0z" fill-rule="evenodd"/></g><path fill="#000000" fill-opacity="0.0" d="m376.54068 228.69817l206.96066 0l0 42.01573l-206.96066 0z" fill-rule="evenodd"/><path fill="#000000" d="m411.39984 241.60254l-5.421875 0q-0.28125 0 -0.4375 0.140625q-0.125 0.140625 -0.125 0.328125q0 0.1875 0.125 0.328125q0.171875 0.15625 0.453125 0.15625l5.375 0q0.515625 0 0.75 0.21875q0.21875 0.21875 0.21875 0.65625l0 2.75q0 3.5625 -1.734375 5.59375q-1.734375 2.0625 -5.109375 2.453125q-0.53125 0.046875 -0.453125 0.53125q0.0625 0.484375 0.578125 0.453125q3.640625 -0.359375 5.703125 -2.6875q2.078125 -2.375 2.078125 -6.296875l0 -2.875q0 -0.8125 -0.546875 -1.28125q-0.515625 -0.46875 -1.453125 -0.46875zm-0.140625 4.71875q-1.0625 0.265625 -2.859375 0.5q-1.796875 0.21875 -2.96875 0.21875q-0.53125 0 -0.53125 0.484375q0 0.484375 0.546875 0.484375q1.234375 0 3.140625 -0.265625q1.84375 -0.234375 2.96875 -0.53125q0.234375 -0.078125 0.359375 -0.265625q0.109375 -0.15625 0.046875 -0.328125q-0.046875 -0.1875 -0.234375 -0.28125q-0.1875 -0.09375 -0.46875 -0.015625zm6.828125 2.015625l0 -6.78125q0 -0.25 -0.1875 -0.390625q-0.140625 -0.109375 -0.375 -0.109375q-0.21875 0 -0.359375 0.109375q-0.171875 0.140625 -0.171875 0.390625l0 14.46875q0 0.25 0.171875 0.390625q0.140625 0.15625 0.359375 0.15625q0.234375 0 0.375 -0.15625q0.1875 -0.140625 0.1875 -0.390625l0 -6.765625l2.0625 0q0.4375 0 0.4375 -0.46875q0 -0.453125 -0.4375 -0.453125l-2.0625 0zm19.5625 0.578125l-2.3125 0l0.578125 -5.03125q0.015625 -0.265625 -0.140625 -0.4375q-0.140625 -0.125 -0.359375 -0.15625q-0.21875 -0.015625 -0.390625 0.09375q-0.171875 0.140625 -0.1875 0.390625l-0.59375 5.140625l-5.1875 0l-0.578125 -5.15625q-0.03125 -0.25 -0.21875 -0.390625q-0.171875 -0.109375 -0.390625 -0.09375q-0.21875 0.015625 -0.359375 0.15625q-0.15625 0.15625 -0.125 0.421875l0.578125 5.0625l-2.3125 0q-0.46875 0 -0.46875 0.46875q-0.03125 0.484375 0.421875 0.484375l12.078125 0q0.46875 0 0.4375 -0.484375q0 -0.46875 -0.46875 -0.46875zm-0.078125 -7.375l-11.890625 0q-0.53125 0 -0.5 0.484375q0 0.46875 0.5 0.46875l11.96875 0q0.21875 0 0.34375 -0.15625q0.125 -0.140625 0.109375 -0.3125q0 -0.21875 -0.125 -0.34375q-0.171875 -0.140625 -0.40625 -0.140625zm1.265625 12.796875l-14.390625 0q-0.25 0 -0.40625 0.125q-0.125 0.15625 -0.140625 0.34375q-0.03125 0.1875 0.09375 0.328125q0.109375 0.15625 0.3125 0.15625l14.671875 0q0.203125 0 0.3125 -0.15625q0.109375 -0.140625 0.109375 -0.328125q-0.015625 -0.1875 -0.15625 -0.34375q-0.15625 -0.125 -0.40625 -0.125zm10.5625 -12.734375l-5.421875 0q-0.28125 0 -0.4375 0.140625q-0.125 0.140625 -0.125 0.328125q0 0.1875 0.125 0.328125q0.171875 0.15625 0.453125 0.15625l5.375 0q0.515625 0 0.75 0.21875q0.21875 0.21875 0.21875 0.65625l0 2.75q0 3.5625 -1.734375 5.59375q-1.734375 2.0625 -5.109375 2.453125q-0.53125 0.046875 -0.453125 0.53125q0.0625 0.484375 0.578125 0.453125q3.640625 -0.359375 5.703125 -2.6875q2.078125 -2.375 2.078125 -6.296875l0 -2.875q0 -0.8125 -0.546875 -1.28125q-0.515625 -0.46875 -1.453125 -0.46875zm-0.140625 4.71875q-1.0625 0.265625 -2.859375 0.5q-1.796875 0.21875 -2.96875 0.21875q-0.53125 0 -0.53125 0.484375q0 0.484375 0.546875 0.484375q1.234375 0 3.140625 -0.265625q1.84375 -0.234375 2.96875 -0.53125q0.234375 -0.078125 0.359375 -0.265625q0.109375 -0.15625 0.046875 -0.328125q-0.046875 -0.1875 -0.234375 -0.28125q-0.1875 -0.09375 -0.46875 -0.015625zm6.828125 2.015625l0 -6.78125q0 -0.25 -0.1875 -0.390625q-0.140625 -0.109375 -0.375 -0.109375q-0.21875 0 -0.359375 0.109375q-0.171875 0.140625 -0.171875 0.390625l0 14.46875q0 0.25 0.171875 0.390625q0.140625 0.15625 0.359375 0.15625q0.234375 0 0.375 -0.15625q0.1875 -0.140625 0.1875 -0.390625l0 -6.765625l2.0625 0q0.4375 0 0.4375 -0.46875q0 -0.453125 -0.4375 -0.453125l-2.0625 0z" fill-rule="nonzero"/><path fill="#000000" d="m478.88 244.41504q-1.75 0.234375 -4.765625 0.359375q-2.609375 0.125 -5.390625 0.125q-0.5625 0 -0.5625 0.453125q0 0.484375 0.5625 0.484375q2.78125 0 5.578125 -0.125q3.03125 -0.125 4.796875 -0.359375q0.21875 -0.03125 0.359375 -0.203125q0.09375 -0.140625 0.046875 -0.34375q-0.03125 -0.1875 -0.1875 -0.296875q-0.171875 -0.140625 -0.4375 -0.09375zm0.375 -3.109375l-10.25 0q-0.5 0 -0.515625 0.484375q0 0.484375 0.5 0.484375l10.203125 0q0.46875 0 0.65625 0.171875q0.140625 0.171875 0.140625 0.515625l0 1.671875q0 1.078125 -0.1875 1.859375q-0.25 1.046875 -0.890625 1.9375l1.15625 0q0.5625 -0.765625 0.8125 -1.828125q0.21875 -0.890625 0.21875 -1.953125l0 -1.828125q0 -0.671875 -0.5 -1.078125q-0.5 -0.4375 -1.34375 -0.4375zm2.78125 6.578125l-14.421875 0q-0.5 0 -0.53125 0.453125q-0.046875 0.46875 0.40625 0.46875l14.671875 0q0.203125 0 0.3125 -0.140625q0.109375 -0.140625 0.109375 -0.328125q-0.015625 -0.203125 -0.140625 -0.328125q-0.171875 -0.125 -0.40625 -0.125zm-2.640625 2.59375l-10.296875 0q-0.5625 0 -0.578125 0.46875q0 0.484375 0.5625 0.484375l10.1875 0q0.390625 0 0.546875 0.125q0.171875 0.140625 0.171875 0.46875l0 0.453125q0 0.25 -0.1875 0.359375q-0.15625 0.109375 -0.5 0.109375l-9.3125 0q-0.6875 0 -1.0625 0.359375q-0.359375 0.359375 -0.359375 0.96875l0 0.828125q0 0.578125 0.34375 0.90625q0.359375 0.359375 0.984375 0.359375l10.90625 0q0.25 0 0.375 -0.15625q0.125 -0.140625 0.125 -0.328125q-0.015625 -0.1875 -0.140625 -0.34375q-0.171875 -0.125 -0.421875 -0.125l-10.4375 0q-0.328125 0 -0.484375 -0.109375q-0.140625 -0.109375 -0.140625 -0.390625l0 -0.453125q0 -0.265625 0.125 -0.421875q0.15625 -0.140625 0.515625 -0.140625l9.421875 0q0.59375 0 0.96875 -0.390625q0.390625 -0.359375 0.390625 -0.890625l0 -0.890625q0 -0.578125 -0.515625 -0.9375q-0.484375 -0.3125 -1.1875 -0.3125zm12.875 -8.90625l-4.859375 0q-0.59375 0 -0.59375 0.46875q-0.015625 0.453125 0.5625 0.453125l4.53125 0q0.546875 0 0.8125 0.171875q0.234375 0.1875 0.234375 0.578125l0 3.359375q0 0.375 -0.234375 0.53125q-0.21875 0.15625 -0.703125 0.15625l-3.5 0q-0.734375 0 -1.203125 0.515625q-0.40625 0.484375 -0.40625 1.171875l0 4.078125q0 0.875 0.453125 1.390625q0.46875 0.578125 1.359375 0.578125q2.0625 0 3.984375 -0.3125q1.9375 -0.3125 3.40625 -0.890625q0.21875 -0.109375 0.28125 -0.3125q0.046875 -0.1875 -0.015625 -0.375q-0.09375 -0.1875 -0.28125 -0.265625q-0.203125 -0.09375 -0.453125 0.015625q-1.25 0.53125 -2.875 0.84375q-1.84375 0.375 -3.765625 0.375q-0.546875 0 -0.78125 -0.265625q-0.21875 -0.234375 -0.21875 -0.71875l0 -4.0q0 -0.484375 0.171875 -0.6875q0.1875 -0.21875 0.640625 -0.21875l3.390625 0q0.9375 0 1.40625 -0.40625q0.421875 -0.375 0.421875 -1.0625l0 -3.765625q0 -0.6875 -0.484375 -1.046875q-0.453125 -0.359375 -1.28125 -0.359375zm7.53125 14.34375l0 -14.3125q0 -0.265625 -0.171875 -0.421875q-0.15625 -0.125 -0.375 -0.125q-0.25 0 -0.390625 0.125q-0.171875 0.15625 -0.171875 0.421875l0 6.078125l-3.171875 0q-0.265625 0 -0.390625 0.125q-0.125 0.15625 -0.125 0.328125q0.015625 0.1875 0.171875 0.34375q0.15625 0.140625 0.4375 0.140625l3.078125 0l0 7.296875q0 0.3125 0.171875 0.5q0.140625 0.171875 0.390625 0.171875q0.21875 0 0.375 -0.171875q0.171875 -0.203125 0.171875 -0.5zm12.5 -14.078125q0 2.875 -1.984375 4.90625q-1.71875 1.765625 -4.015625 2.234375q-0.296875 0.046875 -0.421875 0.234375q-0.140625 0.15625 -0.109375 0.359375q0.03125 0.1875 0.203125 0.296875q0.1875 0.109375 0.453125 0.078125q2.25 -0.453125 4.09375 -2.140625q1.75 -1.578125 2.3125 -3.453125q0.59375 1.859375 2.3125 3.453125q1.828125 1.671875 3.984375 2.109375q0.3125 0.0625 0.53125 -0.046875q0.1875 -0.109375 0.21875 -0.3125q0.0625 -0.203125 -0.0625 -0.375q-0.15625 -0.1875 -0.4375 -0.25q-2.421875 -0.5 -4.09375 -2.21875q-1.921875 -1.984375 -1.921875 -4.84375q0 -0.296875 -0.171875 -0.484375q-0.15625 -0.140625 -0.359375 -0.140625q-0.21875 0 -0.375 0.140625q-0.15625 0.171875 -0.15625 0.453125zm7.734375 12.5l-14.40625 0q-0.546875 0 -0.546875 0.46875q0 0.484375 0.546875 0.484375l14.421875 0q0.234375 0 0.390625 -0.15625q0.140625 -0.140625 0.140625 -0.328125q0 -0.1875 -0.140625 -0.34375q-0.15625 -0.125 -0.40625 -0.125zm12.296875 -12.734375l-5.53125 0q-0.9375 0 -1.4375 0.5625q-0.453125 0.484375 -0.453125 1.25l0 9.859375q0 0.875 0.390625 1.34375q0.453125 0.53125 1.375 0.53125q2.34375 0 4.25 -0.25q1.96875 -0.265625 3.21875 -0.75q0.546875 -0.234375 0.359375 -0.6875q-0.171875 -0.4375 -0.703125 -0.234375q-1.34375 0.5 -3.078125 0.734375q-1.734375 0.25 -4.03125 0.25q-0.375 0 -0.53125 -0.265625q-0.15625 -0.203125 -0.15625 -0.625l0 -5.03125l5.71875 0q0.53125 0 0.53125 -0.484375q0 -0.46875 -0.53125 -0.46875l-5.71875 0l0 -3.921875q0 -0.421875 0.171875 -0.640625q0.203125 -0.21875 0.609375 -0.21875l5.578125 0q0.28125 0 0.453125 -0.15625q0.140625 -0.140625 0.140625 -0.328125q-0.015625 -0.1875 -0.15625 -0.328125q-0.1875 -0.140625 -0.46875 -0.140625zm5.46875 14.3125l0 -14.3125q0 -0.265625 -0.171875 -0.421875q-0.15625 -0.125 -0.375 -0.125q-0.25 0 -0.390625 0.125q-0.171875 0.15625 -0.171875 0.421875l0 6.078125l-3.171875 0q-0.265625 0 -0.390625 0.125q-0.125 0.15625 -0.125 0.328125q0.015625 0.1875 0.171875 0.34375q0.15625 0.140625 0.4375 0.140625l3.078125 0l0 7.296875q0 0.3125 0.171875 0.5q0.140625 0.171875 0.390625 0.171875q0.21875 0 0.375 -0.171875q0.171875 -0.203125 0.171875 -0.5z" fill-rule="nonzero"/><path fill="#000000" d="m553.46954 255.61816l-1.640625 0l0 -10.453125q-0.59375 0.5625 -1.5625 1.140625q-0.953125 0.5625 -1.71875 0.84375l0 -1.59375q1.375 -0.640625 2.40625 -1.5625q1.03125 -0.921875 1.453125 -1.78125l1.0625 0l0 13.40625z" fill-rule="nonzero"/><g filter="url(#shadowFilter-g11da9520085_0_64.2)"><use xlink:href="#g11da9520085_0_64.2" transform="matrix(1.0 0.0 0.0 1.0 0.0 2.0)"/></g><defs><filter id="shadowFilter-g11da9520085_0_64.2" filterUnits="userSpaceOnUse"><feGaussianBlur in="SourceAlpha" stdDeviation="2.0" result="blur"/><feComponentTransfer in="blur" color-interpolation-filters="sRGB"><feFuncR type="linear" slope="0" intercept="0.0"/><feFuncG type="linear" slope="0" intercept="0.0"/><feFuncB type="linear" slope="0" intercept="0.0"/><feFuncA type="linear" slope="0.5" intercept="0"/></feComponentTransfer></filter></defs><g id="g11da9520085_0_64.2"><path fill="#eeeeee" d="m379.66928 271.00388l200.6614 0l0 61.95276l-200.6614 0z" fill-rule="evenodd"/><path stroke="#595959" stroke-width="1.0" stroke-linejoin="round" stroke-linecap="butt" d="m379.66928 271.00388l200.6614 0l0 61.95276l-200.6614 0z" fill-rule="evenodd"/><path fill="#000000" d="m459.89893 298.29086l0 2.984375l-8.875 0l0 -2.984375l8.875 0zm-9.21875 -3.265625l-0.890625 0l0 7.21875l11.34375 0l0 -6.796875q0 -0.0625 0.03125 -0.125q0.015625 -0.015625 0.046875 -0.09375q0.0625 -0.109375 0.015625 -0.15625q-0.046875 -0.046875 -0.34375 -0.046875l-0.984375 0l0 2.3125l-8.875 0l0 -1.890625q0 -0.0625 0.015625 -0.109375q0.03125 -0.03125 0.0625 -0.09375q0.09375 -0.125 0.0625 -0.171875q-0.078125 -0.046875 -0.484375 -0.046875zm-3.046875 11.984375l0 1.015625l15.65625 0l0 -1.015625l-15.65625 0zm21.09375 -11.59375l0 1.03125l10.25 0l0 2.640625l-10.15625 0l0 4.75l5.140625 0l0 3.265625l-7.421875 0l0 1.03125l16.15625 0l0 -1.03125l-7.453125 0l0 -3.265625l5.34375 0l0 -0.984375l-10.546875 0l0 -2.828125l10.140625 0l0 -4.609375l-11.453125 0zm17.046875 0.046875l0 1.03125l6.96875 0q-0.078125 0.90625 -0.25 1.65625q-0.125 0.671875 -0.40625 1.53125q-1.59375 0.21875 -3.78125 0.375q-1.953125 0.140625 -3.234375 0.140625l0.453125 1.0625q0.125 0.25 0.21875 0.28125q0.078125 0.015625 0.265625 -0.09375q0.140625 -0.09375 0.25 -0.140625q0.1875 -0.09375 0.390625 -0.109375l5.015625 -0.484375q-0.84375 1.796875 -2.734375 3.359375q-1.875 1.546875 -4.15625 2.296875l1.0 1.03125q3.5625 -1.59375 5.578125 -4.21875q2.3125 -3.046875 2.734375 -7.71875l-8.3125 0zm8.078125 5.0l0 1.03125l4.1875 0l0 8.90625l1.25 0l0 -15.96875q0 -0.078125 0.015625 -0.171875q0.015625 -0.0625 0.078125 -0.140625q0.09375 -0.1875 0.046875 -0.25q-0.03125 -0.09375 -0.359375 -0.09375l-1.03125 0l0 6.6875l-4.1875 0zm10.296875 1.609375q0 3.34375 1.109375 5.109375q1.140625 1.734375 3.25 1.734375q2.09375 0 3.21875 -1.734375q1.140625 -1.765625 1.140625 -5.09375q0 -3.34375 -1.140625 -5.09375q-1.125 -1.75 -3.21875 -1.75q-2.109375 0 -3.25 1.71875q-1.109375 1.765625 -1.109375 5.109375zm1.296875 0q0 -2.90625 0.75 -4.3125q0.734375 -1.390625 2.3125 -1.390625q1.546875 0 2.296875 1.390625q0.765625 1.40625 0.765625 4.3125q0 2.890625 -0.765625 4.296875q-0.75 1.421875 -2.296875 1.421875q-1.578125 0 -2.3125 -1.421875q-0.75 -1.40625 -0.75 -4.296875z" fill-rule="nonzero"/></g><g filter="url(#shadowFilter-g11da9520085_0_64.3)"><use xlink:href="#g11da9520085_0_64.3" transform="matrix(1.0 0.0 0.0 1.0 0.0 2.0)"/></g><defs><filter id="shadowFilter-g11da9520085_0_64.3" filterUnits="userSpaceOnUse"><feGaussianBlur in="SourceAlpha" stdDeviation="2.0" result="blur"/><feComponentTransfer in="blur" color-interpolation-filters="sRGB"><feFuncR type="linear" slope="0" intercept="0.0"/><feFuncG type="linear" slope="0" intercept="0.0"/><feFuncB type="linear" slope="0" intercept="0.0"/><feFuncA type="linear" slope="0.5" intercept="0"/></feComponentTransfer></filter></defs><g id="g11da9520085_0_64.3"><path fill="#eeeeee" d="m379.66928 351.3185l200.6614 0l0 61.95276l-200.6614 0z" fill-rule="evenodd"/><path stroke="#595959" stroke-width="1.0" stroke-linejoin="round" stroke-linecap="butt" d="m379.66928 351.3185l200.6614 0l0 61.95276l-200.6614 0z" fill-rule="evenodd"/><path fill="#000000" d="m459.89893 378.60553l0 2.984375l-8.875 0l0 -2.984375l8.875 0zm-9.21875 -3.265625l-0.890625 0l0 7.21875l11.34375 0l0 -6.796875q0 -0.0625 0.03125 -0.125q0.015625 -0.015625 0.046875 -0.09375q0.0625 -0.109375 0.015625 -0.15625q-0.046875 -0.046875 -0.34375 -0.046875l-0.984375 0l0 2.3125l-8.875 0l0 -1.890625q0 -0.0625 0.015625 -0.109375q0.03125 -0.03125 0.0625 -0.09375q0.09375 -0.125 0.0625 -0.171875q-0.078125 -0.046875 -0.484375 -0.046875zm-3.046875 11.984375l0 1.015625l15.65625 0l0 -1.015625l-15.65625 0zm21.09375 -11.59375l0 1.03125l10.25 0l0 2.640625l-10.15625 0l0 4.75l5.140625 0l0 3.265625l-7.421875 0l0 1.03125l16.15625 0l0 -1.03125l-7.453125 0l0 -3.265625l5.34375 0l0 -0.984375l-10.546875 0l0 -2.828125l10.140625 0l0 -4.609375l-11.453125 0zm17.046875 0.046875l0 1.03125l6.96875 0q-0.078125 0.90625 -0.25 1.65625q-0.125 0.671875 -0.40625 1.53125q-1.59375 0.21875 -3.78125 0.375q-1.953125 0.140625 -3.234375 0.140625l0.453125 1.0625q0.125 0.25 0.21875 0.28125q0.078125 0.015625 0.265625 -0.09375q0.140625 -0.09375 0.25 -0.140625q0.1875 -0.09375 0.390625 -0.109375l5.015625 -0.484375q-0.84375 1.796875 -2.734375 3.359375q-1.875 1.546875 -4.15625 2.296875l1.0 1.03125q3.5625 -1.59375 5.578125 -4.21875q2.3125 -3.046875 2.734375 -7.71875l-8.3125 0zm8.078125 5.0l0 1.03125l4.1875 0l0 8.90625l1.25 0l0 -15.96875q0 -0.078125 0.015625 -0.171875q0.015625 -0.0625 0.078125 -0.140625q0.09375 -0.1875 0.046875 -0.25q-0.03125 -0.09375 -0.359375 -0.09375l-1.03125 0l0 6.6875l-4.1875 0zm10.296875 1.609375q0 3.34375 1.109375 5.109375q1.140625 1.734375 3.25 1.734375q2.09375 0 3.21875 -1.734375q1.140625 -1.765625 1.140625 -5.09375q0 -3.34375 -1.140625 -5.09375q-1.125 -1.75 -3.21875 -1.75q-2.109375 0 -3.25 1.71875q-1.109375 1.765625 -1.109375 5.109375zm1.296875 0q0 -2.90625 0.75 -4.3125q0.734375 -1.390625 2.3125 -1.390625q1.546875 0 2.296875 1.390625q0.765625 1.40625 0.765625 4.3125q0 2.890625 -0.765625 4.296875q-0.75 1.421875 -2.296875 1.421875q-1.578125 0 -2.3125 -1.421875q-0.75 -1.40625 -0.75 -4.296875z" fill-rule="nonzero"/></g><g filter="url(#shadowFilter-g11da9520085_0_64.4)"><use xlink:href="#g11da9520085_0_64.4" transform="matrix(1.0 0.0 0.0 1.0 0.0 2.0)"/></g><defs><filter id="shadowFilter-g11da9520085_0_64.4" filterUnits="userSpaceOnUse"><feGaussianBlur in="SourceAlpha" stdDeviation="2.0" result="blur"/><feComponentTransfer in="blur" color-interpolation-filters="sRGB"><feFuncR type="linear" slope="0" intercept="0.0"/><feFuncG type="linear" slope="0" intercept="0.0"/><feFuncB type="linear" slope="0" intercept="0.0"/><feFuncA type="linear" slope="0.5" intercept="0"/></feComponentTransfer></filter></defs><g id="g11da9520085_0_64.4"><path fill="#eeeeee" d="m379.66928 424.893l200.6614 0l0 61.95276l-200.6614 0z" fill-rule="evenodd"/><path stroke="#595959" stroke-width="1.0" stroke-linejoin="round" stroke-linecap="butt" d="m379.66928 424.893l200.6614 0l0 61.95276l-200.6614 0z" fill-rule="evenodd"/><path fill="#000000" d="m459.89893 452.18002l0 2.984375l-8.875 0l0 -2.984375l8.875 0zm-9.21875 -3.265625l-0.890625 0l0 7.21875l11.34375 0l0 -6.796875q0 -0.0625 0.03125 -0.125q0.015625 -0.015625 0.046875 -0.09375q0.0625 -0.109375 0.015625 -0.15625q-0.046875 -0.046875 -0.34375 -0.046875l-0.984375 0l0 2.3125l-8.875 0l0 -1.890625q0 -0.0625 0.015625 -0.109375q0.03125 -0.03125 0.0625 -0.09375q0.09375 -0.125 0.0625 -0.171875q-0.078125 -0.046875 -0.484375 -0.046875zm-3.046875 11.984375l0 1.015625l15.65625 0l0 -1.015625l-15.65625 0zm21.09375 -11.59375l0 1.03125l10.25 0l0 2.640625l-10.15625 0l0 4.75l5.140625 0l0 3.265625l-7.421875 0l0 1.03125l16.15625 0l0 -1.03125l-7.453125 0l0 -3.265625l5.34375 0l0 -0.984375l-10.546875 0l0 -2.828125l10.140625 0l0 -4.609375l-11.453125 0zm17.046875 0.046875l0 1.03125l6.96875 0q-0.078125 0.90625 -0.25 1.65625q-0.125 0.671875 -0.40625 1.53125q-1.59375 0.21875 -3.78125 0.375q-1.953125 0.140625 -3.234375 0.140625l0.453125 1.0625q0.125 0.25 0.21875 0.28125q0.078125 0.015625 0.265625 -0.09375q0.140625 -0.09375 0.25 -0.140625q0.1875 -0.09375 0.390625 -0.109375l5.015625 -0.484375q-0.84375 1.796875 -2.734375 3.359375q-1.875 1.546875 -4.15625 2.296875l1.0 1.03125q3.5625 -1.59375 5.578125 -4.21875q2.3125 -3.046875 2.734375 -7.71875l-8.3125 0zm8.078125 5.0l0 1.03125l4.1875 0l0 8.90625l1.25 0l0 -15.96875q0 -0.078125 0.015625 -0.171875q0.015625 -0.0625 0.078125 -0.140625q0.09375 -0.1875 0.046875 -0.25q-0.03125 -0.09375 -0.359375 -0.09375l-1.03125 0l0 6.6875l-4.1875 0zm10.234375 8.0625l8.578125 0l0 -1.046875l-7.328125 0q0.078125 -0.984375 0.78125 -1.78125q0.671875 -0.765625 2.078125 -1.5625l0.921875 -0.546875q1.03125 -0.5625 1.4375 -0.84375q0.71875 -0.484375 1.125 -0.9375q0.546875 -0.59375 0.796875 -1.234375q0.265625 -0.65625 0.265625 -1.46875q0 -1.78125 -1.09375 -2.828125q-1.078125 -1.03125 -2.921875 -1.03125q-2.015625 0 -3.15625 1.15625q-1.109375 1.125 -1.15625 3.265625l1.25 0q0 -1.625 0.78125 -2.453125q0.765625 -0.84375 2.234375 -0.84375q1.3125 0 2.0625 0.71875q0.75 0.71875 0.75 2.03125q0 0.640625 -0.203125 1.109375q-0.1875 0.46875 -0.609375 0.96875q-0.3125 0.3125 -0.875 0.6875q-0.328125 0.21875 -1.140625 0.703125l-1.328125 0.796875q-1.6875 1.046875 -2.4375 2.125q-0.8125 1.140625 -0.8125 2.625l0 0.390625z" fill-rule="nonzero"/></g><path fill="#000000" fill-opacity="0.0" d="m789.1601 228.69817l-308.063 -67.968506" fill-rule="evenodd"/><path stroke="#595959" stroke-width="3.0" stroke-linejoin="round" stroke-linecap="butt" d="m789.1601 228.69817l-290.48572 -64.09039" fill-rule="evenodd"/><path fill="#595959" stroke="#595959" stroke-width="3.0" stroke-linecap="butt" d="m499.74197 159.76894l-14.362152 1.9056244l12.226959 7.7720337z" fill-rule="evenodd"/><g filter="url(#shadowFilter-g11da9520085_0_64.5)"><use xlink:href="#g11da9520085_0_64.5" transform="matrix(1.0 0.0 0.0 1.0 0.0 2.0)"/></g><defs><filter id="shadowFilter-g11da9520085_0_64.5" filterUnits="userSpaceOnUse"><feGaussianBlur in="SourceAlpha" stdDeviation="2.0" result="blur"/><feComponentTransfer in="blur" color-interpolation-filters="sRGB"><feFuncR type="linear" slope="0" intercept="0.0"/><feFuncG type="linear" slope="0" intercept="0.0"/><feFuncB type="linear" slope="0" intercept="0.0"/><feFuncA type="linear" slope="0.5" intercept="0"/></feComponentTransfer></filter></defs><g id="g11da9520085_0_64.5"><path fill="#b7b7b7" d="m31.03412 228.69817l279.65353 0l0 278.74017l-279.65353 0z" fill-rule="evenodd"/><path stroke="#595959" stroke-width="1.0" stroke-linejoin="round" stroke-linecap="butt" d="m31.03412 228.69817l279.65353 0l0 278.74017l-279.65353 0z" fill-rule="evenodd"/></g><path fill="#000000" fill-opacity="0.0" d="m67.40157 228.69817l206.96063 0l0 42.01573l-206.96063 0z" fill-rule="evenodd"/><path fill="#000000" d="m102.26073 241.60254l-5.421875 0q-0.28125 0 -0.4375 0.140625q-0.125 0.140625 -0.125 0.328125q0 0.1875 0.125 0.328125q0.171875 0.15625 0.453125 0.15625l5.375 0q0.515625 0 0.75 0.21875q0.21875 0.21875 0.21875 0.65625l0 2.75q0 3.5625 -1.734375 5.59375q-1.734375 2.0625 -5.109375 2.453125q-0.53125 0.046875 -0.453125 0.53125q0.0625 0.484375 0.578125 0.453125q3.640625 -0.359375 5.703125 -2.6875q2.078125 -2.375 2.078125 -6.296875l0 -2.875q0 -0.8125 -0.546875 -1.28125q-0.515625 -0.46875 -1.453125 -0.46875zm-0.140625 4.71875q-1.0625 0.265625 -2.859375 0.5q-1.796875 0.21875 -2.96875 0.21875q-0.53125 0 -0.53125 0.484375q0 0.484375 0.546875 0.484375q1.234375 0 3.140625 -0.265625q1.84375 -0.234375 2.96875 -0.53125q0.234375 -0.078125 0.359375 -0.265625q0.109375 -0.15625 0.046875 -0.328125q-0.046875 -0.1875 -0.234375 -0.28125q-0.1875 -0.09375 -0.46875 -0.015625zm6.828125 2.015625l0 -6.78125q0 -0.25 -0.1875 -0.390625q-0.140625 -0.109375 -0.375 -0.109375q-0.21875 0 -0.359375 0.109375q-0.171875 0.140625 -0.171875 0.390625l0 14.46875q0 0.25 0.171875 0.390625q0.140625 0.15625 0.359375 0.15625q0.234375 0 0.375 -0.15625q0.1875 -0.140625 0.1875 -0.390625l0 -6.765625l2.0625 0q0.4375 0 0.4375 -0.46875q0 -0.453125 -0.4375 -0.453125l-2.0625 0zm19.5625 0.578125l-2.3125 0l0.578125 -5.03125q0.015625 -0.265625 -0.140625 -0.4375q-0.140625 -0.125 -0.359375 -0.15625q-0.21875 -0.015625 -0.390625 0.09375q-0.171875 0.140625 -0.1875 0.390625l-0.59375 5.140625l-5.1875 0l-0.578125 -5.15625q-0.03125 -0.25 -0.21875 -0.390625q-0.171875 -0.109375 -0.390625 -0.09375q-0.21875 0.015625 -0.359375 0.15625q-0.15625 0.15625 -0.125 0.421875l0.578125 5.0625l-2.3125 0q-0.46875 0 -0.46875 0.46875q-0.03125 0.484375 0.421875 0.484375l12.078125 0q0.46875 0 0.4375 -0.484375q0 -0.46875 -0.46875 -0.46875zm-0.078125 -7.375l-11.890625 0q-0.53125 0 -0.5 0.484375q0 0.46875 0.5 0.46875l11.96875 0q0.21875 0 0.34375 -0.15625q0.125 -0.140625 0.109375 -0.3125q0 -0.21875 -0.125 -0.34375q-0.171875 -0.140625 -0.40625 -0.140625zm1.265625 12.796875l-14.390625 0q-0.25 0 -0.40625 0.125q-0.125 0.15625 -0.140625 0.34375q-0.03125 0.1875 0.09375 0.328125q0.109375 0.15625 0.3125 0.15625l14.671875 0q0.203125 0 0.3125 -0.15625q0.109375 -0.140625 0.109375 -0.328125q-0.015625 -0.1875 -0.15625 -0.34375q-0.15625 -0.125 -0.40625 -0.125zm10.5625 -12.734375l-5.421875 0q-0.28125 0 -0.4375 0.140625q-0.125 0.140625 -0.125 0.328125q0 0.1875 0.125 0.328125q0.171875 0.15625 0.453125 0.15625l5.375 0q0.515625 0 0.75 0.21875q0.21875 0.21875 0.21875 0.65625l0 2.75q0 3.5625 -1.734375 5.59375q-1.734375 2.0625 -5.109375 2.453125q-0.53125 0.046875 -0.453125 0.53125q0.0625 0.484375 0.578125 0.453125q3.640625 -0.359375 5.703125 -2.6875q2.078125 -2.375 2.078125 -6.296875l0 -2.875q0 -0.8125 -0.546875 -1.28125q-0.515625 -0.46875 -1.453125 -0.46875zm-0.140625 4.71875q-1.0625 0.265625 -2.859375 0.5q-1.796875 0.21875 -2.96875 0.21875q-0.53125 0 -0.53125 0.484375q0 0.484375 0.546875 0.484375q1.234375 0 3.140625 -0.265625q1.84375 -0.234375 2.96875 -0.53125q0.234375 -0.078125 0.359375 -0.265625q0.109375 -0.15625 0.046875 -0.328125q-0.046875 -0.1875 -0.234375 -0.28125q-0.1875 -0.09375 -0.46875 -0.015625zm6.828125 2.015625l0 -6.78125q0 -0.25 -0.1875 -0.390625q-0.140625 -0.109375 -0.375 -0.109375q-0.21875 0 -0.359375 0.109375q-0.171875 0.140625 -0.171875 0.390625l0 14.46875q0 0.25 0.171875 0.390625q0.140625 0.15625 0.359375 0.15625q0.234375 0 0.375 -0.15625q0.1875 -0.140625 0.1875 -0.390625l0 -6.765625l2.0625 0q0.4375 0 0.4375 -0.46875q0 -0.453125 -0.4375 -0.453125l-2.0625 0z" fill-rule="nonzero"/><path fill="#000000" d="m169.7409 244.41504q-1.75 0.234375 -4.765625 0.359375q-2.609375 0.125 -5.390625 0.125q-0.5625 0 -0.5625 0.453125q0 0.484375 0.5625 0.484375q2.78125 0 5.578125 -0.125q3.03125 -0.125 4.796875 -0.359375q0.21875 -0.03125 0.359375 -0.203125q0.09375 -0.140625 0.046875 -0.34375q-0.03125 -0.1875 -0.1875 -0.296875q-0.171875 -0.140625 -0.4375 -0.09375zm0.375 -3.109375l-10.25 0q-0.5 0 -0.515625 0.484375q0 0.484375 0.5 0.484375l10.203125 0q0.46875 0 0.65625 0.171875q0.140625 0.171875 0.140625 0.515625l0 1.671875q0 1.078125 -0.1875 1.859375q-0.25 1.046875 -0.890625 1.9375l1.15625 0q0.5625 -0.765625 0.8125 -1.828125q0.21875 -0.890625 0.21875 -1.953125l0 -1.828125q0 -0.671875 -0.5 -1.078125q-0.5 -0.4375 -1.34375 -0.4375zm2.78125 6.578125l-14.421875 0q-0.5 0 -0.53125 0.453125q-0.046875 0.46875 0.40625 0.46875l14.671875 0q0.203125 0 0.3125 -0.140625q0.109375 -0.140625 0.109375 -0.328125q-0.015625 -0.203125 -0.140625 -0.328125q-0.171875 -0.125 -0.40625 -0.125zm-2.640625 2.59375l-10.296875 0q-0.5625 0 -0.578125 0.46875q0 0.484375 0.5625 0.484375l10.1875 0q0.390625 0 0.546875 0.125q0.171875 0.140625 0.171875 0.46875l0 0.453125q0 0.25 -0.1875 0.359375q-0.15625 0.109375 -0.5 0.109375l-9.3125 0q-0.6875 0 -1.0625 0.359375q-0.359375 0.359375 -0.359375 0.96875l0 0.828125q0 0.578125 0.34375 0.90625q0.359375 0.359375 0.984375 0.359375l10.90625 0q0.25 0 0.375 -0.15625q0.125 -0.140625 0.125 -0.328125q-0.015625 -0.1875 -0.140625 -0.34375q-0.171875 -0.125 -0.421875 -0.125l-10.4375 0q-0.328125 0 -0.484375 -0.109375q-0.140625 -0.109375 -0.140625 -0.390625l0 -0.453125q0 -0.265625 0.125 -0.421875q0.15625 -0.140625 0.515625 -0.140625l9.421875 0q0.59375 0 0.96875 -0.390625q0.390625 -0.359375 0.390625 -0.890625l0 -0.890625q0 -0.578125 -0.515625 -0.9375q-0.484375 -0.3125 -1.1875 -0.3125zm12.875 -8.90625l-4.859375 0q-0.59375 0 -0.59375 0.46875q-0.015625 0.453125 0.5625 0.453125l4.53125 0q0.546875 0 0.8125 0.171875q0.234375 0.1875 0.234375 0.578125l0 3.359375q0 0.375 -0.234375 0.53125q-0.21875 0.15625 -0.703125 0.15625l-3.5 0q-0.734375 0 -1.203125 0.515625q-0.40625 0.484375 -0.40625 1.171875l0 4.078125q0 0.875 0.453125 1.390625q0.46875 0.578125 1.359375 0.578125q2.0625 0 3.984375 -0.3125q1.9375 -0.3125 3.40625 -0.890625q0.21875 -0.109375 0.28125 -0.3125q0.046875 -0.1875 -0.015625 -0.375q-0.09375 -0.1875 -0.28125 -0.265625q-0.203125 -0.09375 -0.453125 0.015625q-1.25 0.53125 -2.875 0.84375q-1.84375 0.375 -3.765625 0.375q-0.546875 0 -0.78125 -0.265625q-0.21875 -0.234375 -0.21875 -0.71875l0 -4.0q0 -0.484375 0.171875 -0.6875q0.1875 -0.21875 0.640625 -0.21875l3.390625 0q0.9375 0 1.40625 -0.40625q0.421875 -0.375 0.421875 -1.0625l0 -3.765625q0 -0.6875 -0.484375 -1.046875q-0.453125 -0.359375 -1.28125 -0.359375zm7.53125 14.34375l0 -14.3125q0 -0.265625 -0.171875 -0.421875q-0.15625 -0.125 -0.375 -0.125q-0.25 0 -0.390625 0.125q-0.171875 0.15625 -0.171875 0.421875l0 6.078125l-3.171875 0q-0.265625 0 -0.390625 0.125q-0.125 0.15625 -0.125 0.328125q0.015625 0.1875 0.171875 0.34375q0.15625 0.140625 0.4375 0.140625l3.078125 0l0 7.296875q0 0.3125 0.171875 0.5q0.140625 0.171875 0.390625 0.171875q0.21875 0 0.375 -0.171875q0.171875 -0.203125 0.171875 -0.5zm12.5 -14.078125q0 2.875 -1.984375 4.90625q-1.71875 1.765625 -4.015625 2.234375q-0.296875 0.046875 -0.421875 0.234375q-0.140625 0.15625 -0.109375 0.359375q0.03125 0.1875 0.203125 0.296875q0.1875 0.109375 0.453125 0.078125q2.25 -0.453125 4.09375 -2.140625q1.75 -1.578125 2.3125 -3.453125q0.59375 1.859375 2.3125 3.453125q1.828125 1.671875 3.984375 2.109375q0.3125 0.0625 0.53125 -0.046875q0.1875 -0.109375 0.21875 -0.3125q0.0625 -0.203125 -0.0625 -0.375q-0.15625 -0.1875 -0.4375 -0.25q-2.421875 -0.5 -4.09375 -2.21875q-1.921875 -1.984375 -1.921875 -4.84375q0 -0.296875 -0.171875 -0.484375q-0.15625 -0.140625 -0.359375 -0.140625q-0.21875 0 -0.375 0.140625q-0.15625 0.171875 -0.15625 0.453125zm7.734375 12.5l-14.40625 0q-0.546875 0 -0.546875 0.46875q0 0.484375 0.546875 0.484375l14.421875 0q0.234375 0 0.390625 -0.15625q0.140625 -0.140625 0.140625 -0.328125q0 -0.1875 -0.140625 -0.34375q-0.15625 -0.125 -0.40625 -0.125zm12.296875 -12.734375l-5.53125 0q-0.9375 0 -1.4375 0.5625q-0.453125 0.484375 -0.453125 1.25l0 9.859375q0 0.875 0.390625 1.34375q0.453125 0.53125 1.375 0.53125q2.34375 0 4.25 -0.25q1.96875 -0.265625 3.21875 -0.75q0.546875 -0.234375 0.359375 -0.6875q-0.171875 -0.4375 -0.703125 -0.234375q-1.34375 0.5 -3.078125 0.734375q-1.734375 0.25 -4.03125 0.25q-0.375 0 -0.53125 -0.265625q-0.15625 -0.203125 -0.15625 -0.625l0 -5.03125l5.71875 0q0.53125 0 0.53125 -0.484375q0 -0.46875 -0.53125 -0.46875l-5.71875 0l0 -3.921875q0 -0.421875 0.171875 -0.640625q0.203125 -0.21875 0.609375 -0.21875l5.578125 0q0.28125 0 0.453125 -0.15625q0.140625 -0.140625 0.140625 -0.328125q-0.015625 -0.1875 -0.15625 -0.328125q-0.1875 -0.140625 -0.46875 -0.140625zm5.46875 14.3125l0 -14.3125q0 -0.265625 -0.171875 -0.421875q-0.15625 -0.125 -0.375 -0.125q-0.25 0 -0.390625 0.125q-0.171875 0.15625 -0.171875 0.421875l0 6.078125l-3.171875 0q-0.265625 0 -0.390625 0.125q-0.125 0.15625 -0.125 0.328125q0.015625 0.1875 0.171875 0.34375q0.15625 0.140625 0.4375 0.140625l3.078125 0l0 7.296875q0 0.3125 0.171875 0.5q0.140625 0.171875 0.390625 0.171875q0.21875 0 0.375 -0.171875q0.171875 -0.203125 0.171875 -0.5z" fill-rule="nonzero"/><path fill="#000000" d="m238.15858 249.02441q0 -2.359375 0.484375 -3.796875q0.484375 -1.453125 1.4375 -2.234375q0.96875 -0.78125 2.421875 -0.78125q1.078125 0 1.890625 0.4375q0.8125 0.421875 1.328125 1.25q0.53125 0.8125 0.828125 1.984375q0.3125 1.15625 0.3125 3.140625q0 2.359375 -0.484375 3.8125q-0.484375 1.4375 -1.453125 2.234375q-0.953125 0.78125 -2.421875 0.78125q-1.921875 0 -3.03125 -1.390625q-1.3125 -1.671875 -1.3125 -5.4375zm1.671875 0q0 3.296875 0.765625 4.390625q0.78125 1.078125 1.90625 1.078125q1.140625 0 1.90625 -1.09375q0.765625 -1.09375 0.765625 -4.375q0 -3.296875 -0.765625 -4.375q-0.765625 -1.078125 -1.921875 -1.078125q-1.125 0 -1.796875 0.953125q-0.859375 1.21875 -0.859375 4.5z" fill-rule="nonzero"/><g filter="url(#shadowFilter-g11da9520085_0_64.6)"><use xlink:href="#g11da9520085_0_64.6" transform="matrix(1.0 0.0 0.0 1.0 0.0 2.0)"/></g><defs><filter id="shadowFilter-g11da9520085_0_64.6" filterUnits="userSpaceOnUse"><feGaussianBlur in="SourceAlpha" stdDeviation="2.0" result="blur"/><feComponentTransfer in="blur" color-interpolation-filters="sRGB"><feFuncR type="linear" slope="0" intercept="0.0"/><feFuncG type="linear" slope="0" intercept="0.0"/><feFuncB type="linear" slope="0" intercept="0.0"/><feFuncA type="linear" slope="0.5" intercept="0"/></feComponentTransfer></filter></defs><g id="g11da9520085_0_64.6"><path fill="#eeeeee" d="m70.53018 271.00388l200.6614 0l0 61.95276l-200.6614 0z" fill-rule="evenodd"/><path stroke="#595959" stroke-width="1.0" stroke-linejoin="round" stroke-linecap="butt" d="m70.53018 271.00388l200.6614 0l0 61.95276l-200.6614 0z" fill-rule="evenodd"/><path fill="#000000" d="m150.75983 298.29086l0 2.984375l-8.875 0l0 -2.984375l8.875 0zm-9.21875 -3.265625l-0.890625 0l0 7.21875l11.34375 0l0 -6.796875q0 -0.0625 0.03125 -0.125q0.015625 -0.015625 0.046875 -0.09375q0.0625 -0.109375 0.015625 -0.15625q-0.046875 -0.046875 -0.34375 -0.046875l-0.984375 0l0 2.3125l-8.875 0l0 -1.890625q0 -0.0625 0.015625 -0.109375q0.03125 -0.03125 0.0625 -0.09375q0.09375 -0.125 0.0625 -0.171875q-0.078125 -0.046875 -0.484375 -0.046875zm-3.046875 11.984375l0 1.015625l15.65625 0l0 -1.015625l-15.65625 0zm21.09375 -11.59375l0 1.03125l10.25 0l0 2.640625l-10.15625 0l0 4.75l5.140625 0l0 3.265625l-7.421875 0l0 1.03125l16.15625 0l0 -1.03125l-7.453125 0l0 -3.265625l5.34375 0l0 -0.984375l-10.546875 0l0 -2.828125l10.140625 0l0 -4.609375l-11.453125 0zm17.046875 0.046875l0 1.03125l6.96875 0q-0.078125 0.90625 -0.25 1.65625q-0.125 0.671875 -0.40625 1.53125q-1.59375 0.21875 -3.78125 0.375q-1.953125 0.140625 -3.234375 0.140625l0.453125 1.0625q0.125 0.25 0.21875 0.28125q0.078125 0.015625 0.265625 -0.09375q0.140625 -0.09375 0.25 -0.140625q0.1875 -0.09375 0.390625 -0.109375l5.015625 -0.484375q-0.84375 1.796875 -2.734375 3.359375q-1.875 1.546875 -4.15625 2.296875l1.0 1.03125q3.5625 -1.59375 5.578125 -4.21875q2.3125 -3.046875 2.734375 -7.71875l-8.3125 0zm8.078125 5.0l0 1.03125l4.1875 0l0 8.90625l1.25 0l0 -15.96875q0 -0.078125 0.015625 -0.171875q0.015625 -0.0625 0.078125 -0.140625q0.09375 -0.1875 0.046875 -0.25q-0.03125 -0.09375 -0.359375 -0.09375l-1.03125 0l0 6.6875l-4.1875 0zm10.296875 1.609375q0 3.34375 1.109375 5.109375q1.140625 1.734375 3.25 1.734375q2.09375 0 3.21875 -1.734375q1.140625 -1.765625 1.140625 -5.09375q0 -3.34375 -1.140625 -5.09375q-1.125 -1.75 -3.21875 -1.75q-2.109375 0 -3.25 1.71875q-1.109375 1.765625 -1.109375 5.109375zm1.296875 0q0 -2.90625 0.75 -4.3125q0.734375 -1.390625 2.3125 -1.390625q1.546875 0 2.296875 1.390625q0.765625 1.40625 0.765625 4.3125q0 2.890625 -0.765625 4.296875q-0.75 1.421875 -2.296875 1.421875q-1.578125 0 -2.3125 -1.421875q-0.75 -1.40625 -0.75 -4.296875z" fill-rule="nonzero"/></g><g filter="url(#shadowFilter-g11da9520085_0_64.7)"><use xlink:href="#g11da9520085_0_64.7" transform="matrix(1.0 0.0 0.0 1.0 0.0 2.0)"/></g><defs><filter id="shadowFilter-g11da9520085_0_64.7" filterUnits="userSpaceOnUse"><feGaussianBlur in="SourceAlpha" stdDeviation="2.0" result="blur"/><feComponentTransfer in="blur" color-interpolation-filters="sRGB"><feFuncR type="linear" slope="0" intercept="0.0"/><feFuncG type="linear" slope="0" intercept="0.0"/><feFuncB type="linear" slope="0" intercept="0.0"/><feFuncA type="linear" slope="0.5" intercept="0"/></feComponentTransfer></filter></defs><g id="g11da9520085_0_64.7"><path fill="#b7b7b7" d="m649.3123 228.69817l279.65356 0l0 278.74017l-279.65356 0z" fill-rule="evenodd"/><path stroke="#595959" stroke-width="1.0" stroke-linejoin="round" stroke-linecap="butt" d="m649.3123 228.69817l279.65356 0l0 278.74017l-279.65356 0z" fill-rule="evenodd"/></g><path fill="#000000" fill-opacity="0.0" d="m685.6798 228.69817l206.96063 0l0 42.01573l-206.96063 0z" fill-rule="evenodd"/><path fill="#000000" d="m720.53894 241.60254l-5.421875 0q-0.28125 0 -0.4375 0.140625q-0.125 0.140625 -0.125 0.328125q0 0.1875 0.125 0.328125q0.171875 0.15625 0.453125 0.15625l5.375 0q0.515625 0 0.75 0.21875q0.21875 0.21875 0.21875 0.65625l0 2.75q0 3.5625 -1.734375 5.59375q-1.734375 2.0625 -5.109375 2.453125q-0.53125 0.046875 -0.453125 0.53125q0.0625 0.484375 0.578125 0.453125q3.640625 -0.359375 5.703125 -2.6875q2.078125 -2.375 2.078125 -6.296875l0 -2.875q0 -0.8125 -0.546875 -1.28125q-0.515625 -0.46875 -1.453125 -0.46875zm-0.140625 4.71875q-1.0625 0.265625 -2.859375 0.5q-1.796875 0.21875 -2.96875 0.21875q-0.53125 0 -0.53125 0.484375q0 0.484375 0.546875 0.484375q1.234375 0 3.140625 -0.265625q1.84375 -0.234375 2.96875 -0.53125q0.234375 -0.078125 0.359375 -0.265625q0.109375 -0.15625 0.046875 -0.328125q-0.046875 -0.1875 -0.234375 -0.28125q-0.1875 -0.09375 -0.46875 -0.015625zm6.828125 2.015625l0 -6.78125q0 -0.25 -0.1875 -0.390625q-0.140625 -0.109375 -0.375 -0.109375q-0.21875 0 -0.359375 0.109375q-0.171875 0.140625 -0.171875 0.390625l0 14.46875q0 0.25 0.171875 0.390625q0.140625 0.15625 0.359375 0.15625q0.234375 0 0.375 -0.15625q0.1875 -0.140625 0.1875 -0.390625l0 -6.765625l2.0625 0q0.4375 0 0.4375 -0.46875q0 -0.453125 -0.4375 -0.453125l-2.0625 0zm19.5625 0.578125l-2.3125 0l0.578125 -5.03125q0.015625 -0.265625 -0.140625 -0.4375q-0.140625 -0.125 -0.359375 -0.15625q-0.21875 -0.015625 -0.390625 0.09375q-0.171875 0.140625 -0.1875 0.390625l-0.59375 5.140625l-5.1875 0l-0.578125 -5.15625q-0.03125 -0.25 -0.21875 -0.390625q-0.171875 -0.109375 -0.390625 -0.09375q-0.21875 0.015625 -0.359375 0.15625q-0.15625 0.15625 -0.125 0.421875l0.578125 5.0625l-2.3125 0q-0.46875 0 -0.46875 0.46875q-0.03125 0.484375 0.421875 0.484375l12.078125 0q0.46875 0 0.4375 -0.484375q0 -0.46875 -0.46875 -0.46875zm-0.078125 -7.375l-11.890625 0q-0.53125 0 -0.5 0.484375q0 0.46875 0.5 0.46875l11.96875 0q0.21875 0 0.34375 -0.15625q0.125 -0.140625 0.109375 -0.3125q0 -0.21875 -0.125 -0.34375q-0.171875 -0.140625 -0.40625 -0.140625zm1.265625 12.796875l-14.390625 0q-0.25 0 -0.40625 0.125q-0.125 0.15625 -0.140625 0.34375q-0.03125 0.1875 0.09375 0.328125q0.109375 0.15625 0.3125 0.15625l14.671875 0q0.203125 0 0.3125 -0.15625q0.109375 -0.140625 0.109375 -0.328125q-0.015625 -0.1875 -0.15625 -0.34375q-0.15625 -0.125 -0.40625 -0.125zm10.5625 -12.734375l-5.421875 0q-0.28125 0 -0.4375 0.140625q-0.125 0.140625 -0.125 0.328125q0 0.1875 0.125 0.328125q0.171875 0.15625 0.453125 0.15625l5.375 0q0.515625 0 0.75 0.21875q0.21875 0.21875 0.21875 0.65625l0 2.75q0 3.5625 -1.734375 5.59375q-1.734375 2.0625 -5.109375 2.453125q-0.53125 0.046875 -0.453125 0.53125q0.0625 0.484375 0.578125 0.453125q3.640625 -0.359375 5.703125 -2.6875q2.078125 -2.375 2.078125 -6.296875l0 -2.875q0 -0.8125 -0.546875 -1.28125q-0.515625 -0.46875 -1.453125 -0.46875zm-0.140625 4.71875q-1.0625 0.265625 -2.859375 0.5q-1.796875 0.21875 -2.96875 0.21875q-0.53125 0 -0.53125 0.484375q0 0.484375 0.546875 0.484375q1.234375 0 3.140625 -0.265625q1.84375 -0.234375 2.96875 -0.53125q0.234375 -0.078125 0.359375 -0.265625q0.109375 -0.15625 0.046875 -0.328125q-0.046875 -0.1875 -0.234375 -0.28125q-0.1875 -0.09375 -0.46875 -0.015625zm6.828125 2.015625l0 -6.78125q0 -0.25 -0.1875 -0.390625q-0.140625 -0.109375 -0.375 -0.109375q-0.21875 0 -0.359375 0.109375q-0.171875 0.140625 -0.171875 0.390625l0 14.46875q0 0.25 0.171875 0.390625q0.140625 0.15625 0.359375 0.15625q0.234375 0 0.375 -0.15625q0.1875 -0.140625 0.1875 -0.390625l0 -6.765625l2.0625 0q0.4375 0 0.4375 -0.46875q0 -0.453125 -0.4375 -0.453125l-2.0625 0z" fill-rule="nonzero"/><path fill="#000000" d="m788.0191 244.41504q-1.75 0.234375 -4.765625 0.359375q-2.609375 0.125 -5.390625 0.125q-0.5625 0 -0.5625 0.453125q0 0.484375 0.5625 0.484375q2.78125 0 5.578125 -0.125q3.03125 -0.125 4.796875 -0.359375q0.21875 -0.03125 0.359375 -0.203125q0.09375 -0.140625 0.046875 -0.34375q-0.03125 -0.1875 -0.1875 -0.296875q-0.171875 -0.140625 -0.4375 -0.09375zm0.375 -3.109375l-10.25 0q-0.5 0 -0.515625 0.484375q0 0.484375 0.5 0.484375l10.203125 0q0.46875 0 0.65625 0.171875q0.140625 0.171875 0.140625 0.515625l0 1.671875q0 1.078125 -0.1875 1.859375q-0.25 1.046875 -0.890625 1.9375l1.15625 0q0.5625 -0.765625 0.8125 -1.828125q0.21875 -0.890625 0.21875 -1.953125l0 -1.828125q0 -0.671875 -0.5 -1.078125q-0.5 -0.4375 -1.34375 -0.4375zm2.78125 6.578125l-14.421875 0q-0.5 0 -0.53125 0.453125q-0.046875 0.46875 0.40625 0.46875l14.671875 0q0.203125 0 0.3125 -0.140625q0.109375 -0.140625 0.109375 -0.328125q-0.015625 -0.203125 -0.140625 -0.328125q-0.171875 -0.125 -0.40625 -0.125zm-2.640625 2.59375l-10.296875 0q-0.5625 0 -0.578125 0.46875q0 0.484375 0.5625 0.484375l10.1875 0q0.390625 0 0.546875 0.125q0.171875 0.140625 0.171875 0.46875l0 0.453125q0 0.25 -0.1875 0.359375q-0.15625 0.109375 -0.5 0.109375l-9.3125 0q-0.6875 0 -1.0625 0.359375q-0.359375 0.359375 -0.359375 0.96875l0 0.828125q0 0.578125 0.34375 0.90625q0.359375 0.359375 0.984375 0.359375l10.90625 0q0.25 0 0.375 -0.15625q0.125 -0.140625 0.125 -0.328125q-0.015625 -0.1875 -0.140625 -0.34375q-0.171875 -0.125 -0.421875 -0.125l-10.4375 0q-0.328125 0 -0.484375 -0.109375q-0.140625 -0.109375 -0.140625 -0.390625l0 -0.453125q0 -0.265625 0.125 -0.421875q0.15625 -0.140625 0.515625 -0.140625l9.421875 0q0.59375 0 0.96875 -0.390625q0.390625 -0.359375 0.390625 -0.890625l0 -0.890625q0 -0.578125 -0.515625 -0.9375q-0.484375 -0.3125 -1.1875 -0.3125zm12.875 -8.90625l-4.859375 0q-0.59375 0 -0.59375 0.46875q-0.015625 0.453125 0.5625 0.453125l4.53125 0q0.546875 0 0.8125 0.171875q0.234375 0.1875 0.234375 0.578125l0 3.359375q0 0.375 -0.234375 0.53125q-0.21875 0.15625 -0.703125 0.15625l-3.5 0q-0.734375 0 -1.203125 0.515625q-0.40625 0.484375 -0.40625 1.171875l0 4.078125q0 0.875 0.453125 1.390625q0.46875 0.578125 1.359375 0.578125q2.0625 0 3.984375 -0.3125q1.9375 -0.3125 3.40625 -0.890625q0.21875 -0.109375 0.28125 -0.3125q0.046875 -0.1875 -0.015625 -0.375q-0.09375 -0.1875 -0.28125 -0.265625q-0.203125 -0.09375 -0.453125 0.015625q-1.25 0.53125 -2.875 0.84375q-1.84375 0.375 -3.765625 0.375q-0.546875 0 -0.78125 -0.265625q-0.21875 -0.234375 -0.21875 -0.71875l0 -4.0q0 -0.484375 0.171875 -0.6875q0.1875 -0.21875 0.640625 -0.21875l3.390625 0q0.9375 0 1.40625 -0.40625q0.421875 -0.375 0.421875 -1.0625l0 -3.765625q0 -0.6875 -0.484375 -1.046875q-0.453125 -0.359375 -1.28125 -0.359375zm7.53125 14.34375l0 -14.3125q0 -0.265625 -0.171875 -0.421875q-0.15625 -0.125 -0.375 -0.125q-0.25 0 -0.390625 0.125q-0.171875 0.15625 -0.171875 0.421875l0 6.078125l-3.171875 0q-0.265625 0 -0.390625 0.125q-0.125 0.15625 -0.125 0.328125q0.015625 0.1875 0.171875 0.34375q0.15625 0.140625 0.4375 0.140625l3.078125 0l0 7.296875q0 0.3125 0.171875 0.5q0.140625 0.171875 0.390625 0.171875q0.21875 0 0.375 -0.171875q0.171875 -0.203125 0.171875 -0.5zm12.5 -14.078125q0 2.875 -1.984375 4.90625q-1.71875 1.765625 -4.015625 2.234375q-0.296875 0.046875 -0.421875 0.234375q-0.140625 0.15625 -0.109375 0.359375q0.03125 0.1875 0.203125 0.296875q0.1875 0.109375 0.453125 0.078125q2.25 -0.453125 4.09375 -2.140625q1.75 -1.578125 2.3125 -3.453125q0.59375 1.859375 2.3125 3.453125q1.828125 1.671875 3.984375 2.109375q0.3125 0.0625 0.53125 -0.046875q0.1875 -0.109375 0.21875 -0.3125q0.0625 -0.203125 -0.0625 -0.375q-0.15625 -0.1875 -0.4375 -0.25q-2.421875 -0.5 -4.09375 -2.21875q-1.921875 -1.984375 -1.921875 -4.84375q0 -0.296875 -0.171875 -0.484375q-0.15625 -0.140625 -0.359375 -0.140625q-0.21875 0 -0.375 0.140625q-0.15625 0.171875 -0.15625 0.453125zm7.734375 12.5l-14.40625 0q-0.546875 0 -0.546875 0.46875q0 0.484375 0.546875 0.484375l14.421875 0q0.234375 0 0.390625 -0.15625q0.140625 -0.140625 0.140625 -0.328125q0 -0.1875 -0.140625 -0.34375q-0.15625 -0.125 -0.40625 -0.125zm12.296875 -12.734375l-5.53125 0q-0.9375 0 -1.4375 0.5625q-0.453125 0.484375 -0.453125 1.25l0 9.859375q0 0.875 0.390625 1.34375q0.453125 0.53125 1.375 0.53125q2.34375 0 4.25 -0.25q1.96875 -0.265625 3.21875 -0.75q0.546875 -0.234375 0.359375 -0.6875q-0.171875 -0.4375 -0.703125 -0.234375q-1.34375 0.5 -3.078125 0.734375q-1.734375 0.25 -4.03125 0.25q-0.375 0 -0.53125 -0.265625q-0.15625 -0.203125 -0.15625 -0.625l0 -5.03125l5.71875 0q0.53125 0 0.53125 -0.484375q0 -0.46875 -0.53125 -0.46875l-5.71875 0l0 -3.921875q0 -0.421875 0.171875 -0.640625q0.203125 -0.21875 0.609375 -0.21875l5.578125 0q0.28125 0 0.453125 -0.15625q0.140625 -0.140625 0.140625 -0.328125q-0.015625 -0.1875 -0.15625 -0.328125q-0.1875 -0.140625 -0.46875 -0.140625zm5.46875 14.3125l0 -14.3125q0 -0.265625 -0.171875 -0.421875q-0.15625 -0.125 -0.375 -0.125q-0.25 0 -0.390625 0.125q-0.171875 0.15625 -0.171875 0.421875l0 6.078125l-3.171875 0q-0.265625 0 -0.390625 0.125q-0.125 0.15625 -0.125 0.328125q0.015625 0.1875 0.171875 0.34375q0.15625 0.140625 0.4375 0.140625l3.078125 0l0 7.296875q0 0.3125 0.171875 0.5q0.140625 0.171875 0.390625 0.171875q0.21875 0 0.375 -0.171875q0.171875 -0.203125 0.171875 -0.5z" fill-rule="nonzero"/><path fill="#000000" d="m865.04614 254.04004l0 1.578125l-8.828125 0q-0.015625 -0.59375 0.1875 -1.140625q0.34375 -0.90625 1.078125 -1.78125q0.75 -0.875 2.15625 -2.015625q2.171875 -1.78125 2.9375 -2.828125q0.765625 -1.046875 0.765625 -1.96875q0 -0.984375 -0.703125 -1.640625q-0.6875 -0.671875 -1.8125 -0.671875q-1.1875 0 -1.90625 0.71875q-0.703125 0.703125 -0.703125 1.953125l-1.6875 -0.171875q0.171875 -1.890625 1.296875 -2.875q1.140625 -0.984375 3.03125 -0.984375q1.921875 0 3.046875 1.0625q1.125 1.0625 1.125 2.640625q0 0.796875 -0.328125 1.578125q-0.328125 0.78125 -1.09375 1.640625q-0.75 0.84375 -2.53125 2.34375q-1.46875 1.234375 -1.890625 1.6875q-0.421875 0.4375 -0.6875 0.875l6.546875 0z" fill-rule="nonzero"/><g filter="url(#shadowFilter-g11da9520085_0_64.8)"><use xlink:href="#g11da9520085_0_64.8" transform="matrix(1.0 0.0 0.0 1.0 0.0 2.0)"/></g><defs><filter id="shadowFilter-g11da9520085_0_64.8" filterUnits="userSpaceOnUse"><feGaussianBlur in="SourceAlpha" stdDeviation="2.0" result="blur"/><feComponentTransfer in="blur" color-interpolation-filters="sRGB"><feFuncR type="linear" slope="0" intercept="0.0"/><feFuncG type="linear" slope="0" intercept="0.0"/><feFuncB type="linear" slope="0" intercept="0.0"/><feFuncA type="linear" slope="0.5" intercept="0"/></feComponentTransfer></filter></defs><g id="g11da9520085_0_64.8"><path fill="#eeeeee" d="m688.8084 271.00388l200.66138 0l0 61.95276l-200.66138 0z" fill-rule="evenodd"/><path stroke="#595959" stroke-width="1.0" stroke-linejoin="round" stroke-linecap="butt" d="m688.8084 271.00388l200.66138 0l0 61.95276l-200.66138 0z" fill-rule="evenodd"/><path fill="#000000" d="m769.038 298.29086l0 2.984375l-8.875 0l0 -2.984375l8.875 0zm-9.21875 -3.265625l-0.890625 0l0 7.21875l11.34375 0l0 -6.796875q0 -0.0625 0.03125 -0.125q0.015625 -0.015625 0.046875 -0.09375q0.0625 -0.109375 0.015625 -0.15625q-0.046875 -0.046875 -0.34375 -0.046875l-0.984375 0l0 2.3125l-8.875 0l0 -1.890625q0 -0.0625 0.015625 -0.109375q0.03125 -0.03125 0.0625 -0.09375q0.09375 -0.125 0.0625 -0.171875q-0.078125 -0.046875 -0.484375 -0.046875zm-3.046875 11.984375l0 1.015625l15.65625 0l0 -1.015625l-15.65625 0zm21.09375 -11.59375l0 1.03125l10.25 0l0 2.640625l-10.15625 0l0 4.75l5.140625 0l0 3.265625l-7.421875 0l0 1.03125l16.15625 0l0 -1.03125l-7.453125 0l0 -3.265625l5.34375 0l0 -0.984375l-10.546875 0l0 -2.828125l10.140625 0l0 -4.609375l-11.453125 0zm17.046875 0.046875l0 1.03125l6.96875 0q-0.078125 0.90625 -0.25 1.65625q-0.125 0.671875 -0.40625 1.53125q-1.59375 0.21875 -3.78125 0.375q-1.953125 0.140625 -3.234375 0.140625l0.453125 1.0625q0.125 0.25 0.21875 0.28125q0.078125 0.015625 0.265625 -0.09375q0.140625 -0.09375 0.25 -0.140625q0.1875 -0.09375 0.390625 -0.109375l5.015625 -0.484375q-0.84375 1.796875 -2.734375 3.359375q-1.875 1.546875 -4.15625 2.296875l1.0 1.03125q3.5625 -1.59375 5.578125 -4.21875q2.3125 -3.046875 2.734375 -7.71875l-8.3125 0zm8.078125 5.0l0 1.03125l4.1875 0l0 8.90625l1.25 0l0 -15.96875q0 -0.078125 0.015625 -0.171875q0.015625 -0.0625 0.078125 -0.140625q0.09375 -0.1875 0.046875 -0.25q-0.03125 -0.09375 -0.359375 -0.09375l-1.03125 0l0 6.6875l-4.1875 0zm10.296875 1.609375q0 3.34375 1.109375 5.109375q1.140625 1.734375 3.25 1.734375q2.09375 0 3.21875 -1.734375q1.140625 -1.765625 1.140625 -5.09375q0 -3.34375 -1.140625 -5.09375q-1.125 -1.75 -3.21875 -1.75q-2.109375 0 -3.25 1.71875q-1.109375 1.765625 -1.109375 5.109375zm1.296875 0q0 -2.90625 0.75 -4.3125q0.734375 -1.390625 2.3125 -1.390625q1.546875 0 2.296875 1.390625q0.765625 1.40625 0.765625 4.3125q0 2.890625 -0.765625 4.296875q-0.75 1.421875 -2.296875 1.421875q-1.578125 0 -2.3125 -1.421875q-0.75 -1.40625 -0.75 -4.296875z" fill-rule="nonzero"/></g><g filter="url(#shadowFilter-g11da9520085_0_64.9)"><use xlink:href="#g11da9520085_0_64.9" transform="matrix(1.0 0.0 0.0 1.0 0.0 2.0)"/></g><defs><filter id="shadowFilter-g11da9520085_0_64.9" filterUnits="userSpaceOnUse"><feGaussianBlur in="SourceAlpha" stdDeviation="2.0" result="blur"/><feComponentTransfer in="blur" color-interpolation-filters="sRGB"><feFuncR type="linear" slope="0" intercept="0.0"/><feFuncG type="linear" slope="0" intercept="0.0"/><feFuncB type="linear" slope="0" intercept="0.0"/><feFuncA type="linear" slope="0.5" intercept="0"/></feComponentTransfer></filter></defs><g id="g11da9520085_0_64.9"><path fill="#b7b7b7" d="m96.88189 12.3307085l768.4409 0l0 148.40945l-768.4409 0z" fill-rule="evenodd"/><path stroke="#595959" stroke-width="1.0" stroke-linejoin="round" stroke-linecap="butt" d="m96.88189 12.3307085l768.4409 0l0 148.40945l-768.4409 0z" fill-rule="evenodd"/></g><path fill="#000000" fill-opacity="0.0" d="m381.53018 12.3307085l206.9606 0l0 42.01575l-206.9606 0z" fill-rule="evenodd"/><path fill="#000000" d="m416.38934 25.235083l-5.421875 0q-0.28125 0 -0.4375 0.140625q-0.125 0.140625 -0.125 0.328125q0 0.1875 0.125 0.328125q0.171875 0.15625 0.453125 0.15625l5.375 0q0.515625 0 0.75 0.21875q0.21875 0.21875 0.21875 0.65625l0 2.75q0 3.562498 -1.734375 5.593748q-1.734375 2.0625 -5.109375 2.453125q-0.53125 0.046875 -0.453125 0.53125q0.0625 0.484375 0.578125 0.453125q3.640625 -0.359375 5.703125 -2.6875q2.078125 -2.375 2.078125 -6.296873l0 -2.875q0 -0.8125 -0.546875 -1.28125q-0.515625 -0.46875 -1.453125 -0.46875zm-0.140625 4.71875q-1.0625 0.265625 -2.859375 0.5q-1.796875 0.21875 -2.96875 0.21875q-0.53125 0 -0.53125 0.484375q0 0.484375 0.546875 0.484375q1.234375 0 3.140625 -0.265625q1.84375 -0.234375 2.96875 -0.53125q0.234375 -0.078125 0.359375 -0.265625q0.109375 -0.15625 0.046875 -0.328125q-0.046875 -0.1875 -0.234375 -0.28125q-0.1875 -0.09375 -0.46875 -0.015625zm6.828125 2.015625l0 -6.78125q0 -0.25 -0.1875 -0.390625q-0.140625 -0.109375 -0.375 -0.109375q-0.21875 0 -0.359375 0.109375q-0.171875 0.140625 -0.171875 0.390625l0 14.468748q0 0.25 0.171875 0.390625q0.140625 0.15625 0.359375 0.15625q0.234375 0 0.375 -0.15625q0.1875 -0.140625 0.1875 -0.390625l0 -6.765625l2.0625 0q0.4375 0 0.4375 -0.46875q0 -0.4531231 -0.4375 -0.4531231l-2.0625 0zm19.5625 0.5781231l-2.3125 0l0.578125 -5.031248q0.015625 -0.265625 -0.140625 -0.4375q-0.140625 -0.125 -0.359375 -0.15625q-0.21875 -0.015625 -0.390625 0.09375q-0.171875 0.140625 -0.1875 0.390625l-0.59375 5.140623l-5.1875 0l-0.578125 -5.156248q-0.03125 -0.25 -0.21875 -0.390625q-0.171875 -0.109375 -0.390625 -0.09375q-0.21875 0.015625 -0.359375 0.15625q-0.15625 0.15625 -0.125 0.421875l0.578125 5.062498l-2.3125 0q-0.46875 0 -0.46875 0.46875q-0.03125 0.484375 0.421875 0.484375l12.078125 0q0.46875 0 0.4375 -0.484375q0 -0.46875 -0.46875 -0.46875zm-0.078125 -7.374998l-11.890625 0q-0.53125 0 -0.5 0.484375q0 0.46875 0.5 0.46875l11.96875 0q0.21875 0 0.34375 -0.15625q0.125 -0.140625 0.109375 -0.3125q0 -0.21875 -0.125 -0.34375q-0.171875 -0.140625 -0.40625 -0.140625zm1.265625 12.796873l-14.390625 0q-0.25 0 -0.40625 0.125q-0.125 0.15625 -0.140625 0.34375q-0.03125 0.1875 0.09375 0.328125q0.109375 0.15625 0.3125 0.15625l14.671875 0q0.203125 0 0.3125 -0.15625q0.109375 -0.140625 0.109375 -0.328125q-0.015625 -0.1875 -0.15625 -0.34375q-0.15625 -0.125 -0.40625 -0.125zm10.5625 -12.734373l-5.421875 0q-0.28125 0 -0.4375 0.140625q-0.125 0.140625 -0.125 0.328125q0 0.1875 0.125 0.328125q0.171875 0.15625 0.453125 0.15625l5.375 0q0.515625 0 0.75 0.21875q0.21875 0.21875 0.21875 0.65625l0 2.75q0 3.562498 -1.734375 5.593748q-1.734375 2.0625 -5.109375 2.453125q-0.53125 0.046875 -0.453125 0.53125q0.0625 0.484375 0.578125 0.453125q3.640625 -0.359375 5.703125 -2.6875q2.078125 -2.375 2.078125 -6.296873l0 -2.875q0 -0.8125 -0.546875 -1.28125q-0.515625 -0.46875 -1.453125 -0.46875zm-0.140625 4.71875q-1.0625 0.265625 -2.859375 0.5q-1.796875 0.21875 -2.96875 0.21875q-0.53125 0 -0.53125 0.484375q0 0.484375 0.546875 0.484375q1.234375 0 3.140625 -0.265625q1.84375 -0.234375 2.96875 -0.53125q0.234375 -0.078125 0.359375 -0.265625q0.109375 -0.15625 0.046875 -0.328125q-0.046875 -0.1875 -0.234375 -0.28125q-0.1875 -0.09375 -0.46875 -0.015625zm6.828125 2.015625l0 -6.78125q0 -0.25 -0.1875 -0.390625q-0.140625 -0.109375 -0.375 -0.109375q-0.21875 0 -0.359375 0.109375q-0.171875 0.140625 -0.171875 0.390625l0 14.468748q0 0.25 0.171875 0.390625q0.140625 0.15625 0.359375 0.15625q0.234375 0 0.375 -0.15625q0.1875 -0.140625 0.1875 -0.390625l0 -6.765625l2.0625 0q0.4375 0 0.4375 -0.46875q0 -0.4531231 -0.4375 -0.4531231l-2.0625 0z" fill-rule="nonzero"/><path fill="#000000" d="m483.8695 28.047583q-1.75 0.234375 -4.765625 0.359375q-2.609375 0.125 -5.390625 0.125q-0.5625 0 -0.5625 0.453125q0 0.484375 0.5625 0.484375q2.78125 0 5.578125 -0.125q3.03125 -0.125 4.796875 -0.359375q0.21875 -0.03125 0.359375 -0.203125q0.09375 -0.140625 0.046875 -0.34375q-0.03125 -0.1875 -0.1875 -0.296875q-0.171875 -0.140625 -0.4375 -0.09375zm0.375 -3.109375l-10.25 0q-0.5 0 -0.515625 0.484375q0 0.484375 0.5 0.484375l10.203125 0q0.46875 0 0.65625 0.171875q0.140625 0.171875 0.140625 0.515625l0 1.671875q0 1.078125 -0.1875 1.859375q-0.25 1.046875 -0.890625 1.9374981l1.15625 0q0.5625 -0.7656231 0.8125 -1.8281231q0.21875 -0.890625 0.21875 -1.953125l0 -1.828125q0 -0.671875 -0.5 -1.078125q-0.5 -0.4375 -1.34375 -0.4375zm2.78125 6.578125l-14.421875 0q-0.5 0 -0.53125 0.453125q-0.046875 0.4687481 0.40625 0.4687481l14.671875 0q0.203125 0 0.3125 -0.140625q0.109375 -0.140625 0.109375 -0.3281231q-0.015625 -0.203125 -0.140625 -0.328125q-0.171875 -0.125 -0.40625 -0.125zm-2.640625 2.593748l-10.296875 0q-0.5625 0 -0.578125 0.46875q0 0.484375 0.5625 0.484375l10.1875 0q0.390625 0 0.546875 0.125q0.171875 0.140625 0.171875 0.46875l0 0.453125q0 0.25 -0.1875 0.359375q-0.15625 0.109375 -0.5 0.109375l-9.3125 0q-0.6875 0 -1.0625 0.359375q-0.359375 0.359375 -0.359375 0.96875l0 0.828125q0 0.578125 0.34375 0.90625q0.359375 0.359375 0.984375 0.359375l10.90625 0q0.25 0 0.375 -0.15625q0.125 -0.140625 0.125 -0.328125q-0.015625 -0.1875 -0.140625 -0.34375q-0.171875 -0.125 -0.421875 -0.125l-10.4375 0q-0.328125 0 -0.484375 -0.109375q-0.140625 -0.109375 -0.140625 -0.390625l0 -0.453125q0 -0.265625 0.125 -0.421875q0.15625 -0.140625 0.515625 -0.140625l9.421875 0q0.59375 0 0.96875 -0.390625q0.390625 -0.359375 0.390625 -0.890625l0 -0.890625q0 -0.578125 -0.515625 -0.9375q-0.484375 -0.3125 -1.1875 -0.3125zm12.875 -8.906248l-4.859375 0q-0.59375 0 -0.59375 0.46875q-0.015625 0.453125 0.5625 0.453125l4.53125 0q0.546875 0 0.8125 0.171875q0.234375 0.1875 0.234375 0.578125l0 3.359375q0 0.375 -0.234375 0.53125q-0.21875 0.15625 -0.703125 0.15625l-3.5 0q-0.734375 0 -1.203125 0.515625q-0.40625 0.484375 -0.40625 1.1718731l0 4.078125q0 0.875 0.453125 1.390625q0.46875 0.578125 1.359375 0.578125q2.0625 0 3.984375 -0.3125q1.9375 -0.3125 3.40625 -0.890625q0.21875 -0.109375 0.28125 -0.3125q0.046875 -0.1875 -0.015625 -0.375q-0.09375 -0.1875 -0.28125 -0.265625q-0.203125 -0.09375 -0.453125 0.015625q-1.25 0.53125 -2.875 0.84375q-1.84375 0.375 -3.765625 0.375q-0.546875 0 -0.78125 -0.265625q-0.21875 -0.234375 -0.21875 -0.71875l0 -4.0q0 -0.484375 0.171875 -0.6875q0.1875 -0.2187481 0.640625 -0.2187481l3.390625 0q0.9375 0 1.40625 -0.40625q0.421875 -0.375 0.421875 -1.0625l0 -3.765625q0 -0.6875 -0.484375 -1.046875q-0.453125 -0.359375 -1.28125 -0.359375zm7.53125 14.343748l0 -14.312498q0 -0.265625 -0.171875 -0.421875q-0.15625 -0.125 -0.375 -0.125q-0.25 0 -0.390625 0.125q-0.171875 0.15625 -0.171875 0.421875l0 6.078125l-3.171875 0q-0.265625 0 -0.390625 0.125q-0.125 0.15625 -0.125 0.328125q0.015625 0.1875 0.171875 0.3437481q0.15625 0.140625 0.4375 0.140625l3.078125 0l0 7.296875q0 0.3125 0.171875 0.5q0.140625 0.171875 0.390625 0.171875q0.21875 0 0.375 -0.171875q0.171875 -0.203125 0.171875 -0.5zm12.5 -14.078123q0 2.875 -1.984375 4.90625q-1.71875 1.7656231 -4.015625 2.234373q-0.296875 0.046875 -0.421875 0.234375q-0.140625 0.15625 -0.109375 0.359375q0.03125 0.1875 0.203125 0.296875q0.1875 0.109375 0.453125 0.078125q2.25 -0.453125 4.09375 -2.140623q1.75 -1.578125 2.3125 -3.453125q0.59375 1.859375 2.3125 3.453125q1.828125 1.6718731 3.984375 2.109373q0.3125 0.0625 0.53125 -0.046875q0.1875 -0.109375 0.21875 -0.3125q0.0625 -0.203125 -0.0625 -0.375q-0.15625 -0.1875 -0.4375 -0.25q-2.421875 -0.5 -4.09375 -2.218748q-1.921875 -1.984375 -1.921875 -4.84375q0 -0.296875 -0.171875 -0.484375q-0.15625 -0.140625 -0.359375 -0.140625q-0.21875 0 -0.375 0.140625q-0.15625 0.171875 -0.15625 0.453125zm7.734375 12.499998l-14.40625 0q-0.546875 0 -0.546875 0.46875q0 0.484375 0.546875 0.484375l14.421875 0q0.234375 0 0.390625 -0.15625q0.140625 -0.140625 0.140625 -0.328125q0 -0.1875 -0.140625 -0.34375q-0.15625 -0.125 -0.40625 -0.125zm12.296875 -12.734373l-5.53125 0q-0.9375 0 -1.4375 0.5625q-0.453125 0.484375 -0.453125 1.25l0 9.859373q0 0.875 0.390625 1.34375q0.453125 0.53125 1.375 0.53125q2.34375 0 4.25 -0.25q1.96875 -0.265625 3.21875 -0.75q0.546875 -0.234375 0.359375 -0.6875q-0.171875 -0.4375 -0.703125 -0.234375q-1.34375 0.5 -3.078125 0.734375q-1.734375 0.25 -4.03125 0.25q-0.375 0 -0.53125 -0.265625q-0.15625 -0.203125 -0.15625 -0.625l0 -5.031248l5.71875 0q0.53125 0 0.53125 -0.484375q0 -0.46875 -0.53125 -0.46875l-5.71875 0l0 -3.921875q0 -0.421875 0.171875 -0.640625q0.203125 -0.21875 0.609375 -0.21875l5.578125 0q0.28125 0 0.453125 -0.15625q0.140625 -0.140625 0.140625 -0.328125q-0.015625 -0.1875 -0.15625 -0.328125q-0.1875 -0.140625 -0.46875 -0.140625zm5.46875 14.312498l0 -14.312498q0 -0.265625 -0.171875 -0.421875q-0.15625 -0.125 -0.375 -0.125q-0.25 0 -0.390625 0.125q-0.171875 0.15625 -0.171875 0.421875l0 6.078125l-3.171875 0q-0.265625 0 -0.390625 0.125q-0.125 0.15625 -0.125 0.328125q0.015625 0.1875 0.171875 0.3437481q0.15625 0.140625 0.4375 0.140625l3.078125 0l0 7.296875q0 0.3125 0.171875 0.5q0.140625 0.171875 0.390625 0.171875q0.21875 0 0.375 -0.171875q0.171875 -0.203125 0.171875 -0.5z" fill-rule="nonzero"/><path fill="#000000" d="m558.45905 39.250706l-1.640625 0l0 -10.453123q-0.59375 0.5625 -1.5625 1.140625q-0.953125 0.5625 -1.71875 0.84375l0 -1.59375q1.375 -0.640625 2.40625 -1.5625q1.03125 -0.921875 1.453125 -1.78125l1.0625 0l0 13.406248z" fill-rule="nonzero"/><g filter="url(#shadowFilter-g11da9520085_0_64.10)"><use xlink:href="#g11da9520085_0_64.10" transform="matrix(1.0 0.0 0.0 1.0 0.0 2.0)"/></g><defs><filter id="shadowFilter-g11da9520085_0_64.10" filterUnits="userSpaceOnUse"><feGaussianBlur in="SourceAlpha" stdDeviation="2.0" result="blur"/><feComponentTransfer in="blur" color-interpolation-filters="sRGB"><feFuncR type="linear" slope="0" intercept="0.0"/><feFuncG type="linear" slope="0" intercept="0.0"/><feFuncB type="linear" slope="0" intercept="0.0"/><feFuncA type="linear" slope="0.5" intercept="0"/></feComponentTransfer></filter></defs><g id="g11da9520085_0_64.10"><path fill="#eeeeee" d="m384.65878 61.049496l200.6614 0l0 61.952755l-200.6614 0z" fill-rule="evenodd"/><path stroke="#595959" stroke-width="1.0" stroke-linejoin="round" stroke-linecap="butt" d="m384.65878 61.049496l200.6614 0l0 61.952755l-200.6614 0z" fill-rule="evenodd"/><path fill="#000000" d="m454.20093 84.086494l0 0.96875l5.640625 0q0 1.390625 -2.0 2.75q-1.96875 1.421875 -4.25 1.625l1.046875 1.0q1.828125 -0.359375 3.5 -1.40625q1.625 -1.078125 2.390625 -2.375q0.640625 1.234375 2.265625 2.375q1.640625 1.09375 3.40625 1.484375l0.953125 -1.0625q-1.265625 -0.09375 -2.4375 -0.59375q-1.015625 -0.46875 -1.890625 -1.203125q-0.734375 -0.65625 -1.21875 -1.390625q-0.390625 -0.703125 -0.390625 -1.203125l5.359375 0l0 -0.96875l-12.375 0zm-1.859375 7.953125l0 1.03125l7.40625 0l0 6.96875l1.3125 0l0 -6.96875l7.484375 0l0 -1.03125l-16.203125 0zm19.984375 -6.53125l0 1.03125l6.953125 0q-0.09375 0.8125 -0.234375 1.5q-0.15625 0.703125 -0.40625 1.5q-1.578125 0.21875 -3.78125 0.375q-1.921875 0.125 -3.234375 0.125l0.4375 1.078125q0.140625 0.25 0.234375 0.28125q0.0625 0.015625 0.25 -0.09375q0.15625 -0.09375 0.265625 -0.140625q0.1875 -0.09375 0.390625 -0.109375l5.0 -0.484375q-0.828125 1.84375 -2.71875 3.453125q-1.90625 1.65625 -4.171875 2.390625l1.015625 1.03125q3.53125 -1.578125 5.5625 -4.265625q2.328125 -3.078125 2.75 -7.671875l-8.3125 0zm12.578125 -1.6875l-0.875 0l0 16.625l1.25 0l0 -15.9375q0 -0.109375 0.03125 -0.21875q0.046875 -0.0625 0.09375 -0.171875q0.109375 -0.1875 0.0625 -0.21875q-0.078125 -0.078125 -0.5625 -0.078125zm5.84375 1.6875l0 1.046875l9.375 0l0 -1.046875l-9.375 0zm2.328125 2.375l-0.890625 0l0.59375 7.59375q-0.671875 0.015625 -1.65625 0.015625q-0.875 0 -1.421875 0l0.296875 1.015625q0.078125 0.265625 0.15625 0.296875q0.0625 0.03125 0.203125 -0.046875q0.140625 -0.078125 0.25 -0.109375q0.1875 -0.078125 0.421875 -0.078125l0.875 -0.0625q2.84375 -0.125 4.40625 -0.21875q2.796875 -0.1875 4.3125 -0.390625l-0.09375 -1.015625l-2.75 0.328125l0.609375 -6.515625q0.03125 -0.109375 0.078125 -0.203125q0.046875 -0.046875 0.109375 -0.140625q0.15625 -0.1875 0.109375 -0.25q-0.0625 -0.078125 -0.515625 -0.15625l-0.9375 -0.109375l-0.640625 7.453125q-0.53125 0.03125 -1.328125 0.09375q-0.703125 0.03125 -1.28125 0.0625l-0.46875 -6.90625q-0.015625 -0.09375 0 -0.203125q0.015625 -0.0625 0.078125 -0.15625q0.078125 -0.140625 0.015625 -0.203125q-0.09375 -0.078125 -0.53125 -0.09375zm5.75 1.875l0 1.046875l4.203125 0l0 9.640625l1.25 0l0 -15.96875q0 -0.078125 0.015625 -0.171875q0.015625 -0.0625 0.078125 -0.140625q0.09375 -0.1875 0.046875 -0.25q-0.03125 -0.09375 -0.359375 -0.09375l-1.03125 0l0 5.9375l-4.203125 0zm14.203125 8.8125l1.25 0l0 -13.28125l-1.09375 0q-0.09375 1.375 -0.90625 2.0q-0.828125 0.640625 -2.453125 0.640625l-0.09375 0l0 0.8125l0.203125 0q1.109375 0 1.875 -0.1875q0.765625 -0.1875 1.21875 -0.5625l0 10.578125z" fill-rule="nonzero"/></g><g filter="url(#shadowFilter-g11da9520085_0_64.11)"><use xlink:href="#g11da9520085_0_64.11" transform="matrix(1.0 0.0 0.0 1.0 0.0 2.0)"/></g><defs><filter id="shadowFilter-g11da9520085_0_64.11" filterUnits="userSpaceOnUse"><feGaussianBlur in="SourceAlpha" stdDeviation="2.0" result="blur"/><feComponentTransfer in="blur" color-interpolation-filters="sRGB"><feFuncR type="linear" slope="0" intercept="0.0"/><feFuncG type="linear" slope="0" intercept="0.0"/><feFuncB type="linear" slope="0" intercept="0.0"/><feFuncA type="linear" slope="0.5" intercept="0"/></feComponentTransfer></filter></defs><g id="g11da9520085_0_64.11"><path fill="#eeeeee" d="m139.51181 61.049496l200.6614 0l0 61.952755l-200.6614 0z" fill-rule="evenodd"/><path stroke="#595959" stroke-width="1.0" stroke-linejoin="round" stroke-linecap="butt" d="m139.51181 61.049496l200.6614 0l0 61.952755l-200.6614 0z" fill-rule="evenodd"/><path fill="#000000" d="m209.05396 84.086494l0 0.96875l5.640625 0q0 1.390625 -2.0 2.75q-1.96875 1.421875 -4.25 1.625l1.046875 1.0q1.828125 -0.359375 3.5 -1.40625q1.625 -1.078125 2.390625 -2.375q0.640625 1.234375 2.265625 2.375q1.640625 1.09375 3.40625 1.484375l0.953125 -1.0625q-1.265625 -0.09375 -2.4375 -0.59375q-1.015625 -0.46875 -1.890625 -1.203125q-0.734375 -0.65625 -1.21875 -1.390625q-0.390625 -0.703125 -0.390625 -1.203125l5.359375 0l0 -0.96875l-12.375 0zm-1.859375 7.953125l0 1.03125l7.40625 0l0 6.96875l1.3125 0l0 -6.96875l7.484375 0l0 -1.03125l-16.203125 0zm19.984375 -6.53125l0 1.03125l6.953125 0q-0.09375 0.8125 -0.234375 1.5q-0.15625 0.703125 -0.40625 1.5q-1.578125 0.21875 -3.78125 0.375q-1.921875 0.125 -3.234375 0.125l0.4375 1.078125q0.140625 0.25 0.234375 0.28125q0.0625 0.015625 0.25 -0.09375q0.15625 -0.09375 0.265625 -0.140625q0.1875 -0.09375 0.390625 -0.109375l5.0 -0.484375q-0.828125 1.84375 -2.71875 3.453125q-1.90625 1.65625 -4.171875 2.390625l1.015625 1.03125q3.53125 -1.578125 5.5625 -4.265625q2.328125 -3.078125 2.75 -7.671875l-8.3125 0zm12.578125 -1.6875l-0.875 0l0 16.625l1.25 0l0 -15.9375q0 -0.109375 0.03125 -0.21875q0.046875 -0.0625 0.09375 -0.171875q0.109375 -0.1875 0.0625 -0.21875q-0.078125 -0.078125 -0.5625 -0.078125zm5.84375 1.6875l0 1.046875l9.375 0l0 -1.046875l-9.375 0zm2.328125 2.375l-0.890625 0l0.59375 7.59375q-0.671875 0.015625 -1.65625 0.015625q-0.875 0 -1.421875 0l0.296875 1.015625q0.078125 0.265625 0.15625 0.296875q0.0625 0.03125 0.203125 -0.046875q0.140625 -0.078125 0.25 -0.109375q0.1875 -0.078125 0.421875 -0.078125l0.875 -0.0625q2.84375 -0.125 4.40625 -0.21875q2.796875 -0.1875 4.3125 -0.390625l-0.09375 -1.015625l-2.75 0.328125l0.609375 -6.515625q0.03125 -0.109375 0.078125 -0.203125q0.046875 -0.046875 0.109375 -0.140625q0.15625 -0.1875 0.109375 -0.25q-0.0625 -0.078125 -0.515625 -0.15625l-0.9375 -0.109375l-0.640625 7.453125q-0.53125 0.03125 -1.328125 0.09375q-0.703125 0.03125 -1.28125 0.0625l-0.46875 -6.90625q-0.015625 -0.09375 0 -0.203125q0.015625 -0.0625 0.078125 -0.15625q0.078125 -0.140625 0.015625 -0.203125q-0.09375 -0.078125 -0.53125 -0.09375zm5.75 1.875l0 1.046875l4.203125 0l0 9.640625l1.25 0l0 -15.96875q0 -0.078125 0.015625 -0.171875q0.015625 -0.0625 0.078125 -0.140625q0.09375 -0.1875 0.046875 -0.25q-0.03125 -0.09375 -0.359375 -0.09375l-1.03125 0l0 5.9375l-4.203125 0zm10.3125 2.359375q0 3.34375 1.109375 5.109375q1.140625 1.734375 3.25 1.734375q2.09375 0 3.21875 -1.734375q1.140625 -1.765625 1.140625 -5.09375q0 -3.34375 -1.140625 -5.09375q-1.125 -1.75 -3.21875 -1.75q-2.109375 0 -3.25 1.71875q-1.109375 1.765625 -1.109375 5.109375zm1.296875 0q0 -2.90625 0.75 -4.3125q0.734375 -1.390625 2.3125 -1.390625q1.546875 0 2.296875 1.390625q0.765625 1.40625 0.765625 4.3125q0 2.890625 -0.765625 4.296875q-0.75 1.421875 -2.296875 1.421875q-1.578125 0 -2.3125 -1.421875q-0.75 -1.40625 -0.75 -4.296875z" fill-rule="nonzero"/></g><g filter="url(#shadowFilter-g11da9520085_0_64.12)"><use xlink:href="#g11da9520085_0_64.12" transform="matrix(1.0 0.0 0.0 1.0 0.0 2.0)"/></g><defs><filter id="shadowFilter-g11da9520085_0_64.12" filterUnits="userSpaceOnUse"><feGaussianBlur in="SourceAlpha" stdDeviation="2.0" result="blur"/><feComponentTransfer in="blur" color-interpolation-filters="sRGB"><feFuncR type="linear" slope="0" intercept="0.0"/><feFuncG type="linear" slope="0" intercept="0.0"/><feFuncB type="linear" slope="0" intercept="0.0"/><feFuncA type="linear" slope="0.5" intercept="0"/></feComponentTransfer></filter></defs><g id="g11da9520085_0_64.12"><path fill="#eeeeee" d="m629.8058 61.049496l200.66138 0l0 61.952755l-200.66138 0z" fill-rule="evenodd"/><path stroke="#595959" stroke-width="1.0" stroke-linejoin="round" stroke-linecap="butt" d="m629.8058 61.049496l200.66138 0l0 61.952755l-200.66138 0z" fill-rule="evenodd"/><path fill="#000000" d="m699.3479 84.086494l0 0.96875l5.640625 0q0 1.390625 -2.0 2.75q-1.96875 1.421875 -4.25 1.625l1.046875 1.0q1.828125 -0.359375 3.5 -1.40625q1.625 -1.078125 2.390625 -2.375q0.640625 1.234375 2.265625 2.375q1.640625 1.09375 3.40625 1.484375l0.953125 -1.0625q-1.265625 -0.09375 -2.4375 -0.59375q-1.015625 -0.46875 -1.890625 -1.203125q-0.734375 -0.65625 -1.21875 -1.390625q-0.390625 -0.703125 -0.390625 -1.203125l5.359375 0l0 -0.96875l-12.375 0zm-1.859375 7.953125l0 1.03125l7.40625 0l0 6.96875l1.3125 0l0 -6.96875l7.484375 0l0 -1.03125l-16.203125 0zm19.984375 -6.53125l0 1.03125l6.953125 0q-0.09375 0.8125 -0.234375 1.5q-0.15625 0.703125 -0.40625 1.5q-1.578125 0.21875 -3.78125 0.375q-1.921875 0.125 -3.234375 0.125l0.4375 1.078125q0.140625 0.25 0.234375 0.28125q0.0625 0.015625 0.25 -0.09375q0.15625 -0.09375 0.265625 -0.140625q0.1875 -0.09375 0.390625 -0.109375l5.0 -0.484375q-0.828125 1.84375 -2.71875 3.453125q-1.90625 1.65625 -4.171875 2.390625l1.015625 1.03125q3.53125 -1.578125 5.5625 -4.265625q2.328125 -3.078125 2.75 -7.671875l-8.3125 0zm12.578125 -1.6875l-0.875 0l0 16.625l1.25 0l0 -15.9375q0 -0.109375 0.03125 -0.21875q0.046875 -0.0625 0.09375 -0.171875q0.109375 -0.1875 0.0625 -0.21875q-0.078125 -0.078125 -0.5625 -0.078125zm5.84375 1.6875l0 1.046875l9.375 0l0 -1.046875l-9.375 0zm2.328125 2.375l-0.890625 0l0.59375 7.59375q-0.671875 0.015625 -1.65625 0.015625q-0.875 0 -1.421875 0l0.296875 1.015625q0.078125 0.265625 0.15625 0.296875q0.0625 0.03125 0.203125 -0.046875q0.140625 -0.078125 0.25 -0.109375q0.1875 -0.078125 0.421875 -0.078125l0.875 -0.0625q2.84375 -0.125 4.40625 -0.21875q2.796875 -0.1875 4.3125 -0.390625l-0.09375 -1.015625l-2.75 0.328125l0.609375 -6.515625q0.03125 -0.109375 0.078125 -0.203125q0.046875 -0.046875 0.109375 -0.140625q0.15625 -0.1875 0.109375 -0.25q-0.0625 -0.078125 -0.515625 -0.15625l-0.9375 -0.109375l-0.640625 7.453125q-0.53125 0.03125 -1.328125 0.09375q-0.703125 0.03125 -1.28125 0.0625l-0.46875 -6.90625q-0.015625 -0.09375 0 -0.203125q0.015625 -0.0625 0.078125 -0.15625q0.078125 -0.140625 0.015625 -0.203125q-0.09375 -0.078125 -0.53125 -0.09375zm5.75 1.875l0 1.046875l4.203125 0l0 9.640625l1.25 0l0 -15.96875q0 -0.078125 0.015625 -0.171875q0.015625 -0.0625 0.078125 -0.140625q0.09375 -0.1875 0.046875 -0.25q-0.03125 -0.09375 -0.359375 -0.09375l-1.03125 0l0 5.9375l-4.203125 0zm10.25 8.8125l8.578125 0l0 -1.046875l-7.328125 0q0.078125 -0.984375 0.78125 -1.78125q0.671875 -0.765625 2.078125 -1.5625l0.921875 -0.546875q1.03125 -0.5625 1.4375 -0.84375q0.71875 -0.484375 1.125 -0.9375q0.546875 -0.59375 0.796875 -1.234375q0.265625 -0.65625 0.265625 -1.46875q0 -1.78125 -1.09375 -2.828125q-1.078125 -1.03125 -2.921875 -1.03125q-2.015625 0 -3.15625 1.15625q-1.109375 1.125 -1.15625 3.265625l1.25 0q0 -1.625 0.78125 -2.453125q0.765625 -0.84375 2.234375 -0.84375q1.3125 0 2.0625 0.71875q0.75 0.71875 0.75 2.03125q0 0.640625 -0.203125 1.109375q-0.1875 0.46875 -0.609375 0.96875q-0.3125 0.3125 -0.875 0.6875q-0.328125 0.21875 -1.140625 0.703125l-1.328125 0.796875q-1.6875 1.046875 -2.4375 2.125q-0.8125 1.140625 -0.8125 2.625l0 0.390625z" fill-rule="nonzero"/></g><path fill="#000000" fill-opacity="0.0" d="m170.8819 228.69817l310.2362 -67.968506" fill-rule="evenodd"/><path stroke="#595959" stroke-width="3.0" stroke-linejoin="round" stroke-linecap="butt" d="m170.8819 228.69817l292.65326 -64.11632" fill-rule="evenodd"/><path fill="#595959" stroke="#595959" stroke-width="3.0" stroke-linecap="butt" d="m464.5956 169.42224l12.238403 -7.753998l-14.3593445 -1.9267883z" fill-rule="evenodd"/><path fill="#000000" fill-opacity="0.0" d="m480.021 228.69817l1.0708618 -67.968506" fill-rule="evenodd"/><path stroke="#595959" stroke-width="3.0" stroke-linejoin="round" stroke-linecap="butt" d="m480.021 228.69817l0.787323 -49.97075" fill-rule="evenodd"/><path fill="#595959" stroke="#595959" stroke-width="3.0" stroke-linecap="butt" d="m485.76288 178.80548l-4.7401123 -13.690659l-5.169037 13.534546z" fill-rule="evenodd"/></g></svg>