<svg version="1.1" viewBox="0.0 0.0 960.0 720.0" fill="none" stroke="none" stroke-linecap="square" stroke-miterlimit="10" xmlns:xlink="http://www.w3.org/1999/xlink" xmlns="http://www.w3.org/2000/svg"><clipPath id="p.0"><path d="m0 0l960.0 0l0 720.0l-960.0 0l0 -720.0z" clip-rule="nonzero"/></clipPath><g clip-path="url(#p.0)"><path fill="#000000" fill-opacity="0.0" d="m0 0l960.0 0l0 720.0l-960.0 0z" fill-rule="evenodd"/><g filter="url(#shadowFilter-p.1)"><use xlink:href="#p.1" transform="matrix(1.0 0.0 0.0 1.0 0.0 2.0)"/></g><defs><filter id="shadowFilter-p.1" filterUnits="userSpaceOnUse"><feGaussianBlur in="SourceAlpha" stdDeviation="2.0" result="blur"/><feComponentTransfer in="blur" color-interpolation-filters="sRGB"><feFuncR type="linear" slope="0" intercept="0.0"/><feFuncG type="linear" slope="0" intercept="0.0"/><feFuncB type="linear" slope="0" intercept="0.0"/><feFuncA type="linear" slope="0.5" intercept="0"/></feComponentTransfer></filter></defs><g id="p.1"><path fill="#d9d9d9" d="m18.204725 42.396324l404.53543 0l0 232.44095l-404.53543 0z" fill-rule="evenodd"/><path stroke="#595959" stroke-width="1.0" stroke-linejoin="round" stroke-linecap="butt" d="m18.204725 42.396324l404.53543 0l0 232.44095l-404.53543 0z" fill-rule="evenodd"/></g><g filter="url(#shadowFilter-p.2)"><use xlink:href="#p.2" transform="matrix(1.0 0.0 0.0 1.0 0.0 2.0)"/></g><defs><filter id="shadowFilter-p.2" filterUnits="userSpaceOnUse"><feGaussianBlur in="SourceAlpha" stdDeviation="2.0" result="blur"/><feComponentTransfer in="blur" color-interpolation-filters="sRGB"><feFuncR type="linear" slope="0" intercept="0.0"/><feFuncG type="linear" slope="0" intercept="0.0"/><feFuncB type="linear" slope="0" intercept="0.0"/><feFuncA type="linear" slope="0.5" intercept="0"/></feComponentTransfer></filter></defs><g id="p.2"><path fill="#999999" d="m35.43307 60.48819l161.25984 0l0 114.92914l-161.25984 0z" fill-rule="evenodd"/><path stroke="#595959" stroke-width="1.0" stroke-linejoin="round" stroke-linecap="butt" d="m35.43307 60.48819l161.25984 0l0 114.92914l-161.25984 0z" fill-rule="evenodd"/></g><path fill="#000000" fill-opacity="0.0" d="m76.96321 232.83202l265.7953 0l0 42.015762l-265.7953 0z" fill-rule="evenodd"/><path fill="#000000" d="m119.72616 245.73639l-5.5 0q-0.28125 0 -0.4375 0.140625q-0.125 0.140625 -0.125 0.328125q0 0.1875 0.125 0.328125q0.171875 0.15625 0.453125 0.15625l5.375 0q0.515625 0 0.75 0.21875q0.21875 0.21875 0.21875 0.65625l0 1.046875q0 2.15625 -1.703125 3.734375q-1.84375 1.703125 -5.03125 2.03125q-0.265625 0.015625 -0.390625 0.171875q-0.109375 0.15625 -0.09375 0.359375q0.015625 0.203125 0.171875 0.328125q0.15625 0.15625 0.4375 0.140625q3.421875 -0.3125 5.5625 -2.25q2.109375 -1.890625 2.109375 -4.46875l0 -1.296875q0 -0.765625 -0.46875 -1.171875q-0.484375 -0.453125 -1.453125 -0.453125zm-0.09375 3.359375q-1.34375 0.234375 -2.859375 0.375q-1.734375 0.1875 -3.078125 0.1875q-0.515625 0 -0.515625 0.46875q0 0.484375 0.515625 0.484375q1.390625 0 3.21875 -0.1875q1.59375 -0.171875 2.96875 -0.40625q0.234375 -0.0625 0.34375 -0.25q0.109375 -0.140625 0.078125 -0.328125q-0.0625 -0.1875 -0.21875 -0.28125q-0.1875 -0.109375 -0.453125 -0.0625zm7.234375 6.8125l0 -10.171875q0 -0.265625 -0.171875 -0.421875q-0.15625 -0.125 -0.375 -0.125q-0.25 0 -0.390625 0.125q-0.171875 0.15625 -0.171875 0.421875l0 4.234375l-3.4375 0q-0.25 0 -0.40625 0.125q-0.140625 0.15625 -0.125 0.34375q0 0.1875 0.171875 0.328125q0.15625 0.15625 0.453125 0.15625l3.34375 0l0 4.984375q0 0.28125 0.171875 0.453125q0.140625 0.140625 0.390625 0.140625q0.21875 0 0.375 -0.140625q0.171875 -0.171875 0.171875 -0.453125zm-10.8125 0.21875q0 -0.296875 -0.1875 -0.453125q-0.140625 -0.15625 -0.375 -0.15625q-0.234375 0 -0.375 0.15625q-0.171875 0.15625 -0.171875 0.453125l0 2.46875q0 0.828125 0.515625 1.25q0.484375 0.40625 1.3125 0.40625l10.1875 0q0.46875 0 0.46875 -0.484375q0 -0.46875 -0.46875 -0.46875l-10.0 0q-0.53125 0 -0.71875 -0.15625q-0.1875 -0.1875 -0.1875 -0.6875l0 -2.328125zm23.312508 -10.390625q0 2.359375 -1.9375 3.921875q-1.71875 1.390625 -4.0625 1.578125q-0.296875 0.015625 -0.421875 0.1875q-0.140625 0.15625 -0.109375 0.375q0.03125 0.203125 0.203125 0.328125q0.1875 0.140625 0.453125 0.109375q2.3125 -0.3125 4.125 -1.546875q1.71875 -1.15625 2.28125 -2.640625q0.578125 1.453125 2.296875 2.640625q1.796875 1.234375 4.0 1.546875q0.3125 0.03125 0.53125 -0.109375q0.1875 -0.125 0.21875 -0.328125q0.0625 -0.234375 -0.0625 -0.390625q-0.15625 -0.1875 -0.4375 -0.203125q-2.375 -0.25 -4.0625 -1.578125q-1.953125 -1.546875 -1.953125 -3.859375q0 -0.296875 -0.171875 -0.46875q-0.15625 -0.15625 -0.359375 -0.15625q-0.21875 0 -0.375 0.15625q-0.15625 0.171875 -0.15625 0.4375zm7.78125 8.65625l-14.453125 0q-0.53125 0 -0.546875 0.453125q-0.046875 0.484375 0.453125 0.484375l3.5 0l0 1.453125q0 0.8125 -0.296875 1.546875q-0.28125 0.65625 -0.828125 1.203125q-0.1875 0.15625 -0.140625 0.40625q0.015625 0.203125 0.203125 0.375q0.171875 0.140625 0.390625 0.15625q0.21875 0.03125 0.40625 -0.140625q0.609375 -0.640625 0.984375 -1.5625q0.390625 -0.96875 0.390625 -1.96875l0 -1.46875l5.921875 0l0 4.8125q0 0.265625 0.15625 0.421875q0.15625 0.140625 0.375 0.140625q0.21875 0 0.375 -0.15625q0.1875 -0.171875 0.1875 -0.421875l0 -4.796875l2.96875 0q0.453125 0 0.453125 -0.484375q-0.015625 -0.453125 -0.5 -0.453125zm11.546875 -6.9375l0 9.984375q0 0.421875 -0.203125 0.59375q-0.1875 0.140625 -0.65625 0.140625l-3.953125 0q-0.453125 0 -0.625 -0.171875q-0.1875 -0.15625 -0.1875 -0.59375l0 -9.84375q0 -0.4375 0.171875 -0.65625q0.1875 -0.21875 0.609375 -0.21875l3.953125 0q0.484375 0 0.6875 0.1875q0.203125 0.1875 0.203125 0.578125zm-0.8125 -1.71875l-4.171875 0q-0.828125 0 -1.28125 0.5q-0.453125 0.484375 -0.453125 1.25l0 10.015625q0 0.796875 0.40625 1.1875q0.4375 0.4375 1.375 0.4375l4.25 0q0.875 0 1.3125 -0.421875q0.453125 -0.40625 0.453125 -1.21875l0 -10.125q0 -0.765625 -0.546875 -1.203125q-0.5 -0.421875 -1.34375 -0.421875zm6.984375 14.3125l0 -14.3125q0 -0.265625 -0.171875 -0.421875q-0.15625 -0.125 -0.375 -0.125q-0.25 0 -0.390625 0.125q-0.171875 0.15625 -0.171875 0.421875l0 6.078125l-3.171875 0q-0.265625 0 -0.390625 0.125q-0.125 0.15625 -0.125 0.328125q0.015625 0.1875 0.171875 0.34375q0.15625 0.140625 0.4375 0.140625l3.078125 0l0 7.296875q0 0.3125 0.171875 0.5q0.140625 0.171875 0.390625 0.171875q0.21875 0 0.375 -0.171875q0.171875 -0.203125 0.171875 -0.5z" fill-rule="nonzero"/><path fill="#000000" d="m180.53447 259.752l-1.640625 0l0 -10.453125q-0.59375 0.5625 -1.5625 1.140625q-0.953125 0.5625 -1.71875 0.84375l0 -1.59375q1.375 -0.640625 2.40625 -1.5625q1.03125 -0.921875 1.453125 -1.78125l1.0625 0l0 13.40625z" fill-rule="nonzero"/><path fill="#000000" d="m190.72269 245.73639l-4.0 0q-0.515625 0 -0.5 0.46875q0 0.484375 0.515625 0.484375l3.875 0q0.5 0 0.765625 0.21875q0.28125 0.21875 0.28125 0.671875l0 2.203125q0 3.921875 -1.34375 5.953125q-1.296875 2.0 -3.921875 2.296875q-0.28125 0.015625 -0.421875 0.15625q-0.125 0.15625 -0.109375 0.359375q0.03125 0.1875 0.171875 0.3125q0.171875 0.125 0.421875 0.109375q2.921875 -0.265625 4.546875 -2.5625q1.75 -2.40625 1.75 -6.71875l0 -2.296875q0 -0.765625 -0.578125 -1.203125q-0.5625 -0.453125 -1.453125 -0.453125zm8.140625 -0.09375l0 6.90625l-2.640625 0l0 -6.90625q0 -0.46875 -0.5625 -0.46875q-0.53125 0 -0.53125 0.46875l0 14.5q0 0.265625 0.171875 0.421875q0.140625 0.140625 0.359375 0.140625q0.234375 0 0.375 -0.140625q0.1875 -0.15625 0.1875 -0.421875l0 -6.6875l2.640625 0l0 6.71875q0 0.25 0.15625 0.390625q0.15625 0.140625 0.375 0.140625q0.203125 0 0.359375 -0.15625q0.171875 -0.140625 0.171875 -0.390625l0 -14.515625q0 -0.46875 -0.53125 -0.46875q-0.53125 0 -0.53125 0.46875z" fill-rule="nonzero"/><path fill="#000000" d="m217.51537 248.89264l0 2.625q0 0.390625 -0.234375 0.546875q-0.203125 0.171875 -0.65625 0.171875l-4.046875 0q-0.40625 0 -0.578125 -0.171875q-0.1875 -0.15625 -0.1875 -0.546875l0 -2.625l5.703125 0zm0 -2.859375l0 1.90625l-5.703125 0l0 -1.84375q0 -0.28125 -0.1875 -0.453125q-0.140625 -0.125 -0.359375 -0.125q-0.234375 0 -0.375 0.15625q-0.171875 0.15625 -0.171875 0.4375l0 5.5625q0 0.71875 0.453125 1.09375q0.421875 0.390625 1.140625 0.390625l4.625 0q0.703125 0 1.15625 -0.390625q0.46875 -0.40625 0.46875 -1.109375l0 -5.625q0 -0.25 -0.15625 -0.390625q-0.15625 -0.125 -0.375 -0.125q-0.21875 0 -0.375 0.125q-0.140625 0.140625 -0.140625 0.390625zm6.09375 8.15625l0 -8.515625q0 -0.25 -0.171875 -0.375q-0.15625 -0.125 -0.375 -0.125q-0.25 0 -0.390625 0.125q-0.171875 0.140625 -0.171875 0.390625l0 1.953125l-3.171875 0q-0.28125 0 -0.421875 0.140625q-0.140625 0.125 -0.140625 0.328125q0.03125 0.1875 0.171875 0.328125q0.1875 0.15625 0.484375 0.15625l3.078125 0l0 2.25l-3.140625 0q-0.265625 0 -0.4375 0.140625q-0.125 0.140625 -0.125 0.34375q0 0.1875 0.140625 0.3125q0.171875 0.171875 0.453125 0.171875l3.109375 0l0 2.375q0 0.28125 0.171875 0.4375q0.140625 0.15625 0.390625 0.15625q0.21875 0 0.375 -0.15625q0.171875 -0.15625 0.171875 -0.4375zm-5.96875 0.890625q-3.046875 0 -4.65625 0.828125q-1.453125 0.75 -1.453125 2.03125q0 1.21875 1.453125 1.96875q1.609375 0.828125 4.65625 0.828125q3.046875 0 4.640625 -0.828125q1.46875 -0.75 1.46875 -1.96875q0 -1.28125 -1.46875 -2.03125q-1.59375 -0.828125 -4.640625 -0.828125zm0 0.953125q2.53125 0 3.828125 0.53125q1.203125 0.5 1.203125 1.375q0 0.828125 -1.203125 1.3125q-1.296875 0.53125 -3.828125 0.53125q-2.546875 0 -3.84375 -0.53125q-1.1875 -0.484375 -1.1875 -1.3125q0 -0.875 1.1875 -1.375q1.296875 -0.53125 3.84375 -0.53125zm17.390625 -10.46875l-4.8125 0q-0.59375 0 -0.59375 0.453125q-0.015625 0.484375 0.5625 0.484375l4.765625 0q0.390625 0 0.59375 0.171875q0.21875 0.1875 0.21875 0.578125l0 0.640625q0 0.390625 -0.1875 0.546875q-0.15625 0.140625 -0.59375 0.140625l-3.65625 0q-0.734375 0 -1.203125 0.46875q-0.40625 0.421875 -0.40625 1.03125l0 1.265625q0 0.78125 0.453125 1.265625q0.46875 0.53125 1.34375 0.53125q1.953125 0 3.40625 -0.15625q1.421875 -0.15625 3.125 -0.546875q0.484375 -0.125 0.359375 -0.578125q-0.15625 -0.421875 -0.65625 -0.296875q-1.375 0.3125 -2.671875 0.484375q-1.53125 0.1875 -3.40625 0.1875q-0.453125 0 -0.65625 -0.265625q-0.203125 -0.21875 -0.203125 -0.640625l0 -1.046875q0 -0.390625 0.171875 -0.5625q0.203125 -0.1875 0.640625 -0.1875l3.640625 0q0.78125 0 1.1875 -0.40625q0.390625 -0.390625 0.390625 -1.0625l0 -0.984375q0 -0.6875 -0.5 -1.09375q-0.484375 -0.421875 -1.3125 -0.421875zm7.578125 7.171875l0 -7.0625q0 -0.25 -0.171875 -0.375q-0.15625 -0.125 -0.375 -0.125q-0.25 0 -0.390625 0.125q-0.171875 0.140625 -0.171875 0.390625l0 1.5625l-3.171875 0q-0.28125 0 -0.421875 0.140625q-0.140625 0.125 -0.140625 0.328125q0.03125 0.1875 0.171875 0.328125q0.1875 0.15625 0.484375 0.15625l3.078125 0l0 2.140625l-3.140625 0q-0.265625 0 -0.4375 0.125q-0.125 0.15625 -0.125 0.34375q0 0.171875 0.140625 0.328125q0.171875 0.140625 0.453125 0.140625l3.109375 0l0 1.453125q0 0.25 0.171875 0.390625q0.140625 0.125 0.390625 0.125q0.21875 0 0.375 -0.125q0.171875 -0.140625 0.171875 -0.390625zm-1.6875 1.515625l-9.84375 0q-0.578125 0 -0.5625 0.46875q0 0.484375 0.5625 0.484375l9.703125 0q0.390625 0 0.546875 0.125q0.171875 0.140625 0.171875 0.46875l0 0.5q0 0.265625 -0.203125 0.375q-0.171875 0.109375 -0.5 0.109375l-8.828125 0q-0.609375 0 -1.0 0.359375q-0.390625 0.34375 -0.390625 0.953125l0 1.078125q0 0.59375 0.40625 0.96875q0.390625 0.359375 1.015625 0.359375l10.59375 0q0.25 0 0.375 -0.15625q0.125 -0.140625 0.125 -0.328125q-0.015625 -0.1875 -0.140625 -0.34375q-0.171875 -0.125 -0.4375 -0.125l-10.203125 0q-0.328125 0 -0.484375 -0.109375q-0.15625 -0.109375 -0.15625 -0.390625l0 -0.71875q0 -0.296875 0.125 -0.453125q0.171875 -0.140625 0.546875 -0.140625l8.78125 0q0.671875 0 1.078125 -0.359375q0.40625 -0.359375 0.40625 -0.921875l0 -0.796875q0 -0.65625 -0.421875 -1.03125q-0.4375 -0.375 -1.265625 -0.375z" fill-rule="nonzero"/><path fill="#000000" d="m260.72992 245.62701l-4.484375 0q-0.54689026 0 -0.54689026 0.46875q0 0.484375 0.54689026 0.484375l4.5625 0q0.421875 0 0.40625 -0.484375q-0.015625 -0.46875 -0.484375 -0.46875zm1.84375 2.640625l-8.156265 0q-0.515625 0 -0.515625 0.46875q-0.015625 0.46875 0.5 0.46875l3.5312653 0l0 1.953125q0 2.53125 -1.25 4.5q-1.1250153 1.78125 -2.9687653 2.703125q-0.234375 0.109375 -0.296875 0.3125q-0.046875 0.203125 0.0625 0.390625q0.109375 0.1875 0.296875 0.265625q0.21875 0.0625 0.4375 -0.046875q1.546875 -0.75 2.7343903 -2.171875q1.109375 -1.34375 1.515625 -2.8125q0.40625 1.5 1.390625 2.75q1.09375 1.359375 2.78125 2.234375q0.28125 0.140625 0.53125 0.0625q0.21875 -0.078125 0.328125 -0.28125q0.109375 -0.203125 0.03125 -0.40625q-0.046875 -0.21875 -0.296875 -0.3125q-1.828125 -0.78125 -2.984375 -2.640625q-1.203125 -1.984375 -1.203125 -4.546875l0 -1.953125l3.53125 0q0.4375 0 0.4375 -0.46875q0 -0.46875 -0.4375 -0.46875zm4.21875 11.859375l0 -14.390625q0 -0.265625 -0.171875 -0.421875q-0.15625 -0.125 -0.375 -0.125q-0.25 0 -0.390625 0.125q-0.171875 0.15625 -0.171875 0.421875l0 6.28125l-4.109375 0q-0.265625 0 -0.390625 0.125q-0.140625 0.125 -0.125 0.328125q0 0.1875 0.171875 0.328125q0.171875 0.140625 0.46875 0.140625l3.984375 0l0 7.1875q0 0.25 0.171875 0.421875q0.140625 0.15625 0.390625 0.15625q0.21875 0 0.375 -0.15625q0.171875 -0.171875 0.171875 -0.421875zm11.921875 -14.40625l-5.3125 0q-0.59375 0 -0.59375 0.46875q-0.015625 0.46875 0.5625 0.46875l4.984375 0q0.5625 0 0.8125 0.15625q0.265625 0.1875 0.265625 0.5625l0 3.171875q0 0.40625 -0.1875 0.53125q-0.15625 0.15625 -0.625 0.15625l-3.984375 0q-0.828125 0 -1.28125 0.484375q-0.453125 0.453125 -0.453125 1.21875l0 4.375q0 0.84375 0.421875 1.328125q0.46875 0.515625 1.390625 0.515625q2.234375 0 4.28125 -0.328125q2.296875 -0.359375 3.828125 -1.046875q0.46875 -0.234375 0.265625 -0.703125q-0.1875 -0.46875 -0.671875 -0.203125q-1.34375 0.609375 -3.28125 0.96875q-2.0 0.359375 -4.140625 0.359375q-0.546875 0 -0.78125 -0.234375q-0.21875 -0.203125 -0.21875 -0.71875l0 -4.15625q0 -0.484375 0.171875 -0.6875q0.1875 -0.203125 0.640625 -0.203125l3.953125 0q0.875 0 1.296875 -0.390625q0.4375 -0.375 0.4375 -1.078125l0 -3.609375q0 -0.671875 -0.484375 -1.046875q-0.484375 -0.359375 -1.296875 -0.359375zm7.078125 14.40625l0 -14.4375q0 -0.25 -0.171875 -0.390625q-0.15625 -0.109375 -0.375 -0.109375q-0.25 0 -0.390625 0.109375q-0.171875 0.140625 -0.171875 0.390625l0 14.4375q0 0.25 0.171875 0.421875q0.140625 0.15625 0.390625 0.15625q0.21875 0 0.375 -0.15625q0.171875 -0.171875 0.171875 -0.421875zm11.921875 -14.546875l-5.3125 0q-0.59375 0 -0.59375 0.453125q-0.015625 0.484375 0.5625 0.484375l5.25 0q0.375 0 0.59375 0.171875q0.21875 0.1875 0.21875 0.5625l0 0.8125q0 0.40625 -0.1875 0.53125q-0.15625 0.15625 -0.625 0.15625l-4.046875 0q-0.8125 0 -1.265625 0.453125q-0.40625 0.453125 -0.40625 1.1875l0 1.359375q0 0.75 0.421875 1.1875q0.46875 0.5 1.390625 0.5q2.40625 0 4.203125 -0.1875q2.28125 -0.234375 3.90625 -0.796875q0.234375 -0.09375 0.296875 -0.28125q0.0625 -0.171875 -0.015625 -0.375q-0.078125 -0.1875 -0.25 -0.28125q-0.1875 -0.09375 -0.4375 0q-1.296875 0.515625 -3.3125 0.78125q-1.859375 0.234375 -4.25 0.234375q-0.453125 0 -0.65625 -0.21875q-0.203125 -0.21875 -0.203125 -0.65625l0 -1.203125q0 -0.390625 0.171875 -0.5625q0.171875 -0.171875 0.578125 -0.171875l4.015625 0q0.875 0 1.296875 -0.390625q0.4375 -0.375 0.4375 -1.078125l0 -1.265625q0 -0.671875 -0.484375 -1.046875q-0.484375 -0.359375 -1.296875 -0.359375zm6.546875 2.375l0 -2.3125q0 -0.46875 -0.5625 -0.46875q-0.53125 0 -0.53125 0.5l0 8.515625q0 0.25 0.171875 0.421875q0.140625 0.15625 0.359375 0.15625q0.234375 0 0.375 -0.140625q0.1875 -0.15625 0.1875 -0.421875l0 -1.703125l2.09375 0q0.421875 0 0.421875 -0.484375q-0.015625 -0.484375 -0.453125 -0.484375l-2.0625 0l0 -2.625l2.0625 0q0.203125 0 0.328125 -0.15625q0.109375 -0.140625 0.109375 -0.3125q-0.015625 -0.203125 -0.140625 -0.34375q-0.140625 -0.140625 -0.375 -0.140625l-1.984375 0zm-5.71875 7.125q-2.984375 0 -4.578125 0.828125q-1.453125 0.765625 -1.453125 2.03125q0 1.21875 1.453125 1.96875q1.59375 0.828125 4.578125 0.828125q2.96875 0 4.5625 -0.828125q1.453125 -0.75 1.453125 -1.96875q0 -1.265625 -1.453125 -2.03125q-1.59375 -0.828125 -4.5625 -0.828125zm0 0.953125q2.453125 0 3.734375 0.53125q1.1875 0.5 1.1875 1.375q0 0.828125 -1.1875 1.3125q-1.28125 0.53125 -3.734375 0.53125q-2.46875 0 -3.765625 -0.53125q-1.171875 -0.484375 -1.171875 -1.3125q0 -0.875 1.171875 -1.375q1.28125 -0.53125 3.765625 -0.53125z" fill-rule="nonzero"/><g filter="url(#shadowFilter-p.3)"><use xlink:href="#p.3" transform="matrix(1.0 0.0 0.0 1.0 0.0 2.0)"/></g><defs><filter id="shadowFilter-p.3" filterUnits="userSpaceOnUse"><feGaussianBlur in="SourceAlpha" stdDeviation="2.0" result="blur"/><feComponentTransfer in="blur" color-interpolation-filters="sRGB"><feFuncR type="linear" slope="0" intercept="0.0"/><feFuncG type="linear" slope="0" intercept="0.0"/><feFuncB type="linear" slope="0" intercept="0.0"/><feFuncA type="linear" slope="0.5" intercept="0"/></feComponentTransfer></filter></defs><g id="p.3"><path fill="#efefef" d="m43.63517 102.50394l134.70865 0l0 46.330704l-134.70865 0z" fill-rule="evenodd"/><path stroke="#595959" stroke-width="1.0" stroke-linejoin="round" stroke-linecap="butt" d="m43.63517 102.50394l134.70865 0l0 46.330704l-134.70865 0z" fill-rule="evenodd"/><path fill="#000000" d="m92.01343 117.026794l-0.828125 0l0 16.453125l1.296875 0l0 -7.15625l3.0625 0l0 -1.046875l-3.0625 0l0 -7.53125q0 -0.109375 0.03125 -0.203125q0.03125 -0.078125 0.078125 -0.1875q0.09375 -0.140625 0.03125 -0.203125q-0.109375 -0.09375 -0.609375 -0.125zm-12.328125 2.21875l0 1.09375l9.4375 0l0 -1.09375l-9.4375 0zm2.40625 2.796875l-0.953125 0l0.625 6.0625q-0.75 0 -1.71875 0q-0.953125 0 -1.484375 0l0.34375 1.09375q0.0625 0.25 0.140625 0.296875q0.046875 0.015625 0.1875 -0.078125q0.15625 -0.078125 0.28125 -0.109375q0.203125 -0.078125 0.421875 -0.078125l1.0 -0.0625q2.84375 -0.125 4.484375 -0.203125q2.8125 -0.15625 4.578125 -0.25l-0.09375 -1.0l-3.0 0.15625l0.640625 -4.984375q0.015625 -0.109375 0.078125 -0.203125q0.03125 -0.0625 0.125 -0.171875q0.15625 -0.171875 0.09375 -0.234375q-0.046875 -0.09375 -0.515625 -0.171875l-0.984375 -0.09375l-0.671875 5.921875l-2.671875 0.125l-0.46875 -5.328125q-0.015625 -0.109375 0.03125 -0.21875q0.015625 -0.046875 0.0625 -0.171875q0.078125 -0.140625 0.03125 -0.203125q-0.09375 -0.0625 -0.5625 -0.09375zm16.234375 -3.234375l0 11.625q2.9375 0 5.796875 -0.28125q2.828125 -0.265625 4.828125 -0.71875l-0.109375 -1.09375q-2.171875 0.53125 -4.96875 0.796875q-2.421875 0.25 -4.34375 0.203125l0 -4.859375l6.734375 0l0 -1.0l-6.734375 0l0 -3.6875l7.109375 0l0 -0.984375l-8.3125 0zm12.578125 -1.34375l-0.875 0l0 16.625l1.25 0l0 -15.9375q0 -0.109375 0.03125 -0.21875q0.046875 -0.0625 0.09375 -0.171875q0.109375 -0.1875 0.0625 -0.21875q-0.078125 -0.078125 -0.5625 -0.078125zm9.8125 0.71875q0.046875 2.59375 -1.421875 4.9375q-1.453125 2.328125 -3.75 3.421875l0.796875 1.015625q1.90625 -1.3125 2.9375 -2.46875q1.203125 -1.375 1.8125 -3.1875q0.453125 1.625 1.609375 3.140625q1.03125 1.296875 2.375 2.265625l0.890625 -0.984375q-1.828125 -0.921875 -3.078125 -2.921875q-1.296875 -2.109375 -1.03125 -4.078125q0.015625 -0.1875 0.078125 -0.375q0.03125 -0.09375 0.109375 -0.28125q0.125 -0.265625 0.109375 -0.359375q-0.046875 -0.125 -0.359375 -0.125l-1.078125 0zm4.25 2.21875l0 1.015625l4.0625 0l0 2.140625l-4.0625 0l0 1.03125l4.0625 0l0 5.234375l1.25 0l0 -11.796875q0 -0.078125 0.015625 -0.15625q0.015625 -0.046875 0.0625 -0.125q0.09375 -0.171875 0.046875 -0.203125q-0.046875 -0.078125 -0.390625 -0.078125l-0.984375 0l0 2.9375l-4.0625 0zm-5.203125 8.03125l-0.921875 0l0 5.234375l11.828125 0l0 -1.015625l-10.59375 0l0 -3.65625q0 -0.078125 0.015625 -0.15625q0.015625 -0.046875 0.0625 -0.125q0.078125 -0.171875 0.046875 -0.203125q-0.078125 -0.078125 -0.4375 -0.078125zm15.375 -2.671875q0 3.34375 1.109375 5.109375q1.140625 1.734375 3.25 1.734375q2.09375 0 3.21875 -1.734375q1.140625 -1.765625 1.140625 -5.09375q0 -3.34375 -1.140625 -5.09375q-1.125 -1.75 -3.21875 -1.75q-2.109375 0 -3.25 1.71875q-1.109375 1.765625 -1.109375 5.109375zm1.296875 0q0 -2.90625 0.75 -4.3125q0.734375 -1.390625 2.3125 -1.390625q1.546875 0 2.296875 1.390625q0.765625 1.40625 0.765625 4.3125q0 2.890625 -0.765625 4.296875q-0.75 1.421875 -2.296875 1.421875q-1.578125 0 -2.3125 -1.421875q-0.75 -1.40625 -0.75 -4.296875z" fill-rule="nonzero"/></g><path fill="#000000" fill-opacity="0.0" d="m54.59622 60.488865l112.7874 0l0 42.01575l-112.7874 0z" fill-rule="evenodd"/><path fill="#000000" d="m107.4118 73.33074l-10.375 0q-0.890625 0 -1.375 0.484375q-0.4375 0.453125 -0.4375 1.1875l0 5.640625q0 0.734375 0.453125 1.15625q0.46875 0.4375 1.296875 0.4375l10.515625 0q0.21875 0 0.34375 -0.15625q0.125 -0.140625 0.109375 -0.328125q0 -0.1875 -0.125 -0.34375q-0.15625 -0.125 -0.390625 -0.125l-10.28125 0q-0.4375 0 -0.625 -0.1875q-0.1875 -0.15625 -0.1875 -0.546875l0 -2.421875l10.890625 0q0.53125 0 0.53125 -0.484375q0 -0.453125 -0.53125 -0.453125l-10.890625 0l0 -2.0625q0 -0.453125 0.203125 -0.65625q0.21875 -0.1875 0.703125 -0.1875l10.25 0q0.21875 0 0.34375 -0.15625q0.125 -0.140625 0.109375 -0.3125q0 -0.21875 -0.125 -0.34375q-0.171875 -0.140625 -0.40625 -0.140625zm-6.4375 9.171875l0 3.625l-6.6875 0q-0.25 0 -0.40625 0.125q-0.125 0.15625 -0.140625 0.34375q-0.03125 0.1875 0.09375 0.328125q0.109375 0.15625 0.3125 0.15625l14.5625 0q0.234375 0 0.390625 -0.15625q0.140625 -0.140625 0.140625 -0.328125q0 -0.1875 -0.140625 -0.34375q-0.15625 -0.125 -0.40625 -0.125l-6.640625 0l0 -3.546875q0 -0.25 -0.1875 -0.40625q-0.15625 -0.140625 -0.359375 -0.140625q-0.21875 -0.03125 -0.375 0.109375q-0.15625 0.125 -0.15625 0.359375zm21.1875 -9.234375l-8.40625 0q-0.515625 0 -0.515625 0.46875q0 0.484375 0.515625 0.484375l8.40625 0q0.53125 0 0.53125 -0.484375q0 -0.46875 -0.53125 -0.46875zm-7.328125 2.25q0 0.90625 0.140625 2.265625q0.15625 1.21875 0.390625 2.484375l-2.109375 0.015625q-0.546875 0 -0.546875 0.4375q0 0.46875 0.546875 0.46875q3.0 0 5.546875 -0.234375q2.78125 -0.25 4.359375 -0.703125q0.234375 -0.0625 0.359375 -0.25q0.109375 -0.171875 0.0625 -0.34375q-0.03125 -0.203125 -0.203125 -0.296875q-0.1875 -0.125 -0.4375 -0.03125q-0.40625 0.125 -0.953125 0.234375q-0.328125 0.0625 -1.078125 0.203125l-0.296875 0.0625q0.203125 -1.015625 0.34375 -2.140625q0.15625 -1.265625 0.15625 -2.21875q0 -0.5 -0.53125 -0.5q-0.515625 0 -0.515625 0.5q0 0.953125 -0.140625 2.21875q-0.140625 1.296875 -0.34375 2.3125q-0.765625 0.078125 -1.640625 0.125q-0.859375 0.078125 -1.5 0.09375q-0.234375 -1.140625 -0.390625 -2.609375q-0.109375 -1.265625 -0.109375 -2.09375q0 -0.5 -0.5625 -0.5q-0.546875 0 -0.546875 0.5zm11.625 5.203125l0 -7.390625q0 -0.25 -0.171875 -0.375q-0.15625 -0.125 -0.375 -0.125q-0.25 0 -0.390625 0.125q-0.171875 0.140625 -0.171875 0.390625l0 7.375q0 0.265625 0.171875 0.4375q0.140625 0.140625 0.390625 0.140625q0.21875 0 0.375 -0.140625q0.171875 -0.171875 0.171875 -0.4375zm-1.78125 2.4375l-10.15625 0q-0.53125 0 -0.5 0.484375q0 0.484375 0.5 0.484375l10.0625 0q0.421875 0 0.59375 0.15625q0.171875 0.15625 0.171875 0.515625l0 3.0q0 0.265625 0.171875 0.421875q0.140625 0.140625 0.390625 0.140625q0.21875 0 0.375 -0.140625q0.171875 -0.15625 0.171875 -0.421875l0 -3.046875q0 -0.734375 -0.453125 -1.171875q-0.46875 -0.421875 -1.328125 -0.421875z" fill-rule="nonzero"/><g filter="url(#shadowFilter-p.4)"><use xlink:href="#p.4" transform="matrix(1.0 0.0 0.0 1.0 0.0 2.0)"/></g><defs><filter id="shadowFilter-p.4" filterUnits="userSpaceOnUse"><feGaussianBlur in="SourceAlpha" stdDeviation="2.0" result="blur"/><feComponentTransfer in="blur" color-interpolation-filters="sRGB"><feFuncR type="linear" slope="0" intercept="0.0"/><feFuncG type="linear" slope="0" intercept="0.0"/><feFuncB type="linear" slope="0" intercept="0.0"/><feFuncA type="linear" slope="0.5" intercept="0"/></feComponentTransfer></filter></defs><g id="p.4"><path fill="#999999" d="m241.38058 102.49869l161.25983 0l0 46.330704l-161.25983 0z" fill-rule="evenodd"/><path stroke="#595959" stroke-width="1.0" stroke-linejoin="round" stroke-linecap="butt" d="m241.38058 102.49869l161.25983 0l0 46.330704l-161.25983 0z" fill-rule="evenodd"/><path fill="#000000" d="m289.78442 118.53716l0 1.046875l6.796875 0q-0.0625 0.609375 -0.203125 1.109375q-0.15625 0.484375 -0.5 1.140625q-1.765625 0.234375 -3.78125 0.375q-1.859375 0.15625 -3.109375 0.15625l0.453125 1.09375q0.125 0.25 0.21875 0.296875q0.078125 0.015625 0.28125 -0.09375q0.140625 -0.09375 0.234375 -0.140625q0.1875 -0.078125 0.390625 -0.109375l4.75 -0.546875q-0.734375 1.4375 -2.484375 2.8125q-1.78125 1.40625 -4.046875 2.28125l1.0 0.9062576q3.296875 -1.4531326 5.328125 -3.7812576q2.359375 -2.703125 2.984375 -6.546875l-8.3125 0zm13.140625 -1.078125l-0.875 0l0 5.109375l-4.1875 0l0 1.03125l4.1875 0l0 6.1093826l1.25 0l0 -11.562508q0 -0.109375 0.03125 -0.21875q0.046875 -0.0625 0.09375 -0.171875q0.109375 -0.1875 0.0625 -0.21875q-0.078125 -0.078125 -0.5625 -0.078125zm-10.140625 10.968758l-0.921875 0l0 5.234375l11.828125 0l0 -1.015625l-10.59375 0l0 -3.65625q0 -0.078125 0.015625 -0.15625q0.015625 -0.046875 0.0625 -0.125q0.078125 -0.171875 0.046875 -0.203125q-0.078125 -0.078125 -0.4375 -0.078125zm17.515625 -3.8593826q2.140625 -0.78125 3.90625 -2.25q1.671875 -1.375 2.234375 -2.671875q0.75 1.359375 2.21875 2.515625q1.671875 1.28125 3.984375 2.078125l0.578125 -1.125q-1.328125 -0.234375 -2.5625 -0.890625q-1.03125 -0.546875 -1.90625 -1.375q-0.765625 -0.671875 -1.203125 -1.359375q-0.40625 -0.640625 -0.375 -0.9375q0 -0.15625 0.078125 -0.328125q0.03125 -0.109375 0.140625 -0.296875q0.15625 -0.265625 0.140625 -0.359375q-0.015625 -0.109375 -0.390625 -0.109375l-1.15625 0q-0.09375 1.828125 -1.796875 3.515625q-1.765625 1.734375 -4.46875 2.53125l0.578125 1.0625zm14.0 1.765625l-15.65625 0l0 1.015625l3.6875 0l0 6.1406326l1.203125 0l0 -6.1406326l5.875 0l0 6.7343826l1.203125 0l0 -6.7343826l3.6875 0l0 -1.015625zm9.921875 -6.140625l0 8.109383l-5.21875 0l0 -8.109383l5.21875 0zm-6.46875 -1.046875l0 11.000008l1.25 0l0 -0.8125l5.21875 0l0 0.5l1.25 0l0 -10.687508l-7.71875 0zm7.71875 4.921875l0 1.03125l4.578125 0l0 8.984383l1.25 0l0 -15.968758q0 -0.078125 0.015625 -0.171875q0.015625 -0.0625 0.078125 -0.140625q0.09375 -0.1875 0.046875 -0.25q-0.03125 -0.09375 -0.359375 -0.09375l-1.03125 0l0 6.609375l-4.578125 0zm10.6875 1.6875q0 3.3437576 1.109375 5.1093826q1.140625 1.734375 3.25 1.734375q2.09375 0 3.21875 -1.734375q1.140625 -1.765625 1.140625 -5.0937576q0 -3.34375 -1.140625 -5.09375q-1.125 -1.75 -3.21875 -1.75q-2.109375 0 -3.25 1.71875q-1.109375 1.765625 -1.109375 5.109375zm1.296875 0q0 -2.90625 0.75 -4.3125q0.734375 -1.390625 2.3125 -1.390625q1.546875 0 2.296875 1.390625q0.765625 1.40625 0.765625 4.3125q0 2.8906326 -0.765625 4.2968826q-0.75 1.421875 -2.296875 1.421875q-1.578125 0 -2.3125 -1.421875q-0.75 -1.40625 -0.75 -4.2968826z" fill-rule="nonzero"/></g><path fill="#000000" fill-opacity="0.0" d="m178.34383 125.66929l63.02362 0" fill-rule="evenodd"/><path stroke="#595959" stroke-width="3.0" stroke-linejoin="round" stroke-linecap="butt" d="m178.34383 125.66929l45.02362 0" fill-rule="evenodd"/><path fill="#595959" stroke="#595959" stroke-width="3.0" stroke-linecap="butt" d="m223.36746 130.62448l13.614288 -4.9551926l-13.614288 -4.9551926z" fill-rule="evenodd"/><g filter="url(#shadowFilter-p.5)"><use xlink:href="#p.5" transform="matrix(1.0 0.0 0.0 1.0 0.0 2.0)"/></g><defs><filter id="shadowFilter-p.5" filterUnits="userSpaceOnUse"><feGaussianBlur in="SourceAlpha" stdDeviation="2.0" result="blur"/><feComponentTransfer in="blur" color-interpolation-filters="sRGB"><feFuncR type="linear" slope="0" intercept="0.0"/><feFuncG type="linear" slope="0" intercept="0.0"/><feFuncB type="linear" slope="0" intercept="0.0"/><feFuncA type="linear" slope="0.5" intercept="0"/></feComponentTransfer></filter></defs><g id="p.5"><path fill="#d9d9d9" d="m506.13123 42.391075l404.53546 0l0 232.44095l-404.53546 0z" fill-rule="evenodd"/><path stroke="#595959" stroke-width="1.0" stroke-linejoin="round" stroke-linecap="butt" d="m506.13123 42.391075l404.53546 0l0 232.44095l-404.53546 0z" fill-rule="evenodd"/></g><g filter="url(#shadowFilter-p.6)"><use xlink:href="#p.6" transform="matrix(1.0 0.0 0.0 1.0 0.0 2.0)"/></g><defs><filter id="shadowFilter-p.6" filterUnits="userSpaceOnUse"><feGaussianBlur in="SourceAlpha" stdDeviation="2.0" result="blur"/><feComponentTransfer in="blur" color-interpolation-filters="sRGB"><feFuncR type="linear" slope="0" intercept="0.0"/><feFuncG type="linear" slope="0" intercept="0.0"/><feFuncB type="linear" slope="0" intercept="0.0"/><feFuncA type="linear" slope="0.5" intercept="0"/></feComponentTransfer></filter></defs><g id="p.6"><path fill="#999999" d="m523.35956 60.48294l161.25989 0l0 169.22835l-161.25989 0z" fill-rule="evenodd"/><path stroke="#595959" stroke-width="1.0" stroke-linejoin="round" stroke-linecap="butt" d="m523.35956 60.48294l161.25989 0l0 169.22835l-161.25989 0z" fill-rule="evenodd"/></g><path fill="#000000" fill-opacity="0.0" d="m555.93695 232.82677l283.68506 0l0 42.015762l-283.68506 0z" fill-rule="evenodd"/><path fill="#000000" d="m607.6448 245.73114l-5.5 0q-0.28125 0 -0.4375 0.140625q-0.125 0.140625 -0.125 0.328125q0 0.1875 0.125 0.328125q0.171875 0.15625 0.453125 0.15625l5.375 0q0.515625 0 0.75 0.21875q0.21875 0.21875 0.21875 0.65625l0 1.046875q0 2.15625 -1.703125 3.734375q-1.84375 1.703125 -5.03125 2.03125q-0.265625 0.015625 -0.390625 0.171875q-0.109375 0.15625 -0.09375 0.359375q0.015625 0.203125 0.171875 0.328125q0.15625 0.15625 0.4375 0.140625q3.421875 -0.3125 5.5625 -2.25q2.109375 -1.890625 2.109375 -4.46875l0 -1.296875q0 -0.765625 -0.46875 -1.171875q-0.484375 -0.453125 -1.453125 -0.453125zm-0.09375 3.359375q-1.34375 0.234375 -2.859375 0.375q-1.734375 0.1875 -3.078125 0.1875q-0.515625 0 -0.515625 0.46875q0 0.484375 0.515625 0.484375q1.390625 0 3.21875 -0.1875q1.59375 -0.171875 2.96875 -0.40625q0.234375 -0.0625 0.34375 -0.25q0.109375 -0.140625 0.078125 -0.328125q-0.0625 -0.1875 -0.21875 -0.28125q-0.1875 -0.109375 -0.453125 -0.0625zm7.234375 6.8125l0 -10.171875q0 -0.265625 -0.171875 -0.421875q-0.15625 -0.125 -0.375 -0.125q-0.25 0 -0.390625 0.125q-0.171875 0.15625 -0.171875 0.421875l0 4.234375l-3.4375 0q-0.25 0 -0.40625 0.125q-0.140625 0.15625 -0.125 0.34375q0 0.1875 0.171875 0.328125q0.15625 0.15625 0.453125 0.15625l3.34375 0l0 4.984375q0 0.28125 0.171875 0.453125q0.140625 0.140625 0.390625 0.140625q0.21875 0 0.375 -0.140625q0.171875 -0.171875 0.171875 -0.453125zm-10.8125 0.21875q0 -0.296875 -0.1875 -0.453125q-0.140625 -0.15625 -0.375 -0.15625q-0.234375 0 -0.375 0.15625q-0.171875 0.15625 -0.171875 0.453125l0 2.46875q0 0.828125 0.515625 1.25q0.484375 0.40625 1.3125 0.40625l10.1875 0q0.46875 0 0.46875 -0.484375q0 -0.46875 -0.46875 -0.46875l-10.0 0q-0.53125 0 -0.71875 -0.15625q-0.1875 -0.1875 -0.1875 -0.6875l0 -2.328125zm23.3125 -10.390625q0 2.359375 -1.9375 3.921875q-1.71875 1.390625 -4.0625 1.578125q-0.296875 0.015625 -0.421875 0.1875q-0.140625 0.15625 -0.109375 0.375q0.03125 0.203125 0.203125 0.328125q0.1875 0.140625 0.453125 0.109375q2.3125 -0.3125 4.125 -1.546875q1.71875 -1.15625 2.28125 -2.640625q0.578125 1.453125 2.296875 2.640625q1.796875 1.234375 4.0 1.546875q0.3125 0.03125 0.53125 -0.109375q0.1875 -0.125 0.21875 -0.328125q0.0625 -0.234375 -0.0625 -0.390625q-0.15625 -0.1875 -0.4375 -0.203125q-2.375 -0.25 -4.0625 -1.578125q-1.953125 -1.546875 -1.953125 -3.859375q0 -0.296875 -0.171875 -0.46875q-0.15625 -0.15625 -0.359375 -0.15625q-0.21875 0 -0.375 0.15625q-0.15625 0.171875 -0.15625 0.4375zm7.78125 8.65625l-14.453125 0q-0.53125 0 -0.546875 0.453125q-0.046875 0.484375 0.453125 0.484375l3.5 0l0 1.453125q0 0.8125 -0.296875 1.546875q-0.28125 0.65625 -0.828125 1.203125q-0.1875 0.15625 -0.140625 0.40625q0.015625 0.203125 0.203125 0.375q0.171875 0.140625 0.390625 0.15625q0.21875 0.03125 0.40625 -0.140625q0.609375 -0.640625 0.984375 -1.5625q0.390625 -0.96875 0.390625 -1.96875l0 -1.46875l5.921875 0l0 4.8125q0 0.265625 0.15625 0.421875q0.15625 0.140625 0.375 0.140625q0.21875 0 0.375 -0.15625q0.1875 -0.171875 0.1875 -0.421875l0 -4.796875l2.96875 0q0.453125 0 0.453125 -0.484375q-0.015625 -0.453125 -0.5 -0.453125zm11.546875 -6.9375l0 9.984375q0 0.421875 -0.203125 0.59375q-0.1875 0.140625 -0.65625 0.140625l-3.953125 0q-0.453125 0 -0.625 -0.171875q-0.1875 -0.15625 -0.1875 -0.59375l0 -9.84375q0 -0.4375 0.171875 -0.65625q0.1875 -0.21875 0.609375 -0.21875l3.953125 0q0.484375 0 0.6875 0.1875q0.203125 0.1875 0.203125 0.578125zm-0.8125 -1.71875l-4.171875 0q-0.828125 0 -1.28125 0.5q-0.453125 0.484375 -0.453125 1.25l0 10.015625q0 0.796875 0.40625 1.1875q0.4375 0.4375 1.375 0.4375l4.25 0q0.875 0 1.3125 -0.421875q0.453125 -0.40625 0.453125 -1.21875l0 -10.125q0 -0.765625 -0.546875 -1.203125q-0.5 -0.421875 -1.34375 -0.421875zm6.984375 14.3125l0 -14.3125q0 -0.265625 -0.171875 -0.421875q-0.15625 -0.125 -0.375 -0.125q-0.25 0 -0.390625 0.125q-0.171875 0.15625 -0.171875 0.421875l0 6.078125l-3.171875 0q-0.265625 0 -0.390625 0.125q-0.125 0.15625 -0.125 0.328125q0.015625 0.1875 0.171875 0.34375q0.15625 0.140625 0.4375 0.140625l3.078125 0l0 7.296875q0 0.3125 0.171875 0.5q0.140625 0.171875 0.390625 0.171875q0.21875 0 0.375 -0.171875q0.171875 -0.203125 0.171875 -0.5z" fill-rule="nonzero"/><path fill="#000000" d="m670.89056 258.16864l0 1.578125l-8.828125 0q-0.015625 -0.59375 0.1875 -1.140625q0.34375 -0.90625 1.078125 -1.78125q0.75 -0.875 2.15625 -2.015625q2.171875 -1.78125 2.9375 -2.828125q0.765625 -1.046875 0.765625 -1.96875q0 -0.984375 -0.703125 -1.640625q-0.6875 -0.671875 -1.8125 -0.671875q-1.1875 0 -1.90625 0.71875q-0.703125 0.703125 -0.703125 1.953125l-1.6875 -0.171875q0.171875 -1.890625 1.296875 -2.875q1.140625 -0.984375 3.03125 -0.984375q1.921875 0 3.046875 1.0625q1.125 1.0625 1.125 2.640625q0 0.796875 -0.328125 1.578125q-0.328125 0.78125 -1.09375 1.640625q-0.75 0.84375 -2.53125 2.34375q-1.46875 1.234375 -1.890625 1.6875q-0.421875 0.4375 -0.6875 0.875l6.546875 0z" fill-rule="nonzero"/><path fill="#000000" d="m678.6413 245.73114l-4.0 0q-0.515625 0 -0.5 0.46875q0 0.484375 0.515625 0.484375l3.875 0q0.5 0 0.765625 0.21875q0.28125 0.21875 0.28125 0.671875l0 2.203125q0 3.921875 -1.34375 5.953125q-1.296875 2.0 -3.921875 2.296875q-0.28125 0.015625 -0.421875 0.15625q-0.125 0.15625 -0.109375 0.359375q0.03125 0.1875 0.171875 0.3125q0.171875 0.125 0.421875 0.109375q2.921875 -0.265625 4.546875 -2.5625q1.75 -2.40625 1.75 -6.71875l0 -2.296875q0 -0.765625 -0.578125 -1.203125q-0.5625 -0.453125 -1.453125 -0.453125zm8.140625 -0.09375l0 6.90625l-2.640625 0l0 -6.90625q0 -0.46875 -0.5625 -0.46875q-0.53125 0 -0.53125 0.46875l0 14.5q0 0.265625 0.171875 0.421875q0.140625 0.140625 0.359375 0.140625q0.234375 0 0.375 -0.140625q0.1875 -0.15625 0.1875 -0.421875l0 -6.6875l2.640625 0l0 6.71875q0 0.25 0.15625 0.390625q0.15625 0.140625 0.375 0.140625q0.203125 0 0.359375 -0.15625q0.171875 -0.140625 0.171875 -0.390625l0 -14.515625q0 -0.46875 -0.53125 -0.46875q-0.53125 0 -0.53125 0.46875z" fill-rule="nonzero"/><path fill="#000000" d="m705.43396 248.88739l0 2.625q0 0.390625 -0.234375 0.546875q-0.203125 0.171875 -0.65625 0.171875l-4.046875 0q-0.40625 0 -0.578125 -0.171875q-0.1875 -0.15625 -0.1875 -0.546875l0 -2.625l5.703125 0zm0 -2.859375l0 1.90625l-5.703125 0l0 -1.84375q0 -0.28125 -0.1875 -0.453125q-0.140625 -0.125 -0.359375 -0.125q-0.234375 0 -0.375 0.15625q-0.171875 0.15625 -0.171875 0.4375l0 5.5625q0 0.71875 0.453125 1.09375q0.421875 0.390625 1.140625 0.390625l4.625 0q0.703125 0 1.15625 -0.390625q0.46875 -0.40625 0.46875 -1.109375l0 -5.625q0 -0.25 -0.15625 -0.390625q-0.15625 -0.125 -0.375 -0.125q-0.21875 0 -0.375 0.125q-0.140625 0.140625 -0.140625 0.390625zm6.09375 8.15625l0 -8.515625q0 -0.25 -0.171875 -0.375q-0.15625 -0.125 -0.375 -0.125q-0.25 0 -0.390625 0.125q-0.171875 0.140625 -0.171875 0.390625l0 1.953125l-3.171875 0q-0.28125 0 -0.421875 0.140625q-0.140625 0.125 -0.140625 0.328125q0.03125 0.1875 0.171875 0.328125q0.1875 0.15625 0.484375 0.15625l3.078125 0l0 2.25l-3.140625 0q-0.265625 0 -0.4375 0.140625q-0.125 0.140625 -0.125 0.34375q0 0.1875 0.140625 0.3125q0.171875 0.171875 0.453125 0.171875l3.109375 0l0 2.375q0 0.28125 0.171875 0.4375q0.140625 0.15625 0.390625 0.15625q0.21875 0 0.375 -0.15625q0.171875 -0.15625 0.171875 -0.4375zm-5.96875 0.890625q-3.046875 0 -4.65625 0.828125q-1.453125 0.75 -1.453125 2.03125q0 1.21875 1.453125 1.96875q1.609375 0.828125 4.65625 0.828125q3.046875 0 4.640625 -0.828125q1.46875 -0.75 1.46875 -1.96875q0 -1.28125 -1.46875 -2.03125q-1.59375 -0.828125 -4.640625 -0.828125zm0 0.953125q2.53125 0 3.828125 0.53125q1.203125 0.5 1.203125 1.375q0 0.828125 -1.203125 1.3125q-1.296875 0.53125 -3.828125 0.53125q-2.546875 0 -3.84375 -0.53125q-1.1875 -0.484375 -1.1875 -1.3125q0 -0.875 1.1875 -1.375q1.296875 -0.53125 3.84375 -0.53125zm17.390625 -10.46875l-4.8125 0q-0.59375 0 -0.59375 0.453125q-0.015625 0.484375 0.5625 0.484375l4.765625 0q0.390625 0 0.59375 0.171875q0.21875 0.1875 0.21875 0.578125l0 0.640625q0 0.390625 -0.1875 0.546875q-0.15625 0.140625 -0.59375 0.140625l-3.65625 0q-0.734375 0 -1.203125 0.46875q-0.40625 0.421875 -0.40625 1.03125l0 1.265625q0 0.78125 0.453125 1.265625q0.46875 0.53125 1.34375 0.53125q1.953125 0 3.40625 -0.15625q1.421875 -0.15625 3.125 -0.546875q0.484375 -0.125 0.359375 -0.578125q-0.15625 -0.421875 -0.65625 -0.296875q-1.375 0.3125 -2.671875 0.484375q-1.53125 0.1875 -3.40625 0.1875q-0.453125 0 -0.65625 -0.265625q-0.203125 -0.21875 -0.203125 -0.640625l0 -1.046875q0 -0.390625 0.171875 -0.5625q0.203125 -0.1875 0.640625 -0.1875l3.640625 0q0.78125 0 1.1875 -0.40625q0.390625 -0.390625 0.390625 -1.0625l0 -0.984375q0 -0.6875 -0.5 -1.09375q-0.484375 -0.421875 -1.3125 -0.421875zm7.578125 7.171875l0 -7.0625q0 -0.25 -0.171875 -0.375q-0.15625 -0.125 -0.375 -0.125q-0.25 0 -0.390625 0.125q-0.171875 0.140625 -0.171875 0.390625l0 1.5625l-3.171875 0q-0.28125 0 -0.421875 0.140625q-0.140625 0.125 -0.140625 0.328125q0.03125 0.1875 0.171875 0.328125q0.1875 0.15625 0.484375 0.15625l3.078125 0l0 2.140625l-3.140625 0q-0.265625 0 -0.4375 0.125q-0.125 0.15625 -0.125 0.34375q0 0.171875 0.140625 0.328125q0.171875 0.140625 0.453125 0.140625l3.109375 0l0 1.453125q0 0.25 0.171875 0.390625q0.140625 0.125 0.390625 0.125q0.21875 0 0.375 -0.125q0.171875 -0.140625 0.171875 -0.390625zm-1.6875 1.515625l-9.84375 0q-0.578125 0 -0.5625 0.46875q0 0.484375 0.5625 0.484375l9.703125 0q0.390625 0 0.546875 0.125q0.171875 0.140625 0.171875 0.46875l0 0.5q0 0.265625 -0.203125 0.375q-0.171875 0.109375 -0.5 0.109375l-8.828125 0q-0.609375 0 -1.0 0.359375q-0.390625 0.34375 -0.390625 0.953125l0 1.078125q0 0.59375 0.40625 0.96875q0.390625 0.359375 1.015625 0.359375l10.59375 0q0.25 0 0.375 -0.15625q0.125 -0.140625 0.125 -0.328125q-0.015625 -0.1875 -0.140625 -0.34375q-0.171875 -0.125 -0.4375 -0.125l-10.203125 0q-0.328125 0 -0.484375 -0.109375q-0.15625 -0.109375 -0.15625 -0.390625l0 -0.71875q0 -0.296875 0.125 -0.453125q0.171875 -0.140625 0.546875 -0.140625l8.78125 0q0.671875 0 1.078125 -0.359375q0.40625 -0.359375 0.40625 -0.921875l0 -0.796875q0 -0.65625 -0.421875 -1.03125q-0.4375 -0.375 -1.265625 -0.375z" fill-rule="nonzero"/><path fill="#000000" d="m748.64856 245.62177l-4.484375 0q-0.546875 0 -0.546875 0.46875q0 0.484375 0.546875 0.484375l4.5625 0q0.421875 0 0.40625 -0.484375q-0.015625 -0.46875 -0.484375 -0.46875zm1.84375 2.640625l-8.15625 0q-0.515625 0 -0.515625 0.46875q-0.015625 0.46875 0.5 0.46875l3.53125 0l0 1.953125q0 2.53125 -1.25 4.5q-1.125 1.78125 -2.96875 2.703125q-0.234375 0.109375 -0.296875 0.3125q-0.046875 0.203125 0.0625 0.390625q0.109375 0.1875 0.296875 0.265625q0.21875 0.0625 0.4375 -0.046875q1.546875 -0.75 2.734375 -2.171875q1.109375 -1.34375 1.515625 -2.8125q0.40625 1.5 1.390625 2.75q1.09375 1.359375 2.78125 2.234375q0.28125 0.140625 0.53125 0.0625q0.21875 -0.078125 0.328125 -0.28125q0.109375 -0.203125 0.03125 -0.40625q-0.046875 -0.21875 -0.296875 -0.3125q-1.828125 -0.78125 -2.984375 -2.640625q-1.203125 -1.984375 -1.203125 -4.546875l0 -1.953125l3.53125 0q0.4375 0 0.4375 -0.46875q0 -0.46875 -0.4375 -0.46875zm4.21875 11.859375l0 -14.390625q0 -0.265625 -0.171875 -0.421875q-0.15625 -0.125 -0.375 -0.125q-0.25 0 -0.390625 0.125q-0.171875 0.15625 -0.171875 0.421875l0 6.28125l-4.109375 0q-0.265625 0 -0.390625 0.125q-0.140625 0.125 -0.125 0.328125q0 0.1875 0.171875 0.328125q0.171875 0.140625 0.46875 0.140625l3.984375 0l0 7.1875q0 0.25 0.171875 0.421875q0.140625 0.15625 0.390625 0.15625q0.21875 0 0.375 -0.15625q0.171875 -0.171875 0.171875 -0.421875zm11.921875 -14.40625l-5.3125 0q-0.59375 0 -0.59375 0.46875q-0.015625 0.46875 0.5625 0.46875l4.984375 0q0.5625 0 0.8125 0.15625q0.265625 0.1875 0.265625 0.5625l0 3.171875q0 0.40625 -0.1875 0.53125q-0.15625 0.15625 -0.625 0.15625l-3.984375 0q-0.828125 0 -1.28125 0.484375q-0.453125 0.453125 -0.453125 1.21875l0 4.375q0 0.84375 0.421875 1.328125q0.46875 0.515625 1.390625 0.515625q2.234375 0 4.28125 -0.328125q2.296875 -0.359375 3.828125 -1.046875q0.46875 -0.234375 0.265625 -0.703125q-0.1875 -0.46875 -0.671875 -0.203125q-1.34375 0.609375 -3.28125 0.96875q-2.0 0.359375 -4.140625 0.359375q-0.546875 0 -0.78125 -0.234375q-0.21875 -0.203125 -0.21875 -0.71875l0 -4.15625q0 -0.484375 0.171875 -0.6875q0.1875 -0.203125 0.640625 -0.203125l3.953125 0q0.875 0 1.296875 -0.390625q0.4375 -0.375 0.4375 -1.078125l0 -3.609375q0 -0.671875 -0.484375 -1.046875q-0.484375 -0.359375 -1.296875 -0.359375zm7.078125 14.40625l0 -14.4375q0 -0.25 -0.171875 -0.390625q-0.15625 -0.109375 -0.375 -0.109375q-0.25 0 -0.390625 0.109375q-0.171875 0.140625 -0.171875 0.390625l0 14.4375q0 0.25 0.171875 0.421875q0.140625 0.15625 0.390625 0.15625q0.21875 0 0.375 -0.15625q0.171875 -0.171875 0.171875 -0.421875zm11.921875 -14.546875l-5.3125 0q-0.59375 0 -0.59375 0.453125q-0.015625 0.484375 0.5625 0.484375l5.25 0q0.375 0 0.59375 0.171875q0.21875 0.1875 0.21875 0.5625l0 0.8125q0 0.40625 -0.1875 0.53125q-0.15625 0.15625 -0.625 0.15625l-4.046875 0q-0.8125 0 -1.265625 0.453125q-0.40625 0.453125 -0.40625 1.1875l0 1.359375q0 0.75 0.421875 1.1875q0.46875 0.5 1.390625 0.5q2.40625 0 4.203125 -0.1875q2.28125 -0.234375 3.90625 -0.796875q0.234375 -0.09375 0.296875 -0.28125q0.0625 -0.171875 -0.015625 -0.375q-0.078125 -0.1875 -0.25 -0.28125q-0.1875 -0.09375 -0.4375 0q-1.296875 0.515625 -3.3125 0.78125q-1.859375 0.234375 -4.25 0.234375q-0.453125 0 -0.65625 -0.21875q-0.203125 -0.21875 -0.203125 -0.65625l0 -1.203125q0 -0.390625 0.171875 -0.5625q0.171875 -0.171875 0.578125 -0.171875l4.015625 0q0.875 0 1.296875 -0.390625q0.4375 -0.375 0.4375 -1.078125l0 -1.265625q0 -0.671875 -0.484375 -1.046875q-0.484375 -0.359375 -1.296875 -0.359375zm6.546875 2.375l0 -2.3125q0 -0.46875 -0.5625 -0.46875q-0.53125 0 -0.53125 0.5l0 8.515625q0 0.25 0.171875 0.421875q0.140625 0.15625 0.359375 0.15625q0.234375 0 0.375 -0.140625q0.1875 -0.15625 0.1875 -0.421875l0 -1.703125l2.09375 0q0.421875 0 0.421875 -0.484375q-0.015625 -0.484375 -0.453125 -0.484375l-2.0625 0l0 -2.625l2.0625 0q0.203125 0 0.328125 -0.15625q0.109375 -0.140625 0.109375 -0.3125q-0.015625 -0.203125 -0.140625 -0.34375q-0.140625 -0.140625 -0.375 -0.140625l-1.984375 0zm-5.71875 7.125q-2.984375 0 -4.578125 0.828125q-1.453125 0.765625 -1.453125 2.03125q0 1.21875 1.453125 1.96875q1.59375 0.828125 4.578125 0.828125q2.96875 0 4.5625 -0.828125q1.453125 -0.75 1.453125 -1.96875q0 -1.265625 -1.453125 -2.03125q-1.59375 -0.828125 -4.5625 -0.828125zm0 0.953125q2.453125 0 3.734375 0.53125q1.1875 0.5 1.1875 1.375q0 0.828125 -1.1875 1.3125q-1.28125 0.53125 -3.734375 0.53125q-2.46875 0 -3.765625 -0.53125q-1.171875 -0.484375 -1.171875 -1.3125q0 -0.875 1.171875 -1.375q1.28125 -0.53125 3.765625 -0.53125z" fill-rule="nonzero"/><g filter="url(#shadowFilter-p.7)"><use xlink:href="#p.7" transform="matrix(1.0 0.0 0.0 1.0 0.0 2.0)"/></g><defs><filter id="shadowFilter-p.7" filterUnits="userSpaceOnUse"><feGaussianBlur in="SourceAlpha" stdDeviation="2.0" result="blur"/><feComponentTransfer in="blur" color-interpolation-filters="sRGB"><feFuncR type="linear" slope="0" intercept="0.0"/><feFuncG type="linear" slope="0" intercept="0.0"/><feFuncB type="linear" slope="0" intercept="0.0"/><feFuncA type="linear" slope="0.5" intercept="0"/></feComponentTransfer></filter></defs><g id="p.7"><path fill="#efefef" d="m531.5617 102.49869l134.70862 0l0 46.330704l-134.70862 0z" fill-rule="evenodd"/><path stroke="#595959" stroke-width="1.0" stroke-linejoin="round" stroke-linecap="butt" d="m531.5617 102.49869l134.70862 0l0 46.330704l-134.70862 0z" fill-rule="evenodd"/><path fill="#000000" d="m579.93994 117.02154l-0.828125 0l0 16.453133l1.296875 0l0 -7.1562576l3.0625 0l0 -1.046875l-3.0625 0l0 -7.53125q0 -0.109375 0.03125 -0.203125q0.03125 -0.078125 0.078125 -0.1875q0.09375 -0.140625 0.03125 -0.203125q-0.109375 -0.09375 -0.609375 -0.125zm-12.328125 2.21875l0 1.09375l9.4375 0l0 -1.09375l-9.4375 0zm2.40625 2.796875l-0.953125 0l0.625 6.0625076q-0.75 0 -1.71875 0q-0.953125 0 -1.484375 0l0.34375 1.09375q0.0625 0.25 0.140625 0.296875q0.046875 0.015625 0.1875 -0.078125q0.15625 -0.078125 0.28125 -0.109375q0.203125 -0.078125 0.421875 -0.078125l1.0 -0.0625q2.84375 -0.125 4.484375 -0.203125q2.8125 -0.15625 4.578125 -0.25l-0.09375 -1.0000076l-3.0 0.15625l0.640625 -4.984375q0.015625 -0.109375 0.078125 -0.203125q0.03125 -0.0625 0.125 -0.171875q0.15625 -0.171875 0.09375 -0.234375q-0.046875 -0.09375 -0.515625 -0.171875l-0.984375 -0.09375l-0.671875 5.921875l-2.671875 0.12500763l-0.46875 -5.3281326q-0.015625 -0.109375 0.03125 -0.21875q0.015625 -0.046875 0.0625 -0.171875q0.078125 -0.140625 0.03125 -0.203125q-0.09375 -0.0625 -0.5625 -0.09375zm16.234375 -3.234375l0 11.625008q2.9375 0 5.796875 -0.28125q2.828125 -0.265625 4.828125 -0.71875l-0.109375 -1.09375q-2.171875 0.53125 -4.96875 0.796875q-2.421875 0.25 -4.34375 0.203125l0 -4.8593826l6.734375 0l0 -1.0l-6.734375 0l0 -3.6875l7.109375 0l0 -0.984375l-8.3125 0zm12.578125 -1.34375l-0.875 0l0 16.625008l1.25 0l0 -15.937508q0 -0.109375 0.03125 -0.21875q0.046875 -0.0625 0.09375 -0.171875q0.109375 -0.1875 0.0625 -0.21875q-0.078125 -0.078125 -0.5625 -0.078125zm9.8125 0.71875q0.046875 2.59375 -1.421875 4.9375q-1.453125 2.328125 -3.75 3.421875l0.796875 1.015625q1.90625 -1.3125 2.9375 -2.46875q1.203125 -1.375 1.8125 -3.1875q0.453125 1.625 1.609375 3.140625q1.03125 1.296875 2.375 2.265625l0.890625 -0.984375q-1.828125 -0.921875 -3.078125 -2.921875q-1.296875 -2.109375 -1.03125 -4.078125q0.015625 -0.1875 0.078125 -0.375q0.03125 -0.09375 0.109375 -0.28125q0.125 -0.265625 0.109375 -0.359375q-0.046875 -0.125 -0.359375 -0.125l-1.078125 0zm4.25 2.21875l0 1.015625l4.0625 0l0 2.140625l-4.0625 0l0 1.03125l4.0625 0l0 5.2343826l1.25 0l0 -11.796883q0 -0.078125 0.015625 -0.15625q0.015625 -0.046875 0.0625 -0.125q0.09375 -0.171875 0.046875 -0.203125q-0.046875 -0.078125 -0.390625 -0.078125l-0.984375 0l0 2.9375l-4.0625 0zm-5.203125 8.031258l-0.921875 0l0 5.234375l11.828125 0l0 -1.015625l-10.59375 0l0 -3.65625q0 -0.078125 0.015625 -0.15625q0.015625 -0.046875 0.0625 -0.125q0.078125 -0.171875 0.046875 -0.203125q-0.078125 -0.078125 -0.4375 -0.078125zm15.375 -2.6718826q0 3.3437576 1.109375 5.1093826q1.140625 1.734375 3.25 1.734375q2.09375 0 3.21875 -1.734375q1.140625 -1.765625 1.140625 -5.0937576q0 -3.34375 -1.140625 -5.09375q-1.125 -1.75 -3.21875 -1.75q-2.109375 0 -3.25 1.71875q-1.109375 1.765625 -1.109375 5.109375zm1.296875 0q0 -2.90625 0.75 -4.3125q0.734375 -1.390625 2.3125 -1.390625q1.546875 0 2.296875 1.390625q0.765625 1.40625 0.765625 4.3125q0 2.8906326 -0.765625 4.2968826q-0.75 1.421875 -2.296875 1.421875q-1.578125 0 -2.3125 -1.421875q-0.75 -1.40625 -0.75 -4.2968826z" fill-rule="nonzero"/></g><path fill="#000000" fill-opacity="0.0" d="m542.5227 60.483616l112.787415 0l0 42.01575l-112.787415 0z" fill-rule="evenodd"/><path fill="#000000" d="m595.3383 73.32549l-10.375 0q-0.890625 0 -1.375 0.484375q-0.4375 0.453125 -0.4375 1.1875l0 5.640625q0 0.734375 0.453125 1.15625q0.46875 0.4375 1.296875 0.4375l10.515625 0q0.21875 0 0.34375 -0.15625q0.125 -0.140625 0.109375 -0.328125q0 -0.1875 -0.125 -0.34375q-0.15625 -0.125 -0.390625 -0.125l-10.28125 0q-0.4375 0 -0.625 -0.1875q-0.1875 -0.15625 -0.1875 -0.546875l0 -2.421875l10.890625 0q0.53125 0 0.53125 -0.484375q0 -0.453125 -0.53125 -0.453125l-10.890625 0l0 -2.0625q0 -0.453125 0.203125 -0.65625q0.21875 -0.1875 0.703125 -0.1875l10.25 0q0.21875 0 0.34375 -0.15625q0.125 -0.140625 0.109375 -0.3125q0 -0.21875 -0.125 -0.34375q-0.171875 -0.140625 -0.40625 -0.140625zm-6.4375 9.171875l0 3.625l-6.6875 0q-0.25 0 -0.40625 0.125q-0.125 0.15625 -0.140625 0.34375q-0.03125 0.1875 0.09375 0.328125q0.109375 0.15625 0.3125 0.15625l14.5625 0q0.234375 0 0.390625 -0.15625q0.140625 -0.140625 0.140625 -0.328125q0 -0.1875 -0.140625 -0.34375q-0.15625 -0.125 -0.40625 -0.125l-6.640625 0l0 -3.546875q0 -0.25 -0.1875 -0.40625q-0.15625 -0.140625 -0.359375 -0.140625q-0.21875 -0.03125 -0.375 0.109375q-0.15625 0.125 -0.15625 0.359375zm21.1875 -9.234375l-8.40625 0q-0.515625 0 -0.515625 0.46875q0 0.484375 0.515625 0.484375l8.40625 0q0.53125 0 0.53125 -0.484375q0 -0.46875 -0.53125 -0.46875zm-7.328125 2.25q0 0.90625 0.140625 2.265625q0.15625 1.21875 0.390625 2.484375l-2.109375 0.015625q-0.546875 0 -0.546875 0.4375q0 0.46875 0.546875 0.46875q3.0 0 5.546875 -0.234375q2.78125 -0.25 4.359375 -0.703125q0.234375 -0.0625 0.359375 -0.25q0.109375 -0.171875 0.0625 -0.34375q-0.03125 -0.203125 -0.203125 -0.296875q-0.1875 -0.125 -0.4375 -0.03125q-0.40625 0.125 -0.953125 0.234375q-0.328125 0.0625 -1.078125 0.203125l-0.296875 0.0625q0.203125 -1.015625 0.34375 -2.140625q0.15625 -1.265625 0.15625 -2.21875q0 -0.5 -0.53125 -0.5q-0.515625 0 -0.515625 0.5q0 0.953125 -0.140625 2.21875q-0.140625 1.296875 -0.34375 2.3125q-0.765625 0.078125 -1.640625 0.125q-0.859375 0.078125 -1.5 0.09375q-0.234375 -1.140625 -0.390625 -2.609375q-0.109375 -1.265625 -0.109375 -2.09375q0 -0.5 -0.5625 -0.5q-0.546875 0 -0.546875 0.5zm11.625 5.203125l0 -7.390625q0 -0.25 -0.171875 -0.375q-0.15625 -0.125 -0.375 -0.125q-0.25 0 -0.390625 0.125q-0.171875 0.140625 -0.171875 0.390625l0 7.375q0 0.265625 0.171875 0.4375q0.140625 0.140625 0.390625 0.140625q0.21875 0 0.375 -0.140625q0.171875 -0.171875 0.171875 -0.4375zm-1.78125 2.4375l-10.15625 0q-0.53125 0 -0.5 0.484375q0 0.484375 0.5 0.484375l10.0625 0q0.421875 0 0.59375 0.15625q0.171875 0.15625 0.171875 0.515625l0 3.0q0 0.265625 0.171875 0.421875q0.140625 0.140625 0.390625 0.140625q0.21875 0 0.375 -0.140625q0.171875 -0.15625 0.171875 -0.421875l0 -3.046875q0 -0.734375 -0.453125 -1.171875q-0.46875 -0.421875 -1.328125 -0.421875z" fill-rule="nonzero"/><g filter="url(#shadowFilter-p.8)"><use xlink:href="#p.8" transform="matrix(1.0 0.0 0.0 1.0 0.0 2.0)"/></g><defs><filter id="shadowFilter-p.8" filterUnits="userSpaceOnUse"><feGaussianBlur in="SourceAlpha" stdDeviation="2.0" result="blur"/><feComponentTransfer in="blur" color-interpolation-filters="sRGB"><feFuncR type="linear" slope="0" intercept="0.0"/><feFuncG type="linear" slope="0" intercept="0.0"/><feFuncB type="linear" slope="0" intercept="0.0"/><feFuncA type="linear" slope="0.5" intercept="0"/></feComponentTransfer></filter></defs><g id="p.8"><path fill="#999999" d="m729.30707 102.49869l161.25989 0l0 46.330704l-161.25989 0z" fill-rule="evenodd"/><path stroke="#595959" stroke-width="1.0" stroke-linejoin="round" stroke-linecap="butt" d="m729.30707 102.49869l161.25989 0l0 46.330704l-161.25989 0z" fill-rule="evenodd"/><path fill="#000000" d="m777.71094 118.53716l0 1.046875l6.796875 0q-0.0625 0.609375 -0.203125 1.109375q-0.15625 0.484375 -0.5 1.140625q-1.765625 0.234375 -3.78125 0.375q-1.859375 0.15625 -3.109375 0.15625l0.453125 1.09375q0.125 0.25 0.21875 0.296875q0.078125 0.015625 0.28125 -0.09375q0.140625 -0.09375 0.234375 -0.140625q0.1875 -0.078125 0.390625 -0.109375l4.75 -0.546875q-0.734375 1.4375 -2.484375 2.8125q-1.78125 1.40625 -4.046875 2.28125l1.0 0.9062576q3.296875 -1.4531326 5.328125 -3.7812576q2.359375 -2.703125 2.984375 -6.546875l-8.3125 0zm13.140625 -1.078125l-0.875 0l0 5.109375l-4.1875 0l0 1.03125l4.1875 0l0 6.1093826l1.25 0l0 -11.562508q0 -0.109375 0.03125 -0.21875q0.046875 -0.0625 0.09375 -0.171875q0.109375 -0.1875 0.0625 -0.21875q-0.078125 -0.078125 -0.5625 -0.078125zm-10.140625 10.968758l-0.921875 0l0 5.234375l11.828125 0l0 -1.015625l-10.59375 0l0 -3.65625q0 -0.078125 0.015625 -0.15625q0.015625 -0.046875 0.0625 -0.125q0.078125 -0.171875 0.046875 -0.203125q-0.078125 -0.078125 -0.4375 -0.078125zm17.515625 -3.8593826q2.140625 -0.78125 3.90625 -2.25q1.671875 -1.375 2.234375 -2.671875q0.75 1.359375 2.21875 2.515625q1.671875 1.28125 3.984375 2.078125l0.578125 -1.125q-1.328125 -0.234375 -2.5625 -0.890625q-1.03125 -0.546875 -1.90625 -1.375q-0.765625 -0.671875 -1.203125 -1.359375q-0.40625 -0.640625 -0.375 -0.9375q0 -0.15625 0.078125 -0.328125q0.03125 -0.109375 0.140625 -0.296875q0.15625 -0.265625 0.140625 -0.359375q-0.015625 -0.109375 -0.390625 -0.109375l-1.15625 0q-0.09375 1.828125 -1.796875 3.515625q-1.765625 1.734375 -4.46875 2.53125l0.578125 1.0625zm14.0 1.765625l-15.65625 0l0 1.015625l3.6875 0l0 6.1406326l1.203125 0l0 -6.1406326l5.875 0l0 6.7343826l1.203125 0l0 -6.7343826l3.6875 0l0 -1.015625zm9.921875 -6.140625l0 8.109383l-5.21875 0l0 -8.109383l5.21875 0zm-6.46875 -1.046875l0 11.000008l1.25 0l0 -0.8125l5.21875 0l0 0.5l1.25 0l0 -10.687508l-7.71875 0zm7.71875 4.921875l0 1.03125l4.578125 0l0 8.984383l1.25 0l0 -15.968758q0 -0.078125 0.015625 -0.171875q0.015625 -0.0625 0.078125 -0.140625q0.09375 -0.1875 0.046875 -0.25q-0.03125 -0.09375 -0.359375 -0.09375l-1.03125 0l0 6.609375l-4.578125 0zm10.6875 1.6875q0 3.3437576 1.109375 5.1093826q1.140625 1.734375 3.25 1.734375q2.09375 0 3.21875 -1.734375q1.140625 -1.765625 1.140625 -5.0937576q0 -3.34375 -1.140625 -5.09375q-1.125 -1.75 -3.21875 -1.75q-2.109375 0 -3.25 1.71875q-1.109375 1.765625 -1.109375 5.109375zm1.296875 0q0 -2.90625 0.75 -4.3125q0.734375 -1.390625 2.3125 -1.390625q1.546875 0 2.296875 1.390625q0.765625 1.40625 0.765625 4.3125q0 2.8906326 -0.765625 4.2968826q-0.75 1.421875 -2.296875 1.421875q-1.578125 0 -2.3125 -1.421875q-0.75 -1.40625 -0.75 -4.2968826z" fill-rule="nonzero"/></g><path fill="#000000" fill-opacity="0.0" d="m666.2703 125.66404l63.02362 0" fill-rule="evenodd"/><path stroke="#595959" stroke-width="3.0" stroke-linejoin="round" stroke-linecap="butt" d="m666.2703 125.66404l45.02362 0" fill-rule="evenodd"/><path fill="#595959" stroke="#595959" stroke-width="3.0" stroke-linecap="butt" d="m711.29395 130.61923l13.614319 -4.9551926l-13.614319 -4.9551926z" fill-rule="evenodd"/><g filter="url(#shadowFilter-p.9)"><use xlink:href="#p.9" transform="matrix(1.0 0.0 0.0 1.0 0.0 2.0)"/></g><defs><filter id="shadowFilter-p.9" filterUnits="userSpaceOnUse"><feGaussianBlur in="SourceAlpha" stdDeviation="2.0" result="blur"/><feComponentTransfer in="blur" color-interpolation-filters="sRGB"><feFuncR type="linear" slope="0" intercept="0.0"/><feFuncG type="linear" slope="0" intercept="0.0"/><feFuncB type="linear" slope="0" intercept="0.0"/><feFuncA type="linear" slope="0.5" intercept="0"/></feComponentTransfer></filter></defs><g id="p.9"><path fill="#efefef" d="m531.5617 167.66273l134.70862 0l0 46.330704l-134.70862 0z" fill-rule="evenodd"/><path stroke="#595959" stroke-width="1.0" stroke-linejoin="round" stroke-linecap="butt" d="m531.5617 167.66273l134.70862 0l0 46.330704l-134.70862 0z" fill-rule="evenodd"/><path fill="#000000" d="m579.93994 182.18558l-0.828125 0l0 16.453125l1.296875 0l0 -7.15625l3.0625 0l0 -1.046875l-3.0625 0l0 -7.53125q0 -0.109375 0.03125 -0.203125q0.03125 -0.078125 0.078125 -0.1875q0.09375 -0.140625 0.03125 -0.203125q-0.109375 -0.09375 -0.609375 -0.125zm-12.328125 2.21875l0 1.09375l9.4375 0l0 -1.09375l-9.4375 0zm2.40625 2.796875l-0.953125 0l0.625 6.0625q-0.75 0 -1.71875 0q-0.953125 0 -1.484375 0l0.34375 1.09375q0.0625 0.25 0.140625 0.296875q0.046875 0.015625 0.1875 -0.078125q0.15625 -0.078125 0.28125 -0.109375q0.203125 -0.078125 0.421875 -0.078125l1.0 -0.0625q2.84375 -0.125 4.484375 -0.203125q2.8125 -0.15625 4.578125 -0.25l-0.09375 -1.0l-3.0 0.15625l0.640625 -4.984375q0.015625 -0.109375 0.078125 -0.203125q0.03125 -0.0625 0.125 -0.171875q0.15625 -0.171875 0.09375 -0.234375q-0.046875 -0.09375 -0.515625 -0.171875l-0.984375 -0.09375l-0.671875 5.921875l-2.671875 0.125l-0.46875 -5.328125q-0.015625 -0.109375 0.03125 -0.21875q0.015625 -0.046875 0.0625 -0.171875q0.078125 -0.140625 0.03125 -0.203125q-0.09375 -0.0625 -0.5625 -0.09375zm16.234375 -3.234375l0 11.625q2.9375 0 5.796875 -0.28125q2.828125 -0.265625 4.828125 -0.71875l-0.109375 -1.09375q-2.171875 0.53125 -4.96875 0.796875q-2.421875 0.25 -4.34375 0.203125l0 -4.859375l6.734375 0l0 -1.0l-6.734375 0l0 -3.6875l7.109375 0l0 -0.984375l-8.3125 0zm12.578125 -1.34375l-0.875 0l0 16.625l1.25 0l0 -15.9375q0 -0.109375 0.03125 -0.21875q0.046875 -0.0625 0.09375 -0.171875q0.109375 -0.1875 0.0625 -0.21875q-0.078125 -0.078125 -0.5625 -0.078125zm9.8125 0.71875q0.046875 2.59375 -1.421875 4.9375q-1.453125 2.328125 -3.75 3.421875l0.796875 1.015625q1.90625 -1.3125 2.9375 -2.46875q1.203125 -1.375 1.8125 -3.1875q0.453125 1.625 1.609375 3.140625q1.03125 1.296875 2.375 2.265625l0.890625 -0.984375q-1.828125 -0.921875 -3.078125 -2.921875q-1.296875 -2.109375 -1.03125 -4.078125q0.015625 -0.1875 0.078125 -0.375q0.03125 -0.09375 0.109375 -0.28125q0.125 -0.265625 0.109375 -0.359375q-0.046875 -0.125 -0.359375 -0.125l-1.078125 0zm4.25 2.21875l0 1.015625l4.0625 0l0 2.140625l-4.0625 0l0 1.03125l4.0625 0l0 5.234375l1.25 0l0 -11.796875q0 -0.078125 0.015625 -0.15625q0.015625 -0.046875 0.0625 -0.125q0.09375 -0.171875 0.046875 -0.203125q-0.046875 -0.078125 -0.390625 -0.078125l-0.984375 0l0 2.9375l-4.0625 0zm-5.203125 8.03125l-0.921875 0l0 5.234375l11.828125 0l0 -1.015625l-10.59375 0l0 -3.65625q0 -0.078125 0.015625 -0.15625q0.015625 -0.046875 0.0625 -0.125q0.078125 -0.171875 0.046875 -0.203125q-0.078125 -0.078125 -0.4375 -0.078125zm19.265625 3.78125l1.25 0l0 -13.28125l-1.09375 0q-0.09375 1.375 -0.90625 2.0q-0.828125 0.640625 -2.453125 0.640625l-0.09375 0l0 0.8125l0.203125 0q1.109375 0 1.875 -0.1875q0.765625 -0.1875 1.21875 -0.5625l0 10.578125z" fill-rule="nonzero"/></g><g filter="url(#shadowFilter-p.10)"><use xlink:href="#p.10" transform="matrix(1.0 0.0 0.0 1.0 0.0 2.0)"/></g><defs><filter id="shadowFilter-p.10" filterUnits="userSpaceOnUse"><feGaussianBlur in="SourceAlpha" stdDeviation="2.0" result="blur"/><feComponentTransfer in="blur" color-interpolation-filters="sRGB"><feFuncR type="linear" slope="0" intercept="0.0"/><feFuncG type="linear" slope="0" intercept="0.0"/><feFuncB type="linear" slope="0" intercept="0.0"/><feFuncA type="linear" slope="0.5" intercept="0"/></feComponentTransfer></filter></defs><g id="p.10"><path fill="#999999" d="m729.30707 167.41733l161.25989 0l0 46.330704l-161.25989 0z" fill-rule="evenodd"/><path stroke="#595959" stroke-width="1.0" stroke-linejoin="round" stroke-linecap="butt" d="m729.30707 167.41733l161.25989 0l0 46.330704l-161.25989 0z" fill-rule="evenodd"/><path fill="#000000" d="m777.71094 183.4558l0 1.046875l6.796875 0q-0.0625 0.609375 -0.203125 1.109375q-0.15625 0.484375 -0.5 1.140625q-1.765625 0.234375 -3.78125 0.375q-1.859375 0.15625 -3.109375 0.15625l0.453125 1.09375q0.125 0.25 0.21875 0.296875q0.078125 0.015625 0.28125 -0.09375q0.140625 -0.09375 0.234375 -0.140625q0.1875 -0.078125 0.390625 -0.109375l4.75 -0.546875q-0.734375 1.4375 -2.484375 2.8125q-1.78125 1.40625 -4.046875 2.28125l1.0 0.90625q3.296875 -1.453125 5.328125 -3.78125q2.359375 -2.703125 2.984375 -6.546875l-8.3125 0zm13.140625 -1.078125l-0.875 0l0 5.109375l-4.1875 0l0 1.03125l4.1875 0l0 6.109375l1.25 0l0 -11.5625q0 -0.109375 0.03125 -0.21875q0.046875 -0.0625 0.09375 -0.171875q0.109375 -0.1875 0.0625 -0.21875q-0.078125 -0.078125 -0.5625 -0.078125zm-10.140625 10.96875l-0.921875 0l0 5.234375l11.828125 0l0 -1.015625l-10.59375 0l0 -3.65625q0 -0.078125 0.015625 -0.15625q0.015625 -0.046875 0.0625 -0.125q0.078125 -0.171875 0.046875 -0.203125q-0.078125 -0.078125 -0.4375 -0.078125zm17.515625 -3.859375q2.140625 -0.78125 3.90625 -2.25q1.671875 -1.375 2.234375 -2.671875q0.75 1.359375 2.21875 2.515625q1.671875 1.28125 3.984375 2.078125l0.578125 -1.125q-1.328125 -0.234375 -2.5625 -0.890625q-1.03125 -0.546875 -1.90625 -1.375q-0.765625 -0.671875 -1.203125 -1.359375q-0.40625 -0.640625 -0.375 -0.9375q0 -0.15625 0.078125 -0.328125q0.03125 -0.109375 0.140625 -0.296875q0.15625 -0.265625 0.140625 -0.359375q-0.015625 -0.109375 -0.390625 -0.109375l-1.15625 0q-0.09375 1.828125 -1.796875 3.515625q-1.765625 1.734375 -4.46875 2.53125l0.578125 1.0625zm14.0 1.765625l-15.65625 0l0 1.015625l3.6875 0l0 6.140625l1.203125 0l0 -6.140625l5.875 0l0 6.734375l1.203125 0l0 -6.734375l3.6875 0l0 -1.015625zm9.921875 -6.140625l0 8.109375l-5.21875 0l0 -8.109375l5.21875 0zm-6.46875 -1.046875l0 11.0l1.25 0l0 -0.8125l5.21875 0l0 0.5l1.25 0l0 -10.6875l-7.71875 0zm7.71875 4.921875l0 1.03125l4.578125 0l0 8.984375l1.25 0l0 -15.96875q0 -0.078125 0.015625 -0.171875q0.015625 -0.0625 0.078125 -0.140625q0.09375 -0.1875 0.046875 -0.25q-0.03125 -0.09375 -0.359375 -0.09375l-1.03125 0l0 6.609375l-4.578125 0zm14.578125 8.140625l1.25 0l0 -13.28125l-1.09375 0q-0.09375 1.375 -0.90625 2.0q-0.828125 0.640625 -2.453125 0.640625l-0.09375 0l0 0.8125l0.203125 0q1.109375 0 1.875 -0.1875q0.765625 -0.1875 1.21875 -0.5625l0 10.578125z" fill-rule="nonzero"/></g><path fill="#000000" fill-opacity="0.0" d="m666.2703 190.82808l63.02362 -0.25196838" fill-rule="evenodd"/><path stroke="#595959" stroke-width="3.0" stroke-linejoin="round" stroke-linecap="butt" d="m666.2703 190.82808l45.023804 -0.17999268" fill-rule="evenodd"/><path fill="#595959" stroke="#595959" stroke-width="3.0" stroke-linecap="butt" d="m711.3139 195.60324l13.59436 -5.009598l-13.633972 -4.9007263z" fill-rule="evenodd"/><path fill="#000000" d="m483.7743 218.13911l-19.338593 0l-19.338593 -59.527573l19.338593 -59.52755l19.338593 0l-19.338593 59.52755z" fill-rule="evenodd"/><path stroke="#595959" stroke-width="1.0" stroke-linejoin="round" stroke-linecap="butt" d="m483.7743 218.13911l-19.338593 0l-19.338593 -59.527573l19.338593 -59.52755l19.338593 0l-19.338593 59.52755z" fill-rule="evenodd"/></g></svg>