<svg version="1.1" viewBox="0.0 0.0 961.6115485564304 365.0997375328084" fill="none" stroke="none" stroke-linecap="square" stroke-miterlimit="10" xmlns:xlink="http://www.w3.org/1999/xlink" xmlns="http://www.w3.org/2000/svg"><clipPath id="p.0"><path d="m0 0l961.6116 0l0 365.09973l-961.6116 0l0 -365.09973z" clip-rule="nonzero"/></clipPath><g clip-path="url(#p.0)"><path fill="#000000" fill-opacity="0.0" d="m0 0l961.6116 0l0 365.09973l-961.6116 0z" fill-rule="evenodd"/><g filter="url(#shadowFilter-p.1)"><use xlink:href="#p.1" transform="matrix(1.0 0.0 0.0 1.0 0.0 2.0)"/></g><defs><filter id="shadowFilter-p.1" filterUnits="userSpaceOnUse"><feGaussianBlur in="SourceAlpha" stdDeviation="2.0" result="blur"/><feComponentTransfer in="blur" color-interpolation-filters="sRGB"><feFuncR type="linear" slope="0" intercept="0.0"/><feFuncG type="linear" slope="0" intercept="0.0"/><feFuncB type="linear" slope="0" intercept="0.0"/><feFuncA type="linear" slope="0.5" intercept="0"/></feComponentTransfer></filter></defs><g id="p.1"><path fill="#999999" d="m10.503937 7.0183725l775.68506 0l0 345.5748l-775.68506 0z" fill-rule="evenodd"/><path stroke="#595959" stroke-width="1.0" stroke-linejoin="round" stroke-linecap="butt" d="m10.503937 7.0183725l775.68506 0l0 345.5748l-775.68506 0z" fill-rule="evenodd"/></g><path fill="#000000" fill-opacity="0.0" d="m282.4252 310.57742l231.8425 0l0 42.015747l-231.8425 0z" fill-rule="evenodd"/><path fill="#000000" d="m316.2548 330.7943l-2.3125 0l0.578125 -5.03125q0.015625 -0.265625 -0.140625 -0.4375q-0.140625 -0.125 -0.359375 -0.15625q-0.21875 -0.015625 -0.390625 0.09375q-0.171875 0.140625 -0.1875 0.390625l-0.59375 5.140625l-5.1875 0l-0.578125 -5.15625q-0.03125 -0.25 -0.21875 -0.390625q-0.171875 -0.109375 -0.390625 -0.09375q-0.21875 0.015625 -0.359375 0.15625q-0.15625 0.15625 -0.125 0.421875l0.578125 5.0625l-2.3125 0q-0.46875 0 -0.46875 0.46875q-0.03125 0.484375 0.421875 0.484375l12.078125 0q0.46875 0 0.4375 -0.484375q0 -0.46875 -0.46875 -0.46875zm-0.078125 -7.375l-11.890625 0q-0.53125 0 -0.5 0.484375q0 0.46875 0.5 0.46875l11.96875 0q0.21875 0 0.34375 -0.15625q0.125 -0.140625 0.109375 -0.3125q0 -0.21875 -0.125 -0.34375q-0.171875 -0.140625 -0.40625 -0.140625zm1.265625 12.796875l-14.390625 0q-0.25 0 -0.40625 0.125q-0.125 0.15625 -0.140625 0.34375q-0.03125 0.1875 0.09375 0.328125q0.109375 0.15625 0.3125 0.15625l14.671875 0q0.203125 0 0.3125 -0.15625q0.109375 -0.140625 0.109375 -0.328125q-0.015625 -0.1875 -0.15625 -0.34375q-0.15625 -0.125 -0.40625 -0.125zm15.90625 -12.796875l-9.671875 0q-0.5625 0 -0.5625 0.484375q0 0.46875 0.53125 0.46875l9.53125 0q0.453125 0 0.65625 0.140625q0.234375 0.140625 0.234375 0.515625l0 1.515625q0 0.28125 -0.25 0.4375q-0.203125 0.125 -0.609375 0.125l-8.421875 0q-0.84375 0 -1.296875 0.46875q-0.40625 0.421875 -0.40625 1.109375l0 2.0q0 0.765625 0.40625 1.203125q0.40625 0.4375 1.109375 0.4375l10.46875 0q0.234375 0 0.359375 -0.15625q0.140625 -0.140625 0.140625 -0.328125q0 -0.1875 -0.15625 -0.34375q-0.140625 -0.125 -0.390625 -0.125l-9.984375 0q-0.46875 0 -0.671875 -0.171875q-0.1875 -0.15625 -0.1875 -0.53125l0 -1.875q0 -0.390625 0.1875 -0.5625q0.171875 -0.15625 0.625 -0.15625l8.390625 0q0.921875 0 1.328125 -0.3125q0.46875 -0.34375 0.46875 -1.125l0 -1.71875q0 -0.75 -0.46875 -1.140625q-0.46875 -0.359375 -1.359375 -0.359375zm-4.609375 9.171875l0 3.625l-6.6875 0q-0.25 0 -0.40625 0.125q-0.125 0.15625 -0.140625 0.34375q-0.03125 0.1875 0.09375 0.328125q0.109375 0.15625 0.3125 0.15625l14.5625 0q0.234375 0 0.390625 -0.15625q0.140625 -0.140625 0.140625 -0.328125q0 -0.1875 -0.140625 -0.34375q-0.15625 -0.125 -0.40625 -0.125l-6.640625 0l0 -3.546875q0 -0.25 -0.1875 -0.40625q-0.15625 -0.140625 -0.359375 -0.140625q-0.21875 -0.03125 -0.375 0.109375q-0.15625 0.125 -0.15625 0.359375zm25.21875 -9.171875l-10.15625 0q-0.890625 0 -1.359375 0.4375q-0.453125 0.453125 -0.453125 1.234375l0 3.171875q0 0.71875 0.453125 1.125q0.484375 0.421875 1.328125 0.421875l10.484375 0q0.21875 0 0.359375 -0.140625q0.109375 -0.125 0.109375 -0.3125q0 -0.203125 -0.140625 -0.34375q-0.15625 -0.125 -0.40625 -0.125l-10.203125 0q-0.5 0 -0.6875 -0.1875q-0.1875 -0.1875 -0.1875 -0.625l0 -2.953125q0 -0.40625 0.1875 -0.59375q0.203125 -0.171875 0.671875 -0.171875l10.09375 0q0.21875 0 0.34375 -0.140625q0.125 -0.15625 0.109375 -0.34375q0 -0.1875 -0.140625 -0.328125q-0.15625 -0.125 -0.40625 -0.125zm1.546875 8.71875l-14.453125 0q-0.53125 0 -0.546875 0.453125q-0.046875 0.484375 0.453125 0.484375l3.5 0l0 1.453125q0 0.8125 -0.296875 1.546875q-0.28125 0.65625 -0.828125 1.203125q-0.1875 0.15625 -0.140625 0.40625q0.015625 0.203125 0.203125 0.375q0.171875 0.140625 0.390625 0.15625q0.21875 0.03125 0.40625 -0.140625q0.609375 -0.640625 0.984375 -1.5625q0.390625 -0.96875 0.390625 -1.96875l0 -1.46875l5.921875 0l0 4.8125q0 0.265625 0.15625 0.421875q0.15625 0.140625 0.375 0.140625q0.21875 0 0.375 -0.15625q0.1875 -0.171875 0.1875 -0.421875l0 -4.796875l2.96875 0q0.453125 0 0.453125 -0.484375q-0.015625 -0.453125 -0.5 -0.453125zm8.671875 -8.265625q0 2.921875 -1.15625 6.28125q-1.203125 3.5 -3.125 5.921875q-0.203125 0.21875 -0.203125 0.453125q0.015625 0.203125 0.15625 0.34375q0.15625 0.125 0.359375 0.125q0.21875 -0.015625 0.390625 -0.203125q1.296875 -1.734375 2.265625 -3.609375q0.734375 -1.5 1.25 -3.03125q1.125 1.390625 2.3125 3.21875q1.125 1.765625 1.84375 3.21875q0.109375 0.234375 0.359375 0.3125q0.21875 0.0625 0.421875 -0.03125q0.21875 -0.125 0.28125 -0.34375q0.09375 -0.234375 -0.0625 -0.5q-0.890625 -1.625 -2.140625 -3.453125q-1.1875 -1.734375 -2.65625 -3.546875q0.375 -1.421875 0.578125 -2.734375q0.21875 -1.359375 0.21875 -2.421875q0 -0.25 -0.1875 -0.40625q-0.140625 -0.140625 -0.375 -0.140625q-0.21875 0 -0.359375 0.140625q-0.171875 0.15625 -0.171875 0.40625zm9.046875 13.984375l0 -14.375q0 -0.265625 -0.171875 -0.421875q-0.15625 -0.125 -0.375 -0.125q-0.25 0 -0.390625 0.125q-0.171875 0.15625 -0.171875 0.421875l0 5.984375l-4.96875 0q-0.28125 0 -0.453125 0.125q-0.140625 0.125 -0.140625 0.328125q0 0.1875 0.171875 0.328125q0.15625 0.140625 0.453125 0.140625l4.9375 0l0 7.46875q0 0.265625 0.171875 0.4375q0.140625 0.171875 0.390625 0.171875q0.21875 0 0.375 -0.171875q0.171875 -0.171875 0.171875 -0.4375z" fill-rule="nonzero"/><path fill="#000000" d="m387.70374 323.38806q-1.703125 0 -2.609375 2.0625q-0.796875 1.84375 -0.796875 4.75q0 2.875 0.796875 4.703125q0.90625 2.078125 2.609375 2.078125q1.71875 0 2.625 -2.078125q0.8125 -1.828125 0.8125 -4.703125q0 -2.90625 -0.8125 -4.75q-0.90625 -2.0625 -2.625 -2.0625zm0 0.953125q1.171875 0 1.78125 1.765625q0.546875 1.53125 0.546875 4.09375q0 2.515625 -0.546875 4.0625q-0.609375 1.78125 -1.78125 1.78125q-1.1875 0 -1.78125 -1.78125q-0.515625 -1.546875 -0.515625 -4.0625q0 -2.53125 0.515625 -4.09375q0.59375 -1.765625 1.78125 -1.765625zm9.140625 -0.953125l0 6.90625l-2.640625 0l0 -6.90625q0 -0.46875 -0.5625 -0.46875q-0.53125 0 -0.53125 0.46875l0 14.5q0 0.265625 0.171875 0.421875q0.140625 0.140625 0.359375 0.140625q0.234375 0 0.375 -0.140625q0.1875 -0.15625 0.1875 -0.421875l0 -6.6875l2.640625 0l0 6.71875q0 0.25 0.15625 0.390625q0.15625 0.140625 0.375 0.140625q0.203125 0 0.359375 -0.15625q0.171875 -0.140625 0.171875 -0.390625l0 -14.515625q0 -0.46875 -0.53125 -0.46875q-0.53125 0 -0.53125 0.46875zm19.53125 -0.25l-11.90625 0q-0.53125 0 -0.5 0.46875q0 0.46875 0.5 0.46875l11.96875 0q0.21875 0 0.359375 -0.140625q0.109375 -0.15625 0.109375 -0.328125q0 -0.1875 -0.140625 -0.34375q-0.15625 -0.125 -0.390625 -0.125zm0.0625 4.484375l-2.28125 0l0.5625 -2.6875q0.0625 -0.234375 -0.09375 -0.40625q-0.125 -0.15625 -0.359375 -0.171875q-0.234375 -0.015625 -0.40625 0.09375q-0.21875 0.109375 -0.234375 0.375l-0.578125 2.796875l-5.21875 0l-0.578125 -2.859375q-0.046875 -0.25 -0.21875 -0.390625q-0.1875 -0.109375 -0.421875 -0.09375q-0.21875 0.03125 -0.34375 0.171875q-0.15625 0.171875 -0.09375 0.421875l0.5625 2.75l-2.296875 0q-0.46875 0 -0.46875 0.46875q-0.03125 0.484375 0.421875 0.484375l12.140625 0q0.421875 0 0.375 -0.484375q-0.015625 -0.46875 -0.46875 -0.46875zm1.203125 2.515625l-14.40625 0q-0.53125 0 -0.546875 0.4375q0 0.46875 0.515625 0.46875l14.515625 0q0.21875 0 0.359375 -0.15625q0.109375 -0.125 0.109375 -0.3125q0 -0.1875 -0.140625 -0.3125q-0.15625 -0.125 -0.40625 -0.125zm-2.640625 2.21875l-10.296875 0q-0.5625 0 -0.578125 0.46875q0 0.484375 0.5625 0.484375l10.1875 0q0.390625 0 0.546875 0.125q0.171875 0.140625 0.171875 0.46875l0 0.453125q0 0.25 -0.1875 0.359375q-0.15625 0.109375 -0.5 0.109375l-9.3125 0q-0.6875 0 -1.0625 0.359375q-0.359375 0.359375 -0.359375 0.96875l0 0.828125q0 0.578125 0.34375 0.90625q0.359375 0.359375 0.984375 0.359375l10.90625 0q0.25 0 0.375 -0.15625q0.125 -0.140625 0.125 -0.328125q-0.015625 -0.1875 -0.140625 -0.34375q-0.171875 -0.125 -0.421875 -0.125l-10.4375 0q-0.328125 0 -0.484375 -0.109375q-0.140625 -0.109375 -0.140625 -0.390625l0 -0.453125q0 -0.265625 0.125 -0.421875q0.15625 -0.140625 0.515625 -0.140625l9.421875 0q0.59375 0 0.96875 -0.390625q0.390625 -0.359375 0.390625 -0.890625l0 -0.890625q0 -0.578125 -0.515625 -0.9375q-0.484375 -0.3125 -1.1875 -0.3125zm13.328125 -8.890625l-5.3125 0q-0.59375 0 -0.59375 0.46875q-0.015625 0.46875 0.5625 0.46875l4.984375 0q0.5625 0 0.8125 0.15625q0.265625 0.1875 0.265625 0.5625l0 3.171875q0 0.40625 -0.1875 0.53125q-0.15625 0.15625 -0.625 0.15625l-3.984375 0q-0.828125 0 -1.28125 0.484375q-0.453125 0.453125 -0.453125 1.21875l0 4.375q0 0.84375 0.421875 1.328125q0.46875 0.515625 1.390625 0.515625q2.234375 0 4.28125 -0.328125q2.296875 -0.359375 3.828125 -1.046875q0.46875 -0.234375 0.265625 -0.703125q-0.1875 -0.46875 -0.671875 -0.203125q-1.34375 0.609375 -3.28125 0.96875q-2.0 0.359375 -4.140625 0.359375q-0.546875 0 -0.78125 -0.234375q-0.21875 -0.203125 -0.21875 -0.71875l0 -4.15625q0 -0.484375 0.171875 -0.6875q0.1875 -0.203125 0.640625 -0.203125l3.953125 0q0.875 0 1.296875 -0.390625q0.4375 -0.375 0.4375 -1.078125l0 -3.609375q0 -0.671875 -0.484375 -1.046875q-0.484375 -0.359375 -1.296875 -0.359375zm7.078125 14.40625l0 -14.4375q0 -0.25 -0.171875 -0.390625q-0.15625 -0.109375 -0.375 -0.109375q-0.25 0 -0.390625 0.109375q-0.171875 0.140625 -0.171875 0.390625l0 14.4375q0 0.25 0.171875 0.421875q0.140625 0.15625 0.390625 0.15625q0.21875 0 0.375 -0.15625q0.171875 -0.171875 0.171875 -0.421875zm10.34375 -9.0q-0.9375 0.125 -1.96875 0.234375q-1.359375 0.15625 -2.265625 0.15625q-0.28125 0 -0.4375 0.140625q-0.140625 0.140625 -0.140625 0.34375q0 0.171875 0.140625 0.3125q0.15625 0.15625 0.4375 0.15625q1.078125 0 2.4375 -0.15625q1.046875 -0.109375 1.90625 -0.265625q0.5 -0.109375 0.4375 -0.578125q-0.046875 -0.453125 -0.546875 -0.34375zm0.09375 -5.390625l-4.078125 0q-0.28125 0 -0.4375 0.140625q-0.125 0.140625 -0.125 0.328125q0 0.1875 0.125 0.328125q0.171875 0.15625 0.453125 0.15625l3.875 0q0.515625 0 0.765625 0.21875q0.21875 0.21875 0.21875 0.65625l0 3.3125q0 3.046875 -1.4375 5.046875q-1.4375 2.078125 -3.96875 2.421875q-0.59375 0.0625 -0.53125 0.546875q0.046875 0.46875 0.609375 0.40625q2.90625 -0.359375 4.640625 -2.609375q1.78125 -2.3125 1.78125 -6.015625l0 -3.390625q0 -0.671875 -0.546875 -1.109375q-0.53125 -0.4375 -1.34375 -0.4375zm4.546875 -0.0625l0 6.0625l-3.40625 0l0 0.921875l3.40625 0l0 7.484375q0 0.265625 0.15625 0.421875q0.15625 0.140625 0.375 0.140625q0.21875 0 0.375 -0.140625q0.1875 -0.15625 0.1875 -0.421875l0 -14.46875q0 -0.5 -0.5625 -0.5q-0.53125 0 -0.53125 0.5zm4.515625 14.453125l0 -14.453125q0 -0.25 -0.171875 -0.375q-0.15625 -0.125 -0.359375 -0.125q-0.21875 0 -0.375 0.125q-0.15625 0.140625 -0.15625 0.390625l0 14.4375q0 0.25 0.15625 0.421875q0.15625 0.15625 0.375 0.15625q0.203125 0 0.359375 -0.15625q0.171875 -0.171875 0.171875 -0.421875zm9.65625 -14.484375q-2.046875 0 -3.203125 2.0625q-1.0625 1.890625 -1.0625 4.75q0 2.828125 1.0625 4.703125q1.15625 2.078125 3.203125 2.078125q2.0 0 3.15625 -2.078125q1.0625 -1.875 1.0625 -4.703125q0 -2.859375 -1.0625 -4.75q-1.15625 -2.0625 -3.15625 -2.0625zm0 0.953125q1.484375 0 2.34375 1.765625q0.765625 1.609375 0.765625 4.09375q0 2.4375 -0.765625 4.0625q-0.859375 1.78125 -2.34375 1.78125q-1.515625 0 -2.375 -1.78125q-0.78125 -1.625 -0.78125 -4.0625q0 -2.484375 0.78125 -4.09375q0.859375 -1.765625 2.375 -1.765625zm8.84375 13.53125l0 -14.4375q0 -0.25 -0.171875 -0.390625q-0.15625 -0.109375 -0.375 -0.109375q-0.25 0 -0.390625 0.109375q-0.171875 0.140625 -0.171875 0.390625l0 14.4375q0 0.25 0.171875 0.421875q0.140625 0.15625 0.390625 0.15625q0.21875 0 0.375 -0.15625q0.171875 -0.171875 0.171875 -0.421875zm9.796875 -14.015625q0 2.359375 -1.15625 4.609375q-1.140625 2.171875 -3.015625 3.625q-0.234375 0.171875 -0.28125 0.421875q-0.015625 0.203125 0.125 0.359375q0.140625 0.15625 0.328125 0.1875q0.21875 0.015625 0.40625 -0.125q1.34375 -1.09375 2.359375 -2.4375q0.796875 -1.078125 1.359375 -2.21875q1.125 0.828125 2.140625 1.8125q1.140625 1.078125 2.125 2.328125q0.15625 0.203125 0.421875 0.21875q0.203125 0 0.390625 -0.15625q0.171875 -0.15625 0.1875 -0.390625q0.015625 -0.25 -0.171875 -0.5q-1.171875 -1.3125 -2.296875 -2.3125q-1.15625 -1.046875 -2.4375 -1.90625q0.3125 -0.859375 0.46875 -1.765625q0.171875 -0.875 0.171875 -1.75q0 -0.25 -0.1875 -0.40625q-0.15625 -0.125 -0.375 -0.125q-0.234375 0 -0.390625 0.125q-0.171875 0.15625 -0.171875 0.40625zm9.203125 9.796875l0 -10.234375q0 -0.25 -0.171875 -0.375q-0.15625 -0.125 -0.375 -0.125q-0.25 0 -0.390625 0.125q-0.171875 0.140625 -0.171875 0.390625l0 1.765625l-4.328125 0q-0.234375 0 -0.375 0.125q-0.125 0.140625 -0.125 0.328125q0.03125 0.1875 0.171875 0.34375q0.171875 0.140625 0.453125 0.140625l4.203125 0l0 2.125l-4.359375 0q-0.59375 0 -0.59375 0.453125q0 0.484375 0.578125 0.484375l4.375 0l0 4.453125q0 0.28125 0.171875 0.453125q0.140625 0.140625 0.390625 0.140625q0.21875 0 0.375 -0.140625q0.171875 -0.171875 0.171875 -0.453125zm-10.8125 0.21875q0 -0.296875 -0.1875 -0.453125q-0.140625 -0.15625 -0.375 -0.15625q-0.234375 0 -0.375 0.15625q-0.171875 0.15625 -0.171875 0.453125l0 2.46875q0 0.828125 0.515625 1.25q0.484375 0.40625 1.3125 0.40625l10.1875 0q0.46875 0 0.46875 -0.484375q0 -0.46875 -0.46875 -0.46875l-10.0 0q-0.53125 0 -0.71875 -0.15625q-0.1875 -0.1875 -0.1875 -0.6875l0 -2.328125z" fill-rule="nonzero"/><path fill="#000000" fill-opacity="0.0" d="m770.7664 171.20473l44.031494 0" fill-rule="evenodd"/><path stroke="#595959" stroke-width="3.0" stroke-linejoin="round" stroke-linecap="butt" d="m770.7664 171.20473l26.031494 0" fill-rule="evenodd"/><path fill="#595959" stroke="#595959" stroke-width="3.0" stroke-linecap="butt" d="m796.7979 176.15993l13.614258 -4.9552l-13.614258 -4.9552z" fill-rule="evenodd"/><g filter="url(#shadowFilter-p.2)"><use xlink:href="#p.2" transform="matrix(1.0 0.0 0.0 1.0 0.0 2.0)"/></g><defs><filter id="shadowFilter-p.2" filterUnits="userSpaceOnUse"><feGaussianBlur in="SourceAlpha" stdDeviation="2.0" result="blur"/><feComponentTransfer in="blur" color-interpolation-filters="sRGB"><feFuncR type="linear" slope="0" intercept="0.0"/><feFuncG type="linear" slope="0" intercept="0.0"/><feFuncB type="linear" slope="0" intercept="0.0"/><feFuncA type="linear" slope="0.5" intercept="0"/></feComponentTransfer></filter></defs><g id="p.2"><path fill="#999999" d="m814.7874 131.64699l134.70862 0l0 79.1181l-134.70862 0z" fill-rule="evenodd"/><path stroke="#595959" stroke-width="1.0" stroke-linejoin="round" stroke-linecap="butt" d="m814.7874 131.64699l134.70862 0l0 79.1181l-134.70862 0z" fill-rule="evenodd"/><path fill="#000000" d="m856.0167 153.68854l0 1.03125l6.953125 0q-0.09375 0.8125 -0.234375 1.5q-0.15625 0.703125 -0.40625 1.5q-1.578125 0.21875 -3.78125 0.375q-1.921875 0.125 -3.234375 0.125l0.4375 1.078125q0.140625 0.25 0.234375 0.28125q0.0625 0.015625 0.25 -0.09375q0.15625 -0.09375 0.265625 -0.140625q0.1875 -0.09375 0.390625 -0.109375l5.0 -0.484375q-0.828125 1.84375 -2.71875 3.453125q-1.90625 1.65625 -4.171875 2.390625l1.015625 1.03125q3.53125 -1.578125 5.5625 -4.265625q2.328125 -3.078125 2.75 -7.671875l-8.3125 0zm12.484375 -1.6875l-0.78125 0l0 16.625l1.25 0l0 -8.453125l2.9375 0l0 -1.046875l-2.9375 0l0 -6.421875q0 -0.09375 0.015625 -0.1875q0.015625 -0.0625 0.078125 -0.15625q0.109375 -0.203125 0.03125 -0.265625q-0.09375 -0.09375 -0.59375 -0.09375zm7.703125 1.34375l0 0.953125l11.875 0l0 -0.953125l-11.875 0zm3.1875 1.8125l-0.875 0l0.5625 4.421875l-2.609375 0l0 0.9375l11.34375 0l0 -0.9375l-2.671875 0l0.5 -3.703125q0.03125 -0.109375 0.09375 -0.21875q0.046875 -0.046875 0.140625 -0.140625q0.125 -0.140625 0.09375 -0.1875q-0.046875 -0.078125 -0.40625 -0.140625l-0.984375 -0.15625l-0.59375 4.546875l-3.703125 0l-0.453125 -3.8125q-0.03125 -0.09375 0.015625 -0.203125q0.015625 -0.046875 0.046875 -0.140625q0.09375 -0.15625 0.046875 -0.203125q-0.09375 -0.0625 -0.546875 -0.0625zm-5.078125 10.078125l0 1.015625l15.65625 0l0 -1.015625l-15.65625 0zm19.703125 -11.546875l0 1.03125l6.953125 0q-0.09375 0.8125 -0.234375 1.5q-0.15625 0.703125 -0.40625 1.5q-1.578125 0.21875 -3.78125 0.375q-1.921875 0.125 -3.234375 0.125l0.4375 1.078125q0.140625 0.25 0.234375 0.28125q0.0625 0.015625 0.25 -0.09375q0.15625 -0.09375 0.265625 -0.140625q0.1875 -0.09375 0.390625 -0.109375l5.0 -0.484375q-0.828125 1.84375 -2.71875 3.453125q-1.90625 1.65625 -4.171875 2.390625l1.015625 1.03125q3.53125 -1.578125 5.5625 -4.265625q2.328125 -3.078125 2.75 -7.671875l-8.3125 0zm12.484375 -1.6875l-0.78125 0l0 16.625l1.25 0l0 -8.453125l2.9375 0l0 -1.046875l-2.9375 0l0 -6.421875q0 -0.09375 0.015625 -0.1875q0.015625 -0.0625 0.078125 -0.15625q0.109375 -0.203125 0.03125 -0.265625q-0.09375 -0.09375 -0.59375 -0.09375z" fill-rule="nonzero"/><path fill="#000000" d="m847.9855 174.40729l0 1.078125l10.046875 0l-0.015625 1.796875q-2.953125 0.234375 -5.9375 0.390625q-3.03125 0.1875 -4.515625 0.1875l0.328125 1.0625q0.09375 0.28125 0.203125 0.3125q0.0625 0.015625 0.265625 -0.09375q0.15625 -0.078125 0.265625 -0.125q0.1875 -0.0625 0.390625 -0.078125l8.984375 -0.6875q-0.078125 0.75 -0.171875 1.375q-0.125 0.8125 -0.328125 1.78125l1.1875 0.125q0.3125 -1.546875 0.453125 -3.0625q0.15625 -1.6875 0.15625 -4.0625l-11.3125 0zm-2.171875 6.375l0 1.015625l15.65625 0l0 -1.015625l-15.65625 0zm2.15625 2.90625l0 1.015625l10.15625 0l0 1.75l-10.15625 0l0 3.953125l11.609375 0l0 -1.015625l-10.453125 0l0 -1.921875l10.1875 0l0 -3.78125l-11.34375 0zm17.46875 -8.203125l0 1.015625l6.25 0l0 3.328125l-6.046875 0l0 6.515625q2.46875 0 4.390625 -0.109375q2.421875 -0.15625 4.265625 -0.484375l-0.15625 -1.109375q-1.296875 0.359375 -3.65625 0.515625q-1.84375 0.109375 -3.609375 0.09375l0 -4.421875l6.0625 0l0 -5.34375l-7.5 0zm8.203125 5.234375l0 1.015625l3.71875 0l0 8.34375l1.25 0l0 -15.6875q0 -0.078125 0.046875 -0.171875q0.015625 -0.046875 0.078125 -0.140625q0.078125 -0.203125 0.046875 -0.25q-0.046875 -0.078125 -0.390625 -0.078125l-1.03125 0l0 6.96875l-3.71875 0zm18.359375 -5.265625l-1.0625 -0.109375q0 2.796875 -2.0 4.5625q-1.84375 1.59375 -5.09375 2.125l1.0625 1.0625q2.453125 -0.5 4.296875 -1.8125q1.90625 -1.375 2.375 -3.0625q0.53125 1.796875 2.75 3.203125q1.953125 1.25 3.921875 1.546875l0.921875 -1.15625q-1.328125 0 -2.59375 -0.515625q-1.1875 -0.484375 -2.140625 -1.3125q-0.9375 -0.8125 -1.515625 -1.8125q-0.578125 -1.015625 -0.6875 -1.984375q0 -0.109375 0.0625 -0.21875q0.015625 -0.09375 0.09375 -0.1875q0.078125 -0.125 0.046875 -0.1875q-0.046875 -0.09375 -0.4375 -0.140625zm-8.515625 11.65625l0 1.1875l16.140625 0l0 -1.1875l-16.140625 0zm32.765625 -13.203125l-0.890625 0l0 7.046875l-3.640625 0l0 1.046875l3.640625 0l0 8.140625l1.25 0l0 -15.5q0 -0.125 0.0625 -0.234375q0.015625 -0.046875 0.109375 -0.140625q0.109375 -0.15625 0.0625 -0.203125q-0.09375 -0.09375 -0.59375 -0.15625zm-13.0 2.234375l0 9.921875q2.515625 0 4.984375 -0.140625q2.484375 -0.171875 4.546875 -0.484375l-0.140625 -1.03125q-2.1875 0.328125 -4.578125 0.484375q-1.9375 0.09375 -3.578125 0.078125l0 -3.578125l5.96875 0l0 -1.03125l-5.96875 0l0 -3.203125l6.6875 0l0 -1.015625l-7.921875 0z" fill-rule="nonzero"/></g><g filter="url(#shadowFilter-p.3)"><use xlink:href="#p.3" transform="matrix(1.0 0.0 0.0 1.0 0.0 2.0)"/></g><defs><filter id="shadowFilter-p.3" filterUnits="userSpaceOnUse"><feGaussianBlur in="SourceAlpha" stdDeviation="2.0" result="blur"/><feComponentTransfer in="blur" color-interpolation-filters="sRGB"><feFuncR type="linear" slope="0" intercept="0.0"/><feFuncG type="linear" slope="0" intercept="0.0"/><feFuncB type="linear" slope="0" intercept="0.0"/><feFuncA type="linear" slope="0.5" intercept="0"/></feComponentTransfer></filter></defs><g id="p.3"><path fill="#efefef" d="m22.13605 67.08137l167.2441 0l0 208.25198l-167.2441 0z" fill-rule="evenodd"/><path stroke="#595959" stroke-width="1.0" stroke-linejoin="round" stroke-linecap="butt" d="m22.13605 67.08137l167.2441 0l0 208.25198l-167.2441 0z" fill-rule="evenodd"/></g><path fill="#000000" fill-opacity="0.0" d="m22.136036 67.08137l167.2441 0l0 42.015747l-167.2441 0z" fill-rule="evenodd"/><path fill="#000000" d="m39.275173 94.001366l0 -13.359375l5.046875 0q1.328125 0 2.03125 0.125q0.96875 0.171875 1.640625 0.640625q0.671875 0.453125 1.078125 1.28125q0.40625 0.828125 0.40625 1.828125q0 1.703125 -1.09375 2.890625q-1.078125 1.171875 -3.921875 1.171875l-3.421875 0l0 5.421875l-1.765625 0zm1.765625 -7.0l3.453125 0q1.71875 0 2.4375 -0.640625q0.71875 -0.640625 0.71875 -1.796875q0 -0.84375 -0.421875 -1.4375q-0.421875 -0.59375 -1.125 -0.78125q-0.4375 -0.125 -1.640625 -0.125l-3.421875 0l0 4.78125zm10.459198 7.0l0 -9.671875l1.46875 0l0 1.46875q0.5625 -1.03125 1.03125 -1.359375q0.484375 -0.328125 1.0625 -0.328125q0.828125 0 1.6875 0.53125l-0.5625 1.515625q-0.609375 -0.359375 -1.203125 -0.359375q-0.546875 0 -0.96875 0.328125q-0.421875 0.328125 -0.609375 0.890625q-0.28125 0.875 -0.28125 1.921875l0 5.0625l-1.625 0zm5.618927 -4.84375q0 -2.6875 1.484375 -3.96875q1.25 -1.078125 3.046875 -1.078125q2.0 0 3.2656212 1.3125q1.265625 1.296875 1.265625 3.609375q0 1.859375 -0.5625 2.9375q-0.5625 1.0625 -1.6406212 1.65625q-1.0625 0.59375 -2.328125 0.59375q-2.03125 0 -3.28125 -1.296875q-1.25 -1.3125 -1.25 -3.765625zm1.6875 0q0 1.859375 0.796875 2.796875q0.8125 0.921875 2.046875 0.921875q1.21875 0 2.03125 -0.921875q0.8124962 -0.9375 0.8124962 -2.84375q0 -1.796875 -0.8124962 -2.71875q-0.8125 -0.921875 -2.03125 -0.921875q-1.234375 0 -2.046875 0.921875q-0.796875 0.90625 -0.796875 2.765625zm15.563213 4.84375l0 -1.21875q-0.90625 1.4375 -2.703125 1.4375q-1.15625 0 -2.125 -0.640625q-0.96875 -0.640625 -1.5 -1.78125q-0.53125 -1.140625 -0.53125 -2.625q0 -1.453125 0.484375 -2.625q0.484375 -1.1875 1.4375 -1.8125q0.96875 -0.625 2.171875 -0.625q0.875 0 1.546875 0.375q0.6875 0.359375 1.109375 0.953125l0 -4.796875l1.640625 0l0 13.359375l-1.53125 0zm-5.171875 -4.828125q0 1.859375 0.78125 2.78125q0.78125 0.921875 1.84375 0.921875q1.078125 0 1.828125 -0.875q0.75 -0.890625 0.75 -2.6875q0 -1.984375 -0.765625 -2.90625q-0.765625 -0.9375 -1.890625 -0.9375q-1.078125 0 -1.8125 0.890625q-0.734375 0.890625 -0.734375 2.8125zm15.610092 4.828125l0 -1.421875q-1.125 1.640625 -3.0625 1.640625q-0.859375 0 -1.609375 -0.328125q-0.734375 -0.328125 -1.09375 -0.828125q-0.359375 -0.5 -0.5 -1.21875q-0.109375 -0.46875 -0.109375 -1.53125l0 -5.984375l1.640625 0l0 5.359375q0 1.28125 0.109375 1.734375q0.15625 0.640625 0.65625 1.015625q0.5 0.375 1.234375 0.375q0.734375 0 1.375 -0.375q0.65625 -0.390625 0.921875 -1.03125q0.265625 -0.65625 0.265625 -1.890625l0 -5.1875l1.640625 0l0 9.671875l-1.46875 0zm10.360092 -3.546875l1.609375 0.21875q-0.265625 1.65625 -1.359375 2.609375q-1.078125 0.9375 -2.671875 0.9375q-1.984375 0 -3.1875 -1.296875q-1.203125 -1.296875 -1.203125 -3.71875q0 -1.578125 0.515625 -2.75q0.515625 -1.171875 1.578125 -1.75q1.0625 -0.59375 2.3125 -0.59375q1.578125 0 2.578125 0.796875q1.0 0.796875 1.28125 2.265625l-1.59375 0.234375q-0.234375 -0.96875 -0.8125 -1.453125q-0.578125 -0.5 -1.390625 -0.5q-1.234375 0 -2.015625 0.890625q-0.78125 0.890625 -0.78125 2.8125q0 1.953125 0.75 2.84375q0.75 0.875 1.953125 0.875q0.96875 0 1.609375 -0.59375q0.65625 -0.59375 0.828125 -1.828125zm9.640625 0.4375l1.6875 0.203125q-0.40625 1.484375 -1.484375 2.3125q-1.078125 0.8125 -2.765625 0.8125q-2.125 0 -3.375 -1.296875q-1.234375 -1.3125 -1.234375 -3.671875q0 -2.453125 1.25 -3.796875q1.265625 -1.34375 3.265625 -1.34375q1.9375 0 3.15625 1.328125q1.234375 1.3125 1.234375 3.703125q0 0.15625 0 0.4375l-7.21875 0q0.09375 1.59375 0.90625 2.453125q0.8125 0.84375 2.015625 0.84375q0.90625 0 1.546875 -0.46875q0.640625 -0.484375 1.015625 -1.515625zm-5.390625 -2.65625l5.40625 0q-0.109375 -1.21875 -0.625 -1.828125q-0.78125 -0.953125 -2.03125 -0.953125q-1.125 0 -1.90625 0.765625q-0.765625 0.75 -0.84375 2.015625zm9.125717 5.765625l0 -9.671875l1.46875 0l0 1.46875q0.5625 -1.03125 1.03125 -1.359375q0.484375 -0.328125 1.0625 -0.328125q0.828125 0 1.6875 0.53125l-0.5625 1.515625q-0.609375 -0.359375 -1.203125 -0.359375q-0.546875 0 -0.96875 0.328125q-0.421875 0.328125 -0.609375 0.890625q-0.28125 0.875 -0.28125 1.921875l0 5.0625l-1.625 0zm6.462677 0l0 -13.359375l5.921875 0q1.78125 0 2.703125 0.359375q0.9375 0.359375 1.484375 1.28125q0.5625 0.90625 0.5625 2.015625q0 1.40625 -0.921875 2.390625q-0.921875 0.96875 -2.84375 1.234375q0.703125 0.34375 1.078125 0.671875q0.765625 0.703125 1.453125 1.765625l2.328125 3.640625l-2.21875 0l-1.765625 -2.78125q-0.78125 -1.203125 -1.28125 -1.828125q-0.5 -0.640625 -0.90625 -0.890625q-0.390625 -0.265625 -0.796875 -0.359375q-0.296875 -0.078125 -0.984375 -0.078125l-2.046875 0l0 5.9375l-1.765625 0zm1.765625 -7.453125l3.796875 0q1.21875 0 1.890625 -0.25q0.6875 -0.265625 1.046875 -0.8125q0.359375 -0.546875 0.359375 -1.1875q0 -0.953125 -0.6875 -1.5625q-0.6875 -0.609375 -2.1875 -0.609375l-4.21875 0l0 4.421875zm18.097954 4.34375l1.6875 0.203125q-0.40625 1.484375 -1.484375 2.3125q-1.078125 0.8125 -2.765625 0.8125q-2.125 0 -3.375 -1.296875q-1.2343826 -1.3125 -1.2343826 -3.671875q0 -2.453125 1.2500076 -3.796875q1.265625 -1.34375 3.265625 -1.34375q1.9375 0 3.15625 1.328125q1.234375 1.3125 1.234375 3.703125q0 0.15625 0 0.4375l-7.21875 0q0.09375 1.59375 0.90625 2.453125q0.8125 0.84375 2.015625 0.84375q0.90625 0 1.546875 -0.46875q0.640625 -0.484375 1.015625 -1.515625zm-5.390625 -2.65625l5.40625 0q-0.109375 -1.21875 -0.625 -1.828125q-0.78125 -0.953125 -2.03125 -0.953125q-1.125 0 -1.90625 0.765625q-0.765625 0.75 -0.84375 2.015625zm15.453842 2.21875l1.609375 0.21875q-0.265625 1.65625 -1.359375 2.609375q-1.078125 0.9375 -2.671875 0.9375q-1.984375 0 -3.1875 -1.296875q-1.203125 -1.296875 -1.203125 -3.71875q0 -1.578125 0.515625 -2.75q0.515625 -1.171875 1.578125 -1.75q1.0625 -0.59375 2.3125 -0.59375q1.578125 0 2.578125 0.796875q1.0 0.796875 1.28125 2.265625l-1.59375 0.234375q-0.234375 -0.96875 -0.8125 -1.453125q-0.578125 -0.5 -1.390625 -0.5q-1.234375 0 -2.015625 0.890625q-0.78125 0.890625 -0.78125 2.8125q0 1.953125 0.75 2.84375q0.75 0.875 1.953125 0.875q0.96875 0 1.609375 -0.59375q0.65625 -0.59375 0.828125 -1.828125zm2.40625 -1.296875q0 -2.6875 1.484375 -3.96875q1.25 -1.078125 3.0468597 -1.078125q2.0 0 3.265625 1.3125q1.265625 1.296875 1.265625 3.609375q0 1.859375 -0.5625 2.9375q-0.5625 1.0625 -1.640625 1.65625q-1.0625 0.59375 -2.328125 0.59375q-2.0312347 0 -3.2812347 -1.296875q-1.25 -1.3125 -1.25 -3.765625zm1.6875 0q0 1.859375 0.796875 2.796875q0.81248474 0.921875 2.0468597 0.921875q1.21875 0 2.03125 -0.921875q0.8125 -0.9375 0.8125 -2.84375q0 -1.796875 -0.8125 -2.71875q-0.8125 -0.921875 -2.03125 -0.921875q-1.234375 0 -2.0468597 0.921875q-0.796875 0.90625 -0.796875 2.765625zm9.281967 4.84375l0 -9.671875l1.46875 0l0 1.46875q0.5625 -1.03125 1.03125 -1.359375q0.484375 -0.328125 1.0625 -0.328125q0.828125 0 1.6875 0.53125l-0.5625 1.515625q-0.609375 -0.359375 -1.203125 -0.359375q-0.546875 0 -0.96875 0.328125q-0.421875 0.328125 -0.609375 0.890625q-0.28125 0.875 -0.28125 1.921875l0 5.0625l-1.625 0zm12.493927 0l0 -1.21875q-0.90625 1.4375 -2.703125 1.4375q-1.15625 0 -2.125 -0.640625q-0.96875 -0.640625 -1.5 -1.78125q-0.53125 -1.140625 -0.53125 -2.625q0 -1.453125 0.484375 -2.625q0.484375 -1.1875 1.4375 -1.8125q0.96875 -0.625 2.171875 -0.625q0.875 0 1.546875 0.375q0.6875 0.359375 1.109375 0.953125l0 -4.796875l1.640625 0l0 13.359375l-1.53125 0zm-5.171875 -4.828125q0 1.859375 0.78125 2.78125q0.78125 0.921875 1.84375 0.921875q1.078125 0 1.828125 -0.875q0.75 -0.890625 0.75 -2.6875q0 -1.984375 -0.765625 -2.90625q-0.765625 -0.9375 -1.890625 -0.9375q-1.078125 0 -1.8125 0.890625q-0.734375 0.890625 -0.734375 2.8125z" fill-rule="nonzero"/><path shape-rendering="crispEdges" fill="#cccccc" d="m33.83049 109.0958l143.85301 0l0 29.958l-143.85301 0l0 -29.958z" fill-rule="nonzero"/><path shape-rendering="crispEdges" fill="#cccccc" d="m33.83049 139.0538l143.85301 0l0 29.958008l-143.85301 0l0 -29.958008z" fill-rule="nonzero"/><path shape-rendering="crispEdges" fill="#cccccc" d="m33.83049 169.01181l143.85301 0l0 29.958008l-143.85301 0l0 -29.958008z" fill-rule="nonzero"/><path shape-rendering="crispEdges" fill="#cccccc" d="m33.83049 198.96982l143.85301 0l0 29.958008l-143.85301 0l0 -29.958008z" fill-rule="nonzero"/><path shape-rendering="crispEdges" fill="#cccccc" d="m33.83049 228.92783l143.85301 0l0 29.958008l-143.85301 0l0 -29.958008z" fill-rule="nonzero"/><path stroke="#000000" stroke-width="1.0" stroke-linecap="butt" d="m33.83049 108.597115l0 150.78741" fill-rule="nonzero"/><path stroke="#000000" stroke-width="1.0" stroke-linecap="butt" d="m177.6835 108.597115l0 150.78741" fill-rule="nonzero"/><path stroke="#000000" stroke-width="1.0" stroke-linecap="butt" d="m33.331802 109.0958l144.85039 0" fill-rule="nonzero"/><path stroke="#000000" stroke-width="1.0" stroke-linecap="butt" d="m33.331802 139.0538l144.85039 0" fill-rule="nonzero"/><path stroke="#000000" stroke-width="1.0" stroke-linecap="butt" d="m33.331802 169.01181l144.85039 0" fill-rule="nonzero"/><path stroke="#000000" stroke-width="1.0" stroke-linecap="butt" d="m33.331802 198.96982l144.85039 0" fill-rule="nonzero"/><path stroke="#000000" stroke-width="1.0" stroke-linecap="butt" d="m33.331802 228.92783l144.85039 0" fill-rule="nonzero"/><path stroke="#000000" stroke-width="1.0" stroke-linecap="butt" d="m33.331802 258.88583l144.85039 0" fill-rule="nonzero"/><path fill="#000000" d="m102.17888 115.937675l-10.375008 0q-0.890625 0 -1.375 0.484375q-0.4375 0.453125 -0.4375 1.1875l0 5.640625q0 0.734375 0.453125 1.15625q0.46875 0.4375 1.296875 0.4375l10.515633 0q0.21875 0 0.34375 -0.15625q0.125 -0.140625 0.109375 -0.328125q0 -0.1875 -0.125 -0.34375q-0.15625 -0.125 -0.390625 -0.125l-10.281258 0q-0.4375 0 -0.625 -0.1875q-0.1875 -0.15625 -0.1875 -0.546875l0 -2.421875l10.890633 0q0.53125 0 0.53125 -0.484375q0 -0.453125 -0.53125 -0.453125l-10.890633 0l0 -2.0625q0 -0.453125 0.203125 -0.65625q0.21875 -0.1875 0.703125 -0.1875l10.250008 0q0.21875 0 0.34375 -0.15625q0.125 -0.140625 0.109375 -0.3125q0 -0.21875 -0.125 -0.34375q-0.171875 -0.140625 -0.40625 -0.140625zm-6.4375076 9.171875l0 3.6249924l-6.6875 0q-0.25 0 -0.40625 0.125q-0.125 0.15625 -0.140625 0.34375q-0.03125 0.1875 0.09375 0.328125q0.109375 0.15625 0.3125 0.15625l14.562508 0q0.234375 0 0.390625 -0.15625q0.140625 -0.140625 0.140625 -0.328125q0 -0.1875 -0.140625 -0.34375q-0.15625 -0.125 -0.40625 -0.125l-6.6406326 0l0 -3.5468674q0 -0.25 -0.1875 -0.40625q-0.15625 -0.140625 -0.359375 -0.140625q-0.21875 -0.03125 -0.375 0.109375q-0.15625 0.125 -0.15625 0.359375zm21.187508 -9.234375l-8.40625 0q-0.515625 0 -0.515625 0.46875q0 0.484375 0.515625 0.484375l8.40625 0q0.53125 0 0.53125 -0.484375q0 -0.46875 -0.53125 -0.46875zm-7.328125 2.25q0 0.90625 0.140625 2.265625q0.15625 1.21875 0.390625 2.484375l-2.109375 0.015625q-0.546875 0 -0.546875 0.4375q0 0.46875 0.546875 0.46875q3.0 0 5.546875 -0.234375q2.78125 -0.25 4.359375 -0.703125q0.234375 -0.0625 0.359375 -0.25q0.109375 -0.171875 0.0625 -0.34375q-0.03125 -0.203125 -0.203125 -0.296875q-0.1875 -0.125 -0.4375 -0.03125q-0.40625 0.125 -0.953125 0.234375q-0.328125 0.0625 -1.078125 0.203125l-0.296875 0.0625q0.203125 -1.015625 0.34375 -2.140625q0.15625 -1.265625 0.15625 -2.21875q0 -0.5 -0.53125 -0.5q-0.515625 0 -0.515625 0.5q0 0.953125 -0.140625 2.21875q-0.140625 1.296875 -0.34375 2.3125q-0.765625 0.078125 -1.640625 0.125q-0.859375 0.078125 -1.5 0.09375q-0.234375 -1.140625 -0.390625 -2.609375q-0.109375 -1.265625 -0.109375 -2.09375q0 -0.5 -0.5625 -0.5q-0.546875 0 -0.546875 0.5zm11.625 5.203125l0 -7.390625q0 -0.25 -0.171875 -0.375q-0.15625 -0.125 -0.375 -0.125q-0.25 0 -0.390625 0.125q-0.171875 0.140625 -0.171875 0.390625l0 7.375q0 0.265625 0.171875 0.4375q0.140625 0.140625 0.390625 0.140625q0.21875 0 0.375 -0.140625q0.171875 -0.171875 0.171875 -0.4375zm-1.78125 2.4375l-10.15625 0q-0.53125 0 -0.5 0.484375q0 0.484375 0.5 0.484375l10.0625 0q0.421875 0 0.59375 0.15625q0.171875 0.15625 0.171875 0.515625l0 2.9999924q0 0.265625 0.171875 0.421875q0.140625 0.140625 0.390625 0.140625q0.21875 0 0.375 -0.140625q0.171875 -0.15625 0.171875 -0.421875l0 -3.0468674q0 -0.734375 -0.453125 -1.171875q-0.46875 -0.421875 -1.328125 -0.421875z" fill-rule="nonzero"/><path fill="#000000" d="m88.42887 145.95818l-8.40625 0q-0.515625 0 -0.515625 0.46875q0 0.484375 0.515625 0.484375l8.40625 0q0.53125 0 0.53125 -0.484375q0 -0.46875 -0.53125 -0.46875zm-7.25 2.46875q0 2.078125 0.140625 4.984375q0.171875 2.984375 0.40625 4.96875l-2.203125 0.015625q-0.546875 0 -0.546875 0.46875q0 0.484375 0.546875 0.484375q3.015625 0 5.5625 -0.25q2.765625 -0.25 4.34375 -0.734375q0.234375 -0.0625 0.359375 -0.25q0.109375 -0.15625 0.0625 -0.34375q-0.03125 -0.203125 -0.203125 -0.296875q-0.1875 -0.109375 -0.4375 -0.03125q-0.359375 0.09375 -0.8125 0.21875q-0.296875 0.046875 -0.921875 0.171875l-0.625 0.140625q0.265625 -1.75 0.40625 -4.59375q0.15625 -2.578125 0.15625 -5.015625q0 -0.484375 -0.53125 -0.484375q-0.515625 0 -0.515625 0.484375q0 2.4375 -0.140625 5.078125q-0.15625 2.84375 -0.390625 4.6875q-0.875 0.078125 -1.5625 0.125q-0.875 0.0625 -1.453125 0.0625q-0.25 -1.9375 -0.421875 -4.984375q-0.125 -2.765625 -0.125 -4.90625q0 -0.234375 -0.1875 -0.390625q-0.15625 -0.109375 -0.375 -0.109375q-0.21875 0 -0.375 0.109375q-0.15625 0.15625 -0.15625 0.390625zm11.015625 4.265625l0 -6.78125q0 -0.25 -0.1875 -0.390625q-0.140625 -0.109375 -0.375 -0.109375q-0.21875 0 -0.359375 0.109375q-0.171875 0.140625 -0.171875 0.390625l0 14.46875q0 0.25 0.171875 0.390625q0.140625 0.15625 0.359375 0.15625q0.234375 0 0.375 -0.15625q0.1875 -0.140625 0.1875 -0.390625l0 -6.765625l2.0625 0q0.4375 0 0.4375 -0.46875q0 -0.453125 -0.4375 -0.453125l-2.0625 0zm14.578133 -6.734375l-6.078125 0q-0.90625 0 -1.40625 0.53125q-0.453125 0.484375 -0.453125 1.28125l0 9.84375q0 0.8125 0.46875 1.34375q0.5 0.546875 1.40625 0.546875q2.15625 0 4.4375 -0.328125q2.328125 -0.328125 3.890625 -0.875q0.25 -0.09375 0.3125 -0.28125q0.09375 -0.1875 0 -0.359375q-0.0625 -0.1875 -0.25 -0.265625q-0.21875 -0.078125 -0.484375 0.03125q-1.5 0.546875 -3.640625 0.84375q-2.03125 0.296875 -4.234375 0.296875q-0.46875 0 -0.65625 -0.296875q-0.15625 -0.25 -0.15625 -0.859375l0 -4.890625l6.53125 0q0.5625 0 0.5625 -0.484375q0 -0.46875 -0.5625 -0.46875l-6.53125 0l0 -3.796875q0 -0.421875 0.171875 -0.640625q0.203125 -0.21875 0.609375 -0.21875l6.09375 0q0.25 0 0.421875 -0.15625q0.140625 -0.140625 0.140625 -0.328125q0 -0.1875 -0.140625 -0.328125q-0.171875 -0.140625 -0.453125 -0.140625zm4.953125 14.390625l0 -14.4375q0 -0.25 -0.171875 -0.390625q-0.15625 -0.109375 -0.375 -0.109375q-0.25 0 -0.390625 0.109375q-0.171875 0.140625 -0.171875 0.390625l0 14.4375q0 0.25 0.171875 0.421875q0.140625 0.15625 0.390625 0.15625q0.21875 0 0.375 -0.15625q0.171875 -0.171875 0.171875 -0.421875zm9.796875 -14.015625q0 2.359375 -1.15625 4.609375q-1.140625 2.171875 -3.015625 3.625q-0.234375 0.171875 -0.28125 0.421875q-0.015625 0.203125 0.125 0.359375q0.140625 0.15625 0.328125 0.1875q0.21875 0.015625 0.40625 -0.125q1.34375 -1.09375 2.359375 -2.4375q0.796875 -1.078125 1.359375 -2.21875q1.125 0.828125 2.140625 1.8125q1.140625 1.078125 2.125 2.328125q0.15625 0.203125 0.421875 0.21875q0.203125 0 0.390625 -0.15625q0.171875 -0.15625 0.1875 -0.390625q0.015625 -0.25 -0.171875 -0.5q-1.171875 -1.3125 -2.296875 -2.3125q-1.15625 -1.046875 -2.4375 -1.90625q0.3125 -0.859375 0.46875 -1.765625q0.171875 -0.875 0.171875 -1.75q0 -0.25 -0.1875 -0.40625q-0.15625 -0.125 -0.375 -0.125q-0.234375 0 -0.390625 0.125q-0.171875 0.15625 -0.171875 0.40625zm9.203125 9.796875l0 -10.234375q0 -0.25 -0.171875 -0.375q-0.15625 -0.125 -0.375 -0.125q-0.25 0 -0.390625 0.125q-0.171875 0.140625 -0.171875 0.390625l0 1.765625l-4.328125 0q-0.234375 0 -0.375 0.125q-0.125 0.140625 -0.125 0.328125q0.03125 0.1875 0.171875 0.34375q0.171875 0.140625 0.453125 0.140625l4.203125 0l0 2.125l-4.359375 0q-0.59375 0 -0.59375 0.453125q0 0.484375 0.578125 0.484375l4.375 0l0 4.453125q0 0.28125 0.171875 0.453125q0.140625 0.140625 0.390625 0.140625q0.21875 0 0.375 -0.140625q0.171875 -0.171875 0.171875 -0.453125zm-10.8125 0.21875q0 -0.296875 -0.1875 -0.453125q-0.140625 -0.15625 -0.375 -0.15625q-0.234375 0 -0.375 0.15625q-0.171875 0.15625 -0.171875 0.453125l0 2.46875q0 0.828125 0.515625 1.25q0.484375 0.40625 1.3125 0.40625l10.1875 0q0.46875 0 0.46875 -0.484375q0 -0.46875 -0.46875 -0.46875l-10.0 0q-0.53125 0 -0.71875 -0.15625q-0.1875 -0.1875 -0.1875 -0.6875l0 -2.328125z" fill-rule="nonzero"/><path fill="#000000" d="m68.77262 175.91618l-6.078121 0q-0.90625 0 -1.40625 0.53125q-0.453125 0.484375 -0.453125 1.28125l0 9.84375q0 0.8125 0.46875 1.34375q0.5 0.546875 1.40625 0.546875q2.1562462 0 4.437496 -0.328125q2.328125 -0.328125 3.890625 -0.875q0.25 -0.09375 0.3125 -0.28125q0.09375 -0.1875 0 -0.359375q-0.0625 -0.1875 -0.25 -0.265625q-0.21875 -0.078125 -0.484375 0.03125q-1.5 0.546875 -3.640625 0.84375q-2.03125 0.296875 -4.234371 0.296875q-0.46875 0 -0.65625 -0.296875q-0.15625 -0.25 -0.15625 -0.859375l0 -4.890625l6.531246 0q0.5625 0 0.5625 -0.484375q0 -0.46875 -0.5625 -0.46875l-6.531246 0l0 -3.796875q0 -0.421875 0.171875 -0.640625q0.203125 -0.21875 0.609375 -0.21875l6.093746 0q0.25 0 0.421875 -0.15625q0.140625 -0.140625 0.140625 -0.328125q0 -0.1875 -0.140625 -0.328125q-0.171875 -0.140625 -0.453125 -0.140625zm4.421875 6.734375l0 -6.78125q0 -0.25 -0.1875 -0.390625q-0.140625 -0.109375 -0.375 -0.109375q-0.21875 0 -0.359375 0.109375q-0.171875 0.140625 -0.171875 0.390625l0 14.46875q0 0.25 0.171875 0.390625q0.140625 0.15625 0.359375 0.15625q0.234375 0 0.375 -0.15625q0.1875 -0.140625 0.1875 -0.390625l0 -6.765625l2.0625 0q0.4375 0 0.4375 -0.46875q0 -0.453125 -0.4375 -0.453125l-2.0625 0zm10.6875 -6.96875q-2.015625 0 -3.203125 1.171875q-1.0625 1.078125 -1.0625 2.671875q0 1.5625 1.0625 2.609375q1.1875 1.171875 3.203125 1.171875q2.0 0 3.15625 -1.171875q1.0625 -1.046875 1.0625 -2.609375q0 -1.59375 -1.0625 -2.671875q-1.171875 -1.171875 -3.15625 -1.171875zm0 0.96875q1.5 0 2.359375 0.875q0.78125 0.765625 0.78125 2.0q0 1.1875 -0.78125 1.984375q-0.859375 0.890625 -2.359375 0.890625q-1.546875 0 -2.390625 -0.890625q-0.765625 -0.796875 -0.765625 -1.984375q0 -1.234375 0.765625 -2.0q0.84375 -0.875 2.390625 -0.875zm8.84375 6.59375l0 -7.390625q0 -0.25 -0.171875 -0.375q-0.15625 -0.125 -0.375 -0.125q-0.25 0 -0.390625 0.125q-0.171875 0.140625 -0.171875 0.390625l0 7.375q0 0.265625 0.171875 0.4375q0.140625 0.140625 0.390625 0.140625q0.21875 0 0.375 -0.140625q0.171875 -0.171875 0.171875 -0.4375zm-1.109375 3.4375l0 2.203125q0 0.328125 -0.203125 0.46875q-0.1875 0.125 -0.609375 0.125l-8.03125 0q-0.484375 0 -0.671875 -0.140625q-0.171875 -0.15625 -0.171875 -0.515625l0 -2.09375q0 -0.359375 0.15625 -0.515625q0.1875 -0.15625 0.625 -0.15625l8.078125 0q0.4375 0 0.625 0.125q0.203125 0.15625 0.203125 0.5zm-0.578125 -1.578125l-8.71875 0q-0.6875 0 -1.09375 0.390625q-0.40625 0.390625 -0.40625 0.984375l0 2.4375q0 0.734375 0.390625 1.109375q0.421875 0.40625 1.359375 0.40625l8.546875 0q0.75 0 1.171875 -0.34375q0.4375 -0.375 0.4375 -1.078125l0 -2.609375q0 -0.59375 -0.4375 -0.9375q-0.46875 -0.359375 -1.25 -0.359375zm14.187508 -8.953125q0 2.875 -1.984375 4.90625q-1.71875 1.765625 -4.015625 2.234375q-0.296875 0.046875 -0.421875 0.234375q-0.140625 0.15625 -0.109375 0.359375q0.03125 0.1875 0.203125 0.296875q0.1875 0.109375 0.453125 0.078125q2.25 -0.453125 4.09375 -2.140625q1.75 -1.578125 2.3125 -3.453125q0.59375 1.859375 2.3125 3.453125q1.828125 1.671875 3.984375 2.109375q0.3125 0.0625 0.53125 -0.046875q0.1875 -0.109375 0.21875 -0.3125q0.0625 -0.203125 -0.0625 -0.375q-0.15625 -0.1875 -0.4375 -0.25q-2.421875 -0.5 -4.09375 -2.21875q-1.921875 -1.984375 -1.921875 -4.84375q0 -0.296875 -0.171875 -0.484375q-0.15625 -0.140625 -0.359375 -0.140625q-0.21875 0 -0.375 0.140625q-0.15625 0.171875 -0.15625 0.453125zm7.734375 12.5l-14.40625 0q-0.546875 0 -0.546875 0.46875q0 0.484375 0.546875 0.484375l14.421875 0q0.234375 0 0.390625 -0.15625q0.140625 -0.140625 0.140625 -0.328125q0 -0.1875 -0.140625 -0.34375q-0.15625 -0.125 -0.40625 -0.125zm11.203125 -12.734375l-4.515625 0q-0.828125 0 -1.328125 0.46875q-0.484375 0.421875 -0.484375 1.140625l0 4.578125q0 0.796875 0.484375 1.265625q0.484375 0.453125 1.328125 0.453125q2.203125 0 3.34375 -0.125q1.53125 -0.171875 2.5625 -0.609375q0.21875 -0.109375 0.3125 -0.3125q0.078125 -0.1875 0 -0.375q-0.0625 -0.1875 -0.25 -0.25q-0.203125 -0.0625 -0.484375 0.0625q-1.0625 0.421875 -2.4375 0.578125q-1.03125 0.125 -2.953125 0.125q-0.5 0 -0.65625 -0.1875q-0.15625 -0.15625 -0.15625 -0.59375l0 -1.96875l4.71875 0q0.25 0 0.421875 -0.140625q0.15625 -0.15625 0.15625 -0.34375q0 -0.171875 -0.15625 -0.328125q-0.171875 -0.125 -0.421875 -0.125l-4.71875 0l0 -1.5q0 -0.421875 0.171875 -0.640625q0.203125 -0.21875 0.609375 -0.21875l4.46875 0q0.265625 0 0.4375 -0.15625q0.140625 -0.140625 0.140625 -0.328125q0 -0.1875 -0.140625 -0.328125q-0.171875 -0.140625 -0.453125 -0.140625zm6.0 -0.03125l0 4.09375l-2.671875 0l0 -4.15625q0 -0.46875 -0.5625 -0.46875q-0.53125 0 -0.53125 0.46875l0 7.390625q0 0.28125 0.15625 0.46875q0.15625 0.140625 0.375 0.140625q0.21875 0 0.375 -0.140625q0.1875 -0.1875 0.1875 -0.46875l0 -2.265625l2.671875 0l0 2.265625q0 0.28125 0.15625 0.46875q0.15625 0.140625 0.375 0.140625q0.203125 0 0.359375 -0.140625q0.171875 -0.1875 0.171875 -0.46875l0 -7.3125q0 -0.53125 -0.53125 -0.53125q-0.53125 0 -0.53125 0.515625zm-0.578125 9.21875l-9.515625 0q-0.6875 0 -1.09375 0.40625q-0.390625 0.40625 -0.390625 1.09375l0 2.421875q0 0.640625 0.359375 1.015625q0.390625 0.390625 1.140625 0.390625l9.703125 0q0.609375 0 1.015625 -0.375q0.421875 -0.390625 0.421875 -1.03125l0 -2.625q0 -0.59375 -0.421875 -0.9375q-0.421875 -0.359375 -1.21875 -0.359375zm0.578125 1.578125l0 2.203125q0 0.328125 -0.234375 0.46875q-0.1875 0.125 -0.59375 0.125l-8.828125 0q-0.46875 0 -0.640625 -0.140625q-0.1875 -0.15625 -0.1875 -0.515625l0 -2.09375q0 -0.359375 0.15625 -0.515625q0.171875 -0.15625 0.625 -0.15625l8.84375 0q0.421875 0 0.625 0.125q0.234375 0.15625 0.234375 0.5zm19.59375 -3.453125l-2.3125 0l0.578125 -5.03125q0.015625 -0.265625 -0.140625 -0.4375q-0.140625 -0.125 -0.359375 -0.15625q-0.21875 -0.015625 -0.390625 0.09375q-0.171875 0.140625 -0.1875 0.390625l-0.59375 5.140625l-5.1875 0l-0.578125 -5.15625q-0.03125 -0.25 -0.21875 -0.390625q-0.171875 -0.109375 -0.390625 -0.09375q-0.21875 0.015625 -0.359375 0.15625q-0.15625 0.15625 -0.125 0.421875l0.578125 5.0625l-2.3125 0q-0.46875 0 -0.46875 0.46875q-0.03125 0.484375 0.421875 0.484375l12.078125 0q0.46875 0 0.4375 -0.484375q0 -0.46875 -0.46875 -0.46875zm-0.078125 -7.375l-11.890625 0q-0.53125 0 -0.5 0.484375q0 0.46875 0.5 0.46875l11.96875 0q0.21875 0 0.34375 -0.15625q0.125 -0.140625 0.109375 -0.3125q0 -0.21875 -0.125 -0.34375q-0.171875 -0.140625 -0.40625 -0.140625zm1.265625 12.796875l-14.390625 0q-0.25 0 -0.40625 0.125q-0.125 0.15625 -0.140625 0.34375q-0.03125 0.1875 0.09375 0.328125q0.109375 0.15625 0.3125 0.15625l14.671875 0q0.203125 0 0.3125 -0.15625q0.109375 -0.140625 0.109375 -0.328125q-0.015625 -0.1875 -0.15625 -0.34375q-0.15625 -0.125 -0.40625 -0.125z" fill-rule="nonzero"/><path fill="#000000" d="m74.819496 205.87419l-2.75 0q-0.828125 0 -1.28125 0.453125q-0.453125 0.4375 -0.453125 1.171875l0 10.234375q0 0.734375 0.421875 1.140625q0.4375 0.390625 1.15625 0.390625l2.828125 0q0.828125 0 1.3125 -0.421875q0.5 -0.40625 0.5 -1.109375l0 -10.328125q0 -0.671875 -0.46875 -1.09375q-0.484375 -0.4375 -1.265625 -0.4375zm0.640625 1.671875l0 10.109375q0 0.359375 -0.21875 0.515625q-0.203125 0.140625 -0.640625 0.140625l-2.40625 0q-0.421875 0 -0.59375 -0.171875q-0.171875 -0.140625 -0.171875 -0.546875l0 -9.96875q0 -0.421875 0.171875 -0.609375q0.171875 -0.1875 0.546875 -0.1875l2.546875 0q0.390625 0 0.578125 0.171875q0.1875 0.15625 0.1875 0.546875zm3.65625 -1.703125l0 5.90625l-2.53125 0q-0.25 0 -0.40625 0.140625q-0.140625 0.125 -0.140625 0.34375q0 0.171875 0.140625 0.3125q0.15625 0.15625 0.421875 0.15625l2.515625 0l0 7.5625q0 0.25 0.15625 0.421875q0.15625 0.15625 0.390625 0.15625q0.234375 0 0.375 -0.15625q0.1875 -0.171875 0.1875 -0.421875l0 -14.453125q0 -0.25 -0.1875 -0.375q-0.140625 -0.125 -0.375 -0.109375q-0.234375 0 -0.390625 0.125q-0.15625 0.125 -0.15625 0.390625zm4.609375 14.421875l0 -14.453125q0 -0.25 -0.171875 -0.375q-0.15625 -0.125 -0.359375 -0.125q-0.21875 0 -0.375 0.125q-0.15625 0.140625 -0.15625 0.390625l0 14.4375q0 0.25 0.15625 0.421875q0.15625 0.15625 0.375 0.15625q0.203125 0 0.359375 -0.15625q0.171875 -0.171875 0.171875 -0.421875zm9.421875 -14.0q0 3.015625 -0.984375 6.140625q-1.15625 3.703125 -3.265625 6.0625q-0.203125 0.203125 -0.203125 0.4375q0 0.203125 0.15625 0.359375q0.15625 0.125 0.359375 0.109375q0.21875 0 0.390625 -0.1875q1.421875 -1.75 2.359375 -3.65625q0.859375 -1.765625 1.515625 -4.078125q0.96875 1.234375 2.15625 3.625q0.953125 1.9375 1.6875 3.75q0.109375 0.265625 0.3125 0.375q0.20313263 0.109375 0.39063263 0.03125q0.203125 -0.09375 0.28125 -0.296875q0.09375 -0.21875 -0.03125 -0.515625q-0.6562576 -1.8125 -1.8281326 -3.953125q-1.265625 -2.296875 -2.671875 -4.140625q0.1875 -0.890625 0.3125 -2.0q0.15625 -1.140625 0.15625 -2.0625q0 -0.25 -0.1875 -0.40625q-0.15625 -0.140625 -0.375 -0.140625q-0.21875 0 -0.375 0.140625q-0.15625 0.15625 -0.15625 0.40625zm9.078133 14.0l0 -14.4375q0 -0.25 -0.171875 -0.390625q-0.15625 -0.109375 -0.375 -0.109375q-0.25 0 -0.390625 0.109375q-0.171875 0.140625 -0.171875 0.390625l0 14.4375q0 0.25 0.171875 0.421875q0.140625 0.15625 0.390625 0.15625q0.21875 0 0.375 -0.15625q0.171875 -0.171875 0.171875 -0.421875zm15.046875 -14.390625l-8.421875 0q-0.515625 0 -0.515625 0.46875q-0.015625 0.484375 0.5 0.484375l3.671875 0l0 3.03125q0 2.890625 -1.234375 5.28125q-1.1875 2.34375 -3.0625 3.296875q-0.25 0.109375 -0.3125 0.34375q-0.0625 0.203125 0.046875 0.40625q0.09375 0.1875 0.28125 0.25q0.203125 0.09375 0.421875 -0.015625q1.5625 -0.78125 2.8125 -2.609375q1.21875 -1.796875 1.59375 -3.75q0.3125 1.890625 1.578125 3.75q1.25 1.8125 2.734375 2.609375q0.28125 0.15625 0.53125 0.078125q0.21875 -0.0625 0.328125 -0.265625q0.09375 -0.171875 0.03125 -0.40625q-0.046875 -0.21875 -0.296875 -0.34375q-1.9375 -1.078125 -3.125 -3.375q-1.234375 -2.375 -1.234375 -5.28125l0 -3.0l3.671875 0q0.46875 0 0.46875 -0.484375q0 -0.46875 -0.46875 -0.46875zm3.953125 14.390625l0 -14.4375q0 -0.25 -0.171875 -0.390625q-0.15625 -0.109375 -0.375 -0.109375q-0.25 0 -0.390625 0.109375q-0.171875 0.140625 -0.171875 0.390625l0 14.4375q0 0.25 0.171875 0.421875q0.140625 0.15625 0.390625 0.15625q0.21875 0 0.375 -0.15625q0.171875 -0.171875 0.171875 -0.421875zm11.78125 -14.390625l-5.421875 0q-0.28125 0 -0.4375 0.140625q-0.125 0.140625 -0.125 0.328125q0 0.1875 0.125 0.328125q0.171875 0.15625 0.453125 0.15625l5.375 0q0.515625 0 0.75 0.21875q0.21875 0.21875 0.21875 0.65625l0 2.75q0 3.5625 -1.734375 5.59375q-1.734375 2.0625 -5.109375 2.453125q-0.53125 0.046875 -0.453125 0.53125q0.0625 0.484375 0.578125 0.453125q3.640625 -0.359375 5.703125 -2.6875q2.078125 -2.375 2.078125 -6.296875l0 -2.875q0 -0.8125 -0.546875 -1.28125q-0.515625 -0.46875 -1.453125 -0.46875zm-0.140625 4.71875q-1.0625 0.265625 -2.859375 0.5q-1.796875 0.21875 -2.96875 0.21875q-0.53125 0 -0.53125 0.484375q0 0.484375 0.546875 0.484375q1.234375 0 3.140625 -0.265625q1.84375 -0.234375 2.96875 -0.53125q0.234375 -0.078125 0.359375 -0.265625q0.109375 -0.15625 0.046875 -0.328125q-0.046875 -0.1875 -0.234375 -0.28125q-0.1875 -0.09375 -0.46875 -0.015625zm7.359375 9.671875l0 -14.4375q0 -0.25 -0.171875 -0.390625q-0.15625 -0.109375 -0.375 -0.109375q-0.25 0 -0.390625 0.109375q-0.171875 0.140625 -0.171875 0.390625l0 14.4375q0 0.25 0.171875 0.421875q0.140625 0.15625 0.390625 0.15625q0.21875 0 0.375 -0.15625q0.171875 -0.171875 0.171875 -0.421875z" fill-rule="nonzero"/><path fill="#000000" d="m72.227844 235.8322l-2.75 0q-0.828125 0 -1.28125 0.453125q-0.453125 0.4375 -0.453125 1.171875l0 10.234375q0 0.734375 0.421875 1.140625q0.4375 0.390625 1.15625 0.390625l2.828125 0q0.828125 0 1.3125 -0.421875q0.5 -0.40625 0.5 -1.109375l0 -10.328125q0 -0.671875 -0.46875 -1.09375q-0.484375 -0.4375 -1.265625 -0.4375zm0.640625 1.671875l0 10.109375q0 0.359375 -0.21875 0.515625q-0.203125 0.140625 -0.640625 0.140625l-2.40625 0q-0.421875 0 -0.59375 -0.171875q-0.171875 -0.140625 -0.171875 -0.546875l0 -9.96875q0 -0.421875 0.171875 -0.609375q0.171875 -0.1875 0.546875 -0.1875l2.546875 0q0.390625 0 0.578125 0.171875q0.1875 0.15625 0.1875 0.546875zm3.65625 -1.703125l0 5.90625l-2.53125 0q-0.25 0 -0.40625 0.140625q-0.140625 0.125 -0.140625 0.34375q0 0.171875 0.140625 0.3125q0.15625 0.15625 0.421875 0.15625l2.515625 0l0 7.5625q0 0.25 0.15625 0.421875q0.15625 0.15625 0.390625 0.15625q0.234375 0 0.375 -0.15625q0.1875 -0.171875 0.1875 -0.421875l0 -14.453125q0 -0.25 -0.1875 -0.375q-0.140625 -0.125 -0.375 -0.109375q-0.234375 0 -0.390625 0.125q-0.15625 0.125 -0.15625 0.390625zm4.609375 14.421875l0 -14.453125q0 -0.25 -0.171875 -0.375q-0.15625 -0.125 -0.359375 -0.125q-0.21875 0 -0.375 0.125q-0.15625 0.140625 -0.15625 0.390625l0 14.4375q0 0.25 0.15625 0.421875q0.15625 0.15625 0.375 0.15625q0.203125 0 0.359375 -0.15625q0.171875 -0.171875 0.171875 -0.421875zm9.421875 -14.0q0 3.015625 -0.984375 6.140625q-1.15625 3.703125 -3.265625 6.0625q-0.203125 0.203125 -0.203125 0.4375q0 0.203125 0.15625 0.359375q0.15625 0.125 0.359375 0.109375q0.21875 0 0.390625 -0.1875q1.421875 -1.75 2.359375 -3.65625q0.859375 -1.765625 1.515625 -4.078125q0.96875 1.234375 2.15625 3.625q0.953125 1.9375 1.6875 3.75q0.109375 0.265625 0.3125 0.375q0.203125 0.109375 0.390625 0.03125q0.203125 -0.09375 0.28125 -0.296875q0.09375 -0.21875 -0.03125 -0.515625q-0.65625 -1.8125 -1.828125 -3.953125q-1.265625 -2.296875 -2.671875 -4.140625q0.1875 -0.890625 0.3125 -2.0q0.15625 -1.140625 0.15625 -2.0625q0 -0.25 -0.1875 -0.40625q-0.15625 -0.140625 -0.375 -0.140625q-0.21875 0 -0.375 0.140625q-0.15625 0.15625 -0.15625 0.40625zm9.078125 14.0l0 -14.4375q0 -0.25 -0.171875 -0.390625q-0.15625 -0.109375 -0.375 -0.109375q-0.25 0 -0.390625 0.109375q-0.171875 0.140625 -0.171875 0.390625l0 14.4375q0 0.25 0.171875 0.421875q0.140625 0.15625 0.390625 0.15625q0.21875 0 0.375 -0.15625q0.171875 -0.171875 0.171875 -0.421875zm15.046875 -14.390625l-8.421875 0q-0.515625 0 -0.515625 0.46875q-0.015625 0.484375 0.5 0.484375l3.671875 0l0 3.03125q0 2.890625 -1.234375 5.28125q-1.1875 2.34375 -3.0625 3.296875q-0.25 0.109375 -0.3125 0.34375q-0.0625 0.203125 0.046875 0.40625q0.09375 0.1875 0.28125 0.25q0.203125 0.09375 0.421875 -0.015625q1.5625 -0.78125 2.8125 -2.609375q1.21875 -1.796875 1.59375 -3.75q0.3125 1.890625 1.578125 3.75q1.25 1.8125 2.734375 2.609375q0.28125 0.15625 0.53125 0.078125q0.21875 -0.0625 0.328125 -0.265625q0.09375 -0.171875 0.03125 -0.40625q-0.046875 -0.21875 -0.296875 -0.34375q-1.9375 -1.078125 -3.125 -3.375q-1.234375 -2.375 -1.234375 -5.28125l0 -3.0l3.671875 0q0.46875 0 0.46875 -0.484375q0 -0.46875 -0.46875 -0.46875zm3.953125 14.390625l0 -14.4375q0 -0.25 -0.171875 -0.390625q-0.15625 -0.109375 -0.375 -0.109375q-0.25 0 -0.390625 0.109375q-0.171875 0.140625 -0.171875 0.390625l0 14.4375q0 0.25 0.171875 0.421875q0.140625 0.15625 0.390625 0.15625q0.21875 0 0.375 -0.15625q0.171875 -0.171875 0.171875 -0.421875z" fill-rule="nonzero"/><path fill="#000000" d="m135.78615 235.7072l-5.671875 0q-0.515625 0 -0.5 0.46875q0 0.484375 0.515625 0.484375l5.546875 0q0.390625 0 0.609375 0.1875q0.25 0.171875 0.25 0.5625l0 0.828125q0 2.09375 -1.734375 3.265625q-1.703125 1.125 -4.921875 1.25q-0.28125 0 -0.453125 0.171875q-0.125 0.125 -0.125 0.328125q0 0.1875 0.15625 0.328125q0.171875 0.125 0.453125 0.125q3.65625 -0.171875 5.671875 -1.640625q2.015625 -1.4375 2.015625 -3.8125l0 -0.984375q0 -0.703125 -0.53125 -1.140625q-0.5 -0.421875 -1.28125 -0.421875zm6.5 4.046875l0 -3.984375q0 -0.5 -0.5625 -0.5q-0.53125 0 -0.53125 0.5l0 7.4375q0 0.25 0.171875 0.40625q0.140625 0.140625 0.359375 0.140625q0.234375 0 0.375 -0.140625q0.1875 -0.15625 0.1875 -0.40625l0 -2.5l2.015625 0q0.484375 0 0.484375 -0.484375q0 -0.46875 -0.484375 -0.46875l-2.015625 0zm-6.9375 4.921875l0 1.640625l-3.90625 0l0 -1.640625q0 -0.265625 -0.171875 -0.40625q-0.15625 -0.15625 -0.375 -0.15625q-0.21875 0 -0.375 0.15625q-0.171875 0.140625 -0.171875 0.40625l0 4.34375q0 0.640625 0.375 1.0q0.375 0.359375 1.09375 0.359375l3.03125 0q0.734375 0 1.140625 -0.359375q0.453125 -0.375 0.453125 -1.0l0 -4.34375q0 -0.265625 -0.1875 -0.40625q-0.140625 -0.15625 -0.375 -0.15625q-0.21875 0 -0.359375 0.15625q-0.171875 0.140625 -0.171875 0.40625zm0 2.59375l0 1.53125q0 0.359375 -0.171875 0.484375q-0.140625 0.15625 -0.53125 0.15625l-2.546875 0q-0.359375 0 -0.5 -0.171875q-0.15625 -0.171875 -0.15625 -0.46875l0 -1.53125l3.90625 0zm4.265625 -2.65625q0 1.640625 -0.921875 3.03125q-0.78125 1.140625 -1.953125 1.8125q-0.265625 0.125 -0.3125 0.359375q-0.0625 0.1875 0.046875 0.359375q0.109375 0.1875 0.3125 0.265625q0.234375 0.0625 0.46875 -0.078125q1.015625 -0.578125 1.84375 -1.5625q0.78125 -0.90625 1.078125 -1.75q0.40625 0.890625 1.140625 1.75q0.859375 0.984375 1.859375 1.5625q0.234375 0.140625 0.46875 0.078125q0.203125 -0.078125 0.3125 -0.265625q0.109375 -0.171875 0.046875 -0.359375q-0.046875 -0.234375 -0.296875 -0.359375q-1.21875 -0.671875 -2.015625 -1.8125q-0.96875 -1.390625 -0.96875 -3.03125q0 -0.265625 -0.1875 -0.40625q-0.140625 -0.125 -0.359375 -0.125q-0.25 0 -0.390625 0.125q-0.171875 0.140625 -0.171875 0.40625z" fill-rule="nonzero"/><g filter="url(#shadowFilter-p.4)"><use xlink:href="#p.4" transform="matrix(1.0 0.0 0.0 1.0 0.0 2.0)"/></g><defs><filter id="shadowFilter-p.4" filterUnits="userSpaceOnUse"><feGaussianBlur in="SourceAlpha" stdDeviation="2.0" result="blur"/><feComponentTransfer in="blur" color-interpolation-filters="sRGB"><feFuncR type="linear" slope="0" intercept="0.0"/><feFuncG type="linear" slope="0" intercept="0.0"/><feFuncB type="linear" slope="0" intercept="0.0"/><feFuncA type="linear" slope="0.5" intercept="0"/></feComponentTransfer></filter></defs><g id="p.4"><path fill="#efefef" d="m247.85275 131.64967l112.28348 0l0 79.11812l-112.28348 0z" fill-rule="evenodd"/><path stroke="#595959" stroke-width="1.0" stroke-linejoin="round" stroke-linecap="butt" d="m247.85275 131.64967l112.28348 0l0 79.11812l-112.28348 0z" fill-rule="evenodd"/><path fill="#000000" d="m261.36508 178.14435l1.25 0l0 -5.921875l2.90625 0q2.546875 0 3.828125 -0.984375q1.25 -0.953125 1.25 -2.90625q0 -1.9375 -1.125 -2.890625q-1.109375 -0.96875 -3.359375 -0.96875l-4.75 0l0 13.671875zm1.25 -7.046875l0 -5.5l3.46875 0q1.640625 0 2.4375 0.65625q0.796875 0.65625 0.796875 2.046875q0 1.5 -0.9375 2.171875q-0.890625 0.625 -2.84375 0.625l-2.921875 0zm17.22461 5.640625l0 0.140625q0 0.671875 0.359375 1.03125q0.359375 0.34375 1.0625 0.34375q0.140625 0 0.3125 -0.015625q0.234375 -0.03125 0.5 -0.078125l0 -0.84375l-0.40625 0q-0.484375 0 -0.640625 -0.234375q-0.09375 -0.140625 -0.09375 -0.65625l0 -5.390625q0 -1.484375 -0.921875 -2.234375q-0.90625 -0.75 -2.671875 -0.75q-1.796875 0 -2.859375 0.875q-1.03125 0.859375 -1.046875 2.3125l1.125 0q0.03125 -1.09375 0.734375 -1.640625q0.71875 -0.546875 2.046875 -0.546875q1.3125 0 1.890625 0.53125q0.5625 0.46875 0.5625 1.625q0 0.6875 -0.5 0.96875q-0.375 0.21875 -1.234375 0.296875l-0.515625 0.03125q-1.078125 0.078125 -1.59375 0.171875q-0.828125 0.125 -1.421875 0.421875q-0.796875 0.34375 -1.1875 0.96875q-0.421875 0.625 -0.421875 1.5q0 1.28125 0.875 2.0625q0.890625 0.796875 2.390625 0.796875q1.046875 0 1.953125 -0.421875q0.90625 -0.4375 1.703125 -1.265625zm-0.046875 -3.765625l0 1.390625q0 1.390625 -0.96875 2.21875q-0.9375 0.828125 -2.484375 0.828125q-1.046875 0 -1.65625 -0.53125q-0.59375 -0.515625 -0.59375 -1.34375q0 -0.796875 0.5625 -1.328125q0.609375 -0.5625 1.71875 -0.703125l1.15625 -0.140625q0.875 -0.078125 1.25 -0.15625q0.609375 -0.09375 1.015625 -0.234375zm4.6240234 5.171875l1.125 0l0 -5.46875q0 -1.703125 0.75 -2.59375q0.71875 -0.875 2.078125 -0.875l0.15625 0l0 -1.171875l-0.125 0q-0.984375 0 -1.703125 0.46875q-0.765625 0.5 -1.171875 1.5l0 -1.734375l-1.109375 0l0 9.875zm7.8046875 -12.703125l-1.125 0l0 2.828125l-1.34375 0l0 0.9375l1.34375 0l0 7.203125q0 1.046875 0.296875 1.484375q0.34375 0.5 1.28125 0.5q0.3125 0 0.640625 -0.0625q0.328125 -0.046875 0.75 -0.171875l0 -0.890625l-0.1875 0.046875q-0.34375 0.0625 -0.5 0.09375q-0.25 0.046875 -0.40625 0.046875q-0.46875 0 -0.625 -0.28125q-0.125 -0.21875 -0.125 -0.765625l0 -7.203125l1.84375 0l0 -0.9375l-1.84375 0l0 -2.828125zm4.265625 12.703125l1.140625 0l0 -9.875l-1.140625 0l0 9.875zm0 -11.953125l1.140625 0l0 -1.71875l-1.140625 0l0 1.71875zm6.013672 -0.75l-1.125 0l0 2.828125l-1.34375 0l0 0.9375l1.34375 0l0 7.203125q0 1.046875 0.296875 1.484375q0.34375 0.5 1.28125 0.5q0.3125 0 0.640625 -0.0625q0.328125 -0.046875 0.75 -0.171875l0 -0.890625l-0.1875 0.046875q-0.34375 0.0625 -0.5 0.09375q-0.25 0.046875 -0.40625 0.046875q-0.46875 0 -0.625 -0.28125q-0.125 -0.21875 -0.125 -0.765625l0 -7.203125l1.84375 0l0 -0.9375l-1.84375 0l0 -2.828125zm4.265625 12.703125l1.140625 0l0 -9.875l-1.140625 0l0 9.875zm0 -11.953125l1.140625 0l0 -1.71875l-1.140625 0l0 1.71875zm8.482422 1.84375q-2.140625 0 -3.390625 1.609375q-1.125 1.46875 -1.125 3.578125q0 2.109375 1.125 3.546875q1.25 1.640625 3.390625 1.640625q2.140625 0 3.390625 -1.640625q1.140625 -1.4375 1.140625 -3.546875q0 -2.109375 -1.140625 -3.578125q-1.25 -1.609375 -3.390625 -1.609375zm0 1.0q1.578125 0 2.5 1.296875q0.859375 1.1875 0.859375 2.875q0 1.6875 -0.859375 2.859375q-0.921875 1.3125 -2.5 1.3125q-1.59375 0 -2.5 -1.3125q-0.84375 -1.171875 -0.84375 -2.859375q0 -1.703125 0.84375 -2.875q0.921875 -1.296875 2.5 -1.296875zm7.205078 9.109375l1.125 0l0 -5.8125q0 -1.53125 0.8125 -2.421875q0.828125 -0.875 2.1875 -0.875q1.453125 0 1.96875 0.71875q0.484375 0.640625 0.484375 2.234375l0 6.15625l1.140625 0l0 -6.28125q0 -0.953125 -0.0625 -1.390625q-0.09375 -0.640625 -0.328125 -1.046875q-0.40625 -0.671875 -1.171875 -1.03125q-0.78125 -0.359375 -1.796875 -0.359375q-1.078125 0 -1.890625 0.4375q-0.828125 0.46875 -1.359375 1.375l0 -1.578125l-1.109375 0l0 9.875zm11.564453 -5.640625q-0.015625 -1.515625 0.9375 -2.5625q0.828125 -0.90625 2.125 -0.90625q1.28125 0 2.078125 0.90625q0.890625 1.046875 0.890625 2.5625l-6.03125 0zm0 0.90625l7.21875 0l0 -0.359375q0 -2.375 -1.109375 -3.71875q-1.109375 -1.296875 -3.0 -1.296875q-2.0 0 -3.140625 1.359375q-1.15625 1.390625 -1.15625 3.875q0 2.421875 1.140625 3.796875q1.125 1.359375 3.09375 1.359375q1.640625 0 2.734375 -0.921875q1.109375 -0.921875 1.296875 -2.40625l-1.140625 0q-0.15625 1.0625 -0.9375 1.6875q-0.765625 0.625 -1.859375 0.625q-1.40625 0 -2.265625 -1.0625q-0.875 -1.078125 -0.875 -2.9375zm9.847656 4.734375l1.125 0l0 -5.46875q0 -1.703125 0.75 -2.59375q0.71875 -0.875 2.078125 -0.875l0.15625 0l0 -1.171875l-0.125 0q-0.984375 0 -1.703125 0.46875q-0.765625 0.5 -1.171875 1.5l0 -1.734375l-1.109375 0l0 9.875z" fill-rule="nonzero"/></g><g filter="url(#shadowFilter-p.5)"><use xlink:href="#p.5" transform="matrix(1.0 0.0 0.0 1.0 0.0 2.0)"/></g><defs><filter id="shadowFilter-p.5" filterUnits="userSpaceOnUse"><feGaussianBlur in="SourceAlpha" stdDeviation="2.0" result="blur"/><feComponentTransfer in="blur" color-interpolation-filters="sRGB"><feFuncR type="linear" slope="0" intercept="0.0"/><feFuncG type="linear" slope="0" intercept="0.0"/><feFuncB type="linear" slope="0" intercept="0.0"/><feFuncA type="linear" slope="0.5" intercept="0"/></feComponentTransfer></filter></defs><g id="p.5"><path fill="#efefef" d="m675.6168 131.64568l95.1496 0l0 79.1181l-95.1496 0z" fill-rule="evenodd"/><path stroke="#595959" stroke-width="1.0" stroke-linejoin="round" stroke-linecap="butt" d="m675.6168 131.64568l95.1496 0l0 79.1181l-95.1496 0z" fill-rule="evenodd"/><path fill="#000000" d="m693.53827 173.9841l0 0.09375q0 2.140625 1.328125 3.28125q1.3125 1.171875 3.78125 1.171875q2.171875 0 3.421875 -1.078125q1.265625 -1.078125 1.265625 -2.890625q0 -1.65625 -1.03125 -2.578125q-0.984375 -0.875 -3.25 -1.4375l-1.59375 -0.375q-1.234375 -0.328125 -1.765625 -0.859375q-0.53125 -0.5625 -0.53125 -1.5q0 -1.234375 0.796875 -1.890625q0.8125 -0.671875 2.328125 -0.671875q1.578125 0 2.453125 0.78125q0.890625 0.78125 0.90625 2.234375l1.296875 0q-0.03125 -1.953125 -1.234375 -3.0625q-1.203125 -1.09375 -3.359375 -1.09375q-2.078125 0 -3.3125 1.03125q-1.1875 1.0 -1.1875 2.65625q0 1.5625 0.921875 2.421875q0.8125 0.75 2.8125 1.265625l1.28125 0.3125q1.78125 0.453125 2.4375 1.0q0.75 0.640625 0.75 1.90625q0 1.234375 -0.90625 1.953125q-0.90625 0.75 -2.5 0.75q-1.828125 0 -2.828125 -0.921875q-0.984375 -0.890625 -0.984375 -2.5l-1.296875 0zm13.244141 -1.484375q-0.015625 -1.515625 0.9375 -2.5625q0.828125 -0.90625 2.125 -0.90625q1.28125 0 2.078125 0.90625q0.890625 1.046875 0.890625 2.5625l-6.03125 0zm0 0.90625l7.21875 0l0 -0.359375q0 -2.375 -1.109375 -3.71875q-1.109375 -1.296875 -3.0 -1.296875q-2.0 0 -3.140625 1.359375q-1.15625 1.390625 -1.15625 3.875q0 2.421875 1.140625 3.796875q1.125 1.359375 3.09375 1.359375q1.640625 0 2.734375 -0.921875q1.109375 -0.921875 1.296875 -2.40625l-1.140625 0q-0.15625 1.0625 -0.9375 1.6875q-0.765625 0.625 -1.859375 0.625q-1.40625 0 -2.265625 -1.0625q-0.875 -1.078125 -0.875 -2.9375zm9.847656 4.734375l1.125 0l0 -5.8125q0 -1.53125 0.8125 -2.421875q0.828125 -0.875 2.1875 -0.875q1.453125 0 1.96875 0.71875q0.484375 0.640625 0.484375 2.234375l0 6.15625l1.140625 0l0 -6.28125q0 -0.953125 -0.0625 -1.390625q-0.09375 -0.640625 -0.328125 -1.046875q-0.40625 -0.671875 -1.171875 -1.03125q-0.78125 -0.359375 -1.796875 -0.359375q-1.078125 0 -1.890625 0.4375q-0.828125 0.46875 -1.359375 1.375l0 -1.578125l-1.109375 0l0 9.875zm19.173828 -13.671875l-1.125 0l0 5.40625q-0.578125 -0.84375 -1.453125 -1.375q-0.84375 -0.46875 -1.9375 -0.46875q-2.03125 0 -3.21875 1.609375q-1.0625 1.46875 -1.0625 3.578125q0 2.109375 1.0625 3.5625q1.1875 1.640625 3.21875 1.640625q1.0625 0 2.0 -0.5625q0.890625 -0.515625 1.390625 -1.40625l0 1.6875l1.125 0l0 -13.671875zm-4.34375 4.5625q1.5625 0 2.5 1.296875q0.828125 1.171875 0.828125 2.875q0 1.6875 -0.828125 2.875q-0.9375 1.328125 -2.5 1.328125q-1.546875 0 -2.453125 -1.328125q-0.828125 -1.1875 -0.828125 -2.875q0 -1.703125 0.828125 -2.875q0.90625 -1.296875 2.453125 -1.296875zm8.201172 3.46875q-0.015625 -1.515625 0.9375 -2.5625q0.828125 -0.90625 2.125 -0.90625q1.28125 0 2.078125 0.90625q0.890625 1.046875 0.890625 2.5625l-6.03125 0zm0 0.90625l7.21875 0l0 -0.359375q0 -2.375 -1.109375 -3.71875q-1.109375 -1.296875 -3.0 -1.296875q-2.0 0 -3.140625 1.359375q-1.15625 1.390625 -1.15625 3.875q0 2.421875 1.140625 3.796875q1.125 1.359375 3.09375 1.359375q1.640625 0 2.734375 -0.921875q1.109375 -0.921875 1.296875 -2.40625l-1.140625 0q-0.15625 1.0625 -0.9375 1.6875q-0.765625 0.625 -1.859375 0.625q-1.40625 0 -2.265625 -1.0625q-0.875 -1.078125 -0.875 -2.9375zm9.847656 4.734375l1.125 0l0 -5.46875q0 -1.703125 0.75 -2.59375q0.71875 -0.875 2.078125 -0.875l0.15625 0l0 -1.171875l-0.125 0q-0.984375 0 -1.703125 0.46875q-0.765625 0.5 -1.171875 1.5l0 -1.734375l-1.109375 0l0 9.875z" fill-rule="nonzero"/></g><g filter="url(#shadowFilter-p.6)"><use xlink:href="#p.6" transform="matrix(1.0 0.0 0.0 1.0 0.0 2.0)"/></g><defs><filter id="shadowFilter-p.6" filterUnits="userSpaceOnUse"><feGaussianBlur in="SourceAlpha" stdDeviation="2.0" result="blur"/><feComponentTransfer in="blur" color-interpolation-filters="sRGB"><feFuncR type="linear" slope="0" intercept="0.0"/><feFuncG type="linear" slope="0" intercept="0.0"/><feFuncB type="linear" slope="0" intercept="0.0"/><feFuncA type="linear" slope="0.5" intercept="0"/></feComponentTransfer></filter></defs><g id="p.6"><path fill="#efefef" d="m410.51968 36.262466l221.07083 0l0 254.67717l-221.07083 0z" fill-rule="evenodd"/><path stroke="#595959" stroke-width="1.0" stroke-linejoin="round" stroke-linecap="butt" d="m410.51968 36.262466l221.07083 0l0 254.67717l-221.07083 0z" fill-rule="evenodd"/></g><path fill="#000000" fill-opacity="0.0" d="m410.51968 32.68504l221.07083 0l0 42.01575l-221.07083 0z" fill-rule="evenodd"/><path fill="#000000" d="m469.1817 59.605038l5.125 -13.359375l1.90625 0l5.46875 13.359375l-2.015625 0l-1.546875 -4.046875l-5.59375 0l-1.46875 4.046875l-1.875 0zm3.859375 -5.484375l4.53125 0l-1.40625 -3.703125q-0.625 -1.6875 -0.9375 -2.765625q-0.265625 1.28125 -0.71875 2.546875l-1.46875 3.921875zm16.162323 1.9375l1.609375 0.21875q-0.265625 1.65625 -1.359375 2.609375q-1.078125 0.9375 -2.671875 0.9375q-1.984375 0 -3.1875 -1.296875q-1.203125 -1.296875 -1.203125 -3.71875q0 -1.578125 0.515625 -2.75q0.515625 -1.171875 1.578125 -1.75q1.0625 -0.59375 2.3125 -0.59375q1.578125 0 2.578125 0.796875q1.0 0.796875 1.28125 2.265625l-1.59375 0.234375q-0.234375 -0.96875 -0.8125 -1.453125q-0.578125 -0.5 -1.390625 -0.5q-1.234375 0 -2.015625 0.890625q-0.78125 0.890625 -0.78125 2.8125q0 1.953125 0.75 2.84375q0.75 0.875 1.953125 0.875q0.96875 0 1.609375 -0.59375q0.65625 -0.59375 0.828125 -1.828125zm9.328125 0l1.609375 0.21875q-0.265625 1.65625 -1.359375 2.609375q-1.078125 0.9375 -2.671875 0.9375q-1.984375 0 -3.1875 -1.296875q-1.203125 -1.296875 -1.203125 -3.71875q0 -1.578125 0.515625 -2.75q0.515625 -1.171875 1.578125 -1.75q1.0625 -0.59375 2.3125 -0.59375q1.578125 0 2.578125 0.796875q1.0 0.796875 1.28125 2.265625l-1.59375 0.234375q-0.234375 -0.96875 -0.8125 -1.453125q-0.578125 -0.5 -1.390625 -0.5q-1.234375 0 -2.015625 0.890625q-0.78125 0.890625 -0.78125 2.8125q0 1.953125 0.75 2.84375q0.75 0.875 1.953125 0.875q0.96875 0 1.609375 -0.59375q0.65625 -0.59375 0.828125 -1.828125zm9.34375 3.546875l0 -1.421875q-1.125 1.640625 -3.0625 1.640625q-0.859375 0 -1.609375 -0.328125q-0.734375 -0.328125 -1.09375 -0.828125q-0.359375 -0.5 -0.5 -1.21875q-0.109375 -0.46875 -0.109375 -1.53125l0 -5.984375l1.640625 0l0 5.359375q0 1.28125 0.109375 1.734375q0.15625 0.640625 0.65625 1.015625q0.5 0.375 1.234375 0.375q0.734375 0 1.375 -0.375q0.65625 -0.390625 0.921875 -1.03125q0.265625 -0.65625 0.265625 -1.890625l0 -5.1875l1.640625 0l0 9.671875l-1.46875 0zm4.0476074 0l0 -9.671875l1.4687195 0l0 1.359375q0.453125 -0.71875 1.203125 -1.140625q0.765625 -0.4375 1.71875 -0.4375q1.078125 0 1.765625 0.453125q0.6875 0.4375 0.96875 1.234375q1.15625 -1.6875 2.984375 -1.6875q1.453125 0 2.21875 0.796875q0.78125 0.796875 0.78125 2.453125l0 6.640625l-1.640625 0l0 -6.09375q0 -0.984375 -0.15625 -1.40625q-0.15625 -0.4375 -0.578125 -0.703125q-0.421875 -0.265625 -0.984375 -0.265625q-1.015625 0 -1.6875 0.6875q-0.671875 0.671875 -0.671875 2.15625l0 5.625l-1.640625 0l0 -6.28125q0 -1.09375 -0.40625 -1.640625q-0.40625 -0.546875 -1.3125 -0.546875q-0.6875 0 -1.28125 0.359375q-0.59375 0.359375 -0.859375 1.0625q-0.25 0.703125 -0.25 2.03125l0 5.015625l-1.6405945 0zm21.868927 0l0 -1.421875q-1.125 1.640625 -3.0625 1.640625q-0.859375 0 -1.609375 -0.328125q-0.734375 -0.328125 -1.09375 -0.828125q-0.359375 -0.5 -0.5 -1.21875q-0.109375 -0.46875 -0.109375 -1.53125l0 -5.984375l1.640625 0l0 5.359375q0 1.28125 0.109375 1.734375q0.15625 0.640625 0.65625 1.015625q0.5 0.375 1.234375 0.375q0.734375 0 1.375 -0.375q0.65625 -0.390625 0.921875 -1.03125q0.265625 -0.65625 0.265625 -1.890625l0 -5.1875l1.640625 0l0 9.671875l-1.46875 0zm4.0007324 0l0 -13.359375l1.640625 0l0 13.359375l-1.640625 0zm10.50415 -1.1875q-0.921875 0.765625 -1.765625 1.09375q-0.828125 0.3125 -1.796875 0.3125q-1.59375 0 -2.453125 -0.78125q-0.859375 -0.78125 -0.859375 -1.984375q0 -0.71875 0.328125 -1.296875q0.328125 -0.59375 0.84375 -0.9375q0.53125 -0.359375 1.1875 -0.546875q0.46875 -0.125 1.453125 -0.25q1.984375 -0.234375 2.921875 -0.5625q0.015625 -0.34375 0.015625 -0.421875q0 -1.0 -0.46875 -1.421875q-0.625 -0.546875 -1.875 -0.546875q-1.15625 0 -1.703125 0.40625q-0.546875 0.40625 -0.8125 1.421875l-1.609375 -0.21875q0.21875 -1.015625 0.71875 -1.640625q0.5 -0.640625 1.453125 -0.984375q0.953125 -0.34375 2.1875 -0.34375q1.25 0 2.015625 0.296875q0.78125 0.28125 1.140625 0.734375q0.375 0.4375 0.515625 1.109375q0.078125 0.421875 0.078125 1.515625l0 2.1875q0 2.28125 0.109375 2.890625q0.109375 0.59375 0.40625 1.15625l-1.703125 0q-0.265625 -0.515625 -0.328125 -1.1875zm-0.140625 -3.671875q-0.890625 0.375 -2.671875 0.625q-1.015625 0.140625 -1.4375 0.328125q-0.421875 0.1875 -0.65625 0.53125q-0.21875 0.34375 -0.21875 0.78125q0 0.65625 0.5 1.09375q0.5 0.4375 1.453125 0.4375q0.9375 0 1.671875 -0.40625q0.75 -0.421875 1.09375 -1.140625q0.265625 -0.5625 0.265625 -1.640625l0 -0.609375zm7.7819824 3.390625l0.234375 1.453125q-0.6875 0.140625 -1.234375 0.140625q-0.890625 0 -1.390625 -0.28125q-0.484375 -0.28125 -0.6875 -0.734375q-0.203125 -0.46875 -0.203125 -1.9375l0 -5.578125l-1.203125 0l0 -1.265625l1.203125 0l0 -2.390625l1.625 -0.984375l0 3.375l1.65625 0l0 1.265625l-1.65625 0l0 5.671875q0 0.6875 0.078125 0.890625q0.09375 0.203125 0.28125 0.328125q0.203125 0.109375 0.578125 0.109375q0.265625 0 0.71875 -0.0625zm0.9957886 -3.375q0 -2.6875 1.484375 -3.96875q1.25 -1.078125 3.046875 -1.078125q2.0 0 3.265625 1.3125q1.265625 1.296875 1.265625 3.609375q0 1.859375 -0.5625 2.9375q-0.5625 1.0625 -1.640625 1.65625q-1.0625 0.59375 -2.328125 0.59375q-2.03125 0 -3.28125 -1.296875q-1.25 -1.3125 -1.25 -3.765625zm1.6875 0q0 1.859375 0.796875 2.796875q0.8125 0.921875 2.046875 0.921875q1.21875 0 2.03125 -0.921875q0.8125 -0.9375 0.8125 -2.84375q0 -1.796875 -0.8125 -2.71875q-0.8125 -0.921875 -2.03125 -0.921875q-1.234375 0 -2.046875 0.921875q-0.796875 0.90625 -0.796875 2.765625zm9.281982 4.84375l0 -9.671875l1.46875 0l0 1.46875q0.5625 -1.03125 1.03125 -1.359375q0.484375 -0.328125 1.0625 -0.328125q0.828125 0 1.6875 0.53125l-0.5625 1.515625q-0.609375 -0.359375 -1.203125 -0.359375q-0.546875 0 -0.96875 0.328125q-0.421875 0.328125 -0.609375 0.890625q-0.28125 0.875 -0.28125 1.921875l0 5.0625l-1.625 0z" fill-rule="nonzero"/><g filter="url(#shadowFilter-p.7)"><use xlink:href="#p.7" transform="matrix(1.0 0.0 0.0 1.0 0.0 2.0)"/></g><defs><filter id="shadowFilter-p.7" filterUnits="userSpaceOnUse"><feGaussianBlur in="SourceAlpha" stdDeviation="2.0" result="blur"/><feComponentTransfer in="blur" color-interpolation-filters="sRGB"><feFuncR type="linear" slope="0" intercept="0.0"/><feFuncG type="linear" slope="0" intercept="0.0"/><feFuncB type="linear" slope="0" intercept="0.0"/><feFuncA type="linear" slope="0.5" intercept="0"/></feComponentTransfer></filter></defs><g id="p.7"><path fill="#cccccc" d="m424.58267 74.70079l192.94485 0l0 89.25984l-192.94485 0z" fill-rule="evenodd"/><path stroke="#595959" stroke-width="1.0" stroke-linejoin="round" stroke-linecap="butt" d="m424.58267 74.70079l192.94485 0l0 89.25984l-192.94485 0z" fill-rule="evenodd"/></g><g filter="url(#shadowFilter-p.8)"><use xlink:href="#p.8" transform="matrix(1.0 0.0 0.0 1.0 0.0 2.0)"/></g><defs><filter id="shadowFilter-p.8" filterUnits="userSpaceOnUse"><feGaussianBlur in="SourceAlpha" stdDeviation="2.0" result="blur"/><feComponentTransfer in="blur" color-interpolation-filters="sRGB"><feFuncR type="linear" slope="0" intercept="0.0"/><feFuncG type="linear" slope="0" intercept="0.0"/><feFuncB type="linear" slope="0" intercept="0.0"/><feFuncA type="linear" slope="0.5" intercept="0"/></feComponentTransfer></filter></defs><g id="p.8"><path fill="#cccccc" d="m424.58267 178.11163l192.94485 0l0 99.52756l-192.94485 0z" fill-rule="evenodd"/><path stroke="#595959" stroke-width="1.0" stroke-linejoin="round" stroke-linecap="butt" d="m424.58267 178.11163l192.94485 0l0 99.52756l-192.94485 0z" fill-rule="evenodd"/></g><path fill="#000000" fill-opacity="0.0" d="m472.83463 242.70412l96.44095 0l0 42.01573l-96.44095 0z" fill-rule="evenodd"/><path fill="#000000" d="m508.66354 255.54599l-10.375 0q-0.890625 0 -1.375 0.484375q-0.4375 0.453125 -0.4375 1.1875l0 5.640625q0 0.734375 0.453125 1.15625q0.46875 0.4375 1.296875 0.4375l10.515625 0q0.21875 0 0.34375 -0.15625q0.125 -0.140625 0.109375 -0.328125q0 -0.1875 -0.125 -0.34375q-0.15625 -0.125 -0.390625 -0.125l-10.28125 0q-0.4375 0 -0.625 -0.1875q-0.1875 -0.15625 -0.1875 -0.546875l0 -2.421875l10.890625 0q0.53125 0 0.53125 -0.484375q0 -0.453125 -0.53125 -0.453125l-10.890625 0l0 -2.0625q0 -0.453125 0.203125 -0.65625q0.21875 -0.1875 0.703125 -0.1875l10.25 0q0.21875 0 0.34375 -0.15625q0.125 -0.140625 0.109375 -0.3125q0 -0.21875 -0.125 -0.34375q-0.171875 -0.140625 -0.40625 -0.140625zm-6.4375 9.171875l0 3.625l-6.6875 0q-0.25 0 -0.40625 0.125q-0.125 0.15625 -0.140625 0.34375q-0.03125 0.1875 0.09375 0.328125q0.109375 0.15625 0.3125 0.15625l14.5625 0q0.234375 0 0.390625 -0.15625q0.140625 -0.140625 0.140625 -0.328125q0 -0.1875 -0.140625 -0.34375q-0.15625 -0.125 -0.40625 -0.125l-6.640625 0l0 -3.546875q0 -0.25 -0.1875 -0.40625q-0.15625 -0.140625 -0.359375 -0.140625q-0.21875 -0.03125 -0.375 0.109375q-0.15625 0.125 -0.15625 0.359375zm21.18753 -9.234375l-8.40625 0q-0.515625 0 -0.515625 0.46875q0 0.484375 0.515625 0.484375l8.40625 0q0.53125 0 0.53125 -0.484375q0 -0.46875 -0.53125 -0.46875zm-7.328125 2.25q0 0.90625 0.140625 2.265625q0.15625 1.21875 0.390625 2.484375l-2.109375 0.015625q-0.546875 0 -0.546875 0.4375q0 0.46875 0.546875 0.46875q3.0 0 5.546875 -0.234375q2.78125 -0.25 4.359375 -0.703125q0.234375 -0.0625 0.359375 -0.25q0.109375 -0.171875 0.0625 -0.34375q-0.03125 -0.203125 -0.203125 -0.296875q-0.1875 -0.125 -0.4375 -0.03125q-0.40625 0.125 -0.953125 0.234375q-0.328125 0.0625 -1.078125 0.203125l-0.296875 0.0625q0.203125 -1.015625 0.34375 -2.140625q0.15625 -1.265625 0.15625 -2.21875q0 -0.5 -0.53125 -0.5q-0.515625 0 -0.515625 0.5q0 0.953125 -0.140625 2.21875q-0.140625 1.296875 -0.34375 2.3125q-0.765625 0.078125 -1.640625 0.125q-0.859375 0.078125 -1.5 0.09375q-0.234375 -1.140625 -0.390625 -2.609375q-0.109375 -1.265625 -0.109375 -2.09375q0 -0.5 -0.5625 -0.5q-0.546875 0 -0.546875 0.5zm11.625 5.203125l0 -7.390625q0 -0.25 -0.171875 -0.375q-0.15625 -0.125 -0.375 -0.125q-0.25 0 -0.390625 0.125q-0.171875 0.140625 -0.171875 0.390625l0 7.375q0 0.265625 0.171875 0.4375q0.140625 0.140625 0.390625 0.140625q0.21875 0 0.375 -0.140625q0.171875 -0.171875 0.171875 -0.4375zm-1.78125 2.4375l-10.15625 0q-0.53125 0 -0.5 0.484375q0 0.484375 0.5 0.484375l10.0625 0q0.421875 0 0.59375 0.15625q0.171875 0.15625 0.171875 0.515625l0 3.0q0 0.265625 0.171875 0.421875q0.140625 0.140625 0.390625 0.140625q0.21875 0 0.375 -0.140625q0.171875 -0.15625 0.171875 -0.421875l0 -3.046875q0 -0.734375 -0.453125 -1.171875q-0.46875 -0.421875 -1.328125 -0.421875z" fill-rule="nonzero"/><path fill="#000000" d="m537.78436 269.6241l0 -13.359375l5.015625 0q1.53125 0 2.453125 0.40625q0.921875 0.40625 1.4375 1.25q0.53125 0.84375 0.53125 1.765625q0 0.859375 -0.46875 1.625q-0.453125 0.75 -1.390625 1.203125q1.203125 0.359375 1.859375 1.21875q0.65625 0.859375 0.65625 2.015625q0 0.9375 -0.40625 1.75q-0.390625 0.796875 -0.984375 1.234375q-0.578125 0.4375 -1.453125 0.671875q-0.875 0.21875 -2.15625 0.21875l-5.09375 0zm1.78125 -7.75l2.875 0q1.1875 0 1.6875 -0.140625q0.671875 -0.203125 1.015625 -0.671875q0.34375 -0.46875 0.34375 -1.171875q0 -0.65625 -0.328125 -1.15625q-0.3125 -0.515625 -0.90625 -0.703125q-0.59375 -0.1875 -2.03125 -0.1875l-2.65625 0l0 4.03125zm0 6.171875l3.3125 0q0.859375 0 1.203125 -0.0625q0.609375 -0.109375 1.015625 -0.359375q0.421875 -0.265625 0.6875 -0.75q0.265625 -0.484375 0.265625 -1.125q0 -0.75 -0.390625 -1.296875q-0.375 -0.546875 -1.0625 -0.765625q-0.671875 -0.234375 -1.953125 -0.234375l-3.078125 0l0 4.59375z" fill-rule="nonzero"/><path fill="#000000" fill-opacity="0.0" d="m472.83463 126.99807l96.44095 0l0 42.015755l-96.44095 0z" fill-rule="evenodd"/><path fill="#000000" d="m509.17853 139.83995l-10.375 0q-0.890625 0 -1.375 0.484375q-0.4375 0.453125 -0.4375 1.1875l0 5.640625q0 0.734375 0.453125 1.15625q0.46875 0.4375 1.296875 0.4375l10.515625 0q0.21875 0 0.34375 -0.15625q0.125 -0.140625 0.109375 -0.328125q0 -0.1875 -0.125 -0.34375q-0.15625 -0.125 -0.390625 -0.125l-10.28125 0q-0.4375 0 -0.625 -0.1875q-0.1875 -0.15625 -0.1875 -0.546875l0 -2.421875l10.890625 0q0.53125 0 0.53125 -0.484375q0 -0.453125 -0.53125 -0.453125l-10.890625 0l0 -2.0625q0 -0.453125 0.203125 -0.65625q0.21875 -0.1875 0.703125 -0.1875l10.25 0q0.21875 0 0.34375 -0.15625q0.125 -0.140625 0.109375 -0.3125q0 -0.21875 -0.125 -0.34375q-0.171875 -0.140625 -0.40625 -0.140625zm-6.4375 9.171875l0 3.625l-6.6875 0q-0.25 0 -0.40625 0.125q-0.125 0.15625 -0.140625 0.34375q-0.03125 0.1875 0.09375 0.328125q0.109375 0.15625 0.3125 0.15625l14.5625 0q0.234375 0 0.390625 -0.15625q0.140625 -0.140625 0.140625 -0.328125q0 -0.1875 -0.140625 -0.34375q-0.15625 -0.125 -0.40625 -0.125l-6.640625 0l0 -3.546875q0 -0.25 -0.1875 -0.40625q-0.15625 -0.140625 -0.359375 -0.140625q-0.21875 -0.03125 -0.375 0.109375q-0.15625 0.125 -0.15625 0.359375zm21.1875 -9.234375l-8.40625 0q-0.515625 0 -0.515625 0.46875q0 0.484375 0.515625 0.484375l8.40625 0q0.53125 0 0.53125 -0.484375q0 -0.46875 -0.53125 -0.46875zm-7.328125 2.25q0 0.90625 0.140625 2.265625q0.15625 1.21875 0.390625 2.484375l-2.109375 0.015625q-0.546875 0 -0.546875 0.4375q0 0.46875 0.546875 0.46875q3.0 0 5.546875 -0.234375q2.78125 -0.25 4.359375 -0.703125q0.234375 -0.0625 0.359375 -0.25q0.109375 -0.171875 0.0625 -0.34375q-0.03125 -0.203125 -0.203125 -0.296875q-0.1875 -0.125 -0.4375 -0.03125q-0.40625 0.125 -0.953125 0.234375q-0.328125 0.0625 -1.078125 0.203125l-0.296875 0.0625q0.203125 -1.015625 0.34375 -2.140625q0.15625 -1.265625 0.15625 -2.21875q0 -0.5 -0.53125 -0.5q-0.515625 0 -0.515625 0.5q0 0.953125 -0.140625 2.21875q-0.140625 1.296875 -0.34375 2.3125q-0.765625 0.078125 -1.640625 0.125q-0.859375 0.078125 -1.5 0.09375q-0.234375 -1.140625 -0.390625 -2.609375q-0.109375 -1.265625 -0.109375 -2.09375q0 -0.5 -0.5625 -0.5q-0.546875 0 -0.546875 0.5zm11.625 5.203125l0 -7.390625q0 -0.25 -0.171875 -0.375q-0.15625 -0.125 -0.375 -0.125q-0.25 0 -0.390625 0.125q-0.171875 0.140625 -0.171875 0.390625l0 7.375q0 0.265625 0.171875 0.4375q0.140625 0.140625 0.390625 0.140625q0.21875 0 0.375 -0.140625q0.171875 -0.171875 0.171875 -0.4375zm-1.78125 2.4375l-10.15625 0q-0.53125 0 -0.5 0.484375q0 0.484375 0.5 0.484375l10.0625 0q0.421875 0 0.59375 0.15625q0.171875 0.15625 0.171875 0.515625l0 3.0q0 0.265625 0.171875 0.421875q0.140625 0.140625 0.390625 0.140625q0.21875 0 0.375 -0.140625q0.171875 -0.15625 0.171875 -0.421875l0 -3.046875q0 -0.734375 -0.453125 -1.171875q-0.46875 -0.421875 -1.328125 -0.421875z" fill-rule="nonzero"/><path fill="#000000" d="m535.8787 153.91808l5.125 -13.359375l1.90625 0l5.46875 13.359375l-2.015625 0l-1.546875 -4.046875l-5.59375 0l-1.46875 4.046875l-1.875 0zm3.859375 -5.484375l4.53125 0l-1.40625 -3.703125q-0.625 -1.6875 -0.9375 -2.765625q-0.265625 1.28125 -0.71875 2.546875l-1.46875 3.921875z" fill-rule="nonzero"/><g filter="url(#shadowFilter-p.9)"><use xlink:href="#p.9" transform="matrix(1.0 0.0 0.0 1.0 0.0 2.0)"/></g><defs><filter id="shadowFilter-p.9" filterUnits="userSpaceOnUse"><feGaussianBlur in="SourceAlpha" stdDeviation="2.0" result="blur"/><feComponentTransfer in="blur" color-interpolation-filters="sRGB"><feFuncR type="linear" slope="0" intercept="0.0"/><feFuncG type="linear" slope="0" intercept="0.0"/><feFuncB type="linear" slope="0" intercept="0.0"/><feFuncA type="linear" slope="0.5" intercept="0"/></feComponentTransfer></filter></defs><g id="p.9"><path fill="#efefef" d="m436.01968 89.8126l74.80316 0l0 33.669296l-74.80316 0z" fill-rule="evenodd"/><path stroke="#595959" stroke-width="1.0" stroke-linejoin="round" stroke-linecap="butt" d="m436.01968 89.8126l74.80316 0l0 33.669296l-74.80316 0z" fill-rule="evenodd"/><path fill="#000000" d="m462.74158 99.601l-0.6875 0l0 6.546875l-1.78125 0l0 -5.625q0 -0.09375 0.03125 -0.171875q0.015625 -0.078125 0.0625 -0.15625q0.0625 -0.125 0.03125 -0.171875q-0.0625 -0.0625 -0.375 -0.09375l-0.765625 0l0 12.9375l1.015625 0l0 -5.90625l1.78125 0l0 6.375l1.046875 0l0 -13.046875q0 -0.109375 0.03125 -0.21875q0.015625 -0.0625 0.078125 -0.15625q0.078125 -0.171875 0.015625 -0.21875q-0.078125 -0.046875 -0.484375 -0.09375zm-10.1875 1.953125l-0.75 0l0 8.09375l5.421875 0l0 -7.53125q0 -0.09375 0.015625 -0.15625q0.03125 -0.0625 0.046875 -0.140625q0.078125 -0.125 0.03125 -0.171875q-0.0625 -0.0625 -0.40625 -0.09375l-0.765625 0l0 2.8125l-3.3125 0l0 -2.34375q0 -0.046875 0.015625 -0.125q0.015625 -0.03125 0.0625 -0.109375q0.0625 -0.109375 0.03125 -0.15625q-0.0625 -0.0625 -0.390625 -0.078125zm0.28125 3.640625l3.3125 0l0 3.59375l-3.3125 0l0 -3.59375zm25.96875 -5.53125l-0.71875 0l0 13.75l1.0625 0l0 -13.140625q0 -0.09375 0.03125 -0.171875q0.03125 -0.046875 0.078125 -0.140625q0.109375 -0.125 0.0625 -0.1875q-0.078125 -0.0625 -0.515625 -0.109375zm-8.375 1.359375l0 0.84375l3.484375 0l0 -0.84375l-3.484375 0zm-2.4375 2.390625l0 0.859375l3.734375 0q0 1.8125 -1.484375 3.46875q-1.296875 1.484375 -2.890625 2.0l0.984375 0.796875q1.203125 -0.609375 2.265625 -1.578125q1.09375 -1.046875 1.671875 -2.171875q0.359375 1.09375 1.484375 2.15625q0.90625 0.859375 1.859375 1.34375l0.828125 -0.8125q-1.765625 -0.765625 -2.75 -2.328125q-0.875 -1.359375 -0.875 -2.875l3.3125 0l0 -0.859375l-8.140625 0zm20.4375 3.34375q0 2.8125 0.9375 4.296875q0.953125 1.46875 2.734375 1.46875q1.765625 0 2.703125 -1.46875q0.96875 -1.484375 0.96875 -4.28125q0 -2.8125 -0.96875 -4.296875q-0.9375 -1.46875 -2.703125 -1.46875q-1.78125 0 -2.734375 1.453125q-0.9375 1.484375 -0.9375 4.296875zm1.09375 0q0 -2.453125 0.625 -3.625q0.625 -1.171875 1.953125 -1.171875q1.296875 0 1.9375 1.171875q0.640625 1.171875 0.640625 3.625q0 2.4375 -0.640625 3.625q-0.640625 1.1875 -1.9375 1.1875q-1.328125 0 -1.953125 -1.1875q-0.625 -1.1875 -0.625 -3.625z" fill-rule="nonzero"/></g><g filter="url(#shadowFilter-p.10)"><use xlink:href="#p.10" transform="matrix(1.0 0.0 0.0 1.0 0.0 2.0)"/></g><defs><filter id="shadowFilter-p.10" filterUnits="userSpaceOnUse"><feGaussianBlur in="SourceAlpha" stdDeviation="2.0" result="blur"/><feComponentTransfer in="blur" color-interpolation-filters="sRGB"><feFuncR type="linear" slope="0" intercept="0.0"/><feFuncG type="linear" slope="0" intercept="0.0"/><feFuncB type="linear" slope="0" intercept="0.0"/><feFuncA type="linear" slope="0.5" intercept="0"/></feComponentTransfer></filter></defs><g id="p.10"><path fill="#efefef" d="m531.2874 89.8126l74.80316 0l0 33.669296l-74.80316 0z" fill-rule="evenodd"/><path stroke="#595959" stroke-width="1.0" stroke-linejoin="round" stroke-linecap="butt" d="m531.2874 89.8126l74.80316 0l0 33.669296l-74.80316 0z" fill-rule="evenodd"/><path fill="#000000" d="m558.0093 99.601l-0.6875 0l0 6.546875l-1.78125 0l0 -5.625q0 -0.09375 0.03125 -0.171875q0.015625 -0.078125 0.0625 -0.15625q0.0625 -0.125 0.03125 -0.171875q-0.0625 -0.0625 -0.375 -0.09375l-0.765625 0l0 12.9375l1.015625 0l0 -5.90625l1.78125 0l0 6.375l1.046875 0l0 -13.046875q0 -0.109375 0.03125 -0.21875q0.015625 -0.0625 0.078125 -0.15625q0.078125 -0.171875 0.015625 -0.21875q-0.078125 -0.046875 -0.484375 -0.09375zm-10.1875 1.953125l-0.75 0l0 8.09375l5.421875 0l0 -7.53125q0 -0.09375 0.015625 -0.15625q0.03125 -0.0625 0.046875 -0.140625q0.078125 -0.125 0.03125 -0.171875q-0.0625 -0.0625 -0.40625 -0.09375l-0.765625 0l0 2.8125l-3.3125 0l0 -2.34375q0 -0.046875 0.015625 -0.125q0.015625 -0.03125 0.0625 -0.109375q0.0625 -0.109375 0.03125 -0.15625q-0.0625 -0.0625 -0.390625 -0.078125zm0.28125 3.640625l3.3125 0l0 3.59375l-3.3125 0l0 -3.59375zm25.96875 -5.53125l-0.71875 0l0 13.75l1.0625 0l0 -13.140625q0 -0.09375 0.03125 -0.171875q0.03125 -0.046875 0.078125 -0.140625q0.109375 -0.125 0.0625 -0.1875q-0.078125 -0.0625 -0.515625 -0.109375zm-8.375 1.359375l0 0.84375l3.484375 0l0 -0.84375l-3.484375 0zm-2.4375 2.390625l0 0.859375l3.734375 0q0 1.8125 -1.484375 3.46875q-1.296875 1.484375 -2.890625 2.0l0.984375 0.796875q1.203125 -0.609375 2.265625 -1.578125q1.09375 -1.046875 1.671875 -2.171875q0.359375 1.09375 1.484375 2.15625q0.90625 0.859375 1.859375 1.34375l0.828125 -0.8125q-1.765625 -0.765625 -2.75 -2.328125q-0.875 -1.359375 -0.875 -2.875l3.3125 0l0 -0.859375l-8.140625 0zm23.71875 8.78125l1.046875 0l0 -11.1875l-0.921875 0q-0.078125 1.15625 -0.765625 1.6875q-0.6875 0.53125 -2.0625 0.53125l-0.078125 0l0 0.6875l0.171875 0q0.9375 0 1.578125 -0.15625q0.640625 -0.15625 1.03125 -0.46875l0 8.90625z" fill-rule="nonzero"/></g><g filter="url(#shadowFilter-p.11)"><use xlink:href="#p.11" transform="matrix(1.0 0.0 0.0 1.0 0.0 2.0)"/></g><defs><filter id="shadowFilter-p.11" filterUnits="userSpaceOnUse"><feGaussianBlur in="SourceAlpha" stdDeviation="2.0" result="blur"/><feComponentTransfer in="blur" color-interpolation-filters="sRGB"><feFuncR type="linear" slope="0" intercept="0.0"/><feFuncG type="linear" slope="0" intercept="0.0"/><feFuncB type="linear" slope="0" intercept="0.0"/><feFuncA type="linear" slope="0.5" intercept="0"/></feComponentTransfer></filter></defs><g id="p.11"><path fill="#efefef" d="m436.01837 204.4832l74.80316 0l0 33.669296l-74.80316 0z" fill-rule="evenodd"/><path stroke="#595959" stroke-width="1.0" stroke-linejoin="round" stroke-linecap="butt" d="m436.01837 204.4832l74.80316 0l0 33.669296l-74.80316 0z" fill-rule="evenodd"/><path fill="#000000" d="m462.74026 214.2716l-0.6875 0l0 6.546875l-1.78125 0l0 -5.625q0 -0.09375 0.03125 -0.171875q0.015625 -0.078125 0.0625 -0.15625q0.0625 -0.125 0.03125 -0.171875q-0.0625 -0.0625 -0.375 -0.09375l-0.765625 0l0 12.9375l1.015625 0l0 -5.90625l1.78125 0l0 6.375l1.046875 0l0 -13.046875q0 -0.109375 0.03125 -0.21875q0.015625 -0.0625 0.078125 -0.15625q0.078125 -0.171875 0.015625 -0.21875q-0.078125 -0.046875 -0.484375 -0.09375zm-10.1875 1.953125l-0.75 0l0 8.09375l5.421875 0l0 -7.53125q0 -0.09375 0.015625 -0.15625q0.03125 -0.0625 0.046875 -0.140625q0.078125 -0.125 0.03125 -0.171875q-0.0625 -0.0625 -0.40625 -0.09375l-0.765625 0l0 2.8125l-3.3125 0l0 -2.34375q0 -0.046875 0.015625 -0.125q0.015625 -0.03125 0.0625 -0.109375q0.0625 -0.109375 0.03125 -0.15625q-0.0625 -0.0625 -0.390625 -0.078125zm0.28125 3.640625l3.3125 0l0 3.59375l-3.3125 0l0 -3.59375zm25.96875 -5.53125l-0.71875 0l0 13.75l1.0625 0l0 -13.140625q0 -0.09375 0.03125 -0.171875q0.03125 -0.046875 0.078125 -0.140625q0.109375 -0.125 0.0625 -0.1875q-0.078125 -0.0625 -0.515625 -0.109375zm-8.375 1.359375l0 0.84375l3.484375 0l0 -0.84375l-3.484375 0zm-2.4375 2.390625l0 0.859375l3.734375 0q0 1.8125 -1.484375 3.46875q-1.296875 1.484375 -2.890625 2.0l0.984375 0.796875q1.203125 -0.609375 2.265625 -1.578125q1.09375 -1.046875 1.671875 -2.171875q0.359375 1.09375 1.484375 2.15625q0.90625 0.859375 1.859375 1.34375l0.828125 -0.8125q-1.765625 -0.765625 -2.75 -2.328125q-0.875 -1.359375 -0.875 -2.875l3.3125 0l0 -0.859375l-8.140625 0zm20.4375 3.34375q0 2.8125 0.9375 4.296875q0.953125 1.46875 2.734375 1.46875q1.765625 0 2.703125 -1.46875q0.96875 -1.484375 0.96875 -4.28125q0 -2.8125 -0.96875 -4.296875q-0.9375 -1.46875 -2.703125 -1.46875q-1.78125 0 -2.734375 1.453125q-0.9375 1.484375 -0.9375 4.296875zm1.09375 0q0 -2.453125 0.625 -3.625q0.625 -1.171875 1.953125 -1.171875q1.296875 0 1.9375 1.171875q0.640625 1.171875 0.640625 3.625q0 2.4375 -0.640625 3.625q-0.640625 1.1875 -1.9375 1.1875q-1.328125 0 -1.953125 -1.1875q-0.625 -1.1875 -0.625 -3.625z" fill-rule="nonzero"/></g><g filter="url(#shadowFilter-p.12)"><use xlink:href="#p.12" transform="matrix(1.0 0.0 0.0 1.0 0.0 2.0)"/></g><defs><filter id="shadowFilter-p.12" filterUnits="userSpaceOnUse"><feGaussianBlur in="SourceAlpha" stdDeviation="2.0" result="blur"/><feComponentTransfer in="blur" color-interpolation-filters="sRGB"><feFuncR type="linear" slope="0" intercept="0.0"/><feFuncG type="linear" slope="0" intercept="0.0"/><feFuncB type="linear" slope="0" intercept="0.0"/><feFuncA type="linear" slope="0.5" intercept="0"/></feComponentTransfer></filter></defs><g id="p.12"><path fill="#efefef" d="m531.2861 204.4832l74.80316 0l0 33.669296l-74.80316 0z" fill-rule="evenodd"/><path stroke="#595959" stroke-width="1.0" stroke-linejoin="round" stroke-linecap="butt" d="m531.2861 204.4832l74.80316 0l0 33.669296l-74.80316 0z" fill-rule="evenodd"/><path fill="#000000" d="m558.008 214.2716l-0.6875 0l0 6.546875l-1.78125 0l0 -5.625q0 -0.09375 0.03125 -0.171875q0.015625 -0.078125 0.0625 -0.15625q0.0625 -0.125 0.03125 -0.171875q-0.0625 -0.0625 -0.375 -0.09375l-0.765625 0l0 12.9375l1.015625 0l0 -5.90625l1.78125 0l0 6.375l1.046875 0l0 -13.046875q0 -0.109375 0.03125 -0.21875q0.015625 -0.0625 0.078125 -0.15625q0.078125 -0.171875 0.015625 -0.21875q-0.078125 -0.046875 -0.484375 -0.09375zm-10.1875 1.953125l-0.75 0l0 8.09375l5.421875 0l0 -7.53125q0 -0.09375 0.015625 -0.15625q0.03125 -0.0625 0.046875 -0.140625q0.078125 -0.125 0.03125 -0.171875q-0.0625 -0.0625 -0.40625 -0.09375l-0.765625 0l0 2.8125l-3.3125 0l0 -2.34375q0 -0.046875 0.015625 -0.125q0.015625 -0.03125 0.0625 -0.109375q0.0625 -0.109375 0.03125 -0.15625q-0.0625 -0.0625 -0.390625 -0.078125zm0.28125 3.640625l3.3125 0l0 3.59375l-3.3125 0l0 -3.59375zm25.96875 -5.53125l-0.71875 0l0 13.75l1.0625 0l0 -13.140625q0 -0.09375 0.03125 -0.171875q0.03125 -0.046875 0.078125 -0.140625q0.109375 -0.125 0.0625 -0.1875q-0.078125 -0.0625 -0.515625 -0.109375zm-8.375 1.359375l0 0.84375l3.484375 0l0 -0.84375l-3.484375 0zm-2.4375 2.390625l0 0.859375l3.734375 0q0 1.8125 -1.484375 3.46875q-1.296875 1.484375 -2.890625 2.0l0.984375 0.796875q1.203125 -0.609375 2.265625 -1.578125q1.09375 -1.046875 1.671875 -2.171875q0.359375 1.09375 1.484375 2.15625q0.90625 0.859375 1.859375 1.34375l0.828125 -0.8125q-1.765625 -0.765625 -2.75 -2.328125q-0.875 -1.359375 -0.875 -2.875l3.3125 0l0 -0.859375l-8.140625 0zm23.71875 8.78125l1.046875 0l0 -11.1875l-0.921875 0q-0.078125 1.15625 -0.765625 1.6875q-0.6875 0.53125 -2.0625 0.53125l-0.078125 0l0 0.6875l0.171875 0q0.9375 0 1.578125 -0.15625q0.640625 -0.15625 1.03125 -0.46875l0 8.90625z" fill-rule="nonzero"/></g><path fill="#000000" fill-opacity="0.0" d="m189.38014 171.20735l58.48819 0" fill-rule="evenodd"/><path stroke="#595959" stroke-width="3.0" stroke-linejoin="round" stroke-linecap="butt" d="m189.38014 171.20735l40.48819 0" fill-rule="evenodd"/><path fill="#595959" stroke="#595959" stroke-width="3.0" stroke-linecap="butt" d="m229.86833 176.16255l13.614304 -4.9552l-13.614304 -4.9552z" fill-rule="evenodd"/><path fill="#000000" fill-opacity="0.0" d="m174.27174 129.66063l86.39369 0l0 38.771652l-86.39369 0z" fill-rule="evenodd"/><path fill="#000000" d="m195.2928 151.53625l1.390625 -0.21875q0.109375 0.84375 0.640625 1.296875q0.546875 0.4375 1.5 0.4375q0.96875 0 1.4375 -0.390625q0.46875 -0.40625 0.46875 -0.9375q0 -0.46875 -0.40625 -0.75q-0.296875 -0.1875 -1.4375 -0.46875q-1.546875 -0.390625 -2.15625 -0.671875q-0.59375 -0.296875 -0.90625 -0.796875q-0.296875 -0.5 -0.296875 -1.109375q0 -0.5625 0.25 -1.03125q0.25 -0.46875 0.6875 -0.78125q0.328125 -0.25 0.890625 -0.40625q0.578125 -0.171875 1.21875 -0.171875q0.984375 0 1.71875 0.28125q0.734375 0.28125 1.078125 0.765625q0.359375 0.46875 0.5 1.28125l-1.375 0.1875q-0.09375 -0.640625 -0.546875 -1.0q-0.453125 -0.359375 -1.265625 -0.359375q-0.96875 0 -1.390625 0.328125q-0.40625 0.3125 -0.40625 0.734375q0 0.28125 0.171875 0.5q0.171875 0.21875 0.53125 0.375q0.21875 0.078125 1.25 0.359375q1.484375 0.390625 2.078125 0.65625q0.59375 0.25 0.921875 0.734375q0.34375 0.484375 0.34375 1.203125q0 0.703125 -0.421875 1.328125q-0.40625 0.609375 -1.1875 0.953125q-0.765625 0.34375 -1.734375 0.34375q-1.625 0 -2.46875 -0.671875q-0.84375 -0.671875 -1.078125 -2.0zm14.234375 -0.1875l1.453125 0.171875q-0.34375 1.28125 -1.28125 1.984375q-0.921875 0.703125 -2.359375 0.703125q-1.828125 0 -2.890625 -1.125q-1.0625 -1.125 -1.0625 -3.140625q0 -2.09375 1.078125 -3.25q1.078125 -1.15625 2.796875 -1.15625q1.65625 0 2.703125 1.140625q1.0625 1.125 1.0625 3.171875q0 0.125 0 0.375l-6.1875 0q0.078125 1.375 0.765625 2.109375q0.703125 0.71875 1.734375 0.71875q0.78125 0 1.328125 -0.40625q0.546875 -0.40625 0.859375 -1.296875zm-4.609375 -2.28125l4.625 0q-0.09375 -1.046875 -0.53125 -1.5625q-0.671875 -0.8125 -1.734375 -0.8125q-0.96875 0 -1.640625 0.65625q-0.65625 0.640625 -0.71875 1.71875zm7.8359375 4.953125l0 -8.296875l1.265625 0l0 1.171875q0.90625 -1.359375 2.640625 -1.359375q0.75 0 1.375 0.265625q0.625 0.265625 0.9375 0.703125q0.3125 0.4375 0.4375 1.046875q0.078125 0.390625 0.078125 1.359375l0 5.109375l-1.40625 0l0 -5.046875q0 -0.859375 -0.171875 -1.28125q-0.15625 -0.4375 -0.578125 -0.6875q-0.40625 -0.25 -0.96875 -0.25q-0.90625 0 -1.5625 0.578125q-0.640625 0.5625 -0.640625 2.15625l0 4.53125l-1.40625 0zm14.2734375 0l0 -1.046875q-0.78125 1.234375 -2.3125 1.234375q-1.0 0 -1.828125 -0.546875q-0.828125 -0.546875 -1.296875 -1.53125q-0.453125 -0.984375 -0.453125 -2.25q0 -1.25 0.40625 -2.25q0.421875 -1.015625 1.25 -1.546875q0.828125 -0.546875 1.859375 -0.546875q0.75 0 1.328125 0.3125q0.59375 0.3125 0.953125 0.828125l0 -4.109375l1.40625 0l0 11.453125l-1.3125 0zm-4.4375 -4.140625q0 1.59375 0.671875 2.390625q0.671875 0.78125 1.578125 0.78125q0.921875 0 1.5625 -0.75q0.65625 -0.765625 0.65625 -2.3125q0 -1.703125 -0.65625 -2.5q-0.65625 -0.796875 -1.625 -0.796875q-0.9375 0 -1.5625 0.765625q-0.625 0.765625 -0.625 2.421875zm10.6484375 7.515625q-1.171875 -1.46875 -1.984375 -3.4375q-0.796875 -1.984375 -0.796875 -4.09375q0 -1.859375 0.609375 -3.5625q0.703125 -1.96875 2.171875 -3.9375l1.0 0q-0.9375 1.625 -1.25 2.328125q-0.46875 1.078125 -0.75 2.25q-0.328125 1.453125 -0.328125 2.9375q0 3.75 2.328125 7.515625l-1.0 0zm3.5625 0l-1.015625 0q2.34375 -3.765625 2.34375 -7.515625q0 -1.46875 -0.34375 -2.921875q-0.265625 -1.171875 -0.734375 -2.25q-0.3125 -0.703125 -1.265625 -2.34375l1.015625 0q1.46875 1.96875 2.1718903 3.9375q0.59375 1.703125 0.59375 3.5625q0 2.109375 -0.8125 4.09375q-0.79689026 1.96875 -1.9531403 3.4375z" fill-rule="nonzero"/><path fill="#000000" fill-opacity="0.0" d="m606.0906 106.64725l69.51178 64.566925" fill-rule="evenodd"/><path stroke="#595959" stroke-width="3.0" stroke-linejoin="round" stroke-linecap="butt" d="m606.0906 106.64725l56.323425 52.316742" fill-rule="evenodd"/><path fill="#595959" stroke="#595959" stroke-width="3.0" stroke-linecap="butt" d="m659.0417 162.5946l13.347351 5.6348114l-6.602722 -12.896027z" fill-rule="evenodd"/><path fill="#000000" fill-opacity="0.0" d="m360.13623 171.20872l64.44092 -51.87401" fill-rule="evenodd"/><path stroke="#595959" stroke-width="3.0" stroke-linejoin="round" stroke-linecap="butt" d="m360.13623 171.20874l50.419464 -40.586945" fill-rule="evenodd"/><path fill="#595959" stroke="#595959" stroke-width="3.0" stroke-linecap="butt" d="m413.6629 134.48175l7.4979553 -12.3969345l-13.712372 4.6770325z" fill-rule="evenodd"/><path fill="#000000" fill-opacity="0.0" d="m360.13623 171.20872l64.44092 56.661423" fill-rule="evenodd"/><path stroke="#595959" stroke-width="3.0" stroke-linejoin="round" stroke-linecap="butt" d="m360.13623 171.20874l50.92328 44.77562" fill-rule="evenodd"/><path fill="#595959" stroke="#595959" stroke-width="3.0" stroke-linecap="butt" d="m407.78748 219.70563l13.496124 5.2685394l-6.9520874 -12.71109z" fill-rule="evenodd"/><path fill="#000000" fill-opacity="0.0" d="m606.08923 221.31786l69.543335 -50.110245" fill-rule="evenodd"/><path stroke="#595959" stroke-width="3.0" stroke-linejoin="round" stroke-linecap="butt" d="m606.08923 221.31786l54.939575 -39.587357" fill-rule="evenodd"/><path fill="#595959" stroke="#595959" stroke-width="3.0" stroke-linecap="butt" d="m663.92566 185.75075l8.148682 -11.979233l-13.942383 3.9387512z" fill-rule="evenodd"/></g></svg>