<svg version="1.1" viewBox="0.0 0.0 960.0 540.0" fill="none" stroke="none" stroke-linecap="square" stroke-miterlimit="10" xmlns:xlink="http://www.w3.org/1999/xlink" xmlns="http://www.w3.org/2000/svg"><clipPath id="g11da9520085_0_132.0"><path d="m0 0l960.0 0l0 540.0l-960.0 0l0 -540.0z" clip-rule="nonzero"/></clipPath><g clip-path="url(#g11da9520085_0_132.0)"><path fill="#ffffff" d="m0 0l960.0 0l0 540.0l-960.0 0z" fill-rule="evenodd"/><g filter="url(#shadowFilter-g11da9520085_0_132.1)"><use xlink:href="#g11da9520085_0_132.1" transform="matrix(1.0 0.0 0.0 1.0 0.0 2.0)"/></g><defs><filter id="shadowFilter-g11da9520085_0_132.1" filterUnits="userSpaceOnUse"><feGaussianBlur in="SourceAlpha" stdDeviation="2.0" result="blur"/><feComponentTransfer in="blur" color-interpolation-filters="sRGB"><feFuncR type="linear" slope="0" intercept="0.0"/><feFuncG type="linear" slope="0" intercept="0.0"/><feFuncB type="linear" slope="0" intercept="0.0"/><feFuncA type="linear" slope="0.5" intercept="0"/></feComponentTransfer></filter></defs><g id="g11da9520085_0_132.1"><path fill="#b7b7b7" d="m39.50607 46.063046l448.59842 0l0 447.87402l-448.59842 0z" fill-rule="evenodd"/><path stroke="#595959" stroke-width="1.0" stroke-linejoin="round" stroke-linecap="butt" d="m39.50607 46.063046l448.59842 0l0 447.87402l-448.59842 0z" fill-rule="evenodd"/></g><g filter="url(#shadowFilter-g11da9520085_0_132.2)"><use xlink:href="#g11da9520085_0_132.2" transform="matrix(1.0 0.0 0.0 1.0 0.0 2.0)"/></g><defs><filter id="shadowFilter-g11da9520085_0_132.2" filterUnits="userSpaceOnUse"><feGaussianBlur in="SourceAlpha" stdDeviation="2.0" result="blur"/><feComponentTransfer in="blur" color-interpolation-filters="sRGB"><feFuncR type="linear" slope="0" intercept="0.0"/><feFuncG type="linear" slope="0" intercept="0.0"/><feFuncB type="linear" slope="0" intercept="0.0"/><feFuncA type="linear" slope="0.5" intercept="0"/></feComponentTransfer></filter></defs><g id="g11da9520085_0_132.2"><path fill="#eeeeee" d="m53.577427 93.685036l407.3071 0l0 163.21262l-407.3071 0z" fill-rule="evenodd"/><path stroke="#595959" stroke-width="1.0" stroke-linejoin="round" stroke-linecap="butt" d="m53.577427 93.685036l407.3071 0l0 163.21262l-407.3071 0z" fill-rule="evenodd"/></g><path fill="#000000" fill-opacity="0.0" d="m174.73611 46.063046l178.14172 0l0 42.01575l-178.14172 0z" fill-rule="evenodd"/><path fill="#000000" d="m260.22885 58.90492l-10.374985 0q-0.890625 0 -1.375 0.484375q-0.4375 0.453125 -0.4375 1.1875l0 5.640629q0 0.734375 0.453125 1.15625q0.46875 0.4375 1.296875 0.4375l10.51561 0q0.21875 0 0.34375 -0.15625q0.125 -0.140625 0.109375 -0.328125q0 -0.1875 -0.125 -0.34375q-0.15625 -0.125 -0.390625 -0.125l-10.281235 0q-0.4375 0 -0.625 -0.1875q-0.1875 -0.15625 -0.1875 -0.546875l0 -2.4218788l10.89061 0q0.53125 0 0.53125 -0.484375q0 -0.453125 -0.53125 -0.453125l-10.89061 0l0 -2.0625q0 -0.453125 0.203125 -0.65625q0.21875 -0.1875 0.703125 -0.1875l10.249985 0q0.21875 0 0.34375 -0.15625q0.125 -0.140625 0.109375 -0.3125q0 -0.21875 -0.125 -0.34375q-0.171875 -0.140625 -0.40625 -0.140625zm-6.4374847 9.171879l0 3.625l-6.6875 0q-0.25 0 -0.40625 0.125q-0.125 0.15625 -0.140625 0.34375q-0.03125 0.1875 0.09375 0.328125q0.109375 0.15625 0.3125 0.15625l14.562485 0q0.234375 0 0.390625 -0.15625q0.140625 -0.140625 0.140625 -0.328125q0 -0.1875 -0.140625 -0.34375q-0.15625 -0.125 -0.40625 -0.125l-6.6406097 0l0 -3.546875q0 -0.25 -0.1875 -0.40625q-0.15625 -0.140625 -0.359375 -0.140625q-0.21875 -0.03125 -0.375 0.109375q-0.15625 0.125 -0.15625 0.359375zm21.187485 -9.234379l-8.40625 0q-0.515625 0 -0.515625 0.46875q0 0.484375 0.515625 0.484375l8.40625 0q0.53125 0 0.53125 -0.484375q0 -0.46875 -0.53125 -0.46875zm-7.328125 2.25q0 0.90625 0.140625 2.265625q0.15625 1.2187538 0.390625 2.4843788l-2.109375 0.015625q-0.546875 0 -0.546875 0.4375q0 0.46875 0.546875 0.46875q3.0 0 5.546875 -0.234375q2.78125 -0.25 4.359375 -0.703125q0.234375 -0.0625 0.359375 -0.25q0.109375 -0.171875 0.0625 -0.34375q-0.03125 -0.203125 -0.203125 -0.296875q-0.1875 -0.125 -0.4375 -0.03125q-0.40625 0.125 -0.953125 0.234375q-0.328125 0.0625 -1.078125 0.203125l-0.296875 0.0625q0.203125 -1.015625 0.34375 -2.1406288q0.15625 -1.265625 0.15625 -2.21875q0 -0.5 -0.53125 -0.5q-0.515625 0 -0.515625 0.5q0 0.953125 -0.140625 2.21875q-0.140625 1.2968788 -0.34375 2.3125038q-0.765625 0.078125 -1.640625 0.125q-0.859375 0.078125 -1.5 0.09375q-0.234375 -1.140625 -0.390625 -2.6093788q-0.109375 -1.265625 -0.109375 -2.09375q0 -0.5 -0.5625 -0.5q-0.546875 0 -0.546875 0.5zm11.625 5.203129l0 -7.390629q0 -0.25 -0.171875 -0.375q-0.15625 -0.125 -0.375 -0.125q-0.25 0 -0.390625 0.125q-0.171875 0.140625 -0.171875 0.390625l0 7.375004q0 0.265625 0.171875 0.4375q0.140625 0.140625 0.390625 0.140625q0.21875 0 0.375 -0.140625q0.171875 -0.171875 0.171875 -0.4375zm-1.78125 2.4375l-10.15625 0q-0.53125 0 -0.5 0.484375q0 0.484375 0.5 0.484375l10.0625 0q0.421875 0 0.59375 0.15625q0.171875 0.15625 0.171875 0.515625l0 3.0q0 0.265625 0.171875 0.421875q0.140625 0.140625 0.390625 0.140625q0.21875 0 0.375 -0.140625q0.171875 -0.15625 0.171875 -0.421875l0 -3.046875q0 -0.734375 -0.453125 -1.171875q-0.46875 -0.421875 -1.328125 -0.421875z" fill-rule="nonzero"/><path fill="#000000" fill-opacity="0.0" d="m53.577477 150.72047l117.00788 0l0 42.015747l-117.00788 0z" fill-rule="evenodd"/><path fill="#000000" d="m81.78592 163.62485l-8.40625 0q-0.515625 0 -0.515625 0.46875q0 0.484375 0.515625 0.484375l8.40625 0q0.53125 0 0.53125 -0.484375q0 -0.46875 -0.53125 -0.46875zm-7.25 2.46875q0 2.078125 0.140625 4.984375q0.171875 2.984375 0.40625 4.96875l-2.203125 0.015625q-0.546875 0 -0.546875 0.46875q0 0.484375 0.546875 0.484375q3.015625 0 5.5625 -0.25q2.765625 -0.25 4.34375 -0.734375q0.234375 -0.0625 0.359375 -0.25q0.109375 -0.15625 0.0625 -0.34375q-0.03125 -0.203125 -0.203125 -0.296875q-0.1875 -0.109375 -0.4375 -0.03125q-0.359375 0.09375 -0.8125 0.21875q-0.296875 0.046875 -0.921875 0.171875l-0.625 0.140625q0.265625 -1.75 0.40625 -4.59375q0.15625 -2.578125 0.15625 -5.015625q0 -0.484375 -0.53125 -0.484375q-0.515625 0 -0.515625 0.484375q0 2.4375 -0.140625 5.078125q-0.15625 2.84375 -0.390625 4.6875q-0.875 0.078125 -1.5625 0.125q-0.875 0.0625 -1.453125 0.0625q-0.25 -1.9375 -0.421875 -4.984375q-0.125 -2.765625 -0.125 -4.90625q0 -0.234375 -0.1875 -0.390625q-0.15625 -0.109375 -0.375 -0.109375q-0.21875 0 -0.375 0.109375q-0.15625 0.15625 -0.15625 0.390625zm11.015625 4.265625l0 -6.78125q0 -0.25 -0.1875 -0.390625q-0.140625 -0.109375 -0.375 -0.109375q-0.21875 0 -0.359375 0.109375q-0.171875 0.140625 -0.171875 0.390625l0 14.46875q0 0.25 0.171875 0.390625q0.140625 0.15625 0.359375 0.15625q0.234375 0 0.375 -0.15625q0.1875 -0.140625 0.1875 -0.390625l0 -6.765625l2.0625 0q0.4375 0 0.4375 -0.46875q0 -0.453125 -0.4375 -0.453125l-2.0625 0zm14.578125 -6.734375l-6.078125 0q-0.90625 0 -1.40625 0.53125q-0.453125 0.484375 -0.453125 1.28125l0 9.84375q0 0.8125 0.46875 1.34375q0.5 0.546875 1.40625 0.546875q2.15625 0 4.4375 -0.328125q2.328125 -0.328125 3.890625 -0.875q0.25 -0.09375 0.3125 -0.28125q0.09375 -0.1875 0 -0.359375q-0.0625 -0.1875 -0.25 -0.265625q-0.21875 -0.078125 -0.484375 0.03125q-1.5 0.546875 -3.640625 0.84375q-2.03125 0.296875 -4.234375 0.296875q-0.46875 0 -0.65625 -0.296875q-0.15625 -0.25 -0.15625 -0.859375l0 -4.890625l6.53125 0q0.5625 0 0.5625 -0.484375q0 -0.46875 -0.5625 -0.46875l-6.53125 0l0 -3.796875q0 -0.421875 0.171875 -0.640625q0.203125 -0.21875 0.609375 -0.21875l6.09375 0q0.25 0 0.421875 -0.15625q0.140625 -0.140625 0.140625 -0.328125q0 -0.1875 -0.140625 -0.328125q-0.171875 -0.140625 -0.453125 -0.140625zm4.953125 14.390625l0 -14.4375q0 -0.25 -0.171875 -0.390625q-0.15625 -0.109375 -0.375 -0.109375q-0.25 0 -0.390625 0.109375q-0.171875 0.140625 -0.171875 0.390625l0 14.4375q0 0.25 0.171875 0.421875q0.140625 0.15625 0.390625 0.15625q0.21875 0 0.375 -0.15625q0.171875 -0.171875 0.171875 -0.421875zm9.796875 -14.015625q0 2.359375 -1.15625 4.609375q-1.140625 2.171875 -3.015625 3.625q-0.234375 0.171875 -0.28125 0.421875q-0.015625 0.203125 0.125 0.359375q0.140625 0.15625 0.328125 0.1875q0.21875 0.015625 0.40625 -0.125q1.34375 -1.09375 2.359375 -2.4375q0.796875 -1.078125 1.359375 -2.21875q1.125 0.828125 2.140625 1.8125q1.140625 1.078125 2.125 2.328125q0.15625 0.203125 0.421875 0.21875q0.203125 0 0.390625 -0.15625q0.171875 -0.15625 0.1875 -0.390625q0.015625 -0.25 -0.171875 -0.5q-1.171875 -1.3125 -2.296875 -2.3125q-1.15625 -1.046875 -2.4375 -1.90625q0.3125 -0.859375 0.46875 -1.765625q0.171875 -0.875 0.171875 -1.75q0 -0.25 -0.1875 -0.40625q-0.15625 -0.125 -0.375 -0.125q-0.234375 0 -0.390625 0.125q-0.171875 0.15625 -0.171875 0.40625zm9.203125 9.796875l0 -10.234375q0 -0.25 -0.171875 -0.375q-0.15625 -0.125 -0.375 -0.125q-0.25 0 -0.390625 0.125q-0.171875 0.140625 -0.171875 0.390625l0 1.765625l-4.328125 0q-0.234375 0 -0.375 0.125q-0.125 0.140625 -0.125 0.328125q0.03125 0.1875 0.171875 0.34375q0.171875 0.140625 0.453125 0.140625l4.203125 0l0 2.125l-4.359375 0q-0.59375 0 -0.59375 0.453125q0 0.484375 0.578125 0.484375l4.375 0l0 4.453125q0 0.28125 0.171875 0.453125q0.140625 0.140625 0.390625 0.140625q0.21875 0 0.375 -0.140625q0.171875 -0.171875 0.171875 -0.453125zm-10.8125 0.21875q0 -0.296875 -0.1875 -0.453125q-0.140625 -0.15625 -0.375 -0.15625q-0.234375 0 -0.375 0.15625q-0.171875 0.15625 -0.171875 0.453125l0 2.46875q0 0.828125 0.515625 1.25q0.484375 0.40625 1.3125 0.40625l10.1875 0q0.46875 0 0.46875 -0.484375q0 -0.46875 -0.46875 -0.46875l-10.0 0q-0.53125 0 -0.71875 -0.15625q-0.1875 -0.1875 -0.1875 -0.6875l0 -2.328125z" fill-rule="nonzero"/><path fill="#000000" d="m133.73485 177.87485l0.796875 -3.890625l-1.546875 0l0 -1.359375l1.8125 0l0.671875 -3.296875l-2.484375 0l0 -1.359375l2.765625 0l0.796875 -3.90625l1.359375 0l-0.796875 3.90625l2.875 0l0.796875 -3.90625l1.375 0l-0.796875 3.90625l1.578125 0l0 1.359375l-1.84375 0l-0.6875 3.296875l2.53125 0l0 1.359375l-2.8125 0l-0.78125 3.890625l-1.375 0l0.78125 -3.890625l-2.859375 0l-0.78125 3.890625l-1.375 0zm2.4375 -5.25l2.859375 0l0.6875 -3.296875l-2.875 0l-0.671875 3.296875zm7.781967 -1.578125q0 -2.359375 0.484375 -3.796875q0.484375 -1.453125 1.4375 -2.234375q0.96875 -0.78125 2.421875 -0.78125q1.078125 0 1.890625 0.4375q0.8125 0.421875 1.328125 1.25q0.53125 0.8125 0.828125 1.984375q0.3125 1.15625 0.3125 3.140625q0 2.359375 -0.484375 3.8125q-0.484375 1.4375 -1.453125 2.234375q-0.953125 0.78125 -2.421875 0.78125q-1.921875 0 -3.03125 -1.390625q-1.3125 -1.671875 -1.3125 -5.4375zm1.671875 0q0 3.296875 0.765625 4.390625q0.78125 1.078125 1.90625 1.078125q1.140625 0 1.90625 -1.09375q0.765625 -1.09375 0.765625 -4.375q0 -3.296875 -0.765625 -4.375q-0.765625 -1.078125 -1.921875 -1.078125q-1.125 0 -1.796875 0.953125q-0.859375 1.21875 -0.859375 4.5z" fill-rule="nonzero"/><g filter="url(#shadowFilter-g11da9520085_0_132.3)"><use xlink:href="#g11da9520085_0_132.3" transform="matrix(1.0 0.0 0.0 1.0 0.0 2.0)"/></g><defs><filter id="shadowFilter-g11da9520085_0_132.3" filterUnits="userSpaceOnUse"><feGaussianBlur in="SourceAlpha" stdDeviation="2.0" result="blur"/><feComponentTransfer in="blur" color-interpolation-filters="sRGB"><feFuncR type="linear" slope="0" intercept="0.0"/><feFuncG type="linear" slope="0" intercept="0.0"/><feFuncB type="linear" slope="0" intercept="0.0"/><feFuncA type="linear" slope="0.5" intercept="0"/></feComponentTransfer></filter></defs><g id="g11da9520085_0_132.3"><path fill="#b7b7b7" d="m686.2362 153.41339l228.28351 0l0 233.16534l-228.28351 0z" fill-rule="evenodd"/><path stroke="#595959" stroke-width="1.0" stroke-linejoin="round" stroke-linecap="butt" d="m686.2362 153.41339l228.28351 0l0 233.16534l-228.28351 0z" fill-rule="evenodd"/></g><path fill="#000000" fill-opacity="0.0" d="m735.16797 153.41339l121.60632 0l0 42.015747l-121.60632 0z" fill-rule="evenodd"/><path fill="#000000" d="m773.4711 173.63026l-2.3125 0l0.578125 -5.03125q0.015625 -0.265625 -0.140625 -0.4375q-0.140625 -0.125 -0.359375 -0.15625q-0.21875 -0.015625 -0.390625 0.09375q-0.171875 0.140625 -0.1875 0.390625l-0.59375 5.140625l-5.1875 0l-0.578125 -5.15625q-0.03125 -0.25 -0.21875 -0.390625q-0.171875 -0.109375 -0.390625 -0.09375q-0.21875 0.015625 -0.359375 0.15625q-0.15625 0.15625 -0.125 0.421875l0.578125 5.0625l-2.3125 0q-0.46875 0 -0.46875 0.46875q-0.03125 0.484375 0.421875 0.484375l12.078125 0q0.46875 0 0.4375 -0.484375q0 -0.46875 -0.46875 -0.46875zm-0.078125 -7.375l-11.890625 0q-0.53125 0 -0.5 0.484375q0 0.46875 0.5 0.46875l11.96875 0q0.21875 0 0.34375 -0.15625q0.125 -0.140625 0.109375 -0.3125q0 -0.21875 -0.125 -0.34375q-0.171875 -0.140625 -0.40625 -0.140625zm1.265625 12.796875l-14.390625 0q-0.25 0 -0.40625 0.125q-0.125 0.15625 -0.140625 0.34375q-0.03125 0.1875 0.09375 0.328125q0.109375 0.15625 0.3125 0.15625l14.671875 0q0.203125 0 0.3125 -0.15625q0.109375 -0.140625 0.109375 -0.328125q-0.015625 -0.1875 -0.15625 -0.34375q-0.15625 -0.125 -0.40625 -0.125zm15.90625 -12.796875l-9.671875 0q-0.5625 0 -0.5625 0.484375q0 0.46875 0.53125 0.46875l9.53125 0q0.453125 0 0.65625 0.140625q0.234375 0.140625 0.234375 0.515625l0 1.515625q0 0.28125 -0.25 0.4375q-0.203125 0.125 -0.609375 0.125l-8.421875 0q-0.84375 0 -1.296875 0.46875q-0.40625 0.421875 -0.40625 1.109375l0 2.0q0 0.765625 0.40625 1.203125q0.40625 0.4375 1.109375 0.4375l10.46875 0q0.234375 0 0.359375 -0.15625q0.140625 -0.140625 0.140625 -0.328125q0 -0.1875 -0.15625 -0.34375q-0.140625 -0.125 -0.390625 -0.125l-9.984375 0q-0.46875 0 -0.671875 -0.171875q-0.1875 -0.15625 -0.1875 -0.53125l0 -1.875q0 -0.390625 0.1875 -0.5625q0.171875 -0.15625 0.625 -0.15625l8.390625 0q0.921875 0 1.328125 -0.3125q0.46875 -0.34375 0.46875 -1.125l0 -1.71875q0 -0.75 -0.46875 -1.140625q-0.46875 -0.359375 -1.359375 -0.359375zm-4.609375 9.171875l0 3.625l-6.6875 0q-0.25 0 -0.40625 0.125q-0.125 0.15625 -0.140625 0.34375q-0.03125 0.1875 0.09375 0.328125q0.109375 0.15625 0.3125 0.15625l14.5625 0q0.234375 0 0.390625 -0.15625q0.140625 -0.140625 0.140625 -0.328125q0 -0.1875 -0.140625 -0.34375q-0.15625 -0.125 -0.40625 -0.125l-6.640625 0l0 -3.546875q0 -0.25 -0.1875 -0.40625q-0.15625 -0.140625 -0.359375 -0.140625q-0.21875 -0.03125 -0.375 0.109375q-0.15625 0.125 -0.15625 0.359375zm25.21875 -9.171875l-10.15625 0q-0.890625 0 -1.359375 0.4375q-0.453125 0.453125 -0.453125 1.234375l0 3.171875q0 0.71875 0.453125 1.125q0.484375 0.421875 1.328125 0.421875l10.484375 0q0.21875 0 0.359375 -0.140625q0.109375 -0.125 0.109375 -0.3125q0 -0.203125 -0.140625 -0.34375q-0.15625 -0.125 -0.40625 -0.125l-10.203125 0q-0.5 0 -0.6875 -0.1875q-0.1875 -0.1875 -0.1875 -0.625l0 -2.953125q0 -0.40625 0.1875 -0.59375q0.203125 -0.171875 0.671875 -0.171875l10.09375 0q0.21875 0 0.34375 -0.140625q0.125 -0.15625 0.109375 -0.34375q0 -0.1875 -0.140625 -0.328125q-0.15625 -0.125 -0.40625 -0.125zm1.546875 8.71875l-14.453125 0q-0.53125 0 -0.546875 0.453125q-0.046875 0.484375 0.453125 0.484375l3.5 0l0 1.453125q0 0.8125 -0.296875 1.546875q-0.28125 0.65625 -0.828125 1.203125q-0.1875 0.15625 -0.140625 0.40625q0.015625 0.203125 0.203125 0.375q0.171875 0.140625 0.390625 0.15625q0.21875 0.03125 0.40625 -0.140625q0.609375 -0.640625 0.984375 -1.5625q0.390625 -0.96875 0.390625 -1.96875l0 -1.46875l5.921875 0l0 4.8125q0 0.265625 0.15625 0.421875q0.15625 0.140625 0.375 0.140625q0.21875 0 0.375 -0.15625q0.1875 -0.171875 0.1875 -0.421875l0 -4.796875l2.96875 0q0.453125 0 0.453125 -0.484375q-0.015625 -0.453125 -0.5 -0.453125zm8.671875 -8.265625q0 2.921875 -1.15625 6.28125q-1.203125 3.5 -3.125 5.921875q-0.203125 0.21875 -0.203125 0.453125q0.015625 0.203125 0.15625 0.34375q0.15625 0.125 0.359375 0.125q0.21875 -0.015625 0.390625 -0.203125q1.296875 -1.734375 2.265625 -3.609375q0.734375 -1.5 1.25 -3.03125q1.125 1.390625 2.3125 3.21875q1.125 1.765625 1.84375 3.21875q0.109375 0.234375 0.359375 0.3125q0.21875 0.0625 0.421875 -0.03125q0.21875 -0.125 0.28125 -0.34375q0.09375 -0.234375 -0.0625 -0.5q-0.890625 -1.625 -2.140625 -3.453125q-1.1875 -1.734375 -2.65625 -3.546875q0.375 -1.421875 0.578125 -2.734375q0.21875 -1.359375 0.21875 -2.421875q0 -0.25 -0.1875 -0.40625q-0.140625 -0.140625 -0.375 -0.140625q-0.21875 0 -0.359375 0.140625q-0.171875 0.15625 -0.171875 0.40625zm9.046875 13.984375l0 -14.375q0 -0.265625 -0.171875 -0.421875q-0.15625 -0.125 -0.375 -0.125q-0.25 0 -0.390625 0.125q-0.171875 0.15625 -0.171875 0.421875l0 5.984375l-4.96875 0q-0.28125 0 -0.453125 0.125q-0.140625 0.125 -0.140625 0.328125q0 0.1875 0.171875 0.328125q0.15625 0.140625 0.453125 0.140625l4.9375 0l0 7.46875q0 0.265625 0.171875 0.4375q0.140625 0.171875 0.390625 0.171875q0.21875 0 0.375 -0.171875q0.171875 -0.171875 0.171875 -0.4375z" fill-rule="nonzero"/><path shape-rendering="crispEdges" fill="#b7b7b7" d="m185.87138 110.926506l63.485565 0l0 41.598427l-63.485565 0l0 -41.598427z" fill-rule="nonzero"/><path shape-rendering="crispEdges" fill="#b7b7b7" d="m249.35695 110.926506l63.48558 0l0 41.598427l-63.48558 0l0 -41.598427z" fill-rule="nonzero"/><path shape-rendering="crispEdges" fill="#b7b7b7" d="m185.87138 152.52493l63.485565 0l0 41.59842l-63.485565 0l0 -41.59842z" fill-rule="nonzero"/><path shape-rendering="crispEdges" fill="#b7b7b7" d="m249.35695 152.52493l63.48558 0l0 41.59842l-63.48558 0l0 -41.59842z" fill-rule="nonzero"/><path shape-rendering="crispEdges" fill="#b7b7b7" d="m185.87138 194.12335l63.485565 0l0 41.598434l-63.485565 0l0 -41.598434z" fill-rule="nonzero"/><path shape-rendering="crispEdges" fill="#b7b7b7" d="m249.35695 194.12335l63.48558 0l0 41.598434l-63.48558 0l0 -41.598434z" fill-rule="nonzero"/><path stroke="#000000" stroke-width="1.0" stroke-linecap="butt" d="m185.87138 110.42782l0 125.792656" fill-rule="nonzero"/><path stroke="#000000" stroke-width="1.0" stroke-linecap="butt" d="m249.35695 110.42782l0 125.792656" fill-rule="nonzero"/><path stroke="#000000" stroke-width="1.0" stroke-linecap="butt" d="m312.84253 110.42782l0 125.792656" fill-rule="nonzero"/><path stroke="#000000" stroke-width="1.0" stroke-linecap="butt" d="m185.3727 110.926506l127.96852 0" fill-rule="nonzero"/><path stroke="#000000" stroke-width="1.0" stroke-linecap="butt" d="m185.3727 152.52493l127.96852 0" fill-rule="nonzero"/><path stroke="#000000" stroke-width="1.0" stroke-linecap="butt" d="m185.3727 194.12335l127.96852 0" fill-rule="nonzero"/><path stroke="#000000" stroke-width="1.0" stroke-linecap="butt" d="m185.3727 235.72179l127.96852 0" fill-rule="nonzero"/><path fill="#000000" d="m213.20757 131.25276q0 -2.359375 0.484375 -3.7968826q0.484375 -1.453125 1.4375 -2.234375q0.96875 -0.78125 2.421875 -0.78125q1.078125 0 1.890625 0.4375q0.8125 0.421875 1.328125 1.25q0.53125 0.8125 0.828125 1.9843826q0.3125 1.15625 0.3125 3.140625q0 2.359375 -0.484375 3.8125q-0.484375 1.4375 -1.453125 2.234375q-0.953125 0.78125 -2.421875 0.78125q-1.921875 0 -3.03125 -1.390625q-1.3125 -1.671875 -1.3125 -5.4375zm1.671875 0q0 3.296875 0.765625 4.390625q0.78125 1.078125 1.90625 1.078125q1.140625 0 1.90625 -1.09375q0.765625 -1.09375 0.765625 -4.375q0 -3.2968826 -0.765625 -4.3750076q-0.765625 -1.078125 -1.921875 -1.078125q-1.125 0 -1.796875 0.953125q-0.859375 1.21875 -0.859375 4.5000076z" fill-rule="nonzero"/><path fill="#000000" d="m282.865 137.84651l-1.640625 0l0 -10.453133q-0.59375 0.5625 -1.5625 1.1406326q-0.953125 0.5625 -1.71875 0.84375l0 -1.5937576q1.375 -0.640625 2.40625 -1.5625q1.03125 -0.921875 1.453125 -1.78125l1.0625 0l0 13.406258z" fill-rule="nonzero"/><path fill="#000000" d="m207.5639 179.44493l0 -13.359375l1.78125 0l0 6.625l6.625 -6.625l2.390625 0l-5.59375 5.421875l5.84375 7.9375l-2.328125 0l-4.765625 -6.765625l-2.171875 2.140625l0 4.625l-1.78125 0zm11.865448 -3.5l1.71875 -0.140625q0.1875 1.25 0.875 1.890625q0.703125 0.625 1.6875 0.625q1.1875 0 2.0 -0.890625q0.828125 -0.890625 0.828125 -2.359375q0 -1.40625 -0.796875 -2.21875q-0.78125 -0.8125 -2.0625 -0.8125q-0.78125 0 -1.421875 0.359375q-0.640625 0.359375 -1.0 0.9375l-1.546875 -0.203125l1.296875 -6.859375l6.640625 0l0 1.5625l-5.328125 0l-0.71875 3.59375q1.203125 -0.84375 2.515625 -0.84375q1.75 0 2.953125 1.21875q1.203125 1.203125 1.203125 3.109375q0 1.8125 -1.046875 3.140625q-1.296875 1.625 -3.515625 1.625q-1.8125 0 -2.96875 -1.015625q-1.15625 -1.03125 -1.3125 -2.71875z" fill-rule="nonzero"/><path fill="#000000" d="m271.04947 179.44493l0 -13.359375l1.78125 0l0 6.625l6.625 -6.625l2.390625 0l-5.59375 5.421875l5.84375 7.9375l-2.328125 0l-4.765625 -6.765625l-2.171875 2.140625l0 4.625l-1.78125 0zm11.865448 -3.5l1.71875 -0.140625q0.1875 1.25 0.875 1.890625q0.703125 0.625 1.6875 0.625q1.1875 0 2.0 -0.890625q0.828125 -0.890625 0.828125 -2.359375q0 -1.40625 -0.796875 -2.21875q-0.78125 -0.8125 -2.0625 -0.8125q-0.78125 0 -1.421875 0.359375q-0.640625 0.359375 -1.0 0.9375l-1.546875 -0.203125l1.296875 -6.859375l6.640625 0l0 1.5625l-5.328125 0l-0.71875 3.59375q1.203125 -0.84375 2.515625 -0.84375q1.75 0 2.953125 1.21875q1.203125 1.203125 1.203125 3.109375q0 1.8125 -1.046875 3.140625q-1.296875 1.625 -3.515625 1.625q-1.8125 0 -2.96875 -1.015625q-1.15625 -1.03125 -1.3125 -2.71875z" fill-rule="nonzero"/><path fill="#000000" d="m211.45453 221.04335l-5.171875 -13.359375l1.921875 0l3.46875 9.703125q0.421875 1.171875 0.703125 2.1875q0.3125 -1.09375 0.71875 -2.1875l3.609375 -9.703125l1.796875 0l-5.234375 13.359375l-1.8125 0zm14.146698 0l-1.640625 0l0 -10.453125q-0.59375 0.5625 -1.5625 1.140625q-0.953125 0.5625 -1.71875 0.84375l0 -1.59375q1.375 -0.640625 2.40625 -1.5625q1.03125 -0.921875 1.453125 -1.78125l1.0625 0l0 13.40625z" fill-rule="nonzero"/><path fill="#000000" d="m274.9401 221.04335l-5.171875 -13.359375l1.921875 0l3.46875 9.703125q0.421875 1.171875 0.703125 2.1875q0.3125 -1.09375 0.71875 -2.1875l3.609375 -9.703125l1.796875 0l-5.234375 13.359375l-1.8125 0zm16.584198 -1.578125l0 1.578125l-8.828125 0q-0.015625 -0.59375 0.1875 -1.140625q0.34375 -0.90625 1.078125 -1.78125q0.75 -0.875 2.15625 -2.015625q2.171875 -1.78125 2.9375 -2.828125q0.765625 -1.046875 0.765625 -1.96875q0 -0.984375 -0.703125 -1.640625q-0.6875 -0.671875 -1.8125 -0.671875q-1.1875 0 -1.90625 0.71875q-0.703125 0.703125 -0.703125 1.953125l-1.6875 -0.171875q0.171875 -1.890625 1.296875 -2.875q1.140625 -0.984375 3.03125 -0.984375q1.921875 0 3.046875 1.0625q1.125 1.0625 1.125 2.640625q0 0.796875 -0.328125 1.578125q-0.328125 0.78125 -1.09375 1.640625q-0.75 0.84375 -2.53125 2.34375q-1.46875 1.234375 -1.890625 1.6875q-0.421875 0.4375 -0.6875 0.875l6.546875 0z" fill-rule="nonzero"/><g filter="url(#shadowFilter-g11da9520085_0_132.4)"><use xlink:href="#g11da9520085_0_132.4" transform="matrix(1.0 0.0 0.0 1.0 0.0 2.0)"/></g><defs><filter id="shadowFilter-g11da9520085_0_132.4" filterUnits="userSpaceOnUse"><feGaussianBlur in="SourceAlpha" stdDeviation="2.0" result="blur"/><feComponentTransfer in="blur" color-interpolation-filters="sRGB"><feFuncR type="linear" slope="0" intercept="0.0"/><feFuncG type="linear" slope="0" intercept="0.0"/><feFuncB type="linear" slope="0" intercept="0.0"/><feFuncA type="linear" slope="0.5" intercept="0"/></feComponentTransfer></filter></defs><g id="g11da9520085_0_132.4"><path fill="#eeeeee" d="m53.577427 292.43832l407.3071 0l0 163.21259l-407.3071 0z" fill-rule="evenodd"/><path stroke="#595959" stroke-width="1.0" stroke-linejoin="round" stroke-linecap="butt" d="m53.577427 292.43832l407.3071 0l0 163.21259l-407.3071 0z" fill-rule="evenodd"/></g><path fill="#000000" fill-opacity="0.0" d="m53.577477 349.47375l117.00788 0l0 42.015747l-117.00788 0z" fill-rule="evenodd"/><path fill="#000000" d="m81.78592 362.3781l-8.40625 0q-0.515625 0 -0.515625 0.46875q0 0.484375 0.515625 0.484375l8.40625 0q0.53125 0 0.53125 -0.484375q0 -0.46875 -0.53125 -0.46875zm-7.25 2.46875q0 2.078125 0.140625 4.984375q0.171875 2.984375 0.40625 4.96875l-2.203125 0.015625q-0.546875 0 -0.546875 0.46875q0 0.484375 0.546875 0.484375q3.015625 0 5.5625 -0.25q2.765625 -0.25 4.34375 -0.734375q0.234375 -0.0625 0.359375 -0.25q0.109375 -0.15625 0.0625 -0.34375q-0.03125 -0.203125 -0.203125 -0.296875q-0.1875 -0.109375 -0.4375 -0.03125q-0.359375 0.09375 -0.8125 0.21875q-0.296875 0.046875 -0.921875 0.171875l-0.625 0.140625q0.265625 -1.75 0.40625 -4.59375q0.15625 -2.578125 0.15625 -5.015625q0 -0.484375 -0.53125 -0.484375q-0.515625 0 -0.515625 0.484375q0 2.4375 -0.140625 5.078125q-0.15625 2.84375 -0.390625 4.6875q-0.875 0.078125 -1.5625 0.125q-0.875 0.0625 -1.453125 0.0625q-0.25 -1.9375 -0.421875 -4.984375q-0.125 -2.765625 -0.125 -4.90625q0 -0.234375 -0.1875 -0.390625q-0.15625 -0.109375 -0.375 -0.109375q-0.21875 0 -0.375 0.109375q-0.15625 0.15625 -0.15625 0.390625zm11.015625 4.265625l0 -6.78125q0 -0.25 -0.1875 -0.390625q-0.140625 -0.109375 -0.375 -0.109375q-0.21875 0 -0.359375 0.109375q-0.171875 0.140625 -0.171875 0.390625l0 14.46875q0 0.25 0.171875 0.390625q0.140625 0.15625 0.359375 0.15625q0.234375 0 0.375 -0.15625q0.1875 -0.140625 0.1875 -0.390625l0 -6.765625l2.0625 0q0.4375 0 0.4375 -0.46875q0 -0.453125 -0.4375 -0.453125l-2.0625 0zm14.578125 -6.734375l-6.078125 0q-0.90625 0 -1.40625 0.53125q-0.453125 0.484375 -0.453125 1.28125l0 9.84375q0 0.8125 0.46875 1.34375q0.5 0.546875 1.40625 0.546875q2.15625 0 4.4375 -0.328125q2.328125 -0.328125 3.890625 -0.875q0.25 -0.09375 0.3125 -0.28125q0.09375 -0.1875 0 -0.359375q-0.0625 -0.1875 -0.25 -0.265625q-0.21875 -0.078125 -0.484375 0.03125q-1.5 0.546875 -3.640625 0.84375q-2.03125 0.296875 -4.234375 0.296875q-0.46875 0 -0.65625 -0.296875q-0.15625 -0.25 -0.15625 -0.859375l0 -4.890625l6.53125 0q0.5625 0 0.5625 -0.484375q0 -0.46875 -0.5625 -0.46875l-6.53125 0l0 -3.796875q0 -0.421875 0.171875 -0.640625q0.203125 -0.21875 0.609375 -0.21875l6.09375 0q0.25 0 0.421875 -0.15625q0.140625 -0.140625 0.140625 -0.328125q0 -0.1875 -0.140625 -0.328125q-0.171875 -0.140625 -0.453125 -0.140625zm4.953125 14.390625l0 -14.4375q0 -0.25 -0.171875 -0.390625q-0.15625 -0.109375 -0.375 -0.109375q-0.25 0 -0.390625 0.109375q-0.171875 0.140625 -0.171875 0.390625l0 14.4375q0 0.25 0.171875 0.421875q0.140625 0.15625 0.390625 0.15625q0.21875 0 0.375 -0.15625q0.171875 -0.171875 0.171875 -0.421875zm9.796875 -14.015625q0 2.359375 -1.15625 4.609375q-1.140625 2.171875 -3.015625 3.625q-0.234375 0.171875 -0.28125 0.421875q-0.015625 0.203125 0.125 0.359375q0.140625 0.15625 0.328125 0.1875q0.21875 0.015625 0.40625 -0.125q1.34375 -1.09375 2.359375 -2.4375q0.796875 -1.078125 1.359375 -2.21875q1.125 0.828125 2.140625 1.8125q1.140625 1.078125 2.125 2.328125q0.15625 0.203125 0.421875 0.21875q0.203125 0 0.390625 -0.15625q0.171875 -0.15625 0.1875 -0.390625q0.015625 -0.25 -0.171875 -0.5q-1.171875 -1.3125 -2.296875 -2.3125q-1.15625 -1.046875 -2.4375 -1.90625q0.3125 -0.859375 0.46875 -1.765625q0.171875 -0.875 0.171875 -1.75q0 -0.25 -0.1875 -0.40625q-0.15625 -0.125 -0.375 -0.125q-0.234375 0 -0.390625 0.125q-0.171875 0.15625 -0.171875 0.40625zm9.203125 9.796875l0 -10.234375q0 -0.25 -0.171875 -0.375q-0.15625 -0.125 -0.375 -0.125q-0.25 0 -0.390625 0.125q-0.171875 0.140625 -0.171875 0.390625l0 1.765625l-4.328125 0q-0.234375 0 -0.375 0.125q-0.125 0.140625 -0.125 0.328125q0.03125 0.1875 0.171875 0.34375q0.171875 0.140625 0.453125 0.140625l4.203125 0l0 2.125l-4.359375 0q-0.59375 0 -0.59375 0.453125q0 0.484375 0.578125 0.484375l4.375 0l0 4.453125q0 0.28125 0.171875 0.453125q0.140625 0.140625 0.390625 0.140625q0.21875 0 0.375 -0.140625q0.171875 -0.171875 0.171875 -0.453125zm-10.8125 0.21875q0 -0.296875 -0.1875 -0.453125q-0.140625 -0.15625 -0.375 -0.15625q-0.234375 0 -0.375 0.15625q-0.171875 0.15625 -0.171875 0.453125l0 2.46875q0 0.828125 0.515625 1.25q0.484375 0.40625 1.3125 0.40625l10.1875 0q0.46875 0 0.46875 -0.484375q0 -0.46875 -0.46875 -0.46875l-10.0 0q-0.53125 0 -0.71875 -0.15625q-0.1875 -0.1875 -0.1875 -0.6875l0 -2.328125z" fill-rule="nonzero"/><path fill="#000000" d="m133.73485 376.6281l0.796875 -3.890625l-1.546875 0l0 -1.359375l1.8125 0l0.671875 -3.296875l-2.484375 0l0 -1.359375l2.765625 0l0.796875 -3.90625l1.359375 0l-0.796875 3.90625l2.875 0l0.796875 -3.90625l1.375 0l-0.796875 3.90625l1.578125 0l0 1.359375l-1.84375 0l-0.6875 3.296875l2.53125 0l0 1.359375l-2.8125 0l-0.78125 3.890625l-1.375 0l0.78125 -3.890625l-2.859375 0l-0.78125 3.890625l-1.375 0zm2.4375 -5.25l2.859375 0l0.6875 -3.296875l-2.875 0l-0.671875 3.296875zm13.953842 5.015625l-1.640625 0l0 -10.453125q-0.59375 0.5625 -1.5625 1.140625q-0.953125 0.5625 -1.71875 0.84375l0 -1.59375q1.375 -0.640625 2.40625 -1.5625q1.03125 -0.921875 1.453125 -1.78125l1.0625 0l0 13.40625z" fill-rule="nonzero"/><path shape-rendering="crispEdges" fill="#b7b7b7" d="m185.87138 309.67978l63.485565 0l0 41.59845l-63.485565 0l0 -41.59845z" fill-rule="nonzero"/><path shape-rendering="crispEdges" fill="#b7b7b7" d="m249.35695 309.67978l63.48558 0l0 41.59845l-63.48558 0l0 -41.59845z" fill-rule="nonzero"/><path shape-rendering="crispEdges" fill="#b7b7b7" d="m312.84253 309.67978l63.485565 0l0 41.59845l-63.485565 0l0 -41.59845z" fill-rule="nonzero"/><path shape-rendering="crispEdges" fill="#b7b7b7" d="m376.3281 309.67978l63.485565 0l0 41.59845l-63.485565 0l0 -41.59845z" fill-rule="nonzero"/><path shape-rendering="crispEdges" fill="#b7b7b7" d="m185.87138 351.27823l63.485565 0l0 41.59842l-63.485565 0l0 -41.59842z" fill-rule="nonzero"/><path shape-rendering="crispEdges" fill="#b7b7b7" d="m249.35695 351.27823l63.48558 0l0 41.59842l-63.48558 0l0 -41.59842z" fill-rule="nonzero"/><path shape-rendering="crispEdges" fill="#b7b7b7" d="m312.84253 351.27823l63.485565 0l0 41.59842l-63.485565 0l0 -41.59842z" fill-rule="nonzero"/><path shape-rendering="crispEdges" fill="#b7b7b7" d="m376.3281 351.27823l63.485565 0l0 41.59842l-63.485565 0l0 -41.59842z" fill-rule="nonzero"/><path shape-rendering="crispEdges" fill="#b7b7b7" d="m185.87138 392.87665l63.485565 0l0 41.59842l-63.485565 0l0 -41.59842z" fill-rule="nonzero"/><path shape-rendering="crispEdges" fill="#b7b7b7" d="m249.35695 392.87665l63.48558 0l0 41.59842l-63.48558 0l0 -41.59842z" fill-rule="nonzero"/><path shape-rendering="crispEdges" fill="#b7b7b7" d="m312.84253 392.87665l63.485565 0l0 41.59842l-63.485565 0l0 -41.59842z" fill-rule="nonzero"/><path shape-rendering="crispEdges" fill="#b7b7b7" d="m376.3281 392.87665l63.485565 0l0 41.59842l-63.485565 0l0 -41.59842z" fill-rule="nonzero"/><path stroke="#000000" stroke-width="1.0" stroke-linecap="butt" d="m185.87138 309.1811l0 125.79266" fill-rule="nonzero"/><path stroke="#000000" stroke-width="1.0" stroke-linecap="butt" d="m249.35695 309.1811l0 125.79266" fill-rule="nonzero"/><path stroke="#000000" stroke-width="1.0" stroke-linecap="butt" d="m312.84253 309.1811l0 125.79266" fill-rule="nonzero"/><path stroke="#000000" stroke-width="1.0" stroke-linecap="butt" d="m376.3281 309.1811l0 125.79266" fill-rule="nonzero"/><path stroke="#000000" stroke-width="1.0" stroke-linecap="butt" d="m439.81366 309.1811l0 125.79266" fill-rule="nonzero"/><path stroke="#000000" stroke-width="1.0" stroke-linecap="butt" d="m185.3727 309.67978l254.93965 0" fill-rule="nonzero"/><path stroke="#000000" stroke-width="1.0" stroke-linecap="butt" d="m185.3727 351.27823l254.93965 0" fill-rule="nonzero"/><path stroke="#000000" stroke-width="1.0" stroke-linecap="butt" d="m185.3727 392.87665l254.93965 0" fill-rule="nonzero"/><path stroke="#000000" stroke-width="1.0" stroke-linecap="butt" d="m185.3727 434.47507l254.93965 0" fill-rule="nonzero"/><path fill="#000000" d="m213.20757 330.00604q0 -2.359375 0.484375 -3.796875q0.484375 -1.453125 1.4375 -2.234375q0.96875 -0.78125 2.421875 -0.78125q1.078125 0 1.890625 0.4375q0.8125 0.421875 1.328125 1.25q0.53125 0.8125 0.828125 1.984375q0.3125 1.15625 0.3125 3.140625q0 2.359375 -0.484375 3.8125q-0.484375 1.4375 -1.453125 2.234375q-0.953125 0.78125 -2.421875 0.78125q-1.921875 0 -3.03125 -1.390625q-1.3125 -1.671875 -1.3125 -5.4375zm1.671875 0q0 3.296875 0.765625 4.390625q0.78125 1.078125 1.90625 1.078125q1.140625 0 1.90625 -1.09375q0.765625 -1.09375 0.765625 -4.375q0 -3.296875 -0.765625 -4.375q-0.765625 -1.078125 -1.921875 -1.078125q-1.125 0 -1.796875 0.953125q-0.859375 1.21875 -0.859375 4.5z" fill-rule="nonzero"/><path fill="#000000" d="m282.865 336.5998l-1.640625 0l0 -10.453125q-0.59375 0.5625 -1.5625 1.140625q-0.953125 0.5625 -1.71875 0.84375l0 -1.59375q1.375 -0.640625 2.40625 -1.5625q1.03125 -0.921875 1.453125 -1.78125l1.0625 0l0 13.40625z" fill-rule="nonzero"/><path fill="#000000" d="m348.78806 335.02167l0 1.578125l-8.828125 0q-0.015625 -0.59375 0.1875 -1.140625q0.34375 -0.90625 1.078125 -1.78125q0.75 -0.875 2.15625 -2.015625q2.171875 -1.78125 2.9375 -2.828125q0.765625 -1.046875 0.765625 -1.96875q0 -0.984375 -0.703125 -1.640625q-0.6875 -0.671875 -1.8125 -0.671875q-1.1875 0 -1.90625 0.71875q-0.703125 0.703125 -0.703125 1.953125l-1.6875 -0.171875q0.171875 -1.890625 1.296875 -2.875q1.140625 -0.984375 3.03125 -0.984375q1.921875 0 3.046875 1.0625q1.125 1.0625 1.125 2.640625q0 0.796875 -0.328125 1.578125q-0.328125 0.78125 -1.09375 1.640625q-0.75 0.84375 -2.53125 2.34375q-1.46875 1.234375 -1.890625 1.6875q-0.421875 0.4375 -0.6875 0.875l6.546875 0z" fill-rule="nonzero"/><path fill="#000000" d="m403.66425 333.06854l1.640625 -0.21875q0.28125 1.40625 0.953125 2.015625q0.6875 0.609375 1.65625 0.609375q1.15625 0 1.953125 -0.796875q0.796875 -0.796875 0.796875 -1.984375q0 -1.125 -0.734375 -1.859375q-0.734375 -0.734375 -1.875 -0.734375q-0.46875 0 -1.15625 0.171875l0.1875 -1.4375q0.15625 0.015625 0.265625 0.015625q1.046875 0 1.875 -0.546875q0.84375 -0.546875 0.84375 -1.671875q0 -0.90625 -0.609375 -1.5q-0.609375 -0.59375 -1.578125 -0.59375q-0.953125 0 -1.59375 0.609375q-0.640625 0.59375 -0.8125 1.796875l-1.640625 -0.296875q0.296875 -1.640625 1.359375 -2.546875q1.0625 -0.90625 2.65625 -0.90625q1.09375 0 2.0 0.46875q0.921875 0.46875 1.40625 1.28125q0.5 0.8125 0.5 1.71875q0 0.859375 -0.46875 1.578125q-0.46875 0.703125 -1.375 1.125q1.1875 0.28125 1.84375 1.140625q0.65625 0.859375 0.65625 2.15625q0 1.734375 -1.28125 2.953125q-1.265625 1.21875 -3.21875 1.21875q-1.765625 0 -2.921875 -1.046875q-1.15625 -1.046875 -1.328125 -2.71875z" fill-rule="nonzero"/><path fill="#000000" d="m207.5639 378.1982l0 -13.359375l1.78125 0l0 6.625l6.625 -6.625l2.390625 0l-5.59375 5.421875l5.84375 7.9375l-2.328125 0l-4.765625 -6.765625l-2.171875 2.140625l0 4.625l-1.78125 0zm20.474823 -1.578125l0 1.578125l-8.828125 0q-0.015625 -0.59375 0.1875 -1.140625q0.34375 -0.90625 1.078125 -1.78125q0.75 -0.875 2.15625 -2.015625q2.171875 -1.78125 2.9375 -2.828125q0.765625 -1.046875 0.765625 -1.96875q0 -0.984375 -0.703125 -1.640625q-0.6875 -0.671875 -1.8125 -0.671875q-1.1875 0 -1.90625 0.71875q-0.703125 0.703125 -0.703125 1.953125l-1.6875 -0.171875q0.171875 -1.890625 1.296875 -2.875q1.140625 -0.984375 3.03125 -0.984375q1.921875 0 3.046875 1.0625q1.125 1.0625 1.125 2.640625q0 0.796875 -0.328125 1.578125q-0.328125 0.78125 -1.09375 1.640625q-0.75 0.84375 -2.53125 2.34375q-1.46875 1.234375 -1.890625 1.6875q-0.421875 0.4375 -0.6875 0.875l6.546875 0z" fill-rule="nonzero"/><path fill="#000000" d="m271.04947 378.1982l0 -13.359375l1.78125 0l0 6.625l6.625 -6.625l2.390625 0l-5.59375 5.421875l5.84375 7.9375l-2.328125 0l-4.765625 -6.765625l-2.171875 2.140625l0 4.625l-1.78125 0zm20.474823 -1.578125l0 1.578125l-8.828125 0q-0.015625 -0.59375 0.1875 -1.140625q0.34375 -0.90625 1.078125 -1.78125q0.75 -0.875 2.15625 -2.015625q2.171875 -1.78125 2.9375 -2.828125q0.765625 -1.046875 0.765625 -1.96875q0 -0.984375 -0.703125 -1.640625q-0.6875 -0.671875 -1.8125 -0.671875q-1.1875 0 -1.90625 0.71875q-0.703125 0.703125 -0.703125 1.953125l-1.6875 -0.171875q0.171875 -1.890625 1.296875 -2.875q1.140625 -0.984375 3.03125 -0.984375q1.921875 0 3.046875 1.0625q1.125 1.0625 1.125 2.640625q0 0.796875 -0.328125 1.578125q-0.328125 0.78125 -1.09375 1.640625q-0.75 0.84375 -2.53125 2.34375q-1.46875 1.234375 -1.890625 1.6875q-0.421875 0.4375 -0.6875 0.875l6.546875 0z" fill-rule="nonzero"/><path fill="#000000" d="m334.53503 378.1982l0 -13.359375l1.78125 0l0 6.625l6.625 -6.625l2.390625 0l-5.59375 5.421875l5.84375 7.9375l-2.328125 0l-4.765625 -6.765625l-2.171875 2.140625l0 4.625l-1.78125 0zm11.865448 -3.53125l1.640625 -0.21875q0.28125 1.40625 0.953125 2.015625q0.6875 0.609375 1.65625 0.609375q1.15625 0 1.953125 -0.796875q0.796875 -0.796875 0.796875 -1.984375q0 -1.125 -0.734375 -1.859375q-0.734375 -0.734375 -1.875 -0.734375q-0.46875 0 -1.15625 0.171875l0.1875 -1.4375q0.15625 0.015625 0.265625 0.015625q1.046875 0 1.875 -0.546875q0.84375 -0.546875 0.84375 -1.671875q0 -0.90625 -0.609375 -1.5q-0.609375 -0.59375 -1.578125 -0.59375q-0.953125 0 -1.59375 0.609375q-0.640625 0.59375 -0.8125 1.796875l-1.640625 -0.296875q0.296875 -1.640625 1.359375 -2.546875q1.0625 -0.90625 2.65625 -0.90625q1.09375 0 2.0 0.46875q0.921875 0.46875 1.40625 1.28125q0.5 0.8125 0.5 1.71875q0 0.859375 -0.46875 1.578125q-0.46875 0.703125 -1.375 1.125q1.1875 0.28125 1.84375 1.140625q0.65625 0.859375 0.65625 2.15625q0 1.734375 -1.28125 2.953125q-1.265625 1.21875 -3.21875 1.21875q-1.765625 0 -2.921875 -1.046875q-1.15625 -1.046875 -1.328125 -2.71875z" fill-rule="nonzero"/><path fill="#000000" d="m398.0206 378.1982l0 -13.359375l1.78125 0l0 6.625l6.625 -6.625l2.390625 0l-5.59375 5.421875l5.84375 7.9375l-2.328125 0l-4.765625 -6.765625l-2.171875 2.140625l0 4.625l-1.78125 0zm11.865448 -3.53125l1.640625 -0.21875q0.28125 1.40625 0.953125 2.015625q0.6875 0.609375 1.65625 0.609375q1.15625 0 1.953125 -0.796875q0.796875 -0.796875 0.796875 -1.984375q0 -1.125 -0.734375 -1.859375q-0.734375 -0.734375 -1.875 -0.734375q-0.46875 0 -1.15625 0.171875l0.1875 -1.4375q0.15625 0.015625 0.265625 0.015625q1.046875 0 1.875 -0.546875q0.84375 -0.546875 0.84375 -1.671875q0 -0.90625 -0.609375 -1.5q-0.609375 -0.59375 -1.578125 -0.59375q-0.953125 0 -1.59375 0.609375q-0.640625 0.59375 -0.8125 1.796875l-1.640625 -0.296875q0.296875 -1.640625 1.359375 -2.546875q1.0625 -0.90625 2.65625 -0.90625q1.09375 0 2.0 0.46875q0.921875 0.46875 1.40625 1.28125q0.5 0.8125 0.5 1.71875q0 0.859375 -0.46875 1.578125q-0.46875 0.703125 -1.375 1.125q1.1875 0.28125 1.84375 1.140625q0.65625 0.859375 0.65625 2.15625q0 1.734375 -1.28125 2.953125q-1.265625 1.21875 -3.21875 1.21875q-1.765625 0 -2.921875 -1.046875q-1.15625 -1.046875 -1.328125 -2.71875z" fill-rule="nonzero"/><path fill="#000000" d="m211.45453 419.79663l-5.171875 -13.359375l1.921875 0l3.46875 9.703125q0.421875 1.171875 0.703125 2.1875q0.3125 -1.09375 0.71875 -2.1875l3.609375 -9.703125l1.796875 0l-5.234375 13.359375l-1.8125 0zm14.146698 0l-1.640625 0l0 -10.453125q-0.59375 0.5625 -1.5625 1.140625q-0.953125 0.5625 -1.71875 0.84375l0 -1.59375q1.375 -0.640625 2.40625 -1.5625q1.03125 -0.921875 1.453125 -1.78125l1.0625 0l0 13.40625z" fill-rule="nonzero"/><path fill="#000000" d="m274.9401 419.79663l-5.171875 -13.359375l1.921875 0l3.46875 9.703125q0.421875 1.171875 0.703125 2.1875q0.3125 -1.09375 0.71875 -2.1875l3.609375 -9.703125l1.796875 0l-5.234375 13.359375l-1.8125 0zm16.584198 -1.578125l0 1.578125l-8.828125 0q-0.015625 -0.59375 0.1875 -1.140625q0.34375 -0.90625 1.078125 -1.78125q0.75 -0.875 2.15625 -2.015625q2.171875 -1.78125 2.9375 -2.828125q0.765625 -1.046875 0.765625 -1.96875q0 -0.984375 -0.703125 -1.640625q-0.6875 -0.671875 -1.8125 -0.671875q-1.1875 0 -1.90625 0.71875q-0.703125 0.703125 -0.703125 1.953125l-1.6875 -0.171875q0.171875 -1.890625 1.296875 -2.875q1.140625 -0.984375 3.03125 -0.984375q1.921875 0 3.046875 1.0625q1.125 1.0625 1.125 2.640625q0 0.796875 -0.328125 1.578125q-0.328125 0.78125 -1.09375 1.640625q-0.75 0.84375 -2.53125 2.34375q-1.46875 1.234375 -1.890625 1.6875q-0.421875 0.4375 -0.6875 0.875l6.546875 0z" fill-rule="nonzero"/><path fill="#000000" d="m338.42566 419.79663l-5.171875 -13.359375l1.921875 0l3.46875 9.703125q0.421875 1.171875 0.703125 2.1875q0.3125 -1.09375 0.71875 -2.1875l3.609375 -9.703125l1.796875 0l-5.234375 13.359375l-1.8125 0zm14.146698 0l-1.640625 0l0 -10.453125q-0.59375 0.5625 -1.5625 1.140625q-0.953125 0.5625 -1.71875 0.84375l0 -1.59375q1.375 -0.640625 2.40625 -1.5625q1.03125 -0.921875 1.453125 -1.78125l1.0625 0l0 13.40625z" fill-rule="nonzero"/><path fill="#000000" d="m401.91122 419.79663l-5.171875 -13.359375l1.921875 0l3.46875 9.703125q0.421875 1.171875 0.703125 2.1875q0.3125 -1.09375 0.71875 -2.1875l3.609375 -9.703125l1.796875 0l-5.234375 13.359375l-1.8125 0zm16.584198 -1.578125l0 1.578125l-8.828125 0q-0.015625 -0.59375 0.1875 -1.140625q0.34375 -0.90625 1.078125 -1.78125q0.75 -0.875 2.15625 -2.015625q2.171875 -1.78125 2.9375 -2.828125q0.765625 -1.046875 0.765625 -1.96875q0 -0.984375 -0.703125 -1.640625q-0.6875 -0.671875 -1.8125 -0.671875q-1.1875 0 -1.90625 0.71875q-0.703125 0.703125 -0.703125 1.953125l-1.6875 -0.171875q0.171875 -1.890625 1.296875 -2.875q1.140625 -0.984375 3.03125 -0.984375q1.921875 0 3.046875 1.0625q1.125 1.0625 1.125 2.640625q0 0.796875 -0.328125 1.578125q-0.328125 0.78125 -1.09375 1.640625q-0.75 0.84375 -2.53125 2.34375q-1.46875 1.234375 -1.890625 1.6875q-0.421875 0.4375 -0.6875 0.875l6.546875 0z" fill-rule="nonzero"/><path shape-rendering="crispEdges" fill="#efefef" d="m728.4477 216.06168l143.85303 0l0 41.595795l-143.85303 0l0 -41.595795z" fill-rule="nonzero"/><path shape-rendering="crispEdges" fill="#efefef" d="m728.4477 257.65747l143.85303 0l0 41.595825l-143.85303 0l0 -41.595825z" fill-rule="nonzero"/><path shape-rendering="crispEdges" fill="#efefef" d="m728.4477 299.2533l143.85303 0l0 41.595795l-143.85303 0l0 -41.595795z" fill-rule="nonzero"/><path stroke="#000000" stroke-width="1.0" stroke-linecap="butt" d="m728.4477 215.56299l0 125.78479" fill-rule="nonzero"/><path stroke="#000000" stroke-width="1.0" stroke-linecap="butt" d="m872.3007 215.56299l0 125.78479" fill-rule="nonzero"/><path stroke="#000000" stroke-width="1.0" stroke-linecap="butt" d="m727.94904 216.06168l144.8504 0" fill-rule="nonzero"/><path stroke="#000000" stroke-width="1.0" stroke-linecap="butt" d="m727.94904 257.65747l144.8504 0" fill-rule="nonzero"/><path stroke="#000000" stroke-width="1.0" stroke-linecap="butt" d="m727.94904 299.2533l144.8504 0" fill-rule="nonzero"/><path stroke="#000000" stroke-width="1.0" stroke-linecap="butt" d="m727.94904 340.8491l144.8504 0" fill-rule="nonzero"/><path fill="#000000" d="m781.3742 228.79417q-3.109375 0 -4.859375 1.25q-1.609375 1.1875 -1.609375 3.109375q0 1.875 1.609375 3.03125q1.75 1.25 4.859375 1.25q3.09375 0 4.84375 -1.25q1.625 -1.15625 1.625 -3.03125q0 -1.921875 -1.625 -3.109375q-1.75 -1.25 -4.84375 -1.25zm0 0.953125q2.59375 0 4.046875 0.96875q1.359375 0.90625 1.359375 2.4375q0 1.484375 -1.359375 2.390625q-1.453125 0.9375 -4.046875 0.9375q-2.609375 0 -4.0625 -0.9375q-1.34375 -0.890625 -1.34375 -2.390625q0 -1.53125 1.34375 -2.4375q1.453125 -0.96875 4.0625 -0.96875zm-0.53125 8.109375l0 3.84375l-6.671875 0q-0.25 0 -0.40625 0.125q-0.125 0.15625 -0.140625 0.34375q-0.03125 0.1875 0.09375 0.328125q0.109375 0.15625 0.3125 0.15625l14.5625 0q0.234375 0 0.390625 -0.15625q0.140625 -0.140625 0.140625 -0.328125q0 -0.1875 -0.140625 -0.34375q-0.15625 -0.125 -0.40625 -0.125l-6.671875 0l0 -3.765625q0 -0.265625 -0.171875 -0.40625q-0.15625 -0.15625 -0.359375 -0.15625q-0.21875 -0.015625 -0.375 0.109375q-0.15625 0.140625 -0.15625 0.375zm25.53125 -1.578125l-2.3125 0l0.578125 -5.03125q0.015625 -0.265625 -0.140625 -0.4375q-0.140625 -0.125 -0.359375 -0.15625q-0.21875 -0.015625 -0.390625 0.09375q-0.171875 0.140625 -0.1875 0.390625l-0.59375 5.140625l-5.1875 0l-0.578125 -5.15625q-0.03125 -0.25 -0.21875 -0.390625q-0.171875 -0.109375 -0.390625 -0.09375q-0.21875 0.015625 -0.359375 0.15625q-0.15625 0.15625 -0.125 0.421875l0.578125 5.0625l-2.3125 0q-0.46875 0 -0.46875 0.46875q-0.03125 0.484375 0.421875 0.484375l12.078125 0q0.46875 0 0.4375 -0.484375q0 -0.46875 -0.46875 -0.46875zm-0.078125 -7.375l-11.890625 0q-0.53125 0 -0.5 0.484375q0 0.46875 0.5 0.46875l11.96875 0q0.21875 0 0.34375 -0.15625q0.125 -0.140625 0.109375 -0.3125q0 -0.21875 -0.125 -0.34375q-0.171875 -0.140625 -0.40625 -0.140625zm1.265625 12.796875l-14.390625 0q-0.25 0 -0.40625 0.125q-0.125 0.15625 -0.140625 0.34375q-0.03125 0.1875 0.09375 0.328125q0.109375 0.15625 0.3125 0.15625l14.671875 0q0.203125 0 0.3125 -0.15625q0.109375 -0.140625 0.109375 -0.328125q-0.015625 -0.1875 -0.15625 -0.34375q-0.15625 -0.125 -0.40625 -0.125zm7.6875 -12.4375q0 1.78125 -0.765625 3.59375q-0.890625 2.046875 -2.546875 3.59375q-0.21875 0.203125 -0.21875 0.421875q-0.03125 0.1875 0.125 0.34375q0.140625 0.125 0.34375 0.125q0.21875 0 0.390625 -0.15625q1.03125 -0.9375 1.75 -2.0q0.5625 -0.796875 1.15625 -1.984375q0.828125 0.703125 1.6875 1.671875q0.703125 0.796875 1.375 1.703125q0.15625 0.25 0.40625 0.296875q0.203125 0.0625 0.390625 -0.046875q0.15625 -0.140625 0.1875 -0.34375q0.03125 -0.234375 -0.15625 -0.484375q-0.65625 -0.96875 -1.5 -1.84375q-0.8125 -0.859375 -2.0625 -1.84375q0.265625 -0.875 0.40625 -1.671875q0.15625 -0.75 0.15625 -1.375q0 -0.25 -0.1875 -0.421875q-0.15625 -0.140625 -0.375 -0.171875q-0.234375 0 -0.390625 0.140625q-0.171875 0.15625 -0.171875 0.453125zm7.21875 7.625l0 -7.984375q0 -0.25 -0.1875 -0.375q-0.140625 -0.125 -0.359375 -0.125q-0.234375 0 -0.375 0.125q-0.171875 0.140625 -0.171875 0.390625l0 3.046875l-3.5 0q-0.265625 0 -0.40625 0.125q-0.140625 0.140625 -0.109375 0.328125q0 0.1875 0.140625 0.34375q0.171875 0.140625 0.46875 0.140625l3.40625 0l0 3.984375q0 0.28125 0.171875 0.453125q0.140625 0.140625 0.375 0.140625q0.21875 0 0.359375 -0.140625q0.1875 -0.171875 0.1875 -0.453125zm3.375 0.53125l0 -8.515625q0 -0.25 -0.171875 -0.375q-0.15625 -0.125 -0.359375 -0.125q-0.21875 0 -0.375 0.125q-0.15625 0.140625 -0.15625 0.390625l0 8.5q0 0.28125 0.15625 0.4375q0.15625 0.15625 0.375 0.15625q0.203125 0 0.359375 -0.15625q0.171875 -0.15625 0.171875 -0.4375zm-6.453125 1.09375q0 1.828125 -1.6875 3.09375q-1.578125 1.203125 -3.875 1.375q-0.28125 0 -0.421875 0.171875q-0.140625 0.140625 -0.109375 0.34375q0.015625 0.203125 0.171875 0.34375q0.171875 0.140625 0.453125 0.125q2.125 -0.1875 3.875 -1.21875q1.5625 -0.953125 2.171875 -2.203125q0.59375 1.25 2.15625 2.203125q1.71875 1.03125 3.875 1.21875q0.28125 0.015625 0.484375 -0.125q0.171875 -0.140625 0.1875 -0.34375q0 -0.203125 -0.15625 -0.34375q-0.15625 -0.171875 -0.453125 -0.171875q-2.296875 -0.171875 -3.859375 -1.375q-1.703125 -1.28125 -1.703125 -3.09375q0 -0.28125 -0.171875 -0.453125q-0.15625 -0.140625 -0.375 -0.140625q-0.25 0 -0.390625 0.140625q-0.171875 0.171875 -0.171875 0.453125z" fill-rule="nonzero"/><path fill="#000000" d="m766.8451 270.56186l-2.75 0q-0.828125 0 -1.28125 0.453125q-0.453125 0.4375 -0.453125 1.171875l0 10.234375q0 0.734375 0.421875 1.140625q0.4375 0.390625 1.15625 0.390625l2.828125 0q0.828125 0 1.3125 -0.421875q0.5 -0.40625 0.5 -1.109375l0 -10.328125q0 -0.671875 -0.46875 -1.09375q-0.484375 -0.4375 -1.265625 -0.4375zm0.640625 1.671875l0 10.109375q0 0.359375 -0.21875 0.515625q-0.203125 0.140625 -0.640625 0.140625l-2.40625 0q-0.421875 0 -0.59375 -0.171875q-0.171875 -0.140625 -0.171875 -0.546875l0 -9.96875q0 -0.421875 0.171875 -0.609375q0.171875 -0.1875 0.546875 -0.1875l2.546875 0q0.390625 0 0.578125 0.171875q0.1875 0.15625 0.1875 0.546875zm3.65625 -1.703125l0 5.90625l-2.53125 0q-0.25 0 -0.40625 0.140625q-0.140625 0.125 -0.140625 0.34375q0 0.171875 0.140625 0.3125q0.15625 0.15625 0.421875 0.15625l2.515625 0l0 7.5625q0 0.25 0.15625 0.421875q0.15625 0.15625 0.390625 0.15625q0.234375 0 0.375 -0.15625q0.1875 -0.171875 0.1875 -0.421875l0 -14.453125q0 -0.25 -0.1875 -0.375q-0.140625 -0.125 -0.375 -0.109375q-0.234375 0 -0.390625 0.125q-0.15625 0.125 -0.15625 0.390625zm4.609375 14.421875l0 -14.453125q0 -0.25 -0.171875 -0.375q-0.15625 -0.125 -0.359375 -0.125q-0.21875 0 -0.375 0.125q-0.15625 0.140625 -0.15625 0.390625l0 14.4375q0 0.25 0.15625 0.421875q0.15625 0.15625 0.375 0.15625q0.203125 0 0.359375 -0.15625q0.171875 -0.171875 0.171875 -0.421875zm9.421875 -14.0q0 3.015625 -0.984375 6.140625q-1.15625 3.703125 -3.265625 6.0625q-0.203125 0.203125 -0.203125 0.4375q0 0.203125 0.15625 0.359375q0.15625 0.125 0.359375 0.109375q0.21875 0 0.390625 -0.1875q1.421875 -1.75 2.359375 -3.65625q0.859375 -1.765625 1.515625 -4.078125q0.96875 1.234375 2.15625 3.625q0.953125 1.9375 1.6875 3.75q0.109375 0.265625 0.3125 0.375q0.203125 0.109375 0.390625 0.03125q0.203125 -0.09375 0.28125 -0.296875q0.09375 -0.21875 -0.03125 -0.515625q-0.65625 -1.8125 -1.828125 -3.953125q-1.265625 -2.296875 -2.671875 -4.140625q0.1875 -0.890625 0.3125 -2.0q0.15625 -1.140625 0.15625 -2.0625q0 -0.25 -0.1875 -0.40625q-0.15625 -0.140625 -0.375 -0.140625q-0.21875 0 -0.375 0.140625q-0.15625 0.15625 -0.15625 0.40625zm9.078125 14.0l0 -14.4375q0 -0.25 -0.171875 -0.390625q-0.15625 -0.109375 -0.375 -0.109375q-0.25 0 -0.390625 0.109375q-0.171875 0.140625 -0.171875 0.390625l0 14.4375q0 0.25 0.171875 0.421875q0.140625 0.15625 0.390625 0.15625q0.21875 0 0.375 -0.15625q0.171875 -0.171875 0.171875 -0.421875zm15.046875 -14.390625l-8.421875 0q-0.515625 0 -0.515625 0.46875q-0.015625 0.484375 0.5 0.484375l3.671875 0l0 3.03125q0 2.890625 -1.234375 5.28125q-1.1875 2.34375 -3.0625 3.296875q-0.25 0.109375 -0.3125 0.34375q-0.0625 0.203125 0.046875 0.40625q0.09375 0.1875 0.28125 0.25q0.203125 0.09375 0.421875 -0.015625q1.5625 -0.78125 2.8125 -2.609375q1.21875 -1.796875 1.59375 -3.75q0.3125 1.890625 1.578125 3.75q1.25 1.8125 2.734375 2.609375q0.28125 0.15625 0.53125 0.078125q0.21875 -0.0625 0.328125 -0.265625q0.09375 -0.171875 0.03125 -0.40625q-0.046875 -0.21875 -0.296875 -0.34375q-1.9375 -1.078125 -3.125 -3.375q-1.234375 -2.375 -1.234375 -5.28125l0 -3.0l3.671875 0q0.46875 0 0.46875 -0.484375q0 -0.46875 -0.46875 -0.46875zm3.953125 14.390625l0 -14.4375q0 -0.25 -0.171875 -0.390625q-0.15625 -0.109375 -0.375 -0.109375q-0.25 0 -0.390625 0.109375q-0.171875 0.140625 -0.171875 0.390625l0 14.4375q0 0.25 0.171875 0.421875q0.140625 0.15625 0.390625 0.15625q0.21875 0 0.375 -0.15625q0.171875 -0.171875 0.171875 -0.421875z" fill-rule="nonzero"/><path fill="#000000" d="m830.2159 270.56186l-5.421875 0q-0.28125 0 -0.4375 0.140625q-0.125 0.140625 -0.125 0.328125q0 0.1875 0.125 0.328125q0.171875 0.15625 0.453125 0.15625l5.375 0q0.515625 0 0.75 0.21875q0.21875 0.21875 0.21875 0.65625l0 2.75q0 3.5625 -1.734375 5.59375q-1.734375 2.0625 -5.109375 2.453125q-0.53125 0.046875 -0.453125 0.53125q0.0625 0.484375 0.578125 0.453125q3.640625 -0.359375 5.703125 -2.6875q2.078125 -2.375 2.078125 -6.296875l0 -2.875q0 -0.8125 -0.546875 -1.28125q-0.515625 -0.46875 -1.453125 -0.46875zm-0.140625 4.71875q-1.0625 0.265625 -2.859375 0.5q-1.796875 0.21875 -2.96875 0.21875q-0.53125 0 -0.53125 0.484375q0 0.484375 0.546875 0.484375q1.234375 0 3.140625 -0.265625q1.84375 -0.234375 2.96875 -0.53125q0.234375 -0.078125 0.359375 -0.265625q0.109375 -0.15625 0.046875 -0.328125q-0.046875 -0.1875 -0.234375 -0.28125q-0.1875 -0.09375 -0.46875 -0.015625zm7.359375 9.671875l0 -14.4375q0 -0.25 -0.171875 -0.390625q-0.15625 -0.109375 -0.375 -0.109375q-0.25 0 -0.390625 0.109375q-0.171875 0.140625 -0.171875 0.390625l0 14.4375q0 0.25 0.171875 0.421875q0.140625 0.15625 0.390625 0.15625q0.21875 0 0.375 -0.15625q0.171875 -0.171875 0.171875 -0.421875z" fill-rule="nonzero"/><path fill="#000000" d="m766.8451 312.15765l-2.75 0q-0.828125 0 -1.28125 0.453125q-0.453125 0.4375 -0.453125 1.171875l0 10.234375q0 0.734375 0.421875 1.140625q0.4375 0.390625 1.15625 0.390625l2.828125 0q0.828125 0 1.3125 -0.421875q0.5 -0.40625 0.5 -1.109375l0 -10.328125q0 -0.671875 -0.46875 -1.09375q-0.484375 -0.4375 -1.265625 -0.4375zm0.640625 1.671875l0 10.109375q0 0.359375 -0.21875 0.515625q-0.203125 0.140625 -0.640625 0.140625l-2.40625 0q-0.421875 0 -0.59375 -0.171875q-0.171875 -0.140625 -0.171875 -0.546875l0 -9.96875q0 -0.421875 0.171875 -0.609375q0.171875 -0.1875 0.546875 -0.1875l2.546875 0q0.390625 0 0.578125 0.171875q0.1875 0.15625 0.1875 0.546875zm3.65625 -1.703125l0 5.90625l-2.53125 0q-0.25 0 -0.40625 0.140625q-0.140625 0.125 -0.140625 0.34375q0 0.171875 0.140625 0.3125q0.15625 0.15625 0.421875 0.15625l2.515625 0l0 7.5625q0 0.25 0.15625 0.421875q0.15625 0.15625 0.390625 0.15625q0.234375 0 0.375 -0.15625q0.1875 -0.171875 0.1875 -0.421875l0 -14.453125q0 -0.25 -0.1875 -0.375q-0.140625 -0.125 -0.375 -0.109375q-0.234375 0 -0.390625 0.125q-0.15625 0.125 -0.15625 0.390625zm4.609375 14.421875l0 -14.453125q0 -0.25 -0.171875 -0.375q-0.15625 -0.125 -0.359375 -0.125q-0.21875 0 -0.375 0.125q-0.15625 0.140625 -0.15625 0.390625l0 14.4375q0 0.25 0.15625 0.421875q0.15625 0.15625 0.375 0.15625q0.203125 0 0.359375 -0.15625q0.171875 -0.171875 0.171875 -0.421875zm9.421875 -14.0q0 3.015625 -0.984375 6.140625q-1.15625 3.703125 -3.265625 6.0625q-0.203125 0.203125 -0.203125 0.4375q0 0.203125 0.15625 0.359375q0.15625 0.125 0.359375 0.109375q0.21875 0 0.390625 -0.1875q1.421875 -1.75 2.359375 -3.65625q0.859375 -1.765625 1.515625 -4.078125q0.96875 1.234375 2.15625 3.625q0.953125 1.9375 1.6875 3.75q0.109375 0.265625 0.3125 0.375q0.203125 0.109375 0.390625 0.03125q0.203125 -0.09375 0.28125 -0.296875q0.09375 -0.21875 -0.03125 -0.515625q-0.65625 -1.8125 -1.828125 -3.953125q-1.265625 -2.296875 -2.671875 -4.140625q0.1875 -0.890625 0.3125 -2.0q0.15625 -1.140625 0.15625 -2.0625q0 -0.25 -0.1875 -0.40625q-0.15625 -0.140625 -0.375 -0.140625q-0.21875 0 -0.375 0.140625q-0.15625 0.15625 -0.15625 0.40625zm9.078125 14.0l0 -14.4375q0 -0.25 -0.171875 -0.390625q-0.15625 -0.109375 -0.375 -0.109375q-0.25 0 -0.390625 0.109375q-0.171875 0.140625 -0.171875 0.390625l0 14.4375q0 0.25 0.171875 0.421875q0.140625 0.15625 0.390625 0.15625q0.21875 0 0.375 -0.15625q0.171875 -0.171875 0.171875 -0.421875zm15.046875 -14.390625l-8.421875 0q-0.515625 0 -0.515625 0.46875q-0.015625 0.484375 0.5 0.484375l3.671875 0l0 3.03125q0 2.890625 -1.234375 5.28125q-1.1875 2.34375 -3.0625 3.296875q-0.25 0.109375 -0.3125 0.34375q-0.0625 0.203125 0.046875 0.40625q0.09375 0.1875 0.28125 0.25q0.203125 0.09375 0.421875 -0.015625q1.5625 -0.78125 2.8125 -2.609375q1.21875 -1.796875 1.59375 -3.75q0.3125 1.890625 1.578125 3.75q1.25 1.8125 2.734375 2.609375q0.28125 0.15625 0.53125 0.078125q0.21875 -0.0625 0.328125 -0.265625q0.09375 -0.171875 0.03125 -0.40625q-0.046875 -0.21875 -0.296875 -0.34375q-1.9375 -1.078125 -3.125 -3.375q-1.234375 -2.375 -1.234375 -5.28125l0 -3.0l3.671875 0q0.46875 0 0.46875 -0.484375q0 -0.46875 -0.46875 -0.46875zm3.953125 14.390625l0 -14.4375q0 -0.25 -0.171875 -0.390625q-0.15625 -0.109375 -0.375 -0.109375q-0.25 0 -0.390625 0.109375q-0.171875 0.140625 -0.171875 0.390625l0 14.4375q0 0.25 0.171875 0.421875q0.140625 0.15625 0.390625 0.15625q0.21875 0 0.375 -0.15625q0.171875 -0.171875 0.171875 -0.421875z" fill-rule="nonzero"/><path fill="#000000" d="m830.4034 312.03265l-5.671875 0q-0.515625 0 -0.5 0.46875q0 0.484375 0.515625 0.484375l5.546875 0q0.390625 0 0.609375 0.1875q0.25 0.171875 0.25 0.5625l0 0.828125q0 2.09375 -1.734375 3.265625q-1.703125 1.125 -4.921875 1.25q-0.28125 0 -0.453125 0.171875q-0.125 0.125 -0.125 0.328125q0 0.1875 0.15625 0.328125q0.171875 0.125 0.453125 0.125q3.65625 -0.171875 5.671875 -1.640625q2.015625 -1.4375 2.015625 -3.8125l0 -0.984375q0 -0.703125 -0.53125 -1.140625q-0.5 -0.421875 -1.28125 -0.421875zm6.5 4.046875l0 -3.984375q0 -0.5 -0.5625 -0.5q-0.53125 0 -0.53125 0.5l0 7.4375q0 0.25 0.171875 0.40625q0.140625 0.140625 0.359375 0.140625q0.234375 0 0.375 -0.140625q0.1875 -0.15625 0.1875 -0.40625l0 -2.5l2.015625 0q0.484375 0 0.484375 -0.484375q0 -0.46875 -0.484375 -0.46875l-2.015625 0zm-6.9375 4.921875l0 1.640625l-3.90625 0l0 -1.640625q0 -0.265625 -0.171875 -0.40625q-0.15625 -0.15625 -0.375 -0.15625q-0.21875 0 -0.375 0.15625q-0.171875 0.140625 -0.171875 0.40625l0 4.34375q0 0.640625 0.375 1.0q0.375 0.359375 1.09375 0.359375l3.03125 0q0.734375 0 1.140625 -0.359375q0.453125 -0.375 0.453125 -1.0l0 -4.34375q0 -0.265625 -0.1875 -0.40625q-0.140625 -0.15625 -0.375 -0.15625q-0.21875 0 -0.359375 0.15625q-0.171875 0.140625 -0.171875 0.40625zm0 2.59375l0 1.53125q0 0.359375 -0.171875 0.484375q-0.140625 0.15625 -0.53125 0.15625l-2.546875 0q-0.359375 0 -0.5 -0.171875q-0.15625 -0.171875 -0.15625 -0.46875l0 -1.53125l3.90625 0zm4.265625 -2.65625q0 1.640625 -0.921875 3.03125q-0.78125 1.140625 -1.953125 1.8125q-0.265625 0.125 -0.3125 0.359375q-0.0625 0.1875 0.046875 0.359375q0.109375 0.1875 0.3125 0.265625q0.234375 0.0625 0.46875 -0.078125q1.015625 -0.578125 1.84375 -1.5625q0.78125 -0.90625 1.078125 -1.75q0.40625 0.890625 1.140625 1.75q0.859375 0.984375 1.859375 1.5625q0.234375 0.140625 0.46875 0.078125q0.203125 -0.078125 0.3125 -0.265625q0.109375 -0.171875 0.046875 -0.359375q-0.046875 -0.234375 -0.296875 -0.359375q-1.21875 -0.671875 -2.015625 -1.8125q-0.96875 -1.390625 -0.96875 -3.03125q0 -0.265625 -0.1875 -0.40625q-0.140625 -0.125 -0.359375 -0.125q-0.25 0 -0.390625 0.125q-0.171875 0.140625 -0.171875 0.40625z" fill-rule="nonzero"/><path fill="#000000" fill-opacity="0.0" d="m743.9805 344.5689l112.787415 0l0 42.015747l-112.787415 0z" fill-rule="evenodd"/><path fill="#000000" d="m778.59296 357.45767l-3.640625 0q-0.578125 0 -0.578125 0.46875q-0.015625 0.46875 0.5625 0.46875l3.390625 0q0.546875 0 0.796875 0.15625q0.25 0.1875 0.25 0.5625l0 3.296875q0 0.390625 -0.171875 0.546875q-0.1875 0.15625 -0.640625 0.15625l-2.359375 0q-0.875 0 -1.359375 0.53125q-0.390625 0.4375 -0.390625 1.15625l0 4.34375q0 0.765625 0.453125 1.234375q0.453125 0.515625 1.3125 0.515625q1.53125 0 2.75 -0.21875q1.328125 -0.234375 2.5625 -0.75q0.21875 -0.09375 0.3125 -0.3125q0.09375 -0.1875 0.03125 -0.390625q-0.078125 -0.203125 -0.265625 -0.28125q-0.171875 -0.09375 -0.4375 0.046875q-1.125 0.484375 -2.25 0.703125q-1.140625 0.25 -2.390625 0.25q-0.578125 0 -0.78125 -0.171875q-0.203125 -0.1875 -0.203125 -0.6875l0 -4.140625q0 -0.453125 0.1875 -0.671875q0.1875 -0.203125 0.578125 -0.203125l2.578125 0q0.71875 0 1.15625 -0.453125q0.4375 -0.4375 0.4375 -1.140625l0 -3.65625q0 -0.609375 -0.515625 -0.984375q-0.515625 -0.375 -1.375 -0.375zm4.640625 -0.015625l0 5.90625l-2.53125 0q-0.25 0 -0.40625 0.140625q-0.140625 0.125 -0.140625 0.34375q0 0.171875 0.140625 0.3125q0.15625 0.15625 0.421875 0.15625l2.515625 0l0 7.5625q0 0.25 0.15625 0.421875q0.15625 0.15625 0.390625 0.15625q0.234375 0 0.375 -0.15625q0.1875 -0.171875 0.1875 -0.421875l0 -14.453125q0 -0.25 -0.1875 -0.375q-0.140625 -0.125 -0.375 -0.109375q-0.234375 0 -0.390625 0.125q-0.15625 0.125 -0.15625 0.390625zm4.609375 14.421875l0 -14.453125q0 -0.25 -0.171875 -0.375q-0.15625 -0.125 -0.359375 -0.125q-0.21875 0 -0.375 0.125q-0.15625 0.140625 -0.15625 0.390625l0 14.4375q0 0.25 0.15625 0.421875q0.15625 0.15625 0.375 0.15625q0.203125 0 0.359375 -0.15625q0.171875 -0.171875 0.171875 -0.421875zm16.953125 -10.046875q-2.21875 0.265625 -5.3125 0.40625q-2.765625 0.140625 -5.3125 0.140625q-0.546875 0 -0.53125 0.484375q0.03125 0.46875 0.53125 0.46875q2.546875 0 5.421875 -0.15625q2.921875 -0.171875 5.25 -0.4375q0.46875 -0.046875 0.4375 -0.515625q-0.046875 -0.453125 -0.484375 -0.390625zm-0.109375 -4.40625l-9.984375 0q-0.5 0 -0.5 0.484375q0 0.46875 0.46875 0.46875l9.953125 0q0.46875 0 0.6875 0.1875q0.21875 0.171875 0.21875 0.546875l0 3.578125q0 1.625 -0.21875 2.5625q-0.1875 0.8125 -0.671875 1.53125q-0.171875 0.234375 -0.109375 0.453125q0.03125 0.1875 0.21875 0.296875q0.171875 0.109375 0.390625 0.078125q0.21875 -0.046875 0.390625 -0.265625q0.546875 -0.78125 0.8125 -1.875q0.296875 -1.1875 0.296875 -2.90625l0 -3.515625q0 -0.734375 -0.546875 -1.1875q-0.5625 -0.4375 -1.40625 -0.4375zm-5.875 8.578125l0 3.796875l-5.640625 0q-0.53125 0 -0.546875 0.453125q-0.03125 0.484375 0.5 0.484375l14.5 0q0.25 0 0.375 -0.140625q0.125 -0.15625 0.125 -0.34375q0 -0.171875 -0.140625 -0.328125q-0.15625 -0.125 -0.40625 -0.125l-7.671875 0l0 -3.796875q0 -0.265625 -0.1875 -0.4375q-0.140625 -0.125 -0.359375 -0.125q-0.234375 0 -0.375 0.125q-0.171875 0.171875 -0.171875 0.4375zm26.3125 -8.578125l-10.140625 0q-0.921875 0 -1.421875 0.5q-0.453125 0.5 -0.453125 1.34375l0 4.4375q0 0.75 0.453125 1.1875q0.46875 0.46875 1.296875 0.46875l10.546875 0q0.46875 0 0.4375 -0.46875q0 -0.453125 -0.46875 -0.453125l-10.421875 0q-0.40625 0 -0.5625 -0.171875q-0.171875 -0.15625 -0.171875 -0.5l0 -4.71875q0 -0.34375 0.1875 -0.515625q0.1875 -0.15625 0.59375 -0.15625l10.21875 0q0.203125 0 0.3125 -0.15625q0.109375 -0.140625 0.109375 -0.3125q-0.015625 -0.21875 -0.140625 -0.34375q-0.125 -0.140625 -0.375 -0.140625zm1.453125 12.796875l-14.40625 0q-0.546875 0 -0.546875 0.46875q0 0.484375 0.546875 0.484375l14.421875 0q0.234375 0 0.390625 -0.15625q0.140625 -0.140625 0.140625 -0.328125q0 -0.1875 -0.140625 -0.34375q-0.15625 -0.125 -0.40625 -0.125z" fill-rule="nonzero"/><path fill="#000000" fill-opacity="0.0" d="m729.5407 278.90027l-413.19687 -108.62993" fill-rule="evenodd"/><path stroke="#595959" stroke-width="3.0" stroke-linejoin="round" stroke-linecap="butt" d="m729.5407 278.90027l-395.78842 -104.05324" fill-rule="evenodd"/><path fill="#595959" stroke="#595959" stroke-width="3.0" stroke-linecap="butt" d="m335.01218 170.05469l-14.426758 1.3307648l11.906952 8.253937z" fill-rule="evenodd"/><path fill="#000000" fill-opacity="0.0" d="m731.0079 278.90027l-289.16534 87.33856" fill-rule="evenodd"/><path stroke="#595959" stroke-width="3.0" stroke-linejoin="round" stroke-linecap="butt" d="m731.0079 278.90027l-271.93417 82.134125" fill-rule="evenodd"/><path fill="#595959" stroke="#595959" stroke-width="3.0" stroke-linecap="butt" d="m457.64096 356.29083l-11.600067 8.679932l14.465546 0.80718994z" fill-rule="evenodd"/></g></svg>