<svg version="1.1" viewBox="0.0 0.0 960.0 540.0" fill="none" stroke="none" stroke-linecap="square" stroke-miterlimit="10" xmlns:xlink="http://www.w3.org/1999/xlink" xmlns="http://www.w3.org/2000/svg"><clipPath id="g11da9520085_0_0.0"><path d="m0 0l960.0 0l0 540.0l-960.0 0l0 -540.0z" clip-rule="nonzero"/></clipPath><g clip-path="url(#g11da9520085_0_0.0)"><path fill="#ffffff" d="m0 0l960.0 0l0 540.0l-960.0 0z" fill-rule="evenodd"/><g filter="url(#shadowFilter-g11da9520085_0_0.1)"><use xlink:href="#g11da9520085_0_0.1" transform="matrix(1.0 0.0 0.0 1.0 0.0 2.0)"/></g><defs><filter id="shadowFilter-g11da9520085_0_0.1" filterUnits="userSpaceOnUse"><feGaussianBlur in="SourceAlpha" stdDeviation="2.0" result="blur"/><feComponentTransfer in="blur" color-interpolation-filters="sRGB"><feFuncR type="linear" slope="0" intercept="0.0"/><feFuncG type="linear" slope="0" intercept="0.0"/><feFuncB type="linear" slope="0" intercept="0.0"/><feFuncA type="linear" slope="0.5" intercept="0"/></feComponentTransfer></filter></defs><g id="g11da9520085_0_0.1"><path fill="#b7b7b7" d="m22.018373 29.904259l284.0315 0l0 447.87225l-284.0315 0z" fill-rule="evenodd"/><path stroke="#595959" stroke-width="1.0" stroke-linejoin="round" stroke-linecap="butt" d="m22.018373 29.904259l284.0315 0l0 447.87225l-284.0315 0z" fill-rule="evenodd"/></g><g filter="url(#shadowFilter-g11da9520085_0_0.2)"><use xlink:href="#g11da9520085_0_0.2" transform="matrix(1.0 0.0 0.0 1.0 0.0 2.0)"/></g><defs><filter id="shadowFilter-g11da9520085_0_0.2" filterUnits="userSpaceOnUse"><feGaussianBlur in="SourceAlpha" stdDeviation="2.0" result="blur"/><feComponentTransfer in="blur" color-interpolation-filters="sRGB"><feFuncR type="linear" slope="0" intercept="0.0"/><feFuncG type="linear" slope="0" intercept="0.0"/><feFuncB type="linear" slope="0" intercept="0.0"/><feFuncA type="linear" slope="0.5" intercept="0"/></feComponentTransfer></filter></defs><g id="g11da9520085_0_0.2"><path fill="#eeeeee" d="m39.244972 77.52698l249.5748 0l0 379.36655l-249.5748 0z" fill-rule="evenodd"/><path stroke="#595959" stroke-width="1.0" stroke-linejoin="round" stroke-linecap="butt" d="m39.244972 77.52698l249.5748 0l0 379.36655l-249.5748 0z" fill-rule="evenodd"/></g><path fill="#000000" fill-opacity="0.0" d="m107.63953 29.904259l112.7874 0l0 42.008217l-112.7874 0z" fill-rule="evenodd"/><path fill="#000000" d="m142.40996 46.27738l0 2.640625q0 0.484375 -0.203125 0.671875q-0.203125 0.171875 -0.6875 0.171875l-8.53125 0q-0.5 0 -0.703125 -0.1875q-0.1875 -0.1875 -0.1875 -0.640625l0 -2.65625l10.3125 0zm0 -3.234375l0 2.28125l-10.3125 0l0 -2.28125q0 -0.28125 -0.1875 -0.4375q-0.140625 -0.125 -0.375 -0.125q-0.234375 0 -0.390625 0.125q-0.15625 0.171875 -0.15625 0.453125l0 6.109375q0 0.71875 0.484375 1.125q0.453125 0.390625 1.21875 0.390625l9.03125 0q0.859375 0 1.328125 -0.40625q0.46875 -0.40625 0.46875 -1.1875l0 -6.09375q0 -0.25 -0.171875 -0.40625q-0.15625 -0.125 -0.375 -0.125q-0.25 0 -0.390625 0.140625q-0.171875 0.15625 -0.171875 0.4375zm2.046875 12.5l-14.40625 0q-0.546875 0 -0.546875 0.46875q0 0.484375 0.546875 0.484375l14.421875 0q0.234375 0 0.390625 -0.15625q0.140625 -0.140625 0.140625 -0.328125q0 -0.1875 -0.140625 -0.34375q-0.15625 -0.125 -0.40625 -0.125zm15.890625 -12.796875l-9.671875 0q-0.5625 0 -0.5625 0.484375q0 0.46875 0.53125 0.46875l9.53125 0q0.453125 0 0.65625 0.140625q0.234375 0.140625 0.234375 0.515625l0 1.515625q0 0.28125 -0.25 0.4375q-0.203125 0.125 -0.609375 0.125l-8.421875 0q-0.84375 0 -1.296875 0.46875q-0.40625 0.421875 -0.40625 1.109375l0 2.0q0 0.765625 0.40625 1.203125q0.40625 0.4375 1.109375 0.4375l10.46875 0q0.234375 0 0.359375 -0.15625q0.140625 -0.140625 0.140625 -0.328125q0 -0.1875 -0.15625 -0.34375q-0.140625 -0.125 -0.390625 -0.125l-9.984375 0q-0.46875 0 -0.671875 -0.171875q-0.1875 -0.15625 -0.1875 -0.53125l0 -1.875q0 -0.390625 0.1875 -0.5625q0.171875 -0.15625 0.625 -0.15625l8.390625 0q0.921875 0 1.328125 -0.3125q0.46875 -0.34375 0.46875 -1.125l0 -1.71875q0 -0.75 -0.46875 -1.140625q-0.46875 -0.359375 -1.359375 -0.359375zm-4.609375 9.171875l0 3.625l-6.6875 0q-0.25 0 -0.40625 0.125q-0.125 0.15625 -0.140625 0.34375q-0.03125 0.1875 0.09375 0.328125q0.109375 0.15625 0.3125 0.15625l14.5625 0q0.234375 0 0.390625 -0.15625q0.140625 -0.140625 0.140625 -0.328125q0 -0.1875 -0.140625 -0.34375q-0.15625 -0.125 -0.40625 -0.125l-6.640625 0l0 -3.546875q0 -0.25 -0.1875 -0.40625q-0.15625 -0.140625 -0.359375 -0.140625q-0.21875 -0.03125 -0.375 0.109375q-0.15625 0.125 -0.15625 0.359375zm18.265625 -9.109375l-5.421875 0q-0.28125 0 -0.4375 0.140625q-0.125 0.140625 -0.125 0.328125q0 0.1875 0.125 0.328125q0.171875 0.15625 0.453125 0.15625l5.375 0q0.515625 0 0.75 0.21875q0.21875 0.21875 0.21875 0.65625l0 2.75q0 3.5625 -1.734375 5.59375q-1.734375 2.0625 -5.109375 2.453125q-0.53125 0.046875 -0.453125 0.53125q0.0625 0.484375 0.578125 0.453125q3.640625 -0.359375 5.703125 -2.6875q2.078125 -2.375 2.078125 -6.296875l0 -2.875q0 -0.8125 -0.546875 -1.28125q-0.515625 -0.46875 -1.453125 -0.46875zm-0.140625 4.71875q-1.0625 0.265625 -2.859375 0.5q-1.796875 0.21875 -2.96875 0.21875q-0.53125 0 -0.53125 0.484375q0 0.484375 0.546875 0.484375q1.234375 0 3.140625 -0.265625q1.84375 -0.234375 2.96875 -0.53125q0.234375 -0.078125 0.359375 -0.265625q0.109375 -0.15625 0.046875 -0.328125q-0.046875 -0.1875 -0.234375 -0.28125q-0.1875 -0.09375 -0.46875 -0.015625zm7.359375 9.671875l0 -14.421875q0 -0.265625 -0.171875 -0.40625q-0.15625 -0.125 -0.375 -0.125q-0.25 0 -0.390625 0.140625q-0.171875 0.15625 -0.171875 0.40625l0 5.6875l-3.078125 0q-0.265625 0 -0.40625 0.125q-0.15625 0.140625 -0.125 0.328125q0 0.1875 0.15625 0.34375q0.171875 0.140625 0.46875 0.140625l2.984375 0l0 7.78125q0 0.25 0.171875 0.421875q0.140625 0.15625 0.390625 0.15625q0.21875 0 0.375 -0.15625q0.171875 -0.171875 0.171875 -0.421875z" fill-rule="nonzero"/><path fill="#000000" d="m190.71826 50.230507q0 -2.359375 0.484375 -3.796875q0.484375 -1.453125 1.4375 -2.234375q0.96875 -0.78125 2.421875 -0.78125q1.078125 0 1.890625 0.4375q0.8125 0.421875 1.328125 1.25q0.53125 0.8125 0.828125 1.984375q0.3125 1.15625 0.3125 3.140625q0 2.359375 -0.484375 3.8125q-0.484375 1.4375 -1.453125 2.234375q-0.953125 0.78125 -2.421875 0.78125q-1.921875 0 -3.03125 -1.390625q-1.3125 -1.671875 -1.3125 -5.4375zm1.671875 0q0 3.296875 0.765625 4.390625q0.78125 1.078125 1.90625 1.078125q1.140625 0 1.90625 -1.09375q0.765625 -1.09375 0.765625 -4.375q0 -3.296875 -0.765625 -4.375q-0.765625 -1.078125 -1.921875 -1.078125q-1.125 0 -1.796875 0.953125q-0.859375 1.21875 -0.859375 4.5z" fill-rule="nonzero"/><g filter="url(#shadowFilter-g11da9520085_0_0.3)"><use xlink:href="#g11da9520085_0_0.3" transform="matrix(1.0 0.0 0.0 1.0 0.0 2.0)"/></g><defs><filter id="shadowFilter-g11da9520085_0_0.3" filterUnits="userSpaceOnUse"><feGaussianBlur in="SourceAlpha" stdDeviation="2.0" result="blur"/><feComponentTransfer in="blur" color-interpolation-filters="sRGB"><feFuncR type="linear" slope="0" intercept="0.0"/><feFuncG type="linear" slope="0" intercept="0.0"/><feFuncB type="linear" slope="0" intercept="0.0"/><feFuncA type="linear" slope="0.5" intercept="0"/></feComponentTransfer></filter></defs><g id="g11da9520085_0_0.3"><path fill="#b7b7b7" d="m62.133793 177.50465l203.81104 0l0 114.27409l-203.81104 0z" fill-rule="evenodd"/><path stroke="#595959" stroke-width="1.0" stroke-linejoin="round" stroke-linecap="butt" d="m62.133793 177.50465l203.81104 0l0 114.27409l-203.81104 0z" fill-rule="evenodd"/><path fill="#000000" d="m145.06323 214.9992l-0.828125 0l0 16.453125l1.296875 0l0 -7.15625l3.0625 0l0 -1.046875l-3.0625 0l0 -7.53125q0 -0.109375 0.03125 -0.203125q0.03125 -0.078125 0.078125 -0.1875q0.09375 -0.140625 0.03125 -0.203125q-0.109375 -0.09375 -0.609375 -0.125zm-12.328125 2.21875l0 1.09375l9.4375 0l0 -1.09375l-9.4375 0zm2.40625 2.796875l-0.953125 0l0.625 6.0625q-0.75 0 -1.71875 0q-0.953125 0 -1.484375 0l0.34375 1.09375q0.0625 0.25 0.140625 0.296875q0.046875 0.015625 0.1875 -0.078125q0.15625 -0.078125 0.28125 -0.109375q0.203125 -0.078125 0.421875 -0.078125l1.0 -0.0625q2.84375 -0.125 4.484375 -0.203125q2.8125 -0.15625 4.578125 -0.25l-0.09375 -1.0l-3.0 0.15625l0.640625 -4.984375q0.015625 -0.109375 0.078125 -0.203125q0.03125 -0.0625 0.125 -0.171875q0.15625 -0.171875 0.09375 -0.234375q-0.046875 -0.09375 -0.515625 -0.171875l-0.984375 -0.09375l-0.671875 5.921875l-2.671875 0.125l-0.46875 -5.328125q-0.015625 -0.109375 0.03125 -0.21875q0.015625 -0.046875 0.0625 -0.171875q0.078125 -0.140625 0.03125 -0.203125q-0.09375 -0.0625 -0.5625 -0.09375zm16.234375 -3.234375l0 11.625q2.9375 0 5.796875 -0.28125q2.828125 -0.265625 4.828125 -0.71875l-0.109375 -1.09375q-2.171875 0.53125 -4.96875 0.796875q-2.421875 0.25 -4.34375 0.203125l0 -4.859375l6.734375 0l0 -1.0l-6.734375 0l0 -3.6875l7.109375 0l0 -0.984375l-8.3125 0zm12.578125 -1.34375l-0.875 0l0 16.625l1.25 0l0 -15.9375q0 -0.109375 0.03125 -0.21875q0.046875 -0.0625 0.09375 -0.171875q0.109375 -0.1875 0.0625 -0.21875q-0.078125 -0.078125 -0.5625 -0.078125zm9.8125 0.71875q0.046875 2.59375 -1.421875 4.9375q-1.453125 2.328125 -3.75 3.421875l0.796875 1.015625q1.90625 -1.3125 2.9375 -2.46875q1.203125 -1.375 1.8125 -3.1875q0.453125 1.625 1.609375 3.140625q1.03125 1.296875 2.375 2.265625l0.890625 -0.984375q-1.828125 -0.921875 -3.078125 -2.921875q-1.296875 -2.109375 -1.03125 -4.078125q0.015625 -0.1875 0.078125 -0.375q0.03125 -0.09375 0.109375 -0.28125q0.125 -0.265625 0.109375 -0.359375q-0.046875 -0.125 -0.359375 -0.125l-1.078125 0zm4.25 2.21875l0 1.015625l4.0625 0l0 2.140625l-4.0625 0l0 1.03125l4.0625 0l0 5.234375l1.25 0l0 -11.796875q0 -0.078125 0.015625 -0.15625q0.015625 -0.046875 0.0625 -0.125q0.09375 -0.171875 0.046875 -0.203125q-0.046875 -0.078125 -0.390625 -0.078125l-0.984375 0l0 2.9375l-4.0625 0zm-5.203125 8.03125l-0.921875 0l0 5.234375l11.828125 0l0 -1.015625l-10.59375 0l0 -3.65625q0 -0.078125 0.015625 -0.15625q0.015625 -0.046875 0.0625 -0.125q0.078125 -0.171875 0.046875 -0.203125q-0.078125 -0.078125 -0.4375 -0.078125zm19.265625 3.78125l1.25 0l0 -13.28125l-1.09375 0q-0.09375 1.375 -0.90625 2.0q-0.828125 0.640625 -2.453125 0.640625l-0.09375 0l0 0.8125l0.203125 0q1.109375 0 1.875 -0.1875q0.765625 -0.1875 1.21875 -0.5625l0 10.578125z" fill-rule="nonzero"/><path fill="#000000" d="m143.82056 236.96796l-0.890625 0q-1.53125 1.84375 -2.265625 4.03125q-0.765625 2.203125 -0.765625 4.734375q0 2.515625 0.765625 4.734375q0.734375 2.1875 2.265625 4.046875l0.890625 0q-1.4375 -1.984375 -2.109375 -4.140625q-0.640625 -2.140625 -0.640625 -4.640625q0 -2.609375 0.734375 -4.859375q0.671875 -2.046875 2.015625 -3.90625zm3.015625 2.109375l0 1.03125l6.734375 0l0 3.734375l-6.59375 0l0 6.53125q2.921875 -0.0625 5.765625 -0.265625q2.546875 -0.1875 5.09375 -0.484375l-0.21875 -1.109375q-1.984375 0.28125 -4.5625 0.484375q-2.1875 0.140625 -4.8125 0.234375l0 -4.359375l6.65625 0l0 -5.796875l-8.0625 0zm12.421875 -1.921875l0 16.328125l1.25 0l0 -15.75q0 -0.078125 0.03125 -0.140625q0.03125 -0.046875 0.0625 -0.109375q0.109375 -0.1875 0.078125 -0.25q-0.046875 -0.078125 -0.4375 -0.078125l-0.984375 0zm6.9375 1.671875l0 10.78125q2.578125 -0.109375 4.875 -0.328125q2.390625 -0.25 3.65625 -0.5625l-0.203125 -1.109375q-1.078125 0.28125 -3.046875 0.5q-2.1875 0.28125 -4.046875 0.3125l0 -8.546875l6.140625 0l0 -1.046875l-7.375 0zm7.421875 4.203125l0 1.0625l4.640625 0l0 9.375l1.25 0l0 -15.6875q0 -0.09375 0.046875 -0.171875q0.015625 -0.0625 0.078125 -0.1875q0.078125 -0.171875 0.046875 -0.21875q-0.046875 -0.09375 -0.390625 -0.09375l-1.03125 0l0 5.921875l-4.640625 0zm10.609375 -6.0625q1.40625 1.953125 2.09375 4.109375q0.671875 2.125 0.671875 4.65625q0 2.5 -0.671875 4.640625q-0.6875 2.15625 -2.09375 4.140625l0.921875 0q1.484375 -1.859375 2.25 -4.046875q0.765625 -2.21875 0.765625 -4.734375q0 -2.53125 -0.765625 -4.734375q-0.765625 -2.1875 -2.25 -4.03125l-0.921875 0z" fill-rule="nonzero"/></g><path fill="#000000" fill-opacity="0.0" d="m107.63953 77.52698l112.7874 0l0 42.008224l-112.7874 0z" fill-rule="evenodd"/><path fill="#000000" d="m160.4551 90.36885l-10.375 0q-0.890625 0 -1.375 0.484375q-0.4375 0.453125 -0.4375 1.1875l0 5.640625q0 0.734375 0.453125 1.15625q0.46875 0.4375 1.296875 0.4375l10.515625 0q0.21875 0 0.34375 -0.15625q0.125 -0.140625 0.109375 -0.328125q0 -0.1875 -0.125 -0.34375q-0.15625 -0.125 -0.390625 -0.125l-10.28125 0q-0.4375 0 -0.625 -0.1875q-0.1875 -0.15625 -0.1875 -0.546875l0 -2.421875l10.890625 0q0.53125 0 0.53125 -0.484375q0 -0.453125 -0.53125 -0.453125l-10.890625 0l0 -2.0625q0 -0.453125 0.203125 -0.65625q0.21875 -0.1875 0.703125 -0.1875l10.25 0q0.21875 0 0.34375 -0.15625q0.125 -0.140625 0.109375 -0.3125q0 -0.21875 -0.125 -0.34375q-0.171875 -0.140625 -0.40625 -0.140625zm-6.4375 9.171875l0 3.625l-6.6875 0q-0.25 0 -0.40625 0.125q-0.125 0.15625 -0.140625 0.34375q-0.03125 0.1875 0.09375 0.328125q0.109375 0.15625 0.3125 0.15625l14.5625 0q0.234375 0 0.390625 -0.15625q0.140625 -0.140625 0.140625 -0.328125q0 -0.1875 -0.140625 -0.34375q-0.15625 -0.125 -0.40625 -0.125l-6.640625 0l0 -3.546875q0 -0.25 -0.1875 -0.40625q-0.15625 -0.140625 -0.359375 -0.140625q-0.21875 -0.03125 -0.375 0.109375q-0.15625 0.125 -0.15625 0.359375zm21.1875 -9.234375l-8.40625 0q-0.515625 0 -0.515625 0.46875q0 0.484375 0.515625 0.484375l8.40625 0q0.53125 0 0.53125 -0.484375q0 -0.46875 -0.53125 -0.46875zm-7.328125 2.25q0 0.90625 0.140625 2.265625q0.15625 1.21875 0.390625 2.484375l-2.109375 0.015625q-0.546875 0 -0.546875 0.4375q0 0.46875 0.546875 0.46875q3.0 0 5.546875 -0.234375q2.78125 -0.25 4.359375 -0.703125q0.234375 -0.0625 0.359375 -0.25q0.109375 -0.171875 0.0625 -0.34375q-0.03125 -0.203125 -0.203125 -0.296875q-0.1875 -0.125 -0.4375 -0.03125q-0.40625 0.125 -0.953125 0.234375q-0.328125 0.0625 -1.078125 0.203125l-0.296875 0.0625q0.203125 -1.015625 0.34375 -2.140625q0.15625 -1.265625 0.15625 -2.21875q0 -0.5 -0.53125 -0.5q-0.515625 0 -0.515625 0.5q0 0.953125 -0.140625 2.21875q-0.140625 1.296875 -0.34375 2.3125q-0.765625 0.078125 -1.640625 0.125q-0.859375 0.078125 -1.5 0.09375q-0.234375 -1.140625 -0.390625 -2.609375q-0.109375 -1.265625 -0.109375 -2.09375q0 -0.5 -0.5625 -0.5q-0.546875 0 -0.546875 0.5zm11.625 5.203125l0 -7.390625q0 -0.25 -0.171875 -0.375q-0.15625 -0.125 -0.375 -0.125q-0.25 0 -0.390625 0.125q-0.171875 0.140625 -0.171875 0.390625l0 7.375q0 0.265625 0.171875 0.4375q0.140625 0.140625 0.390625 0.140625q0.21875 0 0.375 -0.140625q0.171875 -0.171875 0.171875 -0.4375zm-1.78125 2.4375l-10.15625 0q-0.53125 0 -0.5 0.484375q0 0.484375 0.5 0.484375l10.0625 0q0.421875 0 0.59375 0.15625q0.171875 0.15625 0.171875 0.515625l0 3.0q0 0.265625 0.171875 0.421875q0.140625 0.140625 0.390625 0.140625q0.21875 0 0.375 -0.140625q0.171875 -0.15625 0.171875 -0.421875l0 -3.046875q0 -0.734375 -0.453125 -1.171875q-0.46875 -0.421875 -1.328125 -0.421875z" fill-rule="nonzero"/><g filter="url(#shadowFilter-g11da9520085_0_0.4)"><use xlink:href="#g11da9520085_0_0.4" transform="matrix(1.0 0.0 0.0 1.0 0.0 2.0)"/></g><defs><filter id="shadowFilter-g11da9520085_0_0.4" filterUnits="userSpaceOnUse"><feGaussianBlur in="SourceAlpha" stdDeviation="2.0" result="blur"/><feComponentTransfer in="blur" color-interpolation-filters="sRGB"><feFuncR type="linear" slope="0" intercept="0.0"/><feFuncG type="linear" slope="0" intercept="0.0"/><feFuncB type="linear" slope="0" intercept="0.0"/><feFuncA type="linear" slope="0.5" intercept="0"/></feComponentTransfer></filter></defs><g id="g11da9520085_0_0.4"><path fill="#b7b7b7" d="m336.73358 29.904259l284.0315 0l0 447.87225l-284.0315 0z" fill-rule="evenodd"/><path stroke="#595959" stroke-width="1.0" stroke-linejoin="round" stroke-linecap="butt" d="m336.73358 29.904259l284.0315 0l0 447.87225l-284.0315 0z" fill-rule="evenodd"/></g><g filter="url(#shadowFilter-g11da9520085_0_0.5)"><use xlink:href="#g11da9520085_0_0.5" transform="matrix(1.0 0.0 0.0 1.0 0.0 2.0)"/></g><defs><filter id="shadowFilter-g11da9520085_0_0.5" filterUnits="userSpaceOnUse"><feGaussianBlur in="SourceAlpha" stdDeviation="2.0" result="blur"/><feComponentTransfer in="blur" color-interpolation-filters="sRGB"><feFuncR type="linear" slope="0" intercept="0.0"/><feFuncG type="linear" slope="0" intercept="0.0"/><feFuncB type="linear" slope="0" intercept="0.0"/><feFuncA type="linear" slope="0.5" intercept="0"/></feComponentTransfer></filter></defs><g id="g11da9520085_0_0.5"><path fill="#eeeeee" d="m353.9602 77.52698l249.57477 0l0 379.36655l-249.57477 0z" fill-rule="evenodd"/><path stroke="#595959" stroke-width="1.0" stroke-linejoin="round" stroke-linecap="butt" d="m353.9602 77.52698l249.57477 0l0 379.36655l-249.57477 0z" fill-rule="evenodd"/></g><path fill="#000000" fill-opacity="0.0" d="m422.35474 29.904259l112.787415 0l0 42.008217l-112.787415 0z" fill-rule="evenodd"/><path fill="#000000" d="m457.12518 46.27738l0 2.640625q0 0.484375 -0.203125 0.671875q-0.203125 0.171875 -0.6875 0.171875l-8.53125 0q-0.5 0 -0.703125 -0.1875q-0.1875 -0.1875 -0.1875 -0.640625l0 -2.65625l10.3125 0zm0 -3.234375l0 2.28125l-10.3125 0l0 -2.28125q0 -0.28125 -0.1875 -0.4375q-0.140625 -0.125 -0.375 -0.125q-0.234375 0 -0.390625 0.125q-0.15625 0.171875 -0.15625 0.453125l0 6.109375q0 0.71875 0.484375 1.125q0.453125 0.390625 1.21875 0.390625l9.03125 0q0.859375 0 1.328125 -0.40625q0.46875 -0.40625 0.46875 -1.1875l0 -6.09375q0 -0.25 -0.171875 -0.40625q-0.15625 -0.125 -0.375 -0.125q-0.25 0 -0.390625 0.140625q-0.171875 0.15625 -0.171875 0.4375zm2.046875 12.5l-14.40625 0q-0.546875 0 -0.546875 0.46875q0 0.484375 0.546875 0.484375l14.421875 0q0.234375 0 0.390625 -0.15625q0.140625 -0.140625 0.140625 -0.328125q0 -0.1875 -0.140625 -0.34375q-0.15625 -0.125 -0.40625 -0.125zm15.890625 -12.796875l-9.671875 0q-0.5625 0 -0.5625 0.484375q0 0.46875 0.53125 0.46875l9.53125 0q0.453125 0 0.65625 0.140625q0.234375 0.140625 0.234375 0.515625l0 1.515625q0 0.28125 -0.25 0.4375q-0.203125 0.125 -0.609375 0.125l-8.421875 0q-0.84375 0 -1.296875 0.46875q-0.40625 0.421875 -0.40625 1.109375l0 2.0q0 0.765625 0.40625 1.203125q0.40625 0.4375 1.109375 0.4375l10.46875 0q0.234375 0 0.359375 -0.15625q0.140625 -0.140625 0.140625 -0.328125q0 -0.1875 -0.15625 -0.34375q-0.140625 -0.125 -0.390625 -0.125l-9.984375 0q-0.46875 0 -0.671875 -0.171875q-0.1875 -0.15625 -0.1875 -0.53125l0 -1.875q0 -0.390625 0.1875 -0.5625q0.171875 -0.15625 0.625 -0.15625l8.390625 0q0.921875 0 1.328125 -0.3125q0.46875 -0.34375 0.46875 -1.125l0 -1.71875q0 -0.75 -0.46875 -1.140625q-0.46875 -0.359375 -1.359375 -0.359375zm-4.609375 9.171875l0 3.625l-6.6875 0q-0.25 0 -0.40625 0.125q-0.125 0.15625 -0.140625 0.34375q-0.03125 0.1875 0.09375 0.328125q0.109375 0.15625 0.3125 0.15625l14.5625 0q0.234375 0 0.390625 -0.15625q0.140625 -0.140625 0.140625 -0.328125q0 -0.1875 -0.140625 -0.34375q-0.15625 -0.125 -0.40625 -0.125l-6.640625 0l0 -3.546875q0 -0.25 -0.1875 -0.40625q-0.15625 -0.140625 -0.359375 -0.140625q-0.21875 -0.03125 -0.375 0.109375q-0.15625 0.125 -0.15625 0.359375zm18.265625 -9.109375l-5.421875 0q-0.28125 0 -0.4375 0.140625q-0.125 0.140625 -0.125 0.328125q0 0.1875 0.125 0.328125q0.171875 0.15625 0.453125 0.15625l5.375 0q0.515625 0 0.75 0.21875q0.21875 0.21875 0.21875 0.65625l0 2.75q0 3.5625 -1.734375 5.59375q-1.734375 2.0625 -5.109375 2.453125q-0.53125 0.046875 -0.453125 0.53125q0.0625 0.484375 0.578125 0.453125q3.640625 -0.359375 5.703125 -2.6875q2.078125 -2.375 2.078125 -6.296875l0 -2.875q0 -0.8125 -0.546875 -1.28125q-0.515625 -0.46875 -1.453125 -0.46875zm-0.140625 4.71875q-1.0625 0.265625 -2.859375 0.5q-1.796875 0.21875 -2.96875 0.21875q-0.53125 0 -0.53125 0.484375q0 0.484375 0.546875 0.484375q1.234375 0 3.140625 -0.265625q1.84375 -0.234375 2.96875 -0.53125q0.234375 -0.078125 0.359375 -0.265625q0.109375 -0.15625 0.046875 -0.328125q-0.046875 -0.1875 -0.234375 -0.28125q-0.1875 -0.09375 -0.46875 -0.015625zm7.359375 9.671875l0 -14.421875q0 -0.265625 -0.171875 -0.40625q-0.15625 -0.125 -0.375 -0.125q-0.25 0 -0.390625 0.140625q-0.171875 0.15625 -0.171875 0.40625l0 5.6875l-3.078125 0q-0.265625 0 -0.40625 0.125q-0.15625 0.140625 -0.125 0.328125q0 0.1875 0.15625 0.34375q0.171875 0.140625 0.46875 0.140625l2.984375 0l0 7.78125q0 0.25 0.171875 0.421875q0.140625 0.15625 0.390625 0.15625q0.21875 0 0.375 -0.15625q0.171875 -0.171875 0.171875 -0.421875z" fill-rule="nonzero"/><path fill="#000000" d="m511.60538 56.824257l-1.640625 0l0 -10.453125q-0.59375 0.5625 -1.5625 1.140625q-0.953125 0.5625 -1.71875 0.84375l0 -1.59375q1.375 -0.640625 2.40625 -1.5625q1.03125 -0.921875 1.453125 -1.78125l1.0625 0l0 13.40625z" fill-rule="nonzero"/><g filter="url(#shadowFilter-g11da9520085_0_0.6)"><use xlink:href="#g11da9520085_0_0.6" transform="matrix(1.0 0.0 0.0 1.0 0.0 2.0)"/></g><defs><filter id="shadowFilter-g11da9520085_0_0.6" filterUnits="userSpaceOnUse"><feGaussianBlur in="SourceAlpha" stdDeviation="2.0" result="blur"/><feComponentTransfer in="blur" color-interpolation-filters="sRGB"><feFuncR type="linear" slope="0" intercept="0.0"/><feFuncG type="linear" slope="0" intercept="0.0"/><feFuncB type="linear" slope="0" intercept="0.0"/><feFuncA type="linear" slope="0.5" intercept="0"/></feComponentTransfer></filter></defs><g id="g11da9520085_0_0.6"><path fill="#b7b7b7" d="m376.84903 177.50465l203.811 0l0 114.27409l-203.811 0z" fill-rule="evenodd"/><path stroke="#595959" stroke-width="1.0" stroke-linejoin="round" stroke-linecap="butt" stroke-dasharray="4.0,3.0" d="m376.84903 177.50465l203.811 0l0 114.27409l-203.811 0z" fill-rule="evenodd"/><path fill="#000000" d="m459.77844 214.9992l-0.828125 0l0 16.453125l1.296875 0l0 -7.15625l3.0625 0l0 -1.046875l-3.0625 0l0 -7.53125q0 -0.109375 0.03125 -0.203125q0.03125 -0.078125 0.078125 -0.1875q0.09375 -0.140625 0.03125 -0.203125q-0.109375 -0.09375 -0.609375 -0.125zm-12.328125 2.21875l0 1.09375l9.4375 0l0 -1.09375l-9.4375 0zm2.40625 2.796875l-0.953125 0l0.625 6.0625q-0.75 0 -1.71875 0q-0.953125 0 -1.484375 0l0.34375 1.09375q0.0625 0.25 0.140625 0.296875q0.046875 0.015625 0.1875 -0.078125q0.15625 -0.078125 0.28125 -0.109375q0.203125 -0.078125 0.421875 -0.078125l1.0 -0.0625q2.84375 -0.125 4.484375 -0.203125q2.8125 -0.15625 4.578125 -0.25l-0.09375 -1.0l-3.0 0.15625l0.640625 -4.984375q0.015625 -0.109375 0.078125 -0.203125q0.03125 -0.0625 0.125 -0.171875q0.15625 -0.171875 0.09375 -0.234375q-0.046875 -0.09375 -0.515625 -0.171875l-0.984375 -0.09375l-0.671875 5.921875l-2.671875 0.125l-0.46875 -5.328125q-0.015625 -0.109375 0.03125 -0.21875q0.015625 -0.046875 0.0625 -0.171875q0.078125 -0.140625 0.03125 -0.203125q-0.09375 -0.0625 -0.5625 -0.09375zm16.234375 -3.234375l0 11.625q2.9375 0 5.796875 -0.28125q2.828125 -0.265625 4.828125 -0.71875l-0.109375 -1.09375q-2.171875 0.53125 -4.96875 0.796875q-2.421875 0.25 -4.34375 0.203125l0 -4.859375l6.734375 0l0 -1.0l-6.734375 0l0 -3.6875l7.109375 0l0 -0.984375l-8.3125 0zm12.578125 -1.34375l-0.875 0l0 16.625l1.25 0l0 -15.9375q0 -0.109375 0.03125 -0.21875q0.046875 -0.0625 0.09375 -0.171875q0.109375 -0.1875 0.0625 -0.21875q-0.078125 -0.078125 -0.5625 -0.078125zm9.8125 0.71875q0.046875 2.59375 -1.421875 4.9375q-1.453125 2.328125 -3.75 3.421875l0.796875 1.015625q1.90625 -1.3125 2.9375 -2.46875q1.203125 -1.375 1.8125 -3.1875q0.453125 1.625 1.609375 3.140625q1.03125 1.296875 2.375 2.265625l0.890625 -0.984375q-1.828125 -0.921875 -3.078125 -2.921875q-1.296875 -2.109375 -1.03125 -4.078125q0.015625 -0.1875 0.078125 -0.375q0.03125 -0.09375 0.109375 -0.28125q0.125 -0.265625 0.109375 -0.359375q-0.046875 -0.125 -0.359375 -0.125l-1.078125 0zm4.25 2.21875l0 1.015625l4.0625 0l0 2.140625l-4.0625 0l0 1.03125l4.0625 0l0 5.234375l1.25 0l0 -11.796875q0 -0.078125 0.015625 -0.15625q0.015625 -0.046875 0.0625 -0.125q0.09375 -0.171875 0.046875 -0.203125q-0.046875 -0.078125 -0.390625 -0.078125l-0.984375 0l0 2.9375l-4.0625 0zm-5.203125 8.03125l-0.921875 0l0 5.234375l11.828125 0l0 -1.015625l-10.59375 0l0 -3.65625q0 -0.078125 0.015625 -0.15625q0.015625 -0.046875 0.0625 -0.125q0.078125 -0.171875 0.046875 -0.203125q-0.078125 -0.078125 -0.4375 -0.078125zm19.265656 3.78125l1.25 0l0 -13.28125l-1.09375 0q-0.09375 1.375 -0.90625 2.0q-0.828125 0.640625 -2.4531555 0.640625l-0.09375 0l0 0.8125l0.203125 0q1.109375 0 1.8750305 -0.1875q0.765625 -0.1875 1.21875 -0.5625l0 10.578125z" fill-rule="nonzero"/><path fill="#000000" d="m449.03577 236.96796l-0.890625 0q-1.53125 1.84375 -2.265625 4.03125q-0.765625 2.203125 -0.765625 4.734375q0 2.515625 0.765625 4.734375q0.734375 2.1875 2.265625 4.046875l0.890625 0q-1.4375 -1.984375 -2.109375 -4.140625q-0.640625 -2.140625 -0.640625 -4.640625q0 -2.609375 0.734375 -4.859375q0.671875 -2.046875 2.015625 -3.90625zm3.59375 1.1875l0 1.046875l9.71875 0l0 -1.046875l-9.71875 0zm2.3125 1.78125l-0.890625 0l0.578125 4.71875q-0.65625 0.015625 -1.625 0.015625q-0.875 0 -1.4375 0l0.296875 1.03125q0.09375 0.25 0.171875 0.296875q0.0625 0.015625 0.203125 -0.0625q0.125 -0.078125 0.25 -0.109375q0.171875 -0.078125 0.421875 -0.078125l1.203125 -0.046875q2.90625 -0.15625 4.5625 -0.25q2.890625 -0.171875 4.578125 -0.375l-0.078125 -1.015625l-2.53125 0.265625l-0.609375 0.0625l0.609375 -3.703125q0.015625 -0.15625 0.078125 -0.28125q0.03125 -0.078125 0.125 -0.1875q0.109375 -0.1875 0.078125 -0.21875q-0.078125 -0.0625 -0.5 -0.0625l-0.953125 0l-0.625 4.53125l-0.875 0.046875q-0.796875 0.046875 -1.171875 0.0625q-0.640625 0.046875 -0.96875 0.046875l-0.453125 -3.9375q-0.015625 -0.15625 0.015625 -0.28125q0.015625 -0.078125 0.078125 -0.203125q0.0625 -0.171875 0 -0.203125q-0.078125 -0.0625 -0.53125 -0.0625zm9.390625 -2.5l0 8.921875l1.25 0l0 -3.125l2.796875 0l0 -1.046875l-2.796875 0l0 -4.15625l0.078125 -0.203125q0.09375 -0.203125 0.046875 -0.28125q-0.046875 -0.109375 -0.4375 -0.109375l-0.9375 0zm-9.984375 9.75l0 1.015625l10.046875 0l0 1.609375l-10.046875 0l0 4.03125l11.625 0l0 -1.015625l-10.453125 0l0 -1.984375l10.0625 0l0 -3.65625l-11.234375 0zm18.671875 -8.109375l0 1.03125l10.25 0l0 2.640625l-10.15625 0l0 4.75l5.140625 0l0 3.265625l-7.421875 0l0 1.03125l16.15625 0l0 -1.03125l-7.453125 0l0 -3.265625l5.34375 0l0 -0.984375l-10.546875 0l0 -2.828125l10.140625 0l0 -4.609375l-11.453125 0zm22.28125 0.265625q1.296875 0 2.0625 0.671875q0.6875 0.5625 0.6875 1.4375q0 0.828125 -0.6875 1.421875q-0.765625 0.65625 -2.0625 0.65625q-1.3125 0 -2.09375 -0.65625q-0.6875 -0.59375 -0.6875 -1.421875q0 -0.875 0.6875 -1.4375q0.78125 -0.671875 2.09375 -0.671875zm0 -0.9375q-1.9375 0 -3.078125 0.921875q-1.03125 0.875 -1.03125 2.140625q0 1.234375 1.03125 2.09375q1.140625 0.96875 3.078125 0.96875q1.921875 0 3.046875 -0.96875q1.015625 -0.859375 1.015625 -2.09375q0 -1.265625 -1.015625 -2.140625q-1.125 -0.921875 -3.046875 -0.921875zm-5.6875 7.8125l0.21875 1.0625q0.0625 0.21875 0.109375 0.25q0.03125 0.015625 0.1875 -0.046875q0.125 -0.078125 0.21875 -0.125q0.1875 -0.0625 0.4375 -0.078125l3.921875 -0.1875l0 5.828125l1.25 0l0 -5.921875q0.8125 -0.046875 2.28125 -0.15625q1.375 -0.09375 2.46875 -0.15625l-0.09375 -1.015625q-2.375 0.234375 -5.890625 0.390625q-3.140625 0.15625 -5.109375 0.15625zm13.75 -9.0l-0.890625 0l0 11.46875l-3.640625 0l0 1.03125l3.640625 0l0 3.859375l1.25 0l0 -15.65625q0 -0.109375 0.0625 -0.21875q0.015625 -0.0625 0.109375 -0.15625q0.109375 -0.15625 0.0625 -0.21875q-0.09375 -0.0625 -0.59375 -0.109375zm5.0781555 -0.25q1.40625 1.953125 2.09375 4.109375q0.671875 2.125 0.671875 4.65625q0 2.5 -0.671875 4.640625q-0.6875 2.15625 -2.09375 4.140625l0.921875 0q1.484375 -1.859375 2.25 -4.046875q0.7655945 -2.21875 0.7655945 -4.734375q0 -2.53125 -0.7655945 -4.734375q-0.765625 -2.1875 -2.25 -4.03125l-0.921875 0z" fill-rule="nonzero"/></g><path fill="#000000" fill-opacity="0.0" d="m422.35474 77.52698l112.787415 0l0 42.008224l-112.787415 0z" fill-rule="evenodd"/><path fill="#000000" d="m475.17032 90.36885l-10.375 0q-0.890625 0 -1.375 0.484375q-0.4375 0.453125 -0.4375 1.1875l0 5.640625q0 0.734375 0.453125 1.15625q0.46875 0.4375 1.296875 0.4375l10.515625 0q0.21875 0 0.34375 -0.15625q0.125 -0.140625 0.109375 -0.328125q0 -0.1875 -0.125 -0.34375q-0.15625 -0.125 -0.390625 -0.125l-10.28125 0q-0.4375 0 -0.625 -0.1875q-0.1875 -0.15625 -0.1875 -0.546875l0 -2.421875l10.890625 0q0.53125 0 0.53125 -0.484375q0 -0.453125 -0.53125 -0.453125l-10.890625 0l0 -2.0625q0 -0.453125 0.203125 -0.65625q0.21875 -0.1875 0.703125 -0.1875l10.25 0q0.21875 0 0.34375 -0.15625q0.125 -0.140625 0.109375 -0.3125q0 -0.21875 -0.125 -0.34375q-0.171875 -0.140625 -0.40625 -0.140625zm-6.4375 9.171875l0 3.625l-6.6875 0q-0.25 0 -0.40625 0.125q-0.125 0.15625 -0.140625 0.34375q-0.03125 0.1875 0.09375 0.328125q0.109375 0.15625 0.3125 0.15625l14.5625 0q0.234375 0 0.390625 -0.15625q0.140625 -0.140625 0.140625 -0.328125q0 -0.1875 -0.140625 -0.34375q-0.15625 -0.125 -0.40625 -0.125l-6.640625 0l0 -3.546875q0 -0.25 -0.1875 -0.40625q-0.15625 -0.140625 -0.359375 -0.140625q-0.21875 -0.03125 -0.375 0.109375q-0.15625 0.125 -0.15625 0.359375zm21.1875 -9.234375l-8.40625 0q-0.515625 0 -0.515625 0.46875q0 0.484375 0.515625 0.484375l8.40625 0q0.53125 0 0.53125 -0.484375q0 -0.46875 -0.53125 -0.46875zm-7.328125 2.25q0 0.90625 0.140625 2.265625q0.15625 1.21875 0.390625 2.484375l-2.109375 0.015625q-0.546875 0 -0.546875 0.4375q0 0.46875 0.546875 0.46875q3.0 0 5.546875 -0.234375q2.78125 -0.25 4.359375 -0.703125q0.234375 -0.0625 0.359375 -0.25q0.109375 -0.171875 0.0625 -0.34375q-0.03125 -0.203125 -0.203125 -0.296875q-0.1875 -0.125 -0.4375 -0.03125q-0.40625 0.125 -0.953125 0.234375q-0.328125 0.0625 -1.078125 0.203125l-0.296875 0.0625q0.203125 -1.015625 0.34375 -2.140625q0.15625 -1.265625 0.15625 -2.21875q0 -0.5 -0.53125 -0.5q-0.515625 0 -0.515625 0.5q0 0.953125 -0.140625 2.21875q-0.140625 1.296875 -0.34375 2.3125q-0.765625 0.078125 -1.640625 0.125q-0.859375 0.078125 -1.5 0.09375q-0.234375 -1.140625 -0.390625 -2.609375q-0.109375 -1.265625 -0.109375 -2.09375q0 -0.5 -0.5625 -0.5q-0.546875 0 -0.546875 0.5zm11.625 5.203125l0 -7.390625q0 -0.25 -0.171875 -0.375q-0.15625 -0.125 -0.375 -0.125q-0.25 0 -0.390625 0.125q-0.171875 0.140625 -0.171875 0.390625l0 7.375q0 0.265625 0.171875 0.4375q0.140625 0.140625 0.390625 0.140625q0.21875 0 0.375 -0.140625q0.171875 -0.171875 0.171875 -0.4375zm-1.78125 2.4375l-10.15625 0q-0.53125 0 -0.5 0.484375q0 0.484375 0.5 0.484375l10.0625 0q0.421875 0 0.59375 0.15625q0.171875 0.15625 0.171875 0.515625l0 3.0q0 0.265625 0.171875 0.421875q0.140625 0.140625 0.390625 0.140625q0.21875 0 0.375 -0.140625q0.171875 -0.15625 0.171875 -0.421875l0 -3.046875q0 -0.734375 -0.453125 -1.171875q-0.46875 -0.421875 -1.328125 -0.421875z" fill-rule="nonzero"/><g filter="url(#shadowFilter-g11da9520085_0_0.7)"><use xlink:href="#g11da9520085_0_0.7" transform="matrix(1.0 0.0 0.0 1.0 0.0 2.0)"/></g><defs><filter id="shadowFilter-g11da9520085_0_0.7" filterUnits="userSpaceOnUse"><feGaussianBlur in="SourceAlpha" stdDeviation="2.0" result="blur"/><feComponentTransfer in="blur" color-interpolation-filters="sRGB"><feFuncR type="linear" slope="0" intercept="0.0"/><feFuncG type="linear" slope="0" intercept="0.0"/><feFuncB type="linear" slope="0" intercept="0.0"/><feFuncA type="linear" slope="0.5" intercept="0"/></feComponentTransfer></filter></defs><g id="g11da9520085_0_0.7"><path fill="#b7b7b7" d="m651.4488 29.904259l284.0315 0l0 447.87225l-284.0315 0z" fill-rule="evenodd"/><path stroke="#595959" stroke-width="1.0" stroke-linejoin="round" stroke-linecap="butt" d="m651.4488 29.904259l284.0315 0l0 447.87225l-284.0315 0z" fill-rule="evenodd"/></g><g filter="url(#shadowFilter-g11da9520085_0_0.8)"><use xlink:href="#g11da9520085_0_0.8" transform="matrix(1.0 0.0 0.0 1.0 0.0 2.0)"/></g><defs><filter id="shadowFilter-g11da9520085_0_0.8" filterUnits="userSpaceOnUse"><feGaussianBlur in="SourceAlpha" stdDeviation="2.0" result="blur"/><feComponentTransfer in="blur" color-interpolation-filters="sRGB"><feFuncR type="linear" slope="0" intercept="0.0"/><feFuncG type="linear" slope="0" intercept="0.0"/><feFuncB type="linear" slope="0" intercept="0.0"/><feFuncA type="linear" slope="0.5" intercept="0"/></feComponentTransfer></filter></defs><g id="g11da9520085_0_0.8"><path fill="#eeeeee" d="m668.6754 77.52698l249.57483 0l0 379.36655l-249.57483 0z" fill-rule="evenodd"/><path stroke="#595959" stroke-width="1.0" stroke-linejoin="round" stroke-linecap="butt" d="m668.6754 77.52698l249.57483 0l0 379.36655l-249.57483 0z" fill-rule="evenodd"/></g><path fill="#000000" fill-opacity="0.0" d="m737.06995 29.904259l112.787415 0l0 42.008217l-112.787415 0z" fill-rule="evenodd"/><path fill="#000000" d="m771.8404 46.27738l0 2.640625q0 0.484375 -0.203125 0.671875q-0.203125 0.171875 -0.6875 0.171875l-8.53125 0q-0.5 0 -0.703125 -0.1875q-0.1875 -0.1875 -0.1875 -0.640625l0 -2.65625l10.3125 0zm0 -3.234375l0 2.28125l-10.3125 0l0 -2.28125q0 -0.28125 -0.1875 -0.4375q-0.140625 -0.125 -0.375 -0.125q-0.234375 0 -0.390625 0.125q-0.15625 0.171875 -0.15625 0.453125l0 6.109375q0 0.71875 0.484375 1.125q0.453125 0.390625 1.21875 0.390625l9.03125 0q0.859375 0 1.328125 -0.40625q0.46875 -0.40625 0.46875 -1.1875l0 -6.09375q0 -0.25 -0.171875 -0.40625q-0.15625 -0.125 -0.375 -0.125q-0.25 0 -0.390625 0.140625q-0.171875 0.15625 -0.171875 0.4375zm2.046875 12.5l-14.40625 0q-0.546875 0 -0.546875 0.46875q0 0.484375 0.546875 0.484375l14.421875 0q0.234375 0 0.390625 -0.15625q0.140625 -0.140625 0.140625 -0.328125q0 -0.1875 -0.140625 -0.34375q-0.15625 -0.125 -0.40625 -0.125zm15.890625 -12.796875l-9.671875 0q-0.5625 0 -0.5625 0.484375q0 0.46875 0.53125 0.46875l9.53125 0q0.453125 0 0.65625 0.140625q0.234375 0.140625 0.234375 0.515625l0 1.515625q0 0.28125 -0.25 0.4375q-0.203125 0.125 -0.609375 0.125l-8.421875 0q-0.84375 0 -1.296875 0.46875q-0.40625 0.421875 -0.40625 1.109375l0 2.0q0 0.765625 0.40625 1.203125q0.40625 0.4375 1.109375 0.4375l10.46875 0q0.234375 0 0.359375 -0.15625q0.140625 -0.140625 0.140625 -0.328125q0 -0.1875 -0.15625 -0.34375q-0.140625 -0.125 -0.390625 -0.125l-9.984375 0q-0.46875 0 -0.671875 -0.171875q-0.1875 -0.15625 -0.1875 -0.53125l0 -1.875q0 -0.390625 0.1875 -0.5625q0.171875 -0.15625 0.625 -0.15625l8.390625 0q0.921875 0 1.328125 -0.3125q0.46875 -0.34375 0.46875 -1.125l0 -1.71875q0 -0.75 -0.46875 -1.140625q-0.46875 -0.359375 -1.359375 -0.359375zm-4.609375 9.171875l0 3.625l-6.6875 0q-0.25 0 -0.40625 0.125q-0.125 0.15625 -0.140625 0.34375q-0.03125 0.1875 0.09375 0.328125q0.109375 0.15625 0.3125 0.15625l14.5625 0q0.234375 0 0.390625 -0.15625q0.140625 -0.140625 0.140625 -0.328125q0 -0.1875 -0.140625 -0.34375q-0.15625 -0.125 -0.40625 -0.125l-6.640625 0l0 -3.546875q0 -0.25 -0.1875 -0.40625q-0.15625 -0.140625 -0.359375 -0.140625q-0.21875 -0.03125 -0.375 0.109375q-0.15625 0.125 -0.15625 0.359375zm18.265625 -9.109375l-5.421875 0q-0.28125 0 -0.4375 0.140625q-0.125 0.140625 -0.125 0.328125q0 0.1875 0.125 0.328125q0.171875 0.15625 0.453125 0.15625l5.375 0q0.515625 0 0.75 0.21875q0.21875 0.21875 0.21875 0.65625l0 2.75q0 3.5625 -1.734375 5.59375q-1.734375 2.0625 -5.109375 2.453125q-0.53125 0.046875 -0.453125 0.53125q0.0625 0.484375 0.578125 0.453125q3.640625 -0.359375 5.703125 -2.6875q2.078125 -2.375 2.078125 -6.296875l0 -2.875q0 -0.8125 -0.546875 -1.28125q-0.515625 -0.46875 -1.453125 -0.46875zm-0.140625 4.71875q-1.0625 0.265625 -2.859375 0.5q-1.796875 0.21875 -2.96875 0.21875q-0.53125 0 -0.53125 0.484375q0 0.484375 0.546875 0.484375q1.234375 0 3.140625 -0.265625q1.84375 -0.234375 2.96875 -0.53125q0.234375 -0.078125 0.359375 -0.265625q0.109375 -0.15625 0.046875 -0.328125q-0.046875 -0.1875 -0.234375 -0.28125q-0.1875 -0.09375 -0.46875 -0.015625zm7.359375 9.671875l0 -14.421875q0 -0.265625 -0.171875 -0.40625q-0.15625 -0.125 -0.375 -0.125q-0.25 0 -0.390625 0.140625q-0.171875 0.15625 -0.171875 0.40625l0 5.6875l-3.078125 0q-0.265625 0 -0.40625 0.125q-0.15625 0.140625 -0.125 0.328125q0 0.1875 0.15625 0.34375q0.171875 0.140625 0.46875 0.140625l2.984375 0l0 7.78125q0 0.25 0.171875 0.421875q0.140625 0.15625 0.390625 0.15625q0.21875 0 0.375 -0.15625q0.171875 -0.171875 0.171875 -0.421875z" fill-rule="nonzero"/><path fill="#000000" d="m828.7581 55.24613l0 1.578125l-8.828125 0q-0.015625 -0.59375 0.1875 -1.140625q0.34375 -0.90625 1.078125 -1.78125q0.75 -0.875 2.15625 -2.015625q2.171875 -1.78125 2.9375 -2.828125q0.765625 -1.046875 0.765625 -1.96875q0 -0.984375 -0.703125 -1.640625q-0.6875 -0.671875 -1.8125 -0.671875q-1.1875 0 -1.90625 0.71875q-0.703125 0.703125 -0.703125 1.953125l-1.6875 -0.171875q0.171875 -1.890625 1.296875 -2.875q1.140625 -0.984375 3.03125 -0.984375q1.921875 0 3.046875 1.0625q1.125 1.0625 1.125 2.640625q0 0.796875 -0.328125 1.578125q-0.328125 0.78125 -1.09375 1.640625q-0.75 0.84375 -2.53125 2.34375q-1.46875 1.234375 -1.890625 1.6875q-0.421875 0.4375 -0.6875 0.875l6.546875 0z" fill-rule="nonzero"/><g filter="url(#shadowFilter-g11da9520085_0_0.9)"><use xlink:href="#g11da9520085_0_0.9" transform="matrix(1.0 0.0 0.0 1.0 0.0 2.0)"/></g><defs><filter id="shadowFilter-g11da9520085_0_0.9" filterUnits="userSpaceOnUse"><feGaussianBlur in="SourceAlpha" stdDeviation="2.0" result="blur"/><feComponentTransfer in="blur" color-interpolation-filters="sRGB"><feFuncR type="linear" slope="0" intercept="0.0"/><feFuncG type="linear" slope="0" intercept="0.0"/><feFuncB type="linear" slope="0" intercept="0.0"/><feFuncA type="linear" slope="0.5" intercept="0"/></feComponentTransfer></filter></defs><g id="g11da9520085_0_0.9"><path fill="#b7b7b7" d="m691.5643 177.50465l203.81097 0l0 114.27409l-203.81097 0z" fill-rule="evenodd"/><path stroke="#595959" stroke-width="1.0" stroke-linejoin="round" stroke-linecap="butt" stroke-dasharray="4.0,3.0" d="m691.5643 177.50465l203.81097 0l0 114.27409l-203.81097 0z" fill-rule="evenodd"/><path fill="#000000" d="m774.49365 214.9992l-0.828125 0l0 16.453125l1.296875 0l0 -7.15625l3.0625 0l0 -1.046875l-3.0625 0l0 -7.53125q0 -0.109375 0.03125 -0.203125q0.03125 -0.078125 0.078125 -0.1875q0.09375 -0.140625 0.03125 -0.203125q-0.109375 -0.09375 -0.609375 -0.125zm-12.328125 2.21875l0 1.09375l9.4375 0l0 -1.09375l-9.4375 0zm2.40625 2.796875l-0.953125 0l0.625 6.0625q-0.75 0 -1.71875 0q-0.953125 0 -1.484375 0l0.34375 1.09375q0.0625 0.25 0.140625 0.296875q0.046875 0.015625 0.1875 -0.078125q0.15625 -0.078125 0.28125 -0.109375q0.203125 -0.078125 0.421875 -0.078125l1.0 -0.0625q2.84375 -0.125 4.484375 -0.203125q2.8125 -0.15625 4.578125 -0.25l-0.09375 -1.0l-3.0 0.15625l0.640625 -4.984375q0.015625 -0.109375 0.078125 -0.203125q0.03125 -0.0625 0.125 -0.171875q0.15625 -0.171875 0.09375 -0.234375q-0.046875 -0.09375 -0.515625 -0.171875l-0.984375 -0.09375l-0.671875 5.921875l-2.671875 0.125l-0.46875 -5.328125q-0.015625 -0.109375 0.03125 -0.21875q0.015625 -0.046875 0.0625 -0.171875q0.078125 -0.140625 0.03125 -0.203125q-0.09375 -0.0625 -0.5625 -0.09375zm16.234375 -3.234375l0 11.625q2.9375 0 5.796875 -0.28125q2.828125 -0.265625 4.828125 -0.71875l-0.109375 -1.09375q-2.171875 0.53125 -4.96875 0.796875q-2.421875 0.25 -4.34375 0.203125l0 -4.859375l6.734375 0l0 -1.0l-6.734375 0l0 -3.6875l7.109375 0l0 -0.984375l-8.3125 0zm12.578125 -1.34375l-0.875 0l0 16.625l1.25 0l0 -15.9375q0 -0.109375 0.03125 -0.21875q0.046875 -0.0625 0.09375 -0.171875q0.109375 -0.1875 0.0625 -0.21875q-0.078125 -0.078125 -0.5625 -0.078125zm9.8125 0.71875q0.046875 2.59375 -1.421875 4.9375q-1.453125 2.328125 -3.75 3.421875l0.796875 1.015625q1.90625 -1.3125 2.9375 -2.46875q1.203125 -1.375 1.8125 -3.1875q0.453125 1.625 1.609375 3.140625q1.03125 1.296875 2.375 2.265625l0.890625 -0.984375q-1.828125 -0.921875 -3.078125 -2.921875q-1.296875 -2.109375 -1.03125 -4.078125q0.015625 -0.1875 0.078125 -0.375q0.03125 -0.09375 0.109375 -0.28125q0.125 -0.265625 0.109375 -0.359375q-0.046875 -0.125 -0.359375 -0.125l-1.078125 0zm4.25 2.21875l0 1.015625l4.0625 0l0 2.140625l-4.0625 0l0 1.03125l4.0625 0l0 5.234375l1.25 0l0 -11.796875q0 -0.078125 0.015625 -0.15625q0.015625 -0.046875 0.0625 -0.125q0.09375 -0.171875 0.046875 -0.203125q-0.046875 -0.078125 -0.390625 -0.078125l-0.984375 0l0 2.9375l-4.0625 0zm-5.203125 8.03125l-0.921875 0l0 5.234375l11.828125 0l0 -1.015625l-10.59375 0l0 -3.65625q0 -0.078125 0.015625 -0.15625q0.015625 -0.046875 0.0625 -0.125q0.078125 -0.171875 0.046875 -0.203125q-0.078125 -0.078125 -0.4375 -0.078125zm19.265686 3.78125l1.25 0l0 -13.28125l-1.09375 0q-0.09375 1.375 -0.90625 2.0q-0.828125 0.640625 -2.453186 0.640625l-0.09375 0l0 0.8125l0.203125 0q1.109375 0 1.875061 -0.1875q0.765625 -0.1875 1.21875 -0.5625l0 10.578125z" fill-rule="nonzero"/><path fill="#000000" d="m763.751 236.96796l-0.890625 0q-1.53125 1.84375 -2.265625 4.03125q-0.765625 2.203125 -0.765625 4.734375q0 2.515625 0.765625 4.734375q0.734375 2.1875 2.265625 4.046875l0.890625 0q-1.4375 -1.984375 -2.109375 -4.140625q-0.640625 -2.140625 -0.640625 -4.640625q0 -2.609375 0.734375 -4.859375q0.671875 -2.046875 2.015625 -3.90625zm3.59375 1.1875l0 1.046875l9.71875 0l0 -1.046875l-9.71875 0zm2.3125 1.78125l-0.890625 0l0.578125 4.71875q-0.65625 0.015625 -1.625 0.015625q-0.875 0 -1.4375 0l0.296875 1.03125q0.09375 0.25 0.171875 0.296875q0.0625 0.015625 0.203125 -0.0625q0.125 -0.078125 0.25 -0.109375q0.171875 -0.078125 0.421875 -0.078125l1.203125 -0.046875q2.90625 -0.15625 4.5625 -0.25q2.890625 -0.171875 4.578125 -0.375l-0.078125 -1.015625l-2.53125 0.265625l-0.609375 0.0625l0.609375 -3.703125q0.015625 -0.15625 0.078125 -0.28125q0.03125 -0.078125 0.125 -0.1875q0.109375 -0.1875 0.078125 -0.21875q-0.078125 -0.0625 -0.5 -0.0625l-0.953125 0l-0.625 4.53125l-0.875 0.046875q-0.796875 0.046875 -1.171875 0.0625q-0.640625 0.046875 -0.96875 0.046875l-0.453125 -3.9375q-0.015625 -0.15625 0.015625 -0.28125q0.015625 -0.078125 0.078125 -0.203125q0.0625 -0.171875 0 -0.203125q-0.078125 -0.0625 -0.53125 -0.0625zm9.390625 -2.5l0 8.921875l1.25 0l0 -3.125l2.796875 0l0 -1.046875l-2.796875 0l0 -4.15625l0.078125 -0.203125q0.09375 -0.203125 0.046875 -0.28125q-0.046875 -0.109375 -0.4375 -0.109375l-0.9375 0zm-9.984375 9.75l0 1.015625l10.046875 0l0 1.609375l-10.046875 0l0 4.03125l11.625 0l0 -1.015625l-10.453125 0l0 -1.984375l10.0625 0l0 -3.65625l-11.234375 0zm18.671875 -8.109375l0 1.03125l10.25 0l0 2.640625l-10.15625 0l0 4.75l5.140625 0l0 3.265625l-7.421875 0l0 1.03125l16.15625 0l0 -1.03125l-7.453125 0l0 -3.265625l5.34375 0l0 -0.984375l-10.546875 0l0 -2.828125l10.140625 0l0 -4.609375l-11.453125 0zm22.28125 0.265625q1.296875 0 2.0625 0.671875q0.6875 0.5625 0.6875 1.4375q0 0.828125 -0.6875 1.421875q-0.765625 0.65625 -2.0625 0.65625q-1.3125 0 -2.09375 -0.65625q-0.6875 -0.59375 -0.6875 -1.421875q0 -0.875 0.6875 -1.4375q0.78125 -0.671875 2.09375 -0.671875zm0 -0.9375q-1.9375 0 -3.078125 0.921875q-1.03125 0.875 -1.03125 2.140625q0 1.234375 1.03125 2.09375q1.140625 0.96875 3.078125 0.96875q1.921875 0 3.046875 -0.96875q1.015625 -0.859375 1.015625 -2.09375q0 -1.265625 -1.015625 -2.140625q-1.125 -0.921875 -3.046875 -0.921875zm-5.6875 7.8125l0.21875 1.0625q0.0625 0.21875 0.109375 0.25q0.03125 0.015625 0.1875 -0.046875q0.125 -0.078125 0.21875 -0.125q0.1875 -0.0625 0.4375 -0.078125l3.921875 -0.1875l0 5.828125l1.25 0l0 -5.921875q0.8125 -0.046875 2.28125 -0.15625q1.375 -0.09375 2.46875 -0.15625l-0.09375 -1.015625q-2.375 0.234375 -5.890625 0.390625q-3.140625 0.15625 -5.109375 0.15625zm13.75 -9.0l-0.890625 0l0 11.46875l-3.640625 0l0 1.03125l3.640625 0l0 3.859375l1.25 0l0 -15.65625q0 -0.109375 0.0625 -0.21875q0.015625 -0.0625 0.109375 -0.15625q0.109375 -0.15625 0.0625 -0.21875q-0.09375 -0.0625 -0.59375 -0.109375zm5.078186 -0.25q1.40625 1.953125 2.09375 4.109375q0.671875 2.125 0.671875 4.65625q0 2.5 -0.671875 4.640625q-0.6875 2.15625 -2.09375 4.140625l0.921875 0q1.484375 -1.859375 2.25 -4.046875q0.765625 -2.21875 0.765625 -4.734375q0 -2.53125 -0.765625 -4.734375q-0.765625 -2.1875 -2.25 -4.03125l-0.921875 0z" fill-rule="nonzero"/></g><path fill="#000000" fill-opacity="0.0" d="m737.06995 77.52698l112.787415 0l0 42.008224l-112.787415 0z" fill-rule="evenodd"/><path fill="#000000" d="m789.88556 90.36885l-10.375 0q-0.890625 0 -1.375 0.484375q-0.4375 0.453125 -0.4375 1.1875l0 5.640625q0 0.734375 0.453125 1.15625q0.46875 0.4375 1.296875 0.4375l10.515625 0q0.21875 0 0.34375 -0.15625q0.125 -0.140625 0.109375 -0.328125q0 -0.1875 -0.125 -0.34375q-0.15625 -0.125 -0.390625 -0.125l-10.28125 0q-0.4375 0 -0.625 -0.1875q-0.1875 -0.15625 -0.1875 -0.546875l0 -2.421875l10.890625 0q0.53125 0 0.53125 -0.484375q0 -0.453125 -0.53125 -0.453125l-10.890625 0l0 -2.0625q0 -0.453125 0.203125 -0.65625q0.21875 -0.1875 0.703125 -0.1875l10.25 0q0.21875 0 0.34375 -0.15625q0.125 -0.140625 0.109375 -0.3125q0 -0.21875 -0.125 -0.34375q-0.171875 -0.140625 -0.40625 -0.140625zm-6.4375 9.171875l0 3.625l-6.6875 0q-0.25 0 -0.40625 0.125q-0.125 0.15625 -0.140625 0.34375q-0.03125 0.1875 0.09375 0.328125q0.109375 0.15625 0.3125 0.15625l14.5625 0q0.234375 0 0.390625 -0.15625q0.140625 -0.140625 0.140625 -0.328125q0 -0.1875 -0.140625 -0.34375q-0.15625 -0.125 -0.40625 -0.125l-6.640625 0l0 -3.546875q0 -0.25 -0.1875 -0.40625q-0.15625 -0.140625 -0.359375 -0.140625q-0.21875 -0.03125 -0.375 0.109375q-0.15625 0.125 -0.15625 0.359375zm21.1875 -9.234375l-8.40625 0q-0.515625 0 -0.515625 0.46875q0 0.484375 0.515625 0.484375l8.40625 0q0.53125 0 0.53125 -0.484375q0 -0.46875 -0.53125 -0.46875zm-7.328125 2.25q0 0.90625 0.140625 2.265625q0.15625 1.21875 0.390625 2.484375l-2.109375 0.015625q-0.546875 0 -0.546875 0.4375q0 0.46875 0.546875 0.46875q3.0 0 5.546875 -0.234375q2.78125 -0.25 4.359375 -0.703125q0.234375 -0.0625 0.359375 -0.25q0.109375 -0.171875 0.0625 -0.34375q-0.03125 -0.203125 -0.203125 -0.296875q-0.1875 -0.125 -0.4375 -0.03125q-0.40625 0.125 -0.953125 0.234375q-0.328125 0.0625 -1.078125 0.203125l-0.296875 0.0625q0.203125 -1.015625 0.34375 -2.140625q0.15625 -1.265625 0.15625 -2.21875q0 -0.5 -0.53125 -0.5q-0.515625 0 -0.515625 0.5q0 0.953125 -0.140625 2.21875q-0.140625 1.296875 -0.34375 2.3125q-0.765625 0.078125 -1.640625 0.125q-0.859375 0.078125 -1.5 0.09375q-0.234375 -1.140625 -0.390625 -2.609375q-0.109375 -1.265625 -0.109375 -2.09375q0 -0.5 -0.5625 -0.5q-0.546875 0 -0.546875 0.5zm11.625 5.203125l0 -7.390625q0 -0.25 -0.171875 -0.375q-0.15625 -0.125 -0.375 -0.125q-0.25 0 -0.390625 0.125q-0.171875 0.140625 -0.171875 0.390625l0 7.375q0 0.265625 0.171875 0.4375q0.140625 0.140625 0.390625 0.140625q0.21875 0 0.375 -0.140625q0.171875 -0.171875 0.171875 -0.4375zm-1.78125 2.4375l-10.15625 0q-0.53125 0 -0.5 0.484375q0 0.484375 0.5 0.484375l10.0625 0q0.421875 0 0.59375 0.15625q0.171875 0.15625 0.171875 0.515625l0 3.0q0 0.265625 0.171875 0.421875q0.140625 0.140625 0.390625 0.140625q0.21875 0 0.375 -0.140625q0.171875 -0.15625 0.171875 -0.421875l0 -3.046875q0 -0.734375 -0.453125 -1.171875q-0.46875 -0.421875 -1.328125 -0.421875z" fill-rule="nonzero"/></g></svg>