<svg version="1.1" viewBox="0.0 0.0 960.0 540.0" fill="none" stroke="none" stroke-linecap="square" stroke-miterlimit="10" xmlns:xlink="http://www.w3.org/1999/xlink" xmlns="http://www.w3.org/2000/svg"><clipPath id="g11ddf0a0acf_1_267.0"><path d="m0 0l960.0 0l0 540.0l-960.0 0l0 -540.0z" clip-rule="nonzero"/></clipPath><g clip-path="url(#g11ddf0a0acf_1_267.0)"><path fill="#ffffff" d="m0 0l960.0 0l0 540.0l-960.0 0z" fill-rule="evenodd"/><g filter="url(#shadowFilter-g11ddf0a0acf_1_267.1)"><use xlink:href="#g11ddf0a0acf_1_267.1" transform="matrix(1.0 0.0 0.0 1.0 0.0 2.0)"/></g><defs><filter id="shadowFilter-g11ddf0a0acf_1_267.1" filterUnits="userSpaceOnUse"><feGaussianBlur in="SourceAlpha" stdDeviation="2.0" result="blur"/><feComponentTransfer in="blur" color-interpolation-filters="sRGB"><feFuncR type="linear" slope="0" intercept="0.0"/><feFuncG type="linear" slope="0" intercept="0.0"/><feFuncB type="linear" slope="0" intercept="0.0"/><feFuncA type="linear" slope="0.5" intercept="0"/></feComponentTransfer></filter></defs><g id="g11ddf0a0acf_1_267.1"><path fill="#b7b7b7" d="m133.27296 31.464567l279.65356 0l0 477.07086l-279.65356 0z" fill-rule="evenodd"/><path stroke="#595959" stroke-width="1.0" stroke-linejoin="round" stroke-linecap="butt" d="m133.27296 31.464567l279.65356 0l0 477.07086l-279.65356 0z" fill-rule="evenodd"/></g><path fill="#000000" fill-opacity="0.0" d="m167.7182 459.17322l203.40158 0l0 42.015747l-203.40158 0z" fill-rule="evenodd"/><path fill="#000000" d="m195.93881 477.85886l0 5.921875q0 0.375 -0.25 0.546875q-0.21875 0.1875 -0.640625 0.1875l-2.375 0q-0.40625 0 -0.578125 -0.171875q-0.1875 -0.15625 -0.1875 -0.5625l0 -5.921875l4.03125 0zm0 -5.359375l0 4.40625l-4.03125 0l0 -4.328125q0 -0.296875 -0.1875 -0.453125q-0.140625 -0.15625 -0.359375 -0.15625q-0.234375 0 -0.375 0.171875q-0.171875 0.171875 -0.171875 0.46875l0 11.34375q0 0.6875 0.453125 1.125q0.421875 0.390625 1.125 0.390625l2.953125 0q0.71875 0 1.203125 -0.4375q0.484375 -0.40625 0.484375 -1.078125l0 -11.4375q0 -0.265625 -0.1875 -0.40625q-0.140625 -0.140625 -0.375 -0.140625q-0.21875 0 -0.359375 0.140625q-0.171875 0.125 -0.171875 0.390625zm7.203125 -0.515625l0 6.90625l-2.640625 0l0 -6.90625q0 -0.46875 -0.5625 -0.46875q-0.53125 0 -0.53125 0.46875l0 14.5q0 0.265625 0.171875 0.421875q0.140625 0.140625 0.359375 0.140625q0.234375 0 0.375 -0.140625q0.1875 -0.15625 0.1875 -0.421875l0 -6.6875l2.640625 0l0 6.71875q0 0.25 0.15625 0.390625q0.15625 0.140625 0.375 0.140625q0.203125 0 0.359375 -0.15625q0.171875 -0.140625 0.171875 -0.390625l0 -14.515625q0 -0.46875 -0.53125 -0.46875q-0.53125 0 -0.53125 0.46875zm13.765625 -0.015625l-4.75 0q-0.546875 0 -0.546875 0.46875q0 0.484375 0.546875 0.484375l4.8125 0q0.453125 0 0.4375 -0.484375q-0.015625 -0.46875 -0.5 -0.46875zm1.84375 2.640625l-8.421875 0q-0.515625 0 -0.515625 0.46875q-0.015625 0.46875 0.5 0.46875l3.671875 0l0 1.953125q0 2.5 -1.3125 4.5q-1.171875 1.75 -3.046875 2.703125q-0.234375 0.109375 -0.296875 0.3125q-0.046875 0.203125 0.0625 0.390625q0.109375 0.1875 0.296875 0.265625q0.21875 0.0625 0.4375 -0.046875q1.5625 -0.78125 2.78125 -2.1875q1.171875 -1.390625 1.625 -2.890625q0.40625 1.53125 1.46875 2.8125q1.125 1.375 2.84375 2.265625q0.28125 0.140625 0.53125 0.0625q0.21875 -0.078125 0.3125 -0.28125q0.109375 -0.203125 0.046875 -0.40625q-0.0625 -0.21875 -0.3125 -0.3125q-1.859375 -0.796875 -3.046875 -2.640625q-1.296875 -2.015625 -1.296875 -4.546875l0 -1.953125l3.671875 0q0.46875 0 0.46875 -0.46875q0 -0.46875 -0.46875 -0.46875zm3.953125 11.859375l0 -14.4375q0 -0.25 -0.171875 -0.390625q-0.15625 -0.109375 -0.375 -0.109375q-0.25 0 -0.390625 0.109375q-0.171875 0.140625 -0.171875 0.390625l0 14.4375q0 0.25 0.171875 0.421875q0.140625 0.15625 0.390625 0.15625q0.21875 0 0.375 -0.15625q0.171875 -0.171875 0.171875 -0.421875z" fill-rule="nonzero"/><path fill="#000000" d="m240.18462 472.0776l-4.390625 0q-0.828125 0 -1.328125 0.484375q-0.46875 0.484375 -0.46875 1.25l0 9.6875q0 0.90625 0.46875 1.40625q0.515625 0.5625 1.53125 0.5625q1.46875 0 2.671875 -0.1875q1.421875 -0.234375 2.71875 -0.734375q0.234375 -0.109375 0.328125 -0.3125q0.078125 -0.203125 0 -0.40625q-0.078125 -0.203125 -0.265625 -0.28125q-0.203125 -0.109375 -0.4375 0.015625q-1.078125 0.515625 -2.4375 0.75q-1.15625 0.203125 -2.578125 0.203125q-0.515625 0 -0.71875 -0.28125q-0.1875 -0.234375 -0.1875 -0.796875l0 -9.640625q0 -0.390625 0.171875 -0.578125q0.171875 -0.1875 0.546875 -0.1875l4.34375 0q0.5625 0 0.5625 -0.484375q0.015625 -0.46875 -0.53125 -0.46875zm3.78125 14.390625l0 -14.453125q0 -0.25 -0.1875 -0.375q-0.15625 -0.125 -0.375 -0.125q-0.21875 0 -0.375 0.125q-0.15625 0.140625 -0.15625 0.390625l0 5.765625l-3.453125 0q-0.265625 0 -0.40625 0.125q-0.140625 0.15625 -0.109375 0.34375q0 0.1875 0.140625 0.328125q0.171875 0.15625 0.46875 0.15625l3.359375 0l0 7.71875q0 0.25 0.15625 0.421875q0.15625 0.15625 0.375 0.15625q0.21875 0 0.375 -0.15625q0.1875 -0.171875 0.1875 -0.421875zm3.421875 0l0 -14.453125q0 -0.25 -0.171875 -0.375q-0.15625 -0.125 -0.359375 -0.125q-0.21875 0 -0.375 0.125q-0.15625 0.140625 -0.15625 0.390625l0 14.4375q0 0.25 0.15625 0.421875q0.15625 0.15625 0.375 0.15625q0.203125 0 0.359375 -0.15625q0.171875 -0.171875 0.171875 -0.421875zm9.656235 -14.484375q-2.0468597 0 -3.2031097 2.0625q-1.0625 1.890625 -1.0625 4.75q0 2.828125 1.0625 4.703125q1.15625 2.078125 3.2031097 2.078125q2.0 0 3.15625 -2.078125q1.0625 -1.875 1.0625 -4.703125q0 -2.859375 -1.0625 -4.75q-1.15625 -2.0625 -3.15625 -2.0625zm0 0.953125q1.484375 0 2.34375 1.765625q0.765625 1.609375 0.765625 4.09375q0 2.4375 -0.765625 4.0625q-0.859375 1.78125 -2.34375 1.78125q-1.5156097 0 -2.3749847 -1.78125q-0.78125 -1.625 -0.78125 -4.0625q0 -2.484375 0.78125 -4.09375q0.859375 -1.765625 2.3749847 -1.765625zm8.84375 13.53125l0 -14.4375q0 -0.25 -0.171875 -0.390625q-0.15625 -0.109375 -0.375 -0.109375q-0.25 0 -0.390625 0.109375q-0.171875 0.140625 -0.171875 0.390625l0 14.4375q0 0.25 0.171875 0.421875q0.140625 0.15625 0.390625 0.15625q0.21875 0 0.375 -0.15625q0.171875 -0.171875 0.171875 -0.421875zm13.53125 -14.390625l-5.53125 0q-0.9375 0 -1.4375 0.5625q-0.453125 0.484375 -0.453125 1.25l0 9.859375q0 0.875 0.390625 1.34375q0.453125 0.53125 1.375 0.53125q2.34375 0 4.25 -0.25q1.96875 -0.265625 3.21875 -0.75q0.546875 -0.234375 0.359375 -0.6875q-0.171875 -0.4375 -0.703125 -0.234375q-1.34375 0.5 -3.078125 0.734375q-1.734375 0.25 -4.03125 0.25q-0.375 0 -0.53125 -0.265625q-0.15625 -0.203125 -0.15625 -0.625l0 -5.03125l5.71875 0q0.53125 0 0.53125 -0.484375q0 -0.46875 -0.53125 -0.46875l-5.71875 0l0 -3.921875q0 -0.421875 0.171875 -0.640625q0.203125 -0.21875 0.609375 -0.21875l5.578125 0q0.28125 0 0.453125 -0.15625q0.140625 -0.140625 0.140625 -0.328125q-0.015625 -0.1875 -0.15625 -0.328125q-0.1875 -0.140625 -0.46875 -0.140625zm5.46875 14.3125l0 -14.3125q0 -0.265625 -0.171875 -0.421875q-0.15625 -0.125 -0.375 -0.125q-0.25 0 -0.390625 0.125q-0.171875 0.15625 -0.171875 0.421875l0 6.078125l-3.171875 0q-0.265625 0 -0.390625 0.125q-0.125 0.15625 -0.125 0.328125q0.015625 0.1875 0.171875 0.34375q0.15625 0.140625 0.4375 0.140625l3.078125 0l0 7.296875q0 0.3125 0.171875 0.5q0.140625 0.171875 0.390625 0.171875q0.21875 0 0.375 -0.171875q0.171875 -0.203125 0.171875 -0.5z" fill-rule="nonzero"/><path fill="#000000" d="m302.57104 472.31198q0 2.875 -1.984375 4.90625q-1.71875 1.765625 -4.015625 2.234375q-0.296875 0.046875 -0.421875 0.234375q-0.140625 0.15625 -0.109375 0.359375q0.03125 0.1875 0.203125 0.296875q0.1875 0.109375 0.453125 0.078125q2.25 -0.453125 4.09375 -2.140625q1.75 -1.578125 2.3125 -3.453125q0.59375 1.859375 2.3125 3.453125q1.828125 1.671875 3.984375 2.109375q0.3125 0.0625 0.53125 -0.046875q0.1875 -0.109375 0.21875 -0.3125q0.0625 -0.203125 -0.0625 -0.375q-0.15625 -0.1875 -0.4375 -0.25q-2.421875 -0.5 -4.09375 -2.21875q-1.921875 -1.984375 -1.921875 -4.84375q0 -0.296875 -0.171875 -0.484375q-0.15625 -0.140625 -0.359375 -0.140625q-0.21875 0 -0.375 0.140625q-0.15625 0.171875 -0.15625 0.453125zm7.734375 12.5l-14.40625 0q-0.546875 0 -0.546875 0.46875q0 0.484375 0.546875 0.484375l14.421875 0q0.234375 0 0.390625 -0.15625q0.140625 -0.140625 0.140625 -0.328125q0 -0.1875 -0.140625 -0.34375q-0.15625 -0.125 -0.40625 -0.125zm4.875 -12.359375l0 5.15625q0 0.890625 0.515625 1.421875q0.53125 0.53125 1.421875 0.53125q1.296875 0 2.546875 -0.109375q1.75 -0.15625 2.953125 -0.453125q0.546875 -0.21875 0.4375 -0.6875q-0.125 -0.453125 -0.671875 -0.265625q-1.140625 0.34375 -2.796875 0.5q-1.140625 0.109375 -2.34375 0.109375q-0.484375 0 -0.71875 -0.265625q-0.25 -0.25 -0.25 -0.78125l0 -5.171875q0 -0.265625 -0.1875 -0.40625q-0.140625 -0.125 -0.359375 -0.125q-0.234375 0 -0.375 0.140625q-0.171875 0.15625 -0.171875 0.40625zm12.328125 -0.40625l0 4.09375l-2.671875 0l0 -4.15625q0 -0.46875 -0.5625 -0.46875q-0.53125 0 -0.53125 0.46875l0 7.390625q0 0.28125 0.15625 0.46875q0.15625 0.140625 0.375 0.140625q0.21875 0 0.375 -0.140625q0.1875 -0.1875 0.1875 -0.46875l0 -2.265625l2.671875 0l0 2.265625q0 0.28125 0.15625 0.46875q0.15625 0.140625 0.375 0.140625q0.203125 0 0.359375 -0.140625q0.171875 -0.1875 0.171875 -0.46875l0 -7.3125q0 -0.53125 -0.53125 -0.53125q-0.53125 0 -0.53125 0.515625zm0 9.375l0 1.140625l-10.34375 0l0 -1.140625q0 -0.265625 -0.1875 -0.40625q-0.140625 -0.140625 -0.359375 -0.140625q-0.234375 0 -0.375 0.140625q-0.171875 0.140625 -0.171875 0.40625l0 3.8125q0 0.59375 0.359375 0.96875q0.359375 0.390625 1.0 0.390625l9.703125 0q0.6875 0 1.078125 -0.390625q0.359375 -0.34375 0.359375 -0.921875l0 -3.859375q0 -0.265625 -0.171875 -0.40625q-0.15625 -0.140625 -0.359375 -0.140625q-0.21875 0 -0.375 0.140625q-0.15625 0.140625 -0.15625 0.40625zm0 2.09375l0 1.515625q0 0.34375 -0.171875 0.46875q-0.15625 0.140625 -0.546875 0.140625l-8.9375 0q-0.375 0 -0.53125 -0.15625q-0.15625 -0.15625 -0.15625 -0.46875l0 -1.5l10.34375 0zm10.25 -11.15625q0 1.5625 -0.9375 3.453125q-1.15625 2.296875 -3.109375 3.640625q-0.25 0.171875 -0.296875 0.390625q-0.03125 0.21875 0.09375 0.390625q0.109375 0.1875 0.328125 0.203125q0.21875 0.03125 0.4375 -0.109375q1.40625 -1.09375 2.296875 -2.21875q0.78125 -0.953125 1.5 -2.46875q1.3125 0.96875 2.265625 1.9375q1.0 1.0 1.890625 2.203125q0.171875 0.21875 0.421875 0.265625q0.203125 0.03125 0.390625 -0.09375q0.15625 -0.125 0.203125 -0.328125q0.015625 -0.25 -0.15625 -0.484375q-1.03125 -1.359375 -2.0 -2.28125q-1.046875 -0.984375 -2.671875 -2.15625q0.203125 -0.640625 0.296875 -1.09375q0.140625 -0.65625 0.140625 -1.25q0 -0.28125 -0.1875 -0.421875q-0.140625 -0.125 -0.359375 -0.125q-0.234375 0 -0.375 0.125q-0.171875 0.140625 -0.171875 0.421875zm8.78125 1.9375l0 -2.3125q0 -0.46875 -0.5625 -0.46875q-0.53125 0 -0.53125 0.5l0 8.515625q0 0.25 0.171875 0.421875q0.140625 0.15625 0.359375 0.15625q0.234375 0 0.375 -0.140625q0.1875 -0.15625 0.1875 -0.421875l0 -1.703125l2.09375 0q0.421875 0 0.421875 -0.484375q-0.015625 -0.484375 -0.453125 -0.484375l-2.0625 0l0 -2.625l2.0625 0q0.203125 0 0.328125 -0.15625q0.109375 -0.140625 0.109375 -0.3125q-0.015625 -0.203125 -0.140625 -0.34375q-0.140625 -0.140625 -0.375 -0.140625l-1.984375 0zm-6.140625 7.328125q0 1.828125 -1.671875 3.09375q-1.5625 1.203125 -3.828125 1.375q-0.265625 0 -0.421875 0.171875q-0.125 0.140625 -0.109375 0.34375q0.015625 0.203125 0.1875 0.34375q0.171875 0.140625 0.4375 0.125q2.125 -0.1875 3.8125 -1.21875q1.515625 -0.953125 2.125 -2.203125q0.578125 1.25 2.078125 2.203125q1.671875 1.03125 3.8125 1.21875q0.28125 0.015625 0.453125 -0.125q0.171875 -0.140625 0.1875 -0.34375q0.03125 -0.203125 -0.125 -0.34375q-0.171875 -0.171875 -0.46875 -0.171875q-2.265625 -0.171875 -3.796875 -1.375q-1.640625 -1.265625 -1.640625 -3.09375q0 -0.28125 -0.15625 -0.453125q-0.15625 -0.140625 -0.359375 -0.140625q-0.21875 0 -0.375 0.140625q-0.140625 0.171875 -0.140625 0.453125z" fill-rule="nonzero"/><path fill="#000000" fill-opacity="0.0" d="m269.77692 106.32809l0 54.299217" fill-rule="evenodd"/><path stroke="#595959" stroke-width="3.0" stroke-linejoin="round" stroke-linecap="butt" d="m269.77692 106.32809l0 36.299217" fill-rule="evenodd"/><path fill="#595959" stroke="#595959" stroke-width="3.0" stroke-linecap="butt" d="m264.82172 142.6273l4.9552 13.614288l4.9551697 -13.614288z" fill-rule="evenodd"/><path shape-rendering="crispEdges" fill="#eeeeee" d="m151.79527 176.27559l117.62468 0l0 46.055115l-117.62468 0l0 -46.055115z" fill-rule="nonzero"/><path shape-rendering="crispEdges" fill="#eeeeee" d="m269.41995 176.27559l117.624664 0l0 46.055115l-117.624664 0l0 -46.055115z" fill-rule="nonzero"/><path shape-rendering="crispEdges" fill="#eeeeee" d="m151.79527 222.3307l117.62468 0l0 46.05513l-117.62468 0l0 -46.05513z" fill-rule="nonzero"/><path shape-rendering="crispEdges" fill="#eeeeee" d="m269.41995 222.3307l117.624664 0l0 46.05513l-117.624664 0l0 -46.05513z" fill-rule="nonzero"/><path stroke="#000000" stroke-width="1.0" stroke-linecap="butt" d="m151.79527 175.7769l0 93.10762" fill-rule="nonzero"/><path stroke="#000000" stroke-width="1.0" stroke-linecap="butt" d="m269.41995 175.7769l0 93.10762" fill-rule="nonzero"/><path stroke="#000000" stroke-width="1.0" stroke-linecap="butt" d="m387.04462 175.7769l0 93.10762" fill-rule="nonzero"/><path stroke="#000000" stroke-width="1.0" stroke-linecap="butt" d="m151.29659 176.27559l236.24672 0" fill-rule="nonzero"/><path stroke="#000000" stroke-width="1.0" stroke-linecap="butt" d="m151.29659 222.3307l236.24672 0" fill-rule="nonzero"/><path stroke="#000000" stroke-width="1.0" stroke-linecap="butt" d="m151.29659 268.38583l236.24672 0" fill-rule="nonzero"/><path fill="#000000" d="m192.78145 201.72627l1.65625 -0.140625q0.125 1.0 0.546875 1.640625q0.4375 0.640625 1.34375 1.046875q0.921875 0.390625 2.0625 0.390625q1.0 0 1.78125 -0.296875q0.78125 -0.296875 1.15625 -0.8125q0.375 -0.53125 0.375 -1.15625q0 -0.625 -0.375 -1.09375q-0.359375 -0.46875 -1.1875 -0.796875q-0.546875 -0.203125 -2.390625 -0.640625q-1.828125 -0.453125 -2.5625 -0.84375q-0.96875 -0.5 -1.4375 -1.234375q-0.46875 -0.75 -0.46875 -1.671875q0 -1.0 0.578125 -1.875q0.578125 -0.890625 1.671875 -1.34375q1.109375 -0.453125 2.453125 -0.453125q1.484375 0 2.609375 0.484375q1.140625 0.46875 1.75 1.40625q0.609375 0.921875 0.65625 2.09375l-1.6875 0.125q-0.140625 -1.265625 -0.9375 -1.90625q-0.78125 -0.65625 -2.3125 -0.65625q-1.609375 0 -2.34375 0.59375q-0.734375 0.59375 -0.734375 1.421875q0 0.71875 0.53125 1.171875q0.5 0.46875 2.65625 0.96875q2.15625 0.484375 2.953125 0.84375q1.171875 0.53125 1.71875 1.359375q0.5625 0.828125 0.5625 1.90625q0 1.0625 -0.609375 2.015625q-0.609375 0.9375 -1.75 1.46875q-1.140625 0.515625 -2.578125 0.515625q-1.8125 0 -3.046875 -0.53125q-1.21875 -0.53125 -1.921875 -1.59375q-0.6875 -1.0625 -0.71875 -2.40625zm19.459198 1.1875l1.6875 0.203125q-0.40625 1.484375 -1.484375 2.3125q-1.078125 0.8125 -2.765625 0.8125q-2.125 0 -3.375 -1.296875q-1.234375 -1.3125 -1.234375 -3.671875q0 -2.453125 1.25 -3.796875q1.265625 -1.34375 3.265625 -1.34375q1.9375 0 3.15625 1.328125q1.234375 1.3125 1.234375 3.703125q0 0.15625 0 0.4375l-7.21875 0q0.09375 1.59375 0.90625 2.453125q0.8125 0.84375 2.015625 0.84375q0.90625 0 1.546875 -0.46875q0.640625 -0.484375 1.015625 -1.515625zm-5.390625 -2.65625l5.40625 0q-0.109375 -1.21875 -0.625 -1.828125q-0.78125 -0.953125 -2.03125 -0.953125q-1.125 0 -1.90625 0.765625q-0.765625 0.75 -0.84375 2.015625zm15.469467 5.765625l0 -1.421875q-1.125 1.640625 -3.0625 1.640625q-0.859375 0 -1.609375 -0.328125q-0.734375 -0.328125 -1.09375 -0.828125q-0.359375 -0.5 -0.5 -1.21875q-0.109375 -0.46875 -0.109375 -1.53125l0 -5.984375l1.640625 0l0 5.359375q0 1.28125 0.109375 1.734375q0.15625 0.640625 0.65625 1.015625q0.5 0.375 1.234375 0.375q0.734375 0 1.375 -0.375q0.65625 -0.390625 0.921875 -1.03125q0.265625 -0.65625 0.265625 -1.890625l0 -5.1875l1.640625 0l0 9.671875l-1.46875 0zm4.000717 0l0 -13.359375l1.640625 0l0 13.359375l-1.640625 0z" fill-rule="nonzero"/><path fill="#000000" d="m318.63782 202.4919l1.640625 -0.21875q0.28125 1.40625 0.953125 2.015625q0.6875 0.609375 1.65625 0.609375q1.15625 0 1.953125 -0.796875q0.796875 -0.796875 0.796875 -1.984375q0 -1.125 -0.734375 -1.859375q-0.734375 -0.734375 -1.875 -0.734375q-0.46875 0 -1.15625 0.171875l0.1875 -1.4375q0.15625 0.015625 0.265625 0.015625q1.046875 0 1.875 -0.546875q0.84375 -0.546875 0.84375 -1.671875q0 -0.90625 -0.609375 -1.5q-0.609375 -0.59375 -1.578125 -0.59375q-0.953125 0 -1.59375 0.609375q-0.640625 0.59375 -0.8125 1.796875l-1.640625 -0.296875q0.296875 -1.640625 1.359375 -2.546875q1.0625 -0.90625 2.65625 -0.90625q1.09375 0 2.0 0.46875q0.921875 0.46875 1.40625 1.28125q0.5 0.8125 0.5 1.71875q0 0.859375 -0.46875 1.578125q-0.46875 0.703125 -1.375 1.125q1.1875 0.28125 1.84375 1.140625q0.65625 0.859375 0.65625 2.15625q0 1.734375 -1.28125 2.953125q-1.265625 1.21875 -3.21875 1.21875q-1.765625 0 -2.921875 -1.046875q-1.15625 -1.046875 -1.328125 -2.71875zm10.375702 -3.0625q0 -2.359375 0.484375 -3.796875q0.484375 -1.453125 1.4375 -2.234375q0.96875 -0.78125 2.421875 -0.78125q1.078125 0 1.890625 0.4375q0.8125 0.421875 1.328125 1.25q0.53125 0.8125 0.828125 1.984375q0.3125 1.15625 0.3125 3.140625q0 2.359375 -0.484375 3.8125q-0.484375 1.4375 -1.453125 2.234375q-0.953125 0.78125 -2.421875 0.78125q-1.921875 0 -3.03125 -1.390625q-1.3125 -1.671875 -1.3125 -5.4375zm1.671875 0q0 3.296875 0.765625 4.390625q0.78125 1.078125 1.90625 1.078125q1.140625 0 1.90625 -1.09375q0.765625 -1.09375 0.765625 -4.375q0 -3.296875 -0.765625 -4.375q-0.765625 -1.078125 -1.921875 -1.078125q-1.125 0 -1.796875 0.953125q-0.859375 1.21875 -0.859375 4.5z" fill-rule="nonzero"/><path fill="#000000" d="m194.02667 248.28139l1.59375 -0.21875q0.078125 1.53125 0.578125 2.109375q0.515625 0.5625 1.421875 0.5625q0.65625 0 1.140625 -0.296875q0.484375 -0.3125 0.65625 -0.828125q0.1875 -0.53125 0.1875 -1.6875l0 -9.203125l1.765625 0l0 9.109375q0 1.671875 -0.40625 2.59375q-0.40625 0.921875 -1.28125 1.40625q-0.875 0.484375 -2.0625 0.484375q-1.75 0 -2.6875 -1.015625q-0.9375 -1.015625 -0.90625 -3.015625zm16.65625 0.6875l1.6875 0.203125q-0.40625 1.484375 -1.484375 2.3125q-1.078125 0.8125 -2.765625 0.8125q-2.125 0 -3.375 -1.296875q-1.234375 -1.3125 -1.234375 -3.671875q0 -2.453125 1.25 -3.796875q1.265625 -1.34375 3.265625 -1.34375q1.9375 0 3.15625 1.328125q1.234375 1.3125 1.234375 3.703125q0 0.15625 0 0.4375l-7.21875 0q0.09375 1.59375 0.90625 2.453125q0.8125 0.84375 2.015625 0.84375q0.90625 0 1.546875 -0.46875q0.640625 -0.484375 1.015625 -1.515625zm-5.390625 -2.65625l5.40625 0q-0.109375 -1.21875 -0.625 -1.828125q-0.78125 -0.953125 -2.03125 -0.953125q-1.125 0 -1.90625 0.765625q-0.765625 0.75 -0.84375 2.015625zm9.125717 -5.6875l0 -1.90625l1.640625 0l0 1.90625l-1.640625 0zm-2.078125 15.203125l0.3125 -1.390625q0.5 0.125 0.78125 0.125q0.5 0 0.734375 -0.328125q0.25 -0.328125 0.25 -1.671875l0 -10.15625l1.640625 0l0 10.203125q0 1.78125 -0.46875 2.484375q-0.59375 0.90626526 -1.96875 0.90626526q-0.65625 0 -1.28125 -0.17189026zm12.566696 -3.75l0 -1.421875q-1.125 1.640625 -3.0625 1.640625q-0.859375 0 -1.609375 -0.328125q-0.734375 -0.328125 -1.09375 -0.828125q-0.359375 -0.5 -0.5 -1.21875q-0.109375 -0.46875 -0.109375 -1.53125l0 -5.984375l1.640625 0l0 5.359375q0 1.28125 0.109375 1.734375q0.15625 0.640625 0.65625 1.015625q0.5 0.375 1.234375 0.375q0.734375 0 1.375 -0.375q0.65625 -0.390625 0.921875 -1.03125q0.265625 -0.65625 0.265625 -1.890625l0 -5.1875l1.640625 0l0 9.671875l-1.46875 0z" fill-rule="nonzero"/><path fill="#000000" d="m327.2472 250.50014l0 1.578125l-8.828125 0q-0.015625 -0.59375 0.1875 -1.140625q0.34375 -0.90625 1.078125 -1.78125q0.75 -0.875 2.15625 -2.015625q2.171875 -1.78125 2.9375 -2.828125q0.765625 -1.046875 0.765625 -1.96875q0 -0.984375 -0.703125 -1.640625q-0.6875 -0.671875 -1.8125 -0.671875q-1.1875 0 -1.90625 0.71875q-0.703125 0.703125 -0.703125 1.953125l-1.6875 -0.171875q0.171875 -1.890625 1.296875 -2.875q1.140625 -0.984375 3.03125 -0.984375q1.921875 0 3.046875 1.0625q1.125 1.0625 1.125 2.640625q0 0.796875 -0.328125 1.578125q-0.328125 0.78125 -1.09375 1.640625q-0.75 0.84375 -2.53125 2.34375q-1.46875 1.234375 -1.890625 1.6875q-0.421875 0.4375 -0.6875 0.875l6.546875 0zm1.7663269 -1.921875l1.71875 -0.140625q0.1875 1.25 0.875 1.890625q0.703125 0.625 1.6875 0.625q1.1875 0 2.0 -0.890625q0.828125 -0.890625 0.828125 -2.359375q0 -1.40625 -0.796875 -2.21875q-0.78125 -0.8125 -2.0625 -0.8125q-0.78125 0 -1.421875 0.359375q-0.640625 0.359375 -1.0 0.9375l-1.546875 -0.203125l1.296875 -6.859375l6.640625 0l0 1.5625l-5.328125 0l-0.71875 3.59375q1.203125 -0.84375 2.515625 -0.84375q1.75 0 2.953125 1.21875q1.203125 1.203125 1.203125 3.109375q0 1.8125 -1.046875 3.140625q-1.296875 1.625 -3.515625 1.625q-1.8125 0 -2.96875 -1.015625q-1.15625 -1.03125 -1.3125 -2.71875z" fill-rule="nonzero"/><path shape-rendering="crispEdges" fill="#eeeeee" d="m151.79527 52.14173l117.62468 0l0 46.055122l-117.62468 0l0 -46.055122z" fill-rule="nonzero"/><path shape-rendering="crispEdges" fill="#eeeeee" d="m269.41995 52.14173l117.624664 0l0 46.055122l-117.624664 0l0 -46.055122z" fill-rule="nonzero"/><path stroke="#000000" stroke-width="1.0" stroke-linecap="butt" d="m151.79527 51.643044l0 47.052498" fill-rule="nonzero"/><path stroke="#000000" stroke-width="1.0" stroke-linecap="butt" d="m269.41995 51.643044l0 47.052498" fill-rule="nonzero"/><path stroke="#000000" stroke-width="1.0" stroke-linecap="butt" d="m387.04462 51.643044l0 47.052498" fill-rule="nonzero"/><path stroke="#000000" stroke-width="1.0" stroke-linecap="butt" d="m151.29659 52.14173l236.24672 0" fill-rule="nonzero"/><path stroke="#000000" stroke-width="1.0" stroke-linecap="butt" d="m151.29659 98.19685l236.24672 0" fill-rule="nonzero"/><path fill="#000000" d="m192.78145 77.592415l1.65625 -0.140625q0.125 1.0 0.546875 1.640625q0.4375 0.640625 1.34375 1.046875q0.921875 0.390625 2.0625 0.390625q1.0 0 1.78125 -0.296875q0.78125 -0.296875 1.15625 -0.8125q0.375 -0.53125 0.375 -1.15625q0 -0.625 -0.375 -1.09375q-0.359375 -0.46875 -1.1875 -0.796875q-0.546875 -0.203125 -2.390625 -0.640625q-1.828125 -0.453125 -2.5625 -0.84375q-0.96875 -0.5 -1.4375 -1.234375q-0.46875 -0.75 -0.46875 -1.671875q0 -1.0 0.578125 -1.875q0.578125 -0.890625 1.671875 -1.34375q1.109375 -0.453125 2.453125 -0.453125q1.484375 0 2.609375 0.484375q1.140625 0.46875 1.75 1.40625q0.609375 0.921875 0.65625 2.09375l-1.6875 0.125q-0.140625 -1.265625 -0.9375 -1.90625q-0.78125 -0.65625 -2.3125 -0.65625q-1.609375 0 -2.34375 0.59375q-0.734375 0.59375 -0.734375 1.421875q0 0.71875 0.53125 1.171875q0.5 0.46875 2.65625 0.96875q2.15625 0.484375 2.953125 0.84375q1.171875 0.53125 1.71875 1.359375q0.5625 0.828125 0.5625 1.90625q0 1.0625 -0.609375 2.015625q-0.609375 0.9375 -1.75 1.46875q-1.140625 0.515625 -2.578125 0.515625q-1.8125 0 -3.046875 -0.53125q-1.21875 -0.53125 -1.921875 -1.59375q-0.6875 -1.0625 -0.71875 -2.40625zm19.459198 1.1875l1.6875 0.203125q-0.40625 1.484375 -1.484375 2.3125q-1.078125 0.8125 -2.765625 0.8125q-2.125 0 -3.375 -1.296875q-1.234375 -1.3125 -1.234375 -3.671875q0 -2.453125 1.25 -3.796875q1.265625 -1.34375 3.265625 -1.34375q1.9375 0 3.15625 1.328125q1.234375 1.3125 1.234375 3.703125q0 0.15625 0 0.4375l-7.21875 0q0.09375 1.59375 0.90625 2.453125q0.8125 0.84375 2.015625 0.84375q0.90625 0 1.546875 -0.46875q0.640625 -0.484375 1.015625 -1.515625zm-5.390625 -2.65625l5.40625 0q-0.109375 -1.21875 -0.625 -1.828125q-0.78125 -0.953125 -2.03125 -0.953125q-1.125 0 -1.90625 0.765625q-0.765625 0.75 -0.84375 2.015625zm15.469467 5.765625l0 -1.421875q-1.125 1.640625 -3.0625 1.640625q-0.859375 0 -1.609375 -0.328125q-0.734375 -0.328125 -1.09375 -0.828125q-0.359375 -0.5 -0.5 -1.21875q-0.109375 -0.46875 -0.109375 -1.53125l0 -5.984375l1.640625 0l0 5.359375q0 1.28125 0.109375 1.734375q0.15625 0.640625 0.65625 1.015625q0.5 0.375 1.234375 0.375q0.734375 0 1.375 -0.375q0.65625 -0.390625 0.921875 -1.03125q0.265625 -0.65625 0.265625 -1.890625l0 -5.1875l1.640625 0l0 9.671875l-1.46875 0zm4.000717 0l0 -13.359375l1.640625 0l0 13.359375l-1.640625 0z" fill-rule="nonzero"/><path fill="#000000" d="m318.63782 78.35804l1.640625 -0.21875q0.28125 1.40625 0.953125 2.015625q0.6875 0.609375 1.65625 0.609375q1.15625 0 1.953125 -0.796875q0.796875 -0.796875 0.796875 -1.984375q0 -1.125 -0.734375 -1.859375q-0.734375 -0.734375 -1.875 -0.734375q-0.46875 0 -1.15625 0.171875l0.1875 -1.4375q0.15625 0.015625 0.265625 0.015625q1.046875 0 1.875 -0.546875q0.84375 -0.546875 0.84375 -1.671875q0 -0.90625 -0.609375 -1.5q-0.609375 -0.59375 -1.578125 -0.59375q-0.953125 0 -1.59375 0.609375q-0.640625 0.59375 -0.8125 1.796875l-1.640625 -0.296875q0.296875 -1.640625 1.359375 -2.546875q1.0625 -0.90625 2.65625 -0.90625q1.09375 0 2.0 0.46875q0.921875 0.46875 1.40625 1.28125q0.5 0.8125 0.5 1.71875q0 0.859375 -0.46875 1.578125q-0.46875 0.703125 -1.375 1.125q1.1875 0.28125 1.84375 1.140625q0.65625 0.859375 0.65625 2.15625q0 1.734375 -1.28125 2.953125q-1.265625 1.21875 -3.21875 1.21875q-1.765625 0 -2.921875 -1.046875q-1.15625 -1.046875 -1.328125 -2.71875zm10.375702 -3.0625q0 -2.359375 0.484375 -3.796875q0.484375 -1.453125 1.4375 -2.234375q0.96875 -0.78125 2.421875 -0.78125q1.078125 0 1.890625 0.4375q0.8125 0.421875 1.328125 1.25q0.53125 0.8125 0.828125 1.984375q0.3125 1.15625 0.3125 3.140625q0 2.359375 -0.484375 3.8125q-0.484375 1.4375 -1.453125 2.234375q-0.953125 0.78125 -2.421875 0.78125q-1.921875 0 -3.03125 -1.390625q-1.3125 -1.671875 -1.3125 -5.4375zm1.671875 0q0 3.296875 0.765625 4.390625q0.78125 1.078125 1.90625 1.078125q1.140625 0 1.90625 -1.09375q0.765625 -1.09375 0.765625 -4.375q0 -3.296875 -0.765625 -4.375q-0.765625 -1.078125 -1.921875 -1.078125q-1.125 0 -1.796875 0.953125q-0.859375 1.21875 -0.859375 4.5z" fill-rule="nonzero"/><path shape-rendering="crispEdges" fill="#eeeeee" d="m151.79527 346.46457l117.62468 0l0 46.055115l-117.62468 0l0 -46.055115z" fill-rule="nonzero"/><path shape-rendering="crispEdges" fill="#eeeeee" d="m269.41995 346.46457l117.624664 0l0 46.055115l-117.624664 0l0 -46.055115z" fill-rule="nonzero"/><path shape-rendering="crispEdges" fill="#eeeeee" d="m151.79527 392.51968l117.62468 0l0 46.055115l-117.62468 0l0 -46.055115z" fill-rule="nonzero"/><path shape-rendering="crispEdges" fill="#eeeeee" d="m269.41995 392.51968l117.624664 0l0 46.055115l-117.624664 0l0 -46.055115z" fill-rule="nonzero"/><path stroke="#000000" stroke-width="1.0" stroke-linecap="butt" d="m151.79527 345.96588l0 93.107605" fill-rule="nonzero"/><path stroke="#000000" stroke-width="1.0" stroke-linecap="butt" d="m269.41995 345.96588l0 93.107605" fill-rule="nonzero"/><path stroke="#000000" stroke-width="1.0" stroke-linecap="butt" d="m387.04462 345.96588l0 93.107605" fill-rule="nonzero"/><path stroke="#000000" stroke-width="1.0" stroke-linecap="butt" d="m151.29659 346.46457l236.24672 0" fill-rule="nonzero"/><path stroke="#000000" stroke-width="1.0" stroke-linecap="butt" d="m151.29659 392.51968l236.24672 0" fill-rule="nonzero"/><path stroke="#000000" stroke-width="1.0" stroke-linecap="butt" d="m151.29659 438.5748l236.24672 0" fill-rule="nonzero"/><path fill="#000000" d="m192.78145 371.91525l1.65625 -0.140625q0.125 1.0 0.546875 1.640625q0.4375 0.640625 1.34375 1.046875q0.921875 0.390625 2.0625 0.390625q1.0 0 1.78125 -0.296875q0.78125 -0.296875 1.15625 -0.8125q0.375 -0.53125 0.375 -1.15625q0 -0.625 -0.375 -1.09375q-0.359375 -0.46875 -1.1875 -0.796875q-0.546875 -0.203125 -2.390625 -0.640625q-1.828125 -0.453125 -2.5625 -0.84375q-0.96875 -0.5 -1.4375 -1.234375q-0.46875 -0.75 -0.46875 -1.671875q0 -1.0 0.578125 -1.875q0.578125 -0.890625 1.671875 -1.34375q1.109375 -0.453125 2.453125 -0.453125q1.484375 0 2.609375 0.484375q1.140625 0.46875 1.75 1.40625q0.609375 0.921875 0.65625 2.09375l-1.6875 0.125q-0.140625 -1.265625 -0.9375 -1.90625q-0.78125 -0.65625 -2.3125 -0.65625q-1.609375 0 -2.34375 0.59375q-0.734375 0.59375 -0.734375 1.421875q0 0.71875 0.53125 1.171875q0.5 0.46875 2.65625 0.96875q2.15625 0.484375 2.953125 0.84375q1.171875 0.53125 1.71875 1.359375q0.5625 0.828125 0.5625 1.90625q0 1.0625 -0.609375 2.015625q-0.609375 0.9375 -1.75 1.46875q-1.140625 0.515625 -2.578125 0.515625q-1.8125 0 -3.046875 -0.53125q-1.21875 -0.53125 -1.921875 -1.59375q-0.6875 -1.0625 -0.71875 -2.40625zm19.459198 1.1875l1.6875 0.203125q-0.40625 1.484375 -1.484375 2.3125q-1.078125 0.8125 -2.765625 0.8125q-2.125 0 -3.375 -1.296875q-1.234375 -1.3125 -1.234375 -3.671875q0 -2.453125 1.25 -3.796875q1.265625 -1.34375 3.265625 -1.34375q1.9375 0 3.15625 1.328125q1.234375 1.3125 1.234375 3.703125q0 0.15625 0 0.4375l-7.21875 0q0.09375 1.59375 0.90625 2.453125q0.8125 0.84375 2.015625 0.84375q0.90625 0 1.546875 -0.46875q0.640625 -0.484375 1.015625 -1.515625zm-5.390625 -2.65625l5.40625 0q-0.109375 -1.21875 -0.625 -1.828125q-0.78125 -0.953125 -2.03125 -0.953125q-1.125 0 -1.90625 0.765625q-0.765625 0.75 -0.84375 2.015625zm15.469467 5.765625l0 -1.421875q-1.125 1.640625 -3.0625 1.640625q-0.859375 0 -1.609375 -0.328125q-0.734375 -0.328125 -1.09375 -0.828125q-0.359375 -0.5 -0.5 -1.21875q-0.109375 -0.46875 -0.109375 -1.53125l0 -5.984375l1.640625 0l0 5.359375q0 1.28125 0.109375 1.734375q0.15625 0.640625 0.65625 1.015625q0.5 0.375 1.234375 0.375q0.734375 0 1.375 -0.375q0.65625 -0.390625 0.921875 -1.03125q0.265625 -0.65625 0.265625 -1.890625l0 -5.1875l1.640625 0l0 9.671875l-1.46875 0zm4.000717 0l0 -13.359375l1.640625 0l0 13.359375l-1.640625 0z" fill-rule="nonzero"/><path fill="#000000" d="m318.63782 372.68088l1.640625 -0.21875q0.28125 1.40625 0.953125 2.015625q0.6875 0.609375 1.65625 0.609375q1.15625 0 1.953125 -0.796875q0.796875 -0.796875 0.796875 -1.984375q0 -1.125 -0.734375 -1.859375q-0.734375 -0.734375 -1.875 -0.734375q-0.46875 0 -1.15625 0.171875l0.1875 -1.4375q0.15625 0.015625 0.265625 0.015625q1.046875 0 1.875 -0.546875q0.84375 -0.546875 0.84375 -1.671875q0 -0.90625 -0.609375 -1.5q-0.609375 -0.59375 -1.578125 -0.59375q-0.953125 0 -1.59375 0.609375q-0.640625 0.59375 -0.8125 1.796875l-1.640625 -0.296875q0.296875 -1.640625 1.359375 -2.546875q1.0625 -0.90625 2.65625 -0.90625q1.09375 0 2.0 0.46875q0.921875 0.46875 1.40625 1.28125q0.5 0.8125 0.5 1.71875q0 0.859375 -0.46875 1.578125q-0.46875 0.703125 -1.375 1.125q1.1875 0.28125 1.84375 1.140625q0.65625 0.859375 0.65625 2.15625q0 1.734375 -1.28125 2.953125q-1.265625 1.21875 -3.21875 1.21875q-1.765625 0 -2.921875 -1.046875q-1.15625 -1.046875 -1.328125 -2.71875zm10.375702 -3.0625q0 -2.359375 0.484375 -3.796875q0.484375 -1.453125 1.4375 -2.234375q0.96875 -0.78125 2.421875 -0.78125q1.078125 0 1.890625 0.4375q0.8125 0.421875 1.328125 1.25q0.53125 0.8125 0.828125 1.984375q0.3125 1.15625 0.3125 3.140625q0 2.359375 -0.484375 3.8125q-0.484375 1.4375 -1.453125 2.234375q-0.953125 0.78125 -2.421875 0.78125q-1.921875 0 -3.03125 -1.390625q-1.3125 -1.671875 -1.3125 -5.4375zm1.671875 0q0 3.296875 0.765625 4.390625q0.78125 1.078125 1.90625 1.078125q1.140625 0 1.90625 -1.09375q0.765625 -1.09375 0.765625 -4.375q0 -3.296875 -0.765625 -4.375q-0.765625 -1.078125 -1.921875 -1.078125q-1.125 0 -1.796875 0.953125q-0.859375 1.21875 -0.859375 4.5z" fill-rule="nonzero"/><path fill="#000000" d="m194.02667 418.47037l1.59375 -0.21875q0.078125 1.53125 0.578125 2.109375q0.515625 0.5625 1.421875 0.5625q0.65625 0 1.140625 -0.296875q0.484375 -0.3125 0.65625 -0.828125q0.1875 -0.53125 0.1875 -1.6875l0 -9.203125l1.765625 0l0 9.109375q0 1.671875 -0.40625 2.59375q-0.40625 0.921875 -1.28125 1.40625q-0.875 0.484375 -2.0625 0.484375q-1.75 0 -2.6875 -1.015625q-0.9375 -1.015625 -0.90625 -3.015625zm16.65625 0.6875l1.6875 0.203125q-0.40625 1.484375 -1.484375 2.3125q-1.078125 0.8125 -2.765625 0.8125q-2.125 0 -3.375 -1.296875q-1.234375 -1.3125 -1.234375 -3.671875q0 -2.453125 1.25 -3.796875q1.265625 -1.34375 3.265625 -1.34375q1.9375 0 3.15625 1.328125q1.234375 1.3125 1.234375 3.703125q0 0.15625 0 0.4375l-7.21875 0q0.09375 1.59375 0.90625 2.453125q0.8125 0.84375 2.015625 0.84375q0.90625 0 1.546875 -0.46875q0.640625 -0.484375 1.015625 -1.515625zm-5.390625 -2.65625l5.40625 0q-0.109375 -1.21875 -0.625 -1.828125q-0.78125 -0.953125 -2.03125 -0.953125q-1.125 0 -1.90625 0.765625q-0.765625 0.75 -0.84375 2.015625zm9.125717 -5.6875l0 -1.90625l1.640625 0l0 1.90625l-1.640625 0zm-2.078125 15.203125l0.3125 -1.390625q0.5 0.125 0.78125 0.125q0.5 0 0.734375 -0.328125q0.25 -0.328125 0.25 -1.671875l0 -10.15625l1.640625 0l0 10.203125q0 1.78125 -0.46875 2.484375q-0.59375 0.90625 -1.96875 0.90625q-0.65625 0 -1.28125 -0.171875zm12.566696 -3.75l0 -1.421875q-1.125 1.640625 -3.0625 1.640625q-0.859375 0 -1.609375 -0.328125q-0.734375 -0.328125 -1.09375 -0.828125q-0.359375 -0.5 -0.5 -1.21875q-0.109375 -0.46875 -0.109375 -1.53125l0 -5.984375l1.640625 0l0 5.359375q0 1.28125 0.109375 1.734375q0.15625 0.640625 0.65625 1.015625q0.5 0.375 1.234375 0.375q0.734375 0 1.375 -0.375q0.65625 -0.390625 0.921875 -1.03125q0.265625 -0.65625 0.265625 -1.890625l0 -5.1875l1.640625 0l0 9.671875l-1.46875 0z" fill-rule="nonzero"/><path fill="#000000" d="m327.2472 420.68912l0 1.578125l-8.828125 0q-0.015625 -0.59375 0.1875 -1.140625q0.34375 -0.90625 1.078125 -1.78125q0.75 -0.875 2.15625 -2.015625q2.171875 -1.78125 2.9375 -2.828125q0.765625 -1.046875 0.765625 -1.96875q0 -0.984375 -0.703125 -1.640625q-0.6875 -0.671875 -1.8125 -0.671875q-1.1875 0 -1.90625 0.71875q-0.703125 0.703125 -0.703125 1.953125l-1.6875 -0.171875q0.171875 -1.890625 1.296875 -2.875q1.140625 -0.984375 3.03125 -0.984375q1.921875 0 3.046875 1.0625q1.125 1.0625 1.125 2.640625q0 0.796875 -0.328125 1.578125q-0.328125 0.78125 -1.09375 1.640625q-0.75 0.84375 -2.53125 2.34375q-1.46875 1.234375 -1.890625 1.6875q-0.421875 0.4375 -0.6875 0.875l6.546875 0zm1.7663269 -5.015625q0 -2.359375 0.484375 -3.796875q0.484375 -1.453125 1.4375 -2.234375q0.96875 -0.78125 2.421875 -0.78125q1.078125 0 1.890625 0.4375q0.8125 0.421875 1.328125 1.25q0.53125 0.8125 0.828125 1.984375q0.3125 1.15625 0.3125 3.140625q0 2.359375 -0.484375 3.8125q-0.484375 1.4375 -1.453125 2.234375q-0.953125 0.78125 -2.421875 0.78125q-1.921875 0 -3.03125 -1.390625q-1.3125 -1.671875 -1.3125 -5.4375zm1.671875 0q0 3.296875 0.765625 4.390625q0.78125 1.078125 1.90625 1.078125q1.140625 0 1.90625 -1.09375q0.765625 -1.09375 0.765625 -4.375q0 -3.296875 -0.765625 -4.375q-0.765625 -1.078125 -1.921875 -1.078125q-1.125 0 -1.796875 0.953125q-0.859375 1.21875 -0.859375 4.5z" fill-rule="nonzero"/><g filter="url(#shadowFilter-g11ddf0a0acf_1_267.2)"><use xlink:href="#g11ddf0a0acf_1_267.2" transform="matrix(1.0 0.0 0.0 1.0 0.0 2.0)"/></g><defs><filter id="shadowFilter-g11ddf0a0acf_1_267.2" filterUnits="userSpaceOnUse"><feGaussianBlur in="SourceAlpha" stdDeviation="2.0" result="blur"/><feComponentTransfer in="blur" color-interpolation-filters="sRGB"><feFuncR type="linear" slope="0" intercept="0.0"/><feFuncG type="linear" slope="0" intercept="0.0"/><feFuncB type="linear" slope="0" intercept="0.0"/><feFuncA type="linear" slope="0.5" intercept="0"/></feComponentTransfer></filter></defs><g id="g11ddf0a0acf_1_267.2"><path fill="#b7b7b7" d="m547.07086 31.464567l279.65356 0l0 477.07086l-279.65356 0z" fill-rule="evenodd"/><path stroke="#595959" stroke-width="1.0" stroke-linejoin="round" stroke-linecap="butt" d="m547.07086 31.464567l279.65356 0l0 477.07086l-279.65356 0z" fill-rule="evenodd"/></g><path fill="#000000" fill-opacity="0.0" d="m581.5161 459.17322l203.40155 0l0 42.015747l-203.40155 0z" fill-rule="evenodd"/><path fill="#000000" d="m630.40857 475.7651l0 2.921875q0 0.375 -0.25 0.546875q-0.203125 0.15625 -0.640625 0.15625l-4.046875 0q-0.421875 0 -0.578125 -0.140625q-0.1875 -0.15625 -0.1875 -0.5625l0 -2.921875l5.703125 0zm0 -3.265625l0 2.3125l-5.703125 0l0 -2.234375q0 -0.296875 -0.1875 -0.453125q-0.140625 -0.15625 -0.359375 -0.15625q-0.234375 0 -0.375 0.171875q-0.171875 0.171875 -0.171875 0.46875l0 6.296875q0 0.6875 0.453125 1.078125q0.421875 0.359375 1.109375 0.359375l4.65625 0q0.71875 0 1.171875 -0.40625q0.453125 -0.390625 0.453125 -1.03125l0 -6.390625q0 -0.546875 -0.53125 -0.546875q-0.515625 0 -0.515625 0.53125zm6.09375 9.75l0 -10.234375q0 -0.25 -0.171875 -0.375q-0.15625 -0.125 -0.375 -0.125q-0.25 0 -0.390625 0.125q-0.171875 0.140625 -0.171875 0.390625l0 2.375l-3.171875 0q-0.28125 0 -0.421875 0.125q-0.140625 0.15625 -0.140625 0.34375q0.03125 0.171875 0.171875 0.328125q0.1875 0.140625 0.484375 0.140625l3.078125 0l0 2.4375l-3.140625 0q-0.265625 0 -0.4375 0.125q-0.125 0.140625 -0.125 0.34375q0 0.1875 0.140625 0.3125q0.171875 0.140625 0.453125 0.140625l3.109375 0l0 3.546875q0 0.28125 0.171875 0.453125q0.140625 0.140625 0.390625 0.140625q0.21875 0 0.375 -0.140625q0.171875 -0.171875 0.171875 -0.453125zm-10.8125 0.21875q0 -0.296875 -0.1875 -0.453125q-0.140625 -0.15625 -0.375 -0.15625q-0.234375 0 -0.375 0.15625q-0.171875 0.15625 -0.171875 0.453125l0 2.46875q0 0.828125 0.515625 1.25q0.484375 0.40625 1.3125 0.40625l10.1875 0q0.46875 0 0.46875 -0.484375q0 -0.46875 -0.46875 -0.46875l-10.0 0q-0.53125 0 -0.71875 -0.15625q-0.1875 -0.1875 -0.1875 -0.6875l0 -2.328125zm25.90625 -8.5625l-8.484375 0q-0.515625 0 -0.515625 0.484375q0 0.484375 0.515625 0.484375l8.53125 0q0.25 0 0.390625 -0.171875q0.140625 -0.125 0.140625 -0.3125q-0.03125 -0.203125 -0.15625 -0.34375q-0.171875 -0.140625 -0.421875 -0.140625zm-1.890625 -1.859375l-4.703125 0q-0.53125 0 -0.53125 0.46875q0 0.453125 0.53125 0.453125l4.734375 0q0.515625 0 0.5 -0.453125q0 -0.46875 -0.53125 -0.46875zm-2.328125 3.5625q-2.140625 0 -3.265625 0.515625q-1.015625 0.484375 -1.015625 1.34375q0 0.8125 1.015625 1.296875q1.09375 0.515625 3.265625 0.515625q2.140625 0 3.234375 -0.515625q1.015625 -0.484375 1.015625 -1.296875q0 -0.859375 -1.015625 -1.34375q-1.09375 -0.515625 -3.234375 -0.515625zm0 0.953125q1.640625 0 2.390625 0.21875q0.765625 0.21875 0.765625 0.6875q0 0.421875 -0.765625 0.640625q-0.765625 0.25 -2.390625 0.25q-1.6875 0 -2.46875 -0.25q-0.71875 -0.21875 -0.71875 -0.640625q0 -0.484375 0.71875 -0.6875q0.78125 -0.21875 2.46875 -0.21875zm0.765625 4.265625l0 -1.65625l-1.09375 0l0 1.71875q-0.8125 0.0625 -2.625 0.09375q-0.953125 0.03125 -2.296875 0.03125q-0.25 0 -0.40625 0.125q-0.140625 0.140625 -0.125 0.328125q0 0.1875 0.140625 0.34375q0.171875 0.140625 0.46875 0.140625q3.171875 0 5.90625 -0.21875q2.84375 -0.25 4.6875 -0.671875q0.21875 -0.046875 0.3125 -0.21875q0.078125 -0.171875 0.015625 -0.359375q-0.046875 -0.1875 -0.21875 -0.265625q-0.1875 -0.09375 -0.421875 -0.03125q-0.84375 0.234375 -2.0625 0.390625q-1.078125 0.15625 -2.28125 0.25zm6.828125 -3.046875l0 -5.796875q0 -0.46875 -0.5625 -0.46875q-0.53125 0 -0.53125 0.5l0 10.515625q0 0.265625 0.171875 0.421875q0.140625 0.140625 0.359375 0.140625q0.234375 0 0.375 -0.140625q0.1875 -0.140625 0.1875 -0.40625l0 -3.84375l2.0625 0q0.453125 0 0.4375 -0.453125q-0.015625 -0.46875 -0.515625 -0.46875l-1.984375 0zm-10.359375 5.125q0 -0.265625 -0.1875 -0.40625q-0.140625 -0.140625 -0.359375 -0.140625q-0.234375 0 -0.375 0.140625q-0.171875 0.140625 -0.171875 0.40625l0 2.078125q0 0.71875 0.453125 1.171875q0.453125 0.4375 1.234375 0.4375l10.03125 0q0.4375 0 0.4375 -0.484375q0 -0.46875 -0.4375 -0.46875l-9.734375 0q-0.515625 0 -0.703125 -0.15625q-0.1875 -0.1875 -0.1875 -0.6875l0 -1.890625z" fill-rule="nonzero"/><path fill="#000000" d="m672.4669 472.0776l-5.484375 0q-0.515625 0 -0.5 0.46875q0 0.484375 0.515625 0.484375l5.515625 0q0.421875 0 0.671875 0.203125q0.21875 0.203125 0.21875 0.59375l0 2.171875q0 3.921875 -1.859375 6.0625q-1.703125 1.984375 -4.890625 2.328125q-0.53125 0.03125 -0.484375 0.5q0.03125 0.484375 0.546875 0.4375q3.421875 -0.21875 5.5 -2.53125q2.25 -2.5 2.25 -6.765625l0 -2.1875q0 -0.8125 -0.53125 -1.28125q-0.53125 -0.484375 -1.46875 -0.484375zm7.21875 14.390625l0 -14.4375q0 -0.25 -0.171875 -0.390625q-0.15625 -0.109375 -0.375 -0.109375q-0.25 0 -0.390625 0.109375q-0.171875 0.140625 -0.171875 0.390625l0 14.4375q0 0.25 0.171875 0.421875q0.140625 0.15625 0.390625 0.15625q0.21875 0 0.375 -0.15625q0.171875 -0.171875 0.171875 -0.421875zm17.703125 -14.734375l-10.375 0q-0.546875 0 -0.5625 0.46875q0 0.46875 0.546875 0.46875l10.078125 0q0.40625 0 0.59375 0.125q0.203125 0.125 0.203125 0.40625l0 0.4375q0 0.21875 -0.21875 0.359375q-0.21875 0.140625 -0.609375 0.140625l-9.09375 0q-0.703125 0 -1.109375 0.3125q-0.390625 0.34375 -0.390625 0.9375l0 0.84375q0 0.625 0.359375 0.9375q0.375 0.3125 1.140625 0.3125l10.71875 0q0.25 0 0.375 -0.15625q0.125 -0.140625 0.125 -0.328125q0 -0.1875 -0.140625 -0.328125q-0.15625 -0.140625 -0.40625 -0.140625l-10.390625 0q-0.390625 0 -0.546875 -0.140625q-0.125 -0.109375 -0.125 -0.328125l0 -0.515625q0 -0.21875 0.125 -0.328125q0.171875 -0.125 0.59375 -0.125l9.25 0q0.703125 0 1.046875 -0.28125q0.40625 -0.296875 0.40625 -0.921875l0 -1.03125q0 -0.53125 -0.4375 -0.84375q-0.40625 -0.28125 -1.15625 -0.28125zm-4.171875 5.9375q0 -0.421875 -0.53125 -0.421875q-0.546875 -0.03125 -0.546875 0.359375l0 1.53125l-6.625 0q-0.53125 0 -0.546875 0.4375q-0.046875 0.46875 0.453125 0.46875l14.53125 0q0.515625 0 0.515625 -0.46875q-0.015625 -0.4375 -0.546875 -0.4375l-6.703125 0l0 -1.46875zm3.9375 4.390625l-10.40625 0q-0.53125 0 -0.5 0.46875q0 0.484375 0.5 0.484375l10.34375 0q0.4375 0 0.609375 0.171875q0.171875 0.140625 0.171875 0.5l0 2.78125q0 0.28125 0.171875 0.4375q0.140625 0.15625 0.390625 0.15625q0.21875 0 0.375 -0.15625q0.171875 -0.15625 0.171875 -0.4375l0 -2.828125q0 -0.78125 -0.46875 -1.1875q-0.46875 -0.390625 -1.359375 -0.390625z" fill-rule="nonzero"/><path fill="#000000" d="m720.99396 472.0151l-9.671875 0q-0.5625 0 -0.5625 0.484375q0 0.46875 0.53125 0.46875l9.53125 0q0.453125 0 0.65625 0.140625q0.234375 0.140625 0.234375 0.515625l0 1.515625q0 0.28125 -0.25 0.4375q-0.203125 0.125 -0.609375 0.125l-8.421875 0q-0.84375 0 -1.296875 0.46875q-0.40625 0.421875 -0.40625 1.109375l0 2.0q0 0.765625 0.40625 1.203125q0.40625 0.4375 1.109375 0.4375l10.46875 0q0.234375 0 0.359375 -0.15625q0.140625 -0.140625 0.140625 -0.328125q0 -0.1875 -0.15625 -0.34375q-0.140625 -0.125 -0.390625 -0.125l-9.984375 0q-0.46875 0 -0.671875 -0.171875q-0.1875 -0.15625 -0.1875 -0.53125l0 -1.875q0 -0.390625 0.1875 -0.5625q0.171875 -0.15625 0.625 -0.15625l8.390625 0q0.921875 0 1.328125 -0.3125q0.46875 -0.34375 0.46875 -1.125l0 -1.71875q0 -0.75 -0.46875 -1.140625q-0.46875 -0.359375 -1.359375 -0.359375zm-4.609375 9.171875l0 3.625l-6.6875 0q-0.25 0 -0.40625 0.125q-0.125 0.15625 -0.140625 0.34375q-0.03125 0.1875 0.09375 0.328125q0.109375 0.15625 0.3125 0.15625l14.5625 0q0.234375 0 0.390625 -0.15625q0.140625 -0.140625 0.140625 -0.328125q0 -0.1875 -0.140625 -0.34375q-0.15625 -0.125 -0.40625 -0.125l-6.640625 0l0 -3.546875q0 -0.25 -0.1875 -0.40625q-0.15625 -0.140625 -0.359375 -0.140625q-0.21875 -0.03125 -0.375 0.109375q-0.15625 0.125 -0.15625 0.359375zm23.6875 -9.171875l-10.171875 0q-0.5 0 -0.5 0.484375q0 0.46875 0.5 0.46875l10.03125 0q0.515625 0 0.8125 0.234375q0.3125 0.234375 0.3125 0.703125l0 5.203125q0 1.515625 -0.40625 3.203125q-0.421875 1.78125 -1.125 3.015625l1.1875 0q0.625 -1.21875 1.03125 -2.984375q0.421875 -1.765625 0.421875 -3.203125l0 -5.296875q0 -0.875 -0.5625 -1.375q-0.578125 -0.453125 -1.53125 -0.453125zm3.03125 12.796875l-14.40625 0q-0.53125 0 -0.546875 0.46875q-0.046875 0.484375 0.453125 0.484375l14.515625 0q0.234375 0 0.390625 -0.15625q0.140625 -0.140625 0.140625 -0.328125q0 -0.1875 -0.140625 -0.34375q-0.15625 -0.125 -0.40625 -0.125z" fill-rule="nonzero"/><path shape-rendering="crispEdges" fill="#eeeeee" d="m565.5932 199.30315l117.62463 0l0 46.055115l-117.62463 0l0 -46.055115z" fill-rule="nonzero"/><path shape-rendering="crispEdges" fill="#eeeeee" d="m683.21783 199.30315l117.624695 0l0 46.055115l-117.624695 0l0 -46.055115z" fill-rule="nonzero"/><path stroke="#000000" stroke-width="1.0" stroke-linecap="butt" d="m565.5932 198.80446l0 47.05249" fill-rule="nonzero"/><path stroke="#000000" stroke-width="1.0" stroke-linecap="butt" d="m683.21783 198.80446l0 47.05249" fill-rule="nonzero"/><path stroke="#000000" stroke-width="1.0" stroke-linecap="butt" d="m800.8425 198.80446l0 47.05249" fill-rule="nonzero"/><path stroke="#000000" stroke-width="1.0" stroke-linecap="butt" d="m565.0945 199.30315l236.2467 0" fill-rule="nonzero"/><path stroke="#000000" stroke-width="1.0" stroke-linecap="butt" d="m565.0945 245.35826l236.2467 0" fill-rule="nonzero"/><path fill="#000000" d="m607.8246 225.25383l1.59375 -0.21875q0.078125 1.53125 0.578125 2.109375q0.515625 0.5625 1.421875 0.5625q0.65625 0 1.140625 -0.296875q0.484375 -0.3125 0.65625 -0.828125q0.1875 -0.53125 0.1875 -1.6875l0 -9.203125l1.765625 0l0 9.109375q0 1.671875 -0.40625 2.59375q-0.40625 0.921875 -1.28125 1.40625q-0.875 0.484375 -2.0625 0.484375q-1.75 0 -2.6875 -1.015625q-0.9375 -1.015625 -0.90625 -3.015625zm16.65625 0.6875l1.6875 0.203125q-0.40625 1.484375 -1.484375 2.3125q-1.078125 0.8125 -2.765625 0.8125q-2.125 0 -3.375 -1.296875q-1.234375 -1.3125 -1.234375 -3.671875q0 -2.453125 1.25 -3.796875q1.265625 -1.34375 3.265625 -1.34375q1.9375 0 3.15625 1.328125q1.234375 1.3125 1.234375 3.703125q0 0.15625 0 0.4375l-7.21875 0q0.09375 1.59375 0.90625 2.453125q0.8125 0.84375 2.015625 0.84375q0.90625 0 1.546875 -0.46875q0.640625 -0.484375 1.015625 -1.515625zm-5.390625 -2.65625l5.40625 0q-0.109375 -1.21875 -0.625 -1.828125q-0.78125 -0.953125 -2.03125 -0.953125q-1.125 0 -1.90625 0.765625q-0.765625 0.75 -0.84375 2.015625zm9.125732 -5.6875l0 -1.90625l1.640625 0l0 1.90625l-1.640625 0zm-2.078125 15.203125l0.3125 -1.390625q0.5 0.125 0.78125 0.125q0.5 0 0.734375 -0.328125q0.25 -0.328125 0.25 -1.671875l0 -10.15625l1.640625 0l0 10.203125q0 1.78125 -0.46875 2.484375q-0.59375 0.90625 -1.96875 0.90625q-0.65625 0 -1.28125 -0.171875zm12.56665 -3.75l0 -1.421875q-1.125 1.640625 -3.0625 1.640625q-0.859375 0 -1.609375 -0.328125q-0.734375 -0.328125 -1.09375 -0.828125q-0.359375 -0.5 -0.5 -1.21875q-0.109375 -0.46875 -0.109375 -1.53125l0 -5.984375l1.640625 0l0 5.359375q0 1.28125 0.109375 1.734375q0.15625 0.640625 0.65625 1.015625q0.5 0.375 1.234375 0.375q0.734375 0 1.375 -0.375q0.65625 -0.390625 0.921875 -1.03125q0.265625 -0.65625 0.265625 -1.890625l0 -5.1875l1.640625 0l0 9.671875l-1.46875 0z" fill-rule="nonzero"/><path fill="#000000" d="m741.0451 227.47258l0 1.578125l-8.828125 0q-0.015625 -0.59375 0.1875 -1.140625q0.34375 -0.90625 1.078125 -1.78125q0.75 -0.875 2.15625 -2.015625q2.171875 -1.78125 2.9375 -2.828125q0.765625 -1.046875 0.765625 -1.96875q0 -0.984375 -0.703125 -1.640625q-0.6875 -0.671875 -1.8125 -0.671875q-1.1875 0 -1.90625 0.71875q-0.703125 0.703125 -0.703125 1.953125l-1.6875 -0.171875q0.171875 -1.890625 1.296875 -2.875q1.140625 -0.984375 3.03125 -0.984375q1.921875 0 3.046875 1.0625q1.125 1.0625 1.125 2.640625q0 0.796875 -0.328125 1.578125q-0.328125 0.78125 -1.09375 1.640625q-0.75 0.84375 -2.53125 2.34375q-1.46875 1.234375 -1.890625 1.6875q-0.421875 0.4375 -0.6875 0.875l6.546875 0zm1.7663574 -1.921875l1.71875 -0.140625q0.1875 1.25 0.875 1.890625q0.703125 0.625 1.6875 0.625q1.187439 0 1.999939 -0.890625q0.828125 -0.890625 0.828125 -2.359375q0 -1.40625 -0.796875 -2.21875q-0.78125 -0.8125 -2.062439 -0.8125q-0.78125 0 -1.421875 0.359375q-0.640625 0.359375 -1.0 0.9375l-1.546875 -0.203125l1.296875 -6.859375l6.640564 0l0 1.5625l-5.328064 0l-0.71875 3.59375q1.203125 -0.84375 2.515564 -0.84375q1.75 0 2.953125 1.21875q1.203125 1.203125 1.203125 3.109375q0 1.8125 -1.046875 3.140625q-1.296875 1.625 -3.515564 1.625q-1.8125 0 -2.96875 -1.015625q-1.15625 -1.03125 -1.3125 -2.71875z" fill-rule="nonzero"/><path shape-rendering="crispEdges" fill="#eeeeee" d="m565.5932 52.14173l117.62463 0l0 46.055122l-117.62463 0l0 -46.055122z" fill-rule="nonzero"/><path shape-rendering="crispEdges" fill="#eeeeee" d="m683.21783 52.14173l117.624695 0l0 46.055122l-117.624695 0l0 -46.055122z" fill-rule="nonzero"/><path stroke="#000000" stroke-width="1.0" stroke-linecap="butt" d="m565.5932 51.643044l0 47.052498" fill-rule="nonzero"/><path stroke="#000000" stroke-width="1.0" stroke-linecap="butt" d="m683.21783 51.643044l0 47.052498" fill-rule="nonzero"/><path stroke="#000000" stroke-width="1.0" stroke-linecap="butt" d="m800.8425 51.643044l0 47.052498" fill-rule="nonzero"/><path stroke="#000000" stroke-width="1.0" stroke-linecap="butt" d="m565.0945 52.14173l236.2467 0" fill-rule="nonzero"/><path stroke="#000000" stroke-width="1.0" stroke-linecap="butt" d="m565.0945 98.19685l236.2467 0" fill-rule="nonzero"/><path fill="#000000" d="m606.57935 77.592415l1.65625 -0.140625q0.125 1.0 0.546875 1.640625q0.4375 0.640625 1.34375 1.046875q0.921875 0.390625 2.0625 0.390625q1.0 0 1.78125 -0.296875q0.78125 -0.296875 1.15625 -0.8125q0.375 -0.53125 0.375 -1.15625q0 -0.625 -0.375 -1.09375q-0.359375 -0.46875 -1.1875 -0.796875q-0.546875 -0.203125 -2.390625 -0.640625q-1.828125 -0.453125 -2.5625 -0.84375q-0.96875 -0.5 -1.4375 -1.234375q-0.46875 -0.75 -0.46875 -1.671875q0 -1.0 0.578125 -1.875q0.578125 -0.890625 1.671875 -1.34375q1.109375 -0.453125 2.453125 -0.453125q1.484375 0 2.609375 0.484375q1.140625 0.46875 1.75 1.40625q0.609375 0.921875 0.65625 2.09375l-1.6875 0.125q-0.140625 -1.265625 -0.9375 -1.90625q-0.78125 -0.65625 -2.3125 -0.65625q-1.609375 0 -2.34375 0.59375q-0.734375 0.59375 -0.734375 1.421875q0 0.71875 0.53125 1.171875q0.5 0.46875 2.65625 0.96875q2.15625 0.484375 2.953125 0.84375q1.171875 0.53125 1.71875 1.359375q0.5625 0.828125 0.5625 1.90625q0 1.0625 -0.609375 2.015625q-0.609375 0.9375 -1.75 1.46875q-1.140625 0.515625 -2.578125 0.515625q-1.8125 0 -3.046875 -0.53125q-1.21875 -0.53125 -1.921875 -1.59375q-0.6875 -1.0625 -0.71875 -2.40625zm19.459229 1.1875l1.6875 0.203125q-0.40625 1.484375 -1.484375 2.3125q-1.078125 0.8125 -2.765625 0.8125q-2.125 0 -3.375 -1.296875q-1.234375 -1.3125 -1.234375 -3.671875q0 -2.453125 1.25 -3.796875q1.265625 -1.34375 3.265625 -1.34375q1.9375 0 3.15625 1.328125q1.234375 1.3125 1.234375 3.703125q0 0.15625 0 0.4375l-7.21875 0q0.09375 1.59375 0.90625 2.453125q0.8125 0.84375 2.015625 0.84375q0.90625 0 1.546875 -0.46875q0.640625 -0.484375 1.015625 -1.515625zm-5.390625 -2.65625l5.40625 0q-0.109375 -1.21875 -0.625 -1.828125q-0.78125 -0.953125 -2.03125 -0.953125q-1.125 0 -1.90625 0.765625q-0.765625 0.75 -0.84375 2.015625zm15.469421 5.765625l0 -1.421875q-1.125 1.640625 -3.0625 1.640625q-0.859375 0 -1.609375 -0.328125q-0.734375 -0.328125 -1.09375 -0.828125q-0.359375 -0.5 -0.5 -1.21875q-0.109375 -0.46875 -0.109375 -1.53125l0 -5.984375l1.640625 0l0 5.359375q0 1.28125 0.109375 1.734375q0.15625 0.640625 0.65625 1.015625q0.5 0.375 1.234375 0.375q0.734375 0 1.375 -0.375q0.65625 -0.390625 0.921875 -1.03125q0.265625 -0.65625 0.265625 -1.890625l0 -5.1875l1.640625 0l0 9.671875l-1.46875 0zm4.0007324 0l0 -13.359375l1.640625 0l0 13.359375l-1.640625 0z" fill-rule="nonzero"/><path fill="#000000" d="m732.4357 78.35804l1.640625 -0.21875q0.28125 1.40625 0.953125 2.015625q0.6875 0.609375 1.65625 0.609375q1.15625 0 1.953125 -0.796875q0.796875 -0.796875 0.796875 -1.984375q0 -1.125 -0.734375 -1.859375q-0.734375 -0.734375 -1.875 -0.734375q-0.46875 0 -1.15625 0.171875l0.1875 -1.4375q0.15625 0.015625 0.265625 0.015625q1.046875 0 1.875 -0.546875q0.84375 -0.546875 0.84375 -1.671875q0 -0.90625 -0.609375 -1.5q-0.609375 -0.59375 -1.578125 -0.59375q-0.953125 0 -1.59375 0.609375q-0.640625 0.59375 -0.8125 1.796875l-1.640625 -0.296875q0.296875 -1.640625 1.359375 -2.546875q1.0625 -0.90625 2.65625 -0.90625q1.09375 0 2.0 0.46875q0.921875 0.46875 1.40625 1.28125q0.5 0.8125 0.5 1.71875q0 0.859375 -0.46875 1.578125q-0.46875 0.703125 -1.375 1.125q1.1875 0.28125 1.84375 1.140625q0.65625 0.859375 0.65625 2.15625q0 1.734375 -1.28125 2.953125q-1.265625 1.21875 -3.21875 1.21875q-1.765625 0 -2.921875 -1.046875q-1.15625 -1.046875 -1.328125 -2.71875zm10.375732 -3.0625q0 -2.359375 0.484375 -3.796875q0.484375 -1.453125 1.4375 -2.234375q0.96875 -0.78125 2.421875 -0.78125q1.078064 0 1.890564 0.4375q0.8125 0.421875 1.328125 1.25q0.53125 0.8125 0.828125 1.984375q0.3125 1.15625 0.3125 3.140625q0 2.359375 -0.484375 3.8125q-0.484375 1.4375 -1.453125 2.234375q-0.953125 0.78125 -2.421814 0.78125q-1.921875 0 -3.03125 -1.390625q-1.3125 -1.671875 -1.3125 -5.4375zm1.671875 0q0 3.296875 0.765625 4.390625q0.78125 1.078125 1.90625 1.078125q1.140564 0 1.906189 -1.09375q0.765625 -1.09375 0.765625 -4.375q0 -3.296875 -0.765625 -4.375q-0.765625 -1.078125 -1.921814 -1.078125q-1.125 0 -1.796875 0.953125q-0.859375 1.21875 -0.859375 4.5z" fill-rule="nonzero"/><path shape-rendering="crispEdges" fill="#eeeeee" d="m569.27295 369.49213l117.624695 0l0 46.055115l-117.624695 0l0 -46.055115z" fill-rule="nonzero"/><path shape-rendering="crispEdges" fill="#eeeeee" d="m686.89764 369.49213l117.624695 0l0 46.055115l-117.624695 0l0 -46.055115z" fill-rule="nonzero"/><path stroke="#000000" stroke-width="1.0" stroke-linecap="butt" d="m569.27295 368.99344l0 47.05249" fill-rule="nonzero"/><path stroke="#000000" stroke-width="1.0" stroke-linecap="butt" d="m686.89764 368.99344l0 47.05249" fill-rule="nonzero"/><path stroke="#000000" stroke-width="1.0" stroke-linecap="butt" d="m804.52234 368.99344l0 47.05249" fill-rule="nonzero"/><path stroke="#000000" stroke-width="1.0" stroke-linecap="butt" d="m568.7743 369.49213l236.2467 0" fill-rule="nonzero"/><path stroke="#000000" stroke-width="1.0" stroke-linecap="butt" d="m568.7743 415.54724l236.2467 0" fill-rule="nonzero"/><path fill="#000000" d="m611.50433 395.4428l1.59375 -0.21875q0.078125 1.53125 0.578125 2.109375q0.515625 0.5625 1.421875 0.5625q0.65625 0 1.140625 -0.296875q0.484375 -0.3125 0.65625 -0.828125q0.1875 -0.53125 0.1875 -1.6875l0 -9.203125l1.765625 0l0 9.109375q0 1.671875 -0.40625 2.59375q-0.40625 0.921875 -1.28125 1.40625q-0.875 0.484375 -2.0625 0.484375q-1.75 0 -2.6875 -1.015625q-0.9375 -1.015625 -0.90625 -3.015625zm16.65625 0.6875l1.6875 0.203125q-0.40625 1.484375 -1.484375 2.3125q-1.078125 0.8125 -2.765625 0.8125q-2.125 0 -3.375 -1.296875q-1.234375 -1.3125 -1.234375 -3.671875q0 -2.453125 1.25 -3.796875q1.265625 -1.34375 3.265625 -1.34375q1.9375 0 3.15625 1.328125q1.234375 1.3125 1.234375 3.703125q0 0.15625 0 0.4375l-7.21875 0q0.09375 1.59375 0.90625 2.453125q0.8125 0.84375 2.015625 0.84375q0.90625 0 1.546875 -0.46875q0.640625 -0.484375 1.015625 -1.515625zm-5.390625 -2.65625l5.40625 0q-0.109375 -1.21875 -0.625 -1.828125q-0.78125 -0.953125 -2.03125 -0.953125q-1.125 0 -1.90625 0.765625q-0.765625 0.75 -0.84375 2.015625zm9.125732 -5.6875l0 -1.90625l1.640625 0l0 1.90625l-1.640625 0zm-2.078125 15.203125l0.3125 -1.390625q0.5 0.125 0.78125 0.125q0.5 0 0.734375 -0.328125q0.25 -0.328125 0.25 -1.671875l0 -10.15625l1.640625 0l0 10.203125q0 1.78125 -0.46875 2.484375q-0.59375 0.90625 -1.96875 0.90625q-0.65625 0 -1.28125 -0.171875zm12.566711 -3.75l0 -1.421875q-1.125 1.640625 -3.0625 1.640625q-0.859375 0 -1.609375 -0.328125q-0.734375 -0.328125 -1.09375 -0.828125q-0.359375 -0.5 -0.5 -1.21875q-0.109375 -0.46875 -0.109375 -1.53125l0 -5.984375l1.640625 0l0 5.359375q0 1.28125 0.109375 1.734375q0.15625 0.640625 0.65625 1.015625q0.5 0.375 1.234375 0.375q0.734375 0 1.375 -0.375q0.65625 -0.390625 0.921875 -1.03125q0.265625 -0.65625 0.265625 -1.890625l0 -5.1875l1.640625 0l0 9.671875l-1.46875 0z" fill-rule="nonzero"/><path fill="#000000" d="m744.72485 397.66156l0 1.578125l-8.828125 0q-0.015625 -0.59375 0.1875 -1.140625q0.34375 -0.90625 1.078125 -1.78125q0.75 -0.875 2.15625 -2.015625q2.171875 -1.78125 2.9375 -2.828125q0.765625 -1.046875 0.765625 -1.96875q0 -0.984375 -0.703125 -1.640625q-0.6875 -0.671875 -1.8125 -0.671875q-1.1875 0 -1.90625 0.71875q-0.703125 0.703125 -0.703125 1.953125l-1.6875 -0.171875q0.171875 -1.890625 1.296875 -2.875q1.140625 -0.984375 3.03125 -0.984375q1.921875 0 3.046875 1.0625q1.125 1.0625 1.125 2.640625q0 0.796875 -0.328125 1.578125q-0.328125 0.78125 -1.09375 1.640625q-0.75 0.84375 -2.53125 2.34375q-1.46875 1.234375 -1.890625 1.6875q-0.421875 0.4375 -0.6875 0.875l6.546875 0zm1.7663574 -5.015625q0 -2.359375 0.484375 -3.796875q0.484375 -1.453125 1.4375 -2.234375q0.96875 -0.78125 2.421875 -0.78125q1.078125 0 1.890625 0.4375q0.8125 0.421875 1.328125 1.25q0.53125 0.8125 0.828125 1.984375q0.3125 1.15625 0.3125 3.140625q0 2.359375 -0.484375 3.8125q-0.484375 1.4375 -1.453125 2.234375q-0.953125 0.78125 -2.421875 0.78125q-1.921875 0 -3.03125 -1.390625q-1.3125 -1.671875 -1.3125 -5.4375zm1.671875 0q0 3.296875 0.765625 4.390625q0.78125 1.078125 1.90625 1.078125q1.140625 0 1.90625 -1.09375q0.765625 -1.09375 0.765625 -4.375q0 -3.296875 -0.765625 -4.375q-0.765625 -1.078125 -1.921875 -1.078125q-1.125 0 -1.796875 0.953125q-0.859375 1.21875 -0.859375 4.5z" fill-rule="nonzero"/><path fill="#000000" fill-opacity="0.0" d="m683.21783 121.60105l0 54.299217" fill-rule="evenodd"/><path stroke="#595959" stroke-width="3.0" stroke-linejoin="round" stroke-linecap="butt" d="m683.21783 121.60105l0 36.299217" fill-rule="evenodd"/><path fill="#595959" stroke="#595959" stroke-width="3.0" stroke-linecap="butt" d="m678.26263 157.90027l4.9552 13.614288l4.9552 -13.614288z" fill-rule="evenodd"/><path fill="#000000" fill-opacity="0.0" d="m683.21783 280.27692l0 54.299194" fill-rule="evenodd"/><path stroke="#595959" stroke-width="3.0" stroke-linejoin="round" stroke-linecap="butt" d="m683.21783 280.27692l0 36.299194" fill-rule="evenodd"/><path fill="#595959" stroke="#595959" stroke-width="3.0" stroke-linecap="butt" d="m678.26263 316.5761l4.9552 13.614288l4.9552 -13.614288z" fill-rule="evenodd"/><path fill="#000000" fill-opacity="0.0" d="m269.77692 280.2756l0 54.299194" fill-rule="evenodd"/><path stroke="#595959" stroke-width="3.0" stroke-linejoin="round" stroke-linecap="butt" d="m269.77692 280.2756l0 36.299194" fill-rule="evenodd"/><path fill="#595959" stroke="#595959" stroke-width="3.0" stroke-linecap="butt" d="m264.82172 316.5748l4.9552 13.614288l4.9551697 -13.614288z" fill-rule="evenodd"/></g></svg>