<svg version="1.1" viewBox="0.0 0.0 960.0 540.0" fill="none" stroke="none" stroke-linecap="square" stroke-miterlimit="10" xmlns:xlink="http://www.w3.org/1999/xlink" xmlns="http://www.w3.org/2000/svg"><clipPath id="g11ddf0a0acf_1_364.0"><path d="m0 0l960.0 0l0 540.0l-960.0 0l0 -540.0z" clip-rule="nonzero"/></clipPath><g clip-path="url(#g11ddf0a0acf_1_364.0)"><path fill="#ffffff" d="m0 0l960.0 0l0 540.0l-960.0 0z" fill-rule="evenodd"/><path fill="#ffffff" d="m539.8373 95.071915l0 0c0 -29.049889 23.54956 -52.599472 52.599487 -52.599472l210.3916 0l0 0c13.950195 0 27.329102 5.5417137 37.19342 15.406029c9.864319 9.864319 15.406006 23.243195 15.406006 37.193443l0 349.85614c0 29.049896 -23.54956 52.599487 -52.599426 52.599487l-210.3916 0c-29.049927 0 -52.599487 -23.549591 -52.599487 -52.599487z" fill-rule="evenodd"/><path stroke="#595959" stroke-width="3.0" stroke-linejoin="round" stroke-linecap="butt" stroke-dasharray="3.0,9.0" d="m539.8373 95.071915l0 0c0 -29.049889 23.54956 -52.599472 52.599487 -52.599472l210.3916 0l0 0c13.950195 0 27.329102 5.5417137 37.19342 15.406029c9.864319 9.864319 15.406006 23.243195 15.406006 37.193443l0 349.85614c0 29.049896 -23.54956 52.599487 -52.599426 52.599487l-210.3916 0c-29.049927 0 -52.599487 -23.549591 -52.599487 -52.599487z" fill-rule="evenodd"/><path fill="#ffffff" d="m104.57148 95.071915l0 0c0 -29.049889 23.549583 -52.599472 52.59948 -52.599472l210.3916 0l0 0c13.950256 0 27.329132 5.5417137 37.19345 15.406029c9.864319 9.864319 15.406006 23.243195 15.406006 37.193443l0 349.85614c0 29.049896 -23.54956 52.599487 -52.599457 52.599487l-210.3916 0c-29.049896 0 -52.59948 -23.549591 -52.59948 -52.599487z" fill-rule="evenodd"/><path stroke="#595959" stroke-width="3.0" stroke-linejoin="round" stroke-linecap="butt" stroke-dasharray="3.0,9.0" d="m104.57148 95.071915l0 0c0 -29.049889 23.549583 -52.599472 52.59948 -52.599472l210.3916 0l0 0c13.950256 0 27.329132 5.5417137 37.19345 15.406029c9.864319 9.864319 15.406006 23.243195 15.406006 37.193443l0 349.85614c0 29.049896 -23.54956 52.599487 -52.599457 52.599487l-210.3916 0c-29.049896 0 -52.59948 -23.549591 -52.59948 -52.599487z" fill-rule="evenodd"/><g filter="url(#shadowFilter-g11ddf0a0acf_1_364.1)"><use xlink:href="#g11ddf0a0acf_1_364.1" transform="matrix(1.0 0.0 0.0 1.0 0.0 2.0)"/></g><defs><filter id="shadowFilter-g11ddf0a0acf_1_364.1" filterUnits="userSpaceOnUse"><feGaussianBlur in="SourceAlpha" stdDeviation="2.0" result="blur"/><feComponentTransfer in="blur" color-interpolation-filters="sRGB"><feFuncR type="linear" slope="0" intercept="0.0"/><feFuncG type="linear" slope="0" intercept="0.0"/><feFuncB type="linear" slope="0" intercept="0.0"/><feFuncA type="linear" slope="0.5" intercept="0"/></feComponentTransfer></filter></defs><g id="g11ddf0a0acf_1_364.1"><path fill="#eeeeee" d="m597.3018 148.63463l200.66144 0l0 165.60631l-200.66144 0z" fill-rule="evenodd"/><path stroke="#595959" stroke-width="1.0" stroke-linejoin="round" stroke-linecap="butt" d="m597.3018 148.63463l200.66144 0l0 165.60631l-200.66144 0z" fill-rule="evenodd"/></g><g filter="url(#shadowFilter-g11ddf0a0acf_1_364.2)"><use xlink:href="#g11ddf0a0acf_1_364.2" transform="matrix(1.0 0.0 0.0 1.0 0.0 2.0)"/></g><defs><filter id="shadowFilter-g11ddf0a0acf_1_364.2" filterUnits="userSpaceOnUse"><feGaussianBlur in="SourceAlpha" stdDeviation="2.0" result="blur"/><feComponentTransfer in="blur" color-interpolation-filters="sRGB"><feFuncR type="linear" slope="0" intercept="0.0"/><feFuncG type="linear" slope="0" intercept="0.0"/><feFuncB type="linear" slope="0" intercept="0.0"/><feFuncA type="linear" slope="0.5" intercept="0"/></feComponentTransfer></filter></defs><g id="g11ddf0a0acf_1_364.2"><path fill="#b7b7b7" d="m119.99475 68.1601l279.65353 0l0 358.58267l-279.65353 0z" fill-rule="evenodd"/><path stroke="#595959" stroke-width="1.0" stroke-linejoin="round" stroke-linecap="butt" d="m119.99475 68.1601l279.65353 0l0 358.58267l-279.65353 0z" fill-rule="evenodd"/></g><path fill="#000000" fill-opacity="0.0" d="m167.83653 384.72964l183.96852 0l0 42.015747l-183.96852 0z" fill-rule="evenodd"/><path fill="#000000" d="m198.97914 397.63403l-5.421875 0q-0.28125 0 -0.4375 0.140625q-0.125 0.140625 -0.125 0.328125q0 0.1875 0.125 0.328125q0.171875 0.15625 0.453125 0.15625l5.375 0q0.515625 0 0.75 0.21875q0.21875 0.21875 0.21875 0.65625l0 2.75q0 3.5625 -1.734375 5.59375q-1.734375 2.0625 -5.109375 2.453125q-0.53125 0.046875 -0.453125 0.53125q0.0625 0.484375 0.578125 0.453125q3.640625 -0.359375 5.703125 -2.6875q2.078125 -2.375 2.078125 -6.296875l0 -2.875q0 -0.8125 -0.546875 -1.28125q-0.515625 -0.46875 -1.453125 -0.46875zm-0.140625 4.71875q-1.0625 0.265625 -2.859375 0.5q-1.796875 0.21875 -2.96875 0.21875q-0.53125 0 -0.53125 0.484375q0 0.484375 0.546875 0.484375q1.234375 0 3.140625 -0.265625q1.84375 -0.234375 2.96875 -0.53125q0.234375 -0.078125 0.359375 -0.265625q0.109375 -0.15625 0.046875 -0.328125q-0.046875 -0.1875 -0.234375 -0.28125q-0.1875 -0.09375 -0.46875 -0.015625zm6.828125 2.015625l0 -6.78125q0 -0.25 -0.1875 -0.390625q-0.140625 -0.109375 -0.375 -0.109375q-0.21875 0 -0.359375 0.109375q-0.171875 0.140625 -0.171875 0.390625l0 14.46875q0 0.25 0.171875 0.390625q0.140625 0.15625 0.359375 0.15625q0.234375 0 0.375 -0.15625q0.1875 -0.140625 0.1875 -0.390625l0 -6.765625l2.0625 0q0.4375 0 0.4375 -0.46875q0 -0.453125 -0.4375 -0.453125l-2.0625 0zm19.5625 0.578125l-2.3125 0l0.578125 -5.03125q0.015625 -0.265625 -0.140625 -0.4375q-0.140625 -0.125 -0.359375 -0.15625q-0.21875 -0.015625 -0.390625 0.09375q-0.171875 0.140625 -0.1875 0.390625l-0.59375 5.140625l-5.1875 0l-0.578125 -5.15625q-0.03125 -0.25 -0.21875 -0.390625q-0.171875 -0.109375 -0.390625 -0.09375q-0.21875 0.015625 -0.359375 0.15625q-0.15625 0.15625 -0.125 0.421875l0.578125 5.0625l-2.3125 0q-0.46875 0 -0.46875 0.46875q-0.03125 0.484375 0.421875 0.484375l12.078125 0q0.46875 0 0.4375 -0.484375q0 -0.46875 -0.46875 -0.46875zm-0.078125 -7.375l-11.890625 0q-0.53125 0 -0.5 0.484375q0 0.46875 0.5 0.46875l11.96875 0q0.21875 0 0.34375 -0.15625q0.125 -0.140625 0.109375 -0.3125q0 -0.21875 -0.125 -0.34375q-0.171875 -0.140625 -0.40625 -0.140625zm1.265625 12.796875l-14.390625 0q-0.25 0 -0.40625 0.125q-0.125 0.15625 -0.140625 0.34375q-0.03125 0.1875 0.09375 0.328125q0.109375 0.15625 0.3125 0.15625l14.671875 0q0.203125 0 0.3125 -0.15625q0.109375 -0.140625 0.109375 -0.328125q-0.015625 -0.1875 -0.15625 -0.34375q-0.15625 -0.125 -0.40625 -0.125zm10.5625 -12.734375l-5.421875 0q-0.28125 0 -0.4375 0.140625q-0.125 0.140625 -0.125 0.328125q0 0.1875 0.125 0.328125q0.171875 0.15625 0.453125 0.15625l5.375 0q0.515625 0 0.75 0.21875q0.21875 0.21875 0.21875 0.65625l0 2.75q0 3.5625 -1.734375 5.59375q-1.734375 2.0625 -5.109375 2.453125q-0.53125 0.046875 -0.453125 0.53125q0.0625 0.484375 0.578125 0.453125q3.640625 -0.359375 5.703125 -2.6875q2.078125 -2.375 2.078125 -6.296875l0 -2.875q0 -0.8125 -0.546875 -1.28125q-0.515625 -0.46875 -1.453125 -0.46875zm-0.140625 4.71875q-1.0625 0.265625 -2.859375 0.5q-1.796875 0.21875 -2.96875 0.21875q-0.53125 0 -0.53125 0.484375q0 0.484375 0.546875 0.484375q1.234375 0 3.140625 -0.265625q1.84375 -0.234375 2.96875 -0.53125q0.234375 -0.078125 0.359375 -0.265625q0.109375 -0.15625 0.046875 -0.328125q-0.046875 -0.1875 -0.234375 -0.28125q-0.1875 -0.09375 -0.46875 -0.015625zm6.828125 2.015625l0 -6.78125q0 -0.25 -0.1875 -0.390625q-0.140625 -0.109375 -0.375 -0.109375q-0.21875 0 -0.359375 0.109375q-0.171875 0.140625 -0.171875 0.390625l0 14.46875q0 0.25 0.171875 0.390625q0.140625 0.15625 0.359375 0.15625q0.234375 0 0.375 -0.15625q0.1875 -0.140625 0.1875 -0.390625l0 -6.765625l2.0625 0q0.4375 0 0.4375 -0.46875q0 -0.453125 -0.4375 -0.453125l-2.0625 0z" fill-rule="nonzero"/><path fill="#000000" d="m266.45932 400.44653q-1.75 0.234375 -4.765625 0.359375q-2.609375 0.125 -5.390625 0.125q-0.5625 0 -0.5625 0.453125q0 0.484375 0.5625 0.484375q2.78125 0 5.578125 -0.125q3.03125 -0.125 4.796875 -0.359375q0.21875 -0.03125 0.359375 -0.203125q0.09375 -0.140625 0.046875 -0.34375q-0.03125 -0.1875 -0.1875 -0.296875q-0.171875 -0.140625 -0.4375 -0.09375zm0.375 -3.109375l-10.25 0q-0.5 0 -0.515625 0.484375q0 0.484375 0.5 0.484375l10.203125 0q0.46875 0 0.65625 0.171875q0.140625 0.171875 0.140625 0.515625l0 1.671875q0 1.078125 -0.1875 1.859375q-0.25 1.046875 -0.890625 1.9375l1.15625 0q0.5625 -0.765625 0.8125 -1.828125q0.21875 -0.890625 0.21875 -1.953125l0 -1.828125q0 -0.671875 -0.5 -1.078125q-0.5 -0.4375 -1.34375 -0.4375zm2.78125 6.578125l-14.421875 0q-0.5 0 -0.53125 0.453125q-0.046875 0.46875 0.40625 0.46875l14.671875 0q0.203125 0 0.3125 -0.140625q0.109375 -0.140625 0.109375 -0.328125q-0.015625 -0.203125 -0.140625 -0.328125q-0.171875 -0.125 -0.40625 -0.125zm-2.640625 2.59375l-10.296875 0q-0.5625 0 -0.578125 0.46875q0 0.484375 0.5625 0.484375l10.1875 0q0.390625 0 0.546875 0.125q0.171875 0.140625 0.171875 0.46875l0 0.453125q0 0.25 -0.1875 0.359375q-0.15625 0.109375 -0.5 0.109375l-9.3125 0q-0.6875 0 -1.0625 0.359375q-0.359375 0.359375 -0.359375 0.96875l0 0.828125q0 0.578125 0.34375 0.90625q0.359375 0.359375 0.984375 0.359375l10.90625 0q0.25 0 0.375 -0.15625q0.125 -0.140625 0.125 -0.328125q-0.015625 -0.1875 -0.140625 -0.34375q-0.171875 -0.125 -0.421875 -0.125l-10.4375 0q-0.328125 0 -0.484375 -0.109375q-0.140625 -0.109375 -0.140625 -0.390625l0 -0.453125q0 -0.265625 0.125 -0.421875q0.15625 -0.140625 0.515625 -0.140625l9.421875 0q0.59375 0 0.96875 -0.390625q0.390625 -0.359375 0.390625 -0.890625l0 -0.890625q0 -0.578125 -0.515625 -0.9375q-0.484375 -0.3125 -1.1875 -0.3125zm12.875 -8.90625l-4.859375 0q-0.59375 0 -0.59375 0.46875q-0.015625 0.453125 0.5625 0.453125l4.53125 0q0.546875 0 0.8125 0.171875q0.234375 0.1875 0.234375 0.578125l0 3.359375q0 0.375 -0.234375 0.53125q-0.21875 0.15625 -0.703125 0.15625l-3.5 0q-0.734375 0 -1.203125 0.515625q-0.40625 0.484375 -0.40625 1.171875l0 4.078125q0 0.875 0.453125 1.390625q0.46875 0.578125 1.359375 0.578125q2.0625 0 3.984375 -0.3125q1.9375 -0.3125 3.40625 -0.890625q0.21875 -0.109375 0.28125 -0.3125q0.046875 -0.1875 -0.015625 -0.375q-0.09375 -0.1875 -0.28125 -0.265625q-0.203125 -0.09375 -0.453125 0.015625q-1.25 0.53125 -2.875 0.84375q-1.84375 0.375 -3.765625 0.375q-0.546875 0 -0.78125 -0.265625q-0.21875 -0.234375 -0.21875 -0.71875l0 -4.0q0 -0.484375 0.171875 -0.6875q0.1875 -0.21875 0.640625 -0.21875l3.390625 0q0.9375 0 1.40625 -0.40625q0.421875 -0.375 0.421875 -1.0625l0 -3.765625q0 -0.6875 -0.484375 -1.046875q-0.453125 -0.359375 -1.28125 -0.359375zm7.53125 14.34375l0 -14.3125q0 -0.265625 -0.171875 -0.421875q-0.15625 -0.125 -0.375 -0.125q-0.25 0 -0.390625 0.125q-0.171875 0.15625 -0.171875 0.421875l0 6.078125l-3.171875 0q-0.265625 0 -0.390625 0.125q-0.125 0.15625 -0.125 0.328125q0.015625 0.1875 0.171875 0.34375q0.15625 0.140625 0.4375 0.140625l3.078125 0l0 7.296875q0 0.3125 0.171875 0.5q0.140625 0.171875 0.390625 0.171875q0.21875 0 0.375 -0.171875q0.171875 -0.203125 0.171875 -0.5zm12.5 -14.078125q0 2.875 -1.984375 4.90625q-1.71875 1.765625 -4.015625 2.234375q-0.296875 0.046875 -0.421875 0.234375q-0.140625 0.15625 -0.109375 0.359375q0.03125 0.1875 0.203125 0.296875q0.1875 0.109375 0.453125 0.078125q2.25 -0.453125 4.09375 -2.140625q1.75 -1.578125 2.3125 -3.453125q0.59375 1.859375 2.3125 3.453125q1.828125 1.671875 3.984375 2.109375q0.3125 0.0625 0.53125 -0.046875q0.1875 -0.109375 0.21875 -0.3125q0.0625 -0.203125 -0.0625 -0.375q-0.15625 -0.1875 -0.4375 -0.25q-2.421875 -0.5 -4.09375 -2.21875q-1.921875 -1.984375 -1.921875 -4.84375q0 -0.296875 -0.171875 -0.484375q-0.15625 -0.140625 -0.359375 -0.140625q-0.21875 0 -0.375 0.140625q-0.15625 0.171875 -0.15625 0.453125zm7.734375 12.5l-14.40625 0q-0.546875 0 -0.546875 0.46875q0 0.484375 0.546875 0.484375l14.421875 0q0.234375 0 0.390625 -0.15625q0.140625 -0.140625 0.140625 -0.328125q0 -0.1875 -0.140625 -0.34375q-0.15625 -0.125 -0.40625 -0.125zm12.296875 -12.734375l-5.53125 0q-0.9375 0 -1.4375 0.5625q-0.453125 0.484375 -0.453125 1.25l0 9.859375q0 0.875 0.390625 1.34375q0.453125 0.53125 1.375 0.53125q2.34375 0 4.25 -0.25q1.96875 -0.265625 3.21875 -0.75q0.546875 -0.234375 0.359375 -0.6875q-0.171875 -0.4375 -0.703125 -0.234375q-1.34375 0.5 -3.078125 0.734375q-1.734375 0.25 -4.03125 0.25q-0.375 0 -0.53125 -0.265625q-0.15625 -0.203125 -0.15625 -0.625l0 -5.03125l5.71875 0q0.53125 0 0.53125 -0.484375q0 -0.46875 -0.53125 -0.46875l-5.71875 0l0 -3.921875q0 -0.421875 0.171875 -0.640625q0.203125 -0.21875 0.609375 -0.21875l5.578125 0q0.28125 0 0.453125 -0.15625q0.140625 -0.140625 0.140625 -0.328125q-0.015625 -0.1875 -0.15625 -0.328125q-0.1875 -0.140625 -0.46875 -0.140625zm5.46875 14.3125l0 -14.3125q0 -0.265625 -0.171875 -0.421875q-0.15625 -0.125 -0.375 -0.125q-0.25 0 -0.390625 0.125q-0.171875 0.15625 -0.171875 0.421875l0 6.078125l-3.171875 0q-0.265625 0 -0.390625 0.125q-0.125 0.15625 -0.125 0.328125q0.015625 0.1875 0.171875 0.34375q0.15625 0.140625 0.4375 0.140625l3.078125 0l0 7.296875q0 0.3125 0.171875 0.5q0.140625 0.171875 0.390625 0.171875q0.21875 0 0.375 -0.171875q0.171875 -0.203125 0.171875 -0.5z" fill-rule="nonzero"/><g filter="url(#shadowFilter-g11ddf0a0acf_1_364.3)"><use xlink:href="#g11ddf0a0acf_1_364.3" transform="matrix(1.0 0.0 0.0 1.0 0.0 2.0)"/></g><defs><filter id="shadowFilter-g11ddf0a0acf_1_364.3" filterUnits="userSpaceOnUse"><feGaussianBlur in="SourceAlpha" stdDeviation="2.0" result="blur"/><feComponentTransfer in="blur" color-interpolation-filters="sRGB"><feFuncR type="linear" slope="0" intercept="0.0"/><feFuncG type="linear" slope="0" intercept="0.0"/><feFuncB type="linear" slope="0" intercept="0.0"/><feFuncA type="linear" slope="0.5" intercept="0"/></feComponentTransfer></filter></defs><g id="g11ddf0a0acf_1_364.3"><path fill="#eeeeee" d="m131.61417 106.27821l258.17322 0l0 61.95276l-258.17322 0z" fill-rule="evenodd"/><path stroke="#595959" stroke-width="1.0" stroke-linejoin="round" stroke-linecap="butt" d="m131.61417 106.27821l258.17322 0l0 61.95276l-258.17322 0z" fill-rule="evenodd"/><path fill="#000000" d="m142.98917 130.73709l0 1.03125l6.953125 0q-0.09375 0.8125 -0.234375 1.5q-0.15625 0.703125 -0.40625 1.5q-1.578125 0.21875 -3.78125 0.375q-1.921875 0.125 -3.234375 0.125l0.4375 1.078125q0.140625 0.25 0.234375 0.28125q0.0625 0.015625 0.25 -0.09375q0.15625 -0.09375 0.265625 -0.140625q0.1875 -0.09375 0.390625 -0.109375l5.0 -0.484375q-0.828125 1.84375 -2.71875 3.453125q-1.90625 1.65625 -4.171875 2.390625l1.015625 1.03125q3.53125 -1.578125 5.5625 -4.265625q2.328125 -3.078125 2.75 -7.671875l-8.3125 0zm12.484375 -1.6875l-0.78125 0l0 16.625l1.25 0l0 -8.453125l2.9375 0l0 -1.046875l-2.9375 0l0 -6.421875q0 -0.09375 0.015625 -0.1875q0.015625 -0.0625 0.078125 -0.15625q0.109375 -0.203125 0.03125 -0.265625q-0.09375 -0.09375 -0.59375 -0.09375zm7.703125 1.34375l0 0.953125l11.875 0l0 -0.953125l-11.875 0zm3.1875 1.8125l-0.875 0l0.5625 4.421875l-2.609375 0l0 0.9375l11.34375 0l0 -0.9375l-2.671875 0l0.5 -3.703125q0.03125 -0.109375 0.09375 -0.21875q0.046875 -0.046875 0.140625 -0.140625q0.125 -0.140625 0.09375 -0.1875q-0.046875 -0.078125 -0.40625 -0.140625l-0.984375 -0.15625l-0.59375 4.546875l-3.703125 0l-0.453125 -3.8125q-0.03125 -0.09375 0.015625 -0.203125q0.015625 -0.046875 0.046875 -0.140625q0.09375 -0.15625 0.046875 -0.203125q-0.09375 -0.0625 -0.546875 -0.0625zm-5.078125 10.078125l0 1.015625l15.65625 0l0 -1.015625l-15.65625 0zm19.703125 -11.546875l0 1.03125l6.953125 0q-0.09375 0.8125 -0.234375 1.5q-0.15625 0.703125 -0.40625 1.5q-1.578125 0.21875 -3.78125 0.375q-1.921875 0.125 -3.234375 0.125l0.4375 1.078125q0.140625 0.25 0.234375 0.28125q0.0625 0.015625 0.25 -0.09375q0.15625 -0.09375 0.265625 -0.140625q0.1875 -0.09375 0.390625 -0.109375l5.0 -0.484375q-0.828125 1.84375 -2.71875 3.453125q-1.90625 1.65625 -4.171875 2.390625l1.015625 1.03125q3.53125 -1.578125 5.5625 -4.265625q2.328125 -3.078125 2.75 -7.671875l-8.3125 0zm12.484375 -1.6875l-0.78125 0l0 16.625l1.25 0l0 -8.453125l2.9375 0l0 -1.046875l-2.9375 0l0 -6.421875q0 -0.09375 0.015625 -0.1875q0.015625 -0.0625 0.078125 -0.15625q0.109375 -0.203125 0.03125 -0.265625q-0.09375 -0.09375 -0.59375 -0.09375zm24.423828 4.515625l0 2.984375l-8.875 0l0 -2.984375l8.875 0zm-9.21875 -3.265625l-0.890625 0l0 7.21875l11.34375 0l0 -6.796875q0 -0.0625 0.03125 -0.125q0.015625 -0.015625 0.046875 -0.09375q0.0625 -0.109375 0.015625 -0.15625q-0.046875 -0.046875 -0.34375 -0.046875l-0.984375 0l0 2.3125l-8.875 0l0 -1.890625q0 -0.0625 0.015625 -0.109375q0.03125 -0.03125 0.0625 -0.09375q0.09375 -0.125 0.0625 -0.171875q-0.078125 -0.046875 -0.484375 -0.046875zm-3.046875 11.984375l0 1.015625l15.65625 0l0 -1.015625l-15.65625 0zm21.09375 -11.59375l0 1.03125l10.25 0l0 2.640625l-10.15625 0l0 4.75l5.140625 0l0 3.265625l-7.421875 0l0 1.03125l16.15625 0l0 -1.03125l-7.453125 0l0 -3.265625l5.34375 0l0 -0.984375l-10.546875 0l0 -2.828125l10.140625 0l0 -4.609375l-11.453125 0zm17.046875 0.046875l0 1.03125l6.96875 0q-0.078125 0.90625 -0.25 1.65625q-0.125 0.671875 -0.40625 1.53125q-1.59375 0.21875 -3.78125 0.375q-1.953125 0.140625 -3.234375 0.140625l0.453125 1.0625q0.125 0.25 0.21875 0.28125q0.078125 0.015625 0.265625 -0.09375q0.140625 -0.09375 0.25 -0.140625q0.1875 -0.09375 0.390625 -0.109375l5.015625 -0.484375q-0.84375 1.796875 -2.734375 3.359375q-1.875 1.546875 -4.15625 2.296875l1.0 1.03125q3.5625 -1.59375 5.578125 -4.21875q2.3125 -3.046875 2.734375 -7.71875l-8.3125 0zm8.078125 5.0l0 1.03125l4.1875 0l0 8.90625l1.25 0l0 -15.96875q0 -0.078125 0.015625 -0.171875q0.015625 -0.0625 0.078125 -0.140625q0.09375 -0.1875 0.046875 -0.25q-0.03125 -0.09375 -0.359375 -0.09375l-1.03125 0l0 6.6875l-4.1875 0zm21.970703 -5.125l-1.046875 0l-1.203125 4.640625l-2.609375 0l-0.25 0.8125l2.640625 0l-0.703125 2.640625l-2.640625 0l-0.25 0.828125l2.671875 0l-1.234375 4.578125l1.015625 0l1.234375 -4.578125l2.6875 0l-1.21875 4.578125l1.015625 0l1.203125 -4.578125l2.734375 0l0.234375 -0.828125l-2.75 0l0.734375 -2.640625l2.484375 0l0.21875 -0.8125l-2.5 0l1.21875 -4.640625l-1.015625 0l-1.234375 4.640625l-2.6875 0l1.25 -4.640625zm1.21875 5.453125l-0.6875 2.640625l-2.6875 0l0.6875 -2.640625l2.6875 0zm5.328125 1.28125q0 3.34375 1.109375 5.109375q1.140625 1.734375 3.25 1.734375q2.09375 0 3.21875 -1.734375q1.140625 -1.765625 1.140625 -5.09375q0 -3.34375 -1.140625 -5.09375q-1.125 -1.75 -3.21875 -1.75q-2.109375 0 -3.25 1.71875q-1.109375 1.765625 -1.109375 5.109375zm1.296875 0q0 -2.90625 0.75 -4.3125q0.734375 -1.390625 2.3125 -1.390625q1.546875 0 2.296875 1.390625q0.765625 1.40625 0.765625 4.3125q0 2.890625 -0.765625 4.296875q-0.75 1.421875 -2.296875 1.421875q-1.578125 0 -2.3125 -1.421875q-0.75 -1.40625 -0.75 -4.296875z" fill-rule="nonzero"/></g><g filter="url(#shadowFilter-g11ddf0a0acf_1_364.4)"><use xlink:href="#g11ddf0a0acf_1_364.4" transform="matrix(1.0 0.0 0.0 1.0 0.0 2.0)"/></g><defs><filter id="shadowFilter-g11ddf0a0acf_1_364.4" filterUnits="userSpaceOnUse"><feGaussianBlur in="SourceAlpha" stdDeviation="2.0" result="blur"/><feComponentTransfer in="blur" color-interpolation-filters="sRGB"><feFuncR type="linear" slope="0" intercept="0.0"/><feFuncG type="linear" slope="0" intercept="0.0"/><feFuncB type="linear" slope="0" intercept="0.0"/><feFuncA type="linear" slope="0.5" intercept="0"/></feComponentTransfer></filter></defs><g id="g11ddf0a0acf_1_364.4"><path fill="#eeeeee" d="m131.61417 201.57216l258.17322 0l0 61.952744l-258.17322 0z" fill-rule="evenodd"/><path stroke="#595959" stroke-width="1.0" stroke-linejoin="round" stroke-linecap="butt" d="m131.61417 201.57216l258.17322 0l0 61.952744l-258.17322 0z" fill-rule="evenodd"/><path fill="#000000" d="m142.98917 226.03104l0 1.03125l6.953125 0q-0.09375 0.8125 -0.234375 1.5q-0.15625 0.703125 -0.40625 1.5q-1.578125 0.21875 -3.78125 0.375q-1.921875 0.125 -3.234375 0.125l0.4375 1.078125q0.140625 0.25 0.234375 0.28125q0.0625 0.015625 0.25 -0.09375q0.15625 -0.09375 0.265625 -0.140625q0.1875 -0.09375 0.390625 -0.109375l5.0 -0.484375q-0.828125 1.84375 -2.71875 3.453125q-1.90625 1.65625 -4.171875 2.390625l1.015625 1.03125q3.53125 -1.578125 5.5625 -4.265625q2.328125 -3.078125 2.75 -7.671875l-8.3125 0zm12.484375 -1.6875l-0.78125 0l0 16.625l1.25 0l0 -8.453125l2.9375 0l0 -1.046875l-2.9375 0l0 -6.421875q0 -0.09375 0.015625 -0.1875q0.015625 -0.0625 0.078125 -0.15625q0.109375 -0.203125 0.03125 -0.265625q-0.09375 -0.09375 -0.59375 -0.09375zm7.703125 1.34375l0 0.953125l11.875 0l0 -0.953125l-11.875 0zm3.1875 1.8125l-0.875 0l0.5625 4.421875l-2.609375 0l0 0.9375l11.34375 0l0 -0.9375l-2.671875 0l0.5 -3.703125q0.03125 -0.109375 0.09375 -0.21875q0.046875 -0.046875 0.140625 -0.140625q0.125 -0.140625 0.09375 -0.1875q-0.046875 -0.078125 -0.40625 -0.140625l-0.984375 -0.15625l-0.59375 4.546875l-3.703125 0l-0.453125 -3.8125q-0.03125 -0.09375 0.015625 -0.203125q0.015625 -0.046875 0.046875 -0.140625q0.09375 -0.15625 0.046875 -0.203125q-0.09375 -0.0625 -0.546875 -0.0625zm-5.078125 10.078125l0 1.015625l15.65625 0l0 -1.015625l-15.65625 0zm19.703125 -11.546875l0 1.03125l6.953125 0q-0.09375 0.8125 -0.234375 1.5q-0.15625 0.703125 -0.40625 1.5q-1.578125 0.21875 -3.78125 0.375q-1.921875 0.125 -3.234375 0.125l0.4375 1.078125q0.140625 0.25 0.234375 0.28125q0.0625 0.015625 0.25 -0.09375q0.15625 -0.09375 0.265625 -0.140625q0.1875 -0.09375 0.390625 -0.109375l5.0 -0.484375q-0.828125 1.84375 -2.71875 3.453125q-1.90625 1.65625 -4.171875 2.390625l1.015625 1.03125q3.53125 -1.578125 5.5625 -4.265625q2.328125 -3.078125 2.75 -7.671875l-8.3125 0zm12.484375 -1.6875l-0.78125 0l0 16.625l1.25 0l0 -8.453125l2.9375 0l0 -1.046875l-2.9375 0l0 -6.421875q0 -0.09375 0.015625 -0.1875q0.015625 -0.0625 0.078125 -0.15625q0.109375 -0.203125 0.03125 -0.265625q-0.09375 -0.09375 -0.59375 -0.09375zm24.423828 4.515625l0 2.984375l-8.875 0l0 -2.984375l8.875 0zm-9.21875 -3.265625l-0.890625 0l0 7.21875l11.34375 0l0 -6.796875q0 -0.0625 0.03125 -0.125q0.015625 -0.015625 0.046875 -0.09375q0.0625 -0.109375 0.015625 -0.15625q-0.046875 -0.046875 -0.34375 -0.046875l-0.984375 0l0 2.3125l-8.875 0l0 -1.890625q0 -0.0625 0.015625 -0.109375q0.03125 -0.03125 0.0625 -0.09375q0.09375 -0.125 0.0625 -0.171875q-0.078125 -0.046875 -0.484375 -0.046875zm-3.046875 11.984375l0 1.015625l15.65625 0l0 -1.015625l-15.65625 0zm21.09375 -11.59375l0 1.03125l10.25 0l0 2.640625l-10.15625 0l0 4.75l5.140625 0l0 3.265625l-7.421875 0l0 1.03125l16.15625 0l0 -1.03125l-7.453125 0l0 -3.265625l5.34375 0l0 -0.984375l-10.546875 0l0 -2.828125l10.140625 0l0 -4.609375l-11.453125 0zm17.046875 0.046875l0 1.03125l6.96875 0q-0.078125 0.90625 -0.25 1.65625q-0.125 0.671875 -0.40625 1.53125q-1.59375 0.21875 -3.78125 0.375q-1.953125 0.140625 -3.234375 0.140625l0.453125 1.0625q0.125 0.25 0.21875 0.28125q0.078125 0.015625 0.265625 -0.09375q0.140625 -0.09375 0.25 -0.140625q0.1875 -0.09375 0.390625 -0.109375l5.015625 -0.484375q-0.84375 1.796875 -2.734375 3.359375q-1.875 1.546875 -4.15625 2.296875l1.0 1.03125q3.5625 -1.59375 5.578125 -4.21875q2.3125 -3.046875 2.734375 -7.71875l-8.3125 0zm8.078125 5.0l0 1.03125l4.1875 0l0 8.90625l1.25 0l0 -15.96875q0 -0.078125 0.015625 -0.171875q0.015625 -0.0625 0.078125 -0.140625q0.09375 -0.1875 0.046875 -0.25q-0.03125 -0.09375 -0.359375 -0.09375l-1.03125 0l0 6.6875l-4.1875 0zm21.970703 -5.125l-1.046875 0l-1.203125 4.640625l-2.609375 0l-0.25 0.8125l2.640625 0l-0.703125 2.640625l-2.640625 0l-0.25 0.828125l2.671875 0l-1.234375 4.578125l1.015625 0l1.234375 -4.578125l2.6875 0l-1.21875 4.578125l1.015625 0l1.203125 -4.578125l2.734375 0l0.234375 -0.828125l-2.75 0l0.734375 -2.640625l2.484375 0l0.21875 -0.8125l-2.5 0l1.21875 -4.640625l-1.015625 0l-1.234375 4.640625l-2.6875 0l1.25 -4.640625zm1.21875 5.453125l-0.6875 2.640625l-2.6875 0l0.6875 -2.640625l2.6875 0zm9.21875 7.734375l1.25 0l0 -13.28125l-1.09375 0q-0.09375 1.375 -0.90625 2.0q-0.828125 0.640625 -2.453125 0.640625l-0.09375 0l0 0.8125l0.203125 0q1.109375 0 1.875 -0.1875q0.765625 -0.1875 1.21875 -0.5625l0 10.578125z" fill-rule="nonzero"/></g><g filter="url(#shadowFilter-g11ddf0a0acf_1_364.5)"><use xlink:href="#g11ddf0a0acf_1_364.5" transform="matrix(1.0 0.0 0.0 1.0 0.0 2.0)"/></g><defs><filter id="shadowFilter-g11ddf0a0acf_1_364.5" filterUnits="userSpaceOnUse"><feGaussianBlur in="SourceAlpha" stdDeviation="2.0" result="blur"/><feComponentTransfer in="blur" color-interpolation-filters="sRGB"><feFuncR type="linear" slope="0" intercept="0.0"/><feFuncG type="linear" slope="0" intercept="0.0"/><feFuncB type="linear" slope="0" intercept="0.0"/><feFuncA type="linear" slope="0.5" intercept="0"/></feComponentTransfer></filter></defs><g id="g11ddf0a0acf_1_364.5"><path fill="#eeeeee" d="m131.61417 296.8661l258.17322 0l0 61.95276l-258.17322 0z" fill-rule="evenodd"/><path stroke="#595959" stroke-width="1.0" stroke-linejoin="round" stroke-linecap="butt" d="m131.61417 296.8661l258.17322 0l0 61.95276l-258.17322 0z" fill-rule="evenodd"/><path fill="#000000" d="m142.98917 321.32498l0 1.03125l6.953125 0q-0.09375 0.8125 -0.234375 1.5q-0.15625 0.703125 -0.40625 1.5q-1.578125 0.21875 -3.78125 0.375q-1.921875 0.125 -3.234375 0.125l0.4375 1.078125q0.140625 0.25 0.234375 0.28125q0.0625 0.015625 0.25 -0.09375q0.15625 -0.09375 0.265625 -0.140625q0.1875 -0.09375 0.390625 -0.109375l5.0 -0.484375q-0.828125 1.84375 -2.71875 3.453125q-1.90625 1.65625 -4.171875 2.390625l1.015625 1.03125q3.53125 -1.578125 5.5625 -4.265625q2.328125 -3.078125 2.75 -7.671875l-8.3125 0zm12.484375 -1.6875l-0.78125 0l0 16.625l1.25 0l0 -8.453125l2.9375 0l0 -1.046875l-2.9375 0l0 -6.421875q0 -0.09375 0.015625 -0.1875q0.015625 -0.0625 0.078125 -0.15625q0.109375 -0.203125 0.03125 -0.265625q-0.09375 -0.09375 -0.59375 -0.09375zm7.703125 1.34375l0 0.953125l11.875 0l0 -0.953125l-11.875 0zm3.1875 1.8125l-0.875 0l0.5625 4.421875l-2.609375 0l0 0.9375l11.34375 0l0 -0.9375l-2.671875 0l0.5 -3.703125q0.03125 -0.109375 0.09375 -0.21875q0.046875 -0.046875 0.140625 -0.140625q0.125 -0.140625 0.09375 -0.1875q-0.046875 -0.078125 -0.40625 -0.140625l-0.984375 -0.15625l-0.59375 4.546875l-3.703125 0l-0.453125 -3.8125q-0.03125 -0.09375 0.015625 -0.203125q0.015625 -0.046875 0.046875 -0.140625q0.09375 -0.15625 0.046875 -0.203125q-0.09375 -0.0625 -0.546875 -0.0625zm-5.078125 10.078125l0 1.015625l15.65625 0l0 -1.015625l-15.65625 0zm19.703125 -11.546875l0 1.03125l6.953125 0q-0.09375 0.8125 -0.234375 1.5q-0.15625 0.703125 -0.40625 1.5q-1.578125 0.21875 -3.78125 0.375q-1.921875 0.125 -3.234375 0.125l0.4375 1.078125q0.140625 0.25 0.234375 0.28125q0.0625 0.015625 0.25 -0.09375q0.15625 -0.09375 0.265625 -0.140625q0.1875 -0.09375 0.390625 -0.109375l5.0 -0.484375q-0.828125 1.84375 -2.71875 3.453125q-1.90625 1.65625 -4.171875 2.390625l1.015625 1.03125q3.53125 -1.578125 5.5625 -4.265625q2.328125 -3.078125 2.75 -7.671875l-8.3125 0zm12.484375 -1.6875l-0.78125 0l0 16.625l1.25 0l0 -8.453125l2.9375 0l0 -1.046875l-2.9375 0l0 -6.421875q0 -0.09375 0.015625 -0.1875q0.015625 -0.0625 0.078125 -0.15625q0.109375 -0.203125 0.03125 -0.265625q-0.09375 -0.09375 -0.59375 -0.09375zm24.423828 4.515625l0 2.984375l-8.875 0l0 -2.984375l8.875 0zm-9.21875 -3.265625l-0.890625 0l0 7.21875l11.34375 0l0 -6.796875q0 -0.0625 0.03125 -0.125q0.015625 -0.015625 0.046875 -0.09375q0.0625 -0.109375 0.015625 -0.15625q-0.046875 -0.046875 -0.34375 -0.046875l-0.984375 0l0 2.3125l-8.875 0l0 -1.890625q0 -0.0625 0.015625 -0.109375q0.03125 -0.03125 0.0625 -0.09375q0.09375 -0.125 0.0625 -0.171875q-0.078125 -0.046875 -0.484375 -0.046875zm-3.046875 11.984375l0 1.015625l15.65625 0l0 -1.015625l-15.65625 0zm21.09375 -11.59375l0 1.03125l10.25 0l0 2.640625l-10.15625 0l0 4.75l5.140625 0l0 3.265625l-7.421875 0l0 1.03125l16.15625 0l0 -1.03125l-7.453125 0l0 -3.265625l5.34375 0l0 -0.984375l-10.546875 0l0 -2.828125l10.140625 0l0 -4.609375l-11.453125 0zm17.046875 0.046875l0 1.03125l6.96875 0q-0.078125 0.90625 -0.25 1.65625q-0.125 0.671875 -0.40625 1.53125q-1.59375 0.21875 -3.78125 0.375q-1.953125 0.140625 -3.234375 0.140625l0.453125 1.0625q0.125 0.25 0.21875 0.28125q0.078125 0.015625 0.265625 -0.09375q0.140625 -0.09375 0.25 -0.140625q0.1875 -0.09375 0.390625 -0.109375l5.015625 -0.484375q-0.84375 1.796875 -2.734375 3.359375q-1.875 1.546875 -4.15625 2.296875l1.0 1.03125q3.5625 -1.59375 5.578125 -4.21875q2.3125 -3.046875 2.734375 -7.71875l-8.3125 0zm8.078125 5.0l0 1.03125l4.1875 0l0 8.90625l1.25 0l0 -15.96875q0 -0.078125 0.015625 -0.171875q0.015625 -0.0625 0.078125 -0.140625q0.09375 -0.1875 0.046875 -0.25q-0.03125 -0.09375 -0.359375 -0.09375l-1.03125 0l0 6.6875l-4.1875 0zm21.970703 -5.125l-1.046875 0l-1.203125 4.640625l-2.609375 0l-0.25 0.8125l2.640625 0l-0.703125 2.640625l-2.640625 0l-0.25 0.828125l2.671875 0l-1.234375 4.578125l1.015625 0l1.234375 -4.578125l2.6875 0l-1.21875 4.578125l1.015625 0l1.203125 -4.578125l2.734375 0l0.234375 -0.828125l-2.75 0l0.734375 -2.640625l2.484375 0l0.21875 -0.8125l-2.5 0l1.21875 -4.640625l-1.015625 0l-1.234375 4.640625l-2.6875 0l1.25 -4.640625zm1.21875 5.453125l-0.6875 2.640625l-2.6875 0l0.6875 -2.640625l2.6875 0zm5.265625 7.734375l8.578125 0l0 -1.046875l-7.328125 0q0.078125 -0.984375 0.78125 -1.78125q0.671875 -0.765625 2.078125 -1.5625l0.921875 -0.546875q1.03125 -0.5625 1.4375 -0.84375q0.71875 -0.484375 1.125 -0.9375q0.546875 -0.59375 0.796875 -1.234375q0.265625 -0.65625 0.265625 -1.46875q0 -1.78125 -1.09375 -2.828125q-1.078125 -1.03125 -2.921875 -1.03125q-2.015625 0 -3.15625 1.15625q-1.109375 1.125 -1.15625 3.265625l1.25 0q0 -1.625 0.78125 -2.453125q0.765625 -0.84375 2.234375 -0.84375q1.3125 0 2.0625 0.71875q0.75 0.71875 0.75 2.03125q0 0.640625 -0.203125 1.109375q-0.1875 0.46875 -0.609375 0.96875q-0.3125 0.3125 -0.875 0.6875q-0.328125 0.21875 -1.140625 0.703125l-1.328125 0.796875q-1.6875 1.046875 -2.4375 2.125q-0.8125 1.140625 -0.8125 2.625l0 0.390625z" fill-rule="nonzero"/></g><path fill="#000000" fill-opacity="0.0" d="m389.78738 137.2546l260.2205 94.17323" fill-rule="evenodd"/><path stroke="#595959" stroke-width="3.0" stroke-linejoin="round" stroke-linecap="butt" d="m406.71313 143.37997l226.36902 81.922485" fill-rule="evenodd"/><path fill="#595959" stroke="#595959" stroke-width="3.0" stroke-linecap="butt" d="m408.39935 138.72052l-14.488007 0.026519775l11.115509 9.292389z" fill-rule="evenodd"/><path fill="#595959" stroke="#595959" stroke-width="3.0" stroke-linecap="butt" d="m631.39594 229.9619l14.487976 -0.026535034l-11.1154785 -9.292374z" fill-rule="evenodd"/><path fill="#000000" fill-opacity="0.0" d="m389.78738 232.54854l260.2205 -1.102356" fill-rule="evenodd"/><path stroke="#595959" stroke-width="3.0" stroke-linejoin="round" stroke-linecap="butt" d="m407.78723 232.47227l224.22083 -0.94984436" fill-rule="evenodd"/><path fill="#595959" stroke="#595959" stroke-width="3.0" stroke-linecap="butt" d="m407.76624 227.51714l-13.59317 5.0128174l13.635162 4.897476z" fill-rule="evenodd"/><path fill="#595959" stroke="#595959" stroke-width="3.0" stroke-linecap="butt" d="m632.02905 236.47758l13.59314 -5.0128326l-13.635132 -4.897476z" fill-rule="evenodd"/><path fill="#000000" fill-opacity="0.0" d="m389.78738 327.84247l260.2205 -96.40944" fill-rule="evenodd"/><path stroke="#595959" stroke-width="3.0" stroke-linejoin="round" stroke-linecap="butt" d="m406.66623 321.58902l226.46286 -83.90254" fill-rule="evenodd"/><path fill="#595959" stroke="#595959" stroke-width="3.0" stroke-linecap="butt" d="m404.9447 316.94247l-11.044769 9.376343l14.487793 -0.08325195z" fill-rule="evenodd"/><path fill="#595959" stroke="#595959" stroke-width="3.0" stroke-linecap="butt" d="m634.8506 242.33304l11.044739 -9.376358l-14.487793 0.08325195z" fill-rule="evenodd"/><path fill="#b7b7b7" d="m312.27823 123.249344l0 0c0 -3.8674393 14.458496 -7.0026245 32.293945 -7.0026245c17.83548 0 32.293976 3.1351852 32.293976 7.0026245l0 28.010498c0 3.867447 -14.458496 7.0026245 -32.293976 7.0026245c-17.83545 0 -32.293945 -3.1351776 -32.293945 -7.0026245z" fill-rule="evenodd"/><path fill="#000000" fill-opacity="0.0" d="m376.86615 123.249344l0 0c0 3.8674393 -14.458496 7.0026245 -32.293976 7.0026245c-17.83545 0 -32.293945 -3.1351852 -32.293945 -7.0026245" fill-rule="evenodd"/><path fill="#000000" fill-opacity="0.0" d="m312.27823 123.249344l0 0c0 -3.8674393 14.458496 -7.0026245 32.293945 -7.0026245c17.83548 0 32.293976 3.1351852 32.293976 7.0026245l0 28.010498c0 3.867447 -14.458496 7.0026245 -32.293976 7.0026245c-17.83545 0 -32.293945 -3.1351776 -32.293945 -7.0026245z" fill-rule="evenodd"/><path stroke="#595959" stroke-width="1.0" stroke-linejoin="round" stroke-linecap="butt" d="m376.86615 123.249344l0 0c0 3.8674393 -14.458496 7.0026245 -32.293976 7.0026245c-17.83545 0 -32.293945 -3.1351852 -32.293945 -7.0026245" fill-rule="evenodd"/><path stroke="#595959" stroke-width="1.0" stroke-linejoin="round" stroke-linecap="butt" d="m312.27823 123.249344l0 0c0 -3.8674393 14.458496 -7.0026245 32.293945 -7.0026245c17.83548 0 32.293976 3.1351852 32.293976 7.0026245l0 28.010498c0 3.867447 -14.458496 7.0026245 -32.293976 7.0026245c-17.83545 0 -32.293945 -3.1351776 -32.293945 -7.0026245z" fill-rule="evenodd"/><path fill="#b7b7b7" d="m312.27823 218.5433l0 0c0 -3.867447 14.458496 -7.0026245 32.293945 -7.0026245c17.83548 0 32.293976 3.1351776 32.293976 7.0026245l0 28.010498c0 3.867447 -14.458496 7.0026245 -32.293976 7.0026245c-17.83545 0 -32.293945 -3.1351776 -32.293945 -7.0026245z" fill-rule="evenodd"/><path fill="#000000" fill-opacity="0.0" d="m376.86615 218.5433l0 0c0 3.867447 -14.458496 7.0026245 -32.293976 7.0026245c-17.83545 0 -32.293945 -3.1351776 -32.293945 -7.0026245" fill-rule="evenodd"/><path fill="#000000" fill-opacity="0.0" d="m312.27823 218.5433l0 0c0 -3.867447 14.458496 -7.0026245 32.293945 -7.0026245c17.83548 0 32.293976 3.1351776 32.293976 7.0026245l0 28.010498c0 3.867447 -14.458496 7.0026245 -32.293976 7.0026245c-17.83545 0 -32.293945 -3.1351776 -32.293945 -7.0026245z" fill-rule="evenodd"/><path stroke="#595959" stroke-width="1.0" stroke-linejoin="round" stroke-linecap="butt" d="m376.86615 218.5433l0 0c0 3.867447 -14.458496 7.0026245 -32.293976 7.0026245c-17.83545 0 -32.293945 -3.1351776 -32.293945 -7.0026245" fill-rule="evenodd"/><path stroke="#595959" stroke-width="1.0" stroke-linejoin="round" stroke-linecap="butt" d="m312.27823 218.5433l0 0c0 -3.867447 14.458496 -7.0026245 32.293945 -7.0026245c17.83548 0 32.293976 3.1351776 32.293976 7.0026245l0 28.010498c0 3.867447 -14.458496 7.0026245 -32.293976 7.0026245c-17.83545 0 -32.293945 -3.1351776 -32.293945 -7.0026245z" fill-rule="evenodd"/><path fill="#b7b7b7" d="m312.27823 313.83728l0 0c0 -3.8674622 14.458496 -7.0026245 32.293945 -7.0026245c17.83548 0 32.293976 3.1351624 32.293976 7.0026245l0 28.010498c0 3.8674316 -14.458496 7.0026245 -32.293976 7.0026245c-17.83545 0 -32.293945 -3.1351929 -32.293945 -7.0026245z" fill-rule="evenodd"/><path fill="#000000" fill-opacity="0.0" d="m376.86615 313.83728l0 0c0 3.8674316 -14.458496 7.0026245 -32.293976 7.0026245c-17.83545 0 -32.293945 -3.1351929 -32.293945 -7.0026245" fill-rule="evenodd"/><path fill="#000000" fill-opacity="0.0" d="m312.27823 313.83728l0 0c0 -3.8674622 14.458496 -7.0026245 32.293945 -7.0026245c17.83548 0 32.293976 3.1351624 32.293976 7.0026245l0 28.010498c0 3.8674316 -14.458496 7.0026245 -32.293976 7.0026245c-17.83545 0 -32.293945 -3.1351929 -32.293945 -7.0026245z" fill-rule="evenodd"/><path stroke="#595959" stroke-width="1.0" stroke-linejoin="round" stroke-linecap="butt" d="m376.86615 313.83728l0 0c0 3.8674316 -14.458496 7.0026245 -32.293976 7.0026245c-17.83545 0 -32.293945 -3.1351929 -32.293945 -7.0026245" fill-rule="evenodd"/><path stroke="#595959" stroke-width="1.0" stroke-linejoin="round" stroke-linecap="butt" d="m312.27823 313.83728l0 0c0 -3.8674622 14.458496 -7.0026245 32.293945 -7.0026245c17.83548 0 32.293976 3.1351624 32.293976 7.0026245l0 28.010498c0 3.8674316 -14.458496 7.0026245 -32.293976 7.0026245c-17.83545 0 -32.293945 -3.1351929 -32.293945 -7.0026245z" fill-rule="evenodd"/><path fill="#000000" fill-opacity="0.0" d="m605.6483 148.63464l183.9685 0l0 42.015747l-183.9685 0z" fill-rule="evenodd"/><path fill="#000000" d="m628.5409 161.36714q-3.109375 0 -4.859375 1.25q-1.609375 1.1875 -1.609375 3.109375q0 1.875 1.609375 3.03125q1.75 1.25 4.859375 1.25q3.09375 0 4.84375 -1.25q1.625 -1.15625 1.625 -3.03125q0 -1.921875 -1.625 -3.109375q-1.75 -1.25 -4.84375 -1.25zm0 0.953125q2.59375 0 4.046875 0.96875q1.359375 0.90625 1.359375 2.4375q0 1.484375 -1.359375 2.390625q-1.453125 0.9375 -4.046875 0.9375q-2.609375 0 -4.0625 -0.9375q-1.34375 -0.890625 -1.34375 -2.390625q0 -1.53125 1.34375 -2.4375q1.453125 -0.96875 4.0625 -0.96875zm-0.53125 8.109375l0 3.84375l-6.671875 0q-0.25 0 -0.40625 0.125q-0.125 0.15625 -0.140625 0.34375q-0.03125 0.1875 0.09375 0.328125q0.109375 0.15625 0.3125 0.15625l14.5625 0q0.234375 0 0.390625 -0.15625q0.140625 -0.140625 0.140625 -0.328125q0 -0.1875 -0.140625 -0.34375q-0.15625 -0.125 -0.40625 -0.125l-6.671875 0l0 -3.765625q0 -0.265625 -0.171875 -0.40625q-0.15625 -0.15625 -0.359375 -0.15625q-0.21875 -0.015625 -0.375 0.109375q-0.15625 0.140625 -0.15625 0.375zm24.6875 -5.421875l0 2.640625q0 0.484375 -0.203125 0.671875q-0.203125 0.171875 -0.6875 0.171875l-8.53125 0q-0.5 0 -0.703125 -0.1875q-0.1875 -0.1875 -0.1875 -0.640625l0 -2.65625l10.3125 0zm0 -3.234375l0 2.28125l-10.3125 0l0 -2.28125q0 -0.28125 -0.1875 -0.4375q-0.140625 -0.125 -0.375 -0.125q-0.234375 0 -0.390625 0.125q-0.15625 0.171875 -0.15625 0.453125l0 6.109375q0 0.71875 0.484375 1.125q0.453125 0.390625 1.21875 0.390625l9.03125 0q0.859375 0 1.328125 -0.40625q0.46875 -0.40625 0.46875 -1.1875l0 -6.09375q0 -0.25 -0.171875 -0.40625q-0.15625 -0.125 -0.375 -0.125q-0.25 0 -0.390625 0.140625q-0.171875 0.15625 -0.171875 0.4375zm2.046875 12.5l-14.40625 0q-0.546875 0 -0.546875 0.46875q0 0.484375 0.546875 0.484375l14.421875 0q0.234375 0 0.390625 -0.15625q0.140625 -0.140625 0.140625 -0.328125q0 -0.1875 -0.140625 -0.34375q-0.15625 -0.125 -0.40625 -0.125zm11.5625 -12.859375l-6.171875 0q-0.515625 0 -0.515625 0.46875q-0.015625 0.484375 0.5 0.484375l2.53125 0l0 0.65625q0 2.109375 -1.046875 3.5q-0.734375 0.984375 -2.265625 1.890625q-0.25 0.125 -0.3125 0.34375q-0.03125 0.1875 0.09375 0.375q0.125 0.1875 0.359375 0.25q0.21875 0.0625 0.4375 -0.046875q1.140625 -0.640625 2.046875 -1.65625q0.90625 -1.0 1.234375 -1.921875q0.296875 0.90625 1.203125 1.859375q0.875 0.90625 2.0 1.5q0.171875 0.109375 0.40625 0.03125q0.1875 -0.09375 0.3125 -0.28125q0.125 -0.203125 0.09375 -0.375q-0.0625 -0.234375 -0.296875 -0.34375q-1.4375 -0.765625 -2.15625 -1.6875q-1.015625 -1.375 -1.015625 -3.46875l0 -0.625l2.5625 0q0.421875 0 0.4375 -0.484375q0 -0.46875 -0.4375 -0.46875zm2.09375 0.09375l0 3.34375l-2.234375 0q-0.515625 0 -0.515625 0.453125q-0.015625 0.484375 0.5 0.484375l2.25 0l0 3.109375q0 0.25 0.15625 0.421875q0.15625 0.125 0.390625 0.125q0.234375 0 0.375 -0.125q0.1875 -0.171875 0.1875 -0.421875l0 -7.421875q0 -0.25 -0.1875 -0.375q-0.140625 -0.125 -0.375 -0.109375q-0.234375 0 -0.390625 0.125q-0.15625 0.125 -0.15625 0.390625zm4.609375 7.390625l0 -7.421875q0 -0.25 -0.171875 -0.375q-0.15625 -0.125 -0.359375 -0.125q-0.21875 0 -0.375 0.125q-0.15625 0.140625 -0.15625 0.390625l0 7.40625q0 0.25 0.15625 0.421875q0.15625 0.125 0.375 0.125q0.203125 0 0.359375 -0.125q0.171875 -0.171875 0.171875 -0.421875zm-1.75 2.46875l-10.640625 0q-0.546875 0 -0.546875 0.46875q0 0.484375 0.546875 0.484375l10.59375 0q0.375 0 0.5625 0.15625q0.171875 0.140625 0.171875 0.46875l0 3.0q0 0.265625 0.15625 0.421875q0.15625 0.140625 0.375 0.140625q0.203125 0 0.359375 -0.140625q0.171875 -0.15625 0.171875 -0.421875l0 -3.0625q0 -0.6875 -0.46875 -1.109375q-0.484375 -0.40625 -1.28125 -0.40625zm20.203125 -9.890625l-10.375 0q-0.890625 0 -1.375 0.484375q-0.4375 0.453125 -0.4375 1.1875l0 5.640625q0 0.734375 0.453125 1.15625q0.46875 0.4375 1.296875 0.4375l10.515625 0q0.21875 0 0.34375 -0.15625q0.125 -0.140625 0.109375 -0.328125q0 -0.1875 -0.125 -0.34375q-0.15625 -0.125 -0.390625 -0.125l-10.28125 0q-0.4375 0 -0.625 -0.1875q-0.1875 -0.15625 -0.1875 -0.546875l0 -2.421875l10.890625 0q0.53125 0 0.53125 -0.484375q0 -0.453125 -0.53125 -0.453125l-10.890625 0l0 -2.0625q0 -0.453125 0.203125 -0.65625q0.21875 -0.1875 0.703125 -0.1875l10.25 0q0.21875 0 0.34375 -0.15625q0.125 -0.140625 0.109375 -0.3125q0 -0.21875 -0.125 -0.34375q-0.171875 -0.140625 -0.40625 -0.140625zm1.265625 12.796875l-14.390625 0q-0.25 0 -0.40625 0.125q-0.125 0.15625 -0.140625 0.34375q-0.03125 0.1875 0.09375 0.328125q0.109375 0.15625 0.3125 0.15625l14.671875 0q0.203125 0 0.3125 -0.15625q0.109375 -0.140625 0.109375 -0.328125q-0.015625 -0.1875 -0.15625 -0.34375q-0.15625 -0.125 -0.40625 -0.125z" fill-rule="nonzero"/><path fill="#000000" d="m709.19293 161.77339q0 2.875 -1.984375 4.90625q-1.71875 1.765625 -4.015625 2.234375q-0.296875 0.046875 -0.421875 0.234375q-0.140625 0.15625 -0.109375 0.359375q0.03125 0.1875 0.203125 0.296875q0.1875 0.109375 0.453125 0.078125q2.25 -0.453125 4.09375 -2.140625q1.75 -1.578125 2.3125 -3.453125q0.59375 1.859375 2.3125 3.453125q1.828125 1.671875 3.984375 2.109375q0.3125 0.0625 0.53125 -0.046875q0.1875 -0.109375 0.21875 -0.3125q0.0625 -0.203125 -0.0625 -0.375q-0.15625 -0.1875 -0.4375 -0.25q-2.421875 -0.5 -4.09375 -2.21875q-1.921875 -1.984375 -1.921875 -4.84375q0 -0.296875 -0.171875 -0.484375q-0.15625 -0.140625 -0.359375 -0.140625q-0.21875 0 -0.375 0.140625q-0.15625 0.171875 -0.15625 0.453125zm7.734375 12.5l-14.40625 0q-0.546875 0 -0.546875 0.46875q0 0.484375 0.546875 0.484375l14.421875 0q0.234375 0 0.390625 -0.15625q0.140625 -0.140625 0.140625 -0.328125q0 -0.1875 -0.140625 -0.34375q-0.15625 -0.125 -0.40625 -0.125zm17.71875 -12.796875l-10.375 0q-0.890625 0 -1.375 0.484375q-0.4375 0.453125 -0.4375 1.1875l0 5.640625q0 0.734375 0.453125 1.15625q0.46875 0.4375 1.296875 0.4375l10.515625 0q0.21875 0 0.34375 -0.15625q0.125 -0.140625 0.109375 -0.328125q0 -0.1875 -0.125 -0.34375q-0.15625 -0.125 -0.390625 -0.125l-10.28125 0q-0.4375 0 -0.625 -0.1875q-0.1875 -0.15625 -0.1875 -0.546875l0 -2.421875l10.890625 0q0.53125 0 0.53125 -0.484375q0 -0.453125 -0.53125 -0.453125l-10.890625 0l0 -2.0625q0 -0.453125 0.203125 -0.65625q0.21875 -0.1875 0.703125 -0.1875l10.25 0q0.21875 0 0.34375 -0.15625q0.125 -0.140625 0.109375 -0.3125q0 -0.21875 -0.125 -0.34375q-0.171875 -0.140625 -0.40625 -0.140625zm-6.4375 9.171875l0 3.625l-6.6875 0q-0.25 0 -0.40625 0.125q-0.125 0.15625 -0.140625 0.34375q-0.03125 0.1875 0.09375 0.328125q0.109375 0.15625 0.3125 0.15625l14.5625 0q0.234375 0 0.390625 -0.15625q0.140625 -0.140625 0.140625 -0.328125q0 -0.1875 -0.140625 -0.34375q-0.15625 -0.125 -0.40625 -0.125l-6.640625 0l0 -3.546875q0 -0.25 -0.1875 -0.40625q-0.15625 -0.140625 -0.359375 -0.140625q-0.21875 -0.03125 -0.375 0.109375q-0.15625 0.125 -0.15625 0.359375zm18.40625 -9.125l-5.3125 0q-0.59375 0 -0.59375 0.46875q-0.015625 0.46875 0.5625 0.46875l4.984375 0q0.5625 0 0.8125 0.15625q0.265625 0.1875 0.265625 0.5625l0 3.171875q0 0.40625 -0.1875 0.53125q-0.15625 0.15625 -0.625 0.15625l-3.984375 0q-0.828125 0 -1.28125 0.484375q-0.453125 0.453125 -0.453125 1.21875l0 4.375q0 0.84375 0.421875 1.328125q0.46875 0.515625 1.390625 0.515625q2.234375 0 4.28125 -0.328125q2.296875 -0.359375 3.828125 -1.046875q0.46875 -0.234375 0.265625 -0.703125q-0.1875 -0.46875 -0.671875 -0.203125q-1.34375 0.609375 -3.28125 0.96875q-2.0 0.359375 -4.140625 0.359375q-0.546875 0 -0.78125 -0.234375q-0.21875 -0.203125 -0.21875 -0.71875l0 -4.15625q0 -0.484375 0.171875 -0.6875q0.1875 -0.203125 0.640625 -0.203125l3.953125 0q0.875 0 1.296875 -0.390625q0.4375 -0.375 0.4375 -1.078125l0 -3.609375q0 -0.671875 -0.484375 -1.046875q-0.484375 -0.359375 -1.296875 -0.359375zm7.078125 14.40625l0 -14.4375q0 -0.25 -0.171875 -0.390625q-0.15625 -0.109375 -0.375 -0.109375q-0.25 0 -0.390625 0.109375q-0.171875 0.140625 -0.171875 0.390625l0 14.4375q0 0.25 0.171875 0.421875q0.140625 0.15625 0.390625 0.15625q0.21875 0 0.375 -0.15625q0.171875 -0.171875 0.171875 -0.421875zm15.046875 -14.390625l-8.421875 0q-0.515625 0 -0.515625 0.46875q-0.015625 0.484375 0.5 0.484375l3.671875 0l0 3.03125q0 2.890625 -1.234375 5.28125q-1.1875 2.34375 -3.0625 3.296875q-0.25 0.109375 -0.3125 0.34375q-0.0625 0.203125 0.046875 0.40625q0.09375 0.1875 0.28125 0.25q0.203125 0.09375 0.421875 -0.015625q1.5625 -0.78125 2.8125 -2.609375q1.21875 -1.796875 1.59375 -3.75q0.3125 1.890625 1.578125 3.75q1.25 1.8125 2.734375 2.609375q0.28125 0.15625 0.53125 0.078125q0.21875 -0.0625 0.328125 -0.265625q0.09375 -0.171875 0.03125 -0.40625q-0.046875 -0.21875 -0.296875 -0.34375q-1.9375 -1.078125 -3.125 -3.375q-1.234375 -2.375 -1.234375 -5.28125l0 -3.0l3.671875 0q0.46875 0 0.46875 -0.484375q0 -0.46875 -0.46875 -0.46875zm3.953125 14.390625l0 -14.4375q0 -0.25 -0.171875 -0.390625q-0.15625 -0.109375 -0.375 -0.109375q-0.25 0 -0.390625 0.109375q-0.171875 0.140625 -0.171875 0.390625l0 14.4375q0 0.25 0.171875 0.421875q0.140625 0.15625 0.390625 0.15625q0.21875 0 0.375 -0.15625q0.171875 -0.171875 0.171875 -0.421875z" fill-rule="nonzero"/><path fill="#b7b7b7" d="m650.0147 210.78687l0 0c0 -5.702591 21.319214 -10.325455 47.61786 -10.325455c26.298584 0 47.61786 4.622864 47.61786 10.325455l0 41.30185c0 5.7025757 -21.319275 10.325439 -47.61786 10.325439c-26.298645 0 -47.61786 -4.622864 -47.61786 -10.325439z" fill-rule="evenodd"/><path fill="#000000" fill-opacity="0.0" d="m745.2504 210.78687l0 0c0 5.702606 -21.319275 10.32547 -47.61786 10.32547c-26.298645 0 -47.61786 -4.622864 -47.61786 -10.32547" fill-rule="evenodd"/><path fill="#000000" fill-opacity="0.0" d="m650.0147 210.78687l0 0c0 -5.702591 21.319214 -10.325455 47.61786 -10.325455c26.298584 0 47.61786 4.622864 47.61786 10.325455l0 41.30185c0 5.7025757 -21.319275 10.325439 -47.61786 10.325439c-26.298645 0 -47.61786 -4.622864 -47.61786 -10.325439z" fill-rule="evenodd"/><path stroke="#595959" stroke-width="1.0" stroke-linejoin="round" stroke-linecap="butt" d="m745.2504 210.78687l0 0c0 5.702606 -21.319275 10.32547 -47.61786 10.32547c-26.298645 0 -47.61786 -4.622864 -47.61786 -10.32547" fill-rule="evenodd"/><path stroke="#595959" stroke-width="1.0" stroke-linejoin="round" stroke-linecap="butt" d="m650.0147 210.78687l0 0c0 -5.702591 21.319214 -10.325455 47.61786 -10.325455c26.298584 0 47.61786 4.622864 47.61786 10.325455l0 41.30185c0 5.7025757 -21.319275 10.325439 -47.61786 10.325439c-26.298645 0 -47.61786 -4.622864 -47.61786 -10.325439z" fill-rule="evenodd"/><path fill="#000000" fill-opacity="0.0" d="m158.14708 452.65616l208.44093 0l0 42.015747l-208.44093 0z" fill-rule="evenodd"/><path fill="#000000" d="m183.19987 465.56055l-8.421875 0q-0.515625 0 -0.515625 0.46875q-0.015625 0.484375 0.5 0.484375l3.671875 0l0 3.03125q0 2.890625 -1.234375 5.28125q-1.1875 2.34375 -3.0625 3.296875q-0.25 0.109375 -0.3125 0.34375q-0.0625 0.203125 0.046875 0.40625q0.09375 0.1875 0.28125 0.25q0.203125 0.09375 0.421875 -0.015625q1.5625 -0.78125 2.8125 -2.609375q1.21875 -1.796875 1.59375 -3.75q0.3125 1.890625 1.578125 3.75q1.25 1.8125 2.734375 2.609375q0.28125 0.15625 0.53125 0.078125q0.21875 -0.0625 0.328125 -0.265625q0.09375 -0.171875 0.03125 -0.40625q-0.046875 -0.21875 -0.296875 -0.34375q-1.9375 -1.078125 -3.125 -3.375q-1.234375 -2.375 -1.234375 -5.28125l0 -3.0l3.671875 0q0.46875 0 0.46875 -0.484375q0 -0.46875 -0.46875 -0.46875zm3.421875 6.734375l0 -6.78125q0 -0.25 -0.1875 -0.390625q-0.140625 -0.109375 -0.375 -0.109375q-0.21875 0 -0.359375 0.109375q-0.171875 0.140625 -0.171875 0.390625l0 14.46875q0 0.25 0.171875 0.390625q0.140625 0.15625 0.359375 0.15625q0.234375 0 0.375 -0.15625q0.1875 -0.140625 0.1875 -0.390625l0 -6.765625l2.0625 0q0.4375 0 0.4375 -0.46875q0 -0.453125 -0.4375 -0.453125l-2.0625 0zm19.578125 -6.796875l-11.96875 0q-0.515625 0 -0.515625 0.453125q-0.03125 0.484375 0.5 0.484375l5.4375 0l0 0.640625q0 1.59375 -1.765625 2.78125q-1.734375 1.140625 -4.25 1.28125q-0.296875 0 -0.46875 0.1875q-0.125 0.140625 -0.109375 0.34375q0.015625 0.21875 0.1875 0.359375q0.1875 0.15625 0.46875 0.140625q2.421875 -0.171875 4.28125 -1.21875q1.671875 -0.96875 2.1875 -2.234375q0.484375 1.234375 2.1875 2.21875q1.890625 1.0625 4.375 1.234375q0.265625 0 0.421875 -0.140625q0.140625 -0.140625 0.15625 -0.34375q0.015625 -0.203125 -0.109375 -0.34375q-0.140625 -0.15625 -0.40625 -0.15625q-2.578125 -0.140625 -4.34375 -1.328125q-1.75 -1.171875 -1.75 -2.765625l0 -0.65625l5.484375 0q0.453125 0 0.453125 -0.484375q0 -0.453125 -0.453125 -0.453125zm1.21875 8.546875l-14.4375 0q-0.515625 0 -0.53125 0.46875q-0.015625 0.484375 0.46875 0.484375l6.734375 0l0 4.96875q0 0.265625 0.15625 0.421875q0.15625 0.140625 0.375 0.140625q0.203125 0 0.359375 -0.15625q0.171875 -0.171875 0.171875 -0.421875l0 -4.953125l6.75 0q0.46875 0 0.46875 -0.484375q-0.015625 -0.46875 -0.515625 -0.46875z" fill-rule="nonzero"/><path fill="#000000" d="m221.25818 465.95117q0 3.015625 -0.984375 6.140625q-1.15625 3.703125 -3.265625 6.0625q-0.203125 0.203125 -0.203125 0.4375q0 0.203125 0.15625 0.359375q0.15625 0.125 0.359375 0.109375q0.21875 0 0.390625 -0.1875q1.421875 -1.75 2.359375 -3.65625q0.859375 -1.765625 1.515625 -4.078125q0.96875 1.234375 2.15625 3.625q0.953125 1.9375 1.6875 3.75q0.109375 0.265625 0.3125 0.375q0.203125 0.109375 0.390625 0.03125q0.203125 -0.09375 0.28125 -0.296875q0.09375 -0.21875 -0.03125 -0.515625q-0.65625 -1.8125 -1.828125 -3.953125q-1.265625 -2.296875 -2.671875 -4.140625q0.1875 -0.890625 0.3125 -2.0q0.15625 -1.140625 0.15625 -2.0625q0 -0.25 -0.1875 -0.40625q-0.15625 -0.140625 -0.375 -0.140625q-0.21875 0 -0.375 0.140625q-0.15625 0.15625 -0.15625 0.40625zm8.546875 6.34375l0 -6.78125q0 -0.25 -0.1875 -0.390625q-0.140625 -0.109375 -0.375 -0.109375q-0.21875 0 -0.359375 0.109375q-0.171875 0.140625 -0.171875 0.390625l0 14.46875q0 0.25 0.171875 0.390625q0.140625 0.15625 0.359375 0.15625q0.234375 0 0.375 -0.15625q0.1875 -0.140625 0.1875 -0.390625l0 -6.765625l2.0625 0q0.4375 0 0.4375 -0.46875q0 -0.453125 -0.4375 -0.453125l-2.0625 0zm13.5625 -7.125q-3.34375 0 -4.96875 0.734375q-1.5 0.6875 -1.5 1.96875q0 1.25 1.5 1.9375q1.625 0.75 4.96875 0.75q3.328125 0 4.953125 -0.75q1.515625 -0.6875 1.515625 -1.9375q0 -1.28125 -1.515625 -1.96875q-1.625 -0.734375 -4.953125 -0.734375zm0 0.953125q2.84375 0 4.140625 0.421875q1.265625 0.4375 1.265625 1.328125q0 0.859375 -1.265625 1.296875q-1.28125 0.421875 -4.140625 0.421875q-2.875 0 -4.15625 -0.421875q-1.21875 -0.40625 -1.21875 -1.296875q0 -0.890625 1.21875 -1.328125q1.296875 -0.421875 4.15625 -0.421875zm3.859375 6.75l0 -2.078125q0 -0.234375 -0.1875 -0.359375q-0.140625 -0.140625 -0.375 -0.140625q-0.234375 0 -0.390625 0.140625q-0.15625 0.125 -0.15625 0.359375l0 2.078125l-5.484375 0l0 -2.109375q0 -0.21875 -0.171875 -0.359375q-0.15625 -0.109375 -0.375 -0.09375q-0.25 0 -0.390625 0.125q-0.171875 0.140625 -0.171875 0.375l0 2.0625l-3.359375 0q-0.53125 0 -0.546875 0.46875q-0.03125 0.484375 0.5 0.484375l14.46875 0q0.234375 0 0.390625 -0.15625q0.140625 -0.140625 0.140625 -0.328125q0 -0.1875 -0.140625 -0.328125q-0.15625 -0.140625 -0.40625 -0.140625l-3.34375 0zm-3.859375 2.25q-3.296875 0 -4.96875 0.78125q-1.5 0.703125 -1.5 1.953125q0 1.21875 1.5 1.921875q1.671875 0.78125 4.96875 0.78125q3.28125 0 4.953125 -0.78125q1.515625 -0.703125 1.515625 -1.921875q0 -1.265625 -1.515625 -1.953125q-1.65625 -0.78125 -4.953125 -0.78125zm0 0.921875q2.796875 0 4.15625 0.484375q1.25 0.453125 1.25 1.328125q0 0.828125 -1.25 1.25q-1.359375 0.5 -4.15625 0.5q-2.8125 0 -4.171875 -0.5q-1.234375 -0.421875 -1.234375 -1.25q0 -0.875 1.234375 -1.328125q1.359375 -0.484375 4.171875 -0.484375zm18.828125 -10.703125l-4.859375 0q-0.515625 0 -0.515625 0.46875q0 0.484375 0.515625 0.484375l4.90625 0q0.5 0 0.484375 -0.484375q0 -0.46875 -0.53125 -0.46875zm1.96875 2.625l-8.828125 0q-0.515625 0 -0.515625 0.453125q0 0.46875 0.515625 0.46875l8.875 0q0.234375 0 0.390625 -0.15625q0.125 -0.125 0.125 -0.3125q0 -0.203125 -0.15625 -0.328125q-0.140625 -0.125 -0.40625 -0.125zm-4.34375 2.375q-2.078125 0 -3.28125 1.359375q-1.09375 1.25 -1.09375 3.046875q0 1.78125 1.09375 3.046875q1.203125 1.390625 3.28125 1.390625q2.03125 0 3.25 -1.390625q1.09375 -1.265625 1.09375 -3.046875q0 -1.78125 -1.09375 -3.046875q-1.21875 -1.359375 -3.25 -1.359375zm0 0.9375q1.53125 0 2.4375 1.078125q0.8125 0.96875 0.8125 2.390625q0 1.40625 -0.8125 2.375q-0.90625 1.09375 -2.4375 1.09375q-1.546875 0 -2.46875 -1.09375q-0.8125 -0.96875 -0.8125 -2.375q0 -1.421875 0.8125 -2.390625q0.921875 -1.078125 2.46875 -1.078125zm7.984375 1.015625l0 -6.78125q0 -0.25 -0.1875 -0.390625q-0.140625 -0.109375 -0.375 -0.109375q-0.21875 0 -0.359375 0.109375q-0.171875 0.140625 -0.171875 0.390625l0 14.46875q0 0.25 0.171875 0.390625q0.140625 0.15625 0.359375 0.15625q0.234375 0 0.375 -0.15625q0.1875 -0.140625 0.1875 -0.390625l0 -6.765625l2.0625 0q0.4375 0 0.4375 -0.46875q0 -0.453125 -0.4375 -0.453125l-2.0625 0zm9.203125 -1.859375l10.359375 0q0.21875 0 0.359375 -0.15625q0.109375 -0.140625 0.109375 -0.328125q0 -0.1875 -0.140625 -0.34375q-0.15625 -0.125 -0.40625 -0.125l-10.109375 0q-0.546875 0 -0.765625 -0.21875q-0.203125 -0.1875 -0.203125 -0.65625l0 -2.796875q0 -0.28125 -0.1875 -0.453125q-0.140625 -0.140625 -0.375 -0.140625q-0.234375 0 -0.390625 0.140625q-0.15625 0.171875 -0.15625 0.46875l0 2.984375q0 0.734375 0.53125 1.171875q0.546875 0.453125 1.375 0.453125zm11.5625 2.328125l-14.46875 0q-0.515625 0 -0.515625 0.46875q0.03125 0.46875 0.53125 0.46875l14.578125 0q0.203125 0 0.3125 -0.15625q0.109375 -0.125 0.109375 -0.3125q-0.015625 -0.203125 -0.140625 -0.34375q-0.171875 -0.125 -0.40625 -0.125zm-12.359375 3.1875q0 -0.3125 -0.1875 -0.5q-0.140625 -0.15625 -0.375 -0.15625q-0.234375 0 -0.390625 0.15625q-0.15625 0.171875 -0.15625 0.5l0 2.5q0 0.71875 0.421875 1.15625q0.421875 0.46875 1.171875 0.46875l10.671875 0q0.46875 0 0.46875 -0.484375q0 -0.46875 -0.46875 -0.46875l-10.265625 0q-0.515625 0 -0.703125 -0.15625q-0.1875 -0.1875 -0.1875 -0.6875l0 -2.328125z" fill-rule="nonzero"/><path fill="#000000" d="m304.8165 465.56055l-4.390625 0q-0.828125 0 -1.328125 0.484375q-0.46875 0.484375 -0.46875 1.25l0 9.6875q0 0.90625 0.46875 1.40625q0.515625 0.5625 1.53125 0.5625q1.46875 0 2.671875 -0.1875q1.421875 -0.234375 2.71875 -0.734375q0.234375 -0.109375 0.328125 -0.3125q0.078125 -0.203125 0 -0.40625q-0.078125 -0.203125 -0.265625 -0.28125q-0.203125 -0.109375 -0.4375 0.015625q-1.078125 0.515625 -2.4375 0.75q-1.15625 0.203125 -2.578125 0.203125q-0.515625 0 -0.71875 -0.28125q-0.1875 -0.234375 -0.1875 -0.796875l0 -9.640625q0 -0.390625 0.171875 -0.578125q0.171875 -0.1875 0.546875 -0.1875l4.34375 0q0.5625 0 0.5625 -0.484375q0.015625 -0.46875 -0.53125 -0.46875zm3.78125 14.390625l0 -14.453125q0 -0.25 -0.1875 -0.375q-0.15625 -0.125 -0.375 -0.125q-0.21875 0 -0.375 0.125q-0.15625 0.140625 -0.15625 0.390625l0 5.765625l-3.453125 0q-0.265625 0 -0.40625 0.125q-0.140625 0.15625 -0.109375 0.34375q0 0.1875 0.140625 0.328125q0.171875 0.15625 0.46875 0.15625l3.359375 0l0 7.71875q0 0.25 0.15625 0.421875q0.15625 0.15625 0.375 0.15625q0.21875 0 0.375 -0.15625q0.1875 -0.171875 0.1875 -0.421875zm3.421875 0l0 -14.453125q0 -0.25 -0.171875 -0.375q-0.15625 -0.125 -0.359375 -0.125q-0.21875 0 -0.375 0.125q-0.15625 0.140625 -0.15625 0.390625l0 14.4375q0 0.25 0.15625 0.421875q0.15625 0.15625 0.375 0.15625q0.203125 0 0.359375 -0.15625q0.171875 -0.171875 0.171875 -0.421875zm9.65625 -14.484375q-2.046875 0 -3.203125 2.0625q-1.0625 1.890625 -1.0625 4.75q0 2.828125 1.0625 4.703125q1.15625 2.078125 3.203125 2.078125q2.0 0 3.15625 -2.078125q1.0625 -1.875 1.0625 -4.703125q0 -2.859375 -1.0625 -4.75q-1.15625 -2.0625 -3.15625 -2.0625zm0 0.953125q1.484375 0 2.34375 1.765625q0.765625 1.609375 0.765625 4.09375q0 2.4375 -0.765625 4.0625q-0.859375 1.78125 -2.34375 1.78125q-1.515625 0 -2.375 -1.78125q-0.78125 -1.625 -0.78125 -4.0625q0 -2.484375 0.78125 -4.09375q0.859375 -1.765625 2.375 -1.765625zm8.84375 13.53125l0 -14.4375q0 -0.25 -0.171875 -0.390625q-0.15625 -0.109375 -0.375 -0.109375q-0.25 0 -0.390625 0.109375q-0.171875 0.140625 -0.171875 0.390625l0 14.4375q0 0.25 0.171875 0.421875q0.140625 0.15625 0.390625 0.15625q0.21875 0 0.375 -0.15625q0.171875 -0.171875 0.171875 -0.421875zm13.53125 -14.390625l-5.53125 0q-0.9375 0 -1.4375 0.5625q-0.453125 0.484375 -0.453125 1.25l0 9.859375q0 0.875 0.390625 1.34375q0.453125 0.53125 1.375 0.53125q2.34375 0 4.25 -0.25q1.96875 -0.265625 3.21875 -0.75q0.546875 -0.234375 0.359375 -0.6875q-0.171875 -0.4375 -0.703125 -0.234375q-1.34375 0.5 -3.078125 0.734375q-1.734375 0.25 -4.03125 0.25q-0.375 0 -0.53125 -0.265625q-0.15625 -0.203125 -0.15625 -0.625l0 -5.03125l5.71875 0q0.53125 0 0.53125 -0.484375q0 -0.46875 -0.53125 -0.46875l-5.71875 0l0 -3.921875q0 -0.421875 0.171875 -0.640625q0.203125 -0.21875 0.609375 -0.21875l5.578125 0q0.28125 0 0.453125 -0.15625q0.140625 -0.140625 0.140625 -0.328125q-0.015625 -0.1875 -0.15625 -0.328125q-0.1875 -0.140625 -0.46875 -0.140625zm5.46875 14.3125l0 -14.3125q0 -0.265625 -0.171875 -0.421875q-0.15625 -0.125 -0.375 -0.125q-0.25 0 -0.390625 0.125q-0.171875 0.15625 -0.171875 0.421875l0 6.078125l-3.171875 0q-0.265625 0 -0.390625 0.125q-0.125 0.15625 -0.125 0.328125q0.015625 0.1875 0.171875 0.34375q0.15625 0.140625 0.4375 0.140625l3.078125 0l0 7.296875q0 0.3125 0.171875 0.5q0.140625 0.171875 0.390625 0.171875q0.21875 0 0.375 -0.171875q0.171875 -0.203125 0.171875 -0.5z" fill-rule="nonzero"/><path fill="#000000" fill-opacity="0.0" d="m576.54596 452.65616l242.17322 0l0 42.015747l-242.17322 0z" fill-rule="evenodd"/><path fill="#000000" d="m627.96484 465.56055l-8.421875 0q-0.515625 0 -0.515625 0.46875q-0.015625 0.484375 0.5 0.484375l3.671875 0l0 3.03125q0 2.890625 -1.234375 5.28125q-1.1875 2.34375 -3.0625 3.296875q-0.25 0.109375 -0.3125 0.34375q-0.0625 0.203125 0.046875 0.40625q0.09375 0.1875 0.28125 0.25q0.203125 0.09375 0.421875 -0.015625q1.5625 -0.78125 2.8125 -2.609375q1.21875 -1.796875 1.59375 -3.75q0.3125 1.890625 1.578125 3.75q1.25 1.8125 2.734375 2.609375q0.28125 0.15625 0.53125 0.078125q0.21875 -0.0625 0.328125 -0.265625q0.09375 -0.171875 0.03125 -0.40625q-0.046875 -0.21875 -0.296875 -0.34375q-1.9375 -1.078125 -3.125 -3.375q-1.234375 -2.375 -1.234375 -5.28125l0 -3.0l3.671875 0q0.46875 0 0.46875 -0.484375q0 -0.46875 -0.46875 -0.46875zm3.421875 6.734375l0 -6.78125q0 -0.25 -0.1875 -0.390625q-0.140625 -0.109375 -0.375 -0.109375q-0.21875 0 -0.359375 0.109375q-0.171875 0.140625 -0.171875 0.390625l0 14.46875q0 0.25 0.171875 0.390625q0.140625 0.15625 0.359375 0.15625q0.234375 0 0.375 -0.15625q0.1875 -0.140625 0.1875 -0.390625l0 -6.765625l2.0625 0q0.4375 0 0.4375 -0.46875q0 -0.453125 -0.4375 -0.453125l-2.0625 0zm19.578125 -6.796875l-11.96875 0q-0.515625 0 -0.515625 0.453125q-0.03125 0.484375 0.5 0.484375l5.4375 0l0 0.640625q0 1.59375 -1.765625 2.78125q-1.734375 1.140625 -4.25 1.28125q-0.296875 0 -0.46875 0.1875q-0.125 0.140625 -0.109375 0.34375q0.015625 0.21875 0.1875 0.359375q0.1875 0.15625 0.46875 0.140625q2.421875 -0.171875 4.28125 -1.21875q1.671875 -0.96875 2.1875 -2.234375q0.484375 1.234375 2.1875 2.21875q1.890625 1.0625 4.375 1.234375q0.265625 0 0.421875 -0.140625q0.140625 -0.140625 0.15625 -0.34375q0.015625 -0.203125 -0.109375 -0.34375q-0.140625 -0.15625 -0.40625 -0.15625q-2.578125 -0.140625 -4.34375 -1.328125q-1.75 -1.171875 -1.75 -2.765625l0 -0.65625l5.484375 0q0.453125 0 0.453125 -0.484375q0 -0.453125 -0.453125 -0.453125zm1.21875 8.546875l-14.4375 0q-0.515625 0 -0.53125 0.46875q-0.015625 0.484375 0.46875 0.484375l6.734375 0l0 4.96875q0 0.265625 0.15625 0.421875q0.15625 0.140625 0.375 0.140625q0.203125 0 0.359375 -0.15625q0.171875 -0.171875 0.171875 -0.421875l0 -4.953125l6.75 0q0.46875 0 0.46875 -0.484375q-0.015625 -0.46875 -0.515625 -0.46875z" fill-rule="nonzero"/><path fill="#000000" d="m671.1482 465.43555l-8.421875 0q-0.515625 0 -0.515625 0.46875q-0.015625 0.484375 0.5 0.484375l3.671875 0l0 0.609375q0 1.953125 -1.28125 3.34375q-1.046875 1.140625 -3.03125 1.953125q-0.25 0.09375 -0.328125 0.296875q-0.046875 0.1875 0.046875 0.375q0.109375 0.203125 0.296875 0.28125q0.203125 0.09375 0.4375 0.015625q1.671875 -0.640625 2.84375 -1.71875q1.125 -1.078125 1.5625 -2.328125q0.3125 1.09375 1.59375 2.21875q1.1875 1.015625 2.703125 1.671875q0.265625 0.109375 0.5 0.03125q0.234375 -0.078125 0.34375 -0.28125q0.09375 -0.203125 0.03125 -0.40625q-0.078125 -0.203125 -0.3125 -0.296875q-1.859375 -0.75 -2.9375 -1.859375q-1.375 -1.40625 -1.375 -3.34375l0 -0.5625l3.671875 0q0.46875 0 0.46875 -0.484375q0 -0.46875 -0.46875 -0.46875zm3.953125 7.453125l0 -7.359375q0 -0.265625 -0.171875 -0.40625q-0.15625 -0.125 -0.375 -0.125q-0.25 0 -0.390625 0.140625q-0.171875 0.15625 -0.171875 0.40625l0 3.234375l-3.171875 0q-0.265625 0 -0.390625 0.125q-0.125 0.15625 -0.125 0.34375q0.015625 0.171875 0.171875 0.328125q0.15625 0.140625 0.4375 0.140625l3.078125 0l0 3.171875q0 0.265625 0.171875 0.4375q0.140625 0.140625 0.390625 0.140625q0.21875 0 0.375 -0.140625q0.171875 -0.171875 0.171875 -0.4375zm-1.109375 2.015625l0 1.140625l-9.609375 0l0 -1.140625q0 -0.265625 -0.1875 -0.40625q-0.140625 -0.140625 -0.375 -0.140625q-0.21875 0 -0.359375 0.140625q-0.171875 0.140625 -0.171875 0.40625l0 3.8125q0 0.59375 0.359375 0.96875q0.359375 0.390625 1.015625 0.390625l8.953125 0q0.6875 0 1.09375 -0.390625q0.390625 -0.34375 0.390625 -0.921875l0 -3.859375q0 -0.265625 -0.171875 -0.40625q-0.15625 -0.140625 -0.375 -0.140625q-0.25 0 -0.390625 0.140625q-0.171875 0.140625 -0.171875 0.40625zm0 2.09375l0 1.515625q0 0.34375 -0.140625 0.46875q-0.15625 0.140625 -0.546875 0.140625l-8.21875 0q-0.390625 0 -0.546875 -0.15625q-0.15625 -0.15625 -0.15625 -0.46875l0 -1.5l9.609375 0zm18.328125 -11.5l-10.1875 0q-0.5 0 -0.5 0.453125q0 0.484375 0.5 0.484375l10.03125 0q0.515625 0 0.8125 0.25q0.3125 0.234375 0.3125 0.703125l0 1.0q0 1.15625 -0.125 1.8125q-0.203125 1.125 -0.859375 2.25l1.203125 0q0.46875 -0.90625 0.71875 -2.203125q0.15625 -0.96875 0.171875 -1.84375l0 -1.09375q0 -0.875 -0.5625 -1.359375q-0.5625 -0.453125 -1.515625 -0.453125zm3.015625 6.859375l-14.40625 0q-0.53125 0 -0.546875 0.453125q-0.046875 0.453125 0.453125 0.453125l14.515625 0q0.53125 0 0.53125 -0.453125q-0.015625 -0.453125 -0.546875 -0.453125zm-12.359375 3.59375q0 -0.3125 -0.1875 -0.5q-0.140625 -0.15625 -0.375 -0.15625q-0.234375 0 -0.390625 0.15625q-0.15625 0.171875 -0.15625 0.5l0 2.5q0 0.71875 0.421875 1.15625q0.421875 0.46875 1.171875 0.46875l10.671875 0q0.46875 0 0.46875 -0.484375q0 -0.46875 -0.46875 -0.46875l-10.265625 0q-0.515625 0 -0.703125 -0.15625q-0.1875 -0.1875 -0.1875 -0.6875l0 -2.328125zm23.984375 -10.609375l-4.859375 0q-0.515625 0 -0.515625 0.46875q0 0.484375 0.515625 0.484375l4.90625 0q0.5 0 0.484375 -0.484375q0 -0.46875 -0.53125 -0.46875zm1.96875 2.625l-8.828125 0q-0.515625 0 -0.515625 0.453125q0 0.46875 0.515625 0.46875l8.875 0q0.234375 0 0.390625 -0.15625q0.125 -0.125 0.125 -0.3125q0 -0.203125 -0.15625 -0.328125q-0.140625 -0.125 -0.40625 -0.125zm-4.34375 2.375q-2.078125 0 -3.28125 1.359375q-1.09375 1.25 -1.09375 3.046875q0 1.78125 1.09375 3.046875q1.203125 1.390625 3.28125 1.390625q2.03125 0 3.25 -1.390625q1.09375 -1.265625 1.09375 -3.046875q0 -1.78125 -1.09375 -3.046875q-1.21875 -1.359375 -3.25 -1.359375zm0 0.9375q1.53125 0 2.4375 1.078125q0.8125 0.96875 0.8125 2.390625q0 1.40625 -0.8125 2.375q-0.90625 1.09375 -2.4375 1.09375q-1.546875 0 -2.46875 -1.09375q-0.8125 -0.96875 -0.8125 -2.375q0 -1.421875 0.8125 -2.390625q0.921875 -1.078125 2.46875 -1.078125zm7.984375 1.015625l0 -6.78125q0 -0.25 -0.1875 -0.390625q-0.140625 -0.109375 -0.375 -0.109375q-0.21875 0 -0.359375 0.109375q-0.171875 0.140625 -0.171875 0.390625l0 14.46875q0 0.25 0.171875 0.390625q0.140625 0.15625 0.359375 0.15625q0.234375 0 0.375 -0.15625q0.1875 -0.140625 0.1875 -0.390625l0 -6.765625l2.0625 0q0.4375 0 0.4375 -0.46875q0 -0.453125 -0.4375 -0.453125l-2.0625 0zm15.578125 -6.734375l-8.421875 0q-0.515625 0 -0.515625 0.46875q-0.015625 0.484375 0.5 0.484375l3.671875 0l0 3.03125q0 2.890625 -1.234375 5.28125q-1.1875 2.34375 -3.0625 3.296875q-0.25 0.109375 -0.3125 0.34375q-0.0625 0.203125 0.046875 0.40625q0.09375 0.1875 0.28125 0.25q0.203125 0.09375 0.421875 -0.015625q1.5625 -0.78125 2.8125 -2.609375q1.21875 -1.796875 1.59375 -3.75q0.3125 1.890625 1.578125 3.75q1.25 1.8125 2.734375 2.609375q0.28125 0.15625 0.53125 0.078125q0.21875 -0.0625 0.328125 -0.265625q0.09375 -0.171875 0.03125 -0.40625q-0.046875 -0.21875 -0.296875 -0.34375q-1.9375 -1.078125 -3.125 -3.375q-1.234375 -2.375 -1.234375 -5.28125l0 -3.0l3.671875 0q0.46875 0 0.46875 -0.484375q0 -0.46875 -0.46875 -0.46875zm3.953125 14.390625l0 -14.4375q0 -0.25 -0.171875 -0.390625q-0.15625 -0.109375 -0.375 -0.109375q-0.25 0 -0.390625 0.109375q-0.171875 0.140625 -0.171875 0.390625l0 14.4375q0 0.25 0.171875 0.421875q0.140625 0.15625 0.390625 0.15625q0.21875 0 0.375 -0.15625q0.171875 -0.171875 0.171875 -0.421875z" fill-rule="nonzero"/><path fill="#000000" d="m747.44086 465.32617q-2.015625 0 -3.203125 1.125q-1.0625 1.03125 -1.0625 2.46875q0 1.453125 1.0625 2.46875q1.1875 1.15625 3.203125 1.15625q1.984375 0 3.15625 -1.15625q1.0625 -1.015625 1.0625 -2.46875q0 -1.4375 -1.0625 -2.46875q-1.171875 -1.125 -3.15625 -1.125zm0 0.96875q1.484375 0 2.359375 0.828125q0.78125 0.75 0.78125 1.796875q0 1.078125 -0.78125 1.828125q-0.875 0.84375 -2.359375 0.84375q-1.515625 0 -2.390625 -0.84375q-0.765625 -0.75 -0.765625 -1.828125q0 -1.078125 0.765625 -1.796875q0.875 -0.828125 2.390625 -0.828125zm8.3125 2.765625l0 -3.5625q0 -0.5 -0.5625 -0.5q-0.53125 0 -0.53125 0.5l0 7.0625q0 0.25 0.171875 0.390625q0.140625 0.125 0.359375 0.125q0.234375 0 0.375 -0.125q0.1875 -0.140625 0.1875 -0.390625l0 -2.5625l2.015625 0q0.484375 0 0.484375 -0.484375q0 -0.453125 -0.484375 -0.453125l-2.015625 0zm-0.8125 4.765625l-3.96875 0q-0.5 0 -0.5 0.484375q0 0.484375 0.5 0.484375l4.03125 0q0.21875 0 0.34375 -0.171875q0.109375 -0.125 0.109375 -0.3125q-0.015625 -0.203125 -0.15625 -0.34375q-0.125 -0.140625 -0.359375 -0.140625zm1.375 1.71875l-6.6875 0q-0.515625 0 -0.515625 0.46875q0 0.484375 0.515625 0.484375l6.734375 0q0.453125 0 0.421875 -0.484375q-0.015625 -0.46875 -0.46875 -0.46875zm-3.359375 1.484375q-1.65625 0 -2.515625 0.5q-0.75 0.453125 -0.75 1.15625q0 0.6875 0.75 1.125q0.859375 0.515625 2.515625 0.515625q1.609375 0 2.5 -0.515625q0.796875 -0.4375 0.796875 -1.125q0 -0.703125 -0.796875 -1.15625q-0.890625 -0.5 -2.5 -0.5zm0 0.953125q1.109375 0 1.671875 0.1875q0.515625 0.15625 0.515625 0.515625q0 0.3125 -0.515625 0.484375q-0.5625 0.203125 -1.671875 0.203125q-1.140625 0 -1.6875 -0.203125q-0.53125 -0.171875 -0.53125 -0.484375q0 -0.328125 0.53125 -0.515625q0.546875 -0.1875 1.6875 -0.1875zm-8.78125 -3.546875l0 4.34375q0 0.671875 0.4375 1.0625q0.46875 0.390625 1.28125 0.390625q0.859375 0 1.578125 -0.140625q0.625 -0.109375 1.46875 -0.359375q0.265625 -0.09375 0.375 -0.3125q0.109375 -0.15625 0.046875 -0.359375q-0.03125 -0.1875 -0.203125 -0.265625q-0.171875 -0.09375 -0.40625 0q-0.4375 0.15625 -1.296875 0.296875q-0.921875 0.171875 -1.4375 0.171875q-0.46875 0 -0.625 -0.140625q-0.125 -0.109375 -0.125 -0.4375l0 -4.25q0 -0.28125 -0.1875 -0.4375q-0.140625 -0.15625 -0.375 -0.15625q-0.21875 0 -0.359375 0.15625q-0.171875 0.15625 -0.171875 0.4375zm20.78125 -4.0l10.359375 0q0.21875 0 0.359375 -0.15625q0.109375 -0.140625 0.109375 -0.328125q0 -0.1875 -0.140625 -0.34375q-0.15625 -0.125 -0.40625 -0.125l-10.109375 0q-0.546875 0 -0.765625 -0.21875q-0.203125 -0.1875 -0.203125 -0.65625l0 -2.796875q0 -0.28125 -0.1875 -0.453125q-0.140625 -0.140625 -0.375 -0.140625q-0.234375 0 -0.390625 0.140625q-0.15625 0.171875 -0.15625 0.46875l0 2.984375q0 0.734375 0.53125 1.171875q0.546875 0.453125 1.375 0.453125zm11.5625 2.328125l-14.46875 0q-0.515625 0 -0.515625 0.46875q0.03125 0.46875 0.53125 0.46875l14.578125 0q0.203125 0 0.3125 -0.15625q0.109375 -0.125 0.109375 -0.3125q-0.015625 -0.203125 -0.140625 -0.34375q-0.171875 -0.125 -0.40625 -0.125zm-12.359375 3.1875q0 -0.3125 -0.1875 -0.5q-0.140625 -0.15625 -0.375 -0.15625q-0.234375 0 -0.390625 0.15625q-0.15625 0.171875 -0.15625 0.5l0 2.5q0 0.71875 0.421875 1.15625q0.421875 0.46875 1.171875 0.46875l10.671875 0q0.46875 0 0.46875 -0.484375q0 -0.46875 -0.46875 -0.46875l-10.265625 0q-0.515625 0 -0.703125 -0.15625q-0.1875 -0.1875 -0.1875 -0.6875l0 -2.328125z" fill-rule="nonzero"/><path fill="#000000" d="m677.8982 487.96054l-4.390625 0q-0.828125 0 -1.328125 0.484375q-0.46875 0.484375 -0.46875 1.25l0 9.6875q0 0.90625 0.46875 1.40625q0.515625 0.5625 1.53125 0.5625q1.46875 0 2.671875 -0.1875q1.421875 -0.234375 2.71875 -0.734375q0.234375 -0.109375 0.328125 -0.3125q0.078125 -0.203125 0 -0.40625q-0.078125 -0.203125 -0.265625 -0.28125q-0.203125 -0.109375 -0.4375 0.015625q-1.078125 0.515625 -2.4375 0.75q-1.15625 0.203125 -2.578125 0.203125q-0.515625 0 -0.71875 -0.28125q-0.1875 -0.234375 -0.1875 -0.796875l0 -9.640625q0 -0.390625 0.171875 -0.578125q0.171875 -0.1875 0.546875 -0.1875l4.34375 0q0.5625 0 0.5625 -0.484375q0.015625 -0.46875 -0.53125 -0.46875zm3.78125 14.390625l0 -14.453125q0 -0.25 -0.1875 -0.375q-0.15625 -0.125 -0.375 -0.125q-0.21875 0 -0.375 0.125q-0.15625 0.140625 -0.15625 0.390625l0 5.765625l-3.453125 0q-0.265625 0 -0.40625 0.125q-0.140625 0.15625 -0.109375 0.34375q0 0.1875 0.140625 0.328125q0.171875 0.15625 0.46875 0.15625l3.359375 0l0 7.71875q0 0.25 0.15625 0.421875q0.15625 0.15625 0.375 0.15625q0.21875 0 0.375 -0.15625q0.1875 -0.171875 0.1875 -0.421875zm3.421875 0l0 -14.453125q0 -0.25 -0.171875 -0.375q-0.15625 -0.125 -0.359375 -0.125q-0.21875 0 -0.375 0.125q-0.15625 0.140625 -0.15625 0.390625l0 14.4375q0 0.25 0.15625 0.421875q0.15625 0.15625 0.375 0.15625q0.203125 0 0.359375 -0.15625q0.171875 -0.171875 0.171875 -0.421875zm9.65625 -14.484375q-2.046875 0 -3.203125 2.0625q-1.0625 1.890625 -1.0625 4.75q0 2.828125 1.0625 4.703125q1.15625 2.078125 3.203125 2.078125q2.0 0 3.15625 -2.078125q1.0625 -1.875 1.0625 -4.703125q0 -2.859375 -1.0625 -4.75q-1.15625 -2.0625 -3.15625 -2.0625zm0 0.953125q1.484375 0 2.34375 1.765625q0.765625 1.609375 0.765625 4.09375q0 2.4375 -0.765625 4.0625q-0.859375 1.78125 -2.34375 1.78125q-1.515625 0 -2.375 -1.78125q-0.78125 -1.625 -0.78125 -4.0625q0 -2.484375 0.78125 -4.09375q0.859375 -1.765625 2.375 -1.765625zm8.84375 13.53125l0 -14.4375q0 -0.25 -0.171875 -0.390625q-0.15625 -0.109375 -0.375 -0.109375q-0.25 0 -0.390625 0.109375q-0.171875 0.140625 -0.171875 0.390625l0 14.4375q0 0.25 0.171875 0.421875q0.140625 0.15625 0.390625 0.15625q0.21875 0 0.375 -0.15625q0.171875 -0.171875 0.171875 -0.421875zm13.53125 -14.390625l-5.53125 0q-0.9375 0 -1.4375 0.5625q-0.453125 0.484375 -0.453125 1.25l0 9.859375q0 0.875 0.390625 1.34375q0.453125 0.53125 1.375 0.53125q2.34375 0 4.25 -0.25q1.96875 -0.265625 3.21875 -0.75q0.546875 -0.234375 0.359375 -0.6875q-0.171875 -0.4375 -0.703125 -0.234375q-1.34375 0.5 -3.078125 0.734375q-1.734375 0.25 -4.03125 0.25q-0.375 0 -0.53125 -0.265625q-0.15625 -0.203125 -0.15625 -0.625l0 -5.03125l5.71875 0q0.53125 0 0.53125 -0.484375q0 -0.46875 -0.53125 -0.46875l-5.71875 0l0 -3.921875q0 -0.421875 0.171875 -0.640625q0.203125 -0.21875 0.609375 -0.21875l5.578125 0q0.28125 0 0.453125 -0.15625q0.140625 -0.140625 0.140625 -0.328125q-0.015625 -0.1875 -0.15625 -0.328125q-0.1875 -0.140625 -0.46875 -0.140625zm5.46875 14.3125l0 -14.3125q0 -0.265625 -0.171875 -0.421875q-0.15625 -0.125 -0.375 -0.125q-0.25 0 -0.390625 0.125q-0.171875 0.15625 -0.171875 0.421875l0 6.078125l-3.171875 0q-0.265625 0 -0.390625 0.125q-0.125 0.15625 -0.125 0.328125q0.015625 0.1875 0.171875 0.34375q0.15625 0.140625 0.4375 0.140625l3.078125 0l0 7.296875q0 0.3125 0.171875 0.5q0.140625 0.171875 0.390625 0.171875q0.21875 0 0.375 -0.171875q0.171875 -0.203125 0.171875 -0.5z" fill-rule="nonzero"/></g></svg>